<svg version="1.1" xmlns="http://www.w3.org/2000/svg" width="600" height="1039.244" viewBox="0 0 100% 100%">
  <style>
		:root {
		  --golden: #907A58;
		  --darkBlue: #475387;
		  --beige: #DFD8CC;
		  --teal: #4A9AC4;
		  --gray: #A49DA0;
		  --smaragd: #406A72;
		  --sand: #EDC9AF;
		  --grayGreen: #A2D1D6;
		  --blueGray: #758390;
		  --lightBrown: #AA8858;
		  --blue1: #8EC5EE;
		  --blue2: #8CC6EA;
		  --blue3: #B6DAEC;
		  --rust: #D8692D;
		  --yellow: #F8C346;

      --black: #443430;
      --red: #BF402B;
      --gold: #CEA600;
      --turquois: #4D9BA3;
      --emerald: #216554;
      --blue: #262F66;
      --white: #FFFAF2;
      --lightBlue: #2AAFDD;
		}
    .shape-6{fill:var(--red)}
    .shape-1{fill:var(--black)}
    .shape-7{fill:var(--white)}
    .shape-5{fill:var(--gold)}
    .shape-2{fill:var(--turquois)}
    .shape-3{fill:var(--darkBlue)}
    .shape-4{fill:var(--emerald)}
    <!-- .line{stroke:#fff;stroke-width:20px} -->
    .guides{stroke: #4FFF4F; display: none;}
  </style>
      <g class="line" id="pattern">
				<rect x="-17.786" y="-32.632" class="shape-6" width="644.115" height="1112.856"/>
				<polygon class="shape-1" points="402.512,868.521 102.512,868.521 252.512,608.713 302.512,695.316 252.504,781.932 352.512,781.918 	
					"/>
				<polygon class="shape-1" points="702.52,348.92 402.52,348.92 552.52,89.113 602.52,175.716 552.512,262.332 652.52,262.318 	"/>
				<polygon class="shape-1" points="102.521,348.92 -197.479,348.92 -47.479,89.113 2.521,175.716 -47.487,262.332 52.521,262.318 	"/>
				<polygon class="shape-2" points="402.52,522.125 552.52,781.933 252.52,781.933 302.52,695.331 402.537,695.331 352.52,608.728 	"/>
				<polygon class="shape-2" points="102.513,2.524 252.513,262.332 -47.487,262.332 2.513,175.729 102.529,175.729 52.513,89.127 	"/>
				<polygon class="shape-2" points="702.512,2.524 852.512,262.332 552.512,262.332 602.512,175.729 702.528,175.729 652.512,89.127 	"/>
				<polygon class="shape-2" points="102.513,1041.725 252.513,1301.533 -47.488,1301.533 2.512,1214.93 102.528,1214.93 52.513,1128.328 	
					"/>
				<polygon class="shape-3" points="102.52,695.331 252.52,435.522 402.52,695.331 302.52,695.331 252.512,608.713 202.52,695.331 	"/>
				<polygon class="shape-3" points="-197.471,1214.932 -47.471,955.124 102.529,1214.932 2.529,1214.932 -47.479,1128.315 
					-97.471,1214.932 	"/>
				<polygon class="shape-3" points="402.512,1214.932 552.512,955.124 702.512,1214.932 602.512,1214.932 552.504,1128.315 
					502.512,1214.932 	"/>
				<polygon class="shape-3" points="402.529,175.73 552.529,-84.079 702.529,175.73 602.529,175.73 552.521,89.113 502.529,175.73 	"/>
				<polygon class="shape-3" points="-197.471,175.729 -47.471,-84.079 102.529,175.729 2.529,175.729 -47.479,89.112 -97.471,175.729 	
					"/>
				<polygon class="shape-4" points="802.497,868.52 652.497,1128.327 502.496,868.521 602.496,868.521 652.504,955.137 702.497,868.52 	
					"/>
				<polygon class="shape-4" points="502.52,348.92 352.52,608.728 202.519,348.921 302.519,348.921 352.528,435.538 402.52,348.92 	"/>
				<polygon class="shape-4" points="802.512,-170.681 652.512,89.127 502.511,-170.68 602.511,-170.68 652.52,-84.063 702.512,-170.681 	
					"/>
				<polygon class="shape-4" points="202.512,868.521 52.512,1128.328 -97.489,868.521 2.511,868.521 52.52,955.138 102.512,868.521 	"/>
				<polygon class="shape-4" points="202.513,-170.681 52.513,89.127 -97.488,-170.68 2.512,-170.68 52.521,-84.063 102.513,-170.681 	"/>
				<polygon class="shape-7" points="502.504,695.329 802.504,695.329 652.504,955.137 602.504,868.534 652.513,781.917 552.504,781.932 	"/>
				<polygon class="shape-7" points="202.528,175.73 502.528,175.73 352.528,435.538 302.528,348.935 352.537,262.318 252.528,262.333 	"/>
				<polygon class="shape-7" points="-97.48,695.331 202.52,695.331 52.52,955.138 2.52,868.536 52.529,781.918 -47.48,781.933 	"/>
				<polygon class="shape-5" points="502.512,1041.726 352.512,781.918 652.512,781.918 602.512,868.521 502.496,868.521 552.512,955.124 	
					"/>
				<polygon class="shape-5" points="502.529,2.525 352.529,-257.283 652.529,-257.283 602.529,-170.68 502.512,-170.681 552.529,-84.078 	
					"/>
				<polygon class="shape-5" points="202.52,522.125 52.52,262.317 352.52,262.318 302.52,348.92 202.503,348.92 252.52,435.523 	"/>
				<polygon class="shape-5" points="802.52,522.126 652.52,262.318 952.52,262.318 902.52,348.921 802.503,348.92 852.52,435.523 	"/>
				<polygon class="shape-5" points="-97.471,1041.726 -247.471,781.918 52.529,781.918 2.529,868.521 -97.488,868.521 -47.471,955.124 	
					"/>
			</g>
			<g class="guides">
				<line class="st0" x1="-147.488" y1="-84.107" x2="-847.488" y2="1128.328"/>
				<line class="st0" x1="-47.488" y1="-84.107" x2="-747.488" y2="1128.328"/>
				<line class="st0" x1="52.512" y1="-84.107" x2="-647.488" y2="1128.328"/>
				<line class="st0" x1="152.512" y1="-84.107" x2="-547.488" y2="1128.328"/>
				<line class="st0" x1="252.512" y1="-84.107" x2="-447.488" y2="1128.328"/>
				<line class="st0" x1="352.512" y1="-84.107" x2="-347.488" y2="1128.328"/>
				<line class="st0" x1="452.512" y1="-84.107" x2="-247.488" y2="1128.328"/>
				<line class="st0" x1="552.512" y1="-84.107" x2="-147.488" y2="1128.328"/>
				<line class="st0" x1="652.512" y1="-84.107" x2="-47.488" y2="1128.328"/>
				<line class="st0" x1="752.512" y1="-84.107" x2="52.512" y2="1128.328"/>
				<line class="st0" x1="852.512" y1="-84.107" x2="152.512" y2="1128.328"/>
				<line class="st0" x1="952.512" y1="-84.107" x2="252.512" y2="1128.328"/>
				<line class="st0" x1="1052.512" y1="-84.106" x2="352.512" y2="1128.329"/>
				<line class="st0" x1="1152.512" y1="-84.107" x2="452.512" y2="1128.328"/>
				<line class="st0" x1="1252.512" y1="-84.107" x2="552.512" y2="1128.328"/>
				<line class="st0" x1="1352.512" y1="-84.107" x2="652.512" y2="1128.328"/>
				<line class="st0" x1="1452.512" y1="-84.107" x2="752.512" y2="1128.328"/>
				<line class="st0" x1="752.512" y1="-84.106" x2="1452.512" y2="1128.329"/>
				<line class="st0" x1="652.512" y1="-84.106" x2="1352.512" y2="1128.329"/>
				<line class="st0" x1="552.512" y1="-84.106" x2="1252.512" y2="1128.329"/>
				<line class="st0" x1="452.512" y1="-84.106" x2="1152.512" y2="1128.329"/>
				<line class="st0" x1="352.512" y1="-84.106" x2="1052.512" y2="1128.329"/>
				<line class="st0" x1="252.512" y1="-84.106" x2="952.512" y2="1128.329"/>
				<line class="st0" x1="852.512" y1="1128.329" x2="152.512" y2="-84.106"/>
				<line class="st0" x1="52.512" y1="-84.106" x2="752.512" y2="1128.329"/>
				<line class="st0" x1="-47.488" y1="-84.106" x2="652.512" y2="1128.329"/>
				<line class="st0" x1="-147.488" y1="-84.106" x2="552.512" y2="1128.329"/>
				<line class="st0" x1="-247.488" y1="-84.106" x2="452.512" y2="1128.329"/>
				<line class="st0" x1="-347.488" y1="-84.106" x2="352.512" y2="1128.329"/>
				<line class="st0" x1="-447.488" y1="-84.107" x2="252.512" y2="1128.328"/>
				<line class="st0" x1="-547.488" y1="-84.106" x2="152.512" y2="1128.329"/>
				<line class="st0" x1="-647.488" y1="-84.106" x2="52.512" y2="1128.329"/>
				<line class="st0" x1="-747.488" y1="-84.106" x2="-47.488" y2="1128.329"/>
				<line class="st0" x1="-847.488" y1="-84.106" x2="-147.488" y2="1128.329"/>
				<line class="st0" x1="-497.488" y1="522.11" x2="1102.512" y2="522.11"/>
				<line class="st0" x1="-447.488" y1="435.508" x2="1152.512" y2="435.508"/>
				<line class="st0" x1="-397.488" y1="348.906" x2="1202.512" y2="348.906"/>
				<line class="st0" x1="-347.488" y1="262.303" x2="1252.512" y2="262.303"/>
				<line class="st0" x1="-297.488" y1="175.7" x2="1302.512" y2="175.7"/>
				<line class="st0" x1="-247.488" y1="89.098" x2="1352.512" y2="89.098"/>
				<line class="st0" x1="-197.488" y1="2.496" x2="1402.512" y2="2.496"/>
				<line class="st0" x1="-547.488" y1="608.713" x2="1052.512" y2="608.713"/>
				<line class="st0" x1="-597.488" y1="695.315" x2="1202.512" y2="695.315"/>
				<line class="st0" x1="-647.488" y1="781.918" x2="1252.512" y2="781.918"/>
				<line class="st0" x1="-697.488" y1="868.521" x2="1302.512" y2="868.521"/>
				<line class="st0" x1="-748.494" y1="955.123" x2="1361.202" y2="955.123"/>
				<line class="st0" x1="-797.488" y1="1041.725" x2="1411.512" y2="1041.725"/>
				<polygon class="st2" points="752.512,608.713 -147.488,608.713 -147.488,695.315 -147.488,1128.328 752.512,1128.328 	"/>
			</g>
</svg>
