<svg xmlns="http://www.w3.org/2000/svg" width="600" height="1039.2" viewBox="0 0 600 1039.2">
  <style>
		:root {
      --black: #443430;
      --gold: #CEA600;
      --lightRed: #D7887B;
      --lightTurquois: #7AB4BA;
      --red: #BF402B;
      --turquois: #4D9BA3;
      --white: #FFFAF2;
		}
    .shape-6{fill:var(--white)}
    .shape-1{fill:var(--black)}
    .shape-7{fill:var(--red)}
    .shape-5{fill:var(--lightRed)}
    .shape-2{fill:var(--turquois)}
    .shape-3{fill:var(--gold)}
    .shape-4{fill:var(--lightTurquois)}
    .guides{stroke: #4FFF4F; display: none;}
  </style>
  <g class="line" id="pattern">
    <path class="shape-6" d="M480.3 1080.2H124.7l-22.2-38.5 100-173.2h200l100 173.2m0-692.8l-100 173.2 100 173.2h123.8V349H502.5zm-400 346.4l100-173.2-100-173.2H-17.8v346.4h120.3zm100-519.6h200l100-173.2-20.3-35.1H122.8L102.5 2.5"/>
    <path class="shape-1" d="M402.5 868.5h-300l150-259.8 50 86.6-50 86.6h100zm300-519.6h-300l150-259.8 50 86.6-50 86.6h100zm-600 0h-300l150-259.8 50 86.6-50 86.6h100z"/>
    <path class="shape-2" d="M402.5 522.1l150 259.8h-300l50-86.6h100l-50-86.6zM102.5 2.5l150 259.8h-300l50-86.6h100l-50-86.6zm600 0l150 259.8h-300l50-86.6h100l-50-86.6zm-600 1039.2l150 259.8h-300l50-86.6h100l-50-86.6z"/>
    <path class="shape-3" d="M102.5 695.3l150-259.8 150 259.8h-100l-50-86.6-50 86.6zm-300 519.6l150-259.8 150 259.8H2.5l-50-86.6-50 86.6zm600 0l150-259.8 150 259.8h-100l-50-86.6-50 86.6zm0-1039.2l150-259.8 150 259.8h-100l-50-86.6-50 86.6zm-600 0l150-259.8 150 259.8H2.5l-50-86.6-50 86.6z"/>
    <path class="shape-4" d="M802.5 868.5l-150 259.8-150-259.8h100l50 86.6 50-86.6zm-300-519.6l-150 259.8-150-259.8h100l50 86.6 50-86.6zm300-519.6l-150 259.8-150-259.8h100l50 86.6 50-86.6zm-600 1039.2l-150 259.8-150-259.8h100l50 86.6 50-86.6zm0-1039.2L52.5 89.1l-150-259.8h100l50 86.6 50-86.6z"/>
    <path class="shape-7" d="M502.5 695.3h300l-150 259.8-50-86.6 50-86.6h-100zm-300-519.6h300l-150 259.8-50-86.6 50-86.6h-100zm-300 519.6h300l-150 259.8-50-86.6 50-86.6h-100z"/>
    <path class="shape-5" d="M502.5 1041.7l-150-259.8h300l-50 86.6h-100l50 86.6zm0-1039.2l-150-259.8h300l-50 86.6h-100l50 86.6zm-300 519.6l-150-259.8h300l-50 86.6h-100l50 86.6zm600 0l-150-259.8h300l-50 86.6h-100l50 86.6zm-900 519.6l-150-259.8h300l-50 86.6h-100l50 86.6z"/>
  </g>
  <g class="guides">
    <path d="M-147.5-84.1l-700 1212.4m800-1212.4l-700 1212.4M52.5-84.1l-700 1212.4m800-1212.4l-700 1212.4m800-1212.4l-700 1212.4m800-1212.4l-700 1212.4m800-1212.4l-700 1212.4m800-1212.4l-700 1212.4m800-1212.4l-700 1212.4m800-1212.4l-700 1212.4m800-1212.4l-700 1212.4m800-1212.4l-700 1212.4m800-1212.4l-700 1212.4m800-1212.4l-700 1212.4m800-1212.4l-700 1212.4m800-1212.4l-700 1212.4m800-1212.4l-700 1212.4m0-1212.4l700 1212.4M652.5-84.1l700 1212.4M552.5-84.1l700 1212.4M452.5-84.1l700 1212.4M352.5-84.1l700 1212.4M252.5-84.1l700 1212.4m-100 0L152.5-84.1m-100 0l700 1212.4M-47.5-84.1l700 1212.4m-800-1212.4l700 1212.4m-800-1212.4l700 1212.4m-800-1212.4l700 1212.4m-800-1212.4l700 1212.4m-800-1212.4l700 1212.4m-800-1212.4l700 1212.4m-800-1212.4l700 1212.4m-800-1212.4l700 1212.4m-350-606.2h1600m-1550-86.6h1600m-1550-86.6h1600m-1550-86.6h1600m-1550-86.6h1600m-1550-86.6h1600m-1550-86.6h1600m-1950 606.2h1600m-1650 86.6h1800m-1850 86.6h1900m-1950 86.6h2000m-2051 86.6h2109.7m-2158.7 86.6h2209M752.5 608.7h-900v519.6h900z"/>
  </g>
</svg>
