<svg version="1.1" xmlns="http://www.w3.org/2000/svg" width="900" height="519.617" viewBox="0 0 100% 100%">
  <style>
		:root {
      --black: #443430;
      --red: #BF402B;
      --gold: #CEA600;
      --turquois: #4D9BA3;
      --emerald: #216554;
      --blue: #262F66;
      --white: #FFFAF2;
		}
    .shape-1{fill:var(--turquois)}
    .shape-5{fill:var(--white)}
    .shape-2{fill:var(--red)}
    .shape-3{fill:var(--white)}
    .shape-4{fill:var(--black)}
    .shape-6{fill:var(--white)}
    <!-- .line{stroke:#fff;stroke-width:20px} -->
    .guides{ stroke: #4FFF4F; display: none;}
  </style>
      <g class="line" id="pattern">
				<rect x="-105.27" y="-86.601" class="shape-1" width="1055.27" height="692.82"/>
				<polygon class="shape-2" points="750,259.809 700,173.206 600,173.206 637.5,238.158 600,259.809 637.5,281.46 600,346.411 
					700,346.411 	"/>
				<polygon class="shape-3" points="600,173.206 525,173.206 525,216.507 600,259.809 637.5,238.158 	"/>
				<polygon class="shape-3" points="600,259.809 525,303.111 525,346.411 600,346.411 637.5,281.46 	"/>
				<polygon class="shape-3" points="525,216.507 487.5,194.856 450,259.808 487.5,324.761 525,303.111 	"/>
				<polygon class="shape-4" points="525,216.507 600,259.809 525,303.111 	"/>
				<polygon class="shape-5" points="700,173.206 800,173.206 750,259.809 	"/>
				<polygon class="shape-6" points="400,173.206 350,259.809 400,346.411 450,259.808 	"/>
				<polygon class="shape-2" points="800.002,346.411 700,346.411 650,433.014 725,433.014 725,476.315 762.502,454.665 800,519.616 
					850.002,433.013 	"/>
				<polygon class="shape-3" points="650,433.014 612.502,497.965 650.002,519.616 725,476.315 725,433.014 	"/>
				<polygon class="shape-3" points="725,476.315 725.002,562.919 762.502,584.567 800,519.616 762.502,454.665 	"/>
				<polygon class="shape-3" points="650.002,519.616 612.502,541.267 650,606.219 725.002,606.219 725.002,562.919 	"/>
				<polygon class="shape-4" points="650.002,519.616 725,476.315 725.002,562.919 	"/>
				<polygon class="shape-5" points="700,346.411 750,259.809 800.002,346.411 	"/>
				<polygon class="shape-2" points="900.002,346.41 850.002,433.013 900.002,519.616 937.502,454.664 975.002,476.314 975.002,433.013 
					1050.002,433.013 1000.002,346.409 	"/>
				<polygon class="shape-3" points="900.002,519.616 937.502,584.567 975.002,562.916 975.002,476.314 937.502,454.664 	"/>
				<polygon class="shape-5" points="850.002,433.013 800.002,346.411 900.002,346.41 	"/>
				<polygon class="shape-5" points="1000.002,346.41 900.002,346.41 950,259.807 	"/>
				<polygon class="shape-2" points="900,173.205 1000,173.204 1050,86.602 975,86.602 975,43.301 937.5,64.951 900,-0.001 850,86.603 	"/>
				<polygon class="shape-3" points="975,43.301 975,-43.304 937.5,-64.952 900,-0.001 937.5,64.951 	"/>
				<polygon class="shape-5" points="1000,173.204 950,259.807 900,173.205 	"/>
				<polygon class="shape-2" points="800,173.207 850,86.603 800,0 762.5,64.952 725,43.302 724.998,86.604 650,86.603 700,173.207 	"/>
				<polygon class="shape-3" points="800,0 762.498,-64.951 725,-43.3 725,43.302 762.5,64.952 	"/>
				<polygon class="shape-3" points="725,43.302 649.998,0 612.5,21.652 650,86.603 724.998,86.604 	"/>
				<polygon class="shape-3" points="725,-43.3 724.998,-86.602 650,-86.603 612.498,-21.649 649.998,0 	"/>
				<polygon class="shape-4" points="725,-43.3 725,43.302 649.998,0 	"/>
				<polygon class="shape-5" points="850,86.603 900,173.205 800,173.207 	"/>
				<polygon class="shape-2" points="299.998,0.001 249.998,-86.601 149.998,-86.601 187.498,-21.649 149.998,0.001 187.498,21.653 
					149.998,86.604 249.998,86.604 	"/>
				<polygon class="shape-3" points="149.998,-86.601 74.998,-86.601 74.998,-43.3 149.998,0.001 187.498,-21.649 	"/>
				<polygon class="shape-3" points="149.998,0.001 74.998,43.304 74.998,86.604 149.998,86.604 187.498,21.653 	"/>
				<polygon class="shape-3" points="74.998,-43.3 37.498,-64.951 -0.002,0.001 37.498,64.954 74.998,43.304 	"/>
				<polygon class="shape-4" points="74.998,-43.3 149.998,0.001 74.998,43.304 	"/>
				<polygon class="shape-5" points="249.998,-86.601 349.998,-86.601 299.998,0.001 	"/>
				<polygon class="shape-6" points="-50.002,-86.601 -100.002,0.001 -50.001,86.604 -0.002,0.001 	"/>
				<polygon class="shape-2" points="350,86.604 249.998,86.604 199.998,173.207 274.998,173.207 274.998,216.508 312.5,194.858 
					349.998,259.809 400,173.206 	"/>
				<polygon class="shape-3" points="199.998,173.207 162.5,238.158 200,259.809 274.998,216.508 274.998,173.207 	"/>
				<polygon class="shape-3" points="274.998,216.508 275,303.112 312.5,324.76 349.998,259.809 312.5,194.858 	"/>
				<polygon class="shape-3" points="200,259.809 162.5,281.459 199.998,346.412 275,346.412 275,303.112 	"/>
				<polygon class="shape-4" points="200,259.809 274.998,216.508 275,303.112 	"/>
				<polygon class="shape-5" points="249.998,86.604 299.998,0.001 350,86.604 	"/>
				<polygon class="shape-6" points="99.998,346.412 149.998,433.014 250,433.013 199.998,346.412 	"/>
				<polygon class="shape-2" points="450,86.603 400,173.206 450,259.809 487.5,194.856 525,216.507 525,173.206 600,173.206 550,86.602 	
					"/>
				<polygon class="shape-5" points="400,173.206 350,86.604 450,86.603 	"/>
				<polygon class="shape-6" points="550,433.014 650,433.014 700,346.41 600,346.411 	"/>
				<polygon class="shape-2" points="499.998,0 550,86.603 650,86.603 612.5,21.651 650,0 612.5,-21.652 650,-86.603 549.998,-86.603 	"/>
				<polygon class="shape-5" points="550,86.603 450,86.603 499.998,0 	"/>
				<polygon class="shape-6" points="850,86.603 900,0 849.998,-86.603 800,0 	"/>
				<polygon class="shape-5" points="549.998,-86.603 499.998,0 449.998,-86.602 	"/>
				<polygon class="shape-2" points="300,519.617 250,433.015 150,433.015 187.5,497.966 150,519.617 187.5,541.269 150,606.219 
					250,606.219 	"/>
				<polygon class="shape-3" points="150,433.015 75,433.015 75,476.315 150,519.617 187.5,497.966 	"/>
				<polygon class="shape-3" points="150,519.617 75,562.919 75,606.219 150,606.219 187.5,541.269 	"/>
				<polygon class="shape-3" points="75,476.315 37.5,454.665 0,519.617 37.5,584.57 75,562.919 	"/>
				<polygon class="shape-4" points="75,476.315 150,519.617 75,562.919 	"/>
				<polygon class="shape-5" points="250,433.015 350,433.015 300,519.617 	"/>
				<polygon class="shape-6" points="-50,433.015 -100,519.617 -50,606.219 0,519.617 	"/>
				<polygon class="shape-5" points="250,606.22 300,519.617 350.002,606.219 	"/>
				<polygon class="shape-2" points="500,519.615 550.002,606.218 650.002,606.218 612.502,541.267 650.002,519.616 612.502,497.964 
					650.002,433.013 550,433.013 	"/>
				<polygon class="shape-5" points="550.002,606.218 450.002,606.218 500,519.615 	"/>
				<polygon class="shape-6" points="850.002,606.218 900.002,519.616 850,433.013 800.002,519.616 	"/>
				<polygon class="shape-2" points="450,433.014 550,433.013 600,346.41 525,346.411 525,303.109 487.5,324.759 450,259.808 400,346.411 	
					"/>
				<polygon class="shape-5" points="550,433.013 500,519.615 450,433.014 	"/>
				<polygon class="shape-6" points="700,173.205 650,86.603 550,86.604 600,173.205 	"/>
				<polygon class="shape-2" points="350,433.015 400,346.411 350,259.809 312.5,324.761 275,303.11 274.998,346.412 200,346.411 
					250,433.015 	"/>
				<polygon class="shape-5" points="400,346.411 450,433.014 350,433.015 	"/>
				<polygon class="shape-6" points="250,86.604 150,86.604 100,173.208 200,173.206 	"/>
				<polygon class="shape-2" points="0,346.411 -50,433.014 0,519.617 37.5,454.665 75,476.315 75,433.014 150,433.014 100,346.41 	"/>
				<polygon class="shape-5" points="-50,433.014 -100,346.412 0,346.411 	"/>
				<polygon class="shape-2" points="49.998,259.808 100,346.411 200,346.411 162.5,281.459 200,259.808 162.5,238.156 200,173.206 
					99.998,173.205 	"/>
				<polygon class="shape-5" points="100,346.411 0,346.411 49.998,259.808 	"/>
				<polygon class="shape-2" points="-0.002,173.206 99.998,173.205 149.998,86.603 74.998,86.603 74.998,43.302 37.498,64.952 -0.002,0 
					-50.002,86.604 	"/>
				<polygon class="shape-5" points="99.998,173.205 49.998,259.808 -0.002,173.206 	"/>
				<polygon class="shape-5" points="-50.002,86.604 -0.002,173.206 -100.002,173.208 	"/>
			</g>
			<g class="guides">
				<line class="st0" x1="0.001" y1="-346.409" x2="-699.999" y2="866.027"/>
				<line class="st0" x1="100.001" y1="-346.409" x2="-599.999" y2="866.027"/>
				<line class="st0" x1="200.001" y1="-346.409" x2="-499.999" y2="866.027"/>
				<line class="st0" x1="300.001" y1="-346.409" x2="-399.999" y2="866.027"/>
				<line class="st0" x1="400.001" y1="-346.409" x2="-299.999" y2="866.027"/>
				<line class="st0" x1="500.001" y1="-346.409" x2="-199.999" y2="866.027"/>
				<line class="st0" x1="600.001" y1="-346.409" x2="-99.999" y2="866.027"/>
				<line class="st0" x1="700.001" y1="-346.409" x2="0.001" y2="866.027"/>
				<line class="st0" x1="800.001" y1="-346.409" x2="100.001" y2="866.027"/>
				<line class="st0" x1="900.001" y1="-346.409" x2="200.001" y2="866.027"/>
				<line class="st0" x1="1000.001" y1="-346.409" x2="300.001" y2="866.027"/>
				<line class="st0" x1="1100.001" y1="-346.409" x2="400.001" y2="866.027"/>
				<line class="st0" x1="1200.001" y1="-346.408" x2="500.001" y2="866.028"/>
				<line class="st0" x1="1300.001" y1="-346.409" x2="600.001" y2="866.027"/>
				<line class="st0" x1="1400.001" y1="-346.409" x2="700.001" y2="866.027"/>
				<line class="st0" x1="1500.001" y1="-346.409" x2="800.001" y2="866.027"/>
				<line class="st0" x1="1600.001" y1="-346.409" x2="900.001" y2="866.027"/>
				<line class="st0" x1="900.001" y1="-346.408" x2="1600.001" y2="866.028"/>
				<line class="st0" x1="800.001" y1="-346.408" x2="1500.001" y2="866.028"/>
				<line class="st0" x1="700.001" y1="-346.408" x2="1400.001" y2="866.028"/>
				<line class="st0" x1="600.001" y1="-346.408" x2="1300.001" y2="866.028"/>
				<line class="st0" x1="500.001" y1="-346.408" x2="1200.001" y2="866.028"/>
				<line class="st0" x1="400.001" y1="-346.408" x2="1100.001" y2="866.028"/>
				<line class="st0" x1="1000.001" y1="866.028" x2="300.001" y2="-346.408"/>
				<line class="st0" x1="200.001" y1="-346.408" x2="900.001" y2="866.028"/>
				<line class="st0" x1="100.001" y1="-346.408" x2="800.001" y2="866.028"/>
				<line class="st0" x1="0.001" y1="-346.408" x2="700.001" y2="866.028"/>
				<line class="st0" x1="-99.999" y1="-346.408" x2="600.001" y2="866.028"/>
				<line class="st0" x1="-199.999" y1="-346.408" x2="500.001" y2="866.028"/>
				<line class="st0" x1="-299.999" y1="-346.409" x2="400.001" y2="866.027"/>
				<line class="st0" x1="-399.999" y1="-346.408" x2="300.001" y2="866.028"/>
				<line class="st0" x1="-499.999" y1="-346.408" x2="200.001" y2="866.028"/>
				<line class="st0" x1="-599.999" y1="-346.408" x2="100.001" y2="866.028"/>
				<line class="st0" x1="-699.999" y1="-346.408" x2="0.001" y2="866.028"/>
				<line class="st0" x1="-349.999" y1="259.809" x2="1250.001" y2="259.809"/>
				<line class="st0" x1="-300" y1="173.207" x2="1300.001" y2="173.207"/>
				<line class="st0" x1="-250" y1="86.604" x2="1350.001" y2="86.604"/>
				<line class="st0" x1="-200" y1="0.002" x2="1400.001" y2="0.002"/>
				<line class="st0" x1="-149.999" y1="-86.601" x2="1450.001" y2="-86.601"/>
				<line class="st0" x1="-100" y1="-173.203" x2="1500.001" y2="-173.203"/>
				<line class="st0" x1="-50" y1="-259.806" x2="1550.001" y2="-259.806"/>
				<line class="st0" x1="-399.999" y1="346.412" x2="1200.001" y2="346.412"/>
				<line class="st0" x1="-449.999" y1="433.014" x2="1350.001" y2="433.014"/>
				<line class="st0" x1="-499.999" y1="519.617" x2="1400.001" y2="519.617"/>
				<line class="st0" x1="-549.999" y1="606.219" x2="1450.001" y2="606.219"/>
				<line class="st0" x1="-601.005" y1="692.822" x2="1508.69" y2="692.822"/>
				<line class="st0" x1="-649.999" y1="779.424" x2="1559.001" y2="779.424"/>
				<polygon class="st2" points="900.001,346.412 0.001,346.412 0.001,433.014 0.001,866.027 900.001,866.027 	"/>
				<g>
					<polygon class="st11" points="600,173.206 600,346.411 450,259.808 		"/>
					<line class="st11" x1="525" y1="173.206" x2="525" y2="346.411"/>
					<line class="st11" x1="637.499" y1="238.159" x2="487.5" y2="324.761"/>
					<line class="st11" x1="487.5" y1="194.856" x2="637.499" y2="281.46"/>
				</g>
				<g>
					<polygon class="st11" points="650,86.602 650,-86.603 800,0 		"/>
					<line class="st11" x1="725" y1="86.602" x2="725" y2="-86.603"/>
					<line class="st11" x1="612.501" y1="21.649" x2="762.5" y2="-64.953"/>
					<line class="st11" x1="762.5" y1="64.952" x2="612.501" y2="-21.652"/>
				</g>
				<g>
					<polygon class="st11" points="650.002,606.218 650.002,433.013 800.002,519.616 		"/>
					<line class="st11" x1="725.001" y1="606.218" x2="725.001" y2="433.013"/>
					<line class="st11" x1="612.503" y1="541.265" x2="762.502" y2="454.663"/>
					<line class="st11" x1="762.502" y1="584.568" x2="612.503" y2="497.963"/>
				</g>
				<g>
					<polygon class="st11" points="200,173.207 200,346.411 350,259.809 		"/>
					<line class="st11" x1="275" y1="173.207" x2="275" y2="346.411"/>
					<line class="st11" x1="162.501" y1="238.159" x2="312.5" y2="324.762"/>
					<line class="st11" x1="312.5" y1="194.856" x2="162.501" y2="281.461"/>
				</g>
				<g>
					<polygon class="st11" points="149.998,606.219 149.998,433.015 -0.002,519.617 		"/>
					<line class="st11" x1="74.998" y1="606.219" x2="74.998" y2="433.015"/>
					<line class="st11" x1="187.496" y1="541.267" x2="37.498" y2="454.664"/>
					<line class="st11" x1="37.498" y1="584.569" x2="187.496" y2="497.965"/>
				</g>
				<g>
					<polygon class="st11" points="149.998,86.604 149.998,-86.6 -0.002,0.002 		"/>
					<line class="st11" x1="74.999" y1="86.604" x2="74.999" y2="-86.6"/>
					<line class="st11" x1="187.497" y1="21.652" x2="37.498" y2="-64.951"/>
					<line class="st11" x1="37.498" y1="64.955" x2="187.497" y2="-21.65"/>
				</g>
			</g>
</svg>
