<svg xmlns="http://www.w3.org/2000/svg" width="900" height="519.6" viewBox="0 0 900 519.6">
  <style>
    :root { --black: #443430; --red: #BF402B; --gold: #CEA600; --turquois: #4D9BA3; --emerald: #216554; --blue: #262F66; --white: #FFFAF2; } .shape-1{fill:var(--black)} .shape-5{fill:var(--white)} .shape-2{fill:var(--red)} .shape-3{fill:var(--white)} .shape-4{fill:var(--turquois)} .shape-6{fill:var(--white)} .guides{ stroke: #4FFF4F; display: none;}
  </style>
  <g class="line" id="pattern">
    <path class="shape-1" d="M950 259.8l-50 86.6H800l-50-86.6 50-86.6h100l50 86.6zM-53 346.4H0l50-86.6-50-86.6h-57m507 433l50-86.6-50-86.6H350l-50 86.6 50 86.6h100zM350 86.6h100L500 0l-50-86.6H350L300 0l50 86.6z"/>
    <path class="shape-2" d="M0 173.2h100l50-86.6H75V43.3L37.5 65 0 0l-50 86.6zM0 346.4L-50 433l50 86.6 37.5-64.9L75 476.3V433h75l-50-86.6zM300 0l-50-86.6H150l37.5 65L150 0l37.5 21.7L150 86.6h100zM300 519.6L250 433H150l37.5 65-37.5 21.6 37.5 21.7-37.5 64.9h100zM350 433l50-86.6-50-86.6-37.5 65-37.5-21.7v43.3h-75l50 86.6z"/>
    <path class="shape-2" d="M350 86.6H250l-50 86.6h75v43.3l37.5-21.6 37.5 64.9 50-86.6zM450 433h100l50-86.6h-75v-43.3l-37.5 21.7-37.5-65-50 86.6zM450 86.6l-50 86.6 50 86.6 37.5-64.9 37.5 21.6v-43.3h75l-50-86.6zM50 259.8l50 86.6h100l-37.5-64.9 37.5-21.7-37.5-21.6 37.5-65H100z"/>
    <path class="shape-2" d="M500 0l50 86.6h100l-37.5-64.9L650 0l-37.5-21.7L650-86.6H550zM500 519.6l50 86.6h100l-37.5-64.9 37.5-21.7-37.5-21.6 37.5-65H550zM750 259.8l-50-86.6H600l37.5 65-37.5 21.6 37.5 21.7-37.5 64.9h100zM800 173.2l50-86.6L800 0l-37.5 65L725 43.3v43.3h-75l50 86.6zM800 346.4H700L650 433h75v43.3l37.5-21.6 37.5 64.9 50-86.6zM900 173.2h100l50-86.6h-75V43.3L937.5 65 900 0l-50 86.6zM900 346.4L850 433l50 86.6 37.5-64.9 37.5 21.6V433h75l-50-86.6z"/>
    <path class="shape-3" d="M150-86.6H75v43.3L150 0l37.5-21.6zM150 0L75 43.3v43.3h75l37.5-64.9zM150 433H75v43.3l75 43.3 37.5-21.6zM150 519.6l-75 43.3v43.3h75l37.5-64.9zM200 173.2l-37.5 65 37.5 21.6 75-43.3v-43.3zM200 259.8l-37.5 21.7 37.5 64.9h75v-43.3zM275 216.5v86.6l37.5 21.7 37.5-65-37.5-64.9zM525 216.5l-37.5-21.6-37.5 64.9 37.5 65 37.5-21.7zM600 173.2h-75v43.3l75 43.3 37.5-21.6zM600 259.8l-75 43.3v43.3h75l37.5-64.9zM650 433l-37.5 65 37.5 21.6 75-43.3V433zM650 519.6l-37.5 21.7 37.5 64.9h75v-43.3zM725-43.3v-43.3h-75l-37.5 65L650 0zM725 43.3L650 0l-37.5 21.7L650 86.6h75zM725 476.3v86.6l37.5 21.7 37.5-65-37.5-64.9zM75-43.3L37.5-65 0 0l37.5 65L75 43.3zM75 476.3l-37.5-21.6L0 519.6l37.5 65L75 562.9zM800 0l-37.5-65L725-43.3v86.6L762.5 65zM900 519.6l37.5 65 37.5-21.7v-86.6l-37.5-21.6zM975 43.3v-86.6L937.5-65 900 0l37.5 65z"/>
    <path class="shape-4" d="M200 259.8l75-43.3v86.6zM525 216.5l75 43.3-75 43.3zM650 519.6l75-43.3v86.6zM725-43.3v86.6L650 0zM75-43.3L150 0 75 43.3zM75 476.3l75 43.3-75 43.3z"/>
    <path class="shape-5" d="M-50 433l-50-86.6H0zM-50 86.6l50 86.6h-100zM100 346.4H0l50-86.6zM1000 173.2l-50 86.6-50-86.6zM1000 346.4H900l50-86.6zM250-86.6h100L300 0zM250 86.6L300 0l50 86.6zM250 433h100l-50 86.6zM250 606.2l50-86.6 50 86.6zM400 173.2l-50-86.6h100zM400 346.4l50 86.6H350zM550-86.6L500 0l-50-86.6zM550 433l-50 86.6-50-86.6zM550 86.6H450L500 0zM550 606.2H450l50-86.6zM700 173.2h100l-50 86.6zM700 346.4l50-86.6 50 86.6zM850 86.6l50 86.6H800zM850 433l-50-86.6h100zM100 173.2l-50 86.6-50-86.6z"/>
    <path class="shape-6" d="M-50 433l-50 86.6 50 86.6 50-86.6zM-50-86.6L-100 0l50 86.6L0 0zM250 86.6H150l-50 86.6h100zM400 173.2l-50 86.6 50 86.6 50-86.6zM550 433h100l50-86.6H600zM700 173.2l-50-86.6H550l50 86.6zM850 86.6L900 0l-50-86.6L800 0zM850 606.2l50-86.6-50-86.6-50 86.6zM100 346.4l50 86.6h100l-50-86.6z"/>
  </g>
  <g class="guides">
    <path d="M0-346.4L-700 866M100-346.4L-600 866M200-346.4L-500 866M300-346.4L-400 866M400-346.4L-300 866M500-346.4L-200 866M600-346.4L-100 866M700-346.4L0 866M800-346.4L100 866M900-346.4L200 866M1000-346.4L300 866M1100-346.4L400 866M1200-346.4L500 866M1300-346.4L600 866M1400-346.4L700 866M1500-346.4L800 866M1600-346.4L900 866M900-346.4L1600 866M800-346.4L1500 866M700-346.4L1400 866M600-346.4L1300 866M500-346.4L1200 866M400-346.4L1100 866M1000 866L300-346.4M200-346.4L900 866M100-346.4L800 866M0-346.4L700 866M-100-346.4L600 866M-200-346.4L500 866M-300-346.4L400 866M-400-346.4L300 866M-500-346.4L200 866M-600-346.4L100 866M-700-346.4L0 866M-350 259.8h1600M-300 173.2h1600M-250 86.6h1600M-200 0h1600M-150-86.6h1600M-100-173.2h1600M-50-259.8h1600M-400 346.4h1600M-450 433h1800M-500 519.6h1900M-550 606.2h2000M-601 692.8h2109.7M-650 779.4h2209M600 173.2v173.2l-150-86.6zM525 173.2v173.2M637.5 238.2l-150 86.6M487.5 194.9l150 86.6M650 86.6V-86.6L800 0zM725 86.6V-86.6M612.5 21.6l150-86.6M762.5 65l-150-86.7M650 606.2V433l150 86.6zM725 606.2V433M612.5 541.3l150-86.6M762.5 584.6l-150-86.6M200 173.2v173.2l150-86.6zM275 173.2v173.2M162.5 238.2l150 86.6M312.5 194.9l-150 86.6M150 606.2V433L0 519.6zM75 606.2V433M187.5 541.3l-150-86.6M37.5 584.6l150-86.6M150 86.6V-86.6L0 0zM75 86.6V-86.6M187.5 21.7L37.5-65M37.5 65l150-86.6"/>
  </g>
</svg>
