<svg version="1.1" xmlns="http://www.w3.org/2000/svg" width="342.43" height="197.7" viewBox="0 0 100% 100%">
  <style>
    :root {
      --golden: #907A58;
      --darkBlue: #475387;
      --beige: #DFD8CC;
      --teal: #4A9AC4;
      --gray: #A49DA0;
      --smaragd: #406A72;
      --sand: #D3BDA7;
      --grayGreen: #A2D1D6;
      --blueGray: #758390;
      --lightBrown: #AA8858;
      --blue1: #8EC5EE;
      --blue2: #8CC6EA;
      --blue3: #B6DAEC;
      --rust: #D8692D;
      --yellow: #F8C346;

      --black: #443430;
      --red: #BF402B;
      --gold: #CEA600;
      --turquois: #4D9BA3;
      --emerald: #216554;
      --blue: #262F66;
      --white: #FFFAF2;
    }
    .shape-2{fill:var(--red)}
    .shape-1{fill:var(--white)}
    <!-- .line{stroke:#fff;stroke-width:13px} -->
    .guides{ fill: none; stroke: #4FFF4F; display: none;}
  </style>
  <g class="line" id="pattern">
		<rect x="-15.507" y="-13.348" class="shape-1" width="376.934" height="228.163"/>
		<polygon class="shape-2" points="228.287,-98.851 209.248,-32.94 142.679,-49.425 190.213,-0.024 142.689,49.42 209.272,32.985 
			228.287,98.853 247.305,32.977 313.894,49.426 266.352,0.018 313.895,-49.426 247.312,-32.95 	"/>
		<polygon class="shape-2" points="399.5,-0.001 380.461,65.91 313.893,49.425 361.427,98.825 313.903,148.271 380.486,131.834 
			399.5,197.702 418.519,131.826 485.107,148.275 437.564,98.867 485.109,49.423 418.525,65.899 	"/>
		<polygon class="shape-2" points="57.071,0 38.032,65.911 -28.537,49.427 18.998,98.827 -28.526,148.271 38.057,131.836 57.071,197.704 
			76.089,131.828 142.678,148.277 95.135,98.869 142.679,49.426 76.096,65.901 	"/>
		<polygon class="shape-2" points="228.285,98.851 209.246,164.761 142.677,148.277 190.212,197.677 142.688,247.123 209.271,230.687 
			228.285,296.554 247.302,230.678 313.893,247.128 266.349,197.719 313.894,148.276 247.311,164.752 	"/>
	</g>
	<g class="guides">
		<path class="st2" d="M142.667,49.434C115.374,2.16,54.925-14.037,7.651,13.257c-47.274,27.293-63.471,87.741-36.177,135.015
			c27.294,47.274,87.742,63.471,135.014,36.178C153.765,157.156,169.96,96.707,142.667,49.434z"/>
		<polyline class="st2" points="-0.02,197.671 57.07,0.001 114.143,197.703 	"/>
		<polyline class="st2" points="114.142,197.703 -28.538,49.426 171.214,98.852 	"/>
		<polyline class="st2" points="0,0.001 57.071,197.703 114.144,0 	"/>
		<polyline class="st2" points="0,0.001 142.678,148.277 -57.072,98.853 	"/>
		<polyline class="st2" points="-57.072,98.853 142.679,49.426 -0.001,197.704 	"/>
		<polyline class="st2" points="114.144,0 -28.538,148.277 171.214,98.852 	"/>
		<circle class="st2" cx="57.061" cy="98.869" r="38.057"/>
		<polygon class="st2" points="228.285,296.554 142.677,247.128 142.677,148.277 228.285,98.851 313.894,148.277 313.893,247.128 	
			"/>
		<polygon class="st2" points="285.356,296.554 171.212,296.554 114.142,197.703 171.214,98.852 285.357,98.851 342.428,197.703 	"/>
		<line class="st2" x1="228.285" y1="98.851" x2="228.285" y2="296.554"/>
		<line class="st2" x1="142.676" y1="148.277" x2="313.893" y2="247.128"/>
		<line class="st2" x1="142.676" y1="247.128" x2="313.894" y2="148.276"/>
		<line class="st2" x1="171.214" y1="98.852" x2="285.356" y2="296.554"/>
		<line class="st2" x1="114.142" y1="197.703" x2="342.428" y2="197.703"/>
		<line class="st2" x1="171.212" y1="296.554" x2="285.359" y2="98.851"/>
		<path class="st2" d="M313.881,148.284c-27.293-47.274-87.742-63.471-135.017-36.177c-47.273,27.293-63.47,87.741-36.176,135.016
			c27.294,47.272,87.742,63.471,135.014,36.177C324.979,256.006,341.174,195.557,313.881,148.284z"/>
		<polyline class="st2" points="171.195,296.521 228.285,98.852 285.356,296.554 	"/>
		<polyline class="st2" points="285.356,296.554 142.676,148.277 342.428,197.703 	"/>
		<polyline class="st2" points="171.214,98.852 228.284,296.554 285.359,98.851 	"/>
		<polyline class="st2" points="171.214,98.852 313.893,247.128 114.143,197.704 	"/>
		<polyline class="st2" points="114.142,197.703 313.894,148.276 171.212,296.554 	"/>
		<polyline class="st2" points="285.357,98.851 142.676,247.128 342.428,197.703 	"/>
		<circle class="st2" cx="228.274" cy="197.719" r="38.057"/>
		<polygon class="st2" points="228.287,98.852 142.679,49.426 142.679,-49.425 228.287,-98.851 313.895,-49.425 313.894,49.426 	"/>
		<polygon class="st2" points="285.357,98.852 171.214,98.852 114.144,0.001 171.216,-98.85 285.36,-98.851 342.431,0.001 	"/>
		<line class="st2" x1="228.287" y1="-98.851" x2="228.287" y2="98.853"/>
		<line class="st2" x1="142.678" y1="-49.425" x2="313.894" y2="49.426"/>
		<line class="st2" x1="142.678" y1="49.426" x2="313.895" y2="-49.426"/>
		<line class="st2" x1="171.216" y1="-98.85" x2="285.357" y2="98.852"/>
		<line class="st2" x1="114.144" y1="0.001" x2="342.431" y2="0.001"/>
		<line class="st2" x1="171.214" y1="98.852" x2="285.36" y2="-98.851"/>
		<circle class="st2" cx="228.287" cy="0.001" r="98.838"/>
		<polyline class="st2" points="171.197,98.82 228.287,-98.85 285.357,98.852 	"/>
		<polyline class="st2" points="285.357,98.852 142.678,-49.425 342.431,0.001 	"/>
		<polyline class="st2" points="171.216,-98.85 228.286,98.852 285.36,-98.851 	"/>
		<polyline class="st2" points="171.216,-98.85 313.894,49.426 114.144,0.002 	"/>
		<polyline class="st2" points="114.144,0.001 313.895,-49.426 171.214,98.853 	"/>
		<polyline class="st2" points="285.36,-98.851 142.678,49.426 342.431,0.001 	"/>
		<circle class="st2" cx="228.277" cy="0.018" r="38.057"/>
		<polygon class="st2" points="399.5,197.701 313.893,148.275 313.893,49.424 399.5,-0.002 485.109,49.424 485.107,148.275 	"/>
		<polygon class="st2" points="456.572,197.701 342.428,197.701 285.357,98.85 342.431,-0.001 456.573,-0.002 513.645,98.85 	"/>
		<line class="st2" x1="399.5" y1="-0.001" x2="399.5" y2="197.702"/>
		<line class="st2" x1="313.893" y1="49.424" x2="485.107" y2="148.275"/>
		<line class="st2" x1="313.893" y1="148.275" x2="485.109" y2="49.423"/>
		<line class="st2" x1="342.431" y1="-0.001" x2="456.572" y2="197.701"/>
		<line class="st2" x1="285.357" y1="98.851" x2="513.645" y2="98.851"/>
		<line class="st2" x1="342.428" y1="197.701" x2="456.573" y2="-0.002"/>
		<circle class="st2" cx="399.5" cy="98.851" r="98.839"/>
		<polyline class="st2" points="342.41,197.669 399.5,-0.001 456.572,197.701 	"/>
		<polyline class="st2" points="456.572,197.701 313.893,49.424 513.645,98.85 	"/>
		<polyline class="st2" points="342.431,-0.001 399.5,197.701 456.573,-0.002 	"/>
		<polyline class="st2" points="342.431,-0.001 485.107,148.275 285.357,98.851 	"/>
		<polyline class="st2" points="285.357,98.851 485.109,49.424 342.428,197.702 	"/>
		<polyline class="st2" points="456.573,-0.002 313.893,148.275 513.645,98.851 	"/>
		<circle class="st2" cx="399.49" cy="98.867" r="38.057"/>
		<polygon class="st2" points="57.071,197.703 -28.537,148.277 -28.537,49.426 57.071,0 142.679,49.426 142.678,148.277 	"/>
		<polygon class="st2" points="114.142,197.703 -0.001,197.703 -57.072,98.852 0,0.001 114.144,0 171.214,98.852 	"/>
		<line class="st2" x1="57.071" y1="0" x2="57.071" y2="197.704"/>
		<line class="st2" x1="-28.538" y1="49.426" x2="142.678" y2="148.277"/>
		<line class="st2" x1="-28.538" y1="148.277" x2="142.679" y2="49.425"/>
		<line class="st2" x1="0" y1="0.001" x2="114.142" y2="197.703"/>
		<line class="st2" x1="-57.072" y1="98.853" x2="171.214" y2="98.853"/>
		<line class="st2" x1="-0.001" y1="197.703" x2="114.144" y2="0"/>
	</g>
</svg>
