<svg xmlns="http://www.w3.org/2000/svg" width="342.4" height="197.7" viewBox="0 0 342.4 197.7">
  <style>
    :root { --black: #443430; --red: #BF402B; --gold: #CEA600; --turquois: #4D9BA3; --emerald: #216554; --blue: #262F66; --white: #FFFAF2; } .shape-2{fill:var(--red)} .shape-1{fill:var(--white)} .guides{ fill: none; stroke: #4FFF4F; display: none;}
  </style>
  <g class="line" id="pattern">
    <path class="shape-1" d="M19 98.8l-34.5 36V63L19 98.8zm294.9 49.5l47.5-49.5L314 49.4l47.5 11.8v-74.5h-82.2L266.4 0l47.5 49.4L247.3 33l-19 65.9-19-66-66.6 16.5L190.2 0l-12.8-13.3h-193v66L38 65.9 57 0l19.1 65.9 66.6-16.5L95 99l47.6 49.4 66.5 16.5 19-66 19.1 66 66.6-16.5-47.6 49.4 16.5 17.1h78.6v-78.3L314 148.3zm-123.7 49.4l-47.5-49.4L76 131.8l-19 65.9-19-65.9-53.6 13.3v69.7h189.2l16.5-17.1z"/>
    <path class="shape-2" d="M228.3-98.9l-19.1 66-66.5-16.5L190.2 0l-47.5 49.4L209.3 33l19 65.9 19-65.9 66.6 16.4L266.4 0l47.5-49.4L247.3-33zM399.5 0l-19 65.9-66.6-16.5 47.5 49.4-47.5 49.5 66.6-16.5 19 65.9 19-65.9 66.6 16.5-47.5-49.4 47.5-49.5-66.6 16.5zM57.1 0L38 65.9l-66.5-16.5L19 98.8l-47.5 49.5 66.6-16.5 19 65.9 19-65.9 66.6 16.5-47.6-49.4 47.6-49.5-66.6 16.5zM228.3 98.9l-19.1 65.9-66.5-16.5 47.5 49.4-47.5 49.4 66.6-16.4 19 65.9 19-65.9 66.6 16.4-47.6-49.4 47.6-49.4-66.6 16.5z"/>
  </g>
  <g class="guides">
    <path d="M142.7 49.4a98.8 98.8 0 10-171.2 98.9 98.8 98.8 0 00171.2-98.9z"/>
    <path d="M0 197.7L57.1 0l57 197.7"/>
    <path d="M114.1 197.7L-28.5 49.4l199.7 49.5"/>
    <path d="M0 0l57.1 197.7L114.1 0"/>
    <path d="M0 0l142.7 148.3-199.8-49.4"/>
    <path d="M-57.1 98.9l199.8-49.5L0 197.7"/>
    <path d="M114.1 0L-28.5 148.3l199.7-49.4"/>
    <path d="M228.3 296.6l-85.6-49.5v-98.8l85.6-49.4 85.6 49.4v98.8z"/>
    <path d="M285.4 296.6H171.2l-57.1-98.9 57.1-98.8h114.2l57 98.8zM228.3 98.9v197.7M142.7 148.3l171.2 98.8M142.7 247.1l171.2-98.8M171.2 98.9l114.2 197.7M114.1 197.7h228.3M171.2 296.6L285.4 98.9"/>
    <path d="M313.9 148.3A98.8 98.8 0 10142.7 247a98.8 98.8 0 00171.2-98.8z"/>
    <path d="M171.2 296.5l57.1-197.6 57.1 197.7"/>
    <path d="M285.4 296.6L142.7 148.3l199.7 49.4"/>
    <path d="M171.2 98.9l57.1 197.7 57.1-197.7"/>
    <path d="M171.2 98.9l142.7 148.2-199.8-49.4"/>
    <path d="M114.1 197.7l199.8-49.4-142.7 148.3"/>
    <path d="M285.4 98.9L142.7 247.1l199.7-49.4"/>
    <path d="M228.3 98.9l-85.6-49.5v-98.8l85.6-49.5 85.6 49.5v98.8z"/>
    <path d="M285.4 98.9H171.2L114.1 0l57.1-98.8 114.2-.1 57 98.9zM228.3-98.9V98.9M142.7-49.4l171.2 98.8M142.7 49.4l171.2-98.8M171.2-98.8L285.4 98.9M114.1 0h228.3M171.2 98.9L285.4-98.9"/>
    <path d="M171.2 98.8l57.1-197.6 57.1 197.7"/>
    <path d="M285.4 98.9L142.7-49.4 342.4 0"/>
    <path d="M171.2-98.8l57.1 197.7 57.1-197.8"/>
    <path d="M171.2-98.8L313.9 49.4 114.1 0"/>
    <path d="M114.1 0l199.8-49.4L171.2 98.9"/>
    <path d="M285.4-98.9L142.7 49.4 342.4 0"/>
    <path d="M399.5 197.7l-85.6-49.4V49.4L399.5 0l85.6 49.4v98.9z"/>
    <path d="M456.6 197.7H342.4l-57-98.9 57-98.8h114.2l57 98.8zM399.5 0v197.7M313.9 49.4l171.2 98.9M313.9 148.3l171.2-98.9M342.4 0l114.2 197.7M285.4 98.9h228.2M342.4 197.7L456.6 0"/>
    <path d="M342.4 197.7L399.5 0l57.1 197.7"/>
    <path d="M456.6 197.7L313.9 49.4l199.7 49.4"/>
    <path d="M342.4 0l57.1 197.7L456.6 0"/>
    <path d="M342.4 0l142.7 148.3-199.7-49.4"/>
    <path d="M285.4 98.9l199.7-49.5-142.7 148.3"/>
    <path d="M456.6 0L313.9 148.3l199.7-49.4"/>
    <path d="M57.1 197.7l-85.6-49.4V49.4L57.1 0l85.6 49.4v98.9z"/>
    <path d="M114.1 197.7H0l-57.1-98.8L0 0h114.1l57.1 98.9zM57.1 0v197.7M-28.5 49.4l171.2 98.9M-28.5 148.3l171.2-98.9M0 0l114.1 197.7M-57.1 98.9h228.3M0 197.7L114.1 0"/>
    <circle cx="399.5" cy="98.9" r="38.1"/>
    <circle cx="399.5" cy="98.9" r="98.8"/>
    <circle cx="228.3" r="38.1"/>
    <circle cx="228.3" r="98.8"/>
    <circle cx="228.3" cy="197.7" r="38.1"/>
    <circle cx="57.1" cy="98.9" r="38.1"/>
  </g>
</svg>
