<svg xmlns="http://www.w3.org/2000/svg" width="473.2" height="819.6" viewBox="0 0 473.2 819.6">
  <style>
    :root { --golden: #907A58; --darkBlue: #475387; --beige: #DFD8CC; --teal: #4A9AC4; --gray: #A49DA0; --smaragd: #406A72; --sand: #D3BDA7; --grayGreen: #A2D1D6; --blueGray: #758390; --lightBrown: #AA8858; --blue1: #8EC5EE; --blue2: #8CC6EA; --blue3: #B6DAEC; --rust: #D8692D; --yellow: #F8C346; --black: #443430; --red: #BF402B; --gold: #CEA600; --turquois: #4D9BA3; --emerald: #216554; --blue: #262F66; --white: #FFFAF2; } .shape-2{fill:var(--red)} .shape-1{fill:var(--black)} .shape-3{fill:var(--white)} .guides{ stroke: #4FFF4F; display: none; fill: none;}
  </style>
  <g id="pattern" class="line">
    <path class="shape-1" d="M473.2 683l-100-100-136.6-36.6 36.6-136.6-36.6-136.6 136.6-36.6 100-100 34.4 34.4V-24.1h-64.5L436.6 0l36.6 136.6-136.6 36.6-100 100-100-100L0 136.6 36.6 0l-6.4-24.1h-65.7v196.2L0 136.6l100 100 136.6 36.6L200 409.8l36.6 136.6L100 583 0 683l-35.5-35.5v207.3h62.7l9.4-35.1L0 683l136.6-36.6 100-100 100 100L473.2 683l-36.6 136.6 9.4 35.2h61.6V648.7z"/>
    <path class="shape-2" d="M-100 583L0 483l100 100-36.6-136.6L200 409.8 63.4 373.2 100 236.6 0 336.6l-100-100 36.6 136.6-136.6 36.6 136.6 36.6zm473.2 0l100-100 100 100-36.6-136.6 136.6-36.6-136.6-36.6 36.6-136.6-100 100-100-100 36.6 136.6-136.6 36.6 136.6 36.6zM136.6 173.2l100-100 100 100L300 36.6 436.6 0 300-36.6l36.6-136.6-100 100-100-100 36.6 136.6L36.6 0l136.6 36.6zm0 819.7l100-100 100 100L300 856.3l136.6-36.7L300 783l36.6-136.6-100 100.1-100-100.1L173.2 783 36.6 819.6l136.6 36.6z"/>
    <path class="shape-3" d="M63.401,373.202l36.604-136.606l136.606,36.603l-36.604,136.604L63.401,373.202z M200.009,409.803
      L63.403,446.404l36.604,136.606l136.605-36.604L200.009,409.803z M-99.993,236.597l-136.604,36.602l36.604,136.607l136.605-36.604
      L-99.993,236.597z M-99.996,583.007l100,100l100.002-100L0.005,483.003L-99.996,583.007z M-99.998,236.596l100,100.001
      l100.003-100.001L0.003,136.593L-99.998,236.596z M-99.991,583.007l36.605-136.604l-136.605-36.603l-36.605,136.606
      L-99.991,583.007z M673.224,409.822l36.604-136.604l-136.606-36.603l-36.604,136.606L673.224,409.822z M673.224,409.822
      l-136.605,36.602l36.604,136.606l136.605-36.604L673.224,409.822z M373.222,236.616l-136.604,36.602l36.604,136.607
      l136.605-36.604L373.222,236.616z M373.219,583.026l100.001,100l100.002-100L473.221,483.022L373.219,583.026z M373.217,236.615
      l100.001,100.001l100.003-100.001L473.218,136.612L373.217,236.615z M373.224,583.026l36.604-136.604L273.223,409.82
      l-36.604,136.606L373.224,583.026z M436.625,0.002l36.604-136.604l-136.606-36.603L300.018-36.599L436.625,0.002z M436.625,0.002
      L300.02,36.604l36.604,136.606l136.605-36.604L436.625,0.002z M136.623-173.204L0.019-136.603L36.623,0.005L173.229-36.6
      L136.623-173.204z M136.62,173.206l100.001,100l100.002-100L236.622,73.202L136.62,173.206z M136.618-173.205L236.619-73.204
      l100.003-100.001L236.619-273.208L136.618-173.205z M136.625,173.206l36.604-136.604L36.624,0L0.02,136.606L136.625,173.206z
       M436.628,819.65l36.604-136.604l-136.606-36.603L300.021,783.05L436.628,819.65z M436.628,819.65l-136.605,36.602l36.604,136.606
      l136.605-36.604L436.628,819.65z M136.626,646.444L0.021,683.046l36.604,136.607l136.605-36.604L136.626,646.444z
       M136.623,992.854l100.001,100l100.002-100L236.625,892.851L136.623,992.854z M136.621,646.443l100.001,100.001l100.003-100.001
      L236.622,546.44L136.621,646.443z M136.628,992.854l36.604-136.604L36.627,819.648L0.022,956.255L136.628,992.854z"/>
  </g>
  <g class="guides">
    <path d="M0 136.6l236.6 136.6v273.2L0 683l-236.6-136.6V273.2z"/>
    <path d="M236.6 273.2l-473.2 273.2m354.9-341.5l-236.6 409.8M0 136.6V683m-118.3-478.1l236.6 409.8m-354.9-341.5l473.2 273.2m-473.2-136.6h473.2m-63.4-100l-373.2 100 373.2 100L-100 236.6 0 609.8l100-373.2-273.2 273.2 373.2-100-373.2-100L100 583 0 209.8-100 583zM473.2 683L0 956.3m354.9-341.6l-236.6 409.9m118.3-478.2v546.5M118.3 614.7l236.6 409.9M0 683l473.2 273.3M-36.6 819.6h546.4m-100-100l-373.2 100 373.2 100-273.2-273.2 100 373.2 100-373.2L63.4 919.6l373.2-100-373.2-100 273.2 273.3-100-373.3-100 373.3zM473.2 136.6l236.6 136.6v273.2L473.2 683 236.6 546.4V273.2z"/>
    <path d="M236.6-273.2l236.6 136.6v273.2L236.6 273.2 0 136.6v-273.2zM709.8 273.2L236.6 546.4m354.9-341.5L354.9 614.7m118.3-478.1V683M354.9 204.9l236.6 409.8M236.6 273.2l473.2 273.2M236.6 409.8h473.2m-63.4-100l-373.2 100 373.2 100-273.2-273.2 100 373.2 100-373.2L300 509.8l373.2-100-373.2-100L573.2 583l-100-373.2-100 373.2z"/>
    <path d="M473.2-136.6L0 136.6m354.9-341.5L118.3 204.9m118.3-478.1v546.4M118.3-204.9l236.6 409.8M0-136.6l473.2 273.2M-36.6 0h546.4m-100-100L36.6 0l373.2 100-273.2-273.2 100 373.2 100-373.2L63.4 100 436.6 0 63.4-100l273.2 273.2-100-373.2-100 373.2zM236.6 546.4L473.2 683v273.3l-236.6 136.6L0 956.3V683z"/>
    <circle cx="473.2" cy="409.8" r="200"/>
    <circle cx="473.2" cy="409.8" r="273.2"/>
    <circle cy="409.8" r="273.2"/>
    <circle cx="236.6" r="200"/>
    <circle cx="236.6" r="273.2"/>
    <circle cx="236.6" cy="819.6" r="200"/>
    <circle cy="409.8" r="200"/>
    <circle cx="236.6" cy="819.6" r="273.2"/>
    <circle cx="709.8" cy="819.6" r="273.2"/>
    <circle cx="709.8" r="273.2"/>
    <circle cx="-236.6" r="273.2"/>
    <circle cx="-236.6" cy="819.6" r="273.2"/>
  </g>
</svg>
