<svg xmlns="http://www.w3.org/2000/svg" width="735.3" height="424.4" viewBox="0 0 735.3 424.4">
  <style>
    :root { --black: #443430; --red: #BF402B; --gold: #CEA600; --turquois: #4D9BA3; --emerald: #216554; --blue: #262F66; --white: #FFFAF2; } .shape-1{fill:var(--red)} .shape-3{fill:var(--white)} .shape-2{fill:var(--black)} .guides{ stroke: #4FFF4F; display: none; fill: none}
  </style>
  <g class="line" id="pattern">
    <path class="shape-3" d="M148.4 45l-25.9 96.5-70.7-19L0 70.8 70.9 0 55.5-15.4h204.4L264.1.1l-19 70.7L148.4 45zm464.4 238l19-70.7-19-70.7 70.7-19L735.3 71 664.6 0l15.5-15.5H475.3L471.2.1l19 70.7L586.7 45l25.9 96.8-96.7 25.8L490 70.9l-70.7 19-51.8 51.8L316 89.8l-70.8-19-25.9 96.7-96.7-26-19 70.7 19 70.8-70.7 19L0 353.6l70.7 70.7-31.1 31.2h216.2l8.3-31-19-70.7-96.6 25.8-25.9-96.7 96.7-25.9 25.7 97 70.8-19 51.7-51.8-70.6-70.7 70.7-70.8 70.8 70.8-70.9 70.7 51.8 51.8 70.7 19 26-96.6 96.7 25.9-26 96.6-96.7-26-19 70.8 8.4 31h216l-31-31 70.8-70.8-51.8-51.8-70.7-19z"/>
    <path class="shape-1" d="M0 70.8l51.8 51.7 70.7 19-18.9 70.7 18.9 70.8-70.7 18.9L0 353.7l-51.8-51.8-70.7-18.9 18.9-70.8-18.9-70.7 70.7-19zm735.3.1l51.7 51.8 70.8 18.9-19 70.7 19 70.8L787 302l-51.7 51.8-51.8-51.8-70.7-18.9 18.9-70.8-18.9-70.7 70.7-18.9zM367.6 283.1l51.8 51.8 70.7 19-18.9 70.7 18.9 70.7-70.7 19-51.8 51.8-51.7-51.8-70.8-19 19-70.7-19-70.7 70.8-19zm0-424.5l51.8 51.8 70.7 19L471.2.1l18.9 70.7-70.7 19-51.8 51.8-51.7-51.8-70.8-19 19-70.7-19-70.7 70.8-19z"/>
    <path class="shape-2" d="M148.4 44.9l96.7 25.9-25.9 96.7-96.7-26zm367.7 212.4l96.7 25.9-25.9 96.6-96.8-25.9zM297 212.4l70.7-70.8 70.8 70.8-70.9 70.7zM-70.7 0L.1-70.8 70.9 0 0 70.8zm735.3.1l70.8-70.7L806.1.1l-70.8 70.8zM-70.8 424.5L0 353.7l70.7 70.7-70.8 70.8zm735.3.1l70.8-70.8 70.7 70.8-70.8 70.7zm-516-44.9L122.6 283l96.7-25.9 25.8 96.8zM516 167.5l-25.9-96.7 96.7-25.9 25.9 96.8z"/>
  </g>
  <g class="guides">
    <path d="M0 353.7L-122.5 283V141.5L0 70.8l122.5 70.7V283zM0 70.8v282.9m-122.5-212.2l245 141.5m-245 0l245-141.5m-264 70.7h283M0 212.2L122.5 0M70.8 0L-51.8 122.5M-70.7 0L51.8 122.5M-122.5 0L0 70.8M122.6 0L0 70.8M-122.5 0h245.1M0 212.2l-122.5 212.2m51.7.1L51.8 301.9m18.9 122.5L-51.8 301.9m174.3 122.5L0 353.7m0 0l-122.6 70.8m245.1-.1l-245.1.1M0 212.2L-122.5 0m-25.9 44.8l44.8 167.4m-115.5-44.8l167.3-44.9M-245 212.2l122.5-70.7m0 0V-.1M-245 212.2L-122.5-.1M0 212.2l122.5 212.2m25.9-44.8l-44.8-167.4m115.5 44.9L51.8 301.9M245 212.2L122.5 283m0 0v141.5M245 212.2L122.5 424.5M0 212.2h-245m25.8 44.8l167.4 44.9m-96.6 77.7l44.8-167.4m-18.9 212.2V283m0 0l-122.6-70.8m122.6 212.2l-122.6-212.2m245.1 0h245m-25.8-44.8L51.8 122.5m96.6-77.6l-44.8 167.3M122.5 0v141.5m0 0l122.6 70.8M122.5 0l122.6 212.3m490.2 141.5l-122.5-70.7V141.6l122.5-70.7 122.5 70.7v141.5zm0-282.9v282.9M612.8 141.6l245 141.5m-245 0l245-141.5m-264 70.7h282.9M367.6.1l122.5-212.2m-51.7-.1L315.9-89.6m-19-122.5L419.4-89.6M245.1-212.1l122.5 70.7m0 0l122.7-70.8m-245.2.1l245.2-.1M367.6.1L245.1 212.3m51.8 0L419.4 89.8m19 122.5L315.9 89.8m174.2 122.5l-122.5-70.7m0 0L245 212.3m245.1 0H245M367.6.1L245.1-212.1m-25.9 44.8L264.1.1M148.5-44.7l167.4-44.9M122.6.1l122.5-70.7m0 0v-141.6M122.6.1l122.5-212.3M367.6.1l122.5 212.2m26-44.8L471.2.1m115.6 44.8L419.4 89.8M612.7.1L490.1 70.8m0 0v141.6M367.6.1h-245m25.8 44.8l167.5 44.9m-96.7 77.7L264.1.1m-19 212.2V70.8m0 0L122.5 0m245.1.1h245.1m-25.9-44.8L419.4-89.6m96.6-77.7L471.2.1m18.9-212.2v141.5m0 0L612.8.2M490.1-212.1L612.8.2M367.6 566.1l-122.5-70.8V353.9l122.5-70.8 122.5 70.8v141.4zm0-283v283M245.1 353.9l245 141.4m-245 0l245-141.4m-263.9 70.7h282.9M367.6 424.6l122.5-212.2m-51.7 0L315.9 334.9m-19-122.5l122.5 122.5M245.1 212.4l122.5 70.7m0 0l122.7-70.8M367.6 424.6L245.1 636.8m51.8 0l122.5-122.5m19 122.5L315.9 514.3m174.2 122.5l-122.5-70.7m0 0L245 636.9m245.1-.1l-245.1.1m122.6-212.3L245.1 212.4m-25.9 44.8l44.9 167.4m-115.6-44.8l167.4-44.9m-193.3 89.7l122.5-70.7m0 0V212.3m122.5 212.3l122.5 212.2m26-44.8l-44.9-167.4m115.6 44.8l-167.4 44.9m193.3-89.7l-122.6 70.7m0 0v141.6m122.6-212.3L490.1 636.9M367.6 424.6h-245m25.8 44.8l167.5 44.9M219.2 592l44.9-167.4m-19 212.2V495.3m0 0l-122.6-70.8m122.6 212.3L122.5 424.5m245.1.1h245.1m-25.9-44.8l-167.4-44.9m96.6-77.7l-44.8 167.4m18.9-212.2v141.5m0 0l122.7 70.8M735.3 212.3L857.8.2M806 .1L683.5 122.7M664.5.1L787 122.7M612.8.2l122.5 70.7M857.9.1L735.3 70.9M612.8.2L857.9.1M735.3 212.3L612.8 424.5m51.7.1L787 302m19 122.6L683.5 302m174.3 122.5l-122.5-70.7m0 0l-122.6 70.8m245.1-.1l-245.1.1m122.6-212.3L612.8.2m-25.9 44.7l44.8 167.4m-115.6-44.8l167.4-44.8m-193.3 89.6l122.6-70.7m0 0V0M490.2 212.3L612.8 0m122.5 212.3l122.5 212.2m25.9-44.7l-44.9-167.5m115.6 44.9L787 302m193.3-89.7l-122.5 70.8m0 0v141.6m122.5-212.4L857.8 424.7M735.3 212.3h-245m25.8 44.9L683.5 302m-96.6 77.7l44.8-167.4m-18.9 212.2V283.1m0 0l-122.7-70.8m122.7 212.2L490.1 212.3m245.2 0h245m-25.8-44.8L787 122.7M883.7 45l-44.9 167.3M857.8.2v141.4m0 0l122.6 70.8M857.8.2l122.6 212.2m-612.8-70.8L245.1 70.8V-70.6l122.5-70.8 122.5 70.8V70.8zm0-283v283M245.1-70.6l245 141.4m-245 0l245-141.4M226.2.1h282.9"/>
    <circle cx="735.3" cy="212.3" r="141.5"/>
    <circle cx="367.6" cy="424.6" r="141.5"/>
    <circle cx="367.6" cy=".1" r="141.5"/>
    <circle cy="212.2" r="141.5"/>
  </g>
</svg>
