<svg version="1.1" xmlns="http://www.w3.org/2000/svg" width="735.268" height="424.447" viewBox="0 0 100% 100%">
  <style>
    :root {
      --black: #443430;
      --red: #BF402B;
      --gold: #CEA600;
      --turquois: #4D9BA3;
      --emerald: #216554;
      --blue: #262F66;
      --white: #FFFAF2;
    }
    .shape-1{fill:var(--red)}
    .shape-3{fill:var(--white)}
    .shape-2{fill:var(--black)}
    <!-- .line{stroke:#fff;stroke-width:20px} -->
    .guides{ stroke: #4FFF4F; display: none; fill: none}
  </style>
      <g class="line" id="pattern">
        <rect x="-26.814" y="-15.389" class="shape-3" width="781.765" height="470.943"/>
        <polygon class="shape-1" points="-0.001,70.763 51.776,122.542 122.508,141.494 103.558,212.224 122.509,282.955 51.778,301.906 
          -0.002,353.687 -51.779,301.906 -122.512,282.956 -103.557,212.225 -122.512,141.494 -51.78,122.542  "/>
        <polygon class="shape-1" points="735.269,70.885 787.046,122.664 857.777,141.617 838.827,212.347 857.778,283.077 787.048,302.027 
          735.268,353.809 683.49,302.03 612.758,283.078 631.713,212.348 612.758,141.616 683.489,122.665   "/>
        <polygon class="shape-1" points="367.635,283.143 419.412,334.92 490.144,353.873 471.193,424.603 490.145,495.334 419.414,514.285 
          367.634,566.065 315.856,514.285 245.124,495.336 264.079,424.604 245.124,353.873 315.856,334.922   "/>
        <polygon class="shape-1" points="367.634,-141.37 419.411,-89.591 490.143,-70.639 471.192,0.091 490.144,70.822 419.413,89.773 
          367.633,141.554 315.855,89.774 245.123,70.824 264.078,0.092 245.123,-70.639 315.855,-89.59  "/>
        <polygon class="shape-2" points="148.438,44.916 245.123,70.824 219.231,167.462 122.508,141.494  "/>
        <polygon class="shape-2" points="516.074,257.293 612.759,283.202 586.867,379.84 490.144,353.873   "/>
        <polygon class="shape-2" points="296.961,212.396 367.74,141.619 438.486,212.361 367.635,283.143   "/>
        <polygon class="shape-2" points="-70.675,0.017 0.104,-70.76 70.851,-0.018 -0.001,70.763   "/>
        <polygon class="shape-2" points="664.595,0.14 735.374,-70.638 806.12,0.104 735.269,70.885   "/>
        <polygon class="shape-2" points="-70.781,424.465 -0.002,353.687 70.744,424.43 -0.107,495.209  "/>
        <polygon class="shape-2" points="664.488,424.586 735.268,353.809 806.014,424.552 735.162,495.331  "/>
        <polygon class="shape-2" points="148.52,379.706 122.614,283.02 219.252,257.124 245.124,353.873  "/>
        <polygon class="shape-2" points="516.049,167.507 490.144,70.822 586.781,44.925 612.653,141.674  "/>
      </g>
      <g class="guides">
        <polygon class="st5" points="-0.002,353.687 -122.512,282.956 -122.512,141.494 -0.001,70.763 122.508,141.494 122.509,282.956     
          "/>
        <line class="st5" x1="-0.001" y1="70.763" x2="-0.002" y2="353.687"/>
        <line class="st5" x1="-122.512" y1="141.494" x2="122.509" y2="282.956"/>
        <line class="st5" x1="-122.512" y1="282.956" x2="122.508" y2="141.494"/>
        <line class="st5" x1="-141.464" y1="212.225" x2="141.46" y2="212.224"/>
        <circle class="st5" cx="-0.001" cy="212.224" r="141.461"/>
        <line class="st5" x1="-0.001" y1="212.224" x2="122.509" y2="0.032"/>
        <line class="st5" x1="70.778" y1="-0.018" x2="-51.78" y2="122.542"/>
        <line class="st5" x1="-70.747" y1="0.018" x2="51.777" y2="122.542"/>
        <line class="st5" x1="-122.512" y1="0.03" x2="-0.001" y2="70.763"/>
        <line class="st5" x1="122.616" y1="-0.03" x2="-0.001" y2="70.763"/>
        <line class="st5" x1="-122.512" y1="0.03" x2="122.616" y2="-0.03"/>
        <line class="st5" x1="-0.001" y1="212.224" x2="-122.511" y2="424.416"/>
        <line class="st5" x1="-70.78" y1="424.466" x2="51.778" y2="301.906"/>
        <line class="st5" x1="70.745" y1="424.432" x2="-51.779" y2="301.906"/>
        <line class="st5" x1="122.511" y1="424.418" x2="-0.001" y2="353.686"/>
        <line class="st5" x1="-0.001" y1="353.686" x2="-122.618" y2="424.478"/>
        <line class="st5" x1="122.511" y1="424.418" x2="-122.618" y2="424.478"/>
        <line class="st5" x1="-0.001" y1="212.225" x2="-122.51" y2="0.032"/>
        <line class="st5" x1="-148.417" y1="44.807" x2="-103.557" y2="212.225"/>
        <line class="st5" x1="-219.149" y1="167.389" x2="-51.778" y2="122.542"/>
        <line class="st5" x1="-245.021" y1="212.226" x2="-122.51" y2="141.494"/>
        <line class="st5" x1="-122.51" y1="141.494" x2="-122.51" y2="-0.092"/>
        <line class="st5" x1="-245.021" y1="212.226" x2="-122.51" y2="-0.092"/>
        <line class="st5" x1="-0.001" y1="212.225" x2="122.509" y2="424.418"/>
        <line class="st5" x1="148.417" y1="379.643" x2="103.556" y2="212.223"/>
        <line class="st5" x1="219.149" y1="257.061" x2="51.778" y2="301.907"/>
        <line class="st5" x1="245.021" y1="212.223" x2="122.509" y2="282.955"/>
        <line class="st5" x1="122.509" y1="282.955" x2="122.509" y2="424.541"/>
        <line class="st5" x1="245.021" y1="212.223" x2="122.509" y2="424.541"/>
        <line class="st5" x1="0" y1="212.225" x2="-245.019" y2="212.224"/>
        <line class="st5" x1="-219.196" y1="257.048" x2="-51.777" y2="301.907"/>
        <line class="st5" x1="-148.403" y1="379.595" x2="-103.556" y2="212.224"/>
        <line class="st5" x1="-122.509" y1="424.419" x2="-122.509" y2="282.955"/>
        <line class="st5" x1="-122.509" y1="282.955" x2="-245.126" y2="212.162"/>
        <line class="st5" x1="-122.509" y1="424.419" x2="-245.126" y2="212.162"/>
        <line class="st5" x1="0" y1="212.225" x2="245.019" y2="212.225"/>
        <line class="st5" x1="219.196" y1="167.4" x2="51.776" y2="122.542"/>
        <line class="st5" x1="148.404" y1="44.853" x2="103.558" y2="212.224"/>
        <line class="st5" x1="122.509" y1="0.029" x2="122.509" y2="141.493"/>
        <line class="st5" x1="122.509" y1="141.493" x2="245.126" y2="212.287"/>
        <line class="st5" x1="122.509" y1="0.029" x2="245.126" y2="212.287"/>
        <polygon class="st5" points="735.268,353.809 612.758,283.078 612.758,141.616 735.269,70.885 857.777,141.617 857.778,283.078     
          "/>
        <line class="st5" x1="735.269" y1="70.885" x2="735.268" y2="353.809"/>
        <line class="st5" x1="612.758" y1="141.616" x2="857.778" y2="283.078"/>
        <line class="st5" x1="612.758" y1="283.078" x2="857.777" y2="141.617"/>
        <line class="st5" x1="593.806" y1="212.347" x2="876.729" y2="212.347"/>
        <circle class="st5" cx="735.269" cy="212.346" r="141.461"/>
        <line class="st5" x1="735.269" y1="212.347" x2="857.778" y2="0.154"/>
        <line class="st5" x1="806.048" y1="0.105" x2="683.489" y2="122.665"/>
        <line class="st5" x1="664.522" y1="0.14" x2="787.047" y2="122.664"/>
        <line class="st5" x1="612.757" y1="0.153" x2="735.269" y2="70.885"/>
        <line class="st5" x1="857.886" y1="0.092" x2="735.269" y2="70.885"/>
        <line class="st5" x1="612.757" y1="0.153" x2="857.886" y2="0.092"/>
        <line class="st5" x1="735.269" y1="212.347" x2="612.759" y2="424.54"/>
        <line class="st5" x1="664.489" y1="424.588" x2="787.048" y2="302.027"/>
        <line class="st5" x1="806.015" y1="424.553" x2="683.49" y2="302.03"/>
        <line class="st5" x1="857.78" y1="424.54" x2="735.269" y2="353.807"/>
        <line class="st5" x1="735.269" y1="353.807" x2="612.651" y2="424.6"/>
        <line class="st5" x1="857.78" y1="424.54" x2="612.651" y2="424.6"/>
        <line class="st5" x1="735.269" y1="212.347" x2="612.76" y2="0.154"/>
        <line class="st5" x1="586.853" y1="44.93" x2="631.713" y2="212.348"/>
        <line class="st5" x1="516.12" y1="167.512" x2="683.491" y2="122.665"/>
        <line class="st5" x1="490.248" y1="212.349" x2="612.76" y2="141.616"/>
        <line class="st5" x1="612.76" y1="141.616" x2="612.76" y2="0.03"/>
        <line class="st5" x1="490.248" y1="212.349" x2="612.76" y2="0.03"/>
        <line class="st5" x1="735.269" y1="212.347" x2="857.778" y2="424.54"/>
        <line class="st5" x1="883.687" y1="379.765" x2="838.825" y2="212.346"/>
        <line class="st5" x1="954.419" y1="257.183" x2="787.048" y2="302.03"/>
        <line class="st5" x1="980.29" y1="212.346" x2="857.778" y2="283.077"/>
        <line class="st5" x1="857.778" y1="283.077" x2="857.778" y2="424.665"/>
        <line class="st5" x1="980.29" y1="212.346" x2="857.778" y2="424.665"/>
        <line class="st5" x1="735.27" y1="212.348" x2="490.251" y2="212.347"/>
        <line class="st5" x1="516.073" y1="257.171" x2="683.492" y2="302.03"/>
        <line class="st5" x1="586.866" y1="379.717" x2="631.714" y2="212.347"/>
        <line class="st5" x1="612.761" y1="424.541" x2="612.761" y2="283.077"/>
        <line class="st5" x1="612.761" y1="283.077" x2="490.144" y2="212.285"/>
        <line class="st5" x1="612.761" y1="424.541" x2="490.144" y2="212.285"/>
        <line class="st5" x1="735.27" y1="212.348" x2="980.288" y2="212.347"/>
        <line class="st5" x1="954.466" y1="167.522" x2="787.046" y2="122.664"/>
        <line class="st5" x1="883.674" y1="44.976" x2="838.827" y2="212.347"/>
        <line class="st5" x1="857.778" y1="0.152" x2="857.778" y2="141.616"/>
        <line class="st5" x1="857.778" y1="141.616" x2="980.396" y2="212.409"/>
        <line class="st5" x1="857.778" y1="0.152" x2="980.396" y2="212.409"/>
        <polygon class="st5" points="367.633,141.554 245.123,70.824 245.123,-70.639 367.634,-141.37 490.143,-70.639 490.144,70.823    
          "/>
        <line class="st5" x1="367.634" y1="-141.37" x2="367.633" y2="141.554"/>
        <line class="st5" x1="245.123" y1="-70.639" x2="490.144" y2="70.823"/>
        <line class="st5" x1="245.123" y1="70.824" x2="490.143" y2="-70.639"/>
        <line class="st5" x1="226.171" y1="0.092" x2="509.095" y2="0.091"/>
        <circle class="st5" cx="367.634" cy="0.091" r="141.461"/>
        <line class="st5" x1="367.634" y1="0.091" x2="490.144" y2="-212.101"/>
        <line class="st5" x1="438.413" y1="-212.15" x2="315.854" y2="-89.591"/>
        <line class="st5" x1="296.888" y1="-212.115" x2="419.412" y2="-89.591"/>
        <line class="st5" x1="245.122" y1="-212.103" x2="367.634" y2="-141.37"/>
        <line class="st5" x1="367.634" y1="-141.37" x2="490.251" y2="-212.163"/>
        <line class="st5" x1="245.122" y1="-212.103" x2="490.251" y2="-212.163"/>
        <line class="st5" x1="367.634" y1="0.091" x2="245.124" y2="212.284"/>
        <line class="st5" x1="296.854" y1="212.333" x2="419.413" y2="89.773"/>
        <line class="st5" x1="438.38" y1="212.298" x2="315.855" y2="89.774"/>
        <line class="st5" x1="490.146" y1="212.285" x2="367.634" y2="141.552"/>
        <line class="st5" x1="367.634" y1="141.552" x2="245.017" y2="212.345"/>
        <line class="st5" x1="490.146" y1="212.285" x2="245.017" y2="212.345"/>
        <line class="st5" x1="367.634" y1="0.092" x2="245.125" y2="-212.101"/>
        <line class="st5" x1="219.218" y1="-167.326" x2="264.078" y2="0.092"/>
        <line class="st5" x1="148.485" y1="-44.744" x2="315.856" y2="-89.591"/>
        <line class="st5" x1="122.613" y1="0.093" x2="245.125" y2="-70.639"/>
        <line class="st5" x1="245.125" y1="-70.639" x2="245.125" y2="-212.225"/>
        <line class="st5" x1="122.613" y1="0.093" x2="245.125" y2="-212.225"/>
        <line class="st5" x1="367.634" y1="0.092" x2="490.144" y2="212.285"/>
        <line class="st5" x1="516.052" y1="167.509" x2="471.19" y2="0.09"/>
        <line class="st5" x1="586.784" y1="44.928" x2="419.413" y2="89.775"/>
        <line class="st5" x1="612.655" y1="0.09" x2="490.144" y2="70.822"/>
        <line class="st5" x1="490.144" y1="70.822" x2="490.144" y2="212.409"/>
        <path class="st5" d="M490.144,212.409"/>
        <path class="st5" d="M612.655,0.09"/>
        <line class="st5" x1="367.635" y1="0.092" x2="122.616" y2="0.091"/>
        <line class="st5" x1="148.438" y1="44.916" x2="315.857" y2="89.775"/>
        <line class="st5" x1="219.231" y1="167.462" x2="264.079" y2="0.091"/>
        <line class="st5" x1="245.126" y1="212.287" x2="245.126" y2="70.822"/>
        <line class="st5" x1="245.126" y1="70.822" x2="122.509" y2="0.029"/>
        <path class="st5" d="M122.509,0.029"/>
        <path class="st5" d="M245.126,212.287"/>
        <line class="st5" x1="367.635" y1="0.092" x2="612.653" y2="0.092"/>
        <line class="st5" x1="586.831" y1="-44.733" x2="419.411" y2="-89.591"/>
        <line class="st5" x1="516.039" y1="-167.28" x2="471.192" y2="0.091"/>
        <line class="st5" x1="490.144" y1="-212.104" x2="490.144" y2="-70.64"/>
        <line class="st5" x1="490.144" y1="-70.64" x2="612.761" y2="0.154"/>
        <line class="st5" x1="490.144" y1="-212.104" x2="612.761" y2="0.154"/>
        <polygon class="st5" points="367.634,566.065 245.124,495.336 245.124,353.873 367.635,283.143 490.144,353.873 490.145,495.334 
              "/>
        <line class="st5" x1="367.635" y1="283.143" x2="367.634" y2="566.065"/>
        <line class="st5" x1="245.124" y1="353.873" x2="490.145" y2="495.334"/>
        <line class="st5" x1="245.124" y1="495.336" x2="490.144" y2="353.873"/>
        <line class="st5" x1="226.172" y1="424.603" x2="509.096" y2="424.603"/>
        <circle class="st5" cx="367.635" cy="424.603" r="141.461"/>
        <line class="st5" x1="367.635" y1="424.603" x2="490.145" y2="212.411"/>
        <line class="st5" x1="438.414" y1="212.361" x2="315.855" y2="334.922"/>
        <line class="st5" x1="296.889" y1="212.396" x2="419.413" y2="334.92"/>
        <line class="st5" x1="245.123" y1="212.409" x2="367.635" y2="283.143"/>
        <line class="st5" x1="367.635" y1="283.143" x2="490.252" y2="212.349"/>
        <line class="st5" x1="367.635" y1="424.603" x2="245.125" y2="636.795"/>
        <line class="st5" x1="296.855" y1="636.845" x2="419.414" y2="514.285"/>
        <line class="st5" x1="438.381" y1="636.811" x2="315.856" y2="514.285"/>
        <line class="st5" x1="490.146" y1="636.797" x2="367.635" y2="566.064"/>
        <line class="st5" x1="367.635" y1="566.064" x2="245.018" y2="636.856"/>
        <line class="st5" x1="490.146" y1="636.797" x2="245.018" y2="636.856"/>
        <line class="st5" x1="367.635" y1="424.603" x2="245.126" y2="212.411"/>
        <line class="st5" x1="219.219" y1="257.186" x2="264.079" y2="424.604"/>
        <line class="st5" x1="148.486" y1="379.769" x2="315.857" y2="334.922"/>
        <line class="st5" x1="122.614" y1="424.605" x2="245.126" y2="353.873"/>
        <line class="st5" x1="245.126" y1="353.873" x2="245.126" y2="212.287"/>
        <line class="st5" x1="367.635" y1="424.603" x2="490.145" y2="636.797"/>
        <line class="st5" x1="516.053" y1="592.021" x2="471.191" y2="424.603"/>
        <line class="st5" x1="586.785" y1="469.439" x2="419.414" y2="514.286"/>
        <line class="st5" x1="612.656" y1="424.603" x2="490.145" y2="495.334"/>
        <line class="st5" x1="490.145" y1="495.334" x2="490.145" y2="636.92"/>
        <line class="st5" x1="612.656" y1="424.603" x2="490.145" y2="636.92"/>
        <line class="st5" x1="367.636" y1="424.604" x2="122.617" y2="424.603"/>
        <line class="st5" x1="148.439" y1="469.427" x2="315.858" y2="514.286"/>
        <line class="st5" x1="219.232" y1="591.974" x2="264.08" y2="424.603"/>
        <line class="st5" x1="245.127" y1="636.798" x2="245.127" y2="495.334"/>
        <line class="st5" x1="245.127" y1="495.334" x2="122.51" y2="424.54"/>
        <line class="st5" x1="245.127" y1="636.798" x2="122.51" y2="424.54"/>
        <line class="st5" x1="367.636" y1="424.604" x2="612.654" y2="424.603"/>
        <line class="st5" x1="586.832" y1="379.779" x2="419.412" y2="334.92"/>
        <line class="st5" x1="516.04" y1="257.232" x2="471.193" y2="424.603"/>
        <line class="st5" x1="490.145" y1="212.408" x2="490.145" y2="353.873"/>
        <line class="st5" x1="490.145" y1="353.873" x2="612.762" y2="424.665"/>
      </g>
</svg>
