<svg version="1.1" xmlns="http://www.w3.org/2000/svg" width="338.175px" height="338.173px" viewBox="0 0 100% 100%">
  <style>
    :root {
      --golden: #907A58;
      --darkBlue: #475387;
      --beige: #DFD8CC;
      --teal: #4A9AC4;
      --gray: #A49DA0;
      --smaragd: #406A72;
      --sand: #D3BDA7;
      --grayGreen: #A2D1D6;
      --blueGray: #758390;
      --lightBrown: #AA8858;
      --blue1: #8EC5EE;
      --blue2: #8CC6EA;
      --blue3: #B6DAEC;
      --rust: #D8692D;
      --yellow: #F8C346;
    }
    .shape-1{fill:var(--sand)}
    .shape-2{fill:var(--grayGreen)}
    .shape-3{fill:var(--teal)}
    .shape-4{fill:var(--golden)}
    .shape-5{fill:var(--darkBlue)}
    .shape-6{fill:var(--gray)}
    .shape-7{fill:var(--yellow)}
    .shape-8{fill:var(--blueGray)}
    .shape-9{fill:var(--rust)}
    .shape-10{fill:var(--smaragd)}
    .line{stroke:#fff;stroke-width:5px}
    .guides{ stroke: #4FFF4F; display: none; fill: none}
  </style>

  <g id="pattern" class="line">



	<rect x="-29.009" y="-29.015" class="shape-1" width="396.201" height="396.192"/>
	<g>
		<polygon class="shape-2" points="12.026,268.128 0.008,263.15 -12.006,268.126 0.01,297.136 0.012,297.137 		"/>
		<polygon class="shape-2" points="17.001,222.123 29.02,227.101 41.035,198.092 41.035,198.09 12.024,210.107 		"/>
		<polygon class="shape-2" points="12.026,268.128 41.034,280.145 41.034,280.145 29.018,251.134 17.004,256.11 		"/>
		<polygon class="shape-2" points="12.024,210.107 0.009,181.099 -12.007,210.107 0.008,215.084 		"/>
		<polygon class="shape-2" points="29.02,227.101 24.042,239.12 29.018,251.134 58.028,239.118 58.029,239.117 		"/>
		<polygon class="shape-2" points="75.025,338.171 70.048,326.154 41.039,338.171 41.038,338.172 70.048,350.188 		"/>
		<polygon class="shape-2" points="116.049,321.178 128.068,326.156 140.083,297.146 140.083,297.145 111.072,309.162 		"/>
		<polygon class="shape-2" points="111.072,309.162 99.057,280.154 87.042,309.162 99.057,314.139 		"/>
		<polygon class="shape-2" points="87.042,309.162 58.033,297.146 70.048,326.154 82.064,321.178 		"/>
		<polygon class="shape-2" points="128.068,326.156 123.09,338.175 128.066,350.189 157.077,338.173 157.078,338.172 		"/>
		<polygon class="shape-2" points="215.103,338.167 210.125,326.15 181.116,338.167 181.115,338.168 210.125,350.185 		"/>
		<polygon class="shape-2" points="256.126,321.174 268.145,326.152 280.16,297.143 280.16,297.141 251.149,309.158 		"/>
		<polygon class="shape-2" points="251.149,309.158 239.134,280.15 227.119,309.158 239.134,314.135 		"/>
		<polygon class="shape-2" points="227.119,309.158 198.11,297.143 210.125,326.15 222.142,321.174 		"/>
		<polygon class="shape-2" points="268.145,326.152 263.167,338.171 268.144,350.186 297.154,338.169 297.154,338.168 		"/>
		<polygon class="shape-2" points="314.147,239.122 309.17,227.105 280.16,239.122 280.16,239.123 309.17,251.14 		"/>
		<polygon class="shape-2" points="326.164,268.133 321.188,256.117 309.17,251.14 297.154,280.147 297.155,280.147 		"/>
		<polygon class="shape-2" points="350.197,268.135 338.179,263.156 326.164,268.133 338.18,297.142 338.182,297.143 		"/>
		<polygon class="shape-2" points="350.194,210.113 338.18,181.105 326.164,210.113 338.179,215.09 		"/>
		<polygon class="shape-2" points="326.164,210.113 297.154,198.098 309.17,227.105 321.187,222.129 		"/>
		<polygon class="shape-2" points="314.149,99.043 309.172,87.026 280.162,99.043 280.162,99.044 309.172,111.061 		"/>
		<polygon class="shape-2" points="326.166,128.054 321.189,116.038 309.172,111.061 297.156,140.068 297.157,140.068 		"/>
		<polygon class="shape-2" points="350.199,128.056 338.181,123.077 326.166,128.054 338.182,157.062 338.184,157.063 		"/>
		<polygon class="shape-2" points="350.196,70.034 338.182,41.026 326.166,70.034 338.181,75.011 		"/>
		<polygon class="shape-2" points="326.166,70.034 297.156,58.019 309.172,87.026 321.188,82.05 		"/>
		<polygon class="shape-2" points="215.103,-0.002 210.125,-12.019 181.115,-0.002 181.115,-0.001 210.125,12.016 		"/>
		<polygon class="shape-2" points="227.119,29.009 222.143,16.993 210.125,12.016 198.109,41.023 198.11,41.023 		"/>
		<polygon class="shape-2" points="251.152,29.011 239.134,24.032 227.119,29.009 239.135,58.018 239.137,58.019 		"/>
		<polygon class="shape-2" points="251.152,29.011 280.159,41.026 280.16,41.026 268.144,12.017 256.13,16.992 		"/>
		<polygon class="shape-2" points="268.145,-12.017 263.167,0.002 268.144,12.017 297.154,0 297.154,-0.001 		"/>
		<polygon class="shape-2" points="75.022,-0.002 70.045,-12.019 41.035,-0.002 41.035,-0.001 70.045,12.016 		"/>
		<polygon class="shape-2" points="87.039,29.009 82.062,16.993 70.045,12.016 58.029,41.023 58.03,41.023 		"/>
		<polygon class="shape-2" points="111.072,29.011 99.054,24.032 87.039,29.009 99.055,58.018 99.057,58.019 		"/>
		<polygon class="shape-2" points="111.072,29.011 140.079,41.026 140.08,41.026 128.063,12.017 116.05,16.992 		"/>
		<polygon class="shape-2" points="128.064,-12.017 123.087,0.002 128.063,12.017 157.074,0 157.074,-0.001 		"/>
		<polygon class="shape-2" points="12.021,128.052 0.002,123.073 -12.013,128.05 0.003,157.059 0.005,157.06 		"/>
		<polygon class="shape-2" points="16.995,82.046 29.013,87.024 41.028,58.015 41.028,58.013 12.018,70.03 		"/>
		<polygon class="shape-2" points="12.021,128.052 41.027,140.067 41.028,140.067 29.012,111.058 16.998,116.033 		"/>
		<polygon class="shape-2" points="12.018,70.03 0.003,41.022 -12.013,70.03 0.002,75.007 		"/>
		<polygon class="shape-2" points="29.013,87.024 24.035,99.043 29.012,111.058 58.022,99.041 58.022,99.04 		"/>
	</g>
	<g>
		<polygon class="shape-3" points="29.02,227.101 17.001,222.123 12.024,210.107 0.008,215.084 -12.007,210.107 -16.984,222.123 
			-29,227.1 -24.023,239.116 -29,251.134 -16.983,256.112 -12.006,268.126 0.008,263.15 12.026,268.128 17.004,256.11 
			29.018,251.134 24.042,239.12 		"/>
		<polygon class="shape-3" points="128.068,326.156 116.049,321.178 111.072,309.162 99.057,314.139 87.042,309.162 82.064,321.178 
			70.048,326.154 75.025,338.171 70.048,350.188 82.065,355.166 87.042,367.182 99.057,362.205 111.075,367.184 116.053,355.165 
			128.066,350.189 123.09,338.175 		"/>
		<polygon class="shape-3" points="268.145,326.152 256.126,321.174 251.149,309.158 239.134,314.135 227.119,309.158 222.142,321.174 
			210.125,326.15 215.103,338.167 210.125,350.185 222.143,355.162 227.119,367.178 239.134,362.201 251.152,367.18 256.13,355.161 
			268.144,350.186 263.167,338.171 		"/>
		<polygon class="shape-3" points="367.189,227.107 355.172,222.129 350.194,210.113 338.179,215.09 326.164,210.113 321.187,222.129 
			309.17,227.105 314.147,239.122 309.17,251.14 321.188,256.117 326.164,268.133 338.179,263.156 350.197,268.135 355.175,256.116 
			367.188,251.141 362.212,239.126 		"/>
		<polygon class="shape-3" points="367.191,87.028 355.174,82.05 350.196,70.034 338.181,75.011 326.166,70.034 321.188,82.05 
			309.172,87.026 314.149,99.043 309.172,111.061 321.189,116.038 326.166,128.054 338.181,123.077 350.199,128.056 
			355.177,116.037 367.19,111.062 362.214,99.047 		"/>
		<polygon class="shape-3" points="268.145,-12.017 256.127,-16.995 251.149,-29.011 239.134,-24.034 227.119,-29.011 222.142,-16.995 
			210.125,-12.019 215.103,-0.002 210.125,12.016 222.143,16.993 227.119,29.009 239.134,24.032 251.152,29.011 256.13,16.992 
			268.144,12.017 263.167,0.002 		"/>
		<polygon class="shape-3" points="128.064,-12.017 116.047,-16.995 111.069,-29.011 99.054,-24.034 87.039,-29.011 82.062,-16.995 
			70.045,-12.019 75.022,-0.002 70.045,12.016 82.062,16.993 87.039,29.009 99.054,24.032 111.072,29.011 116.05,16.992 
			128.063,12.017 123.087,0.002 		"/>
		<polygon class="shape-3" points="29.013,87.024 16.995,82.046 12.018,70.03 0.002,75.007 -12.013,70.03 -16.99,82.046 -29.007,87.022 
			-24.029,99.039 -29.007,111.057 -16.989,116.034 -12.013,128.05 0.002,123.073 12.021,128.052 16.998,116.033 29.012,111.058 
			24.035,99.043 		"/>
	</g>
	<g>
		<polygon class="shape-4" points="0.01,157.062 -28.999,169.078 0.009,181.099 29.021,169.08 		"/>
		<polygon class="shape-4" points="0.01,321.171 -28.999,309.154 0.009,297.133 29.021,309.152 		"/>
		<polygon class="shape-4" points="82.064,239.118 70.048,268.128 58.027,239.12 70.045,210.107 		"/>
		<polygon class="shape-4" points="58.032,181.097 70.048,210.107 41.037,198.096 29.019,169.082 		"/>
		<polygon class="shape-4" points="99.058,256.116 70.049,268.133 99.057,280.154 128.07,268.135 		"/>
		<polygon class="shape-4" points="41.036,280.15 29.021,309.16 58.032,297.148 70.049,268.135 		"/>
		<polygon class="shape-4" points="17.004,338.174 29.02,367.182 41.041,338.174 29.022,309.161 		"/>
		<polygon class="shape-4" points="181.112,338.173 169.097,367.183 157.075,338.174 169.094,309.162 		"/>
		<polygon class="shape-4" points="157.08,280.152 169.097,309.162 140.085,297.15 128.067,268.137 		"/>
		<polygon class="shape-4" points="239.135,256.112 210.126,268.129 239.134,280.15 268.147,268.131 		"/>
		<polygon class="shape-4" points="181.113,280.146 169.098,309.156 198.109,297.145 210.126,268.131 		"/>
		<polygon class="shape-4" points="321.189,338.169 309.174,367.179 297.152,338.17 309.171,309.158 		"/>
		<polygon class="shape-4" points="297.157,280.148 309.174,309.158 280.162,297.146 268.145,268.133 		"/>
		<polygon class="shape-4" points="338.18,157.067 309.172,169.084 338.18,181.105 367.191,169.086 		"/>
		<polygon class="shape-4" points="338.18,321.177 309.172,309.16 338.18,297.139 367.191,309.158 		"/>
		<polygon class="shape-4" points="280.158,181.102 268.143,210.111 297.154,198.1 309.171,169.086 		"/>
		<polygon class="shape-4" points="256.126,239.125 268.142,268.133 280.163,239.125 268.145,210.112 		"/>
		<polygon class="shape-4" points="338.182,16.988 309.174,29.005 338.182,41.026 367.193,29.007 		"/>
		<polygon class="shape-4" points="280.16,41.022 268.145,70.032 297.156,58.021 309.173,29.007 		"/>
		<polygon class="shape-4" points="256.128,99.046 268.144,128.054 280.165,99.046 268.146,70.033 		"/>
		<polygon class="shape-4" points="280.162,157.067 309.171,169.083 297.16,140.071 268.146,128.054 		"/>
		<polygon class="shape-4" points="239.135,82.053 210.127,70.036 239.135,58.015 268.146,70.034 		"/>
		<polygon class="shape-4" points="157.081,0.001 169.097,29.009 181.118,0.001 169.1,-29.012 		"/>
		<polygon class="shape-4" points="321.189,0 309.174,29.01 297.152,0.001 309.171,-29.011 		"/>
		<polygon class="shape-4" points="181.115,58.022 210.124,70.038 198.113,41.026 169.1,29.009 		"/>
		<polygon class="shape-4" points="99.055,82.053 70.047,70.036 99.055,58.015 128.066,70.034 		"/>
		<polygon class="shape-4" points="157.076,58.021 128.066,70.036 140.078,41.024 169.092,29.008 		"/>
		<polygon class="shape-4" points="17.001,0.001 29.017,29.009 41.038,0.001 29.02,-29.012 		"/>
		<polygon class="shape-4" points="41.035,58.022 70.044,70.038 58.033,41.026 29.02,29.009 		"/>
		<polygon class="shape-4" points="0.003,16.984 -29.005,29.001 0.003,41.022 29.015,29.003 		"/>
		<polygon class="shape-4" points="58.024,157.062 29.015,169.077 41.026,140.065 70.04,128.049 		"/>
		<polygon class="shape-4" points="82.058,99.041 70.042,128.051 58.021,99.042 70.039,70.03 		"/>
	</g>
	<g>
		<polygon class="shape-5" points="0.013,181.095 29.019,169.082 41.037,198.096 12.024,210.107 		"/>
		<polygon class="shape-5" points="29.02,227.101 41.035,198.096 70.05,210.114 58.027,239.123 		"/>
		<polygon class="shape-5" points="41.032,280.141 29.018,251.134 58.033,239.116 70.044,268.129 		"/>
		<polygon class="shape-5" points="29.014,309.158 0.009,297.144 12.026,268.128 41.036,280.15 		"/>
		<polygon class="shape-5" points="0.004,297.139 -29.001,309.153 -41.02,280.139 -12.006,268.126 		"/>
		<polygon class="shape-5" points="-28.994,169.077 0.012,181.092 -12.007,210.107 -41.017,198.086 		"/>
		<polygon class="shape-5" points="99.062,280.15 128.067,268.137 140.085,297.15 111.072,309.162 		"/>
		<polygon class="shape-5" points="128.068,326.156 140.083,297.15 169.098,309.169 157.076,338.178 		"/>
		<polygon class="shape-5" points="140.08,379.195 128.066,350.189 157.081,338.17 169.093,367.184 		"/>
		<polygon class="shape-5" points="70.048,350.188 58.033,379.194 29.018,367.176 41.039,338.166 		"/>
		<polygon class="shape-5" points="58.034,297.148 70.048,326.154 41.033,338.173 29.02,309.16 		"/>
		<polygon class="shape-5" points="70.054,268.132 99.06,280.146 87.042,309.162 58.032,297.141 		"/>
		<polygon class="shape-5" points="239.139,280.146 268.145,268.133 280.162,297.146 251.149,309.158 		"/>
		<polygon class="shape-5" points="268.145,326.152 280.16,297.146 309.176,309.165 297.152,338.174 		"/>
		<polygon class="shape-5" points="280.157,379.191 268.144,350.186 297.158,338.166 309.17,367.18 		"/>
		<polygon class="shape-5" points="210.125,350.185 198.11,379.19 169.095,367.172 181.116,338.162 		"/>
		<polygon class="shape-5" points="198.111,297.145 210.125,326.15 181.11,338.169 169.097,309.156 		"/>
		<polygon class="shape-5" points="210.131,268.128 239.137,280.143 227.119,309.158 198.109,297.137 		"/>
		<polygon class="shape-5" points="338.184,181.102 367.189,169.088 379.207,198.102 350.194,210.113 		"/>
		<polygon class="shape-5" points="367.184,309.164 338.18,297.149 350.197,268.135 379.207,280.156 		"/>
		<polygon class="shape-5" points="338.175,297.145 309.169,309.159 297.15,280.145 326.164,268.133 		"/>
		<polygon class="shape-5" points="309.17,251.14 297.155,280.146 268.14,268.127 280.161,239.117 		"/>
		<polygon class="shape-5" points="297.156,198.1 309.17,227.105 280.154,239.124 268.142,210.111 		"/>
		<polygon class="shape-5" points="309.176,169.083 338.182,181.098 326.164,210.113 297.154,198.092 		"/>
		<polygon class="shape-5" points="338.186,41.022 367.191,29.009 379.209,58.022 350.196,70.034 		"/>
		<polygon class="shape-5" points="367.186,169.085 338.182,157.07 350.199,128.056 379.209,140.077 		"/>
		<polygon class="shape-5" points="338.177,157.065 309.171,169.08 297.152,140.065 326.166,128.054 		"/>
		<polygon class="shape-5" points="309.172,111.061 297.157,140.066 268.142,128.048 280.163,99.038 		"/>
		<polygon class="shape-5" points="297.158,58.021 309.172,87.026 280.156,99.045 268.144,70.032 		"/>
		<polygon class="shape-5" points="309.178,29.004 338.184,41.019 326.166,70.034 297.156,58.013 		"/>
		<polygon class="shape-5" points="268.145,-12.017 280.16,-41.022 309.176,-29.004 297.152,0.005 		"/>
		<polygon class="shape-5" points="280.157,41.022 268.144,12.017 297.158,-0.003 309.17,29.011 		"/>
		<polygon class="shape-5" points="268.139,70.04 239.135,58.025 251.152,29.011 280.162,41.032 		"/>
		<polygon class="shape-5" points="239.13,58.021 210.124,70.035 198.105,41.021 227.119,29.009 		"/>
		<polygon class="shape-5" points="210.125,12.016 198.11,41.021 169.095,29.003 181.116,-0.007 		"/>
		<polygon class="shape-5" points="198.111,-41.024 210.125,-12.019 181.109,0 169.097,-29.013 		"/>
		<polygon class="shape-5" points="128.064,-12.017 140.08,-41.022 169.096,-29.004 157.072,0.005 		"/>
		<polygon class="shape-5" points="140.077,41.022 128.063,12.017 157.078,-0.003 169.09,29.011 		"/>
		<polygon class="shape-5" points="128.059,70.04 99.055,58.025 111.072,29.011 140.082,41.032 		"/>
		<polygon class="shape-5" points="99.05,58.021 70.044,70.035 58.025,41.021 87.039,29.009 		"/>
		<polygon class="shape-5" points="70.045,12.016 58.03,41.021 29.015,29.003 41.036,-0.007 		"/>
		<polygon class="shape-5" points="58.031,-41.024 70.045,-12.019 41.029,0 29.017,-29.013 		"/>
		<polygon class="shape-5" points="0.007,41.019 29.013,29.005 41.03,58.019 12.018,70.03 		"/>
		<polygon class="shape-5" points="29.013,87.024 41.028,58.019 70.044,70.037 58.021,99.046 		"/>
		<polygon class="shape-5" points="41.025,140.063 29.012,111.058 58.026,99.038 70.038,128.052 		"/>
		<polygon class="shape-5" points="29.007,169.081 0.003,157.066 12.021,128.052 41.03,140.073 		"/>
		<polygon class="shape-5" points="-0.002,157.062 -29.008,169.076 -41.026,140.062 -12.013,128.05 		"/>
		<polygon class="shape-5" points="-29.001,29 0.005,41.015 -12.013,70.03 -41.022,58.009 		"/>
	</g>
	<g>
		<polygon class="shape-6" points="169.096,140.064 148.582,119.551 148.582,148.561 160.599,148.561 		"/>
		<polygon class="shape-6" points="148.581,148.562 119.57,148.562 140.084,169.075 148.581,160.578 		"/>
		<polygon class="shape-6" points="140.083,169.076 119.569,189.589 148.581,189.589 148.581,177.573 		"/>
		<polygon class="shape-6" points="148.58,189.591 148.58,218.602 169.095,198.087 160.598,189.59 		"/>
		<polygon class="shape-6" points="169.095,198.089 189.608,218.603 189.608,189.59 177.593,189.59 		"/>
		<polygon class="shape-6" points="189.61,189.592 218.621,189.592 198.106,169.077 189.609,177.573 		"/>
		<polygon class="shape-6" points="198.108,169.077 218.622,148.563 189.609,148.562 189.609,160.579 		"/>
		<polygon class="shape-6" points="189.611,148.562 189.61,119.55 169.096,140.065 177.593,148.562 		"/>
	</g>
	<g>
		<polygon class="shape-7" points="128.07,70.027 111.076,111.054 131.588,102.558 148.582,119.551 148.582,95.519 169.097,87.021 		"/>
		<polygon class="shape-7" points="70.048,128.047 87.042,169.075 95.538,148.562 119.57,148.562 102.577,131.568 111.075,111.053 		"/>
		<polygon class="shape-7" points="70.046,210.102 111.074,227.096 102.577,206.583 119.569,189.589 95.538,189.59 87.04,169.075 		"/>
		<polygon class="shape-7" points="128.067,268.125 169.095,251.129 148.581,242.633 148.58,218.602 131.588,235.595 111.073,227.097 		
			"/>
		<polygon class="shape-7" points="210.122,268.125 227.116,227.097 206.603,235.595 189.608,218.603 189.609,242.634 169.095,251.131 
					"/>
		<polygon class="shape-7" points="268.144,210.104 251.149,169.076 242.653,189.59 218.621,189.592 235.614,206.584 227.116,227.098 		
			"/>
		<polygon class="shape-7" points="268.144,128.049 227.116,111.055 235.614,131.568 218.622,148.563 242.653,148.562 251.15,169.077 		
			"/>
		<polygon class="shape-7" points="210.123,70.028 169.095,87.022 189.609,95.519 189.61,119.55 206.604,102.558 227.118,111.055 		"/>
	</g>
	<g>
		<polygon class="shape-8" points="119.572,148.562 148.582,148.561 148.582,119.551 131.588,102.558 111.076,111.054 102.579,131.568 
					"/>
		<polygon class="shape-8" points="119.571,189.588 140.084,169.075 119.57,148.562 95.538,148.562 87.042,169.075 95.539,189.589 		"/>
		<polygon class="shape-8" points="148.581,218.6 148.581,189.589 119.569,189.589 102.577,206.583 111.074,227.096 131.588,235.593 		
			"/>
		<polygon class="shape-8" points="189.608,218.6 169.095,198.087 148.58,218.602 148.581,242.633 169.095,251.129 189.608,242.632 		
			"/>
		<polygon class="shape-8" points="218.619,189.59 189.608,189.59 189.608,218.603 206.603,235.595 227.116,227.097 235.612,206.583 		
			"/>
		<polygon class="shape-8" points="218.62,148.563 198.106,169.077 218.621,189.592 242.653,189.59 251.149,169.076 242.651,148.563 		
			"/>
		<polygon class="shape-8" points="189.609,119.552 189.609,148.562 218.622,148.563 235.614,131.568 227.116,111.055 206.603,102.559 
					"/>
		<polygon class="shape-8" points="148.582,119.552 169.096,140.065 189.61,119.55 189.609,95.519 169.095,87.022 148.583,95.52 		"/>
	</g>
	<polygon class="shape-9" points="189.61,177.572 198.107,169.076 189.61,160.579 189.61,148.562 177.593,148.562 169.096,140.064 
		160.598,148.562 148.582,148.562 148.582,160.579 140.084,169.076 148.581,177.574 148.581,189.59 160.597,189.59 169.095,198.088 
		177.593,189.59 189.61,189.59 	"/>
	<g>
		<polygon class="shape-10" points="309.172,367.178 338.184,355.159 367.191,367.176 367.192,367.178 355.174,338.167 367.189,309.157 
			338.18,321.177 309.172,309.16 309.171,309.158 321.189,338.169 		"/>
		<polygon class="shape-10" points="309.17,29.011 338.182,16.992 367.189,29.009 367.19,29.011 355.172,0 367.188,-29.01 
			338.178,-16.99 309.17,-29.007 309.169,-29.009 321.188,0.002 		"/>
		<polygon class="shape-10" points="-29.008,29.005 0.004,16.986 29.012,29.003 29.013,29.005 16.994,-0.006 29.01,-29.016 0,-16.996 
			-29.008,-29.013 -29.009,-29.015 -16.99,-0.004 		"/>
		<polygon class="shape-10" points="-28.996,367.173 0.016,355.154 29.023,367.171 29.024,367.173 17.006,338.162 29.021,309.152 
			0.012,321.172 -28.996,309.155 -28.997,309.153 -16.979,338.164 		"/>
	</g>
</g>
<g class="guides">
	<g>
		<polygon points="41.043,338.152 140.089,379.18 99.063,280.135 58.038,379.179 157.085,338.153 58.039,297.127 
			99.065,396.174 140.091,297.125 		"/>
		
			<rect x="45.461" y="284.548" transform="matrix(-0.3827 -0.9239 0.9239 -0.3827 -175.4388 559.079)" width="107.207" height="107.208"/>
		
			<rect x="45.462" y="284.547" transform="matrix(-0.9239 -0.3827 0.3827 -0.9239 61.1797 688.4706)" width="107.206" height="107.207"/>
		<polygon points="157.084,338.152 140.089,379.18 99.063,396.175 58.036,379.177 41.042,338.152 58.037,297.127 
			99.062,280.133 140.088,297.125 		"/>
		<polygon points="99.064,420.203 41.043,396.172 17.01,338.15 41.043,280.13 99.064,256.097 157.084,280.13 
			181.118,338.151 157.084,396.171 		"/>
	</g>
	<g>
		<polygon points="181.117,338.15 280.162,379.178 239.136,280.133 198.111,379.177 297.158,338.151 198.112,297.125 
			239.138,396.172 280.164,297.123 		"/>
		
			<rect x="185.535" y="284.547" transform="matrix(-0.3827 -0.9239 0.9239 -0.3827 18.2372 688.4867)" width="107.207" height="107.207"/>
		
			<rect x="185.535" y="284.545" transform="matrix(-0.9239 -0.3827 0.3827 -0.9239 330.6644 742.0721)" width="107.207" height="107.207"/>
		<polygon points="297.158,338.15 280.162,379.178 239.136,396.173 198.109,379.175 181.115,338.15 198.11,297.125 
			239.135,280.131 280.162,297.123 		"/>
		<polygon points="239.137,420.201 181.117,396.17 157.083,338.148 181.117,280.128 239.137,256.095 297.158,280.128 
			321.191,338.149 297.158,396.169 		"/>
	</g>
	<g>
		<polygon points="280.162,239.104 379.207,280.131 338.182,181.086 297.156,280.13 396.203,239.104 297.157,198.078 
			338.184,297.125 379.209,198.076 		"/>
		
			<rect x="284.58" y="185.5" transform="matrix(-0.3827 -0.9239 0.9239 -0.3827 246.6905 643.0437)" width="107.207" height="107.207"/>
		
			<rect x="284.581" y="185.498" transform="matrix(-0.9239 -0.3827 0.3827 -0.9239 559.1195 589.4229)" width="107.206" height="107.207"/>
		<polygon points="396.203,239.104 379.207,280.131 338.182,297.126 297.154,280.128 280.16,239.104 297.155,198.078 
			338.181,181.084 379.207,198.076 		"/>
		<polygon points="338.183,321.154 280.162,297.123 256.129,239.102 280.162,181.081 338.183,157.048 396.203,181.081 
			420.236,239.103 396.203,297.122 		"/>
	</g>
	<g>
		<polygon points="280.161,99.035 379.206,140.062 338.181,41.018 297.155,140.062 396.202,99.036 297.156,58.01 
			338.183,157.057 379.208,58.008 		"/>
		
			<rect x="284.579" y="45.432" transform="matrix(-0.3827 -0.9239 0.9239 -0.3827 376.0965 449.375)" width="107.207" height="107.207"/>
		
			<rect x="284.58" y="45.43" transform="matrix(-0.9239 -0.3827 0.3827 -0.9239 612.7212 319.9486)" width="107.206" height="107.207"/>
		<polygon points="396.202,99.035 379.206,140.062 338.181,157.058 297.153,140.06 280.159,99.035 297.154,58.01 
			338.18,41.016 379.206,58.008 		"/>
		<polygon points="338.182,181.086 280.161,157.055 256.128,99.033 280.161,41.013 338.182,16.98 396.202,41.013 
			420.235,99.034 396.202,157.054 		"/>
	</g>
	<g>
		<polygon points="181.113,-0.009 280.158,41.019 239.133,-58.026 198.107,41.018 297.154,-0.008 198.108,-41.034 
			239.135,58.013 280.16,-41.036 		"/>
		
			<rect x="185.531" y="-53.612" transform="matrix(-0.3827 -0.9239 0.9239 -0.3827 330.6517 220.9213)" width="107.207" height="107.207"/>
		
			<rect x="185.532" y="-53.614" transform="matrix(-0.9239 -0.3827 0.3827 -0.9239 460.0693 91.4953)" width="107.206" height="107.207"/>
		<polygon points="297.154,-0.009 280.158,41.019 239.133,58.014 198.105,41.016 181.111,-0.009 198.106,-41.034 
			239.132,-58.028 280.158,-41.036 		"/>
		<polygon points="239.134,82.042 181.113,58.011 157.08,-0.011 181.113,-58.031 239.134,-82.064 297.154,-58.031 
			321.188,-0.01 297.154,58.01 		"/>
	</g>
	<g>
		<polygon points="41.039,-0.008 140.084,41.02 99.059,-58.025 58.033,41.019 157.08,-0.007 58.034,-41.033 
			99.061,58.014 140.086,-41.035 		"/>
		
			<rect x="45.457" y="-53.611" transform="matrix(-0.3827 -0.9239 0.9239 -0.3827 136.9749 91.5099)" width="107.207" height="107.207"/>
		
			<rect x="45.458" y="-53.613" transform="matrix(-0.9239 -0.3827 0.3827 -0.9239 190.5838 37.8913)" width="107.206" height="107.207"/>
		<polygon points="157.08,-0.008 140.084,41.02 99.059,58.015 58.031,41.017 41.037,-0.008 58.032,-41.033 
			99.058,-58.027 140.084,-41.035 		"/>
		<polygon points="99.06,82.043 41.039,58.012 17.006,-0.01 41.039,-58.03 99.06,-82.063 157.08,-58.03 181.113,-0.009 
			157.08,58.011 		"/>
	</g>
	<g>
		<polygon points="-58.01,99.039 41.035,140.066 0.01,41.021 -41.016,140.065 58.031,99.04 -41.015,58.014 
			0.012,157.061 41.037,58.012 		"/>
		
			<rect x="-53.592" y="45.436" transform="matrix(-0.3827 -0.9239 0.9239 -0.3827 -91.4847 136.9488)" width="107.207" height="107.207"/>
		
			<rect x="-53.591" y="45.434" transform="matrix(-0.9239 -0.3827 0.3827 -0.9239 -37.8786 190.5394)" width="107.206" height="107.207"/>
		<polygon points="58.031,99.039 41.035,140.066 0.01,157.062 -41.018,140.063 -58.012,99.039 -41.017,58.014 
			0.009,41.02 41.035,58.012 		"/>
		<polygon points="0.011,181.09 -58.01,157.059 -82.043,99.037 -58.01,41.017 0.011,16.984 58.031,41.017 
			82.064,99.038 58.031,157.058 		"/>
	</g>
	<g>
		<polygon points="-58.011,239.117 41.034,280.145 0.009,181.099 -41.017,280.143 58.03,239.118 -41.016,198.091 
			0.011,297.139 41.036,198.089 		"/>
		
			<rect x="-53.593" y="185.513" transform="matrix(-0.3827 -0.9239 0.9239 -0.3827 -220.9021 330.6289)" width="107.207" height="107.207"/>
		
			<rect x="-53.592" y="185.511" transform="matrix(-0.9239 -0.3827 0.3827 -0.9239 -91.4877 460.0313)" width="107.206" height="107.208"/>
		<polygon points="58.03,239.117 41.034,280.145 0.009,297.139 -41.019,280.141 -58.013,239.117 -41.018,198.091 
			0.008,181.097 41.034,198.089 		"/>
		<polygon points="0.01,321.168 -58.011,297.137 -82.044,239.115 -58.011,181.094 0.01,157.062 58.03,181.094 
			82.063,239.116 58.03,297.135 		"/>
	</g>
	<g>
		<line x1="140.084" y1="-41.035" x2="140.084" y2="379.18"/>
		<line x1="198.106" y1="-41.034" x2="198.106" y2="379.175"/>
		<line x1="0.013" y1="41.018" x2="297.15" y2="338.154"/>
		<line x1="41.041" y1="-0.01" x2="338.174" y2="297.123"/>
		<line x1="-41.012" y1="198.083" x2="379.203" y2="198.083"/>
		<line x1="-41.012" y1="140.062" x2="379.197" y2="140.061"/>
		<line x1="41.041" y1="338.154" x2="338.178" y2="41.017"/>
		<line x1="0.013" y1="297.127" x2="297.146" y2="-0.007"/>
	</g>
	<g>
		
			<rect x="93.289" y="93.267" transform="matrix(0.3827 -0.9239 0.9239 0.3827 -51.8193 260.5983)" width="151.616" height="151.617"/>
		
			<rect x="93.29" y="93.268" transform="matrix(-0.3827 -0.9239 0.9239 -0.3827 77.6029 390.0037)" width="151.617" height="151.616"/>
	</g>
	<g>
		<line x1="102.577" y1="206.583" x2="206.603" y2="102.557"/>
		<line x1="131.588" y1="235.595" x2="235.614" y2="131.568"/>
		<line x1="148.582" y1="242.633" x2="148.582" y2="95.518"/>
		<line x1="189.611" y1="242.633" x2="189.609" y2="95.518"/>
		<line x1="206.604" y1="235.594" x2="102.578" y2="131.568"/>
		<line x1="235.616" y1="206.582" x2="131.588" y2="102.557"/>
		<line x1="242.654" y1="189.589" x2="95.539" y2="189.589"/>
		<line x1="242.654" y1="148.56" x2="95.539" y2="148.562"/>
	</g>
	<g>
		<circle cx="169.097" cy="169.074" r="29.014"/>
		
			<rect x="148.581" y="148.562" transform="matrix(-0.7071 0.7071 -0.7071 -0.7071 408.2188 169.0601)" width="41.029" height="41.028"/>
		<rect x="148.582" y="148.562" width="41.029" height="41.028"/>
	</g>
</g>
</svg>
