<svg version="1.1" xmlns="http://www.w3.org/2000/svg" width="305.412" height="528.989" viewBox="0 0 100% 100%">
  <style>
    :root {
      --black: #443430;
      --red: #BF402B;
      --gold: #CEA600;
      --turquois: #4D9BA3;
      --emerald: #216554;
      --blue: #262F66;
      --white: #FFFAF2;
    }
    .shape-3{fill:var(--red)}
    .shape-2{fill:var(--turquois)}
    .shape-4{fill:var(--black)}
    .shape-1{fill:var(--white)}
    <!-- .line{stroke:#fff;stroke-width:15px} -->
    .guides{ stroke: #4FFF4F; display: none; fill: none}
  </style>
      <g class="line" id="pattern">
				<rect x="-20.435" y="-29.111" class="shape-1" width="346.315" height="569.939"/>
				<polygon class="shape-2" points="152.705,32.301 188.121,67.718 201.103,116.107 152.705,129.08 104.339,116.091 117.277,67.718 "/>
				<polygon class="shape-2" points="-0.016,296.795 35.4,332.212 48.381,380.601 -0.016,393.574 -48.382,380.585 -35.444,332.212 "/>
				<polygon class="shape-2" points="305.396,296.795 340.812,332.212 353.793,380.601 305.396,393.574 257.03,380.585 269.968,332.212 "/>
				<polygon class="shape-2" points="152.73,496.687 117.314,461.269 104.333,412.879 152.73,399.907 201.097,412.896 188.159,461.269 "/>
				<polygon class="shape-2" points="305.451,232.192 270.035,196.775 257.054,148.386 305.451,135.413 353.817,148.402 340.88,196.775 "/>
				<polygon class="shape-2" points="0.04,232.192 -35.376,196.775 -48.357,148.386 0.04,135.413 48.405,148.402 35.468,196.775 "/>
				<polygon class="shape-3" points="92.506,160.196 152.719,176.33 212.923,160.196 229.1,220.454 273.139,264.494 229.1,308.536 
					212.923,368.792 152.719,352.659 92.49,368.792 76.365,308.622 32.273,264.494 76.365,220.454 "/>
				<polygon class="shape-3" points="-60.208,-104.299 0.005,-88.165 60.209,-104.299 76.386,-44.041 120.425,-0.001 76.386,44.041 
					60.209,104.297 0.005,88.164 -60.224,104.297 -76.349,44.127 -120.441,-0.001 -76.349,-44.041 "/>
				<polygon class="shape-3" points="245.212,-104.299 305.425,-88.165 365.63,-104.299 381.806,-44.041 425.845,-0.001 381.806,44.041 
					365.63,104.297 305.425,88.164 245.196,104.297 229.071,44.127 184.979,-0.001 229.071,-44.041 "/>
				<polygon class="shape-3" points="-60.198,424.697 0.015,440.831 60.219,424.697 76.396,484.955 120.435,528.995 76.396,573.037 
					60.219,633.293 0.015,617.16 -60.214,633.293 -76.339,573.123 -120.431,528.995 -76.339,484.955 "/>
				<polygon class="shape-3" points="245.203,424.692 305.417,440.826 365.62,424.692 381.797,484.95 425.836,528.99 381.797,573.032 
					365.62,633.288 305.417,617.155 245.187,633.288 229.062,573.118 184.97,528.99 229.062,484.95 "/>
				<polygon class="shape-4" points="60.209,104.297 48.405,148.402 92.489,160.197 104.339,116.09 "/>
				<polygon class="shape-4" points="212.923,368.792 201.119,412.897 245.203,424.692 257.053,380.585 "/>
				<polygon class="shape-4" points="273.139,264.494 305.434,296.768 337.689,264.489 305.417,232.173 "/>
				<polygon class="shape-4" points="120.41,0.027 152.705,32.301 184.961,0.022 152.688,-32.294 "/>
				<polygon class="shape-4" points="120.452,529.008 152.747,561.282 185.003,529.003 152.73,496.687 "/>
				<polygon class="shape-4" points="-32.278,264.5 0.017,296.773 32.273,264.495 0,232.179 "/>
				<polygon class="shape-4" points="60.219,424.697 104.318,412.866 92.49,368.792 48.367,380.583 "/>
				<polygon class="shape-4" points="212.923,160.196 257.021,148.365 245.193,104.291 201.071,116.082 "/>
			</g>
			<g class="guides">
				<circle class="st0" cx="152.706" cy="264.495" r="88.165"/>
				<polygon class="st0" points="245.196,104.297 184.979,0 245.195,-104.298 365.629,-104.299 425.845,0 365.629,104.297 	"/>
				<line class="st0" x1="229.071" y1="44.127" x2="269.983" y2="196.799"/>
				<line class="st0" x1="152.706" y1="129.08" x2="305.412" y2="88.165"/>
				<line class="st0" x1="305.412" y1="88.165" x2="365.629" y2="104.297"/>
				<line class="st0" x1="229.071" y1="-44.04" x2="117.277" y2="67.718"/>
				<line class="st0" x1="152.688" y1="-32.295" x2="229.071" y2="44.127"/>
				<circle class="st0" cx="305.412" cy="0" r="88.165"/>
				<polygon class="st0" points="-60.216,104.298 -120.433,0 -60.217,-104.297 60.217,-104.298 120.432,0 60.217,104.298 	"/>
				<line class="st0" x1="-60.216" y1="104.298" x2="0" y2="88.166"/>
				<line class="st0" x1="0" y1="88.166" x2="152.706" y2="129.081"/>
				<line class="st0" x1="35.444" y1="196.742" x2="76.394" y2="43.923"/>
				<line class="st0" x1="76.394" y1="43.923" x2="152.688" y2="-32.295"/>
				<line class="st0" x1="188.149" y1="67.718" x2="76.394" y2="-44.04"/>
				<circle class="st0" cx="0" cy="0.001" r="88.165"/>
				<line class="st0" x1="305.412" y1="393.574" x2="353.793" y2="380.601"/>
				<line class="st0" x1="353.817" y1="148.402" x2="305.411" y2="135.413"/>
				<line class="st0" x1="337.689" y1="264.489" x2="269.983" y2="332.213"/>
				<line class="st0" x1="269.983" y1="196.8" x2="337.689" y2="264.489"/>
				<polygon class="st0" points="-60.216,633.286 -120.433,528.988 -60.217,424.691 60.217,424.69 120.432,528.988 60.217,633.286 	"/>
				<line class="st0" x1="76.394" y1="484.948" x2="35.443" y2="332.212"/>
				<line class="st0" x1="152.719" y1="399.784" x2="0" y2="440.824"/>
				<line class="st0" x1="0" y1="440.824" x2="-60.217" y2="424.691"/>
				<line class="st0" x1="76.394" y1="572.911" x2="188.275" y2="461.36"/>
				<line class="st0" x1="152.747" y1="561.282" x2="76.393" y2="484.948"/>
				<circle class="st0" cx="0" cy="528.989" r="88.165"/>
				<polygon class="st0" points="245.196,633.286 184.979,528.988 245.195,424.691 365.629,424.69 425.845,528.988 365.629,633.286 	
					"/>
				<line class="st0" x1="365.629" y1="424.69" x2="305.412" y2="440.824"/>
				<line class="st0" x1="305.412" y1="440.824" x2="152.719" y2="399.783"/>
				<line class="st0" x1="269.983" y1="332.212" x2="229.071" y2="484.948"/>
				<line class="st0" x1="229.071" y1="484.948" x2="152.747" y2="561.282"/>
				<line class="st0" x1="117.277" y1="461.294" x2="229.071" y2="573.116"/>
				<circle class="st0" cx="305.412" cy="528.989" r="88.165"/>
				<line class="st0" x1="0" y1="135.414" x2="-48.357" y2="148.386"/>
				<line class="st0" x1="-48.381" y1="380.584" x2="0" y2="393.574"/>
				<line class="st0" x1="-32.278" y1="264.5" x2="35.444" y2="196.742"/>
				<line class="st0" x1="35.443" y1="332.212" x2="-32.278" y2="264.5"/>
				<polygon class="st0" points="0,528.989 -152.706,264.495 0,0 305.412,0 458.118,264.495 305.412,528.989 	"/>
				<line class="st0" x1="0" y1="0" x2="458.118" y2="264.496"/>
				<line class="st0" x1="381.806" y1="132.318" x2="-76.312" y2="396.718"/>
				<line class="st0" x1="-76.36" y1="132.244" x2="381.806" y2="396.672"/>
				<polyline class="st0" points="-152.706,264.495 305.412,0 305.412,528.989 	"/>
				<line class="st0" x1="152.719" y1="-32.295" x2="152.719" y2="528.989"/>
				<line class="st0" x1="-152.706" y1="264.495" x2="305.412" y2="528.989"/>
				<line class="st0" x1="458.118" y1="264.495" x2="0" y2="528.989"/>
				<line class="st0" x1="0" y1="0" x2="0" y2="528.989"/>
				<circle class="st0" cx="152.706" cy="264.495" r="120.408"/>
				<circle class="st0" cx="305.411" cy="0" r="120.408"/>
				<circle class="st0" cx="0.001" cy="528.99" r="120.408"/>
				<circle class="st0" cx="305.412" cy="528.99" r="120.408"/>
				<circle class="st0" cx="0" cy="0.001" r="120.408"/>
				<line class="st0" x1="458.118" y1="264.494" x2="-152.706" y2="264.494"/>
				<line class="st0" x1="-0.001" y1="0" x2="305.412" y2="528.989"/>
				<line class="st0" x1="305.411" y1="0" x2="0" y2="528.989"/>
				<polygon class="st0" points="92.49,368.792 32.273,264.494 92.49,160.197 212.923,160.196 273.139,264.494 212.923,368.792 	"/>
				<line class="st0" x1="229.1" y1="220.455" x2="188.149" y2="67.719"/>
				<line class="st0" x1="305.411" y1="135.414" x2="152.706" y2="176.331"/>
				<line class="st0" x1="76.365" y1="308.622" x2="117.277" y2="461.294"/>
				<line class="st0" x1="0" y1="393.574" x2="152.706" y2="352.659"/>
				<line class="st0" x1="152.706" y1="176.33" x2="0" y2="135.413"/>
				<line class="st0" x1="117.277" y1="67.718" x2="76.365" y2="220.455"/>
				<line class="st0" x1="152.706" y1="352.66" x2="305.412" y2="393.575"/>
				<line class="st0" x1="188.275" y1="461.36" x2="229.1" y2="308.417"/>
				<line class="st0" x1="76.365" y1="220.455" x2="-35.444" y2="332.212"/>
				<line class="st0" x1="-35.429" y1="196.801" x2="76.365" y2="308.622"/>
				<line class="st0" x1="229.1" y1="308.417" x2="340.856" y2="196.742"/>
				<line class="st0" x1="340.858" y1="332.216" x2="229.1" y2="220.455"/>
			</g>
</svg>
