<svg xmlns="http://www.w3.org/2000/svg" width="305.4" height="529" viewBox="0 0 305.4 529">
  <style>
    :root { --black: #443430; --red: #BF402B; --gold: #CEA600; --turquois: #4D9BA3; --emerald: #216554; --blue: #262F66; --white: #FFFAF2; } .shape-3{fill:var(--red)} .shape-2{fill:var(--turquois)} .shape-4{fill:var(--black)} .shape-1{fill:var(--white)}
    .guides{ stroke: #4FFF4F; display: none; fill: none}
  </style>
  <g class="line" id="pattern">
    <path class="shape-1" d="M229.1 308.5l44-44 32.3 32.3-35.4 35.4-13 48.4-44-11.8 16.1-60.3zm-28-192.4l44-11.8 12 44-44.2 11.9 16.2 60.3 44 44 32.3-32.3-35.4-35.4-13-48.4 48.4-13L326 141V93.6l-20.5-5.4-60.2 16.1-16.1-60.2L185 0l-32.3 32.3 35.4 35.4 13 48.4zM0 393.6l-20.4-5.5v47.3L0 440.8l60.2-16.1-11.8-44.1-48.4 13zm325.9-5.5v47.2l-20.5 5.5-60.2-16.1-16.1 60.2-44.1 44-32.3-32.2-32.2 32.3-44.1-44-16.2-60.3 44.1-11.8-11.8-44.1-44.1 11.8-13-48.4L0 296.8l32.3-32.3L0 232.2l35.5-35.4 12.9-48.4-48.4-13-20.4 5.5V93.6L0 88.2l60.2 16.1-11.8 44.1 44 11.8 12-44.1-44.2-11.8L76.4 44l44-44 32.3 32.3-35.4 35.4-13 48.4 48.4 13 48.4-13 11.8 44.1-60.2 16.1-60.2-16.1-16.1 60.3-44.1 44 44 44.1 16.2 60.2 60.2-16.1 60.2 16-11.8 44.2 44.1 11.8 11.9-44.1 48.3 13 20.5-5.5zM201 412.9l-48.4-13-48.4 13 13 48.4 35.4 35.4 35.5-35.4 12.9-48.4z"/>
    <path class="shape-2" d="M152.7 32.3l35.4 35.4 13 48.4-48.4 13-48.4-13 13-48.4zM0 296.8l35.4 35.4 13 48.4-48.4 13-48.4-13 13-48.4zM305.4 296.8l35.4 35.4 13 48.4-48.4 13-48.4-13 13-48.4zM152.7 496.7l-35.4-35.4-13-48.4 48.4-13 48.4 13-12.9 48.4zM305.5 232.2L270 196.8l-12.9-48.4 48.4-13 48.3 13-12.9 48.4zM0 232.2l-35.4-35.4-13-48.4 48.4-13 48.4 13-12.9 48.4z"/>
    <path class="shape-3" d="M92.5 160.2l60.2 16.1 60.2-16.1 16.2 60.3 44 44-44 44-16.2 60.3-60.2-16.1-60.2 16.1-16.1-60.2-44.1-44.1 44.1-44zM-60.2-104.3L0-88.2l60.2-16.1L76.4-44l44 44-44 44-16.2 60.3L0 88.2l-60.2 16.1-16.1-60.2L-120.4 0l44.1-44zM245.2-104.3l60.2 16.1 60.2-16.1L381.8-44l44 44-44 44-16.2 60.3-60.2-16.1-60.2 16.1-16.1-60.2L185 0l44.1-44zM-60.2 424.7L0 440.8l60.2-16.1L76.4 485l44 44-44 44-16.2 60.3L0 617.2l-60.2 16.1-16.1-60.2-44.1-44.1 44.1-44zM245.2 424.7l60.2 16.1 60.2-16.1 16.2 60.2 44 44.1-44 44-16.2 60.3-60.2-16.1-60.2 16.1-16.1-60.2L185 529l44.1-44.1z"/>
    <path class="shape-4" d="M60.2 104.3l-11.8 44.1 44.1 11.8 11.8-44.1zM212.9 368.8l-11.8 44.1 44.1 11.8 11.9-44.1zM273.1 264.5l32.3 32.3 32.3-32.3-32.3-32.3zM120.4 0l32.3 32.3L185 0l-32.3-32.3zM120.5 529l32.2 32.3L185 529l-32.3-32.3zM-32.3 264.5L0 296.8l32.3-32.3L0 232.2zM60.2 424.7l44.1-11.8-11.8-44.1-44.1 11.8zM212.9 160.2l44.1-11.8-11.8-44.1-44.1 11.8z"/>
  </g>
  <g class="guides">
    <circle cx="152.7" cy="264.5" r="88.2"/>
    <path d="M245.2 104.3L185 0l60.2-104.3h120.4L425.8 0l-60.2 104.3zM229.1 44.1L270 196.8M152.7 129.1l152.7-40.9M305.4 88.2l60.2 16.1M229.1-44L117.3 67.7M152.7-32.3l76.4 76.4"/>
    <circle cx="305.4" r="88.2"/>
    <path d="M-60.2 104.3L-120.4 0l60.2-104.3H60.2L120.4 0 60.2 104.3zM-60.2 104.3L0 88.2M0 88.2l152.7 40.9M35.4 196.7l41-152.8M76.4 43.9l76.3-76.2M188.1 67.7L76.4-44"/>
    <circle r="88.2"/>
    <path d="M305.4 393.6l48.4-13M353.8 148.4l-48.4-13M337.7 264.5L270 332.2M270 196.8l67.7 67.7M-60.2 633.3L-120.4 529l60.2-104.3H60.2L120.4 529 60.2 633.3zM76.4 484.9l-41-152.7M152.7 399.8L0 440.8M0 440.8l-60.2-16.1M76.4 572.9l111.9-111.5M152.7 561.3l-76.3-76.4"/>
    <circle cy="529" r="88.2"/>
    <path d="M245.2 633.3L185 529l60.2-104.3h120.4L425.8 529l-60.2 104.3zM365.6 424.7l-60.2 16.1M305.4 440.8l-152.7-41M270 332.2l-40.9 152.7M229.1 484.9l-76.4 76.4M117.3 461.3l111.8 111.8"/>
    <circle cx="305.4" cy="529" r="88.2"/>
    <path d="M0 135.4l-48.4 13M-48.4 380.6l48.4 13M-32.3 264.5l67.7-67.8M35.4 332.2l-67.7-67.7M0 529l-152.7-264.5L0 0h305.4l152.7 264.5L305.4 529zM0 0l458.1 264.5M381.8 132.3L-76.3 396.7M-76.4 132.2l458.2 264.5"/>
    <path d="M-152.7 264.5L305.4 0v529M152.7-32.3V529M-152.7 264.5L305.4 529M458.1 264.5L0 529M0 0v529"/>
    <circle cx="152.7" cy="264.5" r="120.4"/>
    <circle cx="305.4" r="120.4"/>
    <circle cy="529" r="120.4"/>
    <circle cx="305.4" cy="529" r="120.4"/>
    <circle r="120.4"/>
    <path d="M458.1 264.5h-610.8M0 0l305.4 529M305.4 0L0 529M92.5 368.8L32.3 264.5l60.2-104.3h120.4l60.2 104.3-60.2 104.3zM229.1 220.5l-41-152.8M305.4 135.4l-152.7 40.9M76.4 308.6l40.9 152.7M0 393.6l152.7-40.9M152.7 176.3L0 135.4M117.3 67.7L76.4 220.5M152.7 352.7l152.7 40.9M188.3 461.4l40.8-153M76.4 220.5L-35.4 332.2M-35.4 196.8L76.4 308.6M229.1 308.4l111.8-111.7M340.9 332.2L229.1 220.5"/>
  </g>
</svg>
