<svg version="1.1" xmlns="http://www.w3.org/2000/svg" width="305.412" height="528.989" viewBox="0 0 100% 100%">
  <style>
    :root {
      --black: #443430;
      --red: #BF402B;
      --gold: #CEA600;
      --turquois: #4D9BA3;
      --emerald: #216554;
      --blue: #262F66;
      --white: #FFFAF2;
    }
    .shape-1{fill:var(--red)}
    .shape-3{fill:var(--black)}
    .shape-2{fill:var(--turquois)}
    .shape-4{fill:var(--white)}
    <!-- .line{stroke:#fff;stroke-width:15px} -->
    .guides{ stroke: #4FFF4F; display: none; fill: none}
  </style>
      <g class="line" id="pattern">
				<rect x="-20.435" y="-29.111" class="shape-1" width="346.315" height="569.939"/>
				<polygon class="shape-2" points="32.273,264.494 76.365,220.454 114.542,77.928 152.719,88.157 180.653,60.222 120.425,-0.001 
					76.351,44.082 38.179,186.56 0,176.33 -27.935,204.265 "/>
				<polygon class="shape-2" points="-120.447,528.978 -76.355,484.938 -38.178,342.411 0,352.641 27.934,324.706 -32.295,264.482 
					-76.369,308.565 -114.541,451.043 -152.72,440.813 -180.654,468.748 "/>
				<polygon class="shape-2" points="184.962,528.99 229.054,484.95 267.231,342.424 305.409,352.653 333.343,324.718 273.114,264.495 
					229.04,308.578 190.868,451.057 152.689,440.826 124.755,468.761 "/>
				<polygon class="shape-2" points="32.275,793.491 76.367,749.451 114.544,606.925 152.722,617.154 180.655,589.22 120.427,528.996 
					76.353,573.079 38.181,715.558 0.002,705.327 -27.932,733.262 "/>
				<polygon class="shape-2" points="337.67,264.509 381.762,220.469 419.939,77.942 458.117,88.172 486.051,60.237 425.822,0.014 
					381.748,44.097 343.576,186.575 305.397,176.345 277.463,204.279 "/>
				<polygon class="shape-2" points="185.014,0.003 229.139,-43.98 267.316,-186.507 305.494,-176.277 333.427,-204.212 273.199,-264.436 
					229.125,-220.353 190.953,-77.874 152.774,-88.104 124.84,-60.17 "/>
				<polygon class="shape-3" points="365.638,104.294 305.452,88.129 162.931,126.329 152.702,88.152 114.542,77.928 92.501,160.199 
					152.715,176.327 295.19,138.146 305.421,176.325 343.581,186.55 "/>
				<polygon class="shape-3" points="212.925,368.801 152.739,352.636 10.218,390.836 -0.011,352.659 -38.171,342.435 -60.211,424.706 
					0.002,440.834 142.478,402.652 152.708,440.832 190.868,451.057 "/>
				<polygon class="shape-3" points="518.331,368.786 458.146,352.621 315.624,390.821 305.396,352.645 267.235,342.42 245.195,424.691 
					305.409,440.819 447.884,402.638 458.114,440.817 496.274,451.042 "/>
				<polygon class="shape-3" points="60.209,104.297 0.023,88.132 -142.498,126.333 -152.727,88.156 -190.887,77.931 -212.927,160.203 
					-152.713,176.331 -10.238,138.149 -0.008,176.329 38.152,186.553 "/>
				<polygon class="shape-4" points="60.217,-104.31 76.311,-44.104 180.653,60.222 152.706,88.169 162.931,126.329 245.2,104.28 
					229.061,44.07 124.757,-60.227 152.706,-88.176 142.481,-126.335 "/>
				<polygon class="shape-4" points="212.923,160.196 229.017,220.401 333.359,324.728 305.412,352.675 315.637,390.835 397.906,368.786 
					381.767,308.576 277.463,204.279 305.412,176.33 295.188,138.171 "/>
				<polygon class="shape-4" points="-92.503,160.174 -76.409,220.379 27.934,324.706 -0.014,352.653 10.211,390.813 92.48,368.764 
					76.341,308.554 -27.963,204.257 -0.014,176.308 -10.238,138.149 "/>
				<polygon class="shape-4" points="60.213,424.678 76.307,484.883 180.649,589.209 152.702,617.156 162.927,655.316 245.196,633.268 
					229.057,573.058 124.753,468.761 152.702,440.812 142.478,402.652 "/>
			</g>
			<g class="guides">
				<circle class="st0" cx="152.706" cy="264.495" r="88.165"/>
				<polygon class="st0" points="245.196,104.297 184.979,0 245.195,-104.298 365.629,-104.299 425.845,0 365.629,104.297 	"/>
				<line class="st0" x1="229.071" y1="44.127" x2="269.983" y2="196.799"/>
				<line class="st0" x1="152.706" y1="129.08" x2="305.412" y2="88.165"/>
				<line class="st0" x1="305.412" y1="88.165" x2="365.629" y2="104.297"/>
				<line class="st0" x1="229.071" y1="-44.04" x2="117.277" y2="67.718"/>
				<line class="st0" x1="152.688" y1="-32.295" x2="229.071" y2="44.127"/>
				<circle class="st0" cx="305.412" cy="0" r="88.165"/>
				<polygon class="st0" points="-60.216,104.298 -120.433,0 -60.217,-104.297 60.217,-104.298 120.432,0 60.217,104.298 	"/>
				<line class="st0" x1="-60.216" y1="104.298" x2="0" y2="88.166"/>
				<line class="st0" x1="0" y1="88.166" x2="152.706" y2="129.081"/>
				<line class="st0" x1="35.444" y1="196.742" x2="76.394" y2="43.923"/>
				<line class="st0" x1="76.326" y1="44.039" x2="152.688" y2="-32.295"/>
				<line class="st0" x1="188.149" y1="67.718" x2="76.394" y2="-44.04"/>
				<circle class="st0" cx="0" cy="0.001" r="88.165"/>
				<line class="st0" x1="305.412" y1="393.574" x2="353.793" y2="380.601"/>
				<line class="st0" x1="353.817" y1="148.402" x2="305.411" y2="135.413"/>
				<line class="st0" x1="337.689" y1="264.489" x2="269.983" y2="332.213"/>
				<line class="st0" x1="269.983" y1="196.8" x2="337.689" y2="264.489"/>
				<polygon class="st0" points="-60.216,633.286 -120.433,528.988 -60.217,424.691 60.217,424.69 120.432,528.988 60.217,633.286 	"/>
				<line class="st0" x1="76.394" y1="484.948" x2="35.443" y2="332.212"/>
				<line class="st0" x1="152.719" y1="399.784" x2="0" y2="440.824"/>
				<line class="st0" x1="0" y1="440.824" x2="-60.217" y2="424.691"/>
				<line class="st0" x1="76.394" y1="572.911" x2="188.275" y2="461.36"/>
				<line class="st0" x1="152.747" y1="561.282" x2="76.393" y2="484.948"/>
				<circle class="st0" cx="0" cy="528.989" r="88.165"/>
				<polygon class="st0" points="245.196,633.286 184.979,528.988 245.195,424.691 365.629,424.69 425.845,528.988 365.629,633.286 	
					"/>
				<line class="st0" x1="365.629" y1="424.69" x2="305.412" y2="440.824"/>
				<line class="st0" x1="305.412" y1="440.824" x2="152.719" y2="399.783"/>
				<line class="st0" x1="269.983" y1="332.212" x2="229.071" y2="484.948"/>
				<line class="st0" x1="229.071" y1="484.948" x2="152.747" y2="561.282"/>
				<line class="st0" x1="117.277" y1="461.294" x2="229.071" y2="573.116"/>
				<circle class="st0" cx="305.412" cy="528.989" r="88.165"/>
				<line class="st0" x1="0" y1="135.414" x2="-48.357" y2="148.386"/>
				<line class="st0" x1="-48.381" y1="380.584" x2="0" y2="393.574"/>
				<line class="st0" x1="-32.278" y1="264.5" x2="35.444" y2="196.742"/>
				<line class="st0" x1="35.443" y1="332.212" x2="-32.278" y2="264.5"/>
				<polygon class="st0" points="0,528.989 -152.706,264.495 0,0 305.412,0 458.118,264.495 305.412,528.989 	"/>
				<line class="st0" x1="0" y1="0" x2="458.118" y2="264.496"/>
				<line class="st0" x1="381.806" y1="132.318" x2="-76.312" y2="396.718"/>
				<line class="st0" x1="-76.36" y1="132.244" x2="381.806" y2="396.672"/>
				<polyline class="st0" points="-152.706,264.495 305.412,0 305.412,528.989 	"/>
				<line class="st0" x1="152.719" y1="-32.295" x2="152.719" y2="528.989"/>
				<line class="st0" x1="-152.706" y1="264.495" x2="305.412" y2="528.989"/>
				<line class="st0" x1="458.118" y1="264.495" x2="0" y2="528.989"/>
				<line class="st0" x1="0" y1="0" x2="0" y2="528.989"/>
				<circle class="st0" cx="152.706" cy="264.495" r="120.408"/>
				<circle class="st0" cx="305.411" cy="0" r="120.408"/>
				<circle class="st0" cx="0.001" cy="528.99" r="120.408"/>
				<circle class="st0" cx="305.412" cy="528.99" r="120.408"/>
				<circle class="st0" cx="0" cy="0.001" r="120.408"/>
				<line class="st0" x1="458.118" y1="264.494" x2="-152.706" y2="264.494"/>
				<line class="st0" x1="-0.001" y1="0" x2="305.412" y2="528.989"/>
				<line class="st0" x1="305.411" y1="0" x2="0" y2="528.989"/>
				<polygon class="st0" points="92.49,368.792 32.273,264.494 92.49,160.197 212.923,160.196 273.139,264.494 212.923,368.792 	"/>
				<line class="st0" x1="229.1" y1="220.455" x2="188.149" y2="67.719"/>
				<line class="st0" x1="305.411" y1="135.414" x2="152.706" y2="176.331"/>
				<line class="st0" x1="76.365" y1="308.622" x2="117.277" y2="461.294"/>
				<line class="st0" x1="0" y1="393.574" x2="152.706" y2="352.659"/>
				<line class="st0" x1="152.706" y1="176.33" x2="0" y2="135.413"/>
				<line class="st0" x1="117.277" y1="67.718" x2="76.365" y2="220.455"/>
				<line class="st0" x1="152.706" y1="352.66" x2="305.412" y2="393.575"/>
				<line class="st0" x1="188.275" y1="461.36" x2="229.1" y2="308.417"/>
				<line class="st0" x1="76.365" y1="220.455" x2="-35.444" y2="332.212"/>
				<line class="st0" x1="-35.429" y1="196.801" x2="76.365" y2="308.622"/>
				<line class="st0" x1="229.1" y1="308.417" x2="340.856" y2="196.742"/>
				<line class="st0" x1="340.858" y1="332.216" x2="229.1" y2="220.455"/>
				<line class="st3" x1="305.412" y1="176.33" x2="343.591" y2="186.56"/>
				<line class="st3" x1="305.412" y1="176.33" x2="295.183" y2="138.153"/>
				<line class="st3" x1="152.719" y1="88.157" x2="180.653" y2="60.222"/>
				<line class="st3" x1="152.719" y1="88.157" x2="114.542" y2="77.928"/>
				<line class="st3" x1="152.719" y1="88.157" x2="162.949" y2="126.335"/>
				<line class="st3" x1="-0.014" y1="352.653" x2="27.92" y2="324.718"/>
				<line class="st3" x1="-0.014" y1="352.653" x2="-38.191" y2="342.423"/>
				<line class="st3" x1="-0.014" y1="352.653" x2="10.216" y2="390.831"/>
				<line class="st3" x1="305.412" y1="352.675" x2="333.347" y2="324.74"/>
				<line class="st3" x1="305.412" y1="352.675" x2="267.235" y2="342.445"/>
				<line class="st3" x1="305.412" y1="352.675" x2="315.642" y2="390.853"/>
				<line class="st3" x1="0" y1="176.33" x2="-27.935" y2="204.265"/>
				<line class="st3" x1="0" y1="176.33" x2="-10.229" y2="138.153"/>
				<line class="st3" x1="0" y1="176.33" x2="38.179" y2="186.56"/>
				<line class="st3" x1="152.689" y1="440.826" x2="124.755" y2="468.761"/>
				<line class="st3" x1="152.689" y1="440.826" x2="142.46" y2="402.649"/>
				<line class="st3" x1="152.689" y1="440.826" x2="190.868" y2="451.057"/>
				<line class="st3" x1="305.412" y1="176.33" x2="277.478" y2="204.265"/>
			</g>
</svg>
