<svg xmlns="http://www.w3.org/2000/svg" width="305.4" height="529" viewBox="0 0 305.4 529">
  <style>
    :root { --black: #443430; --red: #BF402B; --gold: #CEA600; --turquois: #4D9BA3; --emerald: #216554; --blue: #262F66; --white: #FFFAF2; } .shape-1{fill:var(--red)} .shape-3{fill:var(--black)} .shape-2{fill:var(--turquois)} .shape-4{fill:var(--white)} .guides{ stroke: #4FFF4F; display: none; fill: none}
  </style>
  <g class="line" id="pattern">
    <path class="shape-1" d="M120.4 529l-11.8 11.8h-129V435.4L0 440.8l60.2-16.1 16.1 60.2 44.1 44.1zm-44-485l44-44-29-29.1H-20.5V93.6L0 88.1l60.2 16.2 16.2-60.2zM229 485L185 529l11.8 11.8h129V435.3l-20.4 5.5-60.2-16.1-16.1 60.3zm0-441l16.1 60.3L305.5 88l20.4 5.5V-29H214.2L185 0l44 44zm-76.4 308.6l60.2 16.2 16.1-60.2 44.1-44.1-44-44.1-16.2-60.2-60.2 16.1-60.2-16.1-16.1 60.3-44.1 44 44 44 16.2 60.3 60.2-16.2zm0-264.4z"/>
    <path class="shape-2" d="M32.3 264.5l44.1-44 38.1-142.6 38.2 10.3 28-28L120.4 0l-44 44.1-38.2 142.5L0 176.3l-27.9 28zM-120.4 529l44-44.1 38.2-142.5L0 352.6l27.9-27.9-60.2-60.2-44.1 44.1-38.1 142.4-38.2-10.2-28 27.9zM185 529l44.1-44.1 38.1-142.5 38.2 10.3 27.9-28-60.2-60.2-44.1 44.1-38.1 142.5-38.2-10.3-27.9 28zM32.3 793.5l44.1-44 38.1-142.6 38.2 10.3 28-28-60.3-60.2-44 44.1-38.2 142.5L0 705.3l-27.9 28zM337.7 264.5l44.1-44 38.1-142.6 38.2 10.3 28-28L425.8 0l-44.1 44.1-38.1 142.5-38.2-10.3-27.9 28zM185 0l44.1-44 38.2-142.5 38.2 10.2 27.9-27.9-60.2-60.2-44.1 44L191-77.9l-38.2-10.2-28 27.9z"/>
    <path class="shape-3" d="M365.6 104.3l-60.1-16.2-142.6 38.2-10.2-38.1-38.2-10.3-22 82.3 60.2 16.1 142.5-38.2 10.2 38.2 38.2 10.3zM212.9 368.8l-60.2-16.2-142.5 38.2L0 352.7l-38.2-10.3-22 82.3L0 440.8l142.5-38.1 10.2 38.1 38.2 10.3zM518.3 368.8l-60.2-16.2-142.5 38.2-10.2-38.2-38.2-10.2-22 82.3 60.2 16.1 142.5-38.2 10.2 38.2 38.2 10.2zM60.2 104.3L0 88.1l-142.5 38.2-10.2-38.1-38.2-10.3-22 82.3 60.2 16.1 142.5-38.2L0 176.3l38.2 10.3z"/>
    <path class="shape-4" d="M60.2-104.3l16.1 60.2L180.7 60.2l-28 28 10.2 38.1 82.3-22-16.1-60.2L124.8-60.2l27.9-28-10.2-38.1zM212.9 160.2l16.1 60.2 104.4 104.3-28 28 10.2 38.1 82.3-22-16.1-60.2-104.3-104.3 27.9-28-10.2-38.1zM-92.5 160.2l16.1 60.2L27.9 324.7 0 352.7l10.2 38.1 82.3-22-16.2-60.2L-28 204.3l28-28-10.2-38.2zM60.2 424.7l16.1 60.2 104.3 104.3-27.9 28 10.2 38.1 82.3-22-16.1-60.2-104.3-104.3 27.9-28-10.2-38.1z"/>
  </g>
  <g class="guides">
    <circle cx="152.7" cy="264.5" r="88.2"/>
    <path d="M245.2 104.3L185 0l60.2-104.3h120.4L425.8 0l-60.2 104.3zM229.1 44.1L270 196.8M152.7 129.1l152.7-40.9M305.4 88.2l60.2 16.1M229.1-44L117.3 67.7M152.7-32.3l76.4 76.4"/>
    <circle cx="305.4" r="88.2"/>
    <path d="M-60.2 104.3L-120.4 0l60.2-104.3H60.2L120.4 0 60.2 104.3zM-60.2 104.3L0 88.2M0 88.2l152.7 40.9M35.4 196.7l41-152.8M76.3 44l76.4-76.3M188.1 67.7L76.4-44"/>
    <circle r="88.2"/>
    <path d="M305.4 393.6l48.4-13M353.8 148.4l-48.4-13M337.7 264.5L270 332.2M270 196.8l67.7 67.7M-60.2 633.3L-120.4 529l60.2-104.3H60.2L120.4 529 60.2 633.3zM76.4 484.9l-41-152.7M152.7 399.8L0 440.8M0 440.8l-60.2-16.1M76.4 572.9l111.9-111.5M152.7 561.3l-76.3-76.4"/>
    <circle cy="529" r="88.2"/>
    <path d="M245.2 633.3L185 529l60.2-104.3h120.4L425.8 529l-60.2 104.3zM365.6 424.7l-60.2 16.1M305.4 440.8l-152.7-41M270 332.2l-40.9 152.7M229.1 484.9l-76.4 76.4M117.3 461.3l111.8 111.8"/>
    <circle cx="305.4" cy="529" r="88.2"/>
    <path d="M0 135.4l-48.4 13M-48.4 380.6l48.4 13M-32.3 264.5l67.7-67.8M35.4 332.2l-67.7-67.7M0 529l-152.7-264.5L0 0h305.4l152.7 264.5L305.4 529zM0 0l458.1 264.5M381.8 132.3L-76.3 396.7M-76.4 132.2l458.2 264.5"/>
    <path d="M-152.7 264.5L305.4 0v529M152.7-32.3V529M-152.7 264.5L305.4 529M458.1 264.5L0 529M0 0v529"/>
    <circle cx="152.7" cy="264.5" r="120.4"/>
    <circle cx="305.4" r="120.4"/>
    <circle cy="529" r="120.4"/>
    <circle cx="305.4" cy="529" r="120.4"/>
    <circle r="120.4"/>
    <path d="M458.1 264.5h-610.8M0 0l305.4 529M305.4 0L0 529M92.5 368.8L32.3 264.5l60.2-104.3h120.4l60.2 104.3-60.2 104.3zM229.1 220.5l-41-152.8M305.4 135.4l-152.7 40.9M76.4 308.6l40.9 152.7M0 393.6l152.7-40.9M152.7 176.3L0 135.4M117.3 67.7L76.4 220.5M152.7 352.7l152.7 40.9M188.3 461.4l40.8-153M76.4 220.5L-35.4 332.2M-35.4 196.8L76.4 308.6M229.1 308.4l111.8-111.7M340.9 332.2L229.1 220.5"/>
    <path d="M305.4 176.3l38.2 10.3M305.4 176.3l-10.2-38.1M152.7 88.2l28-28M152.7 88.2l-38.2-10.3M152.7 88.2l10.2 38.1M0 352.7l27.9-28M0 352.7l-38.2-10.3M0 352.7l10.2 38.1M305.4 352.7l27.9-28M305.4 352.7l-38.2-10.3M305.4 352.7l10.2 38.2M0 176.3l-27.9 28M0 176.3l-10.2-38.1M0 176.3l38.2 10.3M152.7 440.8l-27.9 28M152.7 440.8l-10.2-38.2M152.7 440.8l38.2 10.3M305.4 176.3l-27.9 28"/>
  </g>
</svg>
