<svg version="1.1" xmlns="http://www.w3.org/2000/svg" width="339.201px" height="425.36px" viewBox="0 0 339.201 425.36">
  <style>
    :root {
      --golden: #907A58;
      --darkBlue: #475387;
      --beige: #DFD8CC;
      --teal: #4A9AC4;
      --gray: #A49DA0;
      --smaragd: #406A72;
      --sand: #D3BDA7;
      --grayGreen: #A2D1D6;
      --blueGray: #758390;
      --lightBrown: #AA8858;
      --blue1: #8EC5EE;
      --blue2: #8CC6EA;
      --blue3: #B6DAEC;
      --rust: #D8692D;
      --yellow: #F8C346;
    }
    .shape-1{fill:var(--smaragd)}
    .shape-2{fill:var(--grayGreen)}
    .shape-3{fill:var(--golden)}
    .shape-4{fill:var(--yellow)}
    .shape-5{fill:var(--blue1)}
    .shape-6{fill:var(--darkBlue)}
    .shape-7{fill:var(--rust)}
    .shape-8{fill:var(--sand)}
    .line{stroke:#fff;stroke-width:5px}
    .guides{ stroke: #4FFF4F; display: none; fill: none}
  </style>

  <g id="pattern" class="line">

	<rect x="-30.998" y="-24.842" class="shape-8" width="400.896" height="474.675"/>
	<g>
		<polygon class="shape-1" points="181.223,14.566 195.72,32.745 190.546,55.413 169.598,65.501 148.65,55.413 143.476,32.745 
			157.973,14.566 		"/>
		<polygon class="shape-2" points="143.486,-32.749 136.011,0 143.487,32.75 157.973,14.566 181.223,14.566 195.718,32.751 
			203.193,0.002 195.717,-32.748 181.233,-14.571 157.983,-14.571 		"/>
	</g>
	<g>
		<polygon class="shape-1" points="11.621,227.243 26.118,245.422 20.944,268.09 -0.004,278.178 -20.953,268.09 -26.126,245.422 
			-11.629,227.243 		"/>
		<polygon class="shape-1" points="11.63,198.105 26.127,179.928 20.954,157.259 0.005,147.171 -20.943,157.259 -26.117,179.928 
			-11.62,198.105 		"/>
		<polygon class="shape-2" points="-26.117,179.928 -33.591,212.676 -26.116,245.427 -11.629,227.243 11.621,227.243 26.116,245.428 
			33.59,212.679 26.115,179.929 11.63,198.105 -11.62,198.105 		"/>
	</g>
	<g>
		<polygon class="shape-1" points="350.826,227.244 365.323,245.423 360.149,268.091 339.201,278.179 318.252,268.091 313.079,245.423 
			327.576,227.244 		"/>
		<polygon class="shape-1" points="350.835,198.106 365.333,179.929 360.159,157.26 339.21,147.172 318.262,157.26 313.088,179.929 
			327.585,198.106 		"/>
		<polygon class="shape-2" points="313.088,179.929 305.614,212.677 313.089,245.428 327.576,227.244 350.826,227.244 365.321,245.429 
			372.795,212.68 365.32,179.93 350.835,198.106 327.585,198.106 		"/>
	</g>
	<g>
		<polygon class="shape-1" points="181.217,439.927 195.714,458.105 190.541,480.773 169.592,490.861 148.644,480.773 143.47,458.105 
			157.967,439.927 		"/>
		<polygon class="shape-1" points="181.227,410.789 195.724,392.611 190.55,369.942 169.602,359.854 148.654,369.942 143.48,392.611 
			157.977,410.789 		"/>
		<polygon class="shape-2" points="143.48,392.611 136.005,425.359 143.481,458.11 157.967,439.927 181.217,439.927 195.712,458.111 
			203.187,425.362 195.711,392.612 181.227,410.789 157.977,410.789 		"/>
	</g>
	<polygon class="shape-3" points="107.241,24.477 50.826,24.477 86,68.584 106.888,78.643 122.542,59.013 128.129,34.536 	"/>
	<polygon class="shape-3" points="0,110 -12.553,55.001 -47.727,99.106 -52.886,121.708 -30.266,132.602 -5.159,132.602 	"/>
	<polygon class="shape-3" points="86,68.584 35.174,44.107 47.727,99.105 62.183,117.231 84.801,106.339 100.456,86.709 	"/>
	<polygon class="shape-3" points="47.727,99.105 12.554,54.999 0,110 5.159,132.602 30.266,132.602 52.886,121.708 	"/>
	<polygon class="shape-3" points="107.239,-24.476 56.415,0 107.241,24.477 130.424,24.477 136.011,0 130.425,-24.476 	"/>
	<polygon class="shape-4" points="141.598,24.477 136.011,0 130.424,24.477 107.241,24.477 128.129,34.536 122.542,59.013 
		138.197,39.384 143.487,32.75 	"/>
	<polygon class="shape-4" points="5.159,132.602 0,110 -5.159,132.602 -30.266,132.602 -7.645,143.495 0,147.177 7.645,143.495 
		30.266,132.602 	"/>
	<polygon class="shape-4" points="138.195,-39.384 122.542,-59.012 128.128,-34.536 107.239,-24.476 130.425,-24.476 136.011,0 
		141.597,-24.476 143.486,-32.749 	"/>
	<polygon class="shape-5" points="50.826,24.477 107.242,24.477 56.415,0 38.273,8.736 	"/>
	<polygon class="shape-5" points="12.554,54.999 47.728,99.105 35.174,44.107 17.033,35.371 	"/>
	<polygon class="shape-5" points="50.826,24.477 30.694,24.477 35.174,44.107 86,68.584 	"/>
	<polygon class="shape-5" points="56.415,0 107.241,-24.477 50.827,-24.477 38.274,-8.736 	"/>
	<polygon class="shape-5" points="-12.554,55 0,110 12.554,54.999 0,39.258 	"/>
	<polygon class="shape-6" points="38.273,8.736 56.415,0 38.274,-8.736 50.827,-24.477 30.693,-24.477 35.173,-44.106 17.034,-35.371 
		12.553,-55 0,-39.258 -12.554,-54.999 -17.033,-35.371 -35.174,-44.107 -30.694,-24.477 -50.826,-24.477 -38.273,-8.736 -56.415,0 
		-38.274,8.736 -50.827,24.477 -30.693,24.477 -35.173,44.106 -17.034,35.371 -12.554,55 0,39.258 12.554,54.999 17.033,35.371 
		35.174,44.107 30.694,24.477 50.826,24.477 	"/>
	<polygon class="shape-3" points="0,315.354 12.554,370.355 47.727,326.25 52.885,303.646 30.267,292.754 5.159,292.754 	"/>
	<polygon class="shape-3" points="47.727,326.25 35.174,381.249 86.003,356.771 100.456,338.647 84.801,319.017 62.182,308.124 	"/>
	<polygon class="shape-3" points="86.003,356.771 50.829,400.878 107.239,400.878 128.129,390.818 122.543,366.343 106.887,346.712 	"/>
	<polygon class="shape-3" points="107.239,400.878 56.415,425.354 107.241,449.831 130.424,449.831 136.012,425.354 130.426,400.878 	
		"/>
	<polygon class="shape-3" points="-47.726,326.251 -12.553,370.356 0,315.354 -5.158,292.754 -30.266,292.754 -52.886,303.647 	"/>
	<polygon class="shape-4" points="7.645,281.86 0,278.179 -7.644,281.86 -30.266,292.754 -5.158,292.754 0,315.354 5.159,292.754 
		30.267,292.754 	"/>
	<polygon class="shape-4" points="141.598,449.831 136.012,425.354 130.424,449.831 107.241,449.831 128.129,459.89 122.543,484.367 
		138.198,464.738 143.487,458.104 	"/>
	<polygon class="shape-4" points="138.196,385.971 122.543,366.343 128.129,390.818 107.239,400.878 130.426,400.878 136.012,425.354 
		141.598,400.878 143.487,392.605 	"/>
	<polygon class="shape-5" points="12.553,370.354 0,315.354 -12.553,370.356 0,386.097 	"/>
	<polygon class="shape-5" points="50.827,449.831 107.243,449.831 56.416,425.354 38.274,434.091 	"/>
	<polygon class="shape-5" points="50.827,400.878 86.002,356.771 35.174,381.248 30.694,400.878 	"/>
	<polygon class="shape-5" points="35.174,381.248 47.727,326.249 12.553,370.354 17.034,389.983 	"/>
	<polygon class="shape-5" points="56.416,425.354 107.241,400.878 50.827,400.878 38.275,416.618 	"/>
	<polygon class="shape-6" points="38.274,434.091 56.416,425.354 38.275,416.618 50.827,400.878 30.694,400.878 35.174,381.248 
		17.034,389.983 12.553,370.354 0,386.097 -12.553,370.356 -17.033,389.983 -35.173,381.247 -30.693,400.878 -50.826,400.878 
		-38.273,416.618 -56.415,425.354 -38.274,434.091 -50.826,449.831 -30.693,449.831 -35.173,469.461 -17.033,460.726 
		-12.553,480.354 0,464.612 12.554,480.354 17.034,460.726 35.174,469.462 30.694,449.831 50.827,449.831 	"/>
	<polygon class="shape-3" points="231.963,400.878 288.379,400.878 253.205,356.771 232.317,346.712 216.662,366.343 211.075,390.819 	
		"/>
	<polygon class="shape-3" points="231.964,449.831 282.79,425.354 231.963,400.878 208.779,400.878 203.192,425.355 208.779,449.831 	
		"/>
	<polygon class="shape-3" points="253.205,356.771 304.03,381.247 291.477,326.251 277.02,308.124 254.403,319.017 238.75,338.646 	"/>
	<polygon class="shape-3" points="339.204,315.354 351.758,370.355 386.93,326.25 392.088,303.646 369.471,292.754 344.362,292.754 	"/>
	<polygon class="shape-3" points="291.477,326.251 326.651,370.356 339.204,315.354 334.045,292.754 308.938,292.754 286.317,303.647 	
		"/>
	<polygon class="shape-4" points="231.964,449.831 208.779,449.831 203.192,425.355 197.606,449.831 195.717,458.104 201.008,464.739 
		216.663,484.368 211.075,459.892 	"/>
	<polygon class="shape-4" points="346.848,281.86 339.204,278.179 331.559,281.86 308.938,292.754 334.045,292.754 339.204,315.354 
		344.362,292.754 369.471,292.754 	"/>
	<polygon class="shape-4" points="211.075,390.819 216.662,366.343 201.008,385.972 195.717,392.605 197.606,400.878 203.192,425.355 
		208.779,400.878 231.963,400.878 	"/>
	<polygon class="shape-5" points="351.756,370.354 339.204,315.354 326.651,370.356 339.204,386.097 	"/>
	<polygon class="shape-5" points="282.79,425.354 231.963,449.831 288.377,449.831 300.93,434.091 	"/>
	<polygon class="shape-5" points="304.03,381.247 253.204,356.771 288.377,400.878 308.51,400.878 	"/>
	<polygon class="shape-5" points="288.377,400.878 231.962,400.878 282.79,425.354 300.93,416.618 	"/>
	<polygon class="shape-5" points="326.651,370.356 291.477,326.249 304.03,381.247 322.17,389.983 	"/>
	<polygon class="shape-6" points="377.477,434.091 395.62,425.354 377.479,416.618 390.03,400.878 369.897,400.878 374.377,381.248 
		356.237,389.983 351.756,370.354 339.204,386.097 326.651,370.356 322.17,389.983 304.03,381.247 308.51,400.878 288.377,400.878 
		300.93,416.618 282.79,425.354 300.93,434.091 288.377,449.831 308.51,449.831 304.03,469.461 322.17,460.726 326.651,480.354 
		339.204,464.612 351.758,480.354 356.237,460.726 374.377,469.462 369.897,449.831 390.03,449.831 	"/>
	<polygon class="shape-3" points="276.842,237.154 220.428,237.154 255.602,281.262 276.491,291.32 292.145,271.69 297.731,247.214 	"/>
	<polygon class="shape-3" points="121.875,311.784 134.428,256.784 83.6,281.262 69.147,299.387 84.801,319.017 107.42,329.909 	"/>
	<polygon class="shape-3" points="83.6,281.262 118.776,237.154 62.362,237.154 41.473,247.214 47.06,271.691 62.713,291.32 	"/>
	<polygon class="shape-3" points="169.602,322.678 157.049,267.679 121.875,311.784 116.716,334.386 139.336,345.279 164.444,345.279 	
		"/>
	<polygon class="shape-3" points="62.362,188.202 118.777,188.202 83.602,144.095 62.714,134.035 47.06,153.665 41.473,178.143 	"/>
	<polygon class="shape-3" points="62.362,237.154 113.188,212.679 62.362,188.202 39.177,188.202 33.59,212.679 39.177,237.154 	"/>
	<polygon class="shape-3" points="255.602,281.262 204.776,256.785 217.329,311.783 231.785,329.909 254.403,319.017 270.057,299.387 	
		"/>
	<polygon class="shape-3" points="217.329,311.783 182.156,267.677 169.602,322.678 174.76,345.279 199.868,345.279 222.489,334.386 	
		"/>
	<polygon class="shape-3" points="83.602,144.095 134.428,168.57 121.875,113.573 107.418,95.447 84.801,106.339 69.147,125.968 	"/>
	<polygon class="shape-3" points="169.602,102.679 182.156,157.679 217.329,113.573 222.487,90.97 199.869,80.077 174.76,80.077 	"/>
	<polygon class="shape-3" points="217.329,113.573 204.776,168.571 255.605,144.093 270.057,125.97 254.403,106.34 231.784,95.446 	"/>
	<polygon class="shape-3" points="255.605,144.093 220.43,188.202 276.84,188.202 297.731,178.142 292.145,153.666 276.489,134.036 	"/>
	<polygon class="shape-3" points="276.84,188.202 226.016,212.678 276.842,237.154 300.026,237.154 305.614,212.677 300.028,188.202 	
		"/>
	<polygon class="shape-3" points="121.875,113.573 157.048,157.68 169.602,102.679 164.444,80.077 139.335,80.077 116.715,90.97 	"/>
	<polygon class="shape-7" points="139.336,345.279 116.716,334.386 121.875,311.784 107.42,329.909 84.801,319.017 100.454,338.646 
		100.456,338.647 86.003,356.771 106.887,346.712 122.543,366.343 117.735,345.279 	"/>
	<polygon class="shape-4" points="62.362,237.154 39.177,237.154 33.59,212.679 28.004,237.154 26.116,245.428 31.406,252.062 
		47.06,271.691 41.473,247.214 	"/>
	<polygon class="shape-4" points="177.247,69.183 169.602,65.501 161.958,69.183 139.335,80.077 164.444,80.077 169.602,102.679 
		174.76,80.077 199.869,80.077 	"/>
	<polygon class="shape-7" points="69.148,125.967 84.801,106.339 62.183,117.231 47.727,99.105 52.886,121.708 30.266,132.602 
		51.867,132.602 47.06,153.665 62.714,134.035 83.602,144.095 69.147,125.968 	"/>
	<polygon class="shape-4" points="311.2,237.154 305.614,212.677 300.026,237.154 276.842,237.154 297.731,247.214 292.145,271.69 
		307.799,252.062 313.088,245.428 	"/>
	<polygon class="shape-7" points="238.75,338.645 254.403,319.017 231.785,329.909 217.329,311.783 222.489,334.386 199.868,345.279 
		221.469,345.279 216.662,366.343 232.317,346.712 253.205,356.771 238.75,338.646 	"/>
	<polygon class="shape-7" points="69.149,299.388 69.147,299.386 83.6,281.262 62.713,291.32 47.06,271.691 51.868,292.754 
		30.267,292.754 52.885,303.646 47.727,326.25 62.182,308.124 84.801,319.017 	"/>
	<polygon class="shape-4" points="174.76,345.279 169.602,322.678 164.444,345.279 139.336,345.279 161.958,356.173 169.602,359.854 
		177.247,356.173 199.868,345.279 	"/>
	<polygon class="shape-4" points="307.797,173.294 292.145,153.666 297.731,178.142 276.84,188.202 300.028,188.202 305.614,212.677 
		311.2,188.202 313.088,179.929 	"/>
	<polygon class="shape-7" points="286.317,303.647 308.938,292.754 287.336,292.754 292.145,271.69 276.491,291.32 255.602,281.262 
		270.057,299.387 270.055,299.389 254.403,319.017 277.021,308.125 291.477,326.251 	"/>
	<polygon class="shape-4" points="41.473,178.143 47.06,153.665 31.406,173.294 26.115,179.929 28.003,188.202 33.59,212.679 
		39.177,188.202 62.362,188.202 	"/>
	<polygon class="shape-7" points="139.335,80.077 117.735,80.077 122.542,59.013 106.888,78.643 86,68.584 100.456,86.709 
		84.801,106.339 107.418,95.447 121.875,113.573 116.715,90.97 	"/>
	<polygon class="shape-5" points="182.155,157.678 169.602,102.679 157.048,157.679 169.602,173.42 	"/>
	<polygon class="shape-5" points="113.187,212.678 62.362,237.154 118.776,237.154 131.328,221.414 	"/>
	<polygon class="shape-5" points="134.428,256.784 121.875,311.783 157.048,267.678 152.569,248.049 	"/>
	<polygon class="shape-5" points="220.428,237.154 276.844,237.154 226.017,212.678 207.875,221.414 	"/>
	<polygon class="shape-5" points="220.428,188.201 255.604,144.094 204.776,168.571 200.295,188.201 	"/>
	<polygon class="shape-5" points="134.428,168.57 83.602,144.094 118.776,188.201 138.909,188.201 	"/>
	<polygon class="shape-5" points="182.156,267.677 217.33,311.783 204.776,256.785 186.635,248.049 	"/>
	<polygon class="shape-5" points="220.428,237.154 200.295,237.154 204.776,256.785 255.602,281.262 	"/>
	<polygon class="shape-5" points="118.776,188.201 62.36,188.201 113.187,212.678 131.329,203.941 	"/>
	<polygon class="shape-5" points="157.048,157.679 121.875,113.572 134.428,168.57 152.569,177.307 	"/>
	<polygon class="shape-5" points="204.776,168.571 217.329,113.572 182.155,157.678 186.635,177.307 	"/>
	<polygon class="shape-5" points="226.017,212.678 276.842,188.201 220.428,188.201 207.876,203.941 	"/>
	<polygon class="shape-5" points="157.048,267.678 169.602,322.678 182.156,267.677 169.602,251.936 	"/>
	<polygon class="shape-5" points="118.776,237.154 83.6,281.262 134.428,256.784 138.909,237.154 	"/>
	<polygon class="shape-6" points="207.875,221.414 226.017,212.678 207.876,203.941 220.428,188.201 200.295,188.201 204.776,168.571 
		186.635,177.307 182.155,157.678 169.602,173.42 157.048,157.679 152.569,177.307 134.428,168.57 138.909,188.201 118.776,188.201 
		131.329,203.941 113.187,212.678 131.328,221.414 118.776,237.154 138.909,237.154 134.428,256.784 152.569,248.049 
		157.048,267.678 169.602,251.936 182.156,267.677 186.635,248.049 204.776,256.785 200.295,237.154 220.428,237.154 	"/>
	<polygon class="shape-3" points="291.478,99.107 304.031,44.107 253.204,68.585 238.749,86.71 254.403,106.34 277.023,117.232 	"/>
	<polygon class="shape-3" points="253.204,68.585 288.378,24.478 231.965,24.478 211.076,34.537 216.663,59.015 232.317,78.644 	"/>
	<polygon class="shape-3" points="339.205,110.001 326.652,55.002 291.478,99.107 286.319,121.709 308.939,132.603 334.046,132.603 	"/>
	<polygon class="shape-3" points="231.965,24.478 282.791,0.002 231.963,-24.475 208.78,-24.475 203.193,0.002 208.78,24.478 	"/>
	<polygon class="shape-3" points="386.931,99.106 351.758,55 339.205,110.001 344.363,132.603 369.47,132.603 392.091,121.709 	"/>
	<polygon class="shape-7" points="308.939,132.603 286.319,121.709 291.478,99.107 277.023,117.232 254.403,106.34 270.056,125.969 
		270.057,125.97 255.605,144.093 276.489,134.036 292.145,153.666 287.336,132.603 	"/>
	<polygon class="shape-4" points="231.965,24.478 208.78,24.478 203.193,0.002 197.606,24.478 195.718,32.751 201.008,39.385 
		216.663,59.015 211.076,34.537 	"/>
	<polygon class="shape-7" points="231.783,95.447 254.403,106.34 238.75,86.712 238.749,86.71 253.204,68.585 232.317,78.644 
		216.663,59.015 221.47,80.077 199.869,80.077 222.487,90.97 217.329,113.573 	"/>
	<polygon class="shape-4" points="344.363,132.603 339.205,110.001 334.046,132.603 308.939,132.603 331.56,143.496 339.205,147.178 
		346.849,143.496 369.47,132.603 	"/>
	<polygon class="shape-4" points="211.076,-34.534 216.663,-59.012 201.008,-39.383 195.717,-32.748 197.606,-24.475 203.193,0.002 
		208.78,-24.475 231.963,-24.475 	"/>
	<polygon class="shape-5" points="282.79,0.001 231.963,24.478 288.378,24.478 300.93,8.737 	"/>
	<polygon class="shape-5" points="304.031,44.107 291.478,99.106 326.651,55.001 322.171,35.372 	"/>
	<polygon class="shape-5" points="288.378,-24.476 231.963,-24.476 282.79,0.001 300.931,-8.735 	"/>
	<polygon class="shape-5" points="326.651,55.001 339.205,110.001 351.758,55 339.205,39.259 	"/>
	<polygon class="shape-5" points="288.378,24.478 253.204,68.585 304.031,44.107 308.511,24.478 	"/>
	<polygon class="shape-6" points="377.478,8.737 395.62,0.001 377.479,-8.735 390.031,-24.476 369.898,-24.476 374.378,-44.105 
		356.238,-35.37 351.757,-54.999 339.205,-39.257 326.651,-54.998 322.171,-35.37 304.031,-44.106 308.511,-24.476 288.378,-24.476 
		300.931,-8.735 282.79,0.001 300.93,8.737 288.378,24.478 308.511,24.478 304.031,44.107 322.171,35.372 326.651,55.001 
		339.205,39.259 351.758,55 356.238,35.372 374.378,44.108 369.898,24.478 390.031,24.478 	"/>
</g>
<g class="guides">
	<g>
		<circle cx="0" cy="0" r="110"/>
		<polygon points="107.242,24.477 86.001,68.583 47.728,99.105 0,109.999 -47.727,99.105 -86,68.583 -107.241,24.477 
			-107.241,-24.477 -86,-68.584 -47.727,-99.106 0,-110 47.728,-99.106 86.001,-68.584 107.242,-24.477 		"/>
		<polygon points="0,-110 -47.727,99.105 86.001,-68.584 -107.241,24.477 107.242,24.477 -86,-68.584 47.728,99.105 		
			"/>
		<polygon points="0,110 47.727,-99.105 -86.001,68.584 107.241,-24.477 -107.242,-24.477 86,68.584 -47.728,-99.105 		
			"/>
		<g>
			<line x1="-128.193" y1="-34.566" x2="106.86" y2="78.629"/>
			<line x1="-106.888" y1="78.643" x2="128.037" y2="-34.492"/>
			<line x1="130.425" y1="-24.477" x2="-130.425" y2="-24.477"/>
			<line x1="127.96" y1="34.454" x2="-106.862" y2="-78.63"/>
			<line x1="-100.407" y1="-86.65" x2="62.178" y2="117.226"/>
			<line x1="52.876" y1="121.665" x2="-5.159" y2="-132.601"/>
			<line x1="5.159" y1="-132.601" x2="-52.884" y2="121.7"/>
			<line x1="62.182" y1="-117.231" x2="-100.456" y2="86.709"/>
			<line x1="-5.159" y1="132.602" x2="52.885" y2="-121.706"/>
			<line x1="-52.867" y1="-121.624" x2="5.159" y2="132.602"/>
			<line x1="100.43" y1="86.679" x2="-62.151" y2="-117.191"/>
			<line x1="-130.425" y1="24.477" x2="130.425" y2="24.477"/>
			<line x1="106.884" y1="-78.641" x2="-128.129" y2="34.536"/>
			<line x1="-62.2" y1="117.255" x2="100.433" y2="-86.679"/>
		</g>
		<circle cx="0" cy="0" r="147.176"/>
		<polygon points="-63.857,132.602 -143.486,32.75 -115.067,-91.763 0,-147.176 115.067,-91.763 143.487,32.75 
			63.857,132.602 		"/>
		<polygon points="63.857,-132.601 143.486,-32.749 115.068,91.764 0,147.177 -115.067,91.764 -143.487,-32.749 
			-63.857,-132.601 		"/>
	</g>
	<g>
		<circle cx="169.603" cy="212.678" r="110"/>
		<polygon points="276.844,237.154 255.604,281.26 217.331,311.783 169.602,322.676 121.875,311.783 83.602,281.26 
			62.362,237.154 62.362,188.2 83.602,144.094 121.875,113.57 169.602,102.678 217.331,113.57 255.604,144.094 276.844,188.2 		"/>
		<polygon points="169.602,102.678 121.875,311.783 255.604,144.094 62.362,237.154 276.844,237.154 83.602,144.094 
			217.331,311.783 		"/>
		<polygon points="169.602,322.678 217.329,113.572 83.601,281.262 276.843,188.201 62.361,188.201 255.603,281.262 
			121.875,113.572 		"/>
		<g>
			<line x1="41.409" y1="178.111" x2="276.462" y2="291.307"/>
			<line x1="62.714" y1="291.32" x2="297.639" y2="178.186"/>
			<line x1="300.028" y1="188.201" x2="39.178" y2="188.201"/>
			<line x1="297.563" y1="247.131" x2="62.74" y2="134.047"/>
			<line x1="69.195" y1="126.027" x2="231.78" y2="329.902"/>
			<line x1="222.479" y1="334.342" x2="164.444" y2="80.076"/>
			<line x1="174.761" y1="80.076" x2="116.719" y2="334.377"/>
			<line x1="231.784" y1="95.446" x2="69.147" y2="299.387"/>
			<line x1="164.444" y1="345.279" x2="222.487" y2="90.972"/>
			<line x1="116.735" y1="91.053" x2="174.761" y2="345.279"/>
			<line x1="270.033" y1="299.355" x2="107.452" y2="95.486"/>
			<line x1="39.177" y1="237.154" x2="300.028" y2="237.154"/>
			<line x1="276.487" y1="134.037" x2="41.474" y2="247.213"/>
			<line x1="107.403" y1="329.932" x2="270.036" y2="125.998"/>
		</g>
		<circle cx="169.603" cy="212.678" r="147.176"/>
		<polygon points="105.745,345.279 26.116,245.428 54.535,120.914 169.602,65.501 284.669,120.914 313.089,245.428 
			233.459,345.279 		"/>
		<polygon points="233.459,80.076 313.088,179.928 284.67,304.441 169.602,359.854 54.536,304.441 26.116,179.928 
			105.745,80.076 		"/>
	</g>
	<g>
		<circle cx="339.205" cy="0.001" r="110"/>
		<polygon points="446.447,24.478 425.207,68.583 386.933,99.106 339.205,109.999 291.478,99.106 253.205,68.583 
			231.964,24.478 231.964,-24.477 253.205,-68.583 291.478,-99.106 339.205,-109.999 386.933,-99.106 425.207,-68.583 
			446.447,-24.477 		"/>
		<polygon points="339.205,-109.999 291.478,99.106 425.207,-68.583 231.964,24.478 446.447,24.478 253.205,-68.583 
			386.933,99.106 		"/>
		<polygon points="339.205,110.001 386.931,-99.104 253.204,68.585 446.446,-24.476 231.963,-24.476 425.206,68.585 
			291.478,-99.104 		"/>
		<g>
			<line x1="211.012" y1="-34.565" x2="446.065" y2="78.63"/>
			<line x1="232.317" y1="78.644" x2="467.242" y2="-34.491"/>
			<line x1="469.63" y1="-24.476" x2="208.78" y2="-24.476"/>
			<line x1="467.166" y1="34.454" x2="232.342" y2="-78.63"/>
			<line x1="238.797" y1="-86.649" x2="401.382" y2="117.226"/>
			<line x1="392.082" y1="121.665" x2="334.046" y2="-132.601"/>
			<line x1="344.364" y1="-132.601" x2="286.322" y2="121.7"/>
			<line x1="401.386" y1="-117.23" x2="238.75" y2="86.71"/>
			<line x1="334.046" y1="132.603" x2="392.089" y2="-121.705"/>
			<line x1="286.337" y1="-121.624" x2="344.364" y2="132.603"/>
			<line x1="439.635" y1="86.679" x2="277.054" y2="-117.19"/>
			<line x1="208.78" y1="24.478" x2="469.63" y2="24.478"/>
			<line x1="446.089" y1="-78.64" x2="211.077" y2="34.536"/>
			<line x1="277.005" y1="117.255" x2="439.638" y2="-86.679"/>
		</g>
		<circle cx="339.205" cy="0.001" r="147.176"/>
		<polygon points="275.347,132.603 195.719,32.751 224.137,-91.763 339.205,-147.176 454.272,-91.763 482.692,32.751 
			403.062,132.603 		"/>
		<polygon points="403.062,-132.601 482.691,-32.749 454.273,91.765 339.205,147.177 224.138,91.765 195.718,-32.749 
			275.347,-132.601 		"/>
	</g>
	<g>
		<circle cx="0" cy="425.354" r="110"/>
		<polygon points="107.242,449.831 86.001,493.937 47.728,524.46 0,535.353 -47.727,524.46 -86,493.937 
			-107.241,449.831 -107.241,400.877 -86,356.771 -47.727,326.247 0,315.354 47.728,326.247 86.001,356.771 107.242,400.877 		"/>
		<polygon points="0,315.354 -47.727,524.46 86.001,356.771 -107.241,449.831 107.242,449.831 -86,356.771 
			47.728,524.46 		"/>
		<polygon points="0,535.354 47.726,326.249 -86.001,493.938 107.241,400.878 -107.242,400.878 86,493.938 
			-47.727,326.249 		"/>
		<g>
			<line x1="-128.193" y1="390.788" x2="106.86" y2="503.983"/>
			<line x1="-106.888" y1="503.997" x2="128.037" y2="390.862"/>
			<line x1="130.425" y1="400.878" x2="-130.425" y2="400.878"/>
			<line x1="127.96" y1="459.808" x2="-106.863" y2="346.724"/>
			<line x1="-100.408" y1="338.704" x2="62.177" y2="542.579"/>
			<line x1="52.876" y1="547.019" x2="-5.159" y2="292.753"/>
			<line x1="5.159" y1="292.753" x2="-52.883" y2="547.054"/>
			<line x1="62.181" y1="308.123" x2="-100.456" y2="512.063"/>
			<line x1="-5.159" y1="557.956" x2="52.884" y2="303.648"/>
			<line x1="-52.868" y1="303.729" x2="5.159" y2="557.956"/>
			<line x1="100.43" y1="512.032" x2="-62.151" y2="308.163"/>
			<line x1="-130.425" y1="449.831" x2="130.425" y2="449.831"/>
			<line x1="106.884" y1="346.714" x2="-128.128" y2="459.89"/>
			<line x1="-62.2" y1="542.608" x2="100.433" y2="338.675"/>
		</g>
		<circle cx="0" cy="425.354" r="147.176"/>
		<polygon points="-63.858,557.956 -143.486,458.104 -115.068,333.591 0,278.178 115.067,333.591 143.487,458.104 
			63.857,557.956 		"/>
		<polygon points="63.857,292.753 143.486,392.604 115.068,517.118 0,572.53 -115.067,517.118 -143.487,392.604 
			-63.858,292.753 		"/>
	</g>
	<g>
		<circle cx="339.205" cy="425.356" r="109.999"/>
		<polygon points="446.446,449.833 425.206,493.938 386.932,524.462 339.204,535.354 291.477,524.462 253.204,493.938 
			231.963,449.833 231.963,400.879 253.204,356.772 291.477,326.249 339.204,315.356 386.932,326.249 425.206,356.772 
			446.446,400.879 		"/>
		<polygon points="339.204,315.356 291.477,524.462 425.206,356.772 231.963,449.833 446.446,449.833 253.204,356.772 
			386.932,524.462 		"/>
		<polygon points="339.204,535.356 386.93,326.251 253.204,493.94 446.446,400.88 231.963,400.88 425.206,493.94 
			291.477,326.251 		"/>
		<g>
			<line x1="211.012" y1="390.79" x2="446.065" y2="503.985"/>
			<line x1="232.317" y1="503.999" x2="467.241" y2="390.864"/>
			<line x1="469.629" y1="400.88" x2="208.78" y2="400.88"/>
			<line x1="467.165" y1="459.81" x2="232.342" y2="346.726"/>
			<line x1="238.797" y1="338.706" x2="401.381" y2="542.581"/>
			<line x1="392.081" y1="547.021" x2="334.045" y2="292.755"/>
			<line x1="344.364" y1="292.755" x2="286.321" y2="547.056"/>
			<line x1="401.385" y1="308.125" x2="238.749" y2="512.065"/>
			<line x1="334.045" y1="557.958" x2="392.088" y2="303.65"/>
			<line x1="286.336" y1="303.731" x2="344.364" y2="557.958"/>
			<line x1="439.635" y1="512.034" x2="277.053" y2="308.165"/>
			<line x1="208.78" y1="449.833" x2="469.629" y2="449.833"/>
			<line x1="446.088" y1="346.716" x2="211.077" y2="459.892"/>
			<line x1="277.004" y1="542.61" x2="439.637" y2="338.677"/>
		</g>
		<circle cx="339.205" cy="425.356" r="147.177"/>
		<polygon points="275.346,557.958 195.719,458.106 224.137,333.593 339.204,278.18 454.272,333.593 482.692,458.106 
			403.061,557.958 		"/>
		<polygon points="403.061,292.755 482.69,392.606 454.272,517.12 339.204,572.532 224.137,517.12 195.717,392.606 
			275.346,292.755 		"/>
	</g>
	<g>
		<g>
			<line x1="0" y1="0" x2="169.682" y2="38.729"/>
			<line x1="339.206" y1="0.001" x2="169.598" y2="38.711"/>
			<circle cx="169.598" cy="38.711" r="26.79"/>
		</g>
		<g>
			<line x1="0" y1="0" x2="169.692" y2="-38.733"/>
			<line x1="169.612" y1="-173.425" x2="169.612" y2="-38.397"/>
			<line x1="339.206" y1="0.001" x2="169.608" y2="-38.716"/>
			<circle cx="169.608" cy="-38.716" r="26.79"/>
		</g>
	</g>
	<g>
		<g>
			<path d="M0.074,251.411"/>
			<path d="M-172.408,212.683"/>
			<line x1="-0.006" y1="386.103" x2="-0.006" y2="251.075"/>
			<line x1="169.598" y1="212.684" x2="-0.01" y2="251.394"/>
			<circle cx="-0.01" cy="251.394" r="26.79"/>
		</g>
		<g>
			<path d="M0.084,173.949"/>
			<path d="M-169.608,212.683"/>
			<line x1="0.004" y1="39.258" x2="0.004" y2="174.285"/>
			<line x1="169.598" y1="212.684" x2="0" y2="173.967"/>
			<circle cx="0" cy="173.967" r="26.79"/>
		</g>
	</g>
	<g>
		<g>
			<line x1="166.797" y1="212.807" x2="339.279" y2="251.535"/>
			<line x1="339.199" y1="386.227" x2="339.199" y2="251.199"/>
			<circle cx="339.195" cy="251.518" r="26.79"/>
		</g>
		<g>
			<line x1="169.596" y1="212.807" x2="339.289" y2="174.073"/>
			<line x1="339.208" y1="39.382" x2="339.208" y2="174.409"/>
			<circle cx="339.205" cy="174.091" r="26.79"/>
		</g>
	</g>
	<g>
		<g>
			<line x1="0" y1="425.36" x2="169.676" y2="464.088"/>
			<line x1="339.201" y1="425.36" x2="169.592" y2="464.07"/>
			<circle cx="169.592" cy="464.07" r="26.79"/>
		</g>
		<g>
			<line x1="-0.006" y1="425.359" x2="169.686" y2="386.626"/>
			<line x1="169.682" y1="38.729" x2="169.606" y2="386.962"/>
			<line x1="339.201" y1="425.36" x2="169.602" y2="386.644"/>
			<circle cx="169.602" cy="386.644" r="26.79"/>
		</g>
	</g>
	<rect width="339.201" height="425.36"/>
</g>
</svg>
