<svg version="1.1" xmlns="http://www.w3.org/2000/svg" width="203.14 " height="351.85" viewBox="0 0 100% 100%">
  <style>
    :root {
      --golden: #907A58;
      --darkBlue: #475387;
      --sand: #D3BDA7;
      --grayGreen: #A2D1D6;
    }
    .shape-1{fill:var(--sand)}
    .shape-2{fill:var(--grayGreen)}
    .shape-3{fill:var(--golden)}
    .shape-4{fill:var(--darkBlue)}
    .line{stroke:#fff;stroke-width:10px}
    .guides{ stroke: #4FFF4F; display: none;fill:none;}
  </style>
      <g class="line" id="pattern">
				<rect x="-14.147" y="-15" class="shape-1" width="230" height="378.849"/>
				<polygon class="shape-2" points="203.14,101.569 230.355,74.354 240.317,37.177 203.14,27.215 165.963,37.177 175.924,74.354 	"/>
				<polygon class="shape-2" points="203.141,250.278 175.925,277.495 165.963,314.671 203.139,324.633 240.317,314.671 230.355,277.494 	
					"/>
				<polygon class="shape-3" points="203.14,101.569 175.924,128.785 203.138,175.922 230.355,128.785 		"/>
				<polygon class="shape-4" points="267.53,138.748 230.353,128.786 203.138,175.922 257.569,175.924 		"/>
				<polygon class="shape-3" points="267.528,213.1 257.566,175.922 203.138,175.922 230.352,223.062 		"/>
				<polygon class="shape-4" points="203.138,250.274 230.354,223.058 203.14,175.921 175.922,223.059 		"/>
				<polygon class="shape-3" points="138.745,213.097 175.923,223.059 203.138,175.922 148.706,175.92 		"/>
				<polygon class="shape-4" points="138.747,138.744 148.708,175.921 203.138,175.922 175.923,128.782 		"/>
				<polygon class="shape-3" points="101.57,-74.354 74.354,-47.139 101.568,-0.001 128.786,-47.139 		"/>
				<polygon class="shape-4" points="165.961,-37.176 128.783,-47.138 101.568,-0.001 156,0 		"/>
				<polygon class="shape-3" points="165.959,37.176 155.997,-0.001 101.568,-0.001 128.782,47.138 		"/>
				<polygon class="shape-4" points="101.568,74.35 128.784,47.134 101.57,-0.002 74.353,47.135 		"/>
				<polygon class="shape-3" points="37.176,37.173 74.354,47.135 101.568,-0.001 47.137,-0.003 		"/>
				<polygon class="shape-4" points="37.178,-37.18 47.139,-0.002 101.568,-0.001 74.354,-47.142 		"/>
				<polygon class="shape-3" points="0.002,101.572 -27.214,128.788 0,175.925 27.218,128.788 		"/>
				<polygon class="shape-4" points="64.393,138.75 27.215,128.789 0,175.925 54.432,175.927 		"/>
				<polygon class="shape-3" points="64.391,213.103 54.429,175.925 0,175.925 27.214,223.065 		"/>
				<polygon class="shape-4" points="0,250.277 27.216,223.061 0.002,175.924 -27.216,223.062 		"/>
				<polygon class="shape-3" points="-64.393,213.1 -27.215,223.062 0,175.925 -54.432,175.923 		"/>
				<polygon class="shape-4" points="-64.391,138.747 -54.43,175.924 0,175.925 -27.215,128.785 		"/>
				<polygon class="shape-3" points="101.571,277.497 74.355,304.711 101.569,351.849 128.787,304.711 		"/>
				<polygon class="shape-4" points="165.962,314.674 128.784,304.712 101.569,351.849 156.001,351.851 		"/>
				<polygon class="shape-3" points="165.96,389.027 155.998,351.849 101.569,351.849 128.783,398.989 		"/>
				<polygon class="shape-4" points="101.569,426.201 128.785,398.985 101.571,351.848 74.354,398.986 		"/>
				<polygon class="shape-3" points="37.177,389.024 74.354,398.986 101.569,351.849 47.138,351.847 		"/>
				<polygon class="shape-4" points="37.179,314.67 47.14,351.848 101.569,351.849 74.354,304.708 		"/>
				<polygon class="shape-2" points="64.393,138.747 101.569,148.709 138.747,138.747 128.785,101.57 101.569,74.354 74.354,101.57 	"/>
				<polygon class="shape-2" points="0,101.57 27.216,74.354 37.178,37.177 0,27.215 -37.177,37.177 -27.216,74.354 	"/>
				<polygon class="shape-2" points="138.747,213.1 101.57,203.139 64.392,213.101 74.354,250.279 101.569,277.495 128.785,250.278 	"/>
				<polygon class="shape-2" points="0,250.278 -27.215,277.494 -37.177,314.671 -0.001,324.633 37.178,314.671 27.216,277.495 	"/>
			</g>
			<g class="guides">
				<polyline class="st8" points="0,0 203.14,0 203.14,351.849 0,351.849 "/>
				<polygon class="st13" points="203.139,324.633 128.785,304.709 74.354,250.279 54.431,175.924 74.354,101.57 128.784,47.139 
					203.14,27.215 277.494,47.139 331.925,101.57 351.849,175.924 331.925,250.278 277.493,304.709 	"/>
				<polygon class="st13" points="101.569,148.709 27.216,128.785 -27.216,74.354 -47.139,0 -27.215,-74.354 27.215,-128.785 
					101.57,-148.709 175.925,-128.786 230.355,-74.354 250.279,0 230.355,74.354 175.924,128.785 	"/>
				<polygon class="st13" points="-101.57,148.709 -175.924,128.786 -230.355,74.355 -250.278,0 -230.354,-74.354 -175.925,-128.785 
					-101.569,-148.708 -27.215,-128.785 27.216,-74.354 47.14,0 27.216,74.354 -27.216,128.786 	"/>
				<polygon class="st13" points="304.709,148.708 230.355,128.785 175.924,74.354 156.001,0 175.925,-74.355 230.354,-128.786 
					304.71,-148.709 379.064,-128.786 433.495,-74.355 453.419,0 433.495,74.354 379.063,128.785 	"/>
				<polygon class="st13" points="-101.57,500.558 -175.924,480.634 -230.355,426.203 -250.278,351.849 -230.354,277.495 
					-175.925,223.063 -101.569,203.139 -27.215,223.063 27.216,277.495 47.14,351.849 27.216,426.203 -27.216,480.634 	"/>
				<polygon class="st13" points="304.709,500.558 230.355,480.634 175.924,426.203 156.001,351.849 175.925,277.495 230.354,223.063 
					304.71,203.139 379.064,223.063 433.495,277.495 453.419,351.849 433.495,426.203 379.063,480.634 	"/>
				<polygon class="st13" points="101.569,500.557 27.216,480.633 -27.216,426.203 -47.139,351.848 -27.215,277.494 27.215,223.063 
					101.57,203.139 175.925,223.063 230.355,277.494 250.279,351.848 230.355,426.203 175.924,480.633 	"/>
				<polygon class="st13" points="-0.001,324.633 -74.354,304.709 -128.786,250.279 -138.748,213.102 -148.709,175.924 
					-138.747,138.747 -128.785,101.57 -74.355,47.139 0,27.215 74.354,47.139 128.785,101.57 148.709,175.924 128.785,250.278 
					74.354,304.709 	"/>
				<line class="st13" x1="101.57" y1="-148.709" x2="101.569" y2="500.557"/>
				<line class="st13" x1="-148.662" y1="175.924" x2="351.848" y2="175.924"/>
				<line class="st13" x1="-250.278" y1="0" x2="453.419" y2="0"/>
				<line class="st13" x1="-250.278" y1="351.849" x2="453.419" y2="351.849"/>
				<line class="st13" x1="379.064" y1="-128.786" x2="27.216" y2="480.633"/>
				<line class="st13" x1="175.925" y1="-128.786" x2="-175.924" y2="480.634"/>
				<line class="st13" x1="-175.925" y1="-128.785" x2="175.924" y2="480.633"/>
				<line class="st13" x1="27.215" y1="-128.785" x2="379.063" y2="480.634"/>
				<line class="st13" x1="433.495" y1="-74.355" x2="-128.786" y2="250.279"/>
				<line class="st13" x1="230.355" y1="-74.354" x2="-138.747" y2="138.747"/>
				<line class="st13" x1="-230.354" y1="-74.354" x2="331.925" y2="250.278"/>
				<line class="st13" x1="-138.748" y1="213.102" x2="230.355" y2="426.203"/>
				<line class="st13" x1="-230.355" y1="426.203" x2="331.925" y2="101.57"/>
				<line class="st13" x1="433.495" y1="426.203" x2="-128.785" y2="101.57"/>
				<line class="st13" x1="-27.215" y1="-74.354" x2="341.887" y2="138.747"/>
				<line class="st13" x1="-27.216" y1="426.203" x2="341.887" y2="213.101"/>
				<line class="shape-5" x1="0" y1="-101.57" x2="0" y2="453.417"/>
				<line class="shape-5" x1="203.14" y1="-101.57" x2="203.14" y2="453.417"/>
				<polygon class="st13" points="0,175.925 27.216,74.354 101.568,-0.001 73.977,101.352 	"/>
				<polygon class="st13" points="101.569,351.849 128.785,250.278 203.138,175.922 175.546,277.276 	"/>
				<polygon class="st13" points="203.14,175.925 175.924,74.354 101.568,-0.001 128.785,101.57 	"/>
				<polygon class="st13" points="101.569,351.85 74.354,250.279 -0.002,175.923 27.215,277.495 	"/>
				<polygon class="st13" points="-0.002,175.923 101.568,148.708 203.14,175.925 101.569,203.14 	"/>
				<polyline class="st13" points="0,27.215 101.568,-0.001 203.14,27.215 	"/>
				<polyline class="st13" points="0,324.633 101.569,351.85 203.139,324.633 	"/>
				<circle class="st14" cx="101.568" cy="-0.001" r="148.71"/>
				<circle class="st14" cx="203.138" cy="175.922" r="148.71"/>
				<circle class="st14" cx="0" cy="175.925" r="148.71"/>
				<circle class="st14" cx="-101.571" cy="-0.001" r="148.71"/>
				<circle class="st14" cx="304.71" cy="-0.001" r="148.71"/>
				<circle class="st14" cx="-101.569" cy="351.847" r="148.71"/>
				<circle class="st14" cx="304.708" cy="351.847" r="148.71"/>
				<circle class="st14" cx="101.569" cy="351.85" r="148.71"/>
      </g>
</svg>
