<svg xmlns="http://www.w3.org/2000/svg" width="203.1" height="351.9" viewBox="0 0 203.1 351.9">
  <style>
    :root { --golden: #907A58; --darkBlue: #475387; --sand: #D3BDA7; --grayGreen: #A2D1D6; --black: #443430; --red: #BF402B; --gold: #CEA600; --turquois: #4D9BA3; --emerald: #216554; --blue: #262F66; --white: #FFFAF2; } .shape-4{fill:var(--turquois)} .shape-3{fill:var(--white)} .shape-1{fill:var(--red)} .shape-2{fill:var(--white)}
    .guides{ stroke: #4FFF4F; display: none;fill:none;}
  </style>
  <g class="line" id="pattern">
    <path class="shape-1" d="M-14.1 236.1L0 250.3l-14.1 14.1v-28.3zM47 351.8l-3.2 12h-58v-43L0 324.6l37.2-10-10-37.1L0 250.3 27.2 223l37.2-10-10-37.2 10-37.1-37.2-10L0 101.6l-14.1 14.1V87.4L0 101.6l27.2-27.2 10-37.2L0 27.2-14.1 31v-46H43l4 15-10 37.2 37.3 10 27.2 27.1 27.2-27.2 37.2-10L156 0l4-15H216v45.6L203 27.2l-37.1 10 10 37.2 27.1 27.2-27.2 27.2-37.2 10 10 37.1-10 37.2 37.2 10 27.2 27.2 12.8-12.7V263L203 250.3 176 277.5l-10 37.2 37.2 10 12.8-3.5v42.6h-56.7l-3.2-12 10-37.1-37.2-10-27.2-27.2-27.2 27.2-37.2 10 10 37.1zm17.3-213l37.2 10 37.1-10-10-37.2-27.1-27.2-27.2 27.2-10 37.1zm74.3 74.3l-37.1-10-37.2 10 10 37.2 27.2 27.2 27.2-27.2 10-37.2zM216 88.9L203 101.6l12.8 12.7V88.9z"/>
    <path class="shape-2" d="M0 101.6l27.2-27.2 10-37.2L0 27.2l-37.2 10 10 37.2zM0 250.3l-27.2 27.2-10 37.2L0 324.6l37.2-9.9-10-37.2zM138.7 213.1l-37.1-10-37.2 10 10 37.2 27.2 27.2 27.2-27.2zM203.1 101.6l27.3-27.2 9.9-37.2-37.2-10-37.1 10 9.9 37.2zM203.1 250.3l-27.2 27.2-9.9 37.2 37.1 9.9 37.2-9.9-9.9-37.2zM64.4 138.7l37.2 10 37.1-10-9.9-37.1-27.2-27.2-27.2 27.2z"/>
    <path class="shape-3" d="M-64.4 213.1l37.2 10L0 175.9h-54.4zM0 101.6l-27.2 27.2L0 175.9l27.2-47.1zM101.6-74.4L74.4-47.1 101.6 0l27.2-47.1zM101.6 277.5l-27.2 27.2 27.2 47.1 27.2-47.1zM138.7 213.1l37.2 10 27.2-47.2h-54.4zM166 37.2L156 0h-54.4l27.2 47.1zM166 389l-10-37.2h-54.4l27.2 47.2zM203.1 101.6l-27.2 27.2 27.2 47.1 27.3-47.1zM267.5 213.1l-9.9-37.2h-54.5l27.3 47.2zM37.2 37.2l37.2 9.9L101.6 0H47.1z"/>
    <path class="shape-3" d="M37.2 389l37.2 10 27.2-47.2H47.1zM64.4 213.1l-10-37.2H0l27.2 47.2z"/>
    <path class="shape-4" d="M-64.4 138.7l10 37.2H0l-27.2-47.1zM0 250.3l27.2-27.2L0 175.9l-27.2 47.2zM101.6 74.3l27.2-27.2L101.6 0 74.4 47.1zM101.6 426.2l27.2-27.2-27.2-47.2L74.4 399zM138.7 138.7l10 37.2h54.4l-27.2-47.1zM166-37.2l-37.2-9.9L101.6 0H156zM166 314.7l-37.2-10-27.2 47.1 54.4.1zM203.1 250.3l27.3-27.2-27.3-47.2-27.2 47.2zM267.5 138.7l-37.1-9.9-27.3 47.1h54.5zM37.2-37.2L47.1 0h54.5L74.4-47.1zM37.2 314.7l9.9 37.1h54.5l-27.2-47.1zM64.4 138.8l-37.2-10L0 175.9h54.4z"/>
  </g>
  <g class="guides">
    <path d="M0 0h203.1v351.8H0"/>
    <path d="M203.1 324.6l-74.3-19.9-54.4-54.4-20-74.4 20-74.3 54.4-54.5 74.3-19.9 74.4 19.9 54.4 54.5 19.9 74.3-19.9 74.4-54.4 54.4z"/>
    <path d="M101.6 148.7l-74.4-19.9-54.4-54.4L-47.1 0l19.9-74.4 54.4-54.4 74.4-19.9 74.3 19.9 54.5 54.4L250.3 0l-19.9 74.4-54.5 54.4z"/>
    <path d="M-101.6 148.7l-74.3-19.9-54.5-54.4L-250.3 0l19.9-74.4 54.5-54.4 74.3-19.9 74.4 19.9 54.4 54.4L47.1 0 27.2 74.4l-54.4 54.4zm406.3 0l-74.3-19.9-54.5-54.4L156 0l19.9-74.4 54.5-54.4 74.3-19.9 74.4 19.9 54.4 54.4L453.4 0l-19.9 74.4-54.4 54.4zm-406.3 351.9l-74.3-20-54.5-54.4-19.9-74.4 19.9-74.3 54.5-54.4 74.3-20 74.4 20 54.4 54.4 19.9 74.3-19.9 74.4-54.4 54.4zm406.3 0l-74.3-20-54.5-54.4-19.9-74.4 19.9-74.3 54.5-54.4 74.3-20 74.4 20 54.4 54.4 19.9 74.3-19.9 74.4-54.4 54.4z"/>
    <path d="M101.6 500.6l-74.4-20-54.4-54.4-19.9-74.4 19.9-74.3 54.4-54.4 74.4-20 74.3 20 54.5 54.4 19.9 74.3-19.9 74.4-54.5 54.4z"/>
    <path d="M0 324.6l-74.4-19.9-54.4-54.4-9.9-37.2-10-37.2 10-37.2 9.9-37.1 54.4-54.5L0 27.2l74.4 19.9 54.4 54.5 19.9 74.3-19.9 74.4-54.4 54.4zm101.6-473.3v649.3m-250.3-324.7h500.5M-250.3 0h703.7m-703.7 351.8h703.7m-74.3-480.6L27.2 480.6m148.7-609.4l-351.8 609.4m0-609.4l351.8 609.4M27.2-128.8l351.9 609.4m54.4-555l-562.3 324.7M230.4-74.4l-369.1 213.1m-91.7-213.1l562.3 324.7m-470.6-37.2l369.1 213.1m-460.8 0l562.3-324.6m101.6 324.6l-562.3-324.6m101.6-176l369.1 213.1M-27.2 426.2l369.1-213.1M0-101.6v555m203.1-555v555"/>
    <path d="M0 175.9L27.2 74.4 101.6 0 74 101.4zm101.6 175.9l27.2-101.5 74.3-74.4-27.6 101.4zm101.5-175.9L175.9 74.4 101.6 0l27.2 101.6zm-101.5 176L74.4 250.3 0 175.9l27.2 101.6z"/>
    <path d="M0 175.9l101.6-27.2 101.5 27.2-101.5 27.2zM0 27.2L101.6 0l101.5 27.2M0 324.6l101.6 27.3 101.5-27.3"/>
    <circle cx="101.6" r="148.7"/>
    <circle cx="203.1" cy="175.9" r="148.7"/>
    <circle cy="175.9" r="148.7"/>
    <circle cx="-101.6" r="148.7"/>
    <circle cx="304.7" r="148.7"/>
    <circle cx="-101.6" cy="351.8" r="148.7"/>
    <circle cx="304.7" cy="351.8" r="148.7"/>
    <circle cx="101.6" cy="351.9" r="148.7"/>
  </g>
</svg>
