<svg xmlns="http://www.w3.org/2000/svg" width="203.1" height="351.9" viewBox="0 0 203.1 351.9">
  <style>
    :root { --black: #443430; --red: #BF402B; --gold: #CEA600; --turquois: #4D9BA3; --emerald: #216554; --blue: #262F66; --white: #FFFAF2; } .shape-1{fill:var(--black)} .shape-3{fill:var(--turquois)} .shape-2{fill:var(--white)} .shape-4{fill:var(--red)} .shape-5{fill:var(--gold)} .shape-6{fill:var(--black)} .shape-7{fill:var(--turquois)} .shape-8{fill:var(--white)} .guides{ stroke: #4FFF4F; display: none;fill:none;}
  </style>
  <g class="line" id="pattern">
    <path class="shape-1" d="M156 351.8l10-37.1-37.2-10-27.2 47.1 27.2 47.2 37.2-10zM166-37.2l-37.2-9.9L101.6 0l27.2 47.1 37.2-9.9L156 0zM267.5 138.7l-37.1-9.9-27.3 47.1 27.3 47.2 37.1-10-9.9-37.2zM64.4 138.8l-37.2-10L0 175.9l27.2 47.2 37.2-10-10-37.2z"/>
    <path class="shape-2" d="M0 175.9h-54.4l-10 37.2 37.2 10L0 250.3l27.2-27.2zM101.6 0H47.1l-9.9 37.2 37.1 9.9 27.3 27.3 27.2-27.3zM101.6 351.8H47.1L37.2 389l37.2 10 27.2 27.2 27.2-27.2zM203.1 175.9h-54.4l-10 37.2 37.2 10 27.2 27.2 27.3-27.2z"/>
    <path class="shape-3" d="M0 101.6l-27.2 27.2-37.2 10 10 37.1H0l27.2-47.1zM101.6-74.4L74.4-47.1l-37.2 9.9L47.1 0h54.5l27.2-47.1zM101.6 277.5l-27.2 27.2-37.2 10 9.9 37.1h54.5l27.2-47.1zM203.1 101.6l-27.2 27.2-37.2 9.9 10 37.2h54.4l27.3-47.1z"/>
    <path class="shape-4" d="M0-27.2l37.2-10L47.1 0l-9.9 37.2L0 27.2zM0 324.6l37.2-9.9 9.9 37.1-9.9 37.2L0 379.1zM101.6 148.7l37.1-10 10 37.2-10 37.2-37.1-10zM128.8 101.6l-27.2-27.2 27.2-27.3 37.2-9.9 9.9 37.2zM175.9 277.5l-9.9 37.2-37.2-10-27.2-27.2 27.2-27.2zM203.1 324.6l37.2-9.9 10 37.1-10 37.2-37.2-9.9zM203.1-27.2l37.2-10 10 37.2-10 37.2-37.2-10zM230.4 277.5l-27.3-27.2 27.3-27.2 37.1-10 10 37.2zM27.2 277.5L0 250.3l27.2-27.2 37.2-10 10 37.2zM277.5 101.6l-10 37.1-37.1-9.9-27.3-27.2 27.3-27.2zM74.4 101.6l-10 37.2-37.2-10L0 101.6l27.2-27.2z"/>
    <path class="shape-5" d="M-27.2 74.4L0 101.6l-27.2 27.2-37.2 9.9-10-37.1zM-74.4 250.3l10-37.2 37.2 10L0 250.3l-27.2 27.2zM0 27.2l-37.2 10L-47.1 0l9.9-37.2L0-27.2zM0 379.1l-37.2 9.9-9.9-37.1 9.9-37.2L0 324.6zM101.6 203.1l-37.2 10-10-37.2 10-37.1 37.2 9.9zM128.8 250.3l9.9-37.2 37.2 10 27.2 27.2-27.2 27.2zM175.9 74.4l27.2 27.2-27.2 27.2-37.2 9.9-9.9-37.1zM203.1 379.1L166 389l-10-37.1 10-37.2 37.1 9.9zM203.1 27.2l-37.1 10L156 0l10-37.2 37.1 10zM27.2 74.4l10-37.2 37.2 9.9 27.2 27.3-27.2 27.2zM74.4 250.3l27.2 27.2-27.2 27.2-37.2 10-10-37.2z"/>
    <path class="shape-6" d="M0 250.3l-27.2 27.2L0 293.2l27.2-15.7zM0 101.6l27.2-27.2L0 58.6l-27.2 15.8zM101.6 74.4l-27.2 27.2 27.2 15.7 27.2-15.7zM101.6 277.5l27.2-27.2-27.2-15.7-27.2 15.7zM203.1 250.3l-27.2 27.2 27.2 15.7 27.3-15.7zM203.1 101.6l27.3-27.2-27.3-15.8-27.2 15.8z"/>
    <path class="shape-7" d="M-37.2 314.7L0 324.6v-31.4l-27.2-15.7zM138.7 213.1l-37.1-10v31.5l27.2 15.7zM166 314.7l37.1 9.9v-31.4l-27.2-15.7zM240.3 37.2l-37.2-10v31.4l27.3 15.8zM37.2 37.2L0 27.2v31.4l27.2 15.8zM64.4 138.7l37.2 10v-31.4l-27.2-15.7z"/>
    <path class="shape-8" d="M-37.2 37.2l10 37.2L0 58.6V27.2zM138.7 138.7l-9.9-37.1-27.2 15.7v31.4zM166 37.2l9.9 37.2 27.2-15.8V27.2zM240.3 314.7l-9.9-37.2-27.3 15.7v31.4zM37.2 314.7l-10-37.2L0 293.2v31.4zM64.4 213.1l10 37.2 27.2-15.7v-31.5z"/>
  </g>
  <g class="guides">
    <path d="M0 0h203.1v351.8H0"/>
    <path d="M203.1 324.6l-74.3-19.9-54.4-54.4-20-74.4 20-74.3 54.4-54.5 74.3-19.9 74.4 19.9 54.4 54.5 19.9 74.3-19.9 74.4-54.4 54.4z"/>
    <path d="M101.6 148.7l-74.4-19.9-54.4-54.4L-47.1 0l19.9-74.4 54.4-54.4 74.4-19.9 74.3 19.9 54.5 54.4L250.3 0l-19.9 74.4-54.5 54.4z"/>
    <path d="M-101.6 148.7l-74.3-19.9-54.5-54.4L-250.3 0l19.9-74.4 54.5-54.4 74.3-19.9 74.4 19.9 54.4 54.4L47.1 0 27.2 74.4l-54.4 54.4zM304.7 148.7l-74.3-19.9-54.5-54.4L156 0l19.9-74.4 54.5-54.4 74.3-19.9 74.4 19.9 54.4 54.4L453.4 0l-19.9 74.4-54.4 54.4zM-101.6 500.6l-74.3-20-54.5-54.4-19.9-74.4 19.9-74.3 54.5-54.4 74.3-20 74.4 20 54.4 54.4 19.9 74.3-19.9 74.4-54.4 54.4zM304.7 500.6l-74.3-20-54.5-54.4-19.9-74.4 19.9-74.3 54.5-54.4 74.3-20 74.4 20 54.4 54.4 19.9 74.3-19.9 74.4-54.4 54.4z"/>
    <path d="M101.6 500.6l-74.4-20-54.4-54.4-19.9-74.4 19.9-74.3 54.4-54.4 74.4-20 74.3 20 54.5 54.4 19.9 74.3-19.9 74.4-54.5 54.4z"/>
    <path d="M0 324.6l-74.4-19.9-54.4-54.4-9.9-37.2-10-37.2 10-37.2 9.9-37.1 54.4-54.5L0 27.2l74.4 19.9 54.4 54.5 19.9 74.3-19.9 74.4-54.4 54.4zM101.6-148.7v649.3M-148.7 175.9h500.5M-250.3 0h703.7M-250.3 351.8h703.7M379.1-128.8L27.2 480.6M175.9-128.8l-351.8 609.4M-175.9-128.8l351.8 609.4M27.2-128.8l351.9 609.4M433.5-74.4l-562.3 324.7M230.4-74.4l-369.1 213.1M-230.4-74.4l562.3 324.7M-138.7 213.1l369.1 213.1M-230.4 426.2l562.3-324.6M433.5 426.2l-562.3-324.6M-27.2-74.4l369.1 213.1M-27.2 426.2l369.1-213.1M0-101.6v555M203.1-101.6v555"/>
    <path d="M0 175.9L27.2 74.4 101.6 0 74 101.4zM101.6 351.8l27.2-101.5 74.3-74.4-27.6 101.4zM203.1 175.9L175.9 74.4 101.6 0l27.2 101.6zM101.6 351.9L74.4 250.3 0 175.9l27.2 101.6z"/>
    <path d="M0 175.9l101.6-27.2 101.5 27.2-101.5 27.2zM0 27.2L101.6 0l101.5 27.2M0 324.6l101.6 27.3 101.5-27.3"/>
    <circle cx="101.6" r="148.7"/>
    <circle cx="203.1" cy="175.9" r="148.7"/>
    <circle cy="175.9" r="148.7"/>
    <circle cx="-101.6" r="148.7"/>
    <circle cx="304.7" r="148.7"/>
    <circle cx="-101.6" cy="351.8" r="148.7"/>
    <circle cx="304.7" cy="351.8" r="148.7"/>
    <circle cx="101.6" cy="351.9" r="148.7"/>
  </g>
</svg>
