<svg version="1.1" xmlns="http://www.w3.org/2000/svg" width="364.338" height="631.053" viewBox="0 0 100% 100%">
  <style>
    :root {
      --golden: #907A58;
      --darkBlue: #475387;
      --beige: #DFD8CC;
      --teal: #4A9AC4;
      --gray: #A49DA0;
      --smaragd: #406A72;
      --sand: #D3BDA7;
      --grayGreen: #A2D1D6;
      --blueGray: #758390;
      --lightBrown: #AA8858;
      --blue1: #8EC5EE;
      --blue2: #8CC6EA;
      --blue3: #B6DAEC;
      --rust: #D8692D;
      --yellow: #F8C346;
            --black: #443430;
      --red: #BF402B;
      --gold: #CEA600;
      --turquois: #4D9BA3;
      --emerald: #216554;
      --blue: #262F66;
      --white: #FFFAF2;

    }
    .shape-2{fill:var(--turquois)}
    .shape-1{fill:var(--white)}
    .shape-3{fill:var(--black)}
    .shape-4{fill:var(--red)}
    .shape-5{fill:var(--white)}
    <!-- .line{stroke:#fff;stroke-width:20px} -->
    .guides{ stroke: #4FFF4F; display: none; fill: none}
  </style>
      <g class="line" id="pattern">
			  <rect x="-24.603" y="-40.015" class="shape-1" width="414.219" height="709.95"/>
			  <polygon class="shape-2" points="324.898,247.214 324.898,292.755 285.457,315.526 324.897,338.298 324.897,383.84 364.338,361.068 
			    403.778,383.839 403.778,338.299 443.219,315.526 403.778,292.755 403.778,247.214 364.338,269.985   "/>
			  <polygon class="shape-2" points="221.61,68.312 221.61,22.772 261.051,0 221.61,-22.771 221.61,-68.313 182.17,-45.542 
			    142.731,-68.313 142.731,-22.771 103.29,0 142.729,22.77 142.729,68.312 182.169,45.542  "/>
			  <polygon class="shape-2" points="142.729,562.74 142.729,608.28 103.287,631.053 142.729,653.824 142.729,699.366 182.168,676.596 
			    221.608,699.366 221.608,653.824 261.05,631.053 221.61,608.281 221.61,562.739 182.169,585.511  "/>
			  <polygon class="shape-2" points="78.88,315.525 39.44,292.755 39.44,247.213 0,269.984 -39.439,247.213 -39.439,292.754 
			    -78.881,315.525 -39.439,338.297 -39.439,383.838 0,361.067 39.439,383.838 39.439,338.297   "/>
			  <polygon class="shape-3" points="206.575,315.526 217.142,354.968 285.457,315.526 217.143,276.085  "/>
			  <polygon class="shape-3" points="147.194,276.085 78.88,315.525 147.194,354.968 157.762,315.526  "/>
			  <polygon class="shape-3" points="34.971,591.61 24.403,631.052 34.972,670.495 103.287,631.053  "/>
			  <polygon class="shape-3" points="142.729,483.855 103.285,494.425 74.411,523.298 142.729,562.74  "/>
			  <polygon class="shape-3" points="107.756,423.28 39.439,383.838 39.439,462.723 78.881,452.154  "/>
			  <polygon class="shape-3" points="256.583,423.281 285.456,452.153 324.897,462.722 324.897,383.84   "/>
			  <polygon class="shape-3" points="221.61,483.857 221.61,562.739 289.921,523.299 261.047,494.425  "/>
			  <polygon class="shape-3" points="142.729,147.196 142.729,68.312 74.414,107.754 103.287,136.627  "/>
			  <polygon class="shape-3" points="107.754,207.772 78.881,178.899 39.44,168.332 39.44,247.213   "/>
			  <polygon class="shape-3" points="34.974,-39.442 24.405,0 34.974,39.443 103.29,0   "/>
			  <polygon class="shape-3" points="256.583,207.772 324.898,247.214 324.898,168.331 285.456,178.899  "/>
			  <polygon class="shape-3" points="221.61,147.195 261.049,136.628 289.924,107.753 221.61,68.312   "/>
			  <polygon class="shape-3" points="329.363,39.44 339.93,0 329.363,-39.44 261.051,0  "/>
			  <polygon class="shape-3" points="329.361,670.493 339.928,631.052 329.362,591.613 261.05,631.053   "/>
			  <polygon class="shape-4" points="217.142,354.968 182.169,375.16 147.194,354.968 136.626,394.409 107.756,423.28 142.729,443.472 
			    142.729,483.855 182.166,473.288 221.61,483.857 221.61,443.473 256.583,423.281 227.709,394.407   "/>
			  <polygon class="shape-4" points="34.972,39.441 -0.001,59.633 -34.976,39.441 -45.543,78.882 -74.414,107.753 -39.441,127.945 
			    -39.441,168.329 -0.004,157.761 39.44,168.331 39.44,127.946 74.414,107.754 45.54,78.88   "/>
			  <polygon class="shape-4" points="147.194,276.085 182.168,255.893 217.143,276.085 227.711,236.645 256.583,207.772 221.61,187.581 
			    221.61,147.195 182.169,157.763 142.729,147.196 142.729,187.58 107.754,207.772 136.626,236.645   "/>
			  <polygon class="shape-4" points="329.362,591.611 364.335,571.418 399.311,591.611 409.879,552.17 438.75,523.299 403.778,503.106 
			    403.778,462.721 364.336,473.289 324.897,462.722 324.897,503.105 289.922,523.299 318.793,552.171   "/>
			  <polygon class="shape-4" points="399.311,39.442 364.338,59.634 329.364,39.442 318.795,78.883 289.924,107.754 324.898,127.946 
			    324.898,168.33 364.334,157.762 403.779,168.332 403.779,127.947 438.752,107.755 409.878,78.881   "/>
			  <polygon class="shape-4" points="-34.977,591.612 -0.002,571.419 34.973,591.612 45.541,552.171 74.413,523.3 39.439,503.107 
			    39.439,462.722 -0.001,473.29 -39.441,462.723 -39.441,503.106 -74.416,523.3 -45.544,552.172  "/>
			  <polygon class="shape-5" points="217.143,276.085 182.168,255.893 147.194,276.085 157.762,315.526 147.194,354.968 182.169,375.16 
			    217.142,354.968 206.575,315.526   "/>
			  <polygon class="shape-5" points="34.974,-39.441 -0.001,-59.634 -34.976,-39.441 -24.407,0 -34.975,39.441 0,59.634 34.973,39.441 
			    24.405,0  "/>
			  <polygon class="shape-5" points="399.311,-39.441 364.336,-59.634 329.362,-39.441 339.93,0 329.362,39.441 364.336,59.634 
			    399.31,39.441 388.743,0   "/>
			  <polygon class="shape-5" points="34.971,591.611 -0.003,571.418 -34.978,591.61 -24.41,631.052 -34.978,670.493 -0.003,690.686 
			    34.97,670.493 24.403,631.052  "/>
			  <polygon class="shape-5" points="399.309,591.611 364.334,571.418 329.36,591.61 339.928,631.052 329.36,670.493 364.334,690.686 
			    399.308,670.493 388.741,631.052   "/>
			  <polygon class="shape-5" points="142.729,483.855 142.729,443.472 107.756,423.28 78.881,452.154 39.439,462.723 39.439,503.107 
			    74.411,523.298 103.285,494.425  "/>
			  <polygon class="shape-5" points="256.583,423.281 221.61,443.473 221.61,483.857 261.047,494.425 289.921,523.299 324.897,503.105 
			    324.897,462.722 285.456,452.153   "/>
			  <polygon class="shape-5" points="107.754,207.772 142.729,187.58 142.729,147.196 103.287,136.627 74.414,107.754 39.44,127.946 
			    39.44,168.332 78.881,178.899  "/>
			  <polygon class="shape-5" points="221.61,147.195 221.61,187.581 256.583,207.772 285.456,178.899 324.898,168.331 324.898,127.946 
			    289.924,107.753 261.049,136.628   "/>
      </g>
      <g class="guides">
		    <polygon class="st9" points="-142.73,653.824 0,571.419 142.729,653.824 142.729,818.634 0,901.038 -142.73,818.634    "/>
		    <polygon class="st9" points="324.897,923.809 182.168,1006.215 39.439,923.81 39.439,759.001 182.168,676.596 324.897,759    "/>
		    <polygon class="st9" points="182.169,585.511 39.439,503.107 39.439,338.297 182.168,255.893 324.897,338.298 324.897,503.105    
		      "/>
		    <polygon class="st9" points="324.898,292.755 182.169,375.16 39.44,292.755 39.44,127.946 182.169,45.542 324.898,127.946    "/>
		    <polygon class="st9" points="689.237,292.755 546.507,375.16 403.778,292.755 403.778,127.946 546.507,45.542 689.237,127.946    
		      "/>
		    <polygon class="st9" points="142.731,-22.771 0.001,59.634 -142.728,-22.771 -142.728,-187.58 0.001,-269.984 142.731,-187.58    
		      "/>
		    <polygon class="st9" points="507.069,-22.771 364.339,59.634 221.61,-22.771 221.61,-187.58 364.339,-269.984 507.069,-187.58    
		      "/>
		    <polygon class="st9" points="-39.439,292.754 -182.169,375.159 -324.898,292.754 -324.898,127.945 -182.169,45.541 
		      -39.439,127.945     "/>
		    <polygon class="st9" points="142.729,608.28 0,690.687 -142.729,608.28 -142.729,443.472 0,361.067 142.729,443.472    "/>
		    <polygon class="st9" points="507.067,608.281 364.338,690.688 221.61,608.281 221.61,443.473 364.338,361.068 507.067,443.473    
		      "/>
		    <polygon class="st9" points="142.729,22.77 142.729,187.58 0,269.984 -142.729,187.58 -142.729,22.77 0,-59.634    "/>
		    <polygon class="st9" points="221.61,22.772 364.338,-59.634 507.068,22.771 507.068,187.58 364.338,269.985 221.61,187.581     "/>
		    <polygon class="st9" points="-324.897,338.298 -182.169,255.892 -39.439,338.297 -39.439,503.105 -182.169,585.511 
		      -324.897,503.106    "/>
		    <polygon class="st9" points="403.778,338.299 546.506,255.893 689.236,338.298 689.236,503.106 546.506,585.512 403.778,503.107 
		          "/>
		    <polygon class="st9" points="39.442,-292.755 182.17,-375.161 324.9,-292.756 324.9,-127.948 182.17,-45.542 39.442,-127.947     
		      "/>
		    <polygon class="st9" points="221.608,653.824 364.337,571.42 507.067,653.824 507.067,818.635 364.337,901.039 221.608,818.634     
		      "/>
		    <polygon class="st9" points="364.338,473.29 285.456,452.153 227.709,394.407 206.575,315.526 227.711,236.645 285.456,178.899 
		      364.336,157.764 443.219,178.899 500.963,236.645 522.1,315.526 500.963,394.409 443.219,452.154     "/>
		    <polygon class="st9" points="182.169,157.763 103.287,136.627 45.541,78.881 24.405,0 45.542,-78.882 103.287,-136.627 
		      182.168,-157.763 261.049,-136.627 318.795,-78.881 339.93,0 318.795,78.882 261.049,136.628     "/>
		    <polygon class="st9" points="182.167,788.814 103.285,767.679 45.539,709.933 24.403,631.052 45.54,552.169 103.285,494.425 
		      182.166,473.288 261.047,494.425 318.793,552.17 339.928,631.052 318.793,709.934 261.047,767.679    "/>
		    <polygon class="st9" points="0,473.29 -78.881,452.153 -136.627,394.407 -157.763,315.526 -136.626,236.645 -78.881,178.899 
		      0,157.764 78.881,178.899 136.626,236.645 157.762,315.526 136.626,394.409 78.881,452.154     "/>
		    <line class="st9" x1="-136.626" y1="236.645" x2="546.506" y2="631.053"/>
		    <line class="st9" x1="-136.627" y1="394.407" x2="546.507" y2="0"/>
		    <line class="st9" x1="0" y1="-59.634" x2="0" y2="690.687"/>
		    <line class="st9" x1="-182.169" y1="0" x2="500.963" y2="394.409"/>
		    <line class="st9" x1="-182.169" y1="631.052" x2="500.963" y2="236.645"/>
		    <line class="st9" x1="364.336" y1="-59.634" x2="364.338" y2="690.688"/>
		    <line class="st9" x1="39.442" y1="-247.21" x2="546.506" y2="631.053"/>
		    <line class="st9" x1="324.9" y1="-247.214" x2="-182.169" y2="631.052"/>
		    <line class="st9" x1="-182.169" y1="0" x2="546.507" y2="0"/>
		    <line class="st9" x1="45.542" y1="-78.882" x2="507.068" y2="187.58"/>
		    <line class="st9" x1="318.795" y1="-78.881" x2="-142.729" y2="187.58"/>
		    <line class="st9" x1="182.168" y1="-375.161" x2="182.169" y2="1006.215"/>
		    <line class="st9" x1="-182.169" y1="0" x2="324.897" y2="878.271"/>
		    <line class="st9" x1="546.507" y1="0" x2="39.435" y2="878.271"/>
		    <line class="st9" x1="-182.169" y1="631.052" x2="546.506" y2="631.052"/>
		    <line class="st9" x1="-157.763" y1="315.526" x2="522.1" y2="315.526"/>
		    <line class="st9" x1="-142.729" y1="443.472" x2="318.793" y2="709.934"/>
		    <line class="st9" x1="318.793" y1="552.17" x2="45.539" y2="709.933"/>
		    <path class="st9" d="M182.169,210.351"/>
		    <circle class="st7" cx="0.02" cy="315.506" r="78.902"/>
		    <circle class="st7" cx="0.02" cy="315.506" r="157.743"/>
		    <circle class="st7" cx="182.169" cy="0.015" r="78.902"/>
		    <circle class="st7" cx="182.168" cy="0.015" r="157.742"/>
		    <circle class="st7" cx="364.336" cy="315.526" r="78.902"/>
		    <circle class="st7" cx="364.335" cy="315.526" r="157.743"/>
		    <circle class="st7" cx="182.165" cy="631.052" r="78.902"/>
		    <circle class="st7" cx="182.164" cy="631.052" r="157.742"/>
      </g>
</svg>
