<svg xmlns="http://www.w3.org/2000/svg" width="364.3" height="631.1" viewBox="0 0 364.3 631.1">
  <style>
    :root { --black: #443430; --red: #BF402B; --gold: #CEA600; --turquois: #4D9BA3; --white: #FFFAF2; } .shape-2{fill:var(--turquois)} .shape-1{fill:var(--white)} .shape-3{fill:var(--black)} .shape-4{fill:var(--red)} .shape-5{fill:var(--white)} .guides{ stroke: #4FFF4F; display: none; fill: none}
  </style>
  <g class="line" id="pattern">
    <path class="shape-1" d="M35 39.4L103.3 0l39.4 22.8v45.5l-68.3 39.5-28.9-29L35 39.5zm147.2 118.4l39.4-10.6V68.3l-39.4-22.8-39.5 22.8v78.9l39.5 10.6zm107.7-50l28.9-29 10.6-39.4L261 0l-39.5 22.8v45.5l68.3 39.5zm-68.3 455v45.5L261 631l68.4-39.5-10.6-39.4-28.9-28.9-68.3 39.4zm-39.4-89.5l-39.5 10.6v78.8l39.5 22.8 39.4-22.8V484l-39.4-10.6zm-107.8 50l-28.9 28.9L35 591.6l68.3 39.5 39.4-22.8v-45.6l-68.3-39.4zm250.5-276l-68.3-39.5-28.9 28.8-10.6 39.5 68.4 39.4 39.4-22.7v-45.6zm64.7 8v-90.8l-25.3-6.7-39.4 10.5v79l39.4 22.7 25.3-14.6zm-414.2 120v91.4L0 473.3l39.4-10.6v-78.9L0 361.1l-24.6 14.2zm389-14.2l-39.5 22.7v79l39.4 10.5 25.3-6.8v-90.8L364.3 361zm-79-45.6L217.2 355l10.6 39.4 28.9 28.9 68.3-39.5v-45.5l-39.4-22.8zm-206.5 0l68.3-39.4-10.6-39.5-28.8-28.8-68.4 39.4v45.6L79 315.5zM0 270l39.4-22.8v-78.9L0 157.8l-24.6 6.6v91.4L0 270zm39.4 113.8l68.4 39.5 28.8-28.9 10.6-39.4-68.3-39.5-39.5 22.8v45.5z"/>
    <path class="shape-2" d="M324.9 247.2v45.6l-39.4 22.7 39.4 22.8v45.5l39.4-22.7 39.5 22.7v-45.5l39.4-22.8-39.4-22.7v-45.6L364.3 270zM221.6 68.3V22.8L261.1 0l-39.5-22.8v-45.5l-39.4 22.8-39.5-22.8v45.5L103.3 0l39.4 22.8v45.5l39.5-22.8zM142.7 562.7v45.6l-39.4 22.8 39.4 22.7v45.6l39.5-22.8 39.4 22.8v-45.6l39.5-22.7-39.5-22.8v-45.6l-39.4 22.8zM78.9 315.5l-39.5-22.7v-45.6L0 270l-39.4-22.8v45.6l-39.5 22.7 39.5 22.8v45.5L0 361.1l39.4 22.7v-45.5z"/>
    <path class="shape-3" d="M206.6 315.5l10.5 39.5 68.4-39.5-68.4-39.4zM147.2 276.1l-68.3 39.4 68.3 39.5 10.6-39.5zM35 591.6l-10.6 39.5L35 670.5l68.3-39.4zM142.7 483.9l-39.4 10.5-28.9 28.9 68.3 39.4zM107.8 423.3l-68.4-39.5v78.9l39.5-10.5zM256.6 423.3l28.9 28.9 39.4 10.5v-78.9zM221.6 483.9v78.8l68.3-39.4-28.9-28.9zM142.7 147.2V68.3l-68.3 39.5 28.9 28.8zM107.8 207.8l-28.9-28.9-39.5-10.6v78.9zM35-39.4L24.4 0 35 39.4 103.3 0zM256.6 207.8l68.3 39.4v-78.9l-39.4 10.6zM221.6 147.2l39.4-10.6 28.9-28.8-68.3-39.5zM329.4 39.4L339.9 0l-10.5-39.4L261.1 0zM329.4 670.5l10.5-39.4-10.5-39.5-68.3 39.5z"/>
    <path class="shape-4" d="M217.1 355l-34.9 20.2-35-20.2-10.6 39.4-28.8 28.9 34.9 20.2v40.4l39.5-10.6 39.4 10.6v-40.4l35-20.2-28.9-28.9zM35 39.4L0 59.6l-35-20.2-10.5 39.5-28.9 28.9 35 20.1v40.4L0 157.8l39.4 10.5v-40.4l35-20.1-28.9-28.9zM147.2 276.1l35-20.2 34.9 20.2 10.6-39.5 28.9-28.8-35-20.2v-40.4l-39.4 10.6-39.5-10.6v40.4l-34.9 20.2 28.8 28.8zM329.4 591.6l34.9-20.2 35 20.2 10.6-39.4 28.9-28.9-35-20.2v-40.4l-39.5 10.6-39.4-10.6v40.4l-35 20.2 28.9 28.9zM399.3 39.4l-35 20.2-34.9-20.2-10.6 39.5-28.9 28.9 35 20.1v40.4l39.4-10.5 39.5 10.5v-40.4l35-20.1-28.9-28.9zM-35 591.6l35-20.2 35 20.2 10.5-39.4 28.9-28.9-35-20.2v-40.4L0 473.3l-39.4-10.6v40.4l-35 20.2 28.9 28.9z"/>
    <path class="shape-5" d="M217.1 276.1l-34.9-20.2-35 20.2 10.6 39.4-10.6 39.5 35 20.2 34.9-20.2-10.5-39.5zM35-39.4L0-59.6l-35 20.2L-24.4 0-35 39.4 0 59.6l35-20.2L24.4 0zM399.3-39.4l-35-20.2-34.9 20.2L339.9 0l-10.5 39.4 34.9 20.2 35-20.2L388.7 0zM35 591.6L0 571.4l-35 20.2 10.6 39.5-10.6 39.4 35 20.2 35-20.2-10.6-39.4zM399.3 591.6l-35-20.2-34.9 20.2 10.5 39.5-10.5 39.4 34.9 20.2 35-20.2-10.6-39.4zM142.7 483.9v-40.4l-34.9-20.2-28.9 28.9-39.5 10.5v40.4l35 20.2 28.9-28.9zM256.6 423.3l-35 20.2v40.4l39.4 10.5 28.9 28.9 35-20.2v-40.4l-39.4-10.5zM107.8 207.8l34.9-20.2v-40.4l-39.4-10.6-28.9-28.8-35 20.1v40.4l39.5 10.6zM221.6 147.2v40.4l35 20.2 28.9-28.9 39.4-10.6v-40.4l-35-20.1-28.9 28.8z"/>
  </g>
  <g class="guides">
    <path d="M-142.7 653.8L0 571.4l142.7 82.4v164.8L0 901l-142.7-82.4z"/>
    <path d="M324.9 923.8l-142.7 82.4-142.8-82.4V759l142.8-82.4L324.9 759zM182.2 585.5L39.4 503.1V338.3l142.8-82.4 142.7 82.4v164.8z"/>
    <path d="M324.9 292.8l-142.7 82.4-142.8-82.4V127.9l142.8-82.4 142.7 82.4zM689.2 292.8l-142.7 82.4-142.7-82.4V127.9l142.7-82.4 142.7 82.4zM142.7-22.8L0 59.6l-142.7-82.4v-164.8L0-270l142.7 82.4zM507.1-22.8L364.3 59.6 221.6-22.8v-164.8L364.3-270l142.8 82.4zM-39.4 292.8l-142.8 82.4-142.7-82.4V127.9l142.7-82.4 142.8 82.4zM142.7 608.3L0 690.7l-142.7-82.4V443.5L0 361.1l142.7 82.4zM507.1 608.3l-142.8 82.4-142.7-82.4V443.5l142.7-82.4 142.8 82.4z"/>
    <path d="M142.7 22.8v164.8L0 270l-142.7-82.4V22.8L0-59.6zM221.6 22.8l142.7-82.4 142.8 82.4v164.8L364.3 270l-142.7-82.4zM-324.9 338.3l142.7-82.4 142.8 82.4v164.8l-142.8 82.4-142.7-82.4zM403.8 338.3l142.7-82.4 142.7 82.4v164.8l-142.7 82.4-142.7-82.4zM39.4-292.8l142.8-82.4 142.7 82.4v164.9L182.2-45.5 39.4-127.9zM221.6 653.8l142.7-82.4 142.8 82.4v164.8L364.3 901l-142.7-82.4z"/>
    <path d="M364.3 473.3l-78.8-21.1-57.8-57.8-21.1-78.9 21.1-78.9 57.8-57.7 78.8-21.1 78.9 21.1 57.8 57.7 21.1 78.9-21.1 78.9-57.8 57.8zM182.2 157.8l-78.9-21.2-57.8-57.7L24.4 0l21.1-78.9 57.8-57.7 78.9-21.2 78.8 21.2 57.8 57.7L339.9 0l-21.1 78.9-57.8 57.7zM182.2 788.8l-78.9-21.1-57.8-57.8-21.1-78.8 21.1-78.9 57.8-57.8 78.9-21.1 78.8 21.1 57.8 57.8 21.1 78.9-21.1 78.8-57.8 57.8zM0 473.3l-78.9-21.1-57.7-57.8-21.2-78.9 21.2-78.9 57.7-57.7L0 157.8l78.9 21.1 57.7 57.7 21.2 78.9-21.2 78.9-57.7 57.8zM-136.6 236.6l683.1 394.5M-136.6 394.4L546.5 0M0-59.6v750.3M-182.2 0L501 394.4M-182.2 631.1L501 236.6M364.3-59.6v750.3M39.4-247.2l507.1 878.3M324.9-247.2l-507.1 878.3M-182.2 0h728.7M45.5-78.9l461.6 266.5M318.8-78.9l-461.5 266.5M182.2-375.2v1381.4M-182.2 0l507.1 878.3M546.5 0L39.4 878.3M-182.2 631.1h728.7M-157.8 315.5h679.9M-142.7 443.5l461.5 266.4M318.8 552.2L45.5 709.9"/>
    <circle cy="315.5" r="78.9"/>
    <circle cy="315.5" r="157.7"/>
    <circle cx="182.2" r="78.9"/>
    <circle cx="182.2" r="157.7"/>
    <circle cx="364.3" cy="315.5" r="78.9"/>
    <circle cx="364.3" cy="315.5" r="157.7"/>
    <circle cx="182.2" cy="631.1" r="78.9"/>
    <circle cx="182.2" cy="631.1" r="157.7"/>
  </g>
</svg>
