<svg version="1.1" xmlns="http://www.w3.org/2000/svg" width="255.3px" height="351.983px" viewBox="0 0 100% 100%">
  <style>
    :root {
      --golden: #907A58;
      --darkBlue: #475387;
      --beige: #DFD8CC;
      --teal: #4A9AC4;
      --gray: #A49DA0;
      --smaragd: #406A72;
      --sand: #D3BDA7;
      --grayGreen: #A2D1D6;
      --blueGray: #758390;
      --lightBrown: #AA8858;
      --blue1: #8EC5EE;
      --blue2: #8CC6EA;
      --blue3: #B6DAEC;
      --rust: #D8692D;
      --yellow: #F8C346;
    }
    .shape-1{fill:var(--golden)}
    .shape-2{fill:var(--sand)}
    .shape-3{fill:var(--yellow)}
    .shape-4{fill:var(--darkBlue)}
    .shape-5{fill:var(--blue1)}
    .shape-6{fill:var(--grayGreen)}
    .shape-7{fill:var(--blue3)}
    .line{stroke:#fff;stroke-width:5px}
    .guides{ stroke: #4FFF4F; display: none; fill: none}
  </style>

  <g id="pattern" class="line">
		<rect x="-23.843" y="-40.92" class="shape-1" width="303.803" height="433.817"/>
		<g>
			<polygon class="shape-2" points="167.454,338.675 191.8,305.164 152.405,317.964 152.405,333.786 		"/>
			<polygon class="shape-2" points="128.059,310.052 103.713,276.542 103.713,317.964 118.759,322.853 		"/>
			<polygon class="shape-2" points="88.665,338.675 49.271,351.475 88.665,364.274 97.964,351.475 		"/>
			<polygon class="shape-2" points="152.405,317.964 152.405,276.542 128.059,310.052 137.359,322.853 		"/>
			<polygon class="shape-2" points="167.454,364.274 206.848,351.475 167.454,338.675 158.154,351.475 		"/>
			<polygon class="shape-2" points="103.713,317.964 64.318,305.164 88.665,338.675 103.713,333.786 		"/>
			<polygon class="shape-4" points="167.454,338.675 152.405,333.786 152.405,317.964 137.359,322.853 128.059,310.052 
				118.759,322.853 103.713,317.964 103.713,333.786 88.665,338.675 97.964,351.475 88.665,364.274 103.713,369.163 
				103.713,384.985 118.759,380.097 128.059,392.897 137.359,380.097 152.405,384.985 152.405,369.163 167.454,364.274 
				158.154,351.475 				"/>
		</g>
		<g>
			<polygon class="shape-2" points="231.269,209.481 231.269,250.903 255.615,217.394 246.315,204.593 		"/>
			<polygon class="shape-2" points="255.615,134.548 231.269,101.038 231.269,142.46 246.315,147.349 		"/>
			<polygon class="shape-2" points="216.221,163.171 176.827,175.971 216.221,188.771 225.521,175.971 		"/>
			<polygon class="shape-2" points="231.269,142.46 191.874,129.66 216.221,163.171 231.269,158.282 		"/>
			<polygon class="shape-2" points="216.221,188.771 191.874,222.281 231.269,209.481 231.269,193.659 		"/>
			<polygon class="shape-4" points="295.01,163.171 279.961,158.282 279.961,142.46 264.916,147.349 255.615,134.548 246.315,147.349 
				231.269,142.46 231.269,158.282 216.221,163.171 225.521,175.971 216.221,188.771 231.269,193.659 231.269,209.481 
				246.315,204.593 255.615,217.394 264.916,204.593 279.961,209.481 279.961,193.659 295.01,188.771 285.71,175.971 				"/>
		</g>
		<g>
			<polygon class="shape-2" points="39.938,163.186 64.285,129.675 24.89,142.475 24.89,158.297 		"/>
			<polygon class="shape-2" points="39.938,188.785 24.89,193.674 24.89,209.496 64.285,222.296 		"/>
			<polygon class="shape-2" points="24.89,142.475 24.89,101.053 0.544,134.562 9.844,147.363 		"/>
			<polygon class="shape-2" points="39.938,188.785 79.333,175.985 39.938,163.186 30.639,175.985 		"/>
			<polygon class="shape-2" points="0.544,217.408 24.89,250.918 24.89,209.496 9.844,204.607 		"/>
			<polygon class="shape-4" points="39.938,163.186 24.89,158.297 24.89,142.475 9.844,147.363 0.544,134.562 -8.756,147.363 
				-23.802,142.475 -23.802,158.297 -38.851,163.186 -29.551,175.985 -38.851,188.785 -23.802,193.674 -23.802,209.496 
				-8.756,204.607 0.544,217.408 9.844,204.607 24.89,209.496 24.89,193.674 39.938,188.785 30.639,175.985 				"/>
		</g>
		<g>
			<polygon class="shape-2" points="103.707,34.014 103.707,75.436 128.053,41.926 118.752,29.125 		"/>
			<polygon class="shape-2" points="88.658,-12.297 49.264,0.503 88.658,13.303 97.958,0.503 		"/>
			<polygon class="shape-2" points="167.447,13.303 152.399,18.191 152.399,34.014 191.794,46.813 		"/>
			<polygon class="shape-2" points="167.447,13.303 206.842,0.503 167.447,-12.297 158.147,0.503 		"/>
			<polygon class="shape-2" points="128.053,41.926 152.399,75.436 152.399,34.014 137.353,29.125 		"/>
			<polygon class="shape-2" points="88.658,13.303 64.312,46.813 103.707,34.014 103.707,18.191 		"/>
			<polygon class="shape-4" points="167.447,-12.297 152.399,-17.186 152.399,-33.008 137.353,-28.119 128.053,-40.92 118.752,-28.119 
				103.707,-33.008 103.707,-17.186 88.658,-12.297 97.958,0.503 88.658,13.303 103.707,18.191 103.707,34.014 118.752,29.125 
				128.053,41.926 137.353,29.125 152.399,34.014 152.399,18.191 167.447,13.303 158.147,0.503 				"/>
		</g>
		<polygon class="shape-5" points="152.404,209.489 152.404,235.106 128.061,243.016 152.412,250.928 152.404,276.548 167.465,255.818 
			191.811,263.729 176.764,243.019 191.874,222.281 167.515,230.196 	"/>
		<polygon class="shape-5" points="24.84,250.937 24.84,276.554 0.497,284.463 24.848,292.375 24.84,317.995 39.901,297.266 
			64.247,305.176 49.2,284.466 64.31,263.729 39.951,271.644 	"/>
		<polygon class="shape-5" points="103.717,209.489 103.717,235.106 128.061,243.016 103.709,250.928 103.717,276.548 88.656,255.818 
			64.31,263.729 79.357,243.019 64.247,222.281 88.606,230.196 	"/>
		<polygon class="shape-5" points="231.281,250.937 231.281,276.554 255.625,284.463 231.273,292.375 231.281,317.995 216.22,297.266 
			191.874,305.176 206.921,284.466 191.811,263.729 216.17,271.644 	"/>
		<polygon class="shape-5" points="152.399,142.494 152.399,116.877 128.056,108.968 152.407,101.056 152.399,75.436 167.46,96.165 
			191.806,88.255 176.759,108.965 191.869,129.702 167.51,121.787 	"/>
		<polygon class="shape-5" points="24.835,101.047 24.835,75.43 0.492,67.521 24.843,59.608 24.835,33.988 39.896,54.718 64.242,46.808 
			49.195,67.518 64.305,88.255 39.946,80.34 	"/>
		<polygon class="shape-5" points="103.712,142.494 103.712,116.877 128.056,108.968 103.704,101.056 103.712,75.436 88.651,96.165 
			64.305,88.255 79.352,108.965 64.242,129.702 88.602,121.787 	"/>
		<polygon class="shape-5" points="231.276,101.047 231.276,75.43 255.62,67.521 231.268,59.608 231.276,33.988 216.215,54.718 
			191.869,46.808 206.916,67.518 191.806,88.255 216.166,80.34 	"/>
		<polygon class="shape-6" points="152.399,142.494 128.062,175.985 152.404,209.489 152.404,183.91 176.827,175.971 152.404,168.038 	
			"/>
		<polygon class="shape-6" points="103.724,142.494 128.062,175.985 103.719,209.489 103.719,183.91 79.296,175.971 103.719,168.038 	"/>
		<polygon class="shape-7" points="103.712,116.877 128.056,108.968 152.399,116.877 152.399,142.494 128.062,175.985 103.724,142.494 	
			"/>
		<polygon class="shape-7" points="152.405,235.094 128.062,243.003 103.718,235.094 103.718,209.477 128.056,175.985 152.393,209.477 	
			"/>
		<polygon class="shape-6" points="24.848,317.992 0.511,351.483 24.853,384.987 24.853,359.407 49.276,351.469 24.853,343.536 	"/>
		<polygon class="shape-7" points="-23.838,292.375 0.505,284.466 24.848,292.375 24.848,317.992 0.511,351.483 -23.827,317.992 	"/>
		<polygon class="shape-6" points="231.274,-32.991 255.611,0.5 231.269,34.004 231.269,8.424 206.846,0.485 231.269,-7.447 	"/>
		<polygon class="shape-7" points="279.955,59.608 255.611,67.518 231.268,59.608 231.268,33.991 255.605,0.5 279.943,33.991 	"/>
		<polygon class="shape-6" points="231.285,317.992 255.622,351.483 231.28,384.987 231.28,359.407 206.857,351.469 231.28,343.536 	"/>
		<polygon class="shape-7" points="231.273,292.375 255.616,284.466 279.959,292.375 279.959,317.992 255.622,351.483 231.285,317.992 	
			"/>
		<polygon class="shape-6" points="24.837,-32.991 0.5,0.5 24.842,34.004 24.842,8.424 49.265,0.485 24.842,-7.447 	"/>
		<polygon class="shape-7" points="24.843,59.608 0.5,67.518 -23.843,59.608 -23.843,33.991 0.494,0.5 24.832,33.991 	"/>
	</g>
	<g class="guides">
	<g>
		<polygon points="128.061,175.985 0.561,0.497 -126.939,175.985 		"/>
		<polygon points="128.061,175.985 0.561,351.474 -126.939,175.985 		"/>
		<line x1="0.561" y1="0.497" x2="0.561" y2="351.474"/>
		<circle cx="0.561" cy="175.985" r="127.5"/>
		<g>
			<path d="M103.71,101.042"/>
			<path d="M-102.589,250.929"/>
			<path d="M39.96,54.726"/>
			<path d="M-38.839,297.246"/>
			<path d="M-38.838,54.727"/>
			<path d="M39.96,297.247"/>
			<path d="M-102.588,101.043"/>
			<path d="M103.711,250.931"/>
		</g>
		<path d="M-102.734,101.041"/>
		<path d="M-38.805,54.679"/>
		<polygon points="-38.839,297.245 -102.589,250.928 -126.939,175.985 -102.589,101.042 -38.839,54.725 39.961,54.725 
			103.711,101.042 128.062,175.985 103.711,250.928 39.961,297.245 		"/>
		<line x1="-102.589" y1="101.042" x2="103.711" y2="250.928"/>
		<line x1="-38.839" y1="297.245" x2="39.961" y2="54.725"/>
		<line x1="-38.839" y1="54.725" x2="39.961" y2="297.245"/>
		<line x1="-102.589" y1="250.928" x2="103.711" y2="101.042"/>
	</g>
	<g>
		<polygon points="255.561,0.497 128.062,-174.992 0.561,0.497 		"/>
		<polygon points="255.561,0.497 128.062,175.985 0.561,0.497 		"/>
		<line x1="128.062" y1="-174.992" x2="128.062" y2="175.985"/>
		<circle cx="128.062" cy="0.497" r="127.5"/>
		<g>
			<path d="M231.211-74.446"/>
			<path d="M24.911,75.44"/>
			<path d="M167.461-120.763"/>
			<path d="M88.661,121.757"/>
			<path d="M88.662-120.762"/>
			<path d="M167.461,121.758"/>
			<path d="M24.912-74.445"/>
			<path d="M231.212,75.442"/>
		</g>
		<path d="M24.766-74.448"/>
		<path d="M88.696-120.81"/>
		<polygon points="88.662,121.756 24.912,75.439 0.561,0.497 24.912,-74.447 88.662,-120.764 167.461,-120.764 
			231.211,-74.447 255.562,0.496 231.211,75.439 167.461,121.756 		"/>
		<line x1="24.912" y1="-74.447" x2="231.211" y2="75.439"/>
		<line x1="88.662" y1="121.756" x2="167.461" y2="-120.764"/>
		<line x1="88.662" y1="-120.764" x2="167.461" y2="121.756"/>
		<line x1="24.912" y1="75.439" x2="231.211" y2="-74.447"/>
	</g>
	<g>
		<polygon points="255.561,351.474 128.062,175.985 0.561,351.474 		"/>
		<polygon points="255.561,351.474 128.062,526.962 0.561,351.474 		"/>
		<line x1="128.062" y1="175.985" x2="128.062" y2="526.962"/>
		<circle cx="128.062" cy="351.474" r="127.5"/>
		<g>
			<path d="M231.211,276.53"/>
			<path d="M24.911,426.417"/>
			<path d="M167.461,230.214"/>
			<path d="M88.661,472.734"/>
			<path d="M88.662,230.215"/>
			<path d="M167.461,472.735"/>
			<path d="M24.912,276.532"/>
			<path d="M231.212,426.419"/>
		</g>
		<path d="M24.766,276.529"/>
		<path d="M88.696,230.167"/>
		<polygon points="88.662,472.733 24.912,426.416 0.561,351.474 24.912,276.53 88.662,230.213 167.461,230.213 
			231.211,276.53 255.562,351.474 231.211,426.416 167.461,472.733 		"/>
		<line x1="24.912" y1="276.53" x2="231.211" y2="426.416"/>
		<line x1="88.662" y1="472.733" x2="167.461" y2="230.213"/>
		<line x1="88.662" y1="230.213" x2="167.461" y2="472.733"/>
		<line x1="24.912" y1="426.416" x2="231.211" y2="276.53"/>
	</g>
	<g>
		<polygon points="383.062,175.985 255.562,0.497 128.062,175.985 		"/>
		<polygon points="383.062,175.985 255.562,351.474 128.062,175.985 		"/>
<!-- 		<line x1="255.562" y1="0.497" x2="255.562" y2="351.474"/>
 -->		<circle cx="255.562" cy="175.985" r="127.5"/>
		<g>
			<path d="M358.711,101.042"/>
			<path d="M152.412,250.929"/>
			<path d="M294.961,54.726"/>
			<path d="M216.162,297.246"/>
			<path d="M216.163,54.727"/>
			<path d="M294.961,297.247"/>
			<path d="M152.413,101.044"/>
			<path d="M358.713,250.931"/>
		</g>
		<path d="M152.267,101.041"/>
		<path d="M216.196,54.679"/>
		<polygon points="216.162,297.245 152.412,250.928 128.062,175.985 152.412,101.042 216.162,54.725 294.962,54.725 
			358.712,101.042 383.062,175.985 358.712,250.928 294.962,297.245 		"/>
		<line x1="152.412" y1="101.042" x2="358.712" y2="250.928"/>
		<line x1="216.162" y1="297.245" x2="294.962" y2="54.725"/>
		<line x1="216.162" y1="54.725" x2="294.962" y2="297.245"/>
		<line x1="152.412" y1="250.928" x2="358.712" y2="101.042"/>
	</g>
	<line x1="-102.589" y1="101.042" x2="254.351" y2="-14.934"/>
	<line x1="358.712" y1="101.042" x2="1.661" y2="-15.114"/>
	<line x1="-102.589" y1="250.929" x2="254.62" y2="366.996"/>
	<line x1="358.712" y1="250.928" x2="1.698" y2="366.929"/>
	<line x1="39.998" y1="443.737" x2="39.998" y2="-91.703"/>
	<line x1="88.662" y1="472.733" x2="88.662" y2="-120.762"/>
	<line x1="167.461" y1="-120.763" x2="167.461" y2="472.735"/>
	<line x1="216.695" y1="443.245" x2="216.204" y2="-92.035"/>
	<g>
		<polygon points="103.714,276.548 103.714,426.401 191.796,305.167 49.275,351.475 191.796,397.782 		"/>
		<polygon points="152.404,276.548 152.404,426.401 64.321,305.167 206.842,351.475 64.321,397.782 		"/>
		<circle cx="128.062" cy="351.474" r="78.786"/>
	</g>
	<g>
		<polygon points="103.704,-74.421 103.704,75.433 191.787,-45.802 49.266,0.506 191.787,46.813 		"/>
		<polygon points="152.394,-74.421 152.394,75.433 64.312,-45.802 206.833,0.506 64.312,46.813 		"/>
		<circle cx="128.052" cy="0.505" r="78.786"/>
	</g>
	<g>
		<polygon points="231.267,101.047 231.267,250.9 319.35,129.666 176.828,175.974 319.35,222.281 		"/>
		<polygon points="279.957,101.047 279.957,250.9 191.874,129.666 334.396,175.974 191.874,222.281 		"/>
		<circle cx="255.614" cy="175.973" r="78.786"/>
	</g>
	<g>
		<polygon points="24.909,101.06 24.909,250.913 -63.174,129.679 79.347,175.986 -63.174,222.294 		"/>
		<polygon points="-23.781,101.06 -23.781,250.913 64.301,129.679 -78.221,175.986 64.301,222.294 		"/>
		<circle cx="0.561" cy="175.985" r="78.786"/>
	</g>
	<line x1="118.63" y1="163.223" x2="-63.174" y2="222.294"/>
	<line x1="-63.174" y1="129.679" x2="118.462" y2="188.695"/>
	<line x1="137.544" y1="163.21" x2="319.35" y2="222.281"/>
	<line x1="319.35" y1="129.666" x2="137.713" y2="188.683"/>
	<line x1="9.991" y1="338.71" x2="191.796" y2="397.782"/>
	<line x1="246.126" y1="338.711" x2="64.321" y2="397.782"/>
	<line x1="9.981" y1="13.271" x2="191.787" y2="-45.802"/>
	<line x1="246.116" y1="13.27" x2="64.312" y2="-45.802"/>
	<line x1="34.405" y1="438.958" x2="308.967" y2="61.058"/>
	<line x1="152.404" y1="-124.673" x2="152.404" y2="476.643"/>
	<line x1="103.714" y1="-124.672" x2="103.714" y2="476.642"/>
	<line x1="294.961" y1="297.243" x2="-124.734" y2="160.88"/>
	<line x1="383.196" y1="160.118" x2="-39.907" y2="297.591"/>
</g>
</svg>
