<svg version="1.1" xmlns="http://www.w3.org/2000/svg" width="501.591" height="289.591" viewBox="0 0 100% 100%">
  <style>
    :root {
      --black: #443430;
      --red: #BF402B;
      --gold: #CEA600;
      --turquois: #4D9BA3;
      --emerald: #216554;
      --blue: #262F66;
      --white: #FFFAF2;
    }
    .shape-3{fill:var(--turquois)}
    .shape-5{fill:var(--white)}
    .shape-1{fill:var(--red)}
    .shape-4{fill:var(--gold)}
    .shape-2{fill:var(--black)}
    <!-- .line{stroke:#fff;stroke-width:10px} -->
    .guides{ stroke: #4FFF4F; display: none; fill: none}
  </style>
      <g class="line" id="pattern">
			  <rect x="-19.378" y="-16.78" class="shape-1" width="540.347" height="323.156"/>
			  <polygon class="shape-2" points="359.41,188.198 359.41,101.395 284.236,144.796  "/>
			  <polygon class="shape-2" points="142.182,101.541 142.182,188.052 217.103,144.796  "/>
			  <polygon class="shape-2" points="33.503,289.557 108.615,332.922 108.615,246.191   "/>
			  <polygon class="shape-2" points="467.898,0 392.976,-43.256 392.976,43.256   "/>
			  <polygon class="shape-2" points="33.504,0.036 108.615,43.402 108.615,-43.329  "/>
			  <polygon class="shape-2" points="467.958,289.627 392.976,246.336 392.976,332.918  "/>
			  <polygon class="shape-3" points="279.866,272.809 260.487,272.809 250.796,256.026 241.107,272.809 221.728,272.809 231.417,289.592 
			    221.728,306.375 241.107,306.375 250.796,323.158 260.486,306.375 279.866,306.375 270.176,289.592   "/>
			  <polygon class="shape-3" points="279.865,-16.783 260.486,-16.783 250.796,-33.566 241.106,-16.783 221.727,-16.783 231.417,0 
			    221.727,16.783 241.106,16.783 250.795,33.565 260.485,16.783 279.865,16.783 270.175,0  "/>
			  <polygon class="shape-3" points="19.381,144.796 29.07,128.014 9.691,128.014 0.001,111.23 -9.689,128.014 -29.067,128.014 
			    -19.378,144.796 -29.068,161.581 -9.688,161.581 0.001,178.363 9.69,161.581 29.071,161.581  "/>
			  <polygon class="shape-3" points="520.968,144.797 530.658,128.015 511.28,128.015 501.589,111.231 491.9,128.015 472.521,128.015 
			    482.21,144.797 472.52,161.582 491.901,161.582 501.589,178.363 511.278,161.582 530.659,161.582   "/>
			  <polygon class="shape-4" points="142.182,62.782 108.615,43.402 108.615,82.161 142.182,101.541   "/>
			  <polygon class="shape-4" points="359.41,226.958 392.976,246.336 392.976,207.578 359.41,188.198  "/>
			  <polygon class="shape-4" points="142.182,188.052 108.615,207.432 108.615,246.191 142.182,226.811  "/>
			  <polygon class="shape-4" points="359.41,101.395 392.976,82.015 392.976,43.256 359.41,62.636   "/>
			  <polygon class="shape-4" points="250.669,164.176 284.236,144.796 250.669,125.417 217.103,144.796  "/>
			  <polygon class="shape-4" points="501.464,19.379 535.031,0 501.464,-19.38 467.898,0  "/>
			  <polygon class="shape-4" points="-0.063,270.177 -33.629,289.557 -0.063,308.936 33.503,289.557   "/>
			  <polygon class="shape-4" points="-0.062,-19.343 -33.628,0.036 -0.062,19.416 33.504,0.036  "/>
			  <polygon class="shape-4" points="501.525,309.007 535.091,289.628 501.524,270.249 467.958,289.627  "/>
			  <polygon class="shape-5" points="467.898,0 501.464,-19.38 392.976,-82.016 392.976,-43.256   "/>
			  <polygon class="shape-5" points="221.728,272.809 142.182,272.809 142.182,226.811 108.615,246.191 108.615,332.922 142.182,352.302 
			    142.182,306.375 221.728,306.375 231.417,289.592   "/>
			  <polygon class="shape-5" points="359.41,226.958 359.41,272.809 279.866,272.809 270.176,289.592 279.866,306.375 359.41,306.375 
			    359.41,352.298 392.976,332.918 392.976,246.336  "/>
			  <polygon class="shape-5" points="284.236,144.796 250.669,164.176 290.537,187.194 250.796,256.026 260.487,272.809 279.866,272.809 
			    319.606,203.977 359.41,226.958 359.41,188.198   "/>
			  <polygon class="shape-5" points="221.727,-16.783 142.182,-16.783 142.182,-62.709 108.615,-43.329 108.615,43.402 142.182,62.782 
			    142.182,16.783 221.727,16.783 231.417,0   "/>
			  <polygon class="shape-5" points="359.41,-62.636 359.41,-16.783 279.865,-16.783 270.175,0 279.865,16.783 359.41,16.783 
			    359.41,62.636 392.976,43.256 392.976,-43.256  "/>
			  <polygon class="shape-5" points="250.795,33.565 241.106,16.783 221.727,16.783 181.922,85.726 142.182,62.782 142.182,101.541 
			    217.103,144.796 250.669,125.417 210.991,102.508   "/>
			  <polygon class="shape-5" points="108.615,82.161 108.615,128.014 29.07,128.014 19.381,144.796 29.071,161.581 108.615,161.581 
			    108.615,207.432 142.182,188.052 142.182,101.541   "/>
			  <polygon class="shape-5" points="33.504,0.036 -0.062,19.416 39.742,42.397 0.001,111.23 9.691,128.014 29.07,128.014 68.812,59.18 
			    108.615,82.161 108.615,43.402   "/>
			  <polygon class="shape-5" points="535.093,0.037 501.527,19.417 541.331,42.398 501.589,111.231 511.28,128.015 530.658,128.015 
			    570.4,59.181 610.204,82.162 610.204,43.403  "/>
			  <polygon class="shape-5" points="472.521,128.015 392.976,128.015 392.976,82.015 359.41,101.395 359.41,188.198 392.976,207.578 
			    392.976,161.582 472.52,161.582 482.21,144.797   "/>
			  <polygon class="shape-5" points="501.589,178.363 491.901,161.582 472.52,161.582 432.717,230.522 392.976,207.578 392.976,246.336 
			    467.958,289.627 501.524,270.249 461.786,247.305   "/>
			  <polygon class="shape-5" points="0.001,178.362 -9.688,161.581 -29.068,161.581 -68.871,230.521 -108.612,207.577 -108.612,246.335 
			    -33.63,289.626 -0.064,270.248 -39.803,247.304   "/>
			  <polygon class="shape-5" points="33.503,289.557 -0.063,308.936 108.615,371.681 108.615,332.922  "/>
			  <polygon class="shape-5" points="210.993,187.083 250.669,164.176 217.103,144.796 142.182,188.052 142.182,226.811 181.924,203.866 
			    221.728,272.809 241.107,272.809 250.796,256.026   "/>
			  <polygon class="shape-5" points="319.605,85.617 279.865,16.783 260.485,16.783 250.795,33.565 290.537,102.399 250.669,125.417 
			    284.236,144.796 359.41,101.395 359.41,62.636  "/>
			  <polygon class="shape-5" points="68.811,230.413 29.071,161.581 9.69,161.581 0.001,178.363 39.742,247.196 -0.063,270.177 
			    33.503,289.557 108.615,246.191 108.615,207.432  "/>
			  <polygon class="shape-5" points="570.398,230.414 530.658,161.582 511.278,161.582 501.589,178.364 541.33,247.197 501.525,270.178 
			    535.091,289.558 610.203,246.192 610.203,207.433   "/>
			  <polygon class="shape-5" points="461.786,42.288 501.464,19.379 467.898,0 392.976,43.256 392.976,82.015 432.716,59.071 
			    472.521,128.015 491.9,128.015 501.589,111.231   "/>
			  <polygon class="shape-5" points="-39.803,42.287 -0.125,19.378 -33.691,-0.001 -108.613,43.255 -108.613,82.014 -68.873,59.07 
			    -29.068,128.014 -9.689,128.014 0,111.23   "/>
			  <polygon class="shape-5" points="108.615,-43.329 108.615,-82.088 -0.062,-19.343 33.504,0.036  "/>
			  <polygon class="shape-5" points="392.976,332.918 392.976,371.678 501.525,309.007 467.958,289.627  "/>
      </g>
      <g class="guides">
			  <line class="st0" x1="-125.397" y1="144.796" x2="626.988" y2="144.795"/>
			  <polyline class="st0" points="626.988,72.398 0,434.389 0,-144.797 626.988,217.194   "/>
			  <polyline class="st0" points="-125.396,72.398 501.589,434.388 501.588,-144.795 -125.396,217.194   "/>
			  <line class="st0" x1="376.193" y1="-72.398" x2="376.193" y2="361.991"/>
			  <line class="st0" x1="125.398" y1="-72.399" x2="125.398" y2="361.991"/>
			  <line class="st0" x1="0" y1="-144.797" x2="334.392" y2="434.388"/>
			  <line class="st0" x1="501.588" y1="-144.795" x2="167.196" y2="434.388"/>
			  <line class="st0" x1="334.393" y1="-144.796" x2="0" y2="434.389"/>
			  <line class="st0" x1="167.197" y1="-144.796" x2="501.589" y2="434.388"/>
			  <polygon class="st0" points="0,289.592 501.589,0 626.988,72.398 626.988,217.194 501.589,289.592 0,0 -125.396,72.398 
			    -125.396,217.194  "/>
			  <circle class="st0" cx="250.795" cy="0" r="125.398"/>
			  <circle class="st0" cx="250.794" cy="289.591" r="125.398"/>
			  <circle class="st0" cx="501.59" cy="144.795" r="125.398"/>
			  <circle class="st0" cx="0" cy="144.796" r="125.398"/>
			  <circle class="st0" cx="250.794" cy="-0.001" r="33.565"/>
			  <circle class="st0" cx="250.794" cy="289.592" r="33.565"/>
			  <circle class="st0" cx="0" cy="144.796" r="33.565"/>
			  <circle class="st0" cx="501.589" cy="144.796" r="33.565"/>
			  <polygon class="st0" points="-83.598,289.591 585.188,289.592 334.393,-144.796 167.197,-144.796  "/>
			  <polygon class="st0" points="-83.598,0 167.197,434.388 167.196,434.388 334.392,434.388 334.393,434.388 585.188,0  "/>
			  <line class="st0" x1="250.794" y1="-125.398" x2="250.793" y2="414.99"/>
			  <line class="st0" x1="108.614" y1="-43.329" x2="108.614" y2="332.922"/>
			  <line class="st0" x1="142.182" y1="-62.708" x2="142.182" y2="352.302"/>
			  <line class="st0" x1="359.411" y1="-62.709" x2="359.41" y2="352.298"/>
			  <line class="st0" x1="393.024" y1="-81.736" x2="393.024" y2="371.708"/>
			  <line class="st0" x1="0" y1="-19.379" x2="535.154" y2="289.592"/>
			  <line class="st0" x1="-33.692" y1="0" x2="501.525" y2="309.007"/>
			  <line class="st0" x1="535.031" y1="0" x2="-1.5" y2="309.766"/>
			  <line class="st0" x1="-33.569" y1="289.591" x2="501.588" y2="-19.308"/>

      </g>
</svg>
