<svg xmlns="http://www.w3.org/2000/svg" width="501.6" height="289.6" viewBox="0 0 501.6 289.6">
  <style>
    :root { --black: #443430; --red: #BF402B; --gold: #CEA600; --turquois: #4D9BA3; --white: #FFFAF2; } .shape-3{fill:var(--turquois)} .shape-5{fill:var(--white)} .shape-1{fill:var(--red)} .shape-4{fill:var(--gold)} .shape-2{fill:var(--black)} .guides{ stroke: #4FFF4F; display: none; fill: none}
  </style>
  <g class="line" id="pattern">
    <path class="shape-1" d="M68.8 230.4l-39.7-68.8h79.5v45.8l-39.8 23zm181.9-105l39.8-23-39.7-68.8-39.8 69 39.7 22.8zM0 111.2l39.7-68.8L0 19.4l-39.7 22.9 39.8 69zM108.6 128V82.2l-39.8-23L29.1 128h79.5zm33.6-65.2l39.7 23 39.8-69h-79.5v46zm177.4 22.8l39.8-23V16.8H280l39.7 68.8zm142.2-43.3l39.8 69 39.7-68.9-39.8-23-39.7 22.9zm-422 204.9L0 178.4l-39.8 68.9 39.7 23v-.1l39.8-23zM393 161.6v46l39.7 23 39.8-69H393zm108.6 16.8l-39.8 68.9 39.7 23v-.1l39.8-23-39.7-68.8m-319.7 25.5l-39.7 23v46h79.5l-39.8-69zm68.8-39.7L211 187l39.8 69 39.7-69-39.8-23zM359.4 227l-39.8-23-39.7 68.8h79.5V227zm73.3-168L393 82v46h79.5l-39.8-69z"/>
    <path class="shape-2" d="M359.4 188.2v-86.8l-75.2 43.4zM142.2 101.5v86.6l74.9-43.3zM33.5 289.6l75.1 43.3v-86.7zM467.9 0L393-43.3v86.6zM33.5 0l75.1 43.4v-86.7zM468 289.6l-75-43.3v86.6z"/>
    <path class="shape-3" d="M279.9 272.8h-19.4l-9.7-16.8-9.7 16.8h-19.4l9.7 16.8-9.7 16.8h19.4l9.7 16.8 9.7-16.8h19.4l-9.7-16.8zM279.9-16.8h-19.4l-9.7-16.8-9.7 16.8h-19.4L231.4 0l-9.7 16.8h19.4l9.7 16.8 9.7-16.8h19.4L270.2 0zM19.4 144.8l9.7-16.8H9.7L0 111.2-9.7 128h-19.4l9.7 16.8-9.7 16.8h19.4L0 178.4l9.7-16.8h19.4zM521 144.8l9.7-16.8h-19.4l-9.7-16.8-9.7 16.8h-19.4l9.7 16.8-9.7 16.8h19.4l9.7 16.8 9.7-16.8h19.4z"/>
    <path class="shape-4" d="M142.2 62.8l-33.6-19.4v38.8l33.6 19.3zM359.4 227l33.6 19.3v-38.7l-33.6-19.4zM142.2 188.1l-33.6 19.3v38.8l33.6-19.4zM359.4 101.4L393 82V43.3l-33.6 19.3zM250.7 164.2l33.5-19.4-33.5-19.4-33.6 19.4zM501.5 19.4L535 0l-33.5-19.4L467.9 0zM-.1 270.2l-33.5 19.4 33.5 19.3 33.6-19.3zM-.1-19.3L-33.6 0-.1 19.4 33.5 0zM501.5 309l33.6-19.4-33.6-19.4-33.5 19.4z"/>
    <path class="shape-5" d="M467.9 0l33.6-19.4L393-82v38.7zM221.7 272.8h-79.5v-46l-33.6 19.4v86.7l33.6 19.4v-45.9h79.5l9.7-16.8zM359.4 227v45.8h-79.5l-9.7 16.8 9.7 16.8h79.5v45.9l33.6-19.4v-86.6z"/>
    <path class="shape-5" d="M284.2 144.8l-33.5 19.4 39.8 23-39.7 68.8 9.7 16.8h19.4l39.7-68.8 39.8 23v-38.8zM221.7-16.8h-79.5v-45.9l-33.6 19.4v86.7l33.6 19.4v-46h79.5L231.4 0zM359.4-62.6v45.8h-79.5L270.2 0l9.7 16.8h79.5v45.8L393 43.3v-86.6zM250.8 33.6l-9.7-16.8h-19.4l-39.8 68.9-39.7-22.9v38.7l74.9 43.3 33.6-19.4-39.7-22.9zM108.6 82.2V128H29.1l-9.7 16.8 9.7 16.8h79.5v45.8l33.6-19.3v-86.6z"/>
    <path class="shape-5" d="M33.5 0L-.1 19.4l39.8 23L0 111.2 9.7 128h19.4l39.7-68.8 39.8 23V43.4zM535.1 0l-33.6 19.4 39.8 23-39.7 68.8 9.7 16.8h19.4l39.7-68.8 39.8 23V43.4zM472.5 128H393V82l-33.6 19.4v86.8l33.6 19.4v-46h79.5l9.7-16.8zM501.6 178.4l-9.7-16.8h-19.4l-39.8 68.9-39.7-22.9v38.7l75 43.3 33.5-19.4-39.7-22.9zM0 178.4l-9.7-16.8h-19.4l-39.8 68.9-39.7-22.9v38.7l75 43.3 33.5-19.4-39.7-22.9zM33.5 289.6L-.1 308.9l108.7 62.8v-38.8zM211 187.1l39.7-22.9-33.6-19.4-74.9 43.3v38.7l39.7-22.9 39.8 68.9h19.4l9.7-16.8z"/>
    <path class="shape-5" d="M319.6 85.6l-39.7-68.8h-19.4l-9.7 16.8 39.7 68.8-39.8 23 33.5 19.4 75.2-43.4V62.6zM68.8 230.4l-39.7-68.8H9.7L0 178.4l39.7 68.8-39.8 23 33.6 19.4 75.1-43.4v-38.8zM570.4 230.4l-39.7-68.8h-19.4l-9.7 16.8 39.7 68.8-39.8 23 33.6 19.4 75.1-43.4v-38.8zM461.8 42.3l39.7-22.9L467.9 0 393 43.3V82l39.7-22.9 39.8 68.9h19.4l9.7-16.8zM-39.8 42.3L-.1 19.4-33.7 0l-74.9 43.3V82l39.7-22.9 39.8 68.9h19.4L0 111.2zM108.6-43.3v-38.8L-.1-19.3 33.5 0zM393 332.9v38.8L501.5 309 468 289.6z"/>
  </g>
  <g class="guides">
    <path d="M-125.4 144.8H627M627 72.4L0 434.4v-579.2l627 362"/>
    <path d="M-125.4 72.4l627 362v-579.2l-627 362M376.2-72.4V362M125.4-72.4V362M0-144.8l334.4 579.2M501.6-144.8L167.2 434.4M334.4-144.8L0 434.4M167.2-144.8l334.4 579.2"/>
    <path d="M0 289.6L501.6 0 627 72.4v144.8l-125.4 72.4L0 0l-125.4 72.4v144.8z"/>
    <circle cx="250.8" r="125.4"/>
    <circle cx="250.8" cy="289.6" r="125.4"/>
    <circle cx="501.6" cy="144.8" r="125.4"/>
    <circle cy="144.8" r="125.4"/>
    <circle cx="250.8" r="33.6"/>
    <circle cx="250.8" cy="289.6" r="33.6"/>
    <circle cy="144.8" r="33.6"/>
    <circle cx="501.6" cy="144.8" r="33.6"/>
    <path d="M-83.6 289.6h668.8L334.4-144.8H167.2z"/>
    <path d="M-83.6 0l250.8 434.4h167.2L585.2 0zM250.8-125.4V415M108.6-43.3v376.2M142.2-62.7v415M359.4-62.7v415M393-81.7v453.4M0-19.4l535.2 309M-33.7 0l535.2 309M535 0L-1.5 309.8M-33.6 289.6L501.6-19.3"/>
  </g>
</svg>
