<svg version="1.1" xmlns="http://www.w3.org/2000/svg" width="184.753" height="320" viewBox="0 0 100% 100%">
  <style>
    :root {
      --golden: #907A58;
      --darkBlue: #475387;
      --beige: #DFD8CC;
      --teal: #4A9AC4;
      --gray: #A49DA0;
      --smaragd: #406A72;
      --sand: #D3BDA7;
      --grayGreen: #A2D1D6;
      --blueGray: #758390;
      --lightBrown: #AA8858;
      --blue1: #8EC5EE;
      --blue2: #8CC6EA;
      --blue3: #B6DAEC;
      --rust: #D8692D;
      --yellow: #F8C346;

            --black: #443430;
      --red: #BF402B;
      --gold: #CEA600;
      --turquois: #4D9BA3;
      --emerald: #216554;
      --blue: #262F66;
      --white: #FFFAF2;

    }
    .shape-7{fill:var(--white)}
    .shape-4{fill:var(--red)}
    .shape-6{fill:var(--white)}
    .shape-1{fill:var(--white)}
    .shape-2{fill:var(--black)}
    .shape-3{fill:var(--turquois)}
    .shape-5{fill:var(--white)}
    <!-- .line{stroke:#fff;stroke-width:5px} -->
    .guides{ stroke: #4FFF4F; display: none; fill: none}
  </style>
      <g class="line" id="pattern">
			  <rect class="shape-1" x="-5.737" y="-10" width="196.258" height="350.001"/>
			  <polygon class="shape-2" points="121.244,210.001 115.47,220.001 121.239,230.009 109.697,230.001 103.923,240.001 92.376,220.001 
			    80.829,240.001 75.056,230.001 63.509,230.001 69.282,220.001 63.509,210.001 86.603,210.001 75.056,190.002 86.603,190.002 
			    92.375,180 98.149,190.002 109.697,190.002 98.15,210.002   "/>
			  <polygon class="shape-2" points="11.543,240.01 17.316,250.01 28.868,250.018 23.09,260.01 28.863,270.01 5.77,270.01 17.316,290.01 
			    5.77,290.01 -0.004,300.01 -5.777,290.01 -17.324,290.01 -5.777,270.01 -28.87,270.01 -23.097,260.01 -28.873,250.01 
			    -17.324,250.01 -11.55,240.01 -0.003,260.01  "/>
			  <polygon class="shape-2" points="202.083,290.002 190.536,290.002 184.754,300.001 178.99,290.001 167.443,290.001 178.99,270.001 
			    155.896,270.001 161.67,260.001 155.896,250.001 167.443,250.001 173.217,240.001 184.764,260.001 196.309,240.003 
			    202.082,250.002 213.631,250.001 207.856,260.002 213.629,270.001 190.535,270.001   "/>
			  <polygon class="shape-2" points="63.558,109.986 69.332,99.986 63.562,89.979 75.104,89.986 80.879,79.986 92.425,99.986 
			    103.973,79.986 109.746,89.986 121.292,89.986 115.52,99.986 121.293,109.986 98.199,109.986 109.746,129.985 98.199,129.985 
			    92.427,139.987 86.652,129.985 75.104,129.985 86.652,109.985   "/>
			  <polygon class="shape-2" points="173.259,79.978 167.485,69.978 155.934,69.97 161.712,59.978 155.938,49.978 179.032,49.978 
			    167.485,29.978 179.032,29.978 184.806,19.978 190.58,29.978 202.127,29.978 190.58,49.978 213.672,49.978 207.898,59.978 
			    213.676,69.978 202.127,69.978 196.352,79.978 184.805,59.978   "/>
			  <polygon class="shape-2" points="-17.281,29.985 -5.734,29.985 0.048,19.986 5.812,29.986 17.358,29.986 5.812,49.986 28.905,49.986 
			    23.132,59.986 28.905,69.986 17.358,69.986 11.585,79.986 0.038,59.986 -11.507,79.984 -17.28,69.985 -28.829,69.986 
			    -23.055,59.985 -28.827,49.986 -5.733,49.986   "/>
			  <polygon class="shape-3" points="138.564,220 132.791,229.999 121.244,229.999 127.017,239.999 121.244,249.999 132.805,250.009 
			    138.562,260.003 144.337,249.999 155.885,249.999 150.111,239.999 155.952,229.999 144.344,229.999   "/>
			  <polygon class="shape-3" points="28.863,230.009 34.636,240.009 28.862,250.008 40.409,250.009 46.183,260.008 51.971,250.002 
			    63.505,250.013 57.729,240.009 63.503,230.009 51.956,230.009 46.216,219.951 40.412,230.003   "/>
			  <polygon class="shape-3" points="-17.32,330.017 -5.773,330.019 0,340.018 5.773,330.019 17.32,330.019 11.549,320.003 17.324,310.019 
			    5.773,310.019 0,300.019 -5.773,310.019 -17.354,309.961 -11.551,320.013  "/>
			  <polygon class="shape-3" points="202.084,310.003 190.539,309.999 184.764,300.001 178.991,309.999 167.443,310.001 173.216,320.015 
			    167.439,330 178.991,330 184.765,340 190.539,329.999 202.119,330.058 196.316,320.007   "/>
			  <polygon class="shape-3" points="46.237,99.987 52.011,89.988 63.558,89.988 57.785,79.988 63.558,69.988 51.997,69.979 46.24,59.984 
			    40.464,69.988 28.917,69.988 34.69,79.988 28.85,89.988 40.458,89.988   "/>
			  <polygon class="shape-3" points="155.938,89.979 150.166,79.979 155.939,69.979 144.393,69.979 138.619,59.979 132.831,69.985 
			    121.297,69.975 127.072,79.979 121.299,89.979 132.846,89.979 138.586,100.036 144.39,89.984   "/>
			  <polygon class="shape-3" points="202.123,-10.029 190.576,-10.031 184.802,-20.03 179.028,-10.031 167.481,-10.031 173.253,-0.016 
			    167.478,9.969 179.028,9.969 184.802,19.969 190.576,9.969 202.156,10.026 196.354,-0.025  "/>
			  <polygon class="shape-3" points="-17.282,9.984 -5.737,9.988 0.038,19.986 5.811,9.988 17.358,9.986 11.586,-0.027 17.362,-10.013 
			    5.811,-10.013 0.037,-20.013 -5.737,-10.012 -17.317,-10.07 -11.515,-0.02   "/>
			  <polygon class="shape-3" points="75.11,169.994 86.657,169.996 92.431,179.995 98.204,169.996 109.751,169.996 103.979,159.98 
			    109.755,149.996 98.204,149.996 92.431,139.996 86.657,149.996 75.077,149.938 80.88,159.99  "/>
			  <polygon class="shape-4" points="121.249,270.006 115.475,260.007 121.244,249.999 109.702,250.007 103.928,240.007 92.381,260.007 
			    80.834,240.007 75.061,250.006 63.514,250.006 69.287,260.007 63.514,270.006 80.834,270.006 80.834,300.01 92.38,306.67 
			    103.928,300.009 103.928,270.006   "/>
			  <polygon class="shape-4" points="63.512,270.008 51.965,270.008 46.183,260.008 40.418,270.008 28.871,270.009 40.418,290.008 
			    17.324,290.008 23.097,300.008 17.323,310.008 28.871,310.008 34.644,320.008 43.304,305.008 69.288,320.01 80.829,313.341 
			    80.834,300.01 54.851,285.008  "/>
			  <polygon class="shape-4" points="34.645,320.011 28.871,330.011 17.32,330.019 23.098,340.011 17.325,350.011 40.418,350.011 
			    28.871,370.01 40.418,370.011 46.191,380.011 51.965,370.011 63.512,370.011 54.852,355.011 80.836,340.009 80.83,326.68 
			    69.288,320.01 43.305,335.011  "/>
			  <polygon class="shape-4" points="121.253,370.011 132.8,370.011 138.582,380.011 144.347,370.012 155.895,370.011 144.347,350.012 
			    167.44,350.013 161.668,340.011 167.441,330.011 155.895,330.011 150.121,320.011 141.46,335.012 115.477,320.009 103.936,326.679 
			    103.931,340.01 129.913,355.012  "/>
			  <polygon class="shape-4" points="150.119,320.008 155.893,310.008 167.443,310.001 161.667,300.009 167.439,290.007 144.346,290.009 
			    155.895,270.009 144.346,270.007 138.572,260.007 132.799,270.007 121.252,270.007 129.912,285.009 103.928,300.009 
			    103.934,313.339 115.477,320.009 141.459,305.009   "/>
			  <polygon class="shape-4" points="63.553,49.981 69.327,59.98 63.558,69.988 75.1,69.98 80.874,79.98 92.42,59.98 103.968,79.98 
			    109.741,69.981 121.288,69.981 115.515,59.98 121.288,49.981 103.968,49.981 103.968,19.978 92.422,13.317 80.874,19.979 
			    80.874,49.981   "/>
			  <polygon class="shape-4" points="121.29,49.979 132.837,49.979 138.619,59.979 144.384,49.979 155.931,49.979 144.384,29.979 
			    167.478,29.979 161.705,19.979 167.479,9.979 155.931,9.979 150.158,-0.021 141.498,14.979 115.514,-0.022 103.973,6.646 
			    103.968,19.978 129.951,34.979   "/>
			  <polygon class="shape-4" points="150.157,-0.023 155.931,-10.023 167.481,-10.031 161.704,-20.023 167.477,-30.023 144.384,-30.023 
			    155.931,-50.022 144.384,-50.023 138.61,-60.023 132.837,-50.023 121.29,-50.023 129.95,-35.023 103.966,-20.021 103.972,-6.692 
			    115.514,-0.022 141.497,-15.023  "/>
			  <polygon class="shape-4" points="63.549,-50.023 52.002,-50.023 46.22,-60.023 40.455,-50.024 28.907,-50.023 40.455,-30.024 
			    17.361,-30.025 23.134,-20.023 17.36,-10.023 28.907,-10.023 34.681,-0.023 43.342,-15.024 69.325,-0.021 80.866,-6.691 
			    80.871,-20.022 54.889,-35.024   "/>
			  <polygon class="shape-4" points="34.683,-0.021 28.909,9.979 17.358,9.986 23.135,19.979 17.362,29.98 40.456,29.979 28.907,49.979 
			    40.456,49.98 46.229,59.98 52.003,49.98 63.55,49.98 54.89,34.979 80.874,19.979 80.868,6.648 69.325,-0.021 43.343,14.979  "/>
			  <polygon class="shape-4" points="213.68,109.983 207.906,99.984 213.675,89.977 202.133,89.984 196.358,79.984 184.812,99.984 
			    173.265,79.984 167.492,89.983 155.945,89.983 161.718,99.984 155.944,109.983 173.265,109.983 173.265,139.987 184.811,146.647 
			    196.358,139.986 196.358,109.983   "/>
			  <polygon class="shape-4" points="155.942,109.985 144.396,109.985 138.613,99.985 132.849,109.985 121.302,109.986 132.849,129.985 
			    109.755,129.985 115.527,139.985 109.754,149.985 121.302,149.985 127.074,159.985 135.734,144.985 161.719,159.987 
			    173.26,153.318 173.265,139.987 147.281,124.985  "/>
			  <polygon class="shape-4" points="127.075,159.988 121.302,169.988 109.751,169.996 115.528,179.988 109.756,189.988 132.849,189.988 
			    121.302,209.987 132.849,209.988 138.622,219.988 144.396,209.988 155.942,209.988 147.282,194.988 173.267,179.986 
			    173.261,166.657 161.719,159.987 135.735,174.988   "/>
			  <polygon class="shape-4" points="155.946,209.991 161.72,219.991 155.951,229.999 167.493,229.991 173.268,239.991 184.813,219.991 
			    196.359,239.991 202.135,229.991 213.682,229.991 207.908,219.991 213.682,209.991 196.36,209.991 196.361,179.987 
			    184.814,173.327 173.268,179.988 173.267,209.991   "/>
			  <polygon class="shape-4" points="-28.852,209.951 -23.078,219.95 -28.847,229.958 -17.305,229.95 -11.53,239.95 0.016,219.95 
			    11.563,239.95 17.336,229.951 28.883,229.951 23.11,219.95 28.884,209.951 11.563,209.951 11.563,179.947 0.018,173.287 
			    -11.53,179.948 -11.53,209.951   "/>
			  <polygon class="shape-4" points="28.886,209.949 40.433,209.949 46.215,219.949 51.979,209.949 63.526,209.948 51.979,189.949 
			    75.073,189.949 69.301,179.949 75.074,169.949 63.526,169.949 57.754,159.949 49.094,174.949 23.109,159.947 11.568,166.616 
			    11.563,179.947 37.547,194.949   "/>
			  <polygon class="shape-4" points="57.753,159.946 63.526,149.946 75.077,149.938 69.3,139.946 75.072,129.946 51.979,129.946 
			    63.526,109.947 51.979,109.946 46.206,99.946 40.433,109.946 28.886,109.946 37.546,124.946 11.562,139.948 11.567,153.277 
			    23.109,159.947 49.093,144.946   "/>
			  <polygon class="shape-4" points="28.882,109.943 23.108,99.943 28.877,89.936 17.335,89.943 11.561,79.943 0.015,99.943 
			    -11.531,79.943 -17.307,89.943 -28.854,89.943 -23.08,99.943 -28.854,109.943 -11.532,109.943 -11.533,139.947 0.014,146.607 
			    11.561,139.946 11.562,109.943   "/>
			  <polygon class="shape-5" points="92.376,220.001 80.834,240.007 92.381,260.007 103.928,240.007   "/>
			  <polygon class="shape-5" points="5.77,270.01 17.324,290.008 40.418,290.008 28.871,270.009   "/>
			  <polygon class="shape-5" points="178.99,270.001 155.895,270.009 144.346,290.009 167.439,290.007   "/>
			  <polygon class="shape-5" points="92.425,99.986 103.968,79.98 92.42,59.98 80.874,79.98   "/>
			  <polygon class="shape-5" points="179.032,49.978 167.478,29.979 144.384,29.979 155.931,49.979  "/>
			  <polygon class="shape-5" points="5.812,49.986 28.907,49.979 40.456,29.979 17.362,29.98  "/>
			  <polygon class="shape-5" points="184.807,59.979 173.265,79.984 184.812,99.984 196.358,79.984  "/>
			  <polygon class="shape-5" points="98.2,109.987 109.755,129.985 132.849,129.985 121.302,109.986   "/>
			  <polygon class="shape-5" points="98.206,209.995 121.302,209.987 132.849,189.988 109.756,189.988   "/>
			  <polygon class="shape-5" points="184.818,259.997 196.359,239.991 184.813,219.991 173.268,239.991  "/>
			  <polygon class="shape-5" points="0.021,259.956 11.563,239.95 0.016,219.95 -11.53,239.95   "/>
			  <polygon class="shape-5" points="86.628,209.947 75.073,189.949 51.979,189.949 63.526,209.948  "/>
			  <polygon class="shape-5" points="86.622,109.939 63.526,109.947 51.979,129.946 75.072,129.946  "/>
			  <polygon class="shape-5" points="0.01,59.938 -11.531,79.943 0.015,99.943 11.561,79.943  "/>
			  <polygon class="shape-6" points="103.928,270.006 121.249,270.006 129.903,285 103.928,300.009  "/>
			  <polygon class="shape-6" points="54.851,285.008 63.512,270.008 80.824,270.01 80.834,300.01  "/>
			  <polygon class="shape-6" points="43.305,335.011 34.645,320.011 43.303,305.019 69.288,320.01   "/>
			  <polygon class="shape-6" points="141.459,305.009 150.119,320.008 141.461,335.001 115.477,320.009  "/>
			  <polygon class="shape-6" points="80.874,49.981 63.553,49.981 54.898,34.987 80.874,19.979  "/>
			  <polygon class="shape-6" points="129.951,34.979 121.29,49.979 103.978,49.978 103.968,19.978   "/>
			  <polygon class="shape-6" points="141.497,-15.023 150.157,-0.023 141.499,14.969 115.514,-0.022   "/>
			  <polygon class="shape-6" points="43.343,14.979 34.683,-0.021 43.341,-15.014 69.325,-0.021   "/>
			  <polygon class="shape-6" points="147.281,124.985 155.942,109.985 173.255,109.987 173.265,139.987  "/>
			  <polygon class="shape-6" points="135.735,174.988 127.075,159.988 135.733,144.996 161.719,159.987  "/>
			  <polygon class="shape-6" points="173.267,209.991 155.946,209.991 147.291,194.997 173.268,179.988  "/>
			  <polygon class="shape-6" points="37.547,194.949 28.886,209.949 11.573,209.947 11.563,179.947  "/>
			  <polygon class="shape-6" points="49.093,144.946 57.753,159.946 49.095,174.938 23.109,159.947  "/>
			  <polygon class="shape-6" points="11.562,109.943 28.882,109.943 37.537,124.938 11.561,139.946  "/>
			  <polygon class="shape-7" points="80.834,300.01 80.829,313.341 69.288,320.01 80.83,326.68 80.837,340.011 92.384,333.35 
			    103.931,340.01 103.936,326.679 115.477,320.009 103.934,313.339 103.928,300.009 92.38,306.67   "/>
			  <polygon class="shape-7" points="103.968,19.978 103.973,6.646 115.514,-0.022 103.972,-6.692 103.965,-20.023 92.418,-13.362 
			    80.871,-20.022 80.866,-6.691 69.325,-0.021 80.868,6.648 80.874,19.979 92.422,13.317   "/>
			  <polygon class="shape-7" points="173.265,139.987 173.26,153.318 161.719,159.987 173.261,166.657 173.268,179.988 184.814,173.327 
			    196.361,179.987 196.366,166.656 207.907,159.986 196.364,153.316 196.358,139.986 184.811,146.647   "/>
			  <polygon class="shape-7" points="11.563,179.947 11.568,166.616 23.109,159.947 11.567,153.277 11.561,139.946 0.014,146.607 -11.533,139.947 -11.538,153.278 -23.079,159.948 -11.536,166.618 -11.53,179.948 0.018,173.287  "/>
      </g>
      <g class="guides">
        <g>
          <line class="st1" x1="92.376" y1="520" x2="-219.393" y2="-20"/>
          <line class="st1" x1="101.036" y1="515" x2="-210.732" y2="-25"/>
          <line class="st1" x1="109.696" y1="510" x2="-202.072" y2="-30"/>
          <line class="st1" x1="118.356" y1="505" x2="-193.412" y2="-35"/>
          <line class="st1" x1="127.017" y1="500" x2="-184.752" y2="-40"/>
          <line class="st1" x1="135.677" y1="495" x2="-176.092" y2="-45"/>
          <line class="st1" x1="144.337" y1="490" x2="-167.432" y2="-50"/>
          <line class="st1" x1="152.997" y1="485" x2="-158.771" y2="-55"/>
          <line class="st1" x1="161.657" y1="480" x2="-150.111" y2="-60"/>
          <line class="st1" x1="170.318" y1="475" x2="-141.451" y2="-65"/>
          <line class="st1" x1="178.978" y1="470" x2="-132.791" y2="-70"/>
          <line class="st1" x1="187.639" y1="465" x2="-124.131" y2="-75"/>
          <line class="st1" x1="196.299" y1="460" x2="-115.471" y2="-80"/>
          <line class="st1" x1="204.959" y1="455" x2="-106.811" y2="-85"/>
          <line class="st1" x1="213.619" y1="450" x2="-98.149" y2="-90"/>
          <line class="st1" x1="222.279" y1="445" x2="-89.489" y2="-95"/>
          <line class="st1" x1="230.939" y1="440" x2="-80.829" y2="-100"/>
          <line class="st1" x1="239.6" y1="435" x2="-72.169" y2="-105"/>
          <line class="st1" x1="248.26" y1="430" x2="-63.509" y2="-110"/>
          <line class="st1" x1="256.922" y1="425" x2="-54.848" y2="-115"/>
          <line class="st1" x1="265.582" y1="420" x2="-46.188" y2="-120"/>
          <line class="st1" x1="274.242" y1="415" x2="-37.527" y2="-125"/>
          <line class="st1" x1="282.902" y1="410" x2="-28.867" y2="-130"/>
          <line class="st1" x1="291.562" y1="405" x2="-20.207" y2="-135"/>
          <line class="st1" x1="300.223" y1="400" x2="-11.547" y2="-140"/>
          <line class="st1" x1="308.883" y1="395" x2="-2.887" y2="-145"/>
          <line class="st1" x1="317.543" y1="390" x2="5.773" y2="-150"/>
          <line class="st1" x1="326.203" y1="385" x2="14.434" y2="-155"/>
          <line class="st1" x1="334.863" y1="380" x2="23.094" y2="-160"/>
          <line class="st1" x1="343.523" y1="375" x2="31.754" y2="-165"/>
          <line class="st1" x1="352.184" y1="370" x2="40.414" y2="-170"/>
          <line class="st1" x1="360.844" y1="365" x2="49.074" y2="-175"/>
          <line class="st1" x1="369.504" y1="360" x2="57.734" y2="-180"/>
          <line class="st1" x1="378.164" y1="355" x2="66.395" y2="-185"/>
          <line class="st1" x1="386.824" y1="350" x2="75.056" y2="-190"/>
          <line class="st1" x1="395.484" y1="345" x2="83.716" y2="-195"/>
          <line class="st1" x1="404.145" y1="340" x2="92.376" y2="-200"/>
        </g>
        <g>
          <line class="st1" x1="404.146" y1="-20" x2="92.376" y2="520"/>
          <line class="st1" x1="395.484" y1="-25" x2="83.715" y2="514.999"/>
          <line class="st1" x1="386.824" y1="-30" x2="75.055" y2="510"/>
          <line class="st1" x1="378.164" y1="-35" x2="66.395" y2="505"/>
          <line class="st1" x1="369.504" y1="-40" x2="57.734" y2="500"/>
          <line class="st1" x1="360.844" y1="-45" x2="49.074" y2="495"/>
          <line class="st1" x1="352.184" y1="-50" x2="40.414" y2="490"/>
          <line class="st1" x1="343.523" y1="-55" x2="31.754" y2="485"/>
          <line class="st1" x1="334.863" y1="-60" x2="23.094" y2="480"/>
          <line class="st1" x1="326.203" y1="-65" x2="14.434" y2="475"/>
          <line class="st1" x1="317.543" y1="-70" x2="5.773" y2="470"/>
          <line class="st1" x1="308.883" y1="-75" x2="-2.887" y2="465"/>
          <line class="st1" x1="300.223" y1="-80" x2="-11.547" y2="460"/>
          <line class="st1" x1="291.562" y1="-85" x2="-20.207" y2="455"/>
          <line class="st1" x1="282.902" y1="-90" x2="-28.867" y2="450"/>
          <line class="st1" x1="274.242" y1="-94.999" x2="-37.527" y2="445"/>
          <line class="st1" x1="265.582" y1="-100" x2="-46.188" y2="440"/>
          <line class="st1" x1="256.922" y1="-105" x2="-54.849" y2="435"/>
          <line class="st1" x1="248.262" y1="-110" x2="-63.509" y2="430"/>
          <line class="st1" x1="239.602" y1="-115" x2="-72.169" y2="425"/>
          <line class="st1" x1="230.941" y1="-120" x2="-80.829" y2="420"/>
          <line class="st1" x1="222.279" y1="-125" x2="-89.49" y2="414.999"/>
          <line class="st1" x1="213.619" y1="-130" x2="-98.15" y2="410"/>
          <line class="st1" x1="204.959" y1="-135" x2="-106.811" y2="405"/>
          <line class="st1" x1="196.299" y1="-140" x2="-115.471" y2="400"/>
          <line class="st1" x1="187.639" y1="-145" x2="-124.131" y2="395"/>
          <line class="st1" x1="178.979" y1="-150" x2="-132.791" y2="390"/>
          <line class="st1" x1="170.318" y1="-155" x2="-141.451" y2="385"/>
          <line class="st1" x1="161.657" y1="-160" x2="-150.111" y2="380"/>
          <line class="st1" x1="152.997" y1="-165" x2="-158.771" y2="375"/>
          <line class="st1" x1="144.337" y1="-170" x2="-167.432" y2="370"/>
          <line class="st1" x1="135.677" y1="-175" x2="-176.092" y2="365"/>
          <line class="st1" x1="127.017" y1="-180" x2="-184.752" y2="360"/>
          <line class="st1" x1="118.356" y1="-185" x2="-193.412" y2="355"/>
          <line class="st1" x1="109.696" y1="-190" x2="-202.072" y2="350"/>
          <line class="st1" x1="101.036" y1="-194.999" x2="-210.732" y2="345"/>
          <line class="st1" x1="92.376" y1="-200" x2="-219.394" y2="340"/>
        </g>
        <g>
          <line class="st1" x1="-150.111" y1="-60" x2="335.201" y2="-59.999"/>
          <line class="st1" x1="-167.432" y1="-50" x2="352.183" y2="-49.999"/>
          <line class="st1" x1="-184.654" y1="-40" x2="369.698" y2="-40"/>
          <line class="st1" x1="-202.072" y1="-30" x2="386.824" y2="-30"/>
          <line class="st1" x1="-219.394" y1="-20" x2="404.149" y2="-20"/>
          <line class="st1" x1="-219.394" y1="-10" x2="404.149" y2="-10"/>
          <line class="st1" x1="-219.394" y1="0" x2="404.149" y2="0"/>
          <line class="st1" x1="-219.394" y1="10" x2="404.149" y2="10"/>
          <line class="st1" x1="-219.394" y1="20" x2="404.151" y2="19.999"/>
          <line class="st1" x1="-219.394" y1="30" x2="404.151" y2="29.999"/>
          <line class="st1" x1="-219.394" y1="40" x2="404.149" y2="39.999"/>
          <line class="st1" x1="-219.394" y1="50" x2="404.149" y2="50.001"/>
          <line class="st1" x1="-219.394" y1="60" x2="404.149" y2="60"/>
          <line class="st1" x1="-219.394" y1="70" x2="404.149" y2="70"/>
          <line class="st1" x1="-219.394" y1="79.999" x2="404.149" y2="80"/>
          <line class="st1" x1="-219.394" y1="89.999" x2="404.149" y2="90"/>
          <line class="st1" x1="-219.394" y1="100" x2="404.149" y2="100.001"/>
          <line class="st1" x1="-219.394" y1="110" x2="404.149" y2="110.001"/>
          <line class="st1" x1="-219.394" y1="120" x2="404.149" y2="120.001"/>
          <line class="st1" x1="-219.394" y1="130" x2="404.149" y2="130.001"/>
          <line class="st1" x1="-219.394" y1="140" x2="404.149" y2="140.001"/>
          <line class="st1" x1="-219.394" y1="150" x2="404.149" y2="150.001"/>
          <line class="st1" x1="-219.394" y1="160" x2="404.149" y2="160"/>
          <line class="st1" x1="-219.394" y1="170" x2="404.149" y2="170"/>
          <line class="st1" x1="-219.394" y1="180" x2="404.149" y2="180"/>
          <line class="st1" x1="-219.394" y1="190" x2="404.149" y2="190"/>
          <line class="st1" x1="-219.394" y1="200" x2="404.149" y2="200"/>
          <line class="st1" x1="-219.394" y1="210" x2="404.149" y2="210"/>
          <line class="st1" x1="-219.394" y1="220" x2="404.151" y2="219.999"/>
          <line class="st1" x1="-219.394" y1="230" x2="404.151" y2="229.999"/>
          <line class="st1" x1="-219.394" y1="240" x2="404.149" y2="239.999"/>
          <line class="st1" x1="-219.394" y1="250" x2="404.149" y2="250.001"/>
          <line class="st1" x1="-219.394" y1="260" x2="404.149" y2="260"/>
          <line class="st1" x1="-219.394" y1="270" x2="404.149" y2="270"/>
          <line class="st1" x1="-219.394" y1="279.999" x2="404.149" y2="280"/>
          <line class="st1" x1="-219.394" y1="289.999" x2="404.149" y2="290"/>
          <line class="st1" x1="-219.394" y1="300" x2="404.149" y2="300.001"/>
          <line class="st1" x1="-219.394" y1="310" x2="404.149" y2="310.001"/>
          <line class="st1" x1="-219.394" y1="320" x2="404.149" y2="320.001"/>
          <line class="st1" x1="-219.394" y1="330" x2="404.149" y2="330.001"/>
          <line class="st1" x1="-219.394" y1="340" x2="404.149" y2="340.001"/>
          <line class="st1" x1="-202.072" y1="350" x2="386.86" y2="350.001"/>
          <line class="st1" x1="-184.752" y1="360" x2="369.504" y2="360"/>
          <line class="st1" x1="-167.432" y1="370" x2="352.184" y2="370"/>
          <line class="st1" x1="-150.111" y1="380" x2="334.863" y2="380"/>
        </g>
      </g>
</svg>
