<svg xmlns="http://www.w3.org/2000/svg" width="799.9" height="1385.5" viewBox="0 0 799.9 1385.5">
  <style>
    :root { --black: #443430; --red: #BF402B; --gold: #CEA600; --turquois: #4D9BA3; --emerald: #216554; --blue: #262F66; --white: #FFFAF2; } .shape-7{fill:var(--white)} .shape-4{fill:var(--white)} .shape-6{fill:var(--white)} .shape-1{fill:var(--white)} .shape-2{fill:var(--black)} .shape-3{fill:var(--turquois)} .shape-5{fill:var(--red)} .guides{ stroke: #4FFF4F; display: none; fill: none}
  </style>
  <g class="line" id="pattern">
    <path class="shape-1" d="M350 606.2v57.7l-50 28.8 50 28.9v57.7l50-28.9 49.9 29v-57.8l50-28.8-50-28.9.1-57.7-50 28.9zM-49.9 1298.9v57.8l-50.1 28.8 50.1 28.9-.1 57.7 50-28.9 50 28.9v-57.8l50-28.8-50-28.8v-57.8l-50 28.9zM750 1298.9v57.8l-50 28.8 50 28.9v57.7l50-28.9 49.9 29v-57.8l50-28.9-50-28.8V1299l-49.9 28.9zM849.9 86.6V28.8l50-28.8-50-28.8v-57.8l-50 28.9L750-86.6v57.8L700 0l50 28.8v57.8l49.9-28.9zM50 86.6l-.1-57.8L100 0 49.9-28.9l.1-57.7L0-57.7l-50-28.9v57.7L-100 0l50.1 28.8-.1 57.7L0 57.6z"/>
    <path class="shape-2" d="M525 303.1l-25-43.3 25-43.3H425l50-86.6h-50l-25-43.3-25 43.3h-50l50 86.6H275l25 43.3-25 43.3h50l25 43.3 50-86.6 50 86.6 25-43.3zM275 1082.4l24.9 43.3L275 1169h99.9l-49.9 86.6h50l25 43.3 25-43.3h50l-50-86.6h100l-25-43.3 25-43.3h-50l-25-43.3-50 86.6-50-86.6-25 43.3zM125 389.7l-50-.1-25-43.2L0 433l-50-86.6-25 43.3h-50l25 43.3-25 43.3h100l-50 86.6h50l25 43.3 25-43.3h50l-50-86.6h100L100 433zM674.9 995.9h50l25 43.3 50-86.6 50 86.6 25-43.3h50l-25-43.4 25-43.2h-100l50-86.7h-50l-25-43.2-25 43.2h-50l50 86.7h-100l25 43.3zM0 779.3l-25 43.3h-50l50 86.6h-100l25 43.3-25 43.4h50l25 43.2 50-86.6 50 86.6 25-43.2 50-.1-25-43.3 25-43.3-100 .1 50-86.7H25zM799.9 606.2l25.1-43.3h49.9L825 476.3h99.9l-25-43.3 25.1-43.3h-50.1l-25-43.3-50 86.6-50-86.6-24.9 43.3h-50.1l25 43.3-24.9 43.3h100l-50 86.6h49.9z"/>
    <path class="shape-3" d="M600 259.8l-25 43.3h-50l25 43.3-25 43.3h50l25 43.3 25-43.3h50l-25-43.3 25-43.3h-50zM199.9 1125.7l25-43.3H275l-25-43.3 25-43.3h-50l-25-43.3-25 43.3h-50l25 43.3-25 43.3h50zM125 303l25 43.4-25 43.3h50l25 43.3 25-43.3h50l-25-43.3 25-43.3h-50l-25-43.4-25 43.4zM674.9 1082.5l-25-43.3 25-43.3h-50l-25-43.3-25 43.3h-50l25 43.2-25 43.4h50l25 43.3 25-43.3zM-75 736h50l25 43.3L25 736h50l-25-43.3 25-43.3H25L0 606.1l-25 43.3h-50l25 43.3zM875 649.5h-50.1l-25-43.3-25 43.3H725l24.9 43.3-24.9 43.3h49.9l25 43.3 25-43.3h50l-25-43.3zM475 1342.3h-50l-25-43.4-25 43.4h-50l25 43.2-25 43.3h50l25 43.4 25-43.3h50l-25-43.3zM324.9 43.3H375l25 43.3 25-43.3h50L450 0l25-43.3h-50l-25-43.3-25 43.3h-50L350 0z"/>
    <path class="shape-4" d="M400 259.8l-50 86.6 50 86.6 50-86.6zM400 1125.7l50-86.6-50.1-86.6-49.9 86.6zM800 1125.8l50-86.6-50.1-86.6-49.9 86.6zM25 476.3l50 86.6 100-.1-50-86.5zM774.9 909.3l-50-86.7-100 .1 50 86.6zM25 909.3l100-.1 50-86.6H75zM775 476.3H675l-50 86.6h100zM0 952.5l-50 86.6 50.1 86.6 49.9-86.6zM375 1169H275l-50 86.7 100-.1zM425 1169.1l50 86.6 100-.1-50-86.5zM0 259.7l-50 86.7L0 433l50-86.6zM799.9 433l50-86.6-50-86.6-50 86.6zM425 216.5h100l50-86.6H475zM375 216.5l-50-86.6H225l50 86.6z"/>
    <path class="shape-5" d="M275 389.7h50l25-43.3 50 86.6 50-86.6 25 43.3h50L500 433l25 43.3h-75v129.9l-50 28.9-50-28.9V476.3h-75l25-43.3zM525 995.8h-50l-25 43.3-50.1-86.6-49.9 86.6-25-43.3h-50l25-43.3-25-43.3h75V779.3l50-28.9 50 28.9v129.9h75l-25 43.3zM75 649.5l25-43.3-25-43.3 100-.1-50-86.5h50l25-43.3 25 43.3h50l-37.5 64.9 112.5 65v57.7l-50 28.9-112.5-65-37.5 65-25-43.3z"/>
    <path class="shape-5" d="M724.9 736l-25 43.3 25 43.3-100 .1 50 86.6h-50l-25 43.3-25-43.3h-50l37.5-65-112.5-64.9v-57.8l50-28.8 112.5 64.9 37.5-64.9 25 43.2zM200 952.5l-25-43.3h-50l50-86.6H75l25-43.3L75 736h50l25-43.3 37.5 65 112.5-65 50 28.9v57.7l-112.5 65 37.5 64.9-50 .1zM599.9 433l25 43.3H675l-50 86.6h100l-25.1 43.3 25.1 43.3h-50l-25.1 43.3-37.5-65-112.4 65-50.1-28.9.1-57.7 112.4-65-37.4-64.9h50zM-125 1082.5h50l25-43.4 50.1 86.6 49.9-86.6 25 43.4h50l-25 43.2 25 43.4H50v129.8l-50 28.9-50-28.9v-129.8h-75l25-43.4zM674.9 1082.5h50l25-43.3 50.1 86.6 49.9-86.6 25 43.3h50l-25 43.3 25 43.3h-75V1299l-50 28.9-50-28.9v-129.9h-75l25-43.3zM325 1428.8l-25 43.3 25 43.3H225l50 86.6h-50l-25 43.3-25-43.3h-50l37.5-64.9-112.5-65v-57.8l50-28.8 112.5 65 37.5-65 25 43.3z"/>
    <path class="shape-5" d="M200 1125.7l25 43.3h50l-50 86.7 100-.1-25 43.3 25 43.4-50-.1-25 43.3-37.5-64.9-112.5 64.9-50-28.8v-57.8l112.5-64.9-37.5-64.9 50-.1zM475 1342.3l25-43.3-25-43.3 100-.1-50-86.5h50l25-43.4 25 43.4h50l-37.5 64.9 112.5 64.9v57.8l-50 28.8-112.5-64.9-37.5 64.9-25-43.2zM600 1645.5l-25-43.3h-50l50-86.6-100-.2 25-43.3-25-43.3h50l25-43.3 37.5 65 112.5-65 50 28.9v57.7l-112.5 65 37.5 65.1h-50zM924.9 303.1h-50l-25 43.3-50-86.6-50 86.6-25-43.3h-50l25-43.3-25-43.3h75V86.6l50-28.9 50 28.9v129.9h75l-25 43.3zM125 303H75l-25 43.4-50-86.7-50 86.7-25-43.4h-50l25-43.3-25-43.3h75V86.5L0 57.6l50 28.9v129.9h75l-25 43.3zM475-43.3l25-43.3-25-43.3h100l-50-86.6h50l25-43.3 25 43.3h50l-37.5 65L750-86.6v57.8L700 0 587.5-64.9 550 0l-25-43.3z"/>
    <path class="shape-5" d="M600 259.8l-25-43.3h-50l50-86.6H475l25-43.3-25-43.3h50L550 0l37.5 64.9L700 0l50 28.8v57.8l-112.5 64.9 37.5 65h-50zM324.9 43.3L300 86.5l25 43.4H225l50 86.6h-50.1l-25 43.3-24.9-43.3h-50l37.4-65L50 86.6l-.1-57.8L100 0l112.4 64.9L249.9 0 275 43.3zM200-259.8l25 43.3h50l-50 86.6h100l-25 43.3 25 43.3h-50L250 0l-37.5-64.9L100 0 49.9-28.9l.1-57.7 112.5-64.9-37.5-65h50z"/>
    <path class="shape-6" d="M525 476.3h-75v129.9l112.5-65zM275 909.2h75V779.3l-112.5 65zM275 476.3l-37.5 64.9 112.5 65V476.3zM524.9 909.3l37.5-65-112.5-64.9v129.9zM150 692.7l37.5 65 112.5-65-112.5-64.9zM649.9 692.8l-37.5-65-112.4 65 112.4 64.9zM125 1169.1H50v129.8l112.5-64.9zM250 1385.5l-37.5-64.9-112.5 64.9 112.5 65zM675 1169.1l-37.5 64.9 112.5 64.9v-129.8zM550 1385.5l37.5 65 112.5-65-112.5-64.9zM674.9 216.5h75V86.6l-112.5 64.9zM550 0l37.5 64.9L700 0 587.5-65zM125 216.5l37.4-65L50 86.6v129.9zM250 0l-37.5-64.9L100 0l112.5 64.9z"/>
    <path class="shape-7" d="M300 952.5l-25 43.3h-50l-25-43.3-25 43.3h-50l-25-43.3 25-43.3h50l25 43.3 25-43.3h50l25 43.3zM275 1169l25-43.3-25-43.3h-50l-25 43.3-25-43.3h-50l25-43.3-25-43.3H75l-25 43.3 25 43.4h50l-25 43.2 25 43.4h50l25-43.4 25 43.3h50zm75-129.9l-25-43.3h-50l-25 43.3 25 43.3h50l25-43.3zM125 389.7L100 433l25 43.3h50l25-43.3-25-43.3h-50zm0-86.7H75l-25 43.4 25 43.2h50l25-43.3-25-43.3zm475 649.6l25 43.3h50l25-43.3-25-43.3h-50l-25 43.3zM325 129.9h50l25-43.3 25 43.3h50l25-43.3-25-43.3h-50l-25 43.3-25-43.3h-50l-25 43.2 25 43.4zm-100 86.6l-25 43.3-25-43.3h-50l-25 43.2 25 43.3h50l25-43.3 25 43.4h50l-25 43.3 25 43.3h-50L200 433l25 43.3h50l25-43.3-25-43.3h50l25-43.3-25-43.3h-50l25-43.3-25-43.3h-50zm275 43.3l25 43.3h50l25-43.3 25 43.3h50l-25 43.3 25 43.3h-50L600 433l-25-43.3h-50L500 433l25 43.3h50l25-43.3 25 43.3h50l25-43.3-25-43.3h50l25-43.3-25-43.3h-50l25-43.3-25-43.3h-50l-25 43.3-25-43.3h-50l-25 43.3zm25 43.3h-50l-25 43.3 25 43.3h50l25-43.3-25-43.3zm150 779.4h50l25-43.3-25-43.3h-50l-25 43.3 25 43.3zM575 1169l25-43.4 25 43.4h50l25-43.3-25-43.3h-50l-25 43.3-25-43.3h-50l25-43.4-25-43.2h50l25-43.3-25-43.3h-50l-25 43.2 25 43.3h-50l-25 43.3 25 43.3h50l-25 43.3 25 43.3h50zm150-606.2l-25 43.3 25 43.3h50l25-43.3-25-43.3h-50zm-75 129.9l25 43.2h50l-25 43.3 25 43.3h50l25-43.2-25-43.3h-50l25-43.3-25-43.3h-50l-25 43.3zm-325 736l25-43.2-25-43.3h-50l-25 43.2 25 43.3h50zm150 0h50l25-43.3-25-43.2h-50l-25 43.3 25 43.3v-.1zm-325-736l-25-43.3H75l25-43.3-25-43.3H25L0 606.2l25 43.2h50l-25 43.3L75 736h50l25-43.3zM475-43.4L450 0l25 43.3h50L550 0l-25-43.3h-50zm-200 0L250 0l25 43.3h50L350 0l-25-43.3h-50zm-200 866l25-43.4L75 736H25L0 779.3l25 43.3h50zm350 433l-25 43.2-25-43.3h-50l-25 43.3 25 43.4h50l25-43.4 25 43.4h50l25-43.3-25-43.3h-50z"/>
  </g>
  <g id="Layer_3">
    <path d="M400-692.8L-300 519.6M500-692.8L-200 519.6M600-692.8L-100 519.6M700-692.8L0 519.6M800-692.8L100 519.6M900-692.8L200 519.6M1000-692.8L300 519.6M1100-692.8L400 519.6M1200-692.8L500 519.6M1300-692.8L600 519.6M1400-692.8L700 519.6M1500-692.8L800 519.6M1600-692.8L900 519.6M500-692.8l799.9 1385.5M400-692.8l850 1472.3M1000 519.6L300-692.8M200-692.8L900 519.6M100-692.8L800 519.6M0-692.8L700 519.6M-100-692.8L600 519.6M-200-692.8L500 519.6M-300-692.8L400 519.6M-400-692.8L300 519.6M-500-692.8L200 519.6M-600-692.8L100 519.6M-700-692.8L0 519.6M-400 0h1600M-450 86.6h1800M-500 173.2h1900M-550 259.8h2000M-601 346.4h2109.7M-650 433h2209M450-692.8L-250 519.6M550-692.8L-150 519.6M650-692.8L-50 519.6M750-692.8L50 519.6M850-692.8L150 519.6M950-692.8L250 519.6M1050-692.8L350 519.6M1150-692.8L450 519.6M1250-692.8L550 519.6M1350-692.8L650 519.6M1450-692.8L750 519.6M1550-692.8L850 519.6M550-692.8l775.2 1342.1M450-692.8l825 1428.9M350-692.8l700 1212.4M950 519.6L250-692.8M150-692.8L850 519.6M50-692.8L750 519.6M-50-692.8L650 519.6M-150-692.8L550 519.6M-250-692.8L450 519.6M-350-692.8L350 519.6M-450-692.8L250 519.6M-550-692.8L150 519.6M-650-692.8L50 519.6M-750-692.8L-50 519.6M-850-692.8l700 1212.4M-950-692.8l700 1212.4M-1050-692.8l700 1212.4M-800-692.8l700 1212.4M-900-692.8l700 1212.4M-1000-692.8l700 1212.4M-1100-692.8l700 1212.4M-453.4-43.3h1600M-503.4 43.3h1800M-553.4 129.9h1900M-375-216.5h1600M-425-129.9h1800M-428.4-259.8h1600M-478.4-173.2h1800M-528.4-86.6h1900M-603.4 216.6h2000M-654.4 303.2h2109.7M-703.4 389.8h2209M-638.1 476.4h2209M-425 563h1986.7M-650 519.6h2225.8M100 1645.5l-575-996M200 1645.5L-424.4 564M300 1645.5L-350 519.6M400 1645.5L-250 519.6M500 1645.5L-150 519.6M600 1645.5L-50 519.6M700 1645.5L50 519.6M850 1732.1L150 519.6M950 1732.1L250 519.6M1050 1732.1L350 519.6M1150 1732.1L450 519.6M1250 1732.1L550 519.6M1350 1732.1L650 519.6M1450 1732.1L750 519.6M1550 1732.1L850 519.6M1650 1732.1L950 519.6M700 1645.5l600.3-1039.2M600 1645.5l650-1125.9M500 1645.5l650-1125.9M1050 519.6L399.8 1645.9M300 1645.5L950 519.6M200 1645.3L850 519.6M100 1645.5L750 519.6M25 1602.2L650 519.6M-25 1515.6l575-996M-75 1429l525-909.4M-125 1342.4l475-822.8M-175.1 1255.8L250 519.6M-225 1169.2l375-649.6M-275 1082.5L50 519.6M-250.1 1125.9H1300M-200.1 1212.5H1350M-150 1299.1h1550M-100 1385.7h1550M-50 1472.3h1550M0 1558.9h1550M-300.1 1039.3H1250M-350.1 952.7H1400M-400.1 866.1H1450M-450 779.5h1950M-551 692.9h2109.7M-450 606.3h2059M50 1645.5l-550.2-952.8M150 1645.5L-450 606.3M250 1645.5L-400 519.6M350 1645.5L-300 519.6M450 1645.5L-200 519.6M550 1645.5L-100 519.6M650 1645.5L0 519.6M750 1645.5L100 519.6M900 1732.1L200 519.6M1000 1732.1L300 519.6M1100 1732.1L400 519.6M1200 1732.1L500 519.6M1300 1732.1L600 519.6M1400 1732.1L700 519.6M1500 1732.1L800 519.6M1600 1732.1L900 519.6M750 1645.5l575.2-996.2M649.7 1646l625.6-1083M549.6 1646.1L1200 519.6M450 1645.5l650-1125.9M1000 519.6L350 1645.5M250 1645.5L900 519.6M150 1645.5L800 519.6M50 1645.5L700 519.6M0 1558.9L600 519.6M-50 1472.3l550-952.7M-100 1385.7l500-866.1M-150 1299.1l450-779.5M-200.1 1212.5L200 519.6M-250.1 1125.9L100 519.6M-300.1 1039.3L0 519.6M-350.1 952.7L-100 519.6M-400.1 866.1L-200 519.6M-450 779.5l150-259.9M-500.2 692.7L-400 519.6M-325.1 995.9L-50 519.6M-375.1 909.3L-150 519.6M-425.1 822.7L-250 519.6M-475 736.1l125-216.5M-350 519.6L350-692.8M-400 519.6L300-692.8M-25 1515.6h1470.7M-225 1169.2h1471.6M-175.1 1255.8h1471.7M-125 1342.4h1471.6M-75 1429h1471.6M25 1602.2h1471.6M50 1645.5h1485.2M-275 1082.5h1471.6M-325.1 995.9h1671.7M-375.1 909.3h1771.7M-425.1 822.7h1871.7M-475 736.1h1980.3M-475 649.5h2030.6"/>
  </g>
</svg>
