<svg xmlns="http://www.w3.org/2000/svg" width="601" height="347" viewBox="0 0 601 347">
  <style>
    :root { --red: #BF402B; --white: #FFFAF2; } .shape-1 { fill: var(--white); } .shape-2 { fill: var(--red); } .guides { stroke: #4FFF4F; display: none; }
  </style>
  <g id="pattern" class="line">
    <path class="shape-1" d="M200.5.5l-50 86.6h-100L.5.5l-16 27.9V-8.8H195l5.4 9.3zM.5 346.9l-16-27.9v36.3h211.4l4.6-8.4-50-86.6h-100L.5 347zm150-259.8l-50 86.6 50 86.6h100l50-86.6-50-86.6h-100zm450 259.8l-50-86.6h-100l-50 86.6 3.6 8.4h211v-33.6l-14.6 25.2zm-150-259.8h-100l-50 86.6 50 86.6h100l50-86.6-50-86.6zM600.5.5l14.6 25.2V-8.8H405.9L400.5.5l50 86.6h100l50-86.6z"/>
    <path class="shape-2" d="M-49.5 260.3V87.1L.5.5l50 86.6h100l-50 86.6 50 86.6h-100l-50 86.6zM450.5-86.1h-300l50 86.6-50 86.6h100l50 86.6 50-86.6h100L400.5.5z"/>
    <path class="shape-2" d="M443 445.9l-296.3-1.3 53.8-97.7-50-86.6h100l50-86.6 50 86.6h100l-50 86.6zM650.5 260.3V87.1L600.5.5l-50 86.6h-100l50 86.6-50 86.6h100l50 86.6z"/>
  </g>
  <g class="guides">
    <path d="M.5 346.9L205.9-8.8M300.5 346.9L505.9-8.8M400.5 346.9L605.9-8.8M500.5 346.9l114.6-198.4M600.5 346.9l14.6-25.2M-15.6 201.6L105.9-8.8M-15.6 28.4L5.9-8.8M100.5 346.9L305.9-8.8M200.5 346.9L405.9-8.8M.5 346.9L-15.6 319M100.5 346.9L-15.6 145.8M200.5 346.9L-15.6-27.4M300.5 346.9L95.1-8.8M400.5 346.9L195.1-8.8M500.5 346.9L295.1-8.8M600.5 346.9L395.1-8.8M615.1 198.9L495.1-8.8M615.1 25.7l-20-34.5M-15.6.5h630.7M600.5 346.9H-15.6M-15.6 87.1h630.7M-15.6 173.7h630.7M-15.6 260.3h630.7"/>
  </g>
</svg>
