<svg version="1.1" xmlns="http://www.w3.org/2000/svg" x="0px" y="0px"
   width="601" height="347" viewBox="0 0 100% 100%" xml:space="preserve">
  <style>
    .shape-1 {
      fill: #475387;
    }
    .shape-2 {
      fill: #907A58;
    }
    .lines {
      fill: none;
      stroke: #fff;
      stroke-width: 20px;
    }
    .guides {
      stroke: #4FFF4F;
      display: none;
    }
  </style>
      <g class="shapes">
        <rect class="shape-1" x="-15.595" y="-8.793" width="630.65" height="364.105"/>
        <polygon class="shape-2" points="-49.5,260.308 -49.5,87.103 0.5,0.5 50.5,87.103 150.5,87.103 100.5,173.705 150.5,260.308 
          50.5,260.308 0.5,346.91   "/>
        <polygon class="shape-2" points="450.5,-86.102 150.5,-86.102 200.5,0.5 150.5,87.103 250.5,87.103 300.5,173.705 350.5,87.103 
          450.5,87.103 400.5,0.5  "/>
        <polygon class="shape-2" points="443.036,445.893 146.727,444.561 200.5,346.91 150.5,260.308 250.5,260.308 300.5,173.705 
          350.5,260.308 450.5,260.308 400.5,346.91  "/>
        <polygon class="shape-2" points="650.5,260.308 650.5,87.103 600.5,0.5 550.5,87.103 450.5,87.103 500.5,173.705 450.5,260.308 
          550.5,260.308 600.5,346.91  "/>
      </g>

      <g class="lines">
        <polygon points="-49.5,260.308 -49.5,87.103 0.5,0.5 50.5,87.103 150.5,87.103 100.5,173.705 150.5,260.308 50.5,260.308 0.5,346.91  "/>
        <polygon points="450.5,-86.102 150.5,-86.102 200.5,0.5 150.5,87.103 250.5,87.103 300.5,173.705 350.5,87.103 450.5,87.103 400.5,0.5  "/>
        <polygon points="443.036,445.893 146.727,444.561 200.5,346.91 150.5,260.308 250.5,260.308 300.5,173.705 350.5,260.308 450.5,260.308 400.5,346.91  "/>
        <polygon points="650.5,260.308 650.5,87.103 600.5,0.5 550.5,87.103 450.5,87.103 500.5,173.705 450.5,260.308 550.5,260.308 600.5,346.91  "/>
      </g>

      <g class="guides">
        <line x1="0.5" y1="346.91" x2="205.865" y2="-8.793"/>
        <line x1="300.5" y1="346.91" x2="505.866" y2="-8.793"/>
        <line x1="400.5" y1="346.91" x2="605.865" y2="-8.793"/>
        <line x1="500.5" y1="346.91" x2="615.055" y2="148.495"/>
        <line x1="600.5" y1="346.91" x2="615.055" y2="321.701"/>
        <line x1="-15.595" y1="201.583" x2="105.866" y2="-8.793"/>
        <line x1="-15.595" y1="28.378" x2="5.866" y2="-8.793"/>
        <line x1="100.5" y1="346.91" x2="305.866" y2="-8.793"/>
        <line x1="200.5" y1="346.91" x2="405.866" y2="-8.793"/>
        <line x1="0.5" y1="346.91" x2="-15.596" y2="319.031"/>
        <line x1="100.5" y1="346.91" x2="-15.595" y2="145.827"/>
        <line x1="200.5" y1="346.91" x2="-15.596" y2="-27.378"/>
        <line x1="300.5" y1="346.91" x2="95.139" y2="-8.786"/>
        <line x1="400.5" y1="346.91" x2="195.134" y2="-8.794"/>
        <line x1="500.5" y1="346.91" x2="295.132" y2="-8.797"/>
        <line x1="600.5" y1="346.91" x2="395.132" y2="-8.797"/>
        <line x1="615.056" y1="198.916" x2="495.139" y2="-8.786"/>
        <line x1="615.054" y1="25.708" x2="595.135" y2="-8.792"/>
        <line x1="-15.595" y1="0.5" x2="615.055" y2="0.5"/>
        <line x1="600.5" y1="346.91" x2="-15.595" y2="346.91"/>
        <line x1="-15.596" y1="87.103" x2="615.055" y2="87.103"/>
        <line x1="-15.596" y1="173.705" x2="615.055" y2="173.705"/>
        <line x1="-15.596" y1="260.308" x2="615.055" y2="260.308"/>
      </g>
</svg>