<?xml version="1.0" encoding="utf-8"?>
<svg version="1.1" xmlns="http://www.w3.org/2000/svg" xmlns:xlink="http://www.w3.org/1999/xlink" x="0px" y="0px"
	 width="601" height="347" viewBox="0 0 100% 100%" xml:space="preserve">
	<style>
		.shape-1 {
			fill: #907A58;
		}
		.shape-2 {
			fill: #475387;
		}
		.lines {
			fill: none;
			stroke: #fff;
			stroke-width: 20px;
		}
		.guides {
			stroke: #4FFF4F;
			display: none;
		}
	</style>
			<g class="shapes">
				<rect class="shape-1" x="-15.595" y="-8.793" width="630.65" height="364.105"/>
				<path class="shape-2" d="M0.5,346.91c29.891-17.291,49.998-49.586,49.997-86.6c29.92,17.241,67.96,18.521,100.014,0.014
					c0-37.013-20.108-69.328-49.996-86.619c29.891-17.291,50.001-49.595,50-86.608c-29.92-17.241-67.963-18.492-100.017,0.015
					c0-37.013-20.107-69.337-49.995-86.628L0.499-8.793h-16.094v364.105H0.619L0.5,346.91z"/>
				<path class="shape-2" d="M600.512,346.927c-29.888-17.291-49.995-49.615-49.995-86.628c-32.055,18.507-70.098,17.256-100.017,0.015
					c0-37.014,20.11-69.317,50-86.608c-29.888-17.291-49.996-49.606-49.996-86.619c32.054-18.507,70.094-17.228,100.014,0.014
					c0-37.014,20.106-69.309,49.997-86.6l-0.069-9.293h14.608v364.105h-14.554L600.512,346.927z"/>
				<path class="shape-2" d="M400.5,0.484c32.055,18.508,49.992,52.079,50.021,86.611c-32.055,18.506-70.086,17.242-100.006,0.002
					c-0.031,34.529-17.963,68.101-50.016,86.607c-32.056-18.507-49.968-52.09-49.996-86.622
					c-32.055,18.507-70.076,17.241-99.996,0.001c0-37.014,20.11-69.317,50-86.608v-9.269h199.988L400.5,0.484z"/>
				<path class="shape-2" d="M400.492,346.935c29.891-17.291,50.001-49.595,50-86.608c-29.92-17.24-67.941-18.506-99.996,0.001
					c-0.028-34.532-17.94-68.115-49.996-86.622c-32.053,18.507-49.984,52.078-50.016,86.607c-29.92-17.24-67.951-18.504-100.006,0.002
					c0.029,34.532,17.967,68.104,50.021,86.611v8.387h201L400.492,346.935z"/>
			</g>
			
			<g class="lines">
				<path d="M0.5,346.91c29.891-17.291,49.998-49.586,49.997-86.6c29.92,17.241,67.96,18.521,100.014,0.014
					c0-37.013-20.108-69.328-49.996-86.619c29.891-17.291,50.001-49.595,50-86.608c-29.92-17.241-67.963-18.492-100.017,0.015
					c0-37.013-20.107-69.337-49.995-86.628L0.499-8.793H-92.5v364.105H0.619L0.5,346.91z"/>
				<path d="M600.512,346.927c-29.888-17.291-49.995-49.615-49.995-86.628c-32.055,18.507-70.098,17.256-100.017,0.015
					c0-37.014,20.11-69.317,50-86.608c-29.888-17.291-49.996-49.606-49.996-86.619c32.054-18.507,70.094-17.228,100.014,0.014
					c0-37.014,20.106-69.309,49.997-86.6l-0.069-9.293H692.5v364.105h-91.999L600.512,346.927z"/>
				<path d="M400.5,0.484c32.055,18.508,49.992,52.079,50.021,86.611c-32.055,18.506-70.086,17.242-100.006,0.002
					c-0.031,34.529-17.963,68.101-50.016,86.607c-32.056-18.507-49.968-52.09-49.996-86.622
					c-32.055,18.507-70.076,17.241-99.996,0.001c0-37.014,20.11-69.317,50-86.608v-62.455h199.988L400.5,0.484z"/>
				<path d="M400.492,346.935c29.891-17.291,50.001-49.595,50-86.608c-29.92-17.24-67.941-18.506-99.996,0.001
					c-0.028-34.532-17.94-68.115-49.996-86.622c-32.053,18.507-49.984,52.078-50.016,86.607c-29.92-17.24-67.951-18.504-100.006,0.002
					c0.029,34.532,17.967,68.104,50.021,86.611v94.095h201L400.492,346.935z"/>
			</g>

			
			<g class="guides">
				<line x1="0.5" y1="346.91" x2="205.865" y2="-8.793"/>
				<line x1="300.5" y1="346.91" x2="505.866" y2="-8.793"/>
				<line x1="400.5" y1="346.91" x2="605.865" y2="-8.793"/>
				<line x1="500.5" y1="346.91" x2="615.055" y2="148.495"/>
				<line x1="600.5" y1="346.91" x2="615.055" y2="321.701"/>
				<line x1="-15.595" y1="201.583" x2="105.866" y2="-8.793"/>
				<line x1="-15.595" y1="28.378" x2="5.866" y2="-8.793"/>
				<line x1="100.5" y1="346.91" x2="305.866" y2="-8.793"/>
				<line x1="200.5" y1="346.91" x2="405.866" y2="-8.793"/>
				<line x1="0.5" y1="346.91" x2="-15.596" y2="319.031"/>
				<line x1="100.5" y1="346.91" x2="-15.595" y2="145.827"/>
				<line x1="200.5" y1="346.91" x2="-15.596" y2="-27.378"/>
				<line x1="300.5" y1="346.91" x2="95.139" y2="-8.786"/>
				<line x1="400.5" y1="346.91" x2="195.134" y2="-8.794"/>
				<line x1="500.5" y1="346.91" x2="295.132" y2="-8.797"/>
				<line x1="600.5" y1="346.91" x2="395.132" y2="-8.797"/>
				<line x1="615.056" y1="198.916" x2="495.139" y2="-8.786"/>
				<line x1="615.054" y1="25.708" x2="595.135" y2="-8.792"/>
				<line x1="-15.595" y1="0.5" x2="615.055" y2="0.5"/>
				<line x1="600.5" y1="346.91" x2="-15.595" y2="346.91"/>
				<line x1="-15.596" y1="87.103" x2="615.055" y2="87.103"/>
				<line x1="-15.596" y1="173.705" x2="615.055" y2="173.705"/>
				<line x1="-15.596" y1="260.308" x2="615.055" y2="260.308"/>
			</g>
</svg>