<svg xmlns="http://www.w3.org/2000/svg" width="601" height="347" viewBox="0 0 601 347">
  <style>
    :root { --red: #BF402B; --white: #FFFAF2; } .shape-1 { fill: var(--white); } .shape-2 { fill: var(--red); } .guides { stroke: #4FFF4F; display: none; }
  </style>
  <g id="pattern" class="line">
    <path class="shape-1" d="M200.5 347v8.3H.6L.5 347a100 100 0 0050-86.6 100 100 0 00100 0c0 34.6 18 68.1 50 86.6zm350-86.7a100 100 0 01-100 0 100 100 0 0150-86.6 100 100 0 01-50-86.6 100 100 0 01-100 0 100 100 0 01-50 86.6 100 100 0 01-50-86.6 100 100 0 01-100 0 100 100 0 0150-86.6v-9.3H.5V.5a100 100 0 0150 86.6 100 100 0 01100 0 100 100 0 01-50 86.6 100 100 0 0150 86.6 100 100 0 01100 0 100 100 0 0150-86.6c32 18.5 50 52.1 50 86.6a100 100 0 01100 0 100 100 0 01-50 86.6l1 8.4h199V347a100 100 0 01-50-86.6zm-150-269V.4c32 18.5 50 52 50 86.6a100 100 0 01100 0 100 100 0 0150-86.6v-9.3H615v364.1-364H400.5z"/>
    <path class="shape-2" d="M.5 347a100 100 0 0050-86.7 100 100 0 00100 0 100 100 0 00-50-86.6 100 100 0 0050-86.6 100 100 0 00-100 0A100 100 0 00.5.5v-9.3h-16.1v364.1H.6L.5 347zM600.5 347a100 100 0 01-50-86.7 100 100 0 01-100 0 100 100 0 0150-86.6 100 100 0 01-50-86.6 100 100 0 01100 0 100 100 0 0150-86.6v-9.3H615v364.1h-14.6V347zM400.5.5c32 18.5 50 52 50 86.6a100 100 0 01-100 0 100 100 0 01-50 86.6 100 100 0 01-50-86.6 100 100 0 01-100 0 100 100 0 0150-86.6v-9.3h200V.5zM400.5 347a100 100 0 0050-86.7 100 100 0 00-100 0 100 100 0 00-50-86.6 100 100 0 00-50 86.6 100 100 0 00-100 0 100 100 0 0050 86.6v8.4h201l-1-8.4z"/>
  </g>
  <g class="guides">
    <path d="M.5 346.9L205.9-8.8M300.5 346.9L505.9-8.8M400.5 346.9L605.9-8.8M500.5 346.9l114.6-198.4M600.5 346.9l14.6-25.2M-15.6 201.6L105.9-8.8M-15.6 28.4L5.9-8.8M100.5 346.9L305.9-8.8M200.5 346.9L405.9-8.8M.5 346.9L-15.6 319M100.5 346.9L-15.6 145.8M200.5 346.9L-15.6-27.4M300.5 346.9L95.1-8.8M400.5 346.9L195.1-8.8M500.5 346.9L295.1-8.8M600.5 346.9L395.1-8.8M615.1 198.9L495.1-8.8M615.1 25.7l-20-34.5M-15.6.5h630.7M600.5 346.9H-15.6M-15.6 87.1h630.7M-15.6 173.7h630.7M-15.6 260.3h630.7"/>
  </g>
</svg>
