<svg version="1.1" xmlns="http://www.w3.org/2000/svg" width="80.832" height="140" viewBox="0 0 100% 100%">
  <style>
    :root {
      --golden: #907A58;
      --darkBlue: #475387;
      --beige: #DFD8CC;
      --teal: #4A9AC4;
      --gray: #A49DA0;
      --smaragd: #406A72;
      --sand: #D3BDA7;
      --grayGreen: #A2D1D6;
      --blueGray: #758390;
      --lightBrown: #AA8858;
      --blue1: #8EC5EE;
      --blue2: #8CC6EA;
      --blue3: #B6DAEC;
      --rust: #D8692D;
      --yellow: #F8C346;
    }
    .shape-1{fill:var(--teal)}
    .shape-2{fill:var(--grayGreen)}
    .shape-3{fill:var(--darkBlue)}
    .shape-4{fill:var(--sand)}
    .shape-5{fill:var(--golden)}
    .line{stroke:#fff;stroke-width:3px}
    .guides{ stroke: #4FFF4F; display: none; fill: none}
  </style>
  		<rect x="-11.546" y="-10" width="103.924" height="160" class="shape-5" />
      <g class="line" id="pattern">
		    <polygon class="shape-1" points="48.114,46.67 51.964,40.003 44.266,40.003 40.417,33.337 36.568,40.003 28.87,40.003 32.719,46.67 
		      28.869,53.337 36.567,53.337 40.416,60.003 44.265,53.336 51.963,53.336     "/>
		    <polygon class="shape-1" points="88.529,116.673 92.378,110.006 84.68,110.006 80.832,103.34 76.982,110.007 69.285,110.007 
		      73.133,116.673 69.284,123.34 76.982,123.34 80.831,130.006 84.68,123.34 92.377,123.34    "/>
		    <polygon class="shape-1" points="7.699,116.673 11.549,110.006 3.851,110.006 0.002,103.34 -3.847,110.006 -11.545,110.006 
		      -7.696,116.673 -11.546,123.34 -3.848,123.34 0.001,130.006 3.85,123.339 11.548,123.339     "/>
		    <polygon class="shape-1" points="3.85,16.669 0,10.002 -3.849,16.669 -11.546,16.669 -7.697,23.335 -11.546,30.002 -3.848,30.002 
		      0,36.67 3.85,30.003 11.547,30.003 7.698,23.336 11.547,16.669    "/>
		    <polygon class="shape-1" points="44.266,86.672 40.416,80.005 36.567,86.672 28.87,86.672 32.719,93.338 28.87,100.005 
		      36.568,100.005 40.416,106.673 44.266,100.006 51.963,100.006 48.114,93.339 51.963,86.672     "/>
		    <polygon class="shape-1" points="84.682,16.669 80.832,10.002 76.983,16.669 69.286,16.669 73.135,23.335 69.286,30.002 
		      76.984,30.002 80.832,36.67 84.682,30.003 92.379,30.003 88.53,23.336 92.379,16.669     "/>
		    <polyline class="shape-2" points="11.548,30.002 23.095,30.002 28.87,40.003 17.321,40.003 11.548,30.002    "/>
		    <polyline class="shape-2" points="40.419,80.004 34.646,70.005 40.419,60.003 46.194,70.005 40.419,80.004     "/>
		    <polyline class="shape-2" points="69.285,30.003 63.512,40.002 51.964,40.003 57.738,30.001 69.285,30.003     "/>
		    <polyline class="shape-2" points="51.963,100.006 63.509,100.006 69.285,110.007 57.735,110.007 51.963,100.006    "/>
		    <polyline class="shape-2" points="80.833,150.007 75.06,140.008 80.833,130.006 86.608,140.008 80.833,150.007     "/>
		    <polyline class="shape-2" points="0.004,150.007 -5.77,140.008 0.004,130.006 5.779,140.008 0.004,150.007     "/>
		    <polyline class="shape-2" points="0,10.002 -5.773,0.003 0,-9.999 5.775,0.003 0,10.002     "/>
		    <polyline class="shape-2" points="11.548,110.006 17.321,100.006 28.87,100.005 23.096,110.007 11.548,110.006     "/>
		    <polyline class="shape-2" points="80.832,10.002 75.059,0.003 80.832,-9.999 86.607,0.003 80.832,10.002     "/>
		    <polyline class="shape-3" points="0,50.001 -5.774,60.001 -17.32,60.001 -11.546,70.001 -17.321,80.001 -5.774,80.001 0,90 
		      5.773,80.001 17.322,80.001 11.548,70.001 17.322,60.001 5.775,60.001 0,50.001    "/>
		    <polyline class="shape-3" points="80.831,50.001 75.057,60.001 63.511,60.001 69.285,70.001 63.51,80.001 75.057,80.001 80.831,90 
		      86.604,80.001 98.153,80.001 92.379,70.001 98.153,60.001 86.606,60.001 80.831,50.001     "/>
		    <polyline class="shape-3" points="40.417,-19.995 34.643,-9.995 23.096,-9.995 28.87,0.005 23.096,10.005 34.643,10.005 
		      40.416,20.005 46.189,10.005 57.739,10.005 51.965,0.005 57.739,-9.995 46.192,-9.995 40.417,-19.995     "/>
		    <polyline class="shape-3" points="40.421,120.004 34.647,130.004 23.101,130.004 28.875,140.004 23.1,150.004 34.647,150.004 
		      40.42,160.003 46.194,150.004 57.743,150.004 51.969,140.004 57.743,130.004 46.196,130.004 40.421,120.004     "/>
		    <path class="shape-4" d="M57.737,30.003l-11.547,0l-5.774-9.998l-5.772,9.998H23.096c0,0,5.773,10.001,5.773,10.001s3.46,0,7.699,0
		      l3.849-6.667l3.849,6.666c4.238,0,7.697,0,7.697,0L57.737,30.003z"/>
		    <path class="shape-4" d="M17.322,40.004l5.772,10l-5.771,10h11.544l5.774,10.001c0,0.001,5.774-10.001,5.774-10.001
		      s-1.73-2.996-3.85-6.667h-7.698l3.849-6.666c-2.119-3.67-3.849-6.666-3.849-6.666L17.322,40.004z"/>
		    <path class="shape-4" d="M46.191,70.003l5.773-9.999l11.546-0.003l-5.772-9.997l5.774-10.001c0.001,0-11.549,0-11.549,0
		      s-1.729,2.996-3.849,6.667l3.85,6.667h-7.697c-2.12,3.67-3.849,6.666-3.849,6.666L46.191,70.003z"/>
		    <path class="shape-4" d="M98.152,100.006l-11.547,0l-5.774-9.998l-5.772,9.998H63.51c0,0,5.773,10.001,5.773,10.001s3.46,0,7.699,0
		      l3.849-6.667l3.849,6.666c4.238,0,7.697,0,7.697,0L98.152,100.006z"/>
		    <path class="shape-4" d="M23.098,150.004l-11.547,0l-5.774-9.998l-5.772,9.998h-11.548c0,0,5.773,10.001,5.773,10.001s3.46,0,7.699,0
		      l3.849-6.666l3.849,6.666c4.238,0,7.697,0,7.697,0L23.098,150.004z"/>
		    <path class="shape-4" d="M92.378,150.006l-11.547,0l-5.774-9.998l-5.772,9.998H57.737c0,0,5.773,10,5.773,10s3.46,0,7.699,0
		      l3.849-6.666l3.849,6.666c4.238,0,7.697,0,7.697,0L92.378,150.006z"/>
		    <path class="shape-4" d="M57.737,110.007l5.772,10l-5.771,10h11.544l5.774,10.001c0,0.001,5.774-10.001,5.774-10.001
		      s-1.73-2.996-3.85-6.667h-7.698l3.849-6.666c-2.119-3.67-3.849-6.666-3.849-6.666L57.737,110.007z"/>
		    <path class="shape-4" d="M86.606,140.006l5.773-9.999l11.546-0.003l-5.772-9.997l5.774-10.001c0.001,0-11.549,0-11.549,0
		      s-1.729,2.996-3.849,6.667l3.85,6.667h-7.697c-2.12,3.67-3.849,6.666-3.849,6.666L86.606,140.006z"/>
		    <path class="shape-4" d="M17.322,100.006l-11.547,0l-5.774-9.998l-5.772,9.998h-11.548c0,0,5.773,10.001,5.773,10.001s3.46,0,7.699,0
		      l3.849-6.667l3.849,6.666c4.238,0,7.697,0,7.697,0L17.322,100.006z"/>
		    <path class="shape-4" d="M-23.093,110.007l5.772,10l-5.771,10h11.544l5.774,10.001c0,0.001,5.774-10.001,5.774-10.001
		      s-1.73-2.996-3.85-6.667h-7.698l3.849-6.666c-2.119-3.67-3.849-6.666-3.849-6.666L-23.093,110.007z"/>
		    <path class="shape-4" d="M5.776,140.006l5.773-9.999l11.546-0.003l-5.772-9.997l5.774-10.001c0.001,0-11.549,0-11.549,0
		      s-1.729,2.996-3.849,6.667l3.85,6.667H3.853c-2.12,3.67-3.849,6.666-3.849,6.666L5.776,140.006z"/>
		    <path class="shape-4" d="M-5.773,0.002l-5.773,10l-11.545,0.002l5.771,9.998l-5.773,10.001c-0.001-0.001,11.547,0,11.547,0
		      s1.73-2.996,3.85-6.667l-3.849-6.667h7.697C-1.729,12.999,0,10.003,0,10.003L-5.773,0.002z"/>
		    <path class="shape-4" d="M-17.319,40.003l11.546,0.001l5.775,9.997l5.771-9.997h11.549c0.001,0.001-5.773-10.002-5.773-10.002
		      s-3.461,0.001-7.699,0.001L0,36.67l-3.848-6.666c-4.238-0.001-7.697,0-7.697,0L-17.319,40.003z"/>
		    <path class="shape-4" d="M23.096,30.001l-5.773-9.999l5.771-10.001l-11.544,0.001L5.775,0C5.775-0.001,0,10.002,0,10.002
		      s1.73,2.996,3.85,6.666h7.699l-3.85,6.666C9.818,27.005,11.549,30,11.549,30L23.096,30.001z"/>
		    <path class="shape-4" d="M34.643,70.005l-5.773,10l-11.545,0.002l5.771,9.998l-5.773,10.001c-0.001-0.001,11.547,0,11.547,0
		      s1.73-2.996,3.85-6.667l-3.849-6.667h7.697c2.119-3.67,3.849-6.666,3.849-6.666L34.643,70.005z"/>
		    <path class="shape-4" d="M23.097,110.006l11.546,0.001l5.775,9.997l5.771-9.997h11.549c0.001,0.001-5.773-10.002-5.773-10.002
		      s-3.461,0.001-7.699,0.001l-3.85,6.667l-3.848-6.666c-4.238-0.001-7.697,0-7.697,0L23.097,110.006z"/>
		    <path class="shape-4" d="M63.512,100.004l-5.773-9.999l5.771-10.001l-11.544,0.001l-5.773-10.002c0-0.001-5.775,10.002-5.775,10.002
		      s1.73,2.996,3.85,6.666h7.699l-3.85,6.666c2.119,3.671,3.85,6.666,3.85,6.666L63.512,100.004z"/>
		    <path class="shape-4" d="M75.059,0.002l-5.773,10L57.74,10.004l5.771,9.998l-5.773,10.001c-0.001-0.001,11.547,0,11.547,0
		      s1.73-2.996,3.85-6.667l-3.849-6.667h7.697c2.119-3.67,3.849-6.666,3.849-6.666L75.059,0.002z"/>
		    <path class="shape-4" d="M63.513,40.003l11.546,0.001l5.775,9.997l5.771-9.997h11.549c0.001,0.001-5.773-10.002-5.773-10.002
		      s-3.461,0.001-7.699,0.001l-3.85,6.667l-3.848-6.666c-4.238-0.001-7.697,0-7.697,0L63.513,40.003z"/>
		    <path class="shape-4" d="M57.737-9.996l11.546,0.001l5.775,9.997l5.771-9.997h11.549c0.001,0.001-5.773-10.002-5.773-10.002
		      s-3.461,0.001-7.699,0.001l-3.85,6.667l-3.848-6.666c-4.238-0.001-7.697,0-7.697,0L57.737-9.996z"/>
		    <path class="shape-4" d="M-11.546-9.998L0-9.997L5.775,0l5.771-9.997h11.549c0.001,0.001-5.773-10.002-5.773-10.002
		      s-3.461,0.001-7.699,0.001l-3.85,6.667l-3.848-6.666c-4.238-0.001-7.697,0-7.697,0L-11.546-9.998z"/>
		    <path class="shape-4" d="M103.928,30.001l-5.773-9.999l5.771-10.001l-11.544,0.001L86.607,0c0-0.001-5.775,10.002-5.775,10.002
      s1.73,2.996,3.85,6.666h7.699l-3.85,6.666C90.65,27.005,92.381,30,92.381,30L103.928,30.001z"/>
      </g>
      <g class="guides">
			  <g>
			    <line class="st0" x1="40.416" y1="240.001" x2="-98.148" y2="0"/>
			    <line class="st0" x1="49.077" y1="235.001" x2="-98.148" y2="-20"/>
			    <line class="st0" x1="57.737" y1="230.001" x2="-89.488" y2="-25"/>
			    <line class="st0" x1="66.397" y1="225.001" x2="-80.828" y2="-30"/>
			    <line class="st0" x1="75.057" y1="220.001" x2="-72.167" y2="-35"/>
			    <line class="st0" x1="83.717" y1="215.001" x2="-63.507" y2="-40"/>
			    <line class="st0" x1="92.377" y1="210.001" x2="-54.847" y2="-45"/>
			    <line class="st0" x1="101.038" y1="205.001" x2="-46.187" y2="-50"/>
			    <line class="st0" x1="109.698" y1="200.001" x2="-37.526" y2="-55"/>
			    <line class="st0" x1="118.36" y1="195.001" x2="-28.865" y2="-60"/>
			    <line class="st0" x1="127.02" y1="190.001" x2="-20.205" y2="-65"/>
			    <line class="st0" x1="135.68" y1="185.001" x2="-11.545" y2="-70"/>
			    <line class="st0" x1="144.341" y1="180.001" x2="-2.885" y2="-75"/>
			    <line class="st0" x1="153.001" y1="175.001" x2="5.775" y2="-80"/>
			    <line class="st0" x1="161.661" y1="170.001" x2="14.436" y2="-85"/>
			    <line class="st0" x1="170.321" y1="165.001" x2="23.096" y2="-90"/>
			    <line class="st0" x1="178.981" y1="160.001" x2="31.756" y2="-95"/>
			    <line class="st0" x1="178.981" y1="140" x2="40.416" y2="-100"/>
			  </g>
			  <g>
			    <line class="st0" x1="178.981" y1="0" x2="40.416" y2="240.001"/>
			    <line class="st0" x1="178.981" y1="-20" x2="31.756" y2="235.001"/>
			    <line class="st0" x1="170.321" y1="-25" x2="23.096" y2="230.001"/>
			    <line class="st0" x1="161.661" y1="-30" x2="14.436" y2="225.001"/>
			    <line class="st0" x1="153.001" y1="-35" x2="5.774" y2="220.001"/>
			    <line class="st0" x1="144.341" y1="-40" x2="-2.886" y2="215.001"/>
			    <line class="st0" x1="135.681" y1="-45" x2="-11.546" y2="210.001"/>
			    <line class="st0" x1="127.021" y1="-50" x2="-20.206" y2="205.001"/>
			    <line class="st0" x1="118.36" y1="-55" x2="-28.866" y2="200.001"/>
			    <line class="st0" x1="109.698" y1="-60.001" x2="-37.527" y2="195"/>
			    <line class="st0" x1="101.038" y1="-65.001" x2="-46.188" y2="190.001"/>
			    <line class="st0" x1="92.378" y1="-70" x2="-54.848" y2="185.001"/>
			    <line class="st0" x1="83.718" y1="-75" x2="-63.508" y2="180.001"/>
			    <line class="st0" x1="75.058" y1="-80" x2="-72.168" y2="175.001"/>
			    <line class="st0" x1="66.397" y1="-85" x2="-80.828" y2="170.001"/>
			    <line class="st0" x1="57.737" y1="-90" x2="-89.488" y2="165.001"/>
			    <line class="st0" x1="49.076" y1="-95" x2="-98.148" y2="160.001"/>
			    <line class="st0" x1="40.416" y1="-100" x2="-98.148" y2="140"/>
			  </g>
			  <g>
			    <line class="st0" x1="-98.148" y1="-20" x2="178.981" y2="-20"/>
			    <line class="st0" x1="-98.148" y1="-10" x2="178.981" y2="-9.999"/>
			    <line class="st0" x1="-98.148" y1="0" x2="178.981" y2="0"/>
			    <line class="st0" x1="-98.148" y1="10" x2="178.981" y2="10"/>
			    <line class="st0" x1="-98.148" y1="20" x2="178.981" y2="20"/>
			    <line class="st0" x1="-98.148" y1="30" x2="178.981" y2="30"/>
			    <line class="st0" x1="-98.148" y1="40" x2="178.981" y2="40.001"/>
			    <line class="st0" x1="-98.148" y1="50" x2="178.981" y2="50.001"/>
			    <line class="st0" x1="-98.148" y1="60" x2="178.981" y2="60.001"/>
			    <line class="st0" x1="-98.148" y1="70" x2="178.981" y2="70.001"/>
			    <line class="st0" x1="-98.148" y1="80" x2="178.981" y2="80.001"/>
			    <line class="st0" x1="-98.148" y1="90" x2="178.981" y2="90.001"/>
			    <line class="st0" x1="-98.148" y1="100" x2="178.981" y2="100"/>
			    <line class="st0" x1="-98.148" y1="110.001" x2="178.981" y2="110"/>
			    <line class="st0" x1="-98.148" y1="120" x2="178.981" y2="120"/>
			    <line class="st0" x1="-98.148" y1="130" x2="178.981" y2="130"/>
			    <line class="st0" x1="-98.148" y1="140" x2="178.981" y2="140"/>
			    <line class="st0" x1="-98.148" y1="150" x2="178.981" y2="150"/>
			    <line class="st0" x1="-98.148" y1="160" x2="178.983" y2="160"/>
			  </g>
      </g>
</svg>
