<svg xmlns="http://www.w3.org/2000/svg" width="80.8" height="140" viewBox="0 0 80.8 140">
  <style>
    :root { --black: #443430; --red: #BF402B; --gold: #CEA600; --turquois: #4D9BA3; --emerald: #216554; --blue: #262F66; --white: #FFFAF2; } .shape-3{fill:var(--red)} .shape-5{fill:var(--white)} .shape-1{fill:var(--turquois)} .shape-2{fill:var(--white)} .shape-4{fill:var(--black)} .guides{ stroke: #4FFF4F; display: none; fill: none}
  </style>
  <g class="line" id="pattern">
    <path class="shape-5" d="M63.5 100l-5.8-10 5.8-10H52l-5.8-10L52 60h11.5l5.8 10-5.8 10h11.6l5.7 10 5.8-10h5.8v20h-5.8l-5.8-10-5.7 10H63.5zm17.3-50l-5.7-10H63.5l-5.8 10 5.8 10h11.6l5.7-10 5.8 10h5.8V40h-5.8l-5.8 10zm-23 80L52 140l5.7 10h11.6l5.8-10-5.8-10H57.7zm0-20H46.1l-5.8 10-5.8-10H23.1l-5.8 10 5.8 10H11.5l-5.7 10 5.7 10h11.6l5.8-10-5.8-10h11.5l5.8-10 5.8 10h11.5l5.8-10-5.8-10zM23-10H11.5L5.8 0l5.7 10h11.6l-5.8 10 5.8 10h11.5l5.8-10-5.8-10H23.1l5.8-10L23-10zm34.6 0L52 0l5.7 10H46.2l-5.8 10 5.8 10h11.5l5.8-10-5.8-10h11.6L75 0l-5.8-10H57.7zM0 90l5.8 10h11.5l5.8-10-5.8-10H29l5.7-10L29 60H17.3l5.8-10-5.8-10H5.8L0 50l-5.8-10h-5.7v20h5.7L0 50l5.8 10h11.5l-5.8 10 5.8 10H5.8L0 90l-5.8-10h-5.7v20h5.7L0 90z"/>
    <path class="shape-1" d="M48.1 46.7L52 40h-7.7l-3.9-6.7-3.8 6.7h-7.7l3.8 6.7-3.8 6.6h7.7l3.8 6.7 3.9-6.7H52zM88.5 116.7l3.9-6.7h-7.7l-3.9-6.7L77 110h-7.7l3.8 6.7-3.8 6.6H77l3.8 6.7 3.9-6.7h7.7zM7.7 116.7l3.8-6.7H3.9L0 103.3l-3.8 6.7h-7.7l3.8 6.7-3.8 6.6h7.7L0 130l3.9-6.7h7.6zM3.9 16.7L0 10l-3.8 6.7h-7.7l3.8 6.6-3.8 6.7h7.7L0 36.7 3.9 30h7.6l-3.8-6.7 3.8-6.6zM44.3 86.7L40.4 80l-3.8 6.7h-7.7l3.8 6.6-3.8 6.7h7.7l3.8 6.7 3.9-6.7H52l-3.9-6.7 3.9-6.6zM84.7 16.7L80.8 10 77 16.7h-7.7l3.8 6.6-3.8 6.7H77l3.8 6.7 3.9-6.7h7.7l-3.9-6.7 3.9-6.6z"/>
    <path class="shape-2" d="M11.5 30h11.6l5.8 10H17.3l-5.8-10M40.4 80l-5.8-10 5.8-10 5.8 10-5.8 10M69.3 30l-5.8 10H52l5.7-10h11.6M52 100h11.5l5.8 10H57.7L52 100M80.8 150l-5.7-10 5.7-10 5.8 10-5.8 10M0 150l-5.8-10L0 130l5.8 10L0 150M0 10L-5.8 0 0-10 5.8 0 0 10M11.5 110l5.8-10h11.6l-5.8 10H11.5M80.8 10L75.1 0l5.7-10 5.8 10-5.8 10"/>
    <path class="shape-3" d="M0 50l-5.8 10h-11.5l5.8 10-5.8 10h11.5L0 90l5.8-10h11.5l-5.8-10 5.8-10H5.8L0 50M80.8 50l-5.7 10H63.5l5.8 10-5.8 10h11.6l5.7 10 5.8-10h11.6l-5.8-10 5.8-10H86.6l-5.8-10M40.4-20l-5.8 10H23.1l5.8 10-5.8 10h11.5l5.8 10 5.8-10h11.5L52 0l5.7-10H46.2l-5.8-10M40.4 120l-5.8 10H23.1l5.8 10-5.8 10h11.5l5.8 10 5.8-10h11.5L52 140l5.7-10H46.2l-5.8-10"/>
    <path class="shape-4" d="M57.7 30H46.2l-5.8-10-5.8 10H23.1l5.8 10h7.7l3.8-6.7 3.9 6.7H52l5.7-10zM17.3 40l5.8 10-5.8 10H29l5.7 10 5.8-10-3.8-6.7h-7.7l3.8-6.6L29 40H17.3z"/>
    <path class="shape-4" d="M46.2 70L52 60h11.5l-5.8-10 5.8-10H52L48 46.7l3.9 6.6h-7.7L40.4 60l5.8 10zM98.2 100H86.6l-5.8-10-5.7 10H63.5l5.8 10H77l3.8-6.7 3.9 6.7h7.7l5.8-10zM23.1 150H11.6l-5.8-10L0 150h-11.5l5.7 10H2l3.9-6.7 3.8 6.7h7.7l5.8-10zM92.4 150H80.8l-5.7-10-5.8 10H57.7l5.8 10h7.7l3.9-6.7 3.8 6.7h7.7l5.8-10zM57.7 110l5.8 10-5.8 10h11.6l5.8 10 5.7-10-3.8-6.7h-7.7l3.8-6.6-3.8-6.7H57.7zM86.6 140l5.8-10h11.5l-5.7-10 5.7-10H92.4l-3.9 6.7 3.9 6.6h-7.7l-3.9 6.7 5.8 10zM17.3 100H5.8L0 90l-5.8 10h-11.5l5.8 10h7.7l3.8-6.7 3.9 6.7h7.6l5.8-10zM-23 110l5.7 10-5.8 10h11.6l5.7 10L0 130l-3.8-6.7h-7.7l3.8-6.6-3.8-6.7h-11.6zM5.8 140l5.7-10h11.6l-5.8-10 5.8-10H11.5l-3.8 6.7 3.8 6.6H4L0 130l5.8 10zM-5.8 0l-5.7 10h-11.6l5.8 10-5.8 10h11.6l3.8-6.7-3.8-6.6h7.7L0 10-5.8 0zM-17.3 40h11.5L0 50l5.8-10h11.5l-5.8-10H3.8L0 36.7-3.8 30h-7.7l-5.8 10zM23.1 30l-5.8-10 5.8-10H11.5L5.9 0 0 10l3.9 6.7h7.6l-3.8 6.6 3.8 6.7h11.6zM34.6 70L29 80H17.3l5.8 10-5.8 10H29l3.8-6.7-3.8-6.6h7.7l3.8-6.7-5.8-10z"/>
    <path class="shape-4" d="M23.1 110h11.5l5.8 10 5.8-10h11.5L52 100h-7.7l-3.9 6.7-3.8-6.7h-7.7L23 110zM63.5 100l-5.8-10 5.8-10H52l-5.8-10-5.8 10 3.9 6.7H52L48 93.3 52 100h11.5zM75 0l-5.7 10H57.7l5.8 10-5.8 10h11.6l3.8-6.7-3.8-6.6H77l3.8-6.7-5.7-10zM63.5 40h11.6l5.7 10 5.8-10h11.6l-5.8-10h-7.7l-3.9 6.7L77 30h-7.7l-5.8 10zM57.7-10h11.6L75 0l5.7-10h11.6l-5.8-10H79l-3.8 6.7-3.9-6.7h-7.7l-5.8 10zM-11.5-10H0L5.8 0l5.7-10h11.6l-5.8-10H9.6l-3.8 6.7L1.9-20h-7.7l-5.7 10zM104 30l-5.8-10 5.7-10H92.4L86.6 0l-5.8 10 3.9 6.7h7.7l-3.9 6.6 3.9 6.7h11.5z"/>
  </g>
  <g class="guides">
    <path d="M40.4 240L-98.1 0M49.1 235L-98.1-20M57.7 230L-89.5-25M66.4 225L-80.8-30M75.1 220L-72.2-35M83.7 215L-63.5-40M92.4 210L-54.8-45M101 205L-46.2-50M109.7 200L-37.5-55M118.4 195L-28.9-60M127 190L-20.2-65M135.7 185L-11.5-70M144.3 180L-2.9-75M153 175L5.8-80M161.7 170L14.4-85M170.3 165L23.1-90M179 160L31.8-95M179 140L40.4-100"/>
    <g>
      <path d="M179 0L40.4 240M179-20L31.8 235M170.3-25L23.1 230M161.7-30L14.4 225M153-35L5.8 220M144.3-40L-2.9 215M135.7-45L-11.5 210M127-50L-20.2 205M118.4-55L-28.9 200M109.7-60L-37.5 195M101-65L-46.2 190M92.4-70L-54.8 185M83.7-75L-63.5 180M75.1-80L-72.2 175M66.4-85L-80.8 170M57.7-90L-89.5 165M49.1-95L-98.1 160M40.4-100L-98.1 140"/>
    </g>
    <g>
      <path d="M-98.1-20H179M-98.1-10H179M-98.1 0H179M-98.1 10H179M-98.1 20H179M-98.1 30H179M-98.1 40H179M-98.1 50H179M-98.1 60H179M-98.1 70H179M-98.1 80H179M-98.1 90H179M-98.1 100H179M-98.1 110H179M-98.1 120H179M-98.1 130H179M-98.1 140H179M-98.1 150H179M-98.1 160H179"/>
    </g>
  </g>
</svg>
