<svg version="1.1" xmlns="http://www.w3.org/2000/svg" width="559.73" height="323.16" viewBox="0 0 100% 100%">
  <style>
    :root {
      --golden: #907A58;
      --darkBlue: #475387;
      --beige: #DFD8CC;
      --teal: #4A9AC4;
      --gray: #A49DA0;
      --smaragd: #406A72;
      --sand: #D3BDA7;
      --grayGreen: #A2D1D6;
      --blueGray: #758390;
      --lightBrown: #AA8858;
      --blue1: #8EC5EE;
      --blue2: #8CC6EA;
      --blue3: #B6DAEC;
      --rust: #D8692D;
      --yellow: #F8C346;
            --black: #443430;
      --red: #BF402B;
      --gold: #CEA600;
      --turquois: #4D9BA3;
      --emerald: #216554;
      --blue: #262F66;
      --white: #FFFAF2;

    }
    .shape-4{fill:var(--turquois)}
    .shape-2{fill:var(--white)}
    .shape-3{fill:var(--black)}
    .shape-5{fill:var(--white)}
    .shape-1{fill:var(--red)}
    .shape-7{fill:var(--gold)}
    .shape-6{fill:var(--white)}
    <!-- .line{stroke:#fff;stroke-width:8px} -->
    .guides{ stroke: #4FFF4F; display: none; fill: none}
  </style>

  <g id="pattern" class="line">
		<rect class="shape-1" x="-186.573" y="-161.579" width="932.999" height="645.955"/>
		<g>
			<polygon class="shape-2" points="202.132,26.917 186.585,-0.012 202.132,-26.942 233.228,-26.942 248.776,-0.012 233.228,26.917 		"/>
			<polygon class="shape-2" points="233.228,80.776 217.681,53.847 233.228,26.917 264.323,26.917 279.872,53.847 264.323,80.776 		"/>
			<polygon class="shape-2" points="295.42,80.776 279.872,53.847 295.42,26.917 326.516,26.917 342.062,53.847 326.516,80.776 		"/>
			<polygon class="shape-2" points="326.516,26.917 310.969,-0.012 326.516,-26.942 357.609,-26.942 373.156,-0.012 357.609,26.917 		"/>
			<polygon class="shape-2" points="233.228,296.218 217.681,269.289 233.228,242.359 264.323,242.359 279.872,269.289 264.323,296.218 
						"/>
			<polygon class="shape-2" points="202.132,350.077 186.585,323.147 202.132,296.218 233.228,296.218 248.776,323.147 233.228,350.077 
						"/>
			<polygon class="shape-2" points="326.516,350.077 310.969,323.147 326.516,296.218 357.609,296.218 373.156,323.147 357.609,350.077 
						"/>
			<polygon class="shape-2" points="295.42,296.218 279.872,269.289 295.42,242.359 326.516,242.359 342.062,269.289 326.516,296.218 		
				"/>
			<polygon class="shape-2" points="15.555,242.355 0.006,215.426 15.555,188.497 46.65,188.497 62.197,215.426 46.65,242.355 		"/>
			<polygon class="shape-2" points="46.65,188.497 31.104,161.567 46.65,134.638 77.744,134.638 93.291,161.567 77.744,188.497 		"/>
			<polygon class="shape-2" points="15.555,134.638 0.006,107.709 15.555,80.779 46.65,80.779 62.197,107.709 46.65,134.638 		"/>
			<polygon class="shape-2" points="513.094,134.638 497.546,107.709 513.094,80.779 544.188,80.779 559.736,107.709 544.188,134.638 		
				"/>
			<polygon class="shape-2" points="481.998,188.497 466.451,161.567 481.998,134.638 513.094,134.638 528.642,161.567 513.094,188.497 
						"/>
			<polygon class="shape-2" points="513.094,242.355 497.546,215.426 513.094,188.497 544.188,188.497 559.736,215.426 544.188,242.355 
						"/>
			<path class="shape-2" d="M590.834,161.567"/>
		</g>
		<g>
			<path class="shape-3" d="M279.872-53.871"/>
			<polygon class="shape-3" points="233.227,80.777 199.076,80.775 199.075,46.618 169.508,29.547 186.586,-0.01 202.133,26.918 
				233.228,26.917 217.68,53.848 		"/>
			<polygon class="shape-3" points="326.516,80.777 309.438,110.354 279.855,93.274 250.289,110.344 233.23,80.775 264.325,80.776 
				279.872,53.847 295.42,80.777 		"/>
			<polygon class="shape-3" points="373.16,-0.012 390.234,29.565 360.652,46.645 360.652,80.785 326.516,80.774 342.064,53.846 
				326.516,26.917 357.611,26.917 		"/>
			<polygon class="shape-3" points="326.516,242.359 360.668,242.359 360.668,276.52 390.235,293.59 373.156,323.147 357.609,296.218 
				326.516,296.218 342.062,269.289 		"/>
			<polygon class="shape-3" points="233.228,242.359 250.305,212.783 279.888,229.862 309.455,212.791 326.514,242.361 295.418,242.359 
				279.872,269.289 264.324,242.359 		"/>
			<polygon class="shape-3" points="186.583,323.147 169.509,293.57 199.091,276.49 199.091,242.35 233.228,242.361 217.68,269.289 
				233.228,296.218 202.132,296.219 		"/>
			<polygon class="shape-3" points="46.65,80.779 80.803,80.779 80.803,114.939 110.37,132.01 93.291,161.567 77.744,134.638 
				46.65,134.638 62.197,107.709 		"/>
			<polygon class="shape-3" points="-46.637,80.779 -29.56,51.203 0.023,68.282 29.59,51.211 46.648,80.781 15.553,80.779 0.006,107.709 
				-15.542,80.779 		"/>
			<polygon class="shape-3" points="46.65,242.357 29.572,271.934 -0.01,254.854 -29.577,271.924 -46.635,242.355 -15.541,242.355 
				0.006,215.426 15.555,242.357 		"/>
			<polygon class="shape-3" points="93.295,161.568 110.369,191.145 80.787,208.225 80.787,242.365 46.65,242.354 62.199,215.426 
				46.65,188.497 77.746,188.497 		"/>
			<polygon class="shape-3" points="513.094,80.779 530.17,51.203 559.754,68.282 589.32,51.211 606.379,80.781 575.283,80.779 
				559.736,107.709 544.189,80.779 		"/>
			<polygon class="shape-3" points="466.449,161.567 449.375,131.99 478.957,114.91 478.957,80.77 513.094,80.781 497.545,107.709 
				513.094,134.638 481.998,134.639 		"/>
			<polygon class="shape-3" points="513.092,242.357 478.941,242.355 478.939,208.197 449.373,191.127 466.451,161.569 481.998,188.498 
				513.094,188.497 497.545,215.428 		"/>
			<polygon class="shape-3" points="606.381,242.357 589.303,271.934 559.721,254.854 530.154,271.924 513.096,242.355 544.189,242.355 
				559.736,215.426 575.285,242.357 		"/>
		</g>
		<g>
			<polygon class="shape-4" points="279.872,-53.871 295.42,-26.942 326.516,-26.942 310.969,-0.012 326.516,26.917 295.42,26.917 
				279.872,53.847 264.323,26.917 233.228,26.917 248.776,-0.012 233.228,-26.942 264.323,-26.942 		"/>
			<polygon class="shape-4" points="279.872,269.289 295.42,296.218 326.516,296.218 310.969,323.147 326.516,350.077 295.42,350.077 
				279.872,377.006 264.323,350.077 233.228,350.077 248.776,323.147 233.228,296.218 264.323,296.218 		"/>
			<polygon class="shape-4" points="0.006,107.709 15.555,134.638 46.65,134.638 31.104,161.567 46.65,188.497 15.555,188.497 
				0.006,215.426 -15.542,188.497 -46.637,188.497 -31.089,161.567 -46.637,134.638 -15.542,134.638 		"/>
			<polygon class="shape-4" points="559.736,107.709 575.285,134.638 606.381,134.638 590.834,161.567 606.381,188.497 575.285,188.497 
				559.736,215.426 544.188,188.497 513.094,188.497 528.642,161.567 513.094,134.638 544.188,134.638 		"/>
		</g>
		<g>
			<line class="shape-5" x1="169.495" y1="-29.568" x2="199.063" y2="-46.641"/>
			<line class="shape-5" x1="360.668" y1="-46.641" x2="390.235" y2="-29.568"/>
			<polygon class="shape-5" points="250.296,110.371 279.865,161.581 309.434,110.371 279.866,93.298 		"/>
			<polygon class="shape-5" points="169.503,29.574 139.933,80.791 199.063,80.791 199.063,46.643 		"/>
			<polygon class="shape-5" points="390.243,29.565 360.667,46.643 360.667,80.791 419.824,80.791 		"/>
			<polygon class="shape-5" points="199.063,242.359 139.913,242.359 169.495,293.592 199.063,276.519 		"/>
			<polygon class="shape-5" points="390.235,293.592 419.816,242.359 360.668,242.359 360.668,276.52 		"/>
			<polygon class="shape-5" points="309.436,212.789 279.865,161.58 250.299,212.791 279.866,229.863 		"/>
			<polygon class="shape-5" points="110.37,132.012 139.951,80.779 80.803,80.779 80.803,114.939 		"/>
			<polygon class="shape-5" points="-29.569,271.951 0,323.16 29.568,271.951 0,254.877 		"/>
			<polygon class="shape-5" points="29.57,51.209 0,0 -29.566,51.211 0,68.283 		"/>
			<polygon class="shape-5" points="110.378,191.145 80.802,208.223 80.802,242.371 139.959,242.371 		"/>
			<path class="shape-5" d="M589.299,271.951"/>
			<path class="shape-5" d="M589.301,51.209"/>
			<polygon class="shape-5" points="478.929,80.779 419.777,80.779 449.359,132.012 478.929,114.938 		"/>
			<polygon class="shape-5" points="530.162,271.951 559.73,323.16 589.299,271.951 559.73,254.877 		"/>
			<polygon class="shape-5" points="589.301,51.209 559.73,0 530.164,51.211 559.73,68.283 		"/>
			<polygon class="shape-5" points="449.368,191.154 419.799,242.371 478.928,242.371 478.928,208.223 		"/>
			<polygon class="shape-5" points="220.722,127.448 250.296,110.371 233.217,80.791 199.063,80.791 199.063,114.946 220.722,102.44 		
				"/>
			<polygon class="shape-5" points="220.722,195.713 220.722,220.72 199.063,208.214 199.063,242.359 233.228,242.359 250.299,212.791 		
				"/>
			<polygon class="shape-5" points="139.939,149.085 110.37,132.012 93.301,161.572 110.378,191.145 139.939,174.076 118.298,161.58 		
				"/>
			<polygon class="shape-5" points="360.667,114.947 360.667,80.791 326.514,80.791 309.434,110.371 339.01,127.448 339.01,102.442 		"/>
			<polygon class="shape-5" points="339.01,195.713 309.436,212.789 326.512,242.359 360.668,242.359 360.668,208.216 339.01,220.722 		
				"/>
			<polygon class="shape-5" points="419.793,174.077 449.368,191.154 466.438,161.588 449.359,132.012 419.79,149.085 441.434,161.582 		
				"/>
			<polygon class="shape-5" points="419.804,310.665 390.235,293.592 373.166,323.152 390.243,352.725 419.805,335.656 398.163,323.16 		
				"/>
			<polygon class="shape-5" points="500.587,289.027 530.162,271.951 513.082,242.371 478.928,242.371 478.928,276.526 500.587,264.021 
						"/>
			<polygon class="shape-5" points="419.804,-12.495 390.235,-29.568 373.166,-0.007 390.243,29.565 419.805,12.496 398.163,0 		"/>
			<polygon class="shape-5" points="500.587,34.133 500.587,59.14 478.929,46.635 478.929,80.779 513.094,80.779 530.164,51.211 		"/>
			<polygon class="shape-5" points="139.926,12.497 169.503,29.574 186.573,0.009 169.495,-29.568 139.927,-12.495 161.568,0 		"/>
			<polygon class="shape-5" points="59.145,34.133 29.57,51.209 46.646,80.779 80.803,80.779 80.803,46.635 59.145,59.14 		"/>
			<polygon class="shape-5" points="186.573,323.168 169.495,293.592 139.927,310.664 161.568,323.16 139.926,335.656 169.503,352.734 		
				"/>
			<polygon class="shape-5" points="80.802,276.525 80.802,242.371 46.648,242.371 29.568,271.951 59.145,289.028 59.145,264.021 		"/>
		</g>
		<g>
			<polygon class="shape-6" points="220.722,195.713 220.722,127.448 199.063,139.954 199.063,114.946 139.939,149.085 161.58,161.58 
				139.939,174.076 199.063,208.214 199.063,183.207 		"/>
			<polygon class="shape-6" points="398.15,161.58 419.79,149.085 360.667,114.947 360.667,139.953 339.01,127.448 339.01,195.713 
				360.668,183.207 360.668,208.216 419.793,174.077 		"/>
			<polygon class="shape-6" points="500.587,289.027 478.928,301.533 478.928,276.526 419.804,310.665 441.445,323.16 419.805,335.656 
				500.587,382.3 		"/>
			<polygon class="shape-6" points="500.587,34.133 500.587,-59.139 419.804,-12.495 441.445,0.001 419.805,12.496 478.929,46.635 
				478.929,21.627 		"/>
			<polygon class="shape-6" points="118.285,0.001 139.927,-12.495 59.145,-59.139 59.145,34.133 80.803,21.627 80.803,46.635 
				139.926,12.497 		"/>
			<polygon class="shape-6" points="139.927,310.664 80.802,276.525 80.802,301.533 59.145,289.028 59.145,382.3 139.926,335.656 
				118.285,323.16 		"/>
		</g>
		<g>
			<polygon class="shape-7" points="220.722,127.448 220.722,102.44 199.063,114.946 199.063,139.954 		"/>
			<polygon class="shape-7" points="220.722,195.713 199.063,183.207 199.063,208.214 220.722,220.72 		"/>
			<polygon class="shape-7" points="139.939,149.085 118.298,161.58 139.939,174.076 161.58,161.58 		"/>
			<polygon class="shape-7" points="360.667,114.947 339.01,102.442 339.01,127.448 360.667,139.953 		"/>
			<polygon class="shape-7" points="339.01,195.713 339.01,220.722 360.668,208.216 360.668,183.207 		"/>
			<polygon class="shape-7" points="419.793,174.077 441.434,161.582 419.79,149.085 398.15,161.58 		"/>
			<polygon class="shape-7" points="419.804,310.665 398.163,323.16 419.805,335.656 441.445,323.16 		"/>
			<polygon class="shape-7" points="500.587,289.027 500.587,264.021 478.928,276.526 478.928,301.533 		"/>
			<polygon class="shape-7" points="419.804,-12.495 398.163,0 419.805,12.496 441.445,0.001 		"/>
			<polygon class="shape-7" points="500.587,34.133 478.929,21.627 478.929,46.635 500.587,59.14 		"/>
			<polygon class="shape-7" points="139.926,12.497 161.568,0 139.927,-12.495 118.285,0.001 		"/>
			<polygon class="shape-7" points="59.145,34.133 59.145,59.14 80.803,46.635 80.803,21.627 		"/>
			<polygon class="shape-7" points="139.927,310.664 118.285,323.16 139.926,335.656 161.568,323.16 		"/>
			<polygon class="shape-7" points="80.802,276.525 59.145,264.021 59.145,289.028 80.802,301.533 		"/>
		</g>
	</g>

	<g class="guides">
		<circle class="st1" cx="186.577" cy="161.58" r="68.279"/>
		<circle class="st1" cx="93.289" cy="323.16" r="68.279"/>
		<circle class="st1" cx="466.442" cy="0" r="68.279"/>
		<circle class="st1" cx="93.289" cy="0" r="68.279"/>
		<circle class="st1" cx="466.442" cy="323.16" r="68.279"/>
		<circle class="st1" cx="373.154" cy="161.582" r="68.279"/>
		<g>
			<polygon class="st11" points="373.154,161.582 186.577,161.58 93.289,0 186.577,-161.58 373.154,-161.58 466.442,0 		"/>
			<line class="st11" x1="279.865" y1="-186.576" x2="279.865" y2="186.578"/>
			<line class="st11" x1="118.285" y1="93.289" x2="441.445" y2="-93.288"/>
			<line class="st11" x1="441.445" y1="93.289" x2="118.285" y2="-93.288"/>
			<line class="st11" x1="186.577" y1="-161.58" x2="373.154" y2="161.582"/>
			<line class="st11" x1="186.577" y1="161.58" x2="373.154" y2="-161.58"/>
			<line class="st11" x1="64.19" y1="-0.004" x2="553.75" y2="-0.004"/>
			<circle class="st11" cx="279.865" cy="0.001" r="161.58"/>
			<polygon class="st11" points="360.667,46.643 441.445,0.001 360.668,-46.641 360.668,-139.953 279.866,-93.297 199.063,-139.953 
				199.063,-46.641 118.285,0.001 199.063,46.643 199.063,139.954 279.866,93.298 360.667,139.953 		"/>
			<polygon class="st11" points="419.816,-80.8 139.913,-80.801 279.865,161.581 		"/>
			<polygon class="st11" points="279.865,-161.579 139.933,80.791 419.824,80.791 		"/>
		</g>
		<g>
			<polygon class="st11" points="373.154,484.742 186.577,484.74 93.289,323.16 186.577,161.58 373.154,161.58 466.442,323.16 		"/>
			<line class="st11" x1="279.865" y1="136.584" x2="279.865" y2="509.738"/>
			<line class="st11" x1="118.285" y1="416.449" x2="441.445" y2="229.872"/>
			<line class="st11" x1="441.445" y1="416.449" x2="118.285" y2="229.872"/>
			<line class="st11" x1="186.577" y1="161.58" x2="373.154" y2="484.742"/>
			<line class="st11" x1="186.577" y1="484.74" x2="373.154" y2="161.58"/>
			<line class="st11" x1="64.19" y1="323.155" x2="553.75" y2="323.155"/>
			<circle class="st11" cx="279.865" cy="323.16" r="161.58"/>
			<polygon class="st11" points="360.667,369.803 441.445,323.16 360.668,276.52 360.668,183.207 279.866,229.863 199.063,183.207 
				199.063,276.519 118.285,323.16 199.063,369.803 199.063,463.113 279.866,416.457 360.667,463.113 		"/>
			<polygon class="st11" points="419.816,242.359 139.913,242.359 279.865,484.74 		"/>
			<polygon class="st11" points="279.865,161.58 139.933,403.951 419.824,403.951 		"/>
		</g>
		<g>
			<polygon class="st11" points="93.289,323.162 -93.288,323.16 -186.576,161.58 -93.288,0 93.289,0 186.577,161.58 		"/>
			<line class="st11" x1="0" y1="-24.996" x2="0" y2="348.158"/>
			<line class="st11" x1="-161.58" y1="254.869" x2="161.58" y2="68.292"/>
			<line class="st11" x1="161.58" y1="254.869" x2="-161.58" y2="68.292"/>
			<line class="st11" x1="-93.288" y1="0" x2="93.289" y2="323.162"/>
			<line class="st11" x1="-93.288" y1="323.16" x2="93.289" y2="0"/>
			<line class="st11" x1="-215.675" y1="161.575" x2="273.885" y2="161.575"/>
			<circle class="st11" cx="0" cy="161.58" r="161.58"/>
			<polygon class="st11" points="80.802,208.223 161.58,161.58 80.803,114.939 80.803,21.627 0,68.283 -80.802,21.627 
				-80.802,114.938 -161.58,161.58 -80.802,208.223 -80.802,301.533 0,254.877 80.802,301.533 		"/>
			<polygon class="st11" points="139.951,80.779 -139.953,80.779 0,323.16 		"/>
			<polygon class="st11" points="0,0 -139.932,242.371 139.959,242.371 		"/>
		</g>
		<g>
			<polygon class="st11" points="653.02,323.162 466.442,323.16 373.154,161.58 466.442,0 653.02,0 746.308,161.58 		"/>
			<line class="st11" x1="559.73" y1="-24.996" x2="559.73" y2="348.158"/>
			<line class="st11" x1="398.15" y1="254.869" x2="721.311" y2="68.292"/>
			<line class="st11" x1="721.311" y1="254.869" x2="398.15" y2="68.292"/>
			<line class="st11" x1="466.442" y1="0" x2="653.02" y2="323.162"/>
			<line class="st11" x1="466.442" y1="323.16" x2="653.02" y2="0"/>
			<line class="st11" x1="344.056" y1="161.575" x2="833.615" y2="161.575"/>
			<circle class="st11" cx="559.73" cy="161.58" r="161.58"/>
			<polygon class="st11" points="640.532,208.223 721.311,161.58 640.533,114.939 640.533,21.627 559.73,68.283 478.929,21.627 
				478.929,114.938 398.15,161.58 478.928,208.223 478.928,301.533 559.73,254.877 640.532,301.533 		"/>
			<polygon class="st11" points="699.682,80.779 419.777,80.779 559.73,323.16 		"/>
			<polygon class="st11" points="559.73,0 419.799,242.371 699.689,242.371 		"/>
		</g>
	</g>
</svg>
