<svg xmlns="http://www.w3.org/2000/svg" width="559.7" height="323.2" viewBox="0 0 559.7 323.2">
  <style>
    :root { --black: #443430; --red: #BF402B; --gold: #CEA600; --turquois: #4D9BA3; --emerald: #216554; --blue: #262F66; --white: #FFFAF2; } .shape-4{fill:var(--turquois)} .shape-2{fill:var(--white)} .shape-3{fill:var(--black)} .shape-5{fill:var(--white)} .shape-1{fill:var(--red)} .shape-7{fill:var(--gold)} .shape-6{fill:var(--white)} .guides{ stroke: #4FFF4F; display: none; fill: none}
  </style>
  <g id="pattern" class="line">
    <path class="shape-1" d="M220.7 127.4l29.6-17 29.6 51.2-29.6 51.2-29.6-17v-68.4zm88.7 85.4l29.6-17v-68.4l-29.6-17-29.5 51.2 29.5 51.2zM80.8 46.6v34.2h59.1l29.6-51.2-29.6-17.1-59.1 34.1zm398.1 34.2V46.6l-59.1-34.1-29.6 17 29.6 51.3H479zM419.8 149l29.6-17-29.6-51.3h-59.1v34.1l59 34.2zm59.1 127.4v-34.1h-59l-29.7 51.2 29.6 17 59.1-34zm-118.2-68.3v34.2h59.1l29.6-51.2-29.6-17.1-59.1 34.1zM139.9 310.7l29.6-17.1-29.6-51.2H80.8v34.1l59.1 34.2zM500.6 289v51h59.1v-16.8L530.2 272l-29.6 17zM0 0l29.6 51.2 29.5-17v-51H0V0zm530.2 51.2L559.7 0v-16.9h-59.1v51l29.6 17.1zM29.6 272L0 323.2V340h59.1v-51l-29.5-17zM199 115V80.7h-59.2L110.4 132l29.5 17 59.2-34zm0 127.4v-34.2l-59.2-34.1-29.5 17 29.6 51.3h59z"/>
    <path class="shape-2" d="M202.1 26.9L186.6 0l15.5-26.9h31.1L248.8 0l-15.6 26.9zM233.2 80.8l-15.5-27 15.5-26.9h31.1l15.6 26.9-15.6 27z"/>
    <path class="shape-2" d="M295.4 80.8l-15.5-27 15.5-26.9h31.1l15.6 26.9-15.6 27zM326.5 26.9L311 0l15.5-26.9h31.1L373.2 0l-15.6 26.9zM233.2 296.2l-15.5-26.9 15.5-26.9h31.1l15.6 26.9-15.6 26.9zM202.1 350.1l-15.5-27 15.5-26.9h31.1l15.6 26.9-15.6 27zM326.5 350.1l-15.5-27 15.5-26.9h31.1l15.6 26.9-15.6 27z"/>
    <path class="shape-2" d="M295.4 296.2l-15.5-26.9 15.5-26.9h31.1l15.6 26.9-15.6 26.9zM15.6 242.4L0 215.4l15.6-26.9h31l15.6 26.9-15.6 27zM46.6 188.5l-15.5-26.9 15.5-27h31.1l15.6 27-15.6 26.9z"/>
    <path class="shape-2" d="M15.6 134.6L0 107.7l15.6-26.9h31l15.6 26.9-15.6 26.9zM513.1 134.6l-15.6-26.9 15.6-26.9h31.1l15.5 26.9-15.5 26.9zM482 188.5l-15.5-26.9 15.5-27h31.1l15.5 27-15.5 26.9zM513.1 242.4l-15.6-27 15.6-26.9h31.1l15.5 26.9-15.5 27z"/>
    <g>
      <path class="shape-3" d="M233.2 80.8h-34.1V46.6l-29.6-17.1L186.6 0l15.5 26.9h31.1l-15.5 26.9zM326.5 80.8l-17.1 29.6-29.5-17.1-29.6 17-17.1-29.5h31.1l15.6-27 15.5 27zM373.2 0l17 29.6-29.5 17v34.2h-34.2l15.6-27-15.6-26.9h31.1zM326.5 242.4h34.2v34.1l29.5 17.1-17 29.5-15.6-26.9h-31.1l15.6-26.9zM233.2 242.4l17.1-29.6 29.6 17.1 29.6-17.1 17 29.6h-31.1l-15.5 26.9-15.6-26.9zM186.6 323.1l-17.1-29.5 29.6-17.1v-34.2l34.1.1-15.5 26.9 15.5 26.9h-31.1zM46.6 80.8h34.2v34.1l29.6 17.1-17.1 29.6-15.6-27H46.6l15.6-26.9zM-46.6 80.8l17-29.6L0 68.3l29.6-17.1 17 29.6h-31L0 107.7l-15.5-26.9zM46.6 242.4l-17 29.5-29.6-17-29.6 17-17-29.5h31.1l15.5-27 15.6 27zM93.3 161.6l17.1 29.5-29.6 17.1v34.2H46.6l15.6-27-15.6-26.9h31.1zM513.1 80.8l17.1-29.6 29.6 17.1 29.5-17.1 17.1 29.6h-31.1l-15.6 26.9-15.5-26.9zM466.4 161.6l-17-29.6 29.6-17.1V80.8h34.1l-15.6 26.9 15.6 26.9H482zM513.1 242.4h-34.2v-34.2l-29.5-17.1 17.1-29.5 15.5 26.9h31.1l-15.6 26.9z"/>
      <path class="shape-3" d="M606.4 242.4l-17.1 29.5-29.6-17-29.5 17-17.1-29.5h31.1l15.5-27 15.6 27z"/>
    </g>
    <g>
      <path class="shape-4" d="M279.9-53.9l15.5 27h31.1L311 0l15.5 26.9h-31.1l-15.5 26.9-15.6-26.9h-31.1L248.8 0l-15.6-26.9h31.1zM279.9 269.3l15.5 26.9h31.1L311 323.1l15.5 27h-31.1L279.9 377l-15.6-26.9h-31.1l15.6-27-15.6-26.9h31.1zM0 107.7l15.6 26.9h31l-15.5 27 15.5 26.9h-31L0 215.4l-15.5-26.9h-31.1l15.5-26.9-15.5-27h31.1zM559.7 107.7l15.6 26.9h31.1l-15.6 27 15.6 26.9h-31.1l-15.6 26.9-15.5-26.9h-31.1l15.5-26.9-15.5-27h31.1z"/>
    </g>
    <g>
      <path class="shape-5" d="M169.5-29.6l29.6-17M360.7-46.6l29.5 17M250.3 110.4l29.6 51.2 29.5-51.2-29.5-17.1zM169.5 29.6l-29.6 51.2h59.2V46.6zM390.2 29.6l-29.5 17v34.2h59.1zM199.1 242.4h-59.2l29.6 51.2 29.6-17.1zM390.2 293.6l29.6-51.2h-59.1v34.1zM309.4 212.8l-29.5-51.2-29.6 51.2 29.6 17.1z"/>
      <path class="shape-5" d="M110.4 132L140 80.8H80.8v34.1zM-29.6 272L0 323.2 29.6 272 0 254.9zM29.6 51.2L0 0l-29.6 51.2L0 68.3zM110.4 191.1l-29.6 17.1v34.2H140zM478.9 80.8h-59.1l29.6 51.2 29.5-17.1zM530.2 272l29.5 51.2 29.6-51.2-29.6-17.1zM589.3 51.2L559.7 0l-29.5 51.2 29.5 17.1zM449.4 191.2l-29.6 51.2h59.1v-34.2zM220.7 127.4l29.6-17-17.1-29.6h-34.1v34.1l21.6-12.5zM220.7 195.7v25l-21.6-12.5v34.2h34.1l17.1-29.6zM139.9 149.1L110.4 132l-17.1 29.6 17.1 29.5 29.5-17-21.6-12.5zM360.7 114.9V80.8h-34.2l-17.1 29.6 29.6 17v-25zM339 195.7l-29.6 17.1 17.1 29.6h34.2v-34.2L339 220.7zM419.8 174.1l29.6 17.1 17-29.6-17-29.6-29.6 17.1 21.6 12.5zM419.8 310.7l-29.6-17.1-17 29.6 17 29.5 29.6-17-21.6-12.5zM500.6 289l29.6-17-17.1-29.6h-34.2v34.1l21.7-12.5zM419.8-12.5l-29.6-17.1-17 29.6 17 29.6 29.6-17.1L398.2 0zM500.6 34.1v25l-21.7-12.5v34.2h34.2l17.1-29.6zM139.9 12.5l29.6 17.1L186.6 0l-17.1-29.6-29.6 17.1L161.6 0z"/>
      <path class="shape-5" d="M59.1 34.1L29.6 51.2l17 29.6h34.2V46.6L59.1 59.1zM186.6 323.2l-17.1-29.6-29.6 17.1 21.7 12.5-21.7 12.5 29.6 17zM80.8 276.5v-34.1H46.6l-17 29.6 29.5 17v-25z"/>
    </g>
    <g>
      <path class="shape-6" d="M220.7 195.7v-68.3L199.1 140v-25.1l-59.2 34.2 21.7 12.5-21.7 12.5 59.2 34.1v-25zM398.1 161.6l21.7-12.5-59.1-34.2V140L339 127.4v68.3l21.7-12.5v25l59.1-34.1zM500.6 289l-21.7 12.5v-25l-59.1 34.2 21.6 12.5-21.6 12.5 80.8 46.6zM500.6 34.1v-93.2l-80.8 46.6L441.4 0l-21.6 12.5 59.1 34.1v-25zM118.3 0l21.6-12.5-80.8-46.6v93.2l21.7-12.5v25l59.1-34.1zM139.9 310.7l-59.1-34.2v25L59.1 289v93.3l80.8-46.6-21.6-12.5z"/>
    </g>
    <g>
      <path class="shape-7" d="M220.7 127.4v-25l-21.6 12.5V140zM220.7 195.7l-21.6-12.5v25l21.6 12.5zM139.9 149.1l-21.6 12.5 21.6 12.5 21.7-12.5zM360.7 114.9L339 102.4v25l21.7 12.6zM339 195.7v25l21.7-12.5v-25zM419.8 174.1l21.6-12.5-21.6-12.5-21.7 12.5zM419.8 310.7l-21.6 12.5 21.6 12.5 21.6-12.5zM500.6 289v-25l-21.7 12.5v25zM419.8-12.5L398.2 0l21.6 12.5L441.4 0zM500.6 34.1l-21.7-12.5v25l21.7 12.5zM139.9 12.5L161.6 0l-21.7-12.5L118.3 0zM59.1 34.1v25l21.7-12.5v-25zM139.9 310.7l-21.6 12.5 21.6 12.5 21.7-12.5zM80.8 276.5L59.1 264v25l21.7 12.5z"/>
    </g>
  </g>
  <g class="guides">
    <circle cx="186.6" cy="161.6" r="68.3"/>
    <circle cx="93.3" cy="323.2" r="68.3"/>
    <circle cx="466.4" r="68.3"/>
    <circle cx="93.3" r="68.3"/>
    <circle cx="466.4" cy="323.2" r="68.3"/>
    <circle cx="373.2" cy="161.6" r="68.3"/>
    <path d="M373.2 161.6H186.6L93.3 0l93.3-161.6h186.6L466.4 0zM279.9-186.6v373.2M118.3 93.3L441.4-93.3M441.4 93.3L118.3-93.3M186.6-161.6l186.6 323.2M186.6 161.6l186.6-323.2M64.2 0h489.6"/>
    <circle cx="279.9" r="161.6"/>
    <path d="M360.7 46.6L441.4 0l-80.7-46.6V-140l-80.8 46.7-80.8-46.7v93.4L118.3 0l80.8 46.6V140l80.8-46.7 80.8 46.7z"/>
    <path d="M419.8-80.8H139.9l140 242.4z"/>
    <path d="M279.9-161.6l-140 242.4h279.9z"/>
    <g>
      <path d="M373.2 484.7H186.6L93.3 323.2l93.3-161.6h186.6l93.2 161.6zM279.9 136.6v373.1M118.3 416.4l323.1-186.5M441.4 416.4L118.3 229.9M186.6 161.6l186.6 323.1M186.6 484.7l186.6-323.1M64.2 323.2h489.6"/>
      <circle cx="279.9" cy="323.2" r="161.6"/>
      <path d="M360.7 369.8l80.7-46.6-80.7-46.7v-93.3l-80.8 46.7-80.8-46.7v93.3l-80.8 46.7 80.8 46.6v93.3l80.8-46.6 80.8 46.6z"/>
      <path d="M419.8 242.4H139.9l140 242.3z"/>
      <path d="M279.9 161.6L139.9 404h279.9z"/>
    </g>
    <g>
      <path d="M93.3 323.2H-93.3l-93.3-161.6L-93.3 0H93.3l93.3 161.6zM0-25v373.2M-161.6 254.9L161.6 68.3M161.6 254.9L-161.6 68.3M-93.3 0L93.3 323.2M-93.3 323.2L93.3 0M-215.7 161.6h489.6"/>
      <circle cy="161.6" r="161.6"/>
      <path d="M80.8 208.2l80.8-46.6-80.8-46.7V21.6L0 68.3l-80.8-46.7v93.3l-80.8 46.7 80.8 46.6v93.3L0 254.9l80.8 46.6z"/>
      <path d="M140 80.8h-280L0 323.2z"/>
      <path d="M0 0l-139.9 242.4H140z"/>
    </g>
    <g>
      <path d="M653 323.2H466.4l-93.2-161.6L466.4 0H653l93.3 161.6zM559.7-25v373.2M398.1 254.9L721.3 68.3M721.3 254.9L398.1 68.3M466.4 0L653 323.2M466.4 323.2L653 0M344.1 161.6h489.5"/>
      <circle cx="559.7" cy="161.6" r="161.6"/>
      <path d="M640.5 208.2l80.8-46.6-80.8-46.7V21.6l-80.8 46.7-80.8-46.7v93.3l-80.8 46.7 80.8 46.6v93.3l80.8-46.6 80.8 46.6z"/>
      <path d="M699.7 80.8H419.8l139.9 242.4z"/>
      <path d="M559.7 0L419.8 242.4h279.9z"/>
    </g>
  </g>
</svg>
