<svg version="1.1" xmlns="http://www.w3.org/2000/svg"  width="386.62" height="669.652" viewBox="0 0 100% 100%">
  <style>
    :root {
      --golden: #907A58;
      --darkBlue: #475387;
      --beige: #DFD8CC;
      --teal: #4A9AC4;
      --gray: #A49DA0;
      --smaragd: #406A72;
      --sand: #D3BDA7;
      --grayGreen: #A2D1D6;
      --blueGray: #758390;
      --lightBrown: #AA8858;
      --blue1: #8EC5EE;
      --blue2: #8CC6EA;
      --blue3: #B6DAEC;
      --rust: #D8692D;
      --yellow: #F8C346;
    }
    .shape-1{fill:var(--darkBlue)}
    .shape-2{fill:var(--sand)}
    .shape-3{fill:var(--smaragd)}
    .shape-4{fill:var(--grayGreen)}
    .shape-5{fill:var(--teal)}
    .shape-6{fill:var(--rust)}
    .shape-7{fill:var(--yellow)}
    .shape-8{fill:var(--golden)}
    .line{stroke:#fff;stroke-width:10px}
    .guides{ stroke: #4FFF4F; display: none; fill: none}
  </style>
      <g class="line" id="pattern">
				<rect x="-37.117" y="-24.124" class="shape-1" width="460.66" height="721.208"/>
				<g>
					<polygon class="shape-2" points="348.527,232.449 295.625,221.204 289.972,167.416 339.378,145.42 375.568,185.61 		"/>
					<polygon class="shape-2" points="413.669,251.604 430.382,303.041 386.626,334.83 342.873,303.041 359.585,251.604 		"/>
					<polygon class="shape-2" points="375.566,484.047 339.376,524.238 289.968,502.24 295.623,448.455 348.523,437.209 		"/>
					<polygon class="shape-2" points="359.583,418.054 342.871,366.617 386.625,334.829 430.38,366.619 413.667,418.055 		"/>
					<polygon class="shape-2" points="27.043,251.603 43.756,303.039 0.001,334.828 -43.753,303.038 -27.041,251.603 		"/>
					<polygon class="shape-2" points="11.062,185.609 47.25,145.417 96.657,167.415 91.004,221.203 38.103,232.448 		"/>
					<polygon class="shape-2" points="182.253,149.22 146.064,189.411 96.657,167.414 102.31,113.628 155.211,102.382 		"/>
					<polygon class="shape-2" points="231.414,102.383 284.316,113.627 289.968,167.415 240.56,189.411 204.373,149.221 		"/>
					<polygon class="shape-2" points="166.271,83.227 149.558,31.79 193.312,0.001 237.068,31.791 220.355,83.228 		"/>
					<polygon class="shape-2" points="220.353,-83.225 237.066,-31.788 193.312,0.001 149.558,-31.788 166.269,-83.225 		"/>
					<polygon class="shape-2" points="-27.038,418.057 -43.751,366.62 0.004,334.83 43.758,366.62 27.046,418.057 		"/>
					<polygon class="shape-2" points="38.104,437.213 91.007,448.457 96.659,502.244 47.251,524.242 11.062,484.051 		"/>
					<polygon class="shape-2" points="166.272,752.879 149.559,701.443 193.313,669.654 237.068,701.443 220.357,752.881 		"/>
					<polygon class="shape-2" points="220.353,586.428 237.066,637.865 193.312,669.654 149.559,637.865 166.27,586.428 		"/>
					<polygon class="shape-2" points="204.371,520.436 240.56,480.244 289.968,502.242 284.314,556.029 231.414,567.273 		"/>
					<polygon class="shape-2" points="155.211,567.271 102.309,556.029 96.656,502.242 146.064,480.244 182.254,520.436 		"/>
				</g>
				<g>
					<polygon class="shape-3" points="348.527,232.449 364.693,235.885 359.585,251.604 413.669,251.604 408.56,235.885 424.728,232.449 
						397.687,185.611 386.626,197.892 375.568,185.61 		"/>
					<polygon class="shape-3" points="375.566,484.047 386.625,471.766 397.683,484.048 424.726,437.209 408.558,433.773 413.667,418.055 
						359.583,418.054 364.689,433.772 348.523,437.209 		"/>
					<polygon class="shape-3" points="-38.1,232.447 -21.934,235.883 -27.041,251.603 27.043,251.603 21.935,235.883 38.103,232.448 
						11.062,185.609 0.001,197.89 -11.058,185.608 		"/>
					<polygon class="shape-3" points="182.253,149.22 193.312,136.938 204.373,149.221 231.414,102.383 215.246,98.946 220.355,83.228 
						166.271,83.227 171.376,98.945 155.211,102.382 		"/>
					<polygon class="shape-3" points="-27.038,418.057 -21.931,433.774 -38.098,437.211 -11.056,484.049 0.003,471.766 11.062,484.051 
						38.104,437.213 21.939,433.774 27.046,418.057 		"/>
					<polygon class="shape-3" points="220.353,586.428 215.246,570.711 231.414,567.273 204.371,520.436 193.312,532.719 182.254,520.436 
						155.211,567.271 171.377,570.711 166.27,586.428 		"/>
				</g>
				<g>
					<polygon class="shape-4" points="433.875,145.416 456.244,120.577 423.542,63.947 417.162,110.783 386.626,124.378 		"/>
					<polygon class="shape-4" points="342.871,303.04 301.027,272.642 304.521,305.884 267.15,334.827 304.517,363.774 301.023,397.016 
						342.867,366.617 332.542,334.832 		"/>
					<polygon class="shape-4" points="433.871,524.24 456.242,549.079 423.541,605.71 417.16,558.874 386.623,545.279 		"/>
					<polygon class="shape-4" points="-47.247,145.414 -69.616,120.576 -36.915,63.945 -30.534,110.781 0.001,124.376 		"/>
					<polygon class="shape-4" points="356.091,110.783 349.703,63.944 305.953,81.837 278.91,62.19 284.316,113.627 317.01,120.579 
						339.378,145.416 386.626,124.378 		"/>
					<polygon class="shape-4" points="107.712,62.188 80.671,81.835 36.917,63.945 30.536,110.781 0.001,124.376 47.249,145.414 
						69.615,120.579 102.307,113.626 		"/>
					<polygon class="shape-4" points="146.063,189.413 123.694,214.251 91.004,221.203 85.599,272.64 112.641,252.993 156.392,270.885 
						162.776,224.047 193.312,210.452 		"/>
					<polygon class="shape-4" points="295.623,221.204 262.927,214.251 240.56,189.413 193.312,210.452 223.847,224.047 230.228,270.883 
						273.986,252.995 301.027,272.642 		"/>
					<polygon class="shape-4" points="149.555,-31.786 107.711,-62.186 111.204,-28.944 73.834,0 111.206,28.946 107.712,62.188 
						149.555,31.79 139.23,0.002 		"/>
					<polygon class="shape-4" points="312.787,0 275.417,-28.944 278.912,-62.186 237.066,-31.787 247.392,0.005 237.068,31.791 
						278.91,62.19 275.417,28.948 		"/>
					<polygon class="shape-4" points="-47.245,524.242 -69.613,549.08 -36.913,605.709 -30.532,558.875 0.003,545.279 		"/>
					<polygon class="shape-4" points="119.476,334.825 82.105,305.882 85.599,272.64 43.756,303.039 54.082,334.829 43.761,366.618 
						85.604,397.018 82.11,363.775 		"/>
					<polygon class="shape-4" points="301.023,397.016 273.982,416.662 230.228,398.774 223.847,445.61 193.312,459.206 240.56,480.244 
						262.929,455.405 295.619,448.453 		"/>
					<polygon class="shape-4" points="193.312,459.206 162.777,445.609 156.396,398.775 112.646,416.664 85.604,397.018 91.009,448.454 
						123.698,455.406 146.064,480.244 		"/>
					<polygon class="shape-4" points="102.308,556.031 69.619,549.08 47.251,524.242 0.003,545.279 30.538,558.875 36.919,605.709 
						80.67,587.82 107.712,607.467 		"/>
					<polygon class="shape-4" points="149.556,637.867 107.712,607.467 111.205,640.709 73.835,669.652 73.836,669.656 111.207,698.6 
						107.713,731.842 149.556,701.443 139.231,669.656 		"/>
					<polygon class="shape-4" points="275.417,640.709 278.912,607.467 237.068,637.865 247.392,669.658 237.068,701.443 278.912,731.844 
						275.417,698.602 312.789,669.658 		"/>
					<polygon class="shape-4" points="339.376,524.24 317.005,549.079 317.005,549.079 284.316,556.029 278.912,607.467 305.953,587.82 
						349.705,605.713 356.089,558.874 386.623,545.279 		"/>
				</g>
				<g>
					<polygon class="shape-5" points="386.626,124.378 433.875,145.416 397.685,185.608 386.626,166.453 375.568,185.606 339.378,145.416 
								"/>
					<polygon class="shape-5" points="301.027,272.642 295.623,221.204 348.525,232.449 337.466,251.603 359.583,251.605 342.871,303.04 		
						"/>
					<polygon class="shape-5" points="301.023,397.016 342.867,366.617 359.58,418.055 337.462,418.053 348.519,437.208 295.619,448.453 		
						"/>
					<polygon class="shape-5" points="386.623,545.279 339.376,524.24 375.566,484.049 386.623,503.203 397.683,484.051 433.871,524.24 		
						"/>
					<polygon class="shape-5" points="85.599,272.64 43.756,303.039 27.043,251.603 49.161,251.603 38.103,232.448 91.004,221.203 		"/>
					<polygon class="shape-5" points="0.001,124.376 47.249,145.414 11.06,185.606 0.001,166.451 -11.059,185.604 -47.247,145.414 		"/>
					<polygon class="shape-5" points="278.91,62.19 284.316,113.627 231.414,102.383 242.472,83.228 220.355,83.228 237.068,31.791 		"/>
					<polygon class="shape-5" points="107.712,62.188 149.555,31.79 166.269,83.227 144.149,83.226 155.207,102.38 102.307,113.626 		"/>
					<polygon class="shape-5" points="193.312,210.452 146.063,189.413 182.253,149.222 193.311,168.376 204.373,149.224 240.56,189.413 		
						"/>
					<polygon class="shape-5" points="0.003,545.279 -47.245,524.242 -11.056,484.049 0.003,503.203 11.062,484.051 47.251,524.242 		"/>
					<polygon class="shape-5" points="85.604,397.018 91.009,448.454 38.106,437.21 49.166,418.056 27.049,418.054 43.761,366.618 		"/>
					<polygon class="shape-5" points="193.312,459.206 240.56,480.244 204.371,520.436 193.312,501.281 182.254,520.436 146.064,480.244 		
						"/>
					<polygon class="shape-5" points="107.712,607.467 102.308,556.031 155.209,567.275 144.149,586.43 166.266,586.432 149.556,637.867 		
						"/>
					<polygon class="shape-5" points="278.912,607.467 237.068,637.865 220.355,586.43 242.472,586.43 231.416,567.275 284.316,556.029 		
						"/>
				</g>
				<g>
					<polygon class="shape-6" points="440.708,334.832 430.382,303.041 386.628,334.829 386.625,334.829 430.38,366.619 440.704,334.832 
								"/>
					<polygon class="shape-6" points="386.625,334.83 386.623,334.828 386.623,334.827 386.621,334.827 342.871,303.04 332.541,334.825 
						342.867,366.617 386.619,334.83 		"/>
					<polygon class="shape-6" points="339.378,145.416 317.009,120.578 284.316,113.627 289.968,167.415 289.972,167.413 		"/>
					<polygon class="shape-6" points="96.654,167.405 102.307,113.626 69.62,120.578 69.615,120.579 69.613,120.581 47.249,145.414 
						96.651,167.408 96.653,167.412 96.653,167.409 96.657,167.411 		"/>
					<polygon class="shape-6" points="146.063,189.413 96.658,167.418 96.657,167.416 96.657,167.417 96.656,167.417 96.657,167.418 
						91.004,221.203 123.697,214.248 		"/>
					<polygon class="shape-6" points="262.929,214.251 295.623,221.204 289.968,167.417 240.56,189.413 262.927,214.251 262.927,214.251 
						262.927,214.251 		"/>
					<polygon class="shape-6" points="193.302,-0.001 149.555,-31.786 139.229,-0.003 149.555,31.79 		"/>
					<polygon class="shape-6" points="247.394,0.001 237.066,-31.787 193.313,0.003 237.068,31.791 		"/>
					<polygon class="shape-6" points="54.082,334.827 43.756,303.039 0.001,334.828 0.007,334.829 43.761,366.618 		"/>
					<polygon class="shape-6" points="0.002,334.829 -0.001,334.829 -43.755,303.038 -54.081,334.83 -54.077,334.83 -43.752,366.618 		"/>
					<polygon class="shape-6" points="295.619,448.453 262.923,455.406 240.56,480.244 289.966,502.237 		"/>
					<polygon class="shape-6" points="96.666,502.236 146.064,480.244 123.704,455.407 123.698,455.406 123.697,455.405 123.697,455.405 
						91.009,448.454 96.661,502.232 96.656,502.24 96.662,502.238 96.662,502.242 		"/>
					<polygon class="shape-6" points="102.308,556.031 96.653,502.252 96.658,502.244 96.653,502.246 96.652,502.242 96.649,502.248 
						47.251,524.242 69.614,549.074 		"/>
					<polygon class="shape-6" points="193.303,669.652 149.556,637.867 139.229,669.65 139.231,669.656 139.23,669.658 149.556,701.443 		
						"/>
					<polygon class="shape-6" points="247.394,669.654 237.068,637.865 193.314,669.656 237.068,701.443 		"/>
					<polygon class="shape-6" points="339.376,524.24 289.968,502.244 284.316,556.029 317.009,549.075 		"/>
				</g>
				<g>
					<polygon class="shape-7" points="386.626,197.892 397.685,185.608 386.626,166.453 375.568,185.606 		"/>
					<polygon class="shape-7" points="364.693,235.885 348.525,232.449 337.466,251.603 359.583,251.605 		"/>
					<polygon class="shape-7" points="364.689,433.772 359.58,418.055 337.462,418.053 348.519,437.208 		"/>
					<polygon class="shape-7" points="386.625,471.766 375.566,484.049 386.623,503.203 397.683,484.051 		"/>
					<polygon class="shape-7" points="21.935,235.883 27.043,251.603 49.161,251.603 38.103,232.448 		"/>
					<polygon class="shape-7" points="0.001,197.89 11.06,185.606 0.001,166.451 -11.059,185.604 		"/>
					<polygon class="shape-7" points="215.246,98.946 231.414,102.383 242.472,83.228 220.355,83.228 		"/>
					<polygon class="shape-7" points="171.376,98.945 166.269,83.227 144.149,83.226 155.207,102.38 		"/>
					<polygon class="shape-7" points="193.312,136.938 182.253,149.222 193.311,168.376 204.373,149.224 		"/>
					<polygon class="shape-7" points="0.003,471.766 -11.056,484.049 0.003,503.203 11.062,484.051 		"/>
					<polygon class="shape-7" points="21.939,433.774 38.106,437.21 49.166,418.056 27.049,418.054 		"/>
					<polygon class="shape-7" points="193.312,532.719 204.371,520.436 193.312,501.281 182.254,520.436 		"/>
					<polygon class="shape-7" points="171.377,570.711 155.209,567.275 144.149,586.43 166.266,586.432 		"/>
					<polygon class="shape-7" points="215.246,570.711 220.355,586.43 242.472,586.43 231.416,567.275 		"/>
				</g>
				<g>
					<polygon class="shape-8" points="349.708,63.951 356.091,110.789 386.626,124.383 417.162,110.787 423.544,63.951 386.626,48.855 		
						"/>
					<polygon class="shape-8" points="267.154,334.827 304.525,305.88 301.031,272.641 273.99,252.994 230.236,270.884 235.623,310.403 		
						"/>
					<polygon class="shape-8" points="230.234,398.774 273.988,416.665 301.027,397.02 304.521,363.776 267.152,334.83 235.619,359.254 		
						"/>
					<polygon class="shape-8" points="423.542,605.707 417.158,558.869 386.625,545.275 356.089,558.871 349.707,605.707 386.625,620.803 
								"/>
					<polygon class="shape-8" points="-36.917,63.948 -30.534,110.786 0,124.381 30.536,110.785 36.919,63.949 0.001,48.854 		"/>
					<polygon class="shape-8" points="156.392,270.885 112.638,252.994 85.599,272.64 82.104,305.882 119.474,334.827 151.005,310.405 		
						"/>
					<polygon class="shape-8" points="36.921,63.946 80.675,81.838 107.716,62.192 111.209,28.948 73.839,0.003 42.308,24.427 		"/>
					<polygon class="shape-8" points="230.23,270.88 223.845,224.042 193.313,210.448 162.777,224.044 156.394,270.88 193.312,285.976 		
						"/>
					<polygon class="shape-8" points="312.787,0.005 275.417,28.951 278.91,62.19 305.953,81.837 349.705,63.948 344.32,24.43 		"/>
					<polygon class="shape-8" points="73.838,0 111.21,-28.946 107.716,-62.187 80.673,-81.835 36.92,-63.944 42.306,-24.425 		"/>
					<polygon class="shape-8" points="349.703,-63.943 305.947,-81.834 278.908,-62.188 275.416,-28.946 312.785,0.001 344.316,-24.424 		
						"/>
					<polygon class="shape-8" points="119.477,334.832 82.105,363.779 85.6,397.019 112.642,416.666 156.395,398.776 151.009,359.256 		"/>
					<polygon class="shape-8" points="36.919,605.709 30.536,558.873 0.003,545.279 -30.532,558.873 -36.916,605.709 0.001,620.805 		"/>
					<polygon class="shape-8" points="36.922,733.6 80.676,751.49 107.717,731.846 111.21,698.602 73.84,669.656 42.309,694.08 		"/>
					<polygon class="shape-8" points="312.789,669.658 275.417,698.604 278.912,731.844 305.953,751.49 349.705,733.602 344.32,694.082 		
						"/>
					<polygon class="shape-8" points="73.839,669.652 111.211,640.707 107.717,607.467 80.674,587.818 36.921,605.709 42.307,645.229 		"/>
					<polygon class="shape-8" points="349.703,605.709 305.949,587.818 278.91,607.465 275.416,640.707 312.785,669.654 344.316,645.229 		
						"/>
					<polygon class="shape-8" points="156.396,398.775 162.78,445.611 193.312,459.206 223.847,445.61 230.232,398.775 193.315,383.68 		
						"/>
				</g>
      </g>
      <g class="guides">
				<g>
					<polyline class="st12" points="579.937,334.831 193.314,334.831 386.626,0.005 		"/>
					<line class="st12" x1="579.937" y1="334.831" x2="289.972" y2="167.416"/>
					<line class="st12" x1="386.626" y1="0.005" x2="386.626" y2="334.83"/>
					<line class="st12" x1="193.314" y1="334.831" x2="483.283" y2="167.418"/>
					<polygon class="st8" points="456.24,120.581 499.265,252.996 386.626,334.83 273.99,252.994 317.013,120.581 		"/>
					<polygon class="st8" points="440.71,334.828 304.525,305.883 289.972,167.416 417.164,110.787 510.324,214.254 		"/>
					<polygon class="st8" points="262.929,214.256 356.091,110.788 483.283,167.418 468.732,305.884 332.544,334.829 		"/>
					<polygon class="st8" points="386.626,334.83 423.544,63.951 386.626,48.855 349.708,63.951 		"/>
					<polygon class="st8" points="483.283,167.418 267.154,334.83 235.623,310.404 230.236,270.885 		"/>
					<polygon class="st8" points="289.972,167.416 543.021,270.883 537.634,310.404 506.101,334.827 		"/>
					<polyline class="st8" points="510.324,214.256 408.56,235.885 440.71,334.828 		"/>
					<polyline class="st8" points="332.544,334.829 364.693,235.885 262.931,214.256 		"/>
					<polyline class="st8" points="317.013,120.581 386.626,197.892 456.244,120.577 		"/>
					<path class="st8" d="M435.722,251.712"/>
					<polygon class="st8" points="337.468,251.603 435.787,251.604 386.626,166.458 		"/>
				</g>
				<g>
					<line class="st12" x1="579.937" y1="334.83" x2="289.968" y2="502.24"/>
					<line class="st12" x1="193.313" y1="334.829" x2="483.281" y2="502.242"/>
					<line class="st12" x1="386.625" y1="669.656" x2="386.625" y2="334.829"/>
					<polygon class="st8" points="332.542,334.83 468.73,363.777 483.281,502.242 356.089,558.871 262.929,455.404 		"/>
					<polygon class="st8" points="510.32,455.402 417.16,558.871 289.968,502.24 304.521,363.775 440.707,334.83 		"/>
					<polygon class="st8" points="317.011,549.08 273.988,416.665 386.625,334.829 499.265,416.664 456.238,549.078 		"/>
					<polygon class="st8" points="483.281,502.242 267.152,334.83 235.619,359.254 230.234,398.774 		"/>
					<polygon class="st8" points="386.625,334.829 423.544,605.708 386.625,620.803 349.707,605.707 		"/>
					<polygon class="st8" points="289.968,502.24 506.097,334.826 537.63,359.252 543.015,398.772 		"/>
					<polyline class="st8" points="440.708,334.83 408.558,433.773 510.32,455.402 		"/>
					<polyline class="st8" points="456.238,549.078 386.625,471.766 317.011,549.079 		"/>
					<polyline class="st8" points="262.929,455.404 364.689,433.772 332.541,334.825 		"/>
					<path class="st8" d="M435.845,418.164"/>
					<polygon class="st8" points="386.625,503.201 435.785,418.055 337.466,418.057 		"/>
				</g>
				<g>
					<polyline class="st12" points="0.001,0.003 193.312,334.829 -193.312,334.829 		"/>
					<line class="st12" x1="193.312" y1="334.829" x2="-96.654" y2="167.415"/>
					<line class="st12" x1="0.001" y1="0.003" x2="0.001" y2="334.828"/>
					<line class="st12" x1="-193.312" y1="334.829" x2="96.657" y2="167.415"/>
					<polygon class="st8" points="69.614,120.579 112.64,252.993 0.001,334.828 -112.637,252.992 -69.612,120.579 		"/>
					<polygon class="st8" points="54.085,334.827 -82.102,305.881 -96.654,167.415 30.537,110.784 123.697,214.253 		"/>
					<polygon class="st8" points="-123.696,214.255 -30.534,110.786 96.657,167.415 82.105,305.882 -54.081,334.827 		"/>
					<polygon class="st8" points="0.001,334.828 36.919,63.949 0.001,48.854 -36.917,63.948 		"/>
					<polygon class="st8" points="96.657,167.415 -119.472,334.828 -151.004,310.403 -156.39,270.883 		"/>
					<polygon class="st8" points="-96.654,167.415 156.396,270.882 151.009,310.401 119.476,334.825 		"/>
					<polyline class="st8" points="123.697,214.255 21.935,235.883 54.085,334.827 		"/>
					<polyline class="st8" points="-54.081,334.827 -21.934,235.883 -123.695,214.254 		"/>
					<polyline class="st8" points="-69.612,120.579 0.001,197.89 69.618,120.575 		"/>
					<path class="st8" d="M49.097,251.71"/>
					<polygon class="st8" points="-49.158,251.601 49.161,251.603 0,166.456 		"/>
				</g>
				<g>
					<line class="st12" x1="386.625" y1="0.003" x2="96.657" y2="167.414"/>
					<line class="st12" x1="0.001" y1="0.002" x2="289.968" y2="167.415"/>
					<line class="st12" x1="193.313" y1="334.829" x2="193.312" y2="0.001"/>
					<polygon class="st8" points="139.229,0.003 275.417,28.949 289.968,167.415 162.777,224.044 69.616,120.577 		"/>
					<polygon class="st8" points="317.009,120.575 223.849,224.044 96.657,167.414 111.208,28.947 247.396,0.003 		"/>
					<polygon class="st8" points="123.7,214.253 80.675,81.838 193.312,0.001 305.953,81.837 262.927,214.251 		"/>
					<polygon class="st8" points="289.968,167.415 73.839,0.003 42.308,24.427 36.921,63.946 		"/>
					<polygon class="st8" points="193.312,0.001 230.232,270.881 193.313,285.976 156.395,270.88 		"/>
					<polygon class="st8" points="96.657,167.414 312.787,-0.001 344.318,24.425 349.703,63.944 		"/>
					<polyline class="st8" points="247.398,0.004 215.246,98.946 317.009,120.575 		"/>
					<polyline class="st8" points="262.927,214.251 193.312,136.938 123.7,214.251 		"/>
					<polyline class="st8" points="69.616,120.577 171.376,98.945 139.229,-0.003 		"/>
					<path class="st8" d="M242.535,83.337"/>
					<polygon class="st8" points="193.312,168.374 242.472,83.228 144.153,83.229 		"/>
				</g>
				<g>
					<line class="st12" x1="0.002" y1="669.656" x2="0.004" y2="334.83"/>
					<line class="st12" x1="193.314" y1="334.83" x2="-96.652" y2="502.244"/>
					<line class="st12" x1="-193.31" y1="334.83" x2="96.659" y2="502.244"/>
					<polygon class="st8" points="123.699,455.406 30.537,558.873 -96.652,502.244 -82.1,363.778 54.086,334.832 		"/>
					<polygon class="st8" points="-69.609,549.08 -112.635,416.666 0.004,334.83 112.643,416.666 69.617,549.08 		"/>
					<polygon class="st8" points="-54.081,334.832 82.105,363.777 96.659,502.244 -30.532,558.875 -123.692,455.406 		"/>
					<polygon class="st8" points="-96.652,502.244 156.395,398.776 151.009,359.256 119.477,334.832 		"/>
					<polygon class="st8" points="96.659,502.244 -156.389,398.777 -151.002,359.256 -119.47,334.832 		"/>
					<polygon class="st8" points="0.004,334.83 36.924,605.711 0.005,620.807 -36.913,605.709 		"/>
					<polyline class="st8" points="69.615,549.08 0.003,471.766 -69.609,549.08 		"/>
					<polyline class="st8" points="-123.692,455.406 -21.931,433.774 -54.08,334.832 		"/>
					<polyline class="st8" points="54.086,334.832 21.939,433.774 123.704,455.407 		"/>
					<path class="st8" d="M-0.122,503.203"/>
					<polygon class="st8" points="-49.155,418.057 0.003,503.203 49.161,418.057 		"/>
				</g>
				<g>
					<polyline class="st12" points="0.002,669.654 193.313,334.829 386.626,669.654 		"/>
					<line class="st12" x1="193.313" y1="334.829" x2="193.312" y2="669.654"/>
					<line class="st12" x1="0.002" y1="669.654" x2="289.968" y2="502.242"/>
					<line class="st12" x1="386.626" y1="669.654" x2="96.656" y2="502.242"/>
					<polygon class="st8" points="69.616,549.08 162.778,445.61 289.968,502.242 275.416,640.707 139.23,669.654 		"/>
					<polygon class="st8" points="262.925,455.404 305.951,587.818 193.312,669.654 80.672,587.818 123.699,455.404 		"/>
					<polygon class="st8" points="247.398,669.652 111.211,640.707 96.656,502.242 223.847,445.61 317.009,549.078 		"/>
					<polygon class="st8" points="289.968,502.242 36.921,605.709 42.307,645.229 73.839,669.652 		"/>
					<polygon class="st8" points="96.656,502.242 349.705,605.709 344.318,645.229 312.785,669.652 		"/>
					<polygon class="st8" points="193.312,669.654 156.391,398.773 193.311,383.679 230.228,398.774 		"/>
					<polyline class="st8" points="123.701,455.403 193.312,532.719 262.925,455.404 		"/>
					<polyline class="st8" points="317.009,549.078 215.246,570.711 247.396,669.652 		"/>
					<polyline class="st8" points="139.23,669.654 171.377,570.711 69.611,549.078 		"/>
					<path class="st8" d="M193.438,501.281"/>
					<polygon class="st8" points="242.47,586.428 193.312,501.281 144.154,586.428 		"/>
				</g>
				<polygon class="st12" points="0.003,669.659 -193.31,334.83 0.003,0 386.632,0 579.945,334.83 386.632,669.659 	"/>
      </g>
</svg>
