<svg xmlns="http://www.w3.org/2000/svg" width="386.6" height="669.7" viewBox="0 0 386.6 669.7">
  <style>
    :root { --black: #443430; --red: #BF402B; --gold: #CEA600; --turquois: #4D9BA3; --emerald: #216554; --blue: #262F66; --white: #FFFAF2; } .shape-1{fill:var(--turquois)} .shape-8{fill:var(--white)} .shape-4{fill:var(--red)} .shape-6{fill:var(--black)} .shape-5{fill:var(--white)} .shape-2{fill:var(--red)} .shape-3{fill:var(--turquois)} .shape-7{fill:var(--gold)}
    .guides{ stroke: #4FFF4F; display: none; fill: none}
  </style>
  <g class="line" id="pattern">
    <path class="shape-1" d="M349.7 64l-5.4-39.6L312.8 0l31.1-24.1h79.6v88l-36.9-15-36.9 15zM230.2 398.7l5.4-39.5 31.6-24.5-31.6-24.4-5.4-39.5-36.9 15-37-15-5.3 39.5-31.5 24.4 31.5 24.5 5.4 39.5 37-15.1 36.8 15zM37 63.9l5.4-39.5L73.8 0 42.7-24.1h-79.8v88.4l.2-.4L0 49l37 15zm312.8 541.8l-5.4 39.5-31.5 24.5 31.5 24.4.4 3h78.8v-91.4l-36.9 15.1-36.9-15zm-312.8 0L0 620.8l-37-15v-.1l-.1-.3V697h79l.4-3 31.5-24.4-31.5-24.5-5.4-39.5"/>
    <path class="shape-2" d="M348.5 232.4l-52.9-11.2-5.6-53.8 49.4-22 36.2 40.2zM413.7 251.6l16.7 51.4-43.8 31.8-43.7-31.8 16.7-51.4zM375.6 484l-36.2 40.2-49.4-22 5.6-53.7 52.9-11.3zM359.6 418.1l-16.7-51.5 43.7-31.8 43.8 31.8-16.7 51.5zM27 251.6L43.8 303 0 334.8-43.8 303l16.8-51.4zM11.1 185.6l36.2-40.2 49.4 22-5.7 53.8-52.9 11.2zM182.3 149.2l-36.2 40.2-49.4-22 5.6-53.8 52.9-11.2zM231.4 102.4l52.9 11.2 5.7 53.8-49.4 22-36.2-40.2zM166.3 83.2l-16.7-51.4L193.3 0l43.8 31.8-16.7 51.4zM220.4-83.2l16.7 51.4L193.3 0l-43.7-31.8 16.7-51.4zM-27 418.1l-16.8-51.5L0 334.8l43.8 31.8L27 418.1zM38.1 437.2L91 448.5l5.7 53.7-49.4 22-36.2-40.1zM166.3 752.9l-16.7-51.5 43.7-31.7 43.8 31.7-16.7 51.5zM220.4 586.4l16.7 51.5-43.8 31.8-43.7-31.8 16.7-51.5zM204.4 520.4l36.2-40.2 49.4 22-5.7 53.8-52.9 11.3zM155.2 567.3L102.3 556l-5.6-53.8 49.4-22 36.2 40.2z"/>
    <g>
      <path class="shape-3" d="M348.5 232.4l16.2 3.5-5.1 15.7h54.1l-5.1-15.7 16.1-3.5-27-46.8-11.1 12.3-11-12.3zM375.6 484l11-12.2 11.1 12.2 27-46.8-16.1-3.4 5.1-15.7h-54.1l5.1 15.7-16.2 3.4zM-38.1 232.4l16.2 3.5-5.1 15.7h54l-5.1-15.7 16.2-3.5-27-46.8L0 197.9l-11.1-12.3zM182.3 149.2l11-12.3 11.1 12.3 27-46.8-16.2-3.5 5.2-15.7h-54.1l5.1 15.7-16.2 3.5zM-27 418.1l5.1 15.7-16.2 3.4 27 46.8L0 471.8l11.1 12.3 27-46.9-16.2-3.4 5.1-15.7zM220.4 586.4l-5.2-15.7 16.2-3.4-27-46.9-11.1 12.3-11-12.3-27.1 46.9 16.2 3.4-5.1 15.7z"/>
    </g>
    <g>
      <path class="shape-4" d="M433.9 145.4l22.3-24.8-32.7-56.7-6.3 46.9-30.6 13.6zM342.9 303L301 272.6l3.5 33.3-37.4 28.9 37.4 29L301 397l41.9-30.4-10.4-31.8zM433.9 524.2l22.3 24.9-32.7 56.6-6.3-46.8-30.6-13.6zM-47.2 145.4l-22.4-24.8 32.7-56.7 6.4 46.9L0 124.4zM356.1 110.8l-6.4-46.9L306 81.8l-27.1-19.6 5.4 51.4 32.7 7 22.4 24.8 47.2-21zM107.7 62.2l-27 19.6-43.8-17.9-6.4 46.9L0 124.4l47.2 21 22.4-24.8 32.7-7zM146.1 189.4l-22.4 24.9-32.7 6.9-5.4 51.4 27-19.6 43.8 17.9 6.4-46.9 30.5-13.5zM295.6 221.2l-32.7-6.9-22.3-24.9-47.3 21.1 30.5 13.5 6.4 46.9L274 253l27 19.6zM149.6-31.8l-41.9-30.4 3.5 33.3L73.8 0l37.4 28.9-3.5 33.3 41.9-30.4L139.2 0z"/>
      <path class="shape-4" d="M312.8 0l-37.4-28.9 3.5-33.3-41.8 30.4L247.4 0l-10.3 31.8 41.8 30.4-3.5-33.3zM-47.2 524.2l-22.4 24.9 32.7 56.6 6.4-46.8L0 545.3zM119.5 334.8l-37.4-28.9 3.5-33.3L43.8 303l10.3 31.8-10.3 31.8L85.6 397l-3.5-33.2zM301 397l-27 19.7-43.8-17.9-6.4 46.8-30.5 13.6 47.3 21 22.3-24.8 32.7-6.9z"/>
      <path class="shape-4" d="M193.3 459.2l-30.5-13.6-6.4-46.8-43.8 17.9-27-19.7 5.4 51.5 32.7 6.9 22.4 24.8zM102.3 556l-32.7-6.9-22.3-24.9L0 545.3l30.5 13.6 6.4 46.8 43.8-17.9 27 19.7zM149.6 637.9l-41.9-30.4 3.5 33.2-37.4 29 37.4 28.9-3.5 33.2 41.9-30.4-10.4-31.7zM275.4 640.7l3.5-33.2-41.8 30.4 10.3 31.8-10.3 31.7 41.8 30.4-3.5-33.2 37.4-28.9zM339.4 524.2L317 549.1l-32.7 6.9-5.4 51.5 27.1-19.7 43.7 17.9 6.4-46.8 30.5-13.6z"/>
    </g>
    <g>
      <path class="shape-5" d="M386.6 124.4l47.3 21-36.2 40.2-11.1-19.1-11 19.1-36.2-40.2zM301 272.6l-5.4-51.4 52.9 11.2-11 19.2h22.1L342.9 303zM301 397l41.9-30.4 16.7 51.5h-22.1l11 19.1-52.9 11.3zM386.6 545.3l-47.2-21.1 36.2-40.2 11 19.2 11.1-19.1 36.2 40.1zM85.6 272.6L43.8 303 27 251.6h22.2l-11.1-19.2L91 221.2zM0 124.4l47.2 21-36.1 40.2L0 166.5l-11.1 19.1-36.1-40.2zM278.9 62.2l5.4 51.4-52.9-11.2 11.1-19.2h-22.1l16.7-51.4zM107.7 62.2l41.9-30.4 16.7 51.4h-22.2l11.1 19.2-52.9 11.2zM193.3 210.5l-47.2-21.1 36.2-40.2 11 19.2 11.1-19.2 36.2 40.2zM0 545.3l-47.2-21.1 36.1-40.2L0 503.2l11.1-19.1 36.2 40.1zM85.6 397l5.4 51.5-52.9-11.3 11.1-19.1H27l16.8-51.5zM193.3 459.2l47.3 21-36.2 40.2-11.1-19.1-11 19.1-36.2-40.2zM107.7 607.5l-5.4-51.5 52.9 11.3-11.1 19.1h22.2l-16.7 51.5zM278.9 607.5l-41.8 30.4-16.7-51.5h22.1l-11.1-19.1 52.9-11.3z"/>
    </g>
    <g>
      <path class="shape-6" d="M440.7 334.8L430.4 303l-43.8 31.8 43.8 31.8 10.3-31.8z"/>
      <path class="shape-6" d="M386.6 334.8L342.9 303l-10.4 31.8 10.4 31.8 43.7-31.8zM339.4 145.4L317 120.6l-32.7-7 5.7 53.8zM96.7 167.4l5.6-53.8-32.7 7-22.4 24.8 49.5 22zM146.1 189.4l-49.4-22-5.7 53.8 32.7-7zM262.9 214.3l32.7 6.9-5.6-53.8-49.4 22 22.3 24.9zM193.3 0l-43.7-31.8L139.2 0l10.4 31.8zM247.4 0l-10.3-31.8L193.3 0l43.8 31.8zM54.1 334.8L43.8 303 0 334.8l43.8 31.8zM0 334.8L-43.8 303l-10.3 31.8 10.3 31.8zM295.6 448.5l-32.7 6.9-22.3 24.8 49.4 22zM96.7 502.2l49.4-22-22.4-24.8-32.7-6.9 5.7 53.7zM102.3 556l-5.6-53.7v-.1h-.1l-49.3 22 22.3 24.9zM193.3 669.7l-43.7-31.8-10.4 31.7v.1l10.4 31.7zM247.4 669.7l-10.3-31.8-43.8 31.8 43.8 31.7zM339.4 524.2l-49.4-22-5.7 53.8 32.7-6.9z"/>
    </g>
    <g>
      <path class="shape-7" d="M386.6 197.9l11.1-12.3-11.1-19.1-11 19.1zM364.7 235.9l-16.2-3.5-11 19.2h22.1zM364.7 433.8l-5.1-15.7h-22.1l11 19.1zM386.6 471.8l-11 12.2 11 19.2 11.1-19.1zM21.9 235.9l5.1 15.7h22.2l-11.1-19.2zM0 197.9l11.1-12.3L0 166.5l-11.1 19.1zM215.2 98.9l16.2 3.5 11.1-19.2h-22.1zM171.4 98.9l-5.1-15.7h-22.2l11.1 19.2zM193.3 136.9l-11 12.3 11 19.2 11.1-19.2zM0 471.8L-11.1 484 0 503.2l11.1-19.1zM21.9 433.8l16.2 3.4 11.1-19.1H27zM193.3 532.7l11.1-12.3-11.1-19.1-11 19.1zM171.4 570.7l-16.2-3.4-11.1 19.1h22.2zM215.2 570.7l5.2 15.7h22.1l-11.1-19.1z"/>
    </g>
    <g>
      <path class="shape-8" d="M349.7 64l6.4 46.8 30.5 13.6 30.6-13.6 6.3-46.8-36.9-15.1zM267.2 334.8l37.3-28.9-3.5-33.3-27-19.6-43.8 17.9 5.4 39.5zM230.2 398.8l43.8 17.9 27-19.7 3.5-33.2-37.3-29-31.6 24.5zM423.5 605.7l-6.3-46.8-30.6-13.6-30.5 13.6-6.4 46.8 36.9 15.1zM-36.9 63.9l6.4 46.9L0 124.4l30.5-13.6 6.4-46.9L0 48.9zM156.4 270.9L112.6 253l-27 19.6-3.5 33.3 37.4 28.9 31.5-24.4zM36.9 63.9l43.8 17.9 27-19.6 3.5-33.3L73.8 0 42.3 24.4z"/>
      <path class="shape-8" d="M230.2 270.9l-6.4-46.9-30.5-13.6-30.5 13.6-6.4 46.9 36.9 15.1zM312.8 0l-37.4 29 3.5 33.2L306 81.8l43.7-17.9-5.4-39.5zM73.8 0l37.4-28.9-3.5-33.3-27-19.6-43.8 17.9 5.4 39.5zM349.7-63.9l-43.8-17.9-27 19.6-3.5 33.3L312.8 0l31.5-24.4zM119.5 334.8l-37.4 29 3.5 33.2 27 19.7 43.8-17.9-5.4-39.5zM36.9 605.7l-6.4-46.8L0 545.3l-30.5 13.6-6.4 46.8L0 620.8zM36.9 733.6l43.8 17.9 27-19.7 3.5-33.2-37.4-28.9-31.5 24.4zM312.8 669.7l-37.4 28.9 3.5 33.2 27.1 19.7 43.7-17.9-5.4-39.5z"/>
      <path class="shape-8" d="M73.8 669.7l37.4-29-3.5-33.2-27-19.7-43.8 17.9 5.4 39.5zM349.7 605.7l-43.8-17.9-27 19.7-3.5 33.2 37.4 29 31.5-24.5zM156.4 398.8l6.4 46.8 30.5 13.6 30.5-13.6 6.4-46.8-36.9-15.1z"/>
    </g>
  </g>
  <g class="guides">
    <path d="M579.9 334.8H193.3L386.6 0M579.9 334.8L290 167.4M386.6 0v334.8M193.3 334.8l290-167.4"/>
    <path d="M456.2 120.6L499.3 253l-112.7 81.8L274 253l43-132.4z"/>
    <path d="M440.7 334.8l-136.2-28.9L290 167.4l127.2-56.6 93.1 103.5z"/>
    <path d="M262.9 214.3l93.2-103.5 127.2 56.6-14.6 138.5-136.2 28.9z"/>
    <path d="M386.6 334.8L423.5 64l-36.9-15.1L349.7 64z"/>
    <path d="M483.3 167.4L267.2 334.8l-31.6-24.4-5.4-39.5z"/>
    <path d="M290 167.4l253 103.5-5.4 39.5-31.5 24.4z"/>
    <path d="M510.3 214.3l-101.7 21.6 32.1 98.9M332.5 334.8l32.2-98.9-101.8-21.6M317 120.6l69.6 77.3 69.6-77.3"/>
    <path d="M337.5 251.6h98.3l-49.2-85.1z"/>
    <g>
      <path d="M579.9 334.8L290 502.2M193.3 334.8l290 167.4M386.6 669.7V334.8M332.5 334.8l136.2 29 14.6 138.4-127.2 56.7-93.2-103.5z"/>
      <path d="M510.3 455.4l-93.1 103.5L290 502.2l14.5-138.4 136.2-29z"/>
      <path d="M317 549.1l-43-132.4 112.6-81.9 112.7 81.9-43.1 132.4z"/>
      <path d="M483.3 502.2L267.2 334.8l-31.6 24.5-5.4 39.5z"/>
      <path d="M386.6 334.8l36.9 270.9-36.9 15.1-36.9-15.1z"/>
      <path d="M290 502.2l216.1-167.4 31.5 24.5 5.4 39.5z"/>
      <path d="M440.7 334.8l-32.1 99 101.7 21.6M456.2 549.1l-69.6-77.3-69.6 77.3M262.9 455.4l101.8-21.6-32.2-99"/>
      <path d="M386.6 503.2l49.2-85.1h-98.3z"/>
    </g>
    <g>
      <path d="M0 0l193.3 334.8h-386.6M193.3 334.8l-290-167.4M0 0v334.8M-193.3 334.8l290-167.4"/>
      <path d="M69.6 120.6l43 132.4L0 334.8-112.6 253l43-132.4z"/>
      <path d="M54.1 334.8l-136.2-28.9-14.6-138.5 127.2-56.6 93.2 103.5z"/>
      <path d="M-123.7 214.3l93.2-103.5 127.2 56.6-14.6 138.5-136.2 28.9z"/>
      <path d="M0 334.8L36.9 63.9 0 48.9l-36.9 15z"/>
      <path d="M96.7 167.4l-216.2 167.4-31.5-24.4-5.4-39.5z"/>
      <path d="M-96.7 167.4l253.1 103.5-5.4 39.5-31.5 24.4z"/>
      <path d="M123.7 214.3L21.9 235.9l32.2 98.9M-54.1 334.8l32.2-98.9-101.8-21.6M-69.6 120.6L0 197.9l69.6-77.3"/>
      <path d="M-49.2 251.6h98.4L0 166.5z"/>
    </g>
    <g>
      <path d="M386.6 0L96.7 167.4M0 0l290 167.4M193.3 334.8V0M139.2 0l136.2 28.9L290 167.4 162.8 224 69.6 120.6z"/>
      <path d="M317 120.6L223.8 224 96.7 167.4l14.5-138.5L247.4 0z"/>
      <path d="M123.7 214.3l-43-132.5L193.3 0 306 81.8l-43.1 132.5z"/>
      <path d="M290 167.4L73.8 0 42.3 24.4l-5.4 39.5z"/>
      <path d="M193.3 0l36.9 270.9-36.9 15.1-36.9-15.1z"/>
      <path d="M96.7 167.4L312.8 0l31.5 24.4 5.4 39.5z"/>
      <path d="M247.4 0l-32.2 98.9L317 120.6M262.9 214.3l-69.6-77.4-69.6 77.4M69.6 120.6l101.8-21.7L139.2 0"/>
      <path d="M193.3 168.4l49.2-85.2h-98.3z"/>
    </g>
    <g>
      <path d="M0 669.7V334.8M193.3 334.8l-290 167.4M-193.3 334.8l290 167.4M123.7 455.4L30.5 558.9l-127.2-56.7 14.6-138.4 136.2-29z"/>
      <path d="M-69.6 549.1l-43-132.4L0 334.8l112.6 81.9-43 132.4z"/>
      <path d="M-54.1 334.8l136.2 29 14.6 138.4-127.2 56.7-93.2-103.5z"/>
      <path d="M-96.7 502.2l253.1-103.4-5.4-39.5-31.5-24.5z"/>
      <path d="M96.7 502.2l-253.1-103.4 5.4-39.5 31.5-24.5z"/>
      <path d="M0 334.8l36.9 270.9L0 620.8l-36.9-15.1z"/>
      <path d="M69.6 549.1L0 471.8l-69.6 77.3M-123.7 455.4l101.8-21.6-32.2-99M54.1 334.8l-32.2 99 101.8 21.6"/>
      <path d="M-49.2 418.1L0 503.2l49.2-85.1z"/>
    </g>
    <g>
      <path d="M0 669.7l193.3-334.9 193.3 334.9M193.3 334.8v334.9M0 669.7l290-167.5M386.6 669.7L96.7 502.2"/>
      <path d="M69.6 549.1l93.2-103.5L290 502.2l-14.6 138.5-136.2 29z"/>
      <path d="M262.9 455.4L306 587.8l-112.7 81.9-112.6-81.9 43-132.4z"/>
      <path d="M247.4 669.7l-136.2-29-14.5-138.5 127.1-56.6L317 549.1z"/>
      <path d="M290 502.2L36.9 605.7l5.4 39.5 31.5 24.5z"/>
      <path d="M96.7 502.2l253 103.5-5.4 39.5-31.5 24.5z"/>
      <path d="M193.3 669.7l-36.9-270.9 36.9-15.1 36.9 15.1z"/>
      <path d="M123.7 455.4l69.6 77.3 69.6-77.3M317 549.1l-101.8 21.6 32.2 99M139.2 669.7l32.2-99-101.8-21.6"/>
      <path d="M242.5 586.4l-49.2-85.1-49.1 85.1z"/>
    </g>
    <path d="M0 669.7l-193.3-334.9L0 0h386.6l193.3 334.8-193.3 334.9z"/>
  </g>
</svg>
