<svg version="1.1" xmlns="http://www.w3.org/2000/svg" width="92.391" height="159.984" viewBox="0 0 100% 100%">
  <style>
    :root {
      --golden: #907A58;
      --darkBlue: #475387;
      --beige: #DFD8CC;
      --teal: #4A9AC4;
      --gray: #A49DA0;
      --smaragd: #406A72;
      --sand: #D3BDA7;
      --grayGreen: #A2D1D6;
      --blueGray: #758390;
      --lightBrown: #AA8858;
      --blue1: #8EC5EE;
      --blue2: #8CC6EA;
      --blue3: #B6DAEC;
      --rust: #D8692D;
      --yellow: #F8C346;

            --black: #443430;
      --red: #BF402B;
      --gold: #CEA600;
      --turquois: #4D9BA3;
      --emerald: #216554;
      --blue: #262F66;
      --white: #FFFAF2;

    }
    .shape-3{fill:var(--turquois)}
    .shape-4{fill:var(--white)}
    .shape-5{fill:var(--black)}
    .shape-7{fill:var(--red)}
    .shape-6{fill:var(--white)}
    .shape-2{fill:var(--red)}
    .shape-1{fill:var(--gold)}
    <!-- .line{stroke:#fff;stroke-width:2px} -->
    .guides{ stroke: #4FFF4F; display: none; fill: none}
  </style>

  <g id="pattern" class="line">
	<polygon class="shape-1" points="46.164,19.895 40.339,29.985 51.99,29.985 	"/>
	<polygon class="shape-1" points="-5.96,110.366 6.024,110.366 0.032,99.987 	"/>
	<polygon class="shape-1" points="-5.74,49.987 0.032,59.985 5.804,49.987 	"/>
	<polygon class="shape-1" points="98.182,109.985 92.408,99.985 86.635,109.985 	"/>
	<polygon class="shape-1" points="46.054,140.268 51.99,129.987 40.118,129.987 	"/>
	<polygon class="shape-1" points="98.182,49.987 86.635,49.987 92.408,59.987 	"/>
	<polygon class="shape-2" points="75.083,63.328 86.63,69.995 92.408,59.986 86.635,49.987 75.082,49.987 	"/>
	<polygon class="shape-3" points="46.215,59.985 40.44,69.987 28.788,69.987 34.563,79.99 28.79,89.989 40.445,89.989 46.218,99.988 
		51.993,89.986 63.531,89.986 57.766,80 63.548,69.985 51.988,69.984 	"/>
	<polygon class="shape-2" points="46.209,46.651 57.761,39.981 51.99,29.985 40.339,29.985 34.589,39.943 	"/>
	<polygon class="shape-2" points="46.224,113.322 34.429,120.132 40.119,129.986 51.99,129.986 57.765,119.984 	"/>
	<polygon class="shape-2" points="17.352,96.722 5.775,90.038 0.032,99.987 6.024,110.366 17.352,110.366 	"/>
	<polygon class="shape-2" points="75.089,96.665 75.089,109.985 86.635,109.985 92.408,99.985 86.64,89.995 	"/>
	<polygon class="shape-2" points="17.344,63.266 17.344,49.987 5.804,49.987 0.032,59.984 5.781,69.942 	"/>
	<polygon class="shape-4" points="28.788,69.987 40.439,69.987 46.215,59.985 40.439,49.982 46.208,46.651 34.59,39.943 28.791,49.987 
		17.344,49.987 17.344,63.265 23.017,59.99 	"/>
	<polygon class="shape-4" points="63.531,89.986 51.993,89.986 46.218,99.988 51.993,109.991 46.224,113.322 57.765,119.984 
		63.538,109.985 75.089,109.985 75.089,96.665 69.312,100 	"/>
	<polygon class="shape-4" points="28.79,89.989 34.562,79.99 28.788,69.988 17.344,69.988 17.344,63.266 5.78,69.943 11.579,79.986 
		5.775,90.039 17.352,96.722 17.351,89.989 	"/>
	<polygon class="shape-5" points="28.788,69.987 23.017,59.99 17.344,63.265 17.344,69.987 	"/>
	<polygon class="shape-4" points="75.083,69.985 63.548,69.985 57.766,80 63.531,89.986 75.089,89.986 75.089,96.665 86.64,89.995 
		80.861,79.986 86.63,69.995 75.083,63.328 	"/>
	<polygon class="shape-5" points="63.531,89.986 69.312,100 75.089,96.665 75.089,89.986 	"/>
	<polygon class="shape-4" points="46.215,59.985 51.988,69.984 63.548,69.985 69.314,59.998 75.083,63.328 75.082,49.987 63.538,49.987 
		57.761,39.982 46.209,46.652 51.987,49.987 	"/>
	<polygon class="shape-5" points="46.215,59.985 51.987,49.987 46.209,46.652 40.44,49.983 	"/>
	<polygon class="shape-5" points="63.548,69.984 75.083,69.984 75.083,63.329 69.314,59.998 	"/>
	<polygon class="shape-6" points="5.809,49.969 17.344,49.969 17.344,43.313 11.575,39.982 	"/>
	<polygon class="shape-4" points="46.218,99.988 40.445,89.989 28.791,89.988 23.014,99.992 17.351,96.722 17.351,110.366 
		28.792,110.366 34.428,120.132 46.224,113.322 40.446,109.986 	"/>
	<polygon class="shape-5" points="46.218,99.988 40.446,109.986 46.224,113.322 51.993,109.991 	"/>
	<polygon class="shape-5" points="28.79,89.989 17.351,89.989 17.352,96.722 23.015,99.992 	"/>
	<polygon class="shape-2" points="51.99,29.985 63.54,29.985 63.539,16.722 51.882,9.991 46.164,19.896 	"/>
	<polygon class="shape-2" points="86.635,49.987 98.182,49.987 103.97,39.961 92.44,33.306 80.864,39.989 	"/>
	<polygon class="shape-3" points="74.978,9.989 86.633,9.989 92.435,20.038 98.238,9.987 109.719,9.987 103.953,0 109.735,-10.015 
		98.176,-10.016 92.402,-20.014 86.628,-10.013 74.976,-10.012 80.75,-0.01 	"/>
	<polygon class="shape-4" points="75.087,29.985 80.863,39.989 92.44,33.305 86.69,29.986 92.435,20.037 86.633,9.989 74.979,9.988 
		69.202,19.992 63.54,16.722 63.541,29.985 	"/>
	<polygon class="shape-4" points="92.435,20.038 98.182,29.992 92.44,33.306 103.97,39.96 109.729,29.985 121.334,29.985 
		121.334,16.632 115.5,20 109.719,9.986 98.238,9.986 	"/>
	<polygon class="shape-5" points="92.44,33.306 98.182,29.992 92.435,20.038 86.69,29.987 	"/>
	<polygon class="shape-4" points="57.658,-0.014 51.882,9.991 63.539,16.722 63.539,9.988 74.978,9.988 80.75,-0.01 74.975,-10.013 
		63.532,-10.013 63.532,-16.735 51.887,-10.011 	"/>
	<polygon class="shape-5" points="74.978,9.989 63.539,9.989 63.539,16.722 69.203,19.992 	"/>
	<polygon class="shape-6" points="63.54,36.645 63.54,29.985 51.99,29.985 57.761,39.981 	"/>
	<polygon class="shape-6" points="75.082,49.987 86.635,49.987 80.863,39.989 75.082,43.328 	"/>
	<polygon class="shape-7" points="57.761,39.981 63.538,49.986 75.081,49.986 75.081,43.328 80.863,39.989 75.087,29.985 63.54,29.985 
		63.54,36.646 	"/>
	<polygon class="shape-2" points="5.804,49.987 11.578,39.985 -0.03,33.284 -11.546,39.932 -5.74,49.987 	"/>
	<polygon class="shape-2" points="40.339,29.985 46.164,19.896 40.416,9.939 28.901,16.588 28.901,29.985 	"/>
	<polygon class="shape-3" points="-0.019,20.073 5.805,9.986 17.246,9.986 11.471,-0.016 17.245,-10.016 5.8,-10.016 0.026,-20.015 
		-5.748,-10.013 -17.4,-10.013 -11.625,-0.01 -17.39,9.973 -5.85,9.974 	"/>
	<polygon class="shape-4" points="17.352,29.985 28.901,29.985 28.901,16.588 23.018,19.985 17.246,9.986 5.805,9.986 -0.019,20.073 
		5.699,29.977 -0.03,33.283 11.579,39.985 	"/>
	<polygon class="shape-4" points="17.246,9.986 28.901,9.986 28.901,16.588 40.416,9.939 34.669,-0.014 40.419,-9.972 28.895,-16.625 
		28.895,-10.015 17.245,-10.016 11.472,-0.016 	"/>
	<polygon class="shape-5" points="28.901,16.588 28.901,9.986 17.246,9.986 23.019,19.985 	"/>
	<polygon class="shape-4" points="-17.288,29.985 -11.545,39.931 -0.03,33.283 -5.742,29.986 -0.018,20.073 -5.85,9.975 -17.389,9.973 
		-23.173,19.992 -28.943,16.661 -28.942,29.985 	"/>
	<polygon class="shape-5" points="-0.019,20.073 -5.743,29.986 -0.031,33.283 5.699,29.976 	"/>
	<polygon class="shape-6" points="34.589,39.943 40.339,29.985 28.901,29.985 28.901,36.66 	"/>
	<polygon class="shape-7" points="17.344,49.987 28.791,49.987 34.59,39.944 28.902,36.66 28.902,29.986 17.352,29.986 11.579,39.985 
		17.344,43.313 	"/>
	<polygon class="shape-6" points="51.882,9.992 46.103,6.656 40.416,9.938 46.164,19.895 	"/>
	<polygon class="shape-7" points="51.882,9.992 57.658,-0.013 51.887,-10.01 46.12,-6.68 40.42,-9.971 34.67,-0.013 40.416,9.938 
		46.103,6.656 	"/>
	<polygon class="shape-2" points="86.635,109.985 80.859,119.99 92.426,126.667 103.967,120.004 98.182,109.985 	"/>
	<polygon class="shape-2" points="51.99,129.986 46.054,140.268 51.721,150.084 63.532,143.265 63.532,129.986 	"/>
	<polygon class="shape-3" points="92.431,139.937 86.628,149.986 74.976,149.987 80.75,159.991 74.978,169.988 86.633,169.989 
		92.406,179.988 98.182,169.986 109.719,169.986 103.953,160 109.735,149.984 98.232,149.983 	"/>
	<polygon class="shape-4" points="75.087,129.986 63.531,129.986 63.531,143.265 69.205,139.99 74.976,149.987 86.629,149.986 
		92.431,139.937 86.684,129.982 92.426,126.667 80.858,119.99 	"/>
	<polygon class="shape-4" points="109.729,129.986 103.967,120.004 92.426,126.667 98.176,129.986 92.431,139.937 98.232,149.984 
		109.735,149.984 115.502,139.997 121.328,143.361 121.326,129.986 	"/>
	<polygon class="shape-5" points="92.431,139.937 98.176,129.986 92.426,126.667 86.684,129.982 	"/>
	<polygon class="shape-4" points="74.976,149.987 63.532,149.987 63.532,143.265 51.722,150.084 57.659,160.366 52.046,170.087 
		63.539,176.723 63.539,169.988 74.978,169.988 80.75,159.99 	"/>
	<polygon class="shape-5" points="63.532,143.266 63.532,149.988 74.976,149.988 69.205,139.991 	"/>
	<polygon class="shape-6" points="75.089,116.66 80.858,119.99 86.635,109.985 75.089,109.985 	"/>
	<polygon class="shape-6" points="57.765,119.984 51.99,129.986 63.532,129.986 63.532,123.313 	"/>
	<polygon class="shape-7" points="75.089,109.985 63.539,109.985 57.766,119.984 63.531,123.313 63.531,129.986 75.087,129.986 
		80.858,119.99 75.089,116.66 	"/>
	<polygon class="shape-2" points="6.024,110.366 -5.96,110.366 -11.518,119.991 0.021,126.651 11.575,119.98 	"/>
	<polygon class="shape-2" points="40.119,129.986 28.894,129.986 28.895,143.375 40.419,150.028 46.055,140.268 	"/>
	<polygon class="shape-3" points="17.245,149.984 5.801,149.984 0.026,139.984 -5.749,149.986 -17.4,149.987 -11.625,159.99 
		-17.398,169.988 -5.743,169.989 0.031,179.988 5.806,169.986 17.246,169.986 11.472,159.984 	"/>
	<polygon class="shape-4" points="17.352,129.986 11.575,119.98 0.021,126.651 5.799,129.986 0.027,139.985 5.8,149.984 17.245,149.984 
		23.019,139.982 28.894,143.375 28.894,129.986 	"/>
	<polygon class="shape-4" points="34.67,159.986 40.419,150.028 28.895,143.375 28.895,149.985 17.245,149.985 11.471,159.985 
		17.246,169.985 28.901,169.985 28.901,176.588 40.417,169.938 	"/>
	<polygon class="shape-5" points="17.245,149.984 28.895,149.984 28.895,143.375 23.019,139.982 	"/>
	<polygon class="shape-4" points="0.027,139.985 -5.748,129.983 0.021,126.652 -11.517,119.991 -17.288,129.986 -28.844,129.986 
		-28.844,143.266 -23.171,139.99 -17.4,149.987 -5.748,149.987 	"/>
	<polygon class="shape-5" points="0.021,126.651 -5.749,129.982 0.027,139.984 5.799,129.986 	"/>
	<polygon class="shape-6" points="17.352,110.366 6.024,110.366 11.576,119.98 17.352,116.645 	"/>
	<polygon class="shape-6" points="28.893,123.328 28.893,129.987 40.119,129.987 34.429,120.132 	"/>
	<polygon class="shape-7" points="34.429,120.132 28.791,110.366 17.352,110.366 17.352,116.645 11.575,119.981 17.352,129.986 
		28.894,129.986 28.893,123.328 	"/>
	<polygon class="shape-6" points="40.419,150.028 46.12,153.319 51.722,150.084 46.054,140.268 	"/>
	<polygon class="shape-7" points="40.419,150.028 34.67,159.986 40.417,169.938 46.103,166.655 52.046,170.087 57.658,160.366 
		51.722,150.084 46.12,153.319 	"/>
	<polygon class="shape-2" points="0.032,99.987 -5.771,89.938 -17.286,96.588 -17.286,110.366 -5.96,110.366 	"/>
	<polygon class="shape-2" points="0.032,59.985 -5.74,49.987 -17.401,49.987 -17.4,63.313 -5.767,70.029 	"/>
	<polygon class="shape-6" points="5.78,69.942 0.031,59.984 -5.768,70.028 -0.069,73.319 	"/>
	<polygon class="shape-6" points="-0.085,86.655 -5.77,89.938 0.032,99.987 5.775,90.038 	"/>
	<polygon class="shape-7" points="5.775,90.039 11.58,79.986 5.78,69.942 -0.068,73.32 -5.768,70.029 -11.517,79.986 -5.77,89.938 
		-0.084,86.656 	"/>
	<polygon class="shape-2" points="92.408,59.986 98.189,70 109.776,63.31 109.776,49.986 98.182,49.986 	"/>
	<polygon class="shape-2" points="92.408,99.985 98.182,109.985 109.785,109.985 109.783,96.708 98.171,90.004 	"/>
	<polygon class="shape-6" points="86.64,89.995 92.408,99.986 98.171,90.003 92.397,86.67 	"/>
	<polygon class="shape-6" points="86.63,69.995 92.414,73.334 98.189,69.999 92.408,59.986 	"/>
	<polygon class="shape-7" points="86.63,69.995 80.861,79.986 86.64,89.995 92.397,86.67 98.171,90.004 103.955,79.986 98.189,69.999 
		92.414,73.334 	"/>
	</g>
	<g class="guides">
		<line class="st5" x1="0.026" y1="-0.01" x2="92.402" y2="159.99"/>
		<line class="st5" x1="92.402" y1="-0.01" x2="0.026" y2="159.99"/>
		<line class="st5" x1="-11.517" y1="79.986" x2="103.955" y2="79.986"/>
		<line class="st5" x1="46.12" y1="-6.68" x2="46.103" y2="166.655"/>
		<line class="st5" x1="109.776" y1="63.31" x2="0.026" y2="-0.01"/>
		<line class="st5" x1="109.783" y1="96.708" x2="0.026" y2="159.99"/>
		<line class="st5" x1="-17.286" y1="96.588" x2="92.402" y2="159.99"/>
		<rect x="0.026" y="-0.01" class="st5" width="92.376" height="160"/>
		<polygon class="st5" points="0.026,79.986 46.209,-0.01 92.402,79.986 46.104,159.99 	"/>
		<line class="st5" x1="-11.545" y1="39.931" x2="103.97" y2="39.96"/>
		<line class="st5" x1="103.967" y1="120.004" x2="-11.517" y2="119.991"/>
		<line class="st5" x1="69.331" y1="-0.01" x2="69.331" y2="159.99"/>
		<line class="st5" x1="23.018" y1="-0.01" x2="23.019" y2="159.99"/>
		<polyline class="st5" points="0.026,26.705 92.402,79.971 0.026,133.325 	"/>
		<line class="st5" x1="98.182" y1="49.986" x2="-5.96" y2="110.366"/>
		<line class="st5" x1="-5.74" y1="49.987" x2="98.182" y2="109.985"/>
		<line class="st5" x1="-17.4" y1="63.313" x2="92.402" y2="-0.01"/>
		<polyline class="st0" points="92.402,26.691 0.026,79.986 92.402,133.313 	"/>
		<line class="st0" x1="46.209" y1="-0.01" x2="-5.742" y2="29.986"/>
		<line class="st0" x1="46.209" y1="-0.01" x2="98.182" y2="29.992"/>
		<polyline class="st0" points="-5.748,129.983 46.104,159.99 98.176,129.986 	"/>
	</g>
</svg>
