<svg xmlns="http://www.w3.org/2000/svg" width="92.4" height="160" viewBox="0 0 92.4 160">
  <style>
    :root { --golden: #907A58; --darkBlue: #475387; --beige: #DFD8CC; --teal: #4A9AC4; --gray: #A49DA0; --smaragd: #406A72; --sand: #D3BDA7; --grayGreen: #A2D1D6; --blueGray: #758390; --lightBrown: #AA8858; --blue1: #8EC5EE; --blue2: #8CC6EA; --blue3: #B6DAEC; --rust: #D8692D; --yellow: #F8C346; --black: #443430; --red: #BF402B; --gold: #CEA600; --turquois: #4D9BA3; --emerald: #216554; --blue: #262F66; --white: #FFFAF2; } .shape-3{fill:var(--turquois)} .shape-4{fill:var(--white)} .shape-5{fill:var(--black)} .shape-7{fill:var(--red)} .shape-6{fill:var(--white)} .shape-2{fill:var(--red)} .shape-1{fill:var(--gold)} .guides{ stroke: #4FFF4F; display: none; fill: none}
  </style>
  <g id="pattern" class="line">
    <path class="shape-1" d="M46.2 19.9L40.3 30H52zM-6 110.4H6L0 100zm.3-60.4L0 60l5.8-10zm103.9 60l-5.8-10-5.8 10zm-52.1 30.3L52 130H40.1zM98.2 50H86.6l5.8 10z"/>
    <path class="shape-2" d="M0 100l-5.8-10.1-11.5 6.7v13.8H-6zm0-40l-5.7-10h-11.7v13.3L-5.8 70zM46.2 46.7L57.8 40 52 30H40.3l-5.7 9.9zm0 66.6l-11.8 6.8 5.7 9.9H52l5.8-10zM17.4 96.7L5.8 90 0 100l6 10.4h11.4zm57.7 0V110h11.5l5.8-10-5.8-10zM17.3 63.3V50H5.8L0 60l5.8 9.9zM5.8 50l5.8-10L0 33.3l-11.5 6.6L-5.7 50zm34.5-20l5.9-10.1-5.8-10-11.5 6.7V30zM52 30h11.5V16.7L51.9 10l-5.7 9.9zm34.6 20h11.6l5.8-10-11.6-6.7L80.9 40zM6 110.4H-6l-5.5 9.6L0 126.7l11.6-6.7zM40.1 130H28.9v13.4l11.5 6.6 5.7-9.7zM75.1 63.3L86.6 70l5.8-10-5.8-10H75.1zM86.6 110l-5.7 10 11.5 6.7L104 120l-5.8-10zM52 130l-5.9 10.3 5.6 9.8 11.8-6.8V130zM92.4 60l5.8 10 11.6-6.7V50H98.2zm0 40l5.8 10h11.6V96.7L98.2 90z"/>
    <path class="shape-3" d="M0 20.1L5.8 10h11.4L11.5 0l5.7-10H5.8L0-20l-5.7 10h-11.7l5.8 10-5.8 10h11.6zM17.2 150H5.8L0 140l-5.7 10h-11.7l5.8 10-5.8 10h11.7L0 180l5.8-10h11.4l-5.7-10zM46.2 60l-5.8 10H28.8l5.8 10-5.8 10h11.6l5.8 10L52 90h11.5l-5.7-10 5.7-10H52zM75 10h11.6l5.8 10 5.8-10h11.5L104 0l5.7-10H98.2l-5.8-10-5.8 10H75l5.8 10zM92.4 139.9L86.6 150H75l5.8 10-5.8 10h11.6l5.8 10 5.8-10h11.5l-5.7-10 5.7-10H98.2z"/>
    <path class="shape-4" d="M-17.3 30l5.8 9.9L0 33.3-5.7 30 0 20.1-5.8 10h-11.6l-5.8 10-5.7-3.3V30zM0 140l-5.7-10 5.7-3.3-11.5-6.7-5.8 10h-11.5v13.3l5.6-3.3 5.8 10h11.7zM17.2 10h11.7v6.6l11.5-6.7L34.7 0l5.7-10-11.5-6.6v6.6H17.2L11.5 0zM17.4 130l-5.8-10L0 126.7l5.8 3.3L0 140l5.8 10h11.4l5.8-10 5.9 3.4V130zm17.3 30l5.7-10-11.5-6.6v6.6H17.2l-5.7 10 5.7 10h11.7v6.6l11.5-6.7z"/>
    <path class="shape-4" d="M17.4 30h11.5V16.6L23 20l-5.8-10H5.8L0 20.1 5.7 30 0 33.3 11.6 40zM28.8 70h11.6l5.8-10-5.8-10 5.8-3.3-11.6-6.8L28.8 50H17.3v13.3L23 60zm34.7 20H52l-5.8 10 5.8 10-5.8 3.3 11.6 6.7 5.7-10h11.6V96.7l-5.8 3.3z"/>
    <path class="shape-4" d="M28.8 90l5.8-10-5.8-10H17.3v-6.7L5.8 69.9 11.6 80 5.8 90l11.6 6.7V90z"/>
    <path class="shape-4" d="M46.2 100l-5.8-10H28.8L23 100l-5.6-3.3v13.7h11.4l5.6 9.7 11.8-6.8-5.8-3.3zM46.2 60L52 70h11.5l5.8-10 5.8 3.3V50H63.5l-5.7-10-11.6 6.7L52 50zM57.7 0l-5.8 10 11.6 6.7V10H75l5.8-10L75-10H63.5v-6.7L51.9-10zM75 150H63.5v-6.7l-11.8 6.8 6 10.3-5.7 9.7 11.5 6.6V170H75l5.8-10z"/>
    <path class="shape-4" d="M75.1 130H63.5v13.3l5.7-3.3 5.8 10h11.6l5.8-10.1-5.7-9.9 5.7-3.3-11.5-6.7zm34.6 0l-5.7-10-11.6 6.7 5.8 3.3-5.8 9.9 5.8 10.1h11.5l5.8-10 5.8 3.4V130zM75.1 30l5.8 10 11.5-6.7-5.7-3.3 5.7-10-5.8-10H75l-5.8 10-5.7-3.3V30zm17.3-10l5.8 10-5.8 3.3L104 40l5.7-10h11.6V16.6l-5.8 3.4-5.8-10H98.2zM75.1 70H63.5l-5.7 10 5.7 10h11.6v6.7L86.6 90l-5.7-10 5.7-10-11.5-6.7z"/>
    <path class="shape-5" d="M0 126.7l-5.7 3.3L0 140l5.8-10zM0 20.1L-5.7 30 0 33.3 5.7 30zM17.2 150h11.7v-6.6L23 140zM28.8 70L23 60l-5.7 3.3V70zM28.9 16.6V10H17.2L23 20zM46.2 100l-5.8 10 5.8 3.3L52 110zM28.8 90H17.4v6.7L23 100zM46.2 60L52 50l-5.8-3.3-5.8 3.3zm17.3 10h11.6v-6.7L69.3 60zM63.5 143.3v6.7H75l-5.8-10zM63.5 90l5.8 10 5.8-3.3V90zM75 10H63.5v6.7l5.7 3.3zM92.4 139.9l5.8-9.9-5.8-3.3-5.7 3.3zM92.4 33.3l5.8-3.3-5.8-10-5.7 10z"/>
    <path class="shape-6" d="M17.4 110.4H6l5.6 9.6 5.8-3.4zm11.5 12.9v6.7h11.2l-5.7-9.9zM34.6 39.9l5.7-9.9H28.9v6.7zM40.4 150l5.7 3.3 5.6-3.2-5.6-9.8zM5.8 50h11.5v-6.7L11.6 40zM5.8 69.9L0 60l-5.8 10 5.7 3.3zM-.1 86.7l-5.7 3.2L0 100l5.8-10zM51.9 10l-5.8-3.3-5.7 3.2 5.8 10zM63.5 36.6V30H52l5.8 10zM75.1 50h11.5l-5.7-10-5.8 3.3zM75.1 116.7l5.8 3.3 5.7-10H75.1zM57.8 120L52 130h11.5v-6.7zM86.6 90l5.8 10 5.8-10-5.8-3.3zm0-20l5.8 3.3 5.8-3.3-5.8-10z"/>
    <path class="shape-7" d="M17.3 50h11.5l5.8-10.1-5.7-3.2V30H17.4l-5.8 10 5.7 3.3zM34.4 120.1l-5.6-9.7H17.4v6.2l-5.8 3.4 5.8 10h11.5v-6.7zM40.4 150l-5.7 10 5.7 9.9 5.7-3.2 5.9 3.4 5.7-9.7-6-10.3-5.6 3.2zM5.8 90l5.8-10-5.8-10.1-5.9 3.4-5.7-3.3-5.7 10 5.7 9.9 5.7-3.2zM51.9 10l5.8-10-5.8-10-5.8 3.3-5.7-3.3-5.7 10 5.7 9.9 5.7-3.2zM57.8 40l5.7 10h11.6v-6.7l5.8-3.3-5.8-10H63.5v6.6zM75.1 110H63.5l-5.7 10 5.7 3.3v6.7h11.6l5.8-10-5.8-3.3zM86.6 70l-5.7 10 5.7 10 5.8-3.3 5.8 3.3 5.8-10-5.8-10-5.8 3.3z"/>
  </g>
  <g class="guides">
    <path d="M0 0l92.4 160m0-160L0 160m-11.5-80H104M46.1-6.7v173.4m63.7-103.4L0 0m109.8 96.7L0 160m-17.3-63.4L92.4 160M0 0h92.4v160H0z"/>
    <path d="M0 80L46.2 0l46.2 80-46.3 80zm-11.5-40.1L104 40m0 80H-11.5M69.3 0v160M23 0v160"/>
    <path d="M0 26.7L92.4 80 0 133.3M98.2 50L-6 110.4m.3-60.4l103.9 60M-17.4 63.3L92.4 0"/>
    <path d="M92.4 26.7L0 80l92.4 53.3M46.2 0L-5.7 30M46.2 0l52 30"/>
    <path d="M-5.7 130l51.8 30 52.1-30"/>
  </g>
</svg>
