<svg xmlns="http://www.w3.org/2000/svg" width="304.5" height="527.4" viewBox="0 0 304.5 527.4">
  <style>
    :root { --black: #443430; --red: #BF402B; --gold: #CEA600; --turquois: #4D9BA3; --emerald: #216554; --blue: #262F66; --white: #FFFAF2; } .shape-2{fill:var(--turquois)} .shape-5{fill:var(--white)} .shape-3{fill:var(--red)} .shape-1{fill:var(--black)} .shape-4{fill:var(--gold)} .shape-7{fill:var(--white)} .shape-6{fill:var(--white)} .shape-8{fill:var(--red)} .guides{ stroke: #4FFF4F; display: none; fill: none}
  </style>
  <g class="line" id="pattern">
    <path class="shape-1" d="M135.5 123.3a54.5 54.5 0 01-81.7-47.2H20.4l16.7-29a54.2 54.2 0 01-26.3-57H-9.8v9.4a9.8 9.8 0 110 1V76h30.2L0 111.5l16.7 28.9a54.5 54.5 0 0181.7 47.2H132l20.3-35.4-16.7-28.9zm-59.4 18.4a9.9 9.9 0 110-19.7 9.9 9.9 0 010 19.7zm22.3 198.1A54.4 54.4 0 0116.7 387L0 416l20.4 35.3h33.4a54.4 54.4 0 0181.7-47.2l16.7-29-20.4-35.3H98.4zm-22.3 65.6a9.9 9.9 0 110-19.7 9.9 9.9 0 010 19.7zm-86 45.9h30.3l16.7 29a54.5 54.5 0 00-26.3 57H0a9.9 9.9 0 10-9.8-10.4v-75.6zm216-263.7a54.4 54.4 0 0181.7-47.2l16.7-29L284 76.2h30.2V0a9.9 9.9 0 11-19.7 0 9.9 9.9 0 0119.7 0v-9.9h-20.6c4 22-5.8 45.2-26.3 57l16.7 29h-33.4a54.4 54.4 0 01-81.7 47.2l-16.8 29 20.4 35.3h33.5zm22.3-65.6a9.9 9.9 0 110 19.7 9.9 9.9 0 010-19.7zm86 329.3v86h-10a9.9 9.9 0 100-19.8 9.9 9.9 0 000 19.7h-10.7a54.2 54.2 0 00-26.3-57l16.7-29h30.2zm-125-140.4a54.5 54.5 0 010-94.3l-16.8-29H132l-16.8 29a54.5 54.5 0 010 94.3l16.7 29h40.8l16.7-29zm-37.2-37.3a9.9 9.9 0 110-19.8 9.9 9.9 0 010 19.8zM287.8 387a54.5 54.5 0 01-81.7-47.2h-33.5l-20.4 35.3 16.8 29a54.5 54.5 0 0181.7 47.2H284l20.4-35.4-16.7-28.9zm-59.4 18.4a9.9 9.9 0 110-19.7 9.9 9.9 0 010 19.7z"/>
    <path class="shape-2" d="M38 241.7a54.4 54.4 0 01-38-22 54.3 54.3 0 01-38 22c6.3 14.4 6 30.3 0 44a54.4 54.4 0 0138 22 54.3 54.3 0 0138-22 54.4 54.4 0 010-44zM342.6 241.7a54.4 54.4 0 01-38.1-22 54.3 54.3 0 01-38 22c6.3 14.4 6 30.3 0 44a54.4 54.4 0 0138 22 54.3 54.3 0 0138-22 54.4 54.4 0 010-44zM190.3-22a54.4 54.4 0 01-38-22 54.3 54.3 0 01-38.1 22c6.3 14.4 6 30.3 0 44a54.4 54.4 0 0138 22 54.3 54.3 0 0138.1-22 54.4 54.4 0 010-44zM190.3 505.4a54.4 54.4 0 01-38-22 54.2 54.2 0 01-38.1 22c6.3 14.4 6 30.3 0 44a54.4 54.4 0 0138 22 54.3 54.3 0 0138.1-22 54.4 54.4 0 010-44z"/>
    <path class="shape-3" d="M16.7 140.4c-6.8 3.9-12.4 9-16.7 15a54.1 54.1 0 00-16.7-15L-44 187.6h33.4A54.2 54.2 0 000 219.7a54.7 54.7 0 0010.5-32.1H44l-27.2-47.2z"/>
    <path class="shape-3" d="M93.8 209.5c3-6.9 4.6-14.4 4.6-22H44l16.8 29c-10.5 6-18.1 15-22.6 25.2 11 1.2 22.7-1 33-7l16.8 29 27.2-47.2a54.8 54.8 0 00-21.3-7zM115.1 310.9L88 263.7l-16.7 29a54.7 54.7 0 00-33.1-7 54.7 54.7 0 0022.6 25.2l-16.8 29h54.5c0-7.5-1.5-15-4.6-22 7.3-.8 14.6-3.1 21.3-7z"/>
    <path class="shape-3" d="M10.5 339.8A54.2 54.2 0 000 307.6a54.7 54.7 0 00-10.5 32.2H-44l27.2 47.2c6.8-4 12.4-9 16.7-15a54 54 0 0016.7 15L44 339.8H10.5zM263.8 236.5c-5-8.6-12-15.4-20-20l16.7-29h-54.4a54 54 0 004.6 22c-7.3.8-14.6 3.1-21.3 7l27.2 47.2 16.7-29c10 5.8 21.6 8.3 33.1 7-.8-1.8-1.6-3.5-2.6-5.2z"/>
    <path class="shape-3" d="M321.2 140.4c-6.8 3.9-12.4 9-16.7 15a54.1 54.1 0 00-16.7-15l-27.3 47.2H294a54.2 54.2 0 0010.5 32.1 54.7 54.7 0 0010.5-32.1h33.4l-27.2-47.2zM266.4 285.7a54.2 54.2 0 00-33.1 7l-16.7-29-27.3 47.2a54.7 54.7 0 0021.4 7c-3 6.9-4.6 14.3-4.6 22h54.4l-16.7-29c10.5-6 18.1-15 22.6-25.2z"/>
    <path class="shape-3" d="M315 339.8a54.2 54.2 0 00-10.5-32.2 54.7 54.7 0 00-10.5 32.2h-33.5l27.3 47.2c6.7-4 12.4-9 16.7-15a54 54 0 0016.7 15l27.2-47.2H315zM111.5-27.2c-5-8.6-11.9-15.3-20-20l16.8-29H53.8a54 54 0 004.6 22c-7.3.8-14.5 3.1-21.3 7L64.3 0l16.8-29c10 5.8 21.6 8.3 33 7-.7-1.8-1.6-3.5-2.6-5.2zM246-54.2c3-6.9 4.7-14.4 4.7-22h-54.5l16.7 29c-10.4 6-18 15-22.6 25.2 11.1 1.2 22.7-1 33.1-7l16.7 29 27.3-47.2a54.7 54.7 0 00-21.4-7zM267.4 47.2L240 0l-16.7 29a54.7 54.7 0 00-33-7 54.7 54.7 0 0022.5 25.2l-16.7 29h54.5c0-7.5-1.5-15-4.7-22 7.3-.8 14.6-3.1 21.4-7zM114.2 22A54.2 54.2 0 0081 29L64.3 0 37.1 47.2a54.7 54.7 0 0021.4 7c-3 6.9-4.7 14.4-4.7 22h54.5l-16.7-29c10.4-6 18-15 22.6-25.2z"/>
    <path class="shape-3" d="M162.8 76.1A54.2 54.2 0 00152.2 44a54.7 54.7 0 00-10.5 32.2h-33.4l27.2 47.2c6.8-4 12.4-9 16.7-15a54 54 0 0016.8 15l27.2-47.2h-33.4zM111.5 500.2c-5-8.6-11.9-15.4-20-20l16.8-29H53.8a54 54 0 004.6 22c-7.3.8-14.5 3.1-21.3 7l27.2 47.2 16.8-29c10 5.8 21.6 8.3 33 7-.7-1.8-1.6-3.5-2.6-5.2z"/>
    <path class="shape-3" d="M169 404c-6.8 4-12.4 9.2-16.8 15a54 54 0 00-16.7-15l-27.2 47.3h33.4a54.2 54.2 0 0010.5 32.1 54.7 54.7 0 0010.6-32.1h33.4L169 404z"/>
    <path class="shape-3" d="M246 473.2c3-6.9 4.7-14.4 4.7-22h-54.5l16.7 29c-10.4 6-18 15-22.6 25.2 11.1 1.2 22.7-1 33.1-7l16.7 29 27.3-47.2a54.8 54.8 0 00-21.4-7zM267.4 574.6L240 527.4l-16.7 29a54.7 54.7 0 00-33-7 54.8 54.8 0 0022.5 25.2l-16.7 29h54.5c0-7.5-1.5-15-4.7-22 7.3-.8 14.6-3.1 21.4-7zM114.2 549.4a54.2 54.2 0 00-33.1 7l-16.8-29-27.2 47.2a54.7 54.7 0 0021.4 7c-3 6.8-4.7 14.3-4.7 22h54.5l-16.7-29c10.4-6 18-15 22.6-25.2z"/>
    <circle class="shape-4" cx="76.1" cy="395.5" r="9.9"/>
    <circle class="shape-4" cx="152.2" cy="263.7" r="9.9"/>
    <circle class="shape-4" cx="76.1" cy="131.8" r="9.9"/>
    <circle class="shape-4" cx="228.4" cy="395.5" r="9.9"/>
    <circle class="shape-4" cx="228.4" cy="131.8" r="9.9"/>
    <circle class="shape-4" r="9.9"/>
    <circle class="shape-4" cx="304.5" r="9.9"/>
    <circle class="shape-4" cy="527.4" r="9.9"/>
    <circle class="shape-4" cx="304.5" cy="527.4" r="9.9"/>
    <path class="shape-5" d="M-40.7 236.5c1 1.7 1.9 3.4 2.6 5.2a54.3 54.3 0 0038.1-22 55.3 55.3 0 01-10.5-32.1H-44l-16.7 29c8 4.5 15 11.3 20 19.9zM0 307.6a54.4 54.4 0 00-38-22A54.2 54.2 0 01-60.8 311l16.8 29h33.4c0-11.6 3.7-22.9 10.5-32.3zM0 219.7a54.4 54.4 0 0038 22 54.2 54.2 0 0122.7-25.2l-16.8-29H10.5c0 11.6-3.7 22.9-10.5 32.2zM38 241.7a54.4 54.4 0 000 44 54.7 54.7 0 0133.2 7l16.7-29-16.7-29c-10.4 6-22 8.2-33.1 7z"/>
    <path class="shape-5" d="M40.7 291c-1-1.8-1.9-3.6-2.6-5.3a54.3 54.3 0 00-38.1 22 55 55 0 0110.5 32.1H44l16.7-29c-8-4.6-15-11.3-20-19.9zM266.4 285.7c6-13.7 6.4-29.6 0-44a54.7 54.7 0 01-33.1-7l-16.7 29 16.7 29c10.4-6 22-8.3 33.1-7zM263.8 236.5c1 1.7 1.8 3.4 2.6 5.2a54.3 54.3 0 0038-22 55.5 55.5 0 01-10.4-32.1h-33.5l-16.7 29c8 4.5 15 11.3 20 19.9zM304.5 307.6a54.4 54.4 0 00-38-22 54.2 54.2 0 01-22.7 25.3l16.7 29H294c0-11.6 3.6-22.9 10.5-32.3zM304.5 219.7a54.4 54.4 0 0038 22 54.2 54.2 0 0122.7-25.2l-16.8-29H315c0 11.6-3.7 22.9-10.5 32.2zM345.2 291c-1-1.8-1.9-3.6-2.6-5.3a54.3 54.3 0 00-38.1 22 55.2 55.2 0 0110.5 32.1h33.4l16.8-29c-8-4.6-15-11.3-20-19.9zM114.2 22c6-13.7 6.3-29.6 0-44A54.7 54.7 0 0181-29L64.3 0l16.8 29c10.4-6 22-8.2 33-7z"/>
    <path class="shape-5" d="M152.2 44a54.4 54.4 0 00-38-22 54.2 54.2 0 01-22.6 25.2l16.7 29h33.4c0-11.6 3.7-22.9 10.5-32.3zM190.3-22a54.4 54.4 0 000 44 54.7 54.7 0 0133.1 7l16.7-29-16.7-29c-10.4 6-22 8.2-33 7zM193 27.2c-1-1.7-1.9-3.4-2.7-5.2a54.3 54.3 0 00-38 22A55.2 55.2 0 01162.7 76h33.4l16.7-29c-8-4.6-15-11.3-20-19.9zM114.2 549.4c6-13.7 6.3-29.6 0-44a54.7 54.7 0 01-33.1-7l-16.8 29 16.8 29c10.4-6 22-8.3 33-7zM111.5 500.2a55 55 0 012.7 5.2 54.2 54.2 0 0038-22 55.2 55.2 0 01-10.5-32.1h-33.4l-16.7 29c8 4.5 15 11.3 20 19.9zM152.2 483.4a54.4 54.4 0 0038.1 22 54.2 54.2 0 0122.6-25.2l-16.7-29h-33.4c0 11.6-3.7 22.9-10.6 32.2zM190.3 505.4a54.4 54.4 0 000 44 54.7 54.7 0 0133.1 7l16.7-29-16.7-29c-10.4 6-22 8.2-33 7z"/>
    <path class="shape-6" d="M98.4 187.6a54.5 54.5 0 00-81.7-47.2L44 187.6h54.5zM115.1 310.9a54.5 54.5 0 000-94.4L88 263.7l27.2 47.2zM16.7 387a54.4 54.4 0 0081.7-47.2H44L16.8 387zM189.4 216.5a54.5 54.5 0 000 94.4l27.2-47.2-27.2-47.2zM287.8 140.4a54.4 54.4 0 00-81.7 47.2h54.4l27.3-47.2zM206 339.8a54.5 54.5 0 0081.7 47.2l-27.2-47.2h-54.4zM37.1-47.2a54.5 54.5 0 000 94.4L64.3 0 37.1-47.2zM267.4 47.2a54.5 54.5 0 000-94.4L240 0l27.3 47.2zM169 123.3a54.4 54.4 0 0081.7-47.2h-54.5L169 123.3zM53.8 76.1a54.5 54.5 0 0081.7 47.2l-27.2-47.2H53.8zM37.1 480.2a54.5 54.5 0 000 94.4l27.2-47.2-27.2-47.2zM135.5 404.1a54.4 54.4 0 00-81.7 47.2h54.5l27.2-47.2zM250.7 451.3A54.5 54.5 0 00169 404l27.2 47.2h54.5zM267.4 574.6a54.5 54.5 0 000-94.4L240 527.4l27.3 47.2z"/>
    <path class="shape-7" d="M0 372c-4.3 6-10 11-16.7 15L0 416l16.7-29A54 54 0 010 372zM93.8 209.5c7.5.9 14.8 3.2 21.3 7l16.8-29H98.4c0 7.6-1.6 15.1-4.6 22zM0 155.4c4.3-6 10-11.1 16.7-15L0 111.4l-16.7 29a54.1 54.1 0 0116.7 15zM115.1 310.9c-6.7 3.9-14 6.2-21.3 7 3.1 7 4.6 14.5 4.6 22h33.4l-16.7-29zM206 187.6h-33.4l16.8 29c6.7-4 14-6.3 21.3-7-3.1-7.2-4.6-14.6-4.6-22zM304.5 372c-4.3 6-10 11-16.7 15l16.7 29 16.7-29a54 54 0 01-16.7-15zM304.5 155.4c4.3-6 10-11.1 16.7-15l-16.7-29-16.7 29a54.1 54.1 0 0116.7 15zM210.7 317.8a54.8 54.8 0 01-21.4-7l-16.7 29h33.5c0-7.6 1.6-15 4.6-22zM152.2 108.3c-4.3 6-9.9 11-16.7 15l16.7 29 16.8-29a54 54 0 01-16.8-15zM267.4 47.2c-6.8 3.9-14 6.2-21.4 7 3.2 7 4.7 14.5 4.7 22H284l-16.7-29zM58.5 54.2a54.8 54.8 0 01-21.4-7l-16.7 29h33.4c0-7.6 1.6-15.1 4.7-22zM53.8 451.3H20.4l16.7 29c6.8-4 14-6.3 21.3-7a54 54 0 01-4.6-22zM246 473.2c7.5.9 14.8 3.2 21.4 7l16.7-29h-33.4c0 7.6-1.6 15.1-4.7 22zM152.2 419c4.4-5.8 10-11 16.8-15l-16.8-28.9-16.7 29a54 54 0 0116.7 15z"/>
    <path class="shape-8" d="M152.2 152.2l-20.3 35.4h40.7zM0 415.9l-20.4 35.4h40.8zM304.5 415.9l-20.4 35.4h40.8zM131.8 339.8h40.8l-20.4 35.3zM-20.4 76.1h40.8L0 111.5zM284.1 76.1h40.8l-20.4 35.4z"/>
  </g>
  <g class="guides">
    <path d="M-131.8 187.6l436.3 251.9M-131.9 339.8L304.5 87.9M0 527.4V0"/>
    <circle cy="263.7" r="152.2"/>
    <path d="M-131.9 339.8h263.7L0 111.5z"/>
    <circle cy="263.7" r="44"/>
    <path d="M-76.1 395.5l304.5-527.3M228.4 659.3L-76.1 131.8M-87.9 263.7l-27.2-47.2M-131.8 187.6h263.7L0 415.9z"/>
    <circle cx="-44" cy="187.6" r="54.5"/>
    <circle cx="44" cy="187.6" r="54.5"/>
    <circle cx="87.9" cy="263.7" r="54.5"/>
    <circle cx="44" cy="339.8" r="54.5"/>
    <circle cx="-43.9" cy="339.8" r="54.5"/>
    <path d="M0 87.9l436.3 251.9M0 439.5l436.4-251.9M304.5 527.4V0"/>
    <circle cx="304.5" cy="263.7" r="152.2"/>
    <path d="M172.6 339.8h263.7L304.5 111.5z"/>
    <circle cx="304.5" cy="263.7" r="44"/>
    <path d="M76.1 659.2l304.5-527.4M380.6 395.5L76.1-131.9M456.7 263.7h-609M216.6 263.7l-27.2-47.2M172.6 187.6h263.8L304.5 415.9z"/>
    <circle cx="216.6" cy="263.7" r="54.5"/>
    <circle cx="260.5" cy="187.6" r="54.5"/>
    <circle cx="348.4" cy="187.6" r="54.5"/>
    <circle cx="348.4" cy="339.8" r="54.5"/>
    <circle cx="260.5" cy="339.8" r="54.5"/>
    <path d="M20.4-76.1l284.1 164M0 87.9l284.1-164M152.2 679.6v-831.8"/>
    <circle cx="152.2" r="152.2"/>
    <path d="M20.4 76.1h263.7L152.2-152.2z"/>
    <circle cx="152.2" r="44"/>
    <path d="M304.5 0H0M64.3 0L37.1-47.2M20.4-76.1h263.7L152.2 152.2z"/>
    <circle cx="64.3" r="54.5"/>
    <circle cx="240.2" r="54.5"/>
    <circle cx="196.2" cy="76.1" r="54.5"/>
    <circle cx="108.3" cy="76.1" r="54.5"/>
    <path d="M0 439.5l284.1 164M20.4 603.5l284.1-164"/>
    <circle cx="152.2" cy="527.4" r="152.2"/>
    <path d="M20.4 603.5h263.7L152.2 375.1z"/>
    <circle cx="152.2" cy="527.4" r="44"/>
    <path d="M304.5 527.4H0M64.3 527.4l-27.2-47.2M20.4 451.3h263.7L152.2 679.6z"/>
    <circle cx="64.3" cy="527.4" r="54.5"/>
    <circle cx="108.3" cy="451.3" r="54.5"/>
    <circle cx="196.2" cy="451.3" r="54.5"/>
    <circle cx="240.2" cy="527.4" r="54.5"/>
  </g>
</svg>
