<svg version="1.1" xmlns="http://www.w3.org/2000/svg" width="304.49" height="527.39"  viewBox="0 0 100% 100%">
  <style>
    :root {
      --golden: #907A58;
      --darkBlue: #475387;
      --beige: #DFD8CC;
      --teal: #4A9AC4;
      --gray: #A49DA0;
      --smaragd: #406A72;
      --sand: #D3BDA7;
      --grayGreen: #A2D1D6;
      --blueGray: #758390;
      --lightBrown: #AA8858;
      --blue1: #8EC5EE;
      --blue2: #8CC6EA;
      --blue3: #B6DAEC;
      --rust: #D8692D;
      --yellow: #F8C346;
            --black: #443430;
      --red: #BF402B;
      --gold: #CEA600;
      --turquois: #4D9BA3;
      --emerald: #216554;
      --blue: #262F66;
      --white: #FFFAF2;

    }
    .shape-2{fill:var(--turquois)}
    .shape-5{fill:var(--white)}
    .shape-3{fill:var(--red)}
    .shape-1{fill:var(--black)}
    .shape-4{fill:var(--gold)}
    .shape-7{fill:var(--white)}
    .shape-6{fill:var(--white)}
    .shape-8{fill:var(--red)}
    <!-- .line{stroke:#fff;stroke-width:9px} -->
    .guides{ stroke: #4FFF4F; display: none; fill: none}
  </style>
      <g class="line" id="pattern">
  <rect x="-9.832" y="-9.868" class="shape-1" width="324.175" height="547.113"/>
  <path class="shape-2" d="M38.068,241.715c-14.824-1.624-28.805-9.291-38.065-21.969c-4.339,5.934-9.944,11.088-16.719,15
    c-6.773,3.911-14.038,6.188-21.345,6.978c6.349,14.356,6,30.293-0.003,43.942c14.826,1.624,28.806,9.291,38.066,21.97
    c4.338-5.93,9.941-11.081,16.712-14.991c6.774-3.912,14.041-6.188,21.349-6.979C31.712,271.308,32.062,255.367,38.068,241.715z"/>
  <path class="shape-2" d="M342.557,241.716c-14.824-1.624-28.805-9.291-38.064-21.969c-4.339,5.934-9.943,11.088-16.719,15
    c-6.773,3.911-14.038,6.188-21.345,6.978c6.349,14.356,6,30.293-0.003,43.942c14.825,1.624,28.805,9.291,38.065,21.97
    c4.338-5.93,9.94-11.081,16.712-14.991c6.775-3.912,14.041-6.188,21.35-6.979C336.201,271.308,336.551,255.367,342.557,241.716z"/>
  <path class="shape-2" d="M190.312-21.979c-14.824-1.624-28.805-9.291-38.064-21.969c-4.339,5.934-9.943,11.088-16.719,15
    c-6.773,3.911-14.038,6.188-21.345,6.978c6.349,14.356,6,30.293-0.003,43.942c14.825,1.624,28.805,9.291,38.065,21.97
    c4.338-5.93,9.94-11.081,16.712-14.991c6.775-3.912,14.041-6.188,21.35-6.979C183.957,7.613,184.307-8.328,190.312-21.979z"/>
  <path class="shape-2" d="M190.312,505.41c-14.824-1.624-28.805-9.29-38.064-21.97c-4.339,5.934-9.943,11.089-16.719,15
    c-6.773,3.911-14.038,6.188-21.345,6.979c6.349,14.356,6,30.293-0.003,43.942c14.825,1.624,28.805,9.291,38.065,21.97
    c4.338-5.93,9.94-11.08,16.712-14.99c6.775-3.912,14.041-6.188,21.35-6.979C183.956,535.003,184.306,519.062,190.312,505.41z"/>
  <path class="shape-3" d="M16.71,140.392c-6.772,3.911-12.375,9.064-16.712,14.996c-4.574-6.262-10.302-11.294-16.712-14.988
    l-27.235,47.169l33.436-0.001c-0.009,9.258,2.33,18.641,7.292,27.235c0.996,1.726,2.078,3.37,3.227,4.943
    c6.843-9.359,10.502-20.668,10.512-32.18l33.43-0.001L16.71,140.392z"/>
  <path class="shape-3" d="M93.792,209.543c3.039-6.908,4.623-14.4,4.631-21.98l-54.478,0.002l16.718,28.956
    c-10.421,6.019-18.093,14.963-22.595,25.194c11.111,1.217,22.694-0.954,33.116-6.97l16.718,28.955l27.24-47.178
    C108.574,212.739,101.294,210.365,93.792,209.543z"/>
  <path class="shape-3" d="M115.138,310.875l-27.235-47.174l-16.716,28.95c-9.975-5.745-21.598-8.23-33.123-6.983
    c0.787,1.781,1.671,3.54,2.667,5.264c4.962,8.594,11.918,15.311,19.939,19.932L43.95,339.82l54.473-0.003
    c0.006-7.398-1.488-14.875-4.625-21.968C101.103,317.059,108.366,314.784,115.138,310.875z"/>
  <path class="shape-3" d="M10.52,339.821c0.01-9.26-2.328-18.646-7.292-27.242c-0.996-1.725-2.077-3.369-3.226-4.942
    c-6.846,9.36-10.508,20.672-10.519,32.186l-33.429,0.001l27.234,47.172c6.771-3.91,12.374-9.062,16.712-14.991
    c4.574,6.263,10.302,11.295,16.712,14.988L43.95,339.82L10.52,339.821z"/>
  <path class="shape-3" d="M263.761,236.458c-4.962-8.594-11.919-15.312-19.941-19.933l16.72-28.956l-54.473,0.002
    c-0.008,7.399,1.486,14.877,4.623,21.97c-7.305,0.791-14.566,3.066-21.338,6.975l27.235,47.173l16.714-28.948
    c9.976,5.747,21.601,8.231,33.128,6.983C265.641,239.943,264.757,238.184,263.761,236.458z"/>
  <path class="shape-3" d="M321.199,140.393c-6.773,3.911-12.375,9.064-16.713,14.996c-4.574-6.262-10.302-11.294-16.713-14.988
    l-27.234,47.169l33.436-0.001c-0.01,9.258,2.329,18.641,7.291,27.235c0.996,1.726,2.078,3.37,3.227,4.943
    c6.844-9.359,10.502-20.668,10.512-32.18l33.43-0.001L321.199,140.393z"/>
  <path class="shape-3" d="M266.426,285.667c-11.113-1.217-22.699,0.955-33.124,6.973l-16.715-28.951l-27.241,47.177
    c6.568,3.785,13.85,6.159,21.352,6.98c-3.037,6.908-4.621,14.4-4.627,21.98l54.473-0.004l-16.716-28.953
    C254.251,304.85,261.924,295.901,266.426,285.667z"/>
  <path class="shape-3" d="M315.008,339.821c0.01-9.26-2.328-18.646-7.291-27.242c-0.996-1.725-2.076-3.369-3.226-4.942
    c-6.847,9.36-10.508,20.672-10.519,32.186h-33.43l27.234,47.172c6.771-3.91,12.375-9.061,16.713-14.99
    c4.573,6.262,10.301,11.295,16.711,14.988l27.238-47.172H315.008z"/>
  <path class="shape-3" d="M111.517-27.236c-4.962-8.594-11.919-15.312-19.941-19.933l16.72-28.956l-54.473,0.002
    c-0.008,7.399,1.486,14.877,4.623,21.97c-7.305,0.791-14.566,3.066-21.338,6.975L64.343-0.006l16.714-28.948
    c9.976,5.747,21.601,8.231,33.128,6.983C113.396-23.752,112.513-25.511,111.517-27.236z"/>
  <path class="shape-3" d="M246.037-54.151c3.039-6.908,4.623-14.4,4.631-21.98l-54.479,0.002l16.719,28.956
    c-10.422,6.019-18.094,14.963-22.596,25.194c11.111,1.217,22.695-0.954,33.117-6.97l16.717,28.955l27.24-47.178
    C260.818-50.955,253.539-53.33,246.037-54.151z"/>
  <path class="shape-3" d="M267.383,47.18L240.146,0.006l-16.715,28.95c-9.975-5.745-21.598-8.23-33.123-6.983
    c0.787,1.781,1.67,3.54,2.666,5.264c4.963,8.594,11.918,15.311,19.939,19.932l-16.719,28.957l54.473-0.004
    c0.006-7.398-1.488-14.875-4.625-21.967C253.348,53.365,260.611,51.089,267.383,47.18z"/>
  <path class="shape-3" d="M114.182,21.972c-11.113-1.217-22.699,0.955-33.124,6.973L64.343-0.006L37.102,47.171
    c6.568,3.785,13.85,6.159,21.352,6.98c-3.037,6.908-4.621,14.4-4.627,21.98l54.473-0.004L91.583,47.175
    C102.007,41.155,109.68,32.207,114.182,21.972z"/>
  <path class="shape-3" d="M162.764,76.126c0.01-9.26-2.328-18.646-7.291-27.242c-0.996-1.725-2.076-3.369-3.226-4.942
    c-6.847,9.36-10.508,20.672-10.519,32.186h-33.43l27.234,47.172c6.771-3.91,12.375-9.061,16.713-14.99
    c4.573,6.262,10.301,11.295,16.711,14.988l27.238-47.172H162.764z"/>
  <path class="shape-3" d="M111.516,500.153c-4.962-8.595-11.919-15.312-19.941-19.934l16.72-28.956l-54.473,0.002
    c-0.008,7.399,1.486,14.877,4.623,21.97c-7.305,0.791-14.566,3.066-21.338,6.975l27.235,47.174l16.714-28.948
    c9.976,5.747,21.601,8.231,33.128,6.983C113.396,503.638,112.512,501.878,111.516,500.153z"/>
  <path class="shape-3" d="M168.954,404.087c-6.773,3.911-12.375,9.064-16.713,14.996c-4.574-6.263-10.302-11.295-16.713-14.988
    l-27.234,47.169l33.436-0.001c-0.01,9.258,2.329,18.641,7.291,27.234c0.996,1.727,2.078,3.371,3.227,4.943
    c6.844-9.358,10.502-20.668,10.512-32.18l33.43-0.001L168.954,404.087z"/>
  <path class="shape-3" d="M246.036,473.238c3.039-6.907,4.623-14.4,4.631-21.98l-54.479,0.002l16.719,28.956
    c-10.422,6.019-18.094,14.963-22.596,25.194c11.111,1.217,22.695-0.954,33.117-6.97l16.717,28.955l27.24-47.178
    C260.817,476.435,253.538,474.06,246.036,473.238z"/>
  <path class="shape-3" d="M267.382,574.569l-27.236-47.174l-16.715,28.95c-9.975-5.745-21.598-8.23-33.123-6.983
    c0.787,1.781,1.67,3.539,2.666,5.264c4.963,8.594,11.918,15.311,19.939,19.933l-16.719,28.957l54.473-0.004
    c0.006-7.398-1.488-14.875-4.625-21.968C253.347,580.754,260.61,578.479,267.382,574.569z"/>
  <path class="shape-3" d="M114.181,549.361c-11.113-1.218-22.699,0.954-33.124,6.974l-16.715-28.951l-27.241,47.177
    c6.568,3.784,13.85,6.159,21.352,6.98c-3.037,6.908-4.621,14.4-4.627,21.98l54.473-0.004l-16.716-28.953
    C102.006,568.544,109.679,559.596,114.181,549.361z"/>
  <circle class="shape-4" cx="76.121" cy="395.542" r="9.855"/>
  <circle class="shape-4" cx="152.244" cy="263.695" r="9.855"/>
  <circle class="shape-4" cx="76.123" cy="131.847" r="9.855"/>
  <circle class="shape-4" cx="228.367" cy="395.542" r="9.855"/>
  <circle class="shape-4" cx="228.366" cy="131.847" r="9.855"/>
  <circle class="shape-4" cx="0" cy="0" r="9.855"/>
  <circle class="shape-4" cx="304.488" cy="0" r="9.855"/>
  <circle class="shape-4" cx="-0.001" cy="527.39" r="9.855"/>
  <circle class="shape-4" cx="304.487" cy="527.39" r="9.855"/>
  <path class="shape-5" d="M-40.728,236.458c0.996,1.726,1.88,3.484,2.668,5.266c7.307-0.791,14.571-3.067,21.345-6.978
    c6.775-3.912,12.38-9.066,16.719-15c-1.149-1.573-2.23-3.218-3.227-4.943c-4.962-8.594-7.3-17.978-7.292-27.235l-33.436,0.001
    l-16.719,28.956C-52.647,221.146-45.69,227.864-40.728,236.458z"/>
  <path class="shape-5" d="M0.002,307.637c-9.26-12.679-23.24-20.347-38.066-21.97c-4.501,10.234-12.174,19.183-22.598,25.203
    l16.716,28.954l33.429-0.001C-10.505,328.309-6.844,316.997,0.002,307.637z"/>
  <path class="shape-5" d="M0.003,219.746c9.26,12.679,23.241,20.346,38.065,21.969c4.502-10.231,12.174-19.176,22.595-25.194
    l-16.718-28.956l-33.43,0.001C10.506,199.078,6.847,210.387,0.003,219.746z"/>
  <path class="shape-5" d="M38.068,241.715c-6.006,13.651-6.356,29.592-0.005,43.952c11.525-1.247,23.148,1.238,33.123,6.983
    l16.716-28.95l-16.718-28.955C60.763,240.761,49.18,242.932,38.068,241.715z"/>
  <path class="shape-5" d="M40.73,290.932c-0.996-1.725-1.88-3.483-2.667-5.264c-7.308,0.791-14.574,3.067-21.349,6.979
    c-6.771,3.91-12.375,9.061-16.712,14.991c1.149,1.573,2.23,3.217,3.226,4.942c4.963,8.596,7.301,17.982,7.292,27.242l33.431-0.001
    l16.72-28.957C52.648,306.242,45.692,299.525,40.73,290.932z"/>
  <path class="shape-5" d="M266.426,285.667c6.003-13.649,6.352-29.586,0.003-43.942c-11.527,1.248-23.152-1.237-33.128-6.983
    l-16.714,28.948l16.715,28.951C243.727,286.622,255.312,284.45,266.426,285.667z"/>
  <path class="shape-5" d="M263.761,236.458c0.996,1.726,1.88,3.484,2.668,5.266c7.307-0.791,14.571-3.067,21.345-6.978
    c6.775-3.912,12.38-9.066,16.719-15c-1.148-1.573-2.23-3.218-3.227-4.943c-4.962-8.594-7.301-17.978-7.291-27.235l-33.436,0.001
    l-16.72,28.956C251.842,221.147,258.799,227.864,263.761,236.458z"/>
  <path class="shape-5" d="M304.491,307.637c-9.261-12.679-23.24-20.347-38.065-21.97c-4.502,10.234-12.175,19.183-22.599,25.203
    l16.716,28.953h33.43C293.983,328.31,297.645,316.997,304.491,307.637z"/>
  <path class="shape-5" d="M304.492,219.747c9.26,12.679,23.24,20.346,38.064,21.969c4.502-10.231,12.174-19.176,22.596-25.194
    l-16.719-28.956l-33.43,0.001C314.994,199.078,311.336,210.388,304.492,219.747z"/>
  <path class="shape-5" d="M345.219,290.932c-0.996-1.725-1.879-3.483-2.666-5.264c-7.309,0.791-14.574,3.067-21.35,6.979
    c-6.771,3.91-12.374,9.061-16.712,14.991c1.149,1.573,2.229,3.217,3.226,4.942c4.963,8.596,7.301,17.982,7.291,27.242h33.432
    l16.719-28.957C357.137,306.243,350.182,299.526,345.219,290.932z"/>
  <path class="shape-5" d="M114.182,21.972c6.003-13.649,6.352-29.586,0.003-43.942c-11.527,1.248-23.152-1.237-33.128-6.983
    L64.343-0.006l16.715,28.951C91.482,22.927,103.068,20.755,114.182,21.972z"/>
  <path class="shape-5" d="M152.247,43.942c-9.261-12.679-23.24-20.347-38.065-21.97c-4.502,10.234-12.175,19.183-22.599,25.203
    l16.716,28.953h33.43C141.739,64.615,145.4,53.302,152.247,43.942z"/>
  <path class="shape-5" d="M190.312-21.979c-6.006,13.651-6.355,29.592-0.004,43.952c11.525-1.247,23.148,1.238,33.123,6.983
    l16.715-28.95L223.43-28.949C213.008-22.933,201.424-20.762,190.312-21.979z"/>
  <path class="shape-5" d="M192.975,27.237c-0.996-1.725-1.879-3.483-2.666-5.264c-7.309,0.791-14.574,3.067-21.35,6.979
    c-6.771,3.91-12.374,9.061-16.712,14.991c1.149,1.573,2.229,3.217,3.226,4.942c4.963,8.596,7.301,17.982,7.291,27.242h33.432
    l16.719-28.957C204.893,42.548,197.938,35.831,192.975,27.237z"/>
  <path class="shape-5" d="M114.181,549.361c6.003-13.649,6.352-29.586,0.003-43.942c-11.527,1.248-23.152-1.236-33.128-6.983
    l-16.714,28.948l16.715,28.951C91.481,550.315,103.067,548.144,114.181,549.361z"/>
  <path class="shape-5" d="M111.516,500.153c0.996,1.725,1.88,3.484,2.668,5.266c7.307-0.791,14.571-3.067,21.345-6.979
    c6.775-3.911,12.38-9.066,16.719-15c-1.148-1.572-2.23-3.217-3.227-4.943c-4.962-8.594-7.301-17.977-7.291-27.234l-33.436,0.001
    l-16.72,28.956C99.597,484.841,106.554,491.559,111.516,500.153z"/>
  <path class="shape-5" d="M152.247,483.44c9.26,12.68,23.24,20.346,38.064,21.97c4.502-10.231,12.174-19.176,22.596-25.194
    l-16.719-28.956l-33.43,0.001C162.749,462.772,159.091,474.082,152.247,483.44z"/>
  <path class="shape-5" d="M190.312,505.41c-6.006,13.651-6.355,29.593-0.004,43.952c11.525-1.247,23.148,1.238,33.123,6.983
    l16.715-28.95l-16.717-28.955C213.007,504.456,201.423,506.627,190.312,505.41z"/>
  <path class="shape-6" d="M98.423,187.563c0.008-9.258-2.33-18.642-7.292-27.236c-15.043-26.056-48.359-34.982-74.414-19.939
    c-0.002,0.001-0.005,0.003-0.007,0.004l27.235,47.173L98.423,187.563z"/>
  <path class="shape-6" d="M115.138,310.875c0.003-0.001,0.005-0.002,0.007-0.003c26.055-15.043,34.982-48.36,19.939-74.415
    c-4.962-8.594-11.919-15.312-19.941-19.933l-27.24,47.178L115.138,310.875z"/>
  <path class="shape-6" d="M16.713,386.992c16.299,9.392,37.016,10.091,54.479,0.009c17.462-10.082,27.215-28.372,27.231-47.184
    L43.95,339.82L16.713,386.992z"/>
  <path class="shape-6" d="M189.352,216.516c-0.002,0.001-0.004,0.002-0.006,0.003c-26.055,15.043-34.982,48.36-19.939,74.415
    c4.962,8.594,11.918,15.311,19.939,19.932l27.241-47.177L189.352,216.516z"/>
  <path class="shape-6" d="M287.773,140.4c-16.298-9.391-37.014-10.09-54.477-0.008c-17.461,10.081-27.214,28.37-27.23,47.179
    l54.473-0.002L287.773,140.4z"/>
  <path class="shape-6" d="M206.07,339.827c-0.007,9.254,2.332,18.637,7.292,27.229c15.043,26.055,48.36,34.982,74.415,19.939l0,0
    l-27.234-47.172L206.07,339.827z"/>
  <path class="shape-6" d="M37.107-47.179c-0.002,0.001-0.004,0.002-0.006,0.003C11.047-32.133,2.119,1.184,17.162,27.239
    c4.962,8.594,11.918,15.311,19.939,19.932L64.343-0.006L37.107-47.179z"/>
  <path class="shape-6" d="M267.383,47.18c0.002-0.001,0.004-0.002,0.006-0.003c26.055-15.043,34.982-48.36,19.939-74.415
    c-4.961-8.594-11.918-15.312-19.941-19.933l-27.24,47.178L267.383,47.18z"/>
  <path class="shape-6" d="M168.957,123.298c16.299,9.391,37.016,10.09,54.479,0.008s27.215-28.371,27.232-47.184l-54.473,0.004
    L168.957,123.298z"/>
  <path class="shape-6" d="M53.826,76.132c-0.007,9.254,2.332,18.637,7.292,27.229c15.043,26.055,48.36,34.982,74.415,19.939l0,0
    l-27.234-47.172L53.826,76.132z"/>
  <path class="shape-6" d="M37.106,480.21c-0.002,0.002-0.004,0.002-0.006,0.004c-26.055,15.043-34.982,48.359-19.939,74.414
    c4.962,8.594,11.918,15.311,19.939,19.933l27.241-47.177L37.106,480.21z"/>
  <path class="shape-6" d="M135.528,404.095c-16.298-9.391-37.014-10.09-54.477-0.008c-17.461,10.08-27.214,28.369-27.23,47.179
    l54.473-0.002L135.528,404.095z"/>
  <path class="shape-6" d="M250.667,451.258c0.008-9.259-2.33-18.642-7.293-27.235c-15.043-26.057-48.359-34.982-74.414-19.939
    c-0.002,0.001-0.004,0.002-0.006,0.004l27.234,47.173L250.667,451.258z"/>
  <path class="shape-6" d="M267.382,574.569c0.002-0.001,0.004-0.002,0.006-0.004c26.055-15.043,34.982-48.359,19.939-74.414
    c-4.961-8.595-11.918-15.312-19.941-19.934l-27.24,47.178L267.382,574.569z"/>
  <path class="shape-7" d="M0.001,372.004c-4.338,5.93-9.94,11.081-16.712,14.991L0,415.938l16.713-28.946
    C10.303,383.299,4.575,378.267,0.001,372.004z"/>
  <path class="shape-7" d="M93.792,209.543c7.502,0.821,14.782,3.196,21.351,6.979l16.723-28.961l-33.442,0.001
    C98.415,195.143,96.831,202.636,93.792,209.543z"/>
  <path class="shape-7" d="M-0.002,155.388c4.337-5.932,9.94-11.084,16.712-14.996L0,111.451L-16.715,140.4
    C-10.304,144.094-4.576,149.125-0.002,155.388z"/>
  <path class="shape-7" d="M115.138,310.875c-6.771,3.909-14.035,6.185-21.34,6.975c3.137,7.093,4.631,14.569,4.625,21.968l33.425-0.001
    L115.138,310.875z"/>
  <path class="shape-7" d="M206.066,187.571l-33.425,0.001l16.71,28.943c6.771-3.908,14.033-6.184,21.338-6.975
    C207.553,202.448,206.059,194.971,206.066,187.571z"/>
  <path class="shape-7" d="M304.49,372.005c-4.338,5.93-9.941,11.08-16.713,14.99l16.711,28.943l16.713-28.945
    C314.791,383.3,309.063,378.267,304.49,372.005z"/>
  <path class="shape-7" d="M304.486,155.388c4.338-5.932,9.939-11.084,16.713-14.996l-16.71-28.941L287.773,140.4
    C294.185,144.094,299.912,149.126,304.486,155.388z"/>
  <path class="shape-7" d="M210.697,317.847c-7.502-0.822-14.783-3.196-21.352-6.98l-16.722,28.961h33.446
    C206.076,332.247,207.66,324.755,210.697,317.847z"/>
  <path class="shape-7" d="M152.246,108.31c-4.338,5.93-9.941,11.08-16.713,14.99l16.711,28.943l16.713-28.945
    C162.547,119.605,156.819,114.572,152.246,108.31z"/>
  <path class="shape-7" d="M267.383,47.18c-6.771,3.909-14.035,6.185-21.34,6.975c3.137,7.092,4.631,14.569,4.625,21.967h33.424
    L267.383,47.18z"/>
  <path class="shape-7" d="M58.453,54.152c-7.502-0.822-14.783-3.196-21.352-6.98L20.38,76.132h33.446
    C53.832,68.552,55.416,61.06,58.453,54.152z"/>
  <path class="shape-7" d="M53.821,451.266l-33.425,0.001l16.71,28.943c6.771-3.908,14.033-6.184,21.338-6.975
    C55.308,466.143,53.813,458.665,53.821,451.266z"/>
  <path class="shape-7" d="M246.036,473.238c7.502,0.821,14.781,3.196,21.35,6.979l16.723-28.961l-33.441,0.001
    C250.659,458.838,249.075,466.331,246.036,473.238z"/>
  <path class="shape-7" d="M152.241,419.083c4.338-5.932,9.939-11.085,16.713-14.996l-16.71-28.941l-16.716,28.949
    C141.939,407.788,147.667,412.82,152.241,419.083z"/>
  <polygon class="shape-8" points="152.244,152.244 131.865,187.562 172.642,187.573  "/>
  <polygon class="shape-8" points="-0.001,415.938 -20.38,451.255 20.396,451.267   "/>
  <polygon class="shape-8" points="304.487,415.939 284.108,451.257 324.885,451.269  "/>
  <polygon class="shape-8" points="131.848,339.816 172.624,339.827 152.244,375.146  "/>
  <polygon class="shape-8" points="-20.396,76.122 20.381,76.133 0,111.451   "/>
  <polygon class="shape-8" points="284.093,76.123 324.869,76.133 304.489,111.452  "/>

      </g>
      <g class="guides">
  <line class="st13" x1="-131.847" y1="187.572" x2="304.487" y2="439.491"/>
  <line class="st13" x1="-131.865" y1="339.827" x2="304.488" y2="87.898"/>
  <line class="st13" x1="0" y1="527.39" x2="0" y2="0"/>
  <circle class="st13" cx="0.001" cy="263.695" r="152.244"/>
  <polygon class="st13" points="-131.865,339.827 131.848,339.816 0,111.451  "/>
  <circle class="st13" cx="0" cy="263.695" r="43.951"/>
  <line class="st13" x1="-76.122" y1="395.542" x2="228.367" y2="-131.847"/>
  <line class="st13" x1="228.376" y1="659.255" x2="-76.123" y2="131.847"/>
  <line class="st13" x1="-87.905" y1="263.696" x2="-115.137" y2="216.516"/>
  <polygon class="st13" points="-131.847,187.572 131.865,187.562 0,415.938  "/>
  <circle class="st13" cx="-43.954" cy="187.569" r="54.476"/>
  <circle class="st13" cx="43.954" cy="187.565" r="54.475"/>
  <circle class="st13" cx="87.907" cy="263.694" r="54.475"/>
  <circle class="st13" cx="43.953" cy="339.823" r="54.476"/>
  <circle class="st13" cx="-43.949" cy="339.817" r="54.476"/>
  <line class="st13" x1="0.001" y1="87.898" x2="436.336" y2="339.817"/>
  <line class="st13" x1="0.001" y1="439.491" x2="436.354" y2="187.562"/>
  <line class="st13" x1="304.488" y1="527.39" x2="304.489" y2="0"/>
  <circle class="st13" cx="304.489" cy="263.695" r="152.244"/>
  <polygon class="st13" points="172.624,339.827 436.336,339.817 304.489,111.452   "/>
  <circle class="st13" cx="304.488" cy="263.695" r="43.951"/>
  <line class="st13" x1="76.122" y1="659.236" x2="380.611" y2="131.848"/>
  <line class="st13" x1="380.609" y1="395.542" x2="76.111" y2="-131.865"/>
  <line class="st13" x1="456.732" y1="263.695" x2="-152.267" y2="263.695"/>
  <line class="st13" x1="216.584" y1="263.696" x2="189.352" y2="216.516"/>
  <polygon class="st13" points="172.642,187.573 436.354,187.562 304.488,415.938   "/>
  <circle class="st13" cx="216.583" cy="263.696" r="54.476"/>
  <circle class="st13" cx="260.535" cy="187.569" r="54.476"/>
  <circle class="st13" cx="348.442" cy="187.565" r="54.475"/>
  <circle class="st13" cx="348.441" cy="339.824" r="54.476"/>
  <circle class="st13" cx="260.54" cy="339.818" r="54.476"/>
  <line class="st13" x1="20.397" y1="-76.122" x2="304.488" y2="87.898"/>
  <line class="st13" x1="0.001" y1="87.898" x2="284.109" y2="-76.133"/>
  <line class="st13" x1="152.244" y1="679.633" x2="152.245" y2="-152.243"/>
  <circle class="st13" cx="152.245" cy="0" r="152.244"/>
  <polygon class="st13" points="20.38,76.132 284.092,76.123 152.245,-152.243  "/>
  <circle class="st13" cx="152.244" cy="0" r="43.951"/>
  <line class="st13" x1="304.488" y1="0" x2="0" y2="0"/>
  <line class="st13" x1="64.34" y1="0.001" x2="37.107" y2="-47.179"/>
  <polygon class="st13" points="20.397,-76.122 284.109,-76.133 152.244,152.244  "/>
  <circle class="st13" cx="64.339" cy="0.001" r="54.476"/>
  <circle class="st13" cx="240.151" cy="0" r="54.475"/>
  <circle class="st13" cx="196.197" cy="76.129" r="54.476"/>
  <circle class="st13" cx="108.295" cy="76.123" r="54.476"/>
  <line class="st13" x1="0.001" y1="439.491" x2="284.091" y2="603.512"/>
  <line class="st13" x1="20.379" y1="603.521" x2="304.487" y2="439.491"/>
  <circle class="st13" cx="152.244" cy="527.389" r="152.244"/>
  <polygon class="st13" points="20.379,603.521 284.091,603.512 152.244,375.146  "/>
  <circle class="st13" cx="152.243" cy="527.39" r="43.95"/>
  <line class="st13" x1="304.487" y1="527.39" x2="-0.001" y2="527.39"/>
  <line class="st13" x1="64.339" y1="527.391" x2="37.106" y2="480.21"/>
  <polygon class="st13" points="20.396,451.267 284.108,451.257 152.243,679.633  "/>
  <circle class="st13" cx="64.338" cy="527.391" r="54.475"/>
  <circle class="st13" cx="108.29" cy="451.264" r="54.476"/>
  <circle class="st13" cx="196.197" cy="451.26" r="54.475"/>
  <circle class="st13" cx="240.15" cy="527.389" r="54.475"/>
      </g>
</svg>
