<svg xmlns="http://www.w3.org/2000/svg" width="173.2" height="100" viewBox="0 0 173.2 100">
  <style>
    :root { --black: #443430; --red: #BF402B; --gold: #CEA600; --turquois: #4D9BA3; --emerald: #216554; --blue: #262F66; --white: #FFFAF2; } .shape-4{fill:var(--black)} .shape-2{fill:var(--turquois)} .shape-3{fill:var(--white)} .shape-1{fill:var(--red)} .shape-5{fill:var(--blue2)} .shape-6{fill:var(--golden)} .shape-7{fill:var(--sand)}
    .guides{ stroke: #4FFF4F; display: none; fill: none}
  </style>
  <g class="line" id="pattern">
    <path class="shape-1" d="M17.3 80h23.1L52 100l-11.5 19.8H17.2L5.8 100l11.5-20zM156 80h-23.1l-11.6 20 11.5 19.8H156l11.4-19.8L156 80zm-52-50L92.4 50l11.5 20H127l11.6-20L127 30h-23m17.2-30l11.6 20h23l11.6-20L156-20h-23.1L121.2 0zM17.3-20L5.8 0l11.5 20h23.1L52 0 40.4-20h-23zm52 90l11.5-20-11.5-20H46.2L34.6 50l11.6 20h23"/>
    <path class="shape-2" d="M69.3-30h11.5l5.8 10-5.8 10H69.3l-5.8-10 5.8-10M57.7-10h11.6l5.8 10-5.8 10H57.7L52 0l5.7-10M69.3 10h11.5l5.8 10-5.8 10H69.3l-5.8-10 5.8-10M92.4 10h11.5l5.8 10-5.8 10H92.4l-5.8-10 5.8-10M103.9-10h11.6l5.7 10-5.7 10h-11.6L98.2 0l5.7-10M92.4-30h11.5l5.8 10-5.8 10H92.4l-5.8-10 5.8-10M69.3 70h11.5l5.8 10-5.8 10H69.3l-5.8-10zM57.7 90h11.6l5.8 10-5.8 10H57.7L52 100zM69.3 110h11.5l5.8 10-5.8 10H69.3l-5.8-10zM92.4 110h11.5l5.8 10-5.8 10H92.4l-5.8-10zM103.9 90h11.6l5.7 10-5.7 10h-11.6l-5.7-10zM92.4 70h11.5l5.8 10-5.8 10H92.4l-5.8-10zM-17.3 20h11.5L0 30l-5.8 10h-11.5l-5.8-10zM-17.3 60h11.5L0 70l-5.8 10h-11.5l-5.8-10zM5.8 60h11.5l5.8 10-5.8 10H5.8L0 70zM17.3 40h11.6l5.7 10-5.7 10H17.3l-5.8-10zM5.8 20h11.5l5.8 10-5.8 10H5.8L0 30zM155.9 20h11.5l5.8 10-5.8 10h-11.5l-5.8-10zM144.3 40h11.6l5.8 10-5.8 10h-11.6l-5.7-10zM155.9 60h11.5l5.8 10-5.8 10h-11.5l-5.8-10z"/>
    <path class="shape-2" d="M179 60h11.5l5.8 10-5.8 10H179l-5.8-10zM190.5 40h11.6l5.8 10-5.8 10h-11.6l-5.7-10zM179 20h11.5l5.8 10-5.8 10H179l-5.8-10z"/>
    <g>
      <path class="shape-3" d="M46.2 30L34.6 50l-5.7-10H17.3l5.8-10-5.8-10h23.1L52 0l5.7 10h11.6l-5.8 10 5.8 10zM132.8-20L121.2 0l-5.7-10h-11.6l5.8-10-5.8-10H127l11.6-20 5.7 10h11.6l-5.8 10 5.8 10zM92.4 50l11.5 20H92.4l-5.8 10-5.8-10H69.3l11.5-20-11.5-20h11.5l5.8-10 5.8 10h11.5zM132.8 20h23.1l-5.8 10 5.8 10h-11.6l-5.7 10L127 30h-23.1l5.8-10-5.8-10h11.6l5.7-10zM46.2-30h23.1l-5.8 10 5.8 10H57.7L52 0 40.4-20H17.3l5.8-10-5.8-10h11.6l5.7-10zM46.2 130l-11.6 20-5.7-10H17.3l5.8-10-5.8-10h23.1L52 100l5.7 10h11.6l-5.8 10 5.8 10zM132.8 80l-11.6 20-5.7-10h-11.6l5.8-10-5.8-10H127l11.6-20 5.7 10h11.6l-5.8 10 5.8 10h-23.1M132.8 120h23.1l-5.8 10 5.8 10h-11.6l-5.7 10-11.6-20h-23.1l5.8-10-5.8-10h11.6l5.7-10z"/>
      <path class="shape-3" d="M46.2 70h23.1l-5.8 10 5.8 10H57.7L52 100 40.4 80H17.3l5.8-10-5.8-10h11.6l5.7-10 11.6 20M5.8 100l11.5 20H5.8L0 130l-5.8-10h-11.5l11.5-20-11.5-20h11.5L0 70l5.8 10h11.5zM5.8 0l11.5 20H5.8L0 30l-5.8-10h-11.5L-5.8 0l-11.5-20h11.5L0-30l5.8 10h11.5z"/>
      <path class="shape-3" d="M46.2 70h23.1l-5.8 10 5.8 10H57.7L52 100 40.4 80H17.3l5.8-10-5.8-10h11.6l5.7-10zM132.8 80l-11.6 20-5.7-10h-11.6l5.8-10-5.8-10H127l11.6-20 5.7 10h11.6l-5.8 10 5.8 10zM179 100l11.5 20H179l-5.8 10-5.8-10h-11.5l11.5-20-11.5-20h11.5l5.8-10 5.8 10h11.5zM179 0l11.5 20H179l-5.8 10-5.8-10h-11.5l11.5-20-11.5-20h11.5l5.8-10 5.8 10h11.5z"/>
    </g>
    <g>
      <path class="shape-4" d="M86.6-20l-5.8 10H69.3l5.8 10-5.8 10h11.5l5.8 10 5.8-10h11.5L98.2 0l5.7-10H92.4zM86.6 80l-5.8 10H69.3l5.8 10-5.8 10h11.5l5.8 10 5.8-10h11.5l-5.7-10 5.7-10H92.4l-5.8-10M0 30l-5.8 10h-11.5l5.7 10-5.7 10h11.5L0 70l5.8-10h11.5l-5.8-10 5.8-10H5.8zM173.2 30l-5.8 10h-11.5l5.8 10-5.8 10h11.5l5.8 10 5.8-10h11.5l-5.7-10 5.7-10H179l-5.8-10"/>
    </g>
  </g>
  <g class="guides">
    <path d="M86.6 300L-115.3-50M95.3 295L-115.3-69.9M103.9 290L-112.6-85M112.6 285L-103.9-90M121.2 280L-95.3-95M129.9 275L-86.6-100M138.6 270L-77.9-105M147.2 265L-69.3-110M155.9 260L-60.6-115M164.5 255L-52-120M173.2 250L-43.3-125M181.9 245L-34.6-130M190.5 240L-26-135M199.2 235L-17.3-140M207.8 230L-8.7-145M216.5 225L0-150M225.2 220L8.7-155M233.8 215L17.3-160M242.5 210L26-165M251.2 205L34.6-170M259.8 200L43.3-175M268.5 195L52-180M277.1 190L60.6-185M285.8 185L69.3-190M288.7 169.9L77.9-195M288.7 150L86.6-200"/>
    <g>
      <path d="M288.7-70.1L77.9 295M288.7-50L86.6 300M285.8-85L69.3 290M277.1-90L60.6 285M268.5-95L52 280M259.8-100L43.3 275M251.1-105L34.6 270M242.5-110L26 265M233.8-115L17.3 260M225.2-120L8.7 255M216.5-125L0 250M207.8-130L-8.7 245M199.2-135L-17.3 240M190.5-140L-26 235M181.9-145L-34.6 230M173.2-150L-43.3 225M164.5-155L-52 220M155.9-160L-60.6 215M147.2-165L-69.3 210M138.6-170L-77.9 205M129.9-175L-86.6 200M121.2-180L-95.3 195M112.6-185l-216.5 375M103.9-190l-216.5 375M95.3-195l-210.6 364.6M86.6-200l-201.9 350"/>
    </g>
    <g>
      <path d="M-115.3-50h404M-115.3-40h404M-115.3-30h404M-115.3-20h404M-115.3-10h404M-115.3 0h404M-115.3 10h404M-115.3 20h404M-115.3 30h404M-115.3 40h404M-115.3 50h404M-115.3 60h404M-115.3 70h404M-115.3 80h404M-115.3 90h404M-115.3 100h404M-115.3 110h404M-115.3 120h404M-115.3 130h404M-115.3 140h404M-115.3 150h404"/>
    </g>
  </g>
</svg>
