<svg version="1.1" xmlns="http://www.w3.org/2000/svg" width="173.206" height="99.998" viewBox="0 0 100% 100%">
  <style>
    :root {
      --golden: #907A58;
      --darkBlue: #475387;
      --beige: #DFD8CC;
      --teal: #4A9AC4;
      --gray: #A49DA0;
      --smaragd: #406A72;
      --sand: #D3BDA7;
      --grayGreen: #A2D1D6;
      --blueGray: #758390;
      --lightBrown: #AA8858;
      --blue1: #8EC5EE;
      --blue2: #8CC6EA;
      --blue3: #B6DAEC;
      --rust: #D8692D;
      --yellow: #F8C346;
            --black: #443430;
      --red: #BF402B;
      --gold: #CEA600;
      --turquois: #4D9BA3;
      --emerald: #216554;
      --blue: #262F66;
      --white: #FFFAF2;

    }
    .shape-4{fill:var(--black)}
    .shape-2{fill:var(--turquois)}
    .shape-3{fill:var(--white)}
    .shape-1{fill:var(--red)}
    .shape-5{fill:var(--blue2)}
    .shape-6{fill:var(--golden)}
    .shape-7{fill:var(--sand)}
    <!-- .line{stroke:#fff;stroke-width:5px} -->
    .guides{ stroke: #4FFF4F; display: none; fill: none}
  </style>
      <g class="line" id="pattern">
<rect x="0.001" y="-20.004" class="shape-1" width="173.245" height="139.773"/>
	<g>
		<polyline class="shape-2" points="69.284,-30 80.83,-30.002 86.604,-20 80.831,-10 69.281,-10 63.509,-20 69.284,-30 		"/>
		<polyline class="shape-2" points="57.734,-10 69.28,-10.002 75.055,0 69.281,10 57.732,10 51.959,0 57.734,-10 		"/>
		<polyline class="shape-2" points="69.283,10.002 80.829,10 86.604,20.002 80.83,30.002 69.281,30.002 63.508,20.002 69.283,10.002 		
			"/>
		<polyline class="shape-2" points="92.377,10 103.923,9.998 109.697,20 103.924,30 92.375,30 86.602,20 92.377,10 		"/>
		<polyline class="shape-2" points="103.925,-10 115.471,-10.002 121.246,0 115.472,10 103.923,10 98.15,0 103.925,-10 		"/>
		<polyline class="shape-2" points="92.378,-30 103.924,-30.002 109.699,-20 103.925,-10 92.376,-10 86.604,-20 92.378,-30 		"/>
		<polygon class="shape-2" points="69.284,70.001 80.83,69.999 86.604,80.001 80.831,90.002 69.281,90.002 63.509,80.001 		"/>
		<polygon class="shape-2" points="57.734,90.002 69.28,89.999 75.055,100.002 69.281,110.002 57.732,110.002 51.959,100.002 		"/>
		<polygon class="shape-2" points="69.283,110.003 80.829,110.002 86.604,120.003 80.83,130.003 69.281,130.003 63.508,120.003 		"/>
		<polygon class="shape-2" points="92.377,110.002 103.923,109.999 109.697,120.002 103.924,130.002 92.375,130.002 86.602,120.002 		
			"/>
		<polygon class="shape-2" points="103.925,90.002 115.471,89.999 121.246,100.002 115.472,110.002 103.923,110.002 98.15,100.002 		"/>
		<polygon class="shape-2" points="92.378,70.001 103.924,69.999 109.699,80.001 103.925,90.002 92.376,90.002 86.604,80.001 		"/>
		<polygon class="shape-2" points="-17.322,19.998 -5.776,19.996 -0.001,29.998 -5.775,39.998 -17.324,39.998 -23.097,29.998 		"/>
		<polygon class="shape-2" points="-17.322,60 -5.776,59.998 -0.002,70 -5.775,80 -17.325,80 -23.097,70 		"/>
		<polygon class="shape-2" points="5.771,59.998 17.317,59.996 23.092,69.998 17.318,79.998 5.769,79.998 -0.003,69.998 		"/>
		<polygon class="shape-2" points="17.32,39.998 28.866,39.996 34.64,49.998 28.867,59.998 17.317,59.998 11.545,49.998 		"/>
		<polygon class="shape-2" points="5.773,19.998 17.319,19.996 23.093,29.998 17.32,39.998 5.771,39.998 -0.002,29.998 		"/>
		<polygon class="shape-2" points="155.889,20.003 167.435,20.001 173.209,30.003 167.436,40.003 155.886,40.003 150.114,30.003 		"/>
		<polygon class="shape-2" points="144.339,40.003 155.885,40.001 161.66,50.003 155.886,60.003 144.337,60.003 138.564,50.003 		"/>
		<polygon class="shape-2" points="155.888,60.005 167.434,60.003 173.208,70.005 167.435,80.005 155.886,80.005 150.113,70.005 		"/>
		<polygon class="shape-2" points="178.982,60.003 190.527,60.001 196.302,70.003 190.528,80.003 178.979,80.003 173.207,70.003 		"/>
		<polygon class="shape-2" points="190.53,40.003 202.077,40.001 207.851,50.003 202.077,60.003 190.527,60.003 184.756,50.003 		"/>
		<polygon class="shape-2" points="178.983,20.003 190.53,20.001 196.303,30.003 190.53,40.003 178.981,40.003 173.208,30.003 		"/>
	</g>
	<g>
		<polygon class="shape-3" points="46.188,29.999 34.641,50 28.868,40 17.32,40 23.094,30 17.321,20 40.415,20 51.959,0 57.732,10 
			69.283,10.002 63.509,20.003 69.279,29.999 		"/>
		<polygon class="shape-3" points="132.792,-20.001 121.245,0 115.471,-10 103.924,-10 109.698,-20 103.924,-30 127.019,-30 
			138.563,-50 144.335,-40 155.887,-39.998 150.112,-29.997 155.883,-20.001 		"/>
		<polygon class="shape-3" points="92.377,50 103.924,70 92.377,70 86.604,80 80.83,70 69.283,70 80.83,50 69.282,30.002 80.828,30.003 
			86.606,20 92.38,30.001 103.922,30.002 		"/>
		<polygon class="shape-3" points="132.793,20 155.887,20 150.113,30 155.887,40 144.34,40 138.566,50 127.019,30 103.927,30.001 
			109.7,20.003 103.927,9.998 115.475,9.998 121.246,0.003 		"/>
		<polygon class="shape-3" points="46.186,-30.001 69.279,-30.001 63.507,-20.002 69.28,-10.002 57.732,-10.001 51.959,-0.001 
			40.412,-20.002 17.319,-20 23.094,-29.999 17.319,-40.003 28.868,-40.003 34.64,-49.999 		"/>
		<polygon class="shape-3" points="46.188,129.999 34.641,150.001 28.868,140.002 17.32,140.002 23.094,130.001 17.321,120.001 
			40.415,120.001 51.959,100.002 57.732,110.002 69.283,110.003 63.509,120.003 69.279,129.999 		"/>
		<polyline class="shape-3" points="132.792,80 121.245,100.001 115.471,90.002 103.924,90.002 109.698,80 103.924,70 127.019,70 
			138.563,50.001 144.335,60.001 155.887,60.003 150.112,70.004 155.883,80 132.792,80 		"/>
		<polygon class="shape-3" points="132.793,120.002 155.887,120.002 150.113,130.002 155.887,140.002 144.34,140.001 138.566,150.001 
			127.019,130.001 103.927,130.002 109.7,120.003 103.927,109.998 115.475,109.999 121.246,100.003 		"/>
		<polyline class="shape-3" points="46.186,70 69.279,70 63.507,79.999 69.28,89.999 57.732,89.999 51.959,99.999 40.412,79.999 
			17.319,80.001 23.094,70.002 17.319,59.998 28.868,59.998 34.64,50.002 46.186,70 		"/>
		<polygon class="shape-3" points="5.771,99.998 17.318,119.998 5.771,119.998 -0.002,129.998 -5.775,119.998 -17.322,119.998 
			-5.775,99.998 -17.323,80 -5.777,80.001 0.001,69.999 5.774,80 17.316,80 		"/>
		<polygon class="shape-3" points="5.771,-0.002 17.318,19.998 5.772,19.998 -0.001,29.998 -5.775,19.998 -17.322,19.998 -5.774,-0.003 
			-17.322,-20 -5.776,-20 0.001,-30.002 5.775,-20 17.317,-20 		"/>
		<polygon class="shape-3" points="46.188,69.998 69.281,69.998 63.508,79.998 69.281,89.998 57.734,89.998 51.961,99.998 
			40.413,79.998 17.321,80 23.095,70.001 17.321,59.996 28.869,59.996 34.641,50.001 		"/>
		<polygon class="shape-3" points="132.793,80.002 121.246,100.003 115.473,90.003 103.925,90.003 109.699,80.003 103.926,70.003 
			127.02,70.003 138.564,50.003 144.337,60.003 155.888,60.005 150.114,70.006 155.884,80.002 		"/>
		<polygon class="shape-3" points="178.982,100.003 190.528,120.003 178.982,120.003 173.208,130.003 167.435,120.003 155.888,120.003 
			167.435,100.003 155.887,80.006 167.433,80.007 173.211,70.004 178.985,80.005 190.527,80.006 		"/>
		<polygon class="shape-3" points="178.982,0.003 190.528,20.003 178.983,20.003 173.209,30.003 167.435,20.003 155.888,20.003 
			167.436,0.002 155.888,-19.995 167.434,-19.994 173.211,-29.997 178.986,-19.995 190.527,-19.995 		"/>
	</g>
	<g>
		<polygon class="shape-4" points="86.604,-20 80.828,-10 69.281,-10 75.056,0 69.281,10 80.829,10 86.603,20 92.377,10 103.924,10 
			98.15,0 103.924,-10 92.377,-10 		"/>
		<polyline class="shape-4" points="86.604,80.001 80.828,90.002 69.281,90.002 75.056,100.002 69.281,110.002 80.829,110.002 
			86.603,120.002 92.377,110.002 103.924,110.002 98.15,100.002 103.924,90.002 92.377,90.002 86.604,80.001 		"/>
		<polygon class="shape-4" points="-0.001,29.998 -5.777,39.998 -17.324,39.998 -11.55,49.998 -17.324,59.998 -5.776,59.998 
			-0.002,69.999 5.771,59.998 17.319,59.998 11.545,49.998 17.318,39.998 5.772,39.998 		"/>
		<polyline class="shape-4" points="173.209,30.003 167.433,40.003 155.886,40.003 161.661,50.003 155.886,60.003 167.434,60.003 
			173.208,70.004 178.982,60.003 190.53,60.003 184.756,50.003 190.528,40.003 178.982,40.003 173.209,30.003 		"/>
	</g>
      </g>
      <g class="guides">
	<g>
		<line class="st0" x1="86.605" y1="300.004" x2="-115.32" y2="-50.001"/>
		<line class="st0" x1="95.266" y1="295.004" x2="-115.32" y2="-69.871"/>
		<line class="st0" x1="103.926" y1="290.004" x2="-112.583" y2="-85"/>
		<line class="st0" x1="112.586" y1="285.004" x2="-103.923" y2="-90"/>
		<line class="st0" x1="121.246" y1="280.004" x2="-95.263" y2="-95"/>
		<line class="st0" x1="129.907" y1="275.004" x2="-86.603" y2="-100"/>
		<line class="st0" x1="138.567" y1="270.004" x2="-77.942" y2="-105"/>
		<line class="st0" x1="147.228" y1="265.004" x2="-69.282" y2="-110"/>
		<line class="st0" x1="155.888" y1="260.004" x2="-60.622" y2="-115"/>
		<line class="st0" x1="164.548" y1="255.004" x2="-51.962" y2="-120"/>
		<line class="st0" x1="173.208" y1="250.004" x2="-43.301" y2="-125"/>
		<line class="st0" x1="181.868" y1="245.004" x2="-34.641" y2="-130"/>
		<line class="st0" x1="190.527" y1="240.004" x2="-25.98" y2="-135"/>
		<line class="st0" x1="199.188" y1="235.004" x2="-17.32" y2="-140"/>
		<line class="st0" x1="207.848" y1="230.004" x2="-8.66" y2="-145"/>
		<line class="st0" x1="216.511" y1="225.004" x2="0.001" y2="-150"/>
		<line class="st0" x1="225.17" y1="220.004" x2="8.661" y2="-155"/>
		<line class="st0" x1="233.831" y1="215.004" x2="17.321" y2="-160"/>
		<line class="st0" x1="242.49" y1="210.004" x2="25.981" y2="-165"/>
		<line class="st0" x1="251.151" y1="205.004" x2="34.642" y2="-170"/>
		<line class="st0" x1="259.811" y1="200.004" x2="43.302" y2="-175"/>
		<line class="st0" x1="268.472" y1="195.004" x2="51.962" y2="-180"/>
		<line class="st0" x1="277.131" y1="190.004" x2="60.622" y2="-185"/>
		<line class="st0" x1="285.792" y1="185.004" x2="69.282" y2="-190"/>
		<line class="st0" x1="288.675" y1="169.874" x2="77.942" y2="-195"/>
		<line class="st0" x1="288.675" y1="149.999" x2="86.603" y2="-200"/>
	</g>
	<g>
		<line class="st0" x1="288.675" y1="-70.125" x2="77.941" y2="295.002"/>
		<line class="st0" x1="288.675" y1="-50" x2="86.605" y2="300.004"/>
		<line class="st0" x1="285.79" y1="-85.001" x2="69.281" y2="290.002"/>
		<line class="st0" x1="277.13" y1="-90.001" x2="60.621" y2="285.002"/>
		<line class="st0" x1="268.469" y1="-95" x2="51.96" y2="280.002"/>
		<line class="st0" x1="259.81" y1="-100" x2="43.3" y2="275.002"/>
		<line class="st0" x1="251.148" y1="-105" x2="34.64" y2="270.002"/>
		<line class="st0" x1="242.489" y1="-110" x2="25.98" y2="265.002"/>
		<line class="st0" x1="233.828" y1="-115" x2="17.32" y2="260.002"/>
		<line class="st0" x1="225.169" y1="-120" x2="8.66" y2="255.002"/>
		<line class="st0" x1="216.509" y1="-125" x2="0" y2="250.002"/>
		<line class="st0" x1="207.848" y1="-130.001" x2="-8.662" y2="245.002"/>
		<line class="st0" x1="199.188" y1="-135.001" x2="-17.322" y2="240.002"/>
		<line class="st0" x1="190.527" y1="-140.001" x2="-25.982" y2="235.002"/>
		<line class="st0" x1="181.867" y1="-145" x2="-34.642" y2="230.002"/>
		<line class="st0" x1="173.207" y1="-150" x2="-43.302" y2="225.002"/>
		<line class="st0" x1="164.545" y1="-155.001" x2="-51.963" y2="220.002"/>
		<line class="st0" x1="155.885" y1="-160.001" x2="-60.624" y2="215.002"/>
		<line class="st0" x1="147.225" y1="-165.001" x2="-69.284" y2="210.002"/>
		<line class="st0" x1="138.564" y1="-170.001" x2="-77.944" y2="205.002"/>
		<line class="st0" x1="129.904" y1="-175.001" x2="-86.604" y2="200.002"/>
		<line class="st0" x1="121.244" y1="-180.001" x2="-95.264" y2="195.002"/>
		<line class="st0" x1="112.584" y1="-185.001" x2="-103.924" y2="190.002"/>
		<line class="st0" x1="103.923" y1="-190.001" x2="-112.584" y2="185.002"/>
		<line class="st0" x1="95.263" y1="-195" x2="-115.32" y2="169.61"/>
		<line class="st0" x1="86.603" y1="-200" x2="-115.32" y2="149.998"/>
	</g>
	<g>
		<line class="st0" x1="-115.32" y1="-50.001" x2="288.675" y2="-50"/>
		<line class="st0" x1="-115.32" y1="-40.001" x2="288.675" y2="-40"/>
		<line class="st0" x1="-115.32" y1="-30" x2="288.675" y2="-30"/>
		<line class="st0" x1="-115.32" y1="-20" x2="288.675" y2="-20"/>
		<line class="st0" x1="-115.32" y1="-10" x2="288.675" y2="-10"/>
		<line class="st0" x1="-115.32" y1="0" x2="288.675" y2="0"/>
		<line class="st0" x1="-115.32" y1="10" x2="288.675" y2="10"/>
		<line class="st0" x1="-115.32" y1="19.999" x2="288.675" y2="20"/>
		<line class="st0" x1="-115.32" y1="29.999" x2="288.675" y2="30"/>
		<line class="st0" x1="-115.32" y1="40" x2="288.675" y2="40"/>
		<line class="st0" x1="-115.32" y1="50" x2="288.675" y2="50"/>
		<line class="st0" x1="-115.32" y1="60" x2="288.675" y2="60"/>
		<line class="st0" x1="-115.32" y1="70" x2="288.675" y2="70"/>
		<line class="st0" x1="-115.32" y1="80" x2="288.675" y2="79.999"/>
		<line class="st0" x1="-115.32" y1="89.999" x2="288.677" y2="89.998"/>
		<line class="st0" x1="-115.32" y1="99.999" x2="288.677" y2="99.998"/>
		<line class="st0" x1="-115.32" y1="109.999" x2="288.675" y2="109.998"/>
		<line class="st0" x1="-115.32" y1="119.999" x2="288.675" y2="120.001"/>
		<line class="st0" x1="-115.32" y1="129.999" x2="288.675" y2="129.999"/>
		<line class="st0" x1="-115.32" y1="139.999" x2="288.675" y2="139.999"/>
		<line class="st0" x1="-115.32" y1="149.998" x2="288.675" y2="149.999"/>
	</g>
      </g>
</svg>
