<svg xmlns="http://www.w3.org/2000/svg" width="80.8" height="140" viewBox="0 0 80.8 140">
  <style>
    :root { --black: #443430; --red: #BF402B; --gold: #CEA600; --turquois: #4D9BA3; --emerald: #216554; --blue: #262F66; --white: #FFFAF2; } .shape-2{fill:var(--turquois)} .shape-5{fill:var(--white)} .shape-1{fill:var(--black)} .shape-3{fill:var(--red)} .shape-4{fill:var(--white)}
    .guides{ stroke: #4FFF4F; display: none; fill: none}
  </style>
  <g class="line" id="pattern">
    <path class="shape-1" d="M57.7 90l-11.5 6.7V90l-5.8-3.3L52 80h11.5l-5.8 10zm-52 10L0 90l-5.8 10v13.3L0 110l5.8 3.3V100zm11.6-20l5.8 10 11.5 6.7V90l5.8-3.3L29 80H17.3zm63.5 10l-5.7 10v13.3L63.5 120l-5.8 10h11.6l11.5-6.7 5.8 3.4V120l-5.8 3.3-5.7-3.3v-6.7l5.7-3.3 5.8 3.3V100l-5.8-10zm-46.2 20l5.8 10 5.8-10V96.7l-5.8 3.3-5.8-3.3V110zm46.2-60l5.8-10V26.7L80.8 30l-5.7-3.3V40l5.7 10zm-57.7 0l-5.8 10H29l11.5-6.7-5.8-3.3v-6.7l5.8-3.3 5.8 3.3V50l-5.8 3.3L52 60l-.4.6.4-.6h11.5l-5.8-10-11.5-6.7V30l-5.8-10-5.8 10v13.3L23.1 50m0 80l-5.8-10-11.5-6.7v6.7L0 123.3l-5.8-3.3v6.7l5.8-3.4 11.5 6.7h11.6zM57.7 10l5.8 10 11.6 6.7V20l5.7-3.3 5.8 3.3v-6.7l-5.8 3.4L69.3 10H57.7zm-52 30V26.7L17.4 20l5.8-10H11.5L0 16.7l-5.8-3.4V20L0 16.7 5.8 20v6.7L0 30l-5.8-3.3V40L0 50l5.8-10z"/>
    <path class="shape-2" d="M0 50l-5.8 10h-11.5l5.7 10-5.7 10h11.5L0 90l5.8-10h11.5l-5.8-10 5.8-10H5.8zM80.8 50l-5.7 10H63.5l5.8 10-5.8 10h11.6l5.7 10 5.8-10h11.6l-5.8-10 5.7-10H86.6zM40.4-20l-5.8 10H23.1l5.8 10-5.8 10h11.5l5.8 10 5.8-10h11.5L52 0l5.7-10H46.2zM40.4 120l-5.8 10H23.1l5.8 10-5.8 10h11.5l5.8 10 5.8-10h11.5L52 140l5.7-10H46.2z"/>
    <g>
      <path class="shape-3" d="M23.1 110l-5.8 10-11.5-6.7V100h11.5l5.8-10 11.5 6.7V110zM46.2 70L52 80l-11.6 6.7L28.9 80l5.7-10-5.7-10 11.5-6.7L52 60zM23.1 30h11.5v13.3L23.1 50l-5.8-10H5.8V26.7L17.3 20zM63.5 40l-5.8 10-11.5-6.7V30h11.5l5.8-10 11.6 6.7V40zM63.5 100h11.6v13.3L63.5 120l-5.8-10H46.2V96.7L57.7 90zM5.8 0l5.7 10L0 16.7-11.5 10l5.7-10-5.7-10L0-16.7 11.5-10zM86.6 0l5.8 10-11.6 6.7L69.3 10l5.8-10-5.8-10 11.5-6.7L92.4-10zM5.8 140l5.7 10L0 156.7l-11.6-6.7 5.8-10-5.8-10L0 123.3l11.5 6.7zM86.6 140l5.8 10-11.6 6.7-11.5-6.7 5.8-10-5.8-10 11.5-6.7 11.6 6.7z"/>
    </g>
    <g>
      <path class="shape-4" d="M-5.8 26.7V20L0 16.7 5.8 20v6.7L0 30zM34.6 50v-6.7l5.8-3.3 5.8 3.3V50l-5.8 3.3zM34.6 96.7V90l5.8-3.3 5.8 3.3v6.7l-5.8 3.3zM-5.8 120v-6.7L0 110l5.8 3.3v6.7L0 123.3zM75.1 26.7V20l5.7-3.3 5.8 3.3v6.7L80.8 30zM75.1 120v-6.7l5.7-3.3 5.8 3.3v6.7l-5.8 3.3z"/>
      <path class="shape-4" d="M34.6 96.7V90l5.8-3.3 5.8 3.3v6.7l-5.8 3.3z"/>
    </g>
    <g>
      <path class="shape-5" d="M-17.3 40h11.5L0 50l-5.8 10h-11.5l-5.8-10zM-17.3 80h11.5L0 90l-5.8 10h-11.5l-5.8-10zM5.8 80h11.5l5.8 10-5.8 10H5.8L0 90zM17.3 60h11.6l5.7 10-5.7 10H17.3l-5.8-10zM5.8 40h11.5l5.8 10-5.8 10H5.8L0 50zM63.5 40h11.6l5.7 10-5.7 10H63.5l-5.8-10zM52 60h11.5l5.8 10-5.8 10H52l-5.8-10zM63.5 80h11.6l5.7 10-5.7 10H63.5l-5.8-10zM86.6 80h11.5l5.8 10-5.8 10H86.6l-5.8-10zM86.6 40h11.6l5.7 10-5.7 10H86.6l-5.8-10zM11.5-10h11.6l5.8 10-5.8 10H11.5L5.8 0zM23.1 10h11.5l5.8 10-5.8 10H23.1l-5.8-10zM46.2 10h11.5l5.8 10-5.8 10H46.2l-5.8-10zM57.7-10h11.6l5.8 10-5.8 10H57.7L52 0zM23.1 110h11.5l5.8 10-5.8 10H23.1l-5.8-10zM11.5 130h11.6l5.8 10-5.8 10H11.5l-5.7-10zM57.7 130h11.6l5.8 10-5.8 10H57.7L52 140zM46.2 110h11.5l5.8 10-5.8 10H46.2l-5.8-10z"/>
    </g>
  </g>
  <g class="guides">
    <path d="M43.3 245l-153-265M52 240L-101-25M60.6 235l-153-265M69.3 230l-153-265M77.9 225l-153-265M86.6 220l-153-265M95.3 215l-153-265M103.9 210l-153-265M112.6 205l-153-265M121.2 200l-153-265M129.9 195l-153-265M138.6 190l-153-265M147.2 185L-5.8-80M155.9 180L2.9-85M164.5 175L11.5-90M173.2 170L20.2-95M181.9 165l-153-265M190.5 160l-153-265M190.5-20l-153 265M181.9-25l-153 265M173.2-30l-153 265M164.5-35l-153 265M155.9-40L2.9 225M147.2-45l-153 265M138.6-50l-153 265M129.9-55l-153 265M121.2-60l-153 265M112.6-65l-153 265M103.9-70l-153 265M95.3-75l-153 265M86.6-80l-153 265M77.9-85l-153 265M69.3-90l-153 265M60.6-95l-153 265M52-100l-153 265M43.3-105l-153 265M-109.7-20h300.2M-109.7-10h300.2M-109.7 0h300.2M-109.7 10h300.2M-109.7 20h300.2M-109.7 30h300.2M-109.7 40h300.2M-109.7 50h300.2M-109.7 60h300.2M-109.7 70h300.2M-109.7 80h300.2M-109.7 90h300.2M-109.7 100h300.2M-109.7 110h300.2M-109.7 120h300.2M-109.7 130h300.2M-109.7 140h300.2M-109.7 150h300.2M-109.7 160h300.2"/>
  </g>
</svg>
