<svg version="1.1" xmlns="http://www.w3.org/2000/svg" width="80.83" height="140.001" viewBox="0 0 100% 100%">
  <style>
    :root {
      --golden: #907A58;
      --darkBlue: #475387;
      --beige: #DFD8CC;
      --teal: #4A9AC4;
      --gray: #A49DA0;
      --smaragd: #406A72;
      --sand: #D3BDA7;
      --grayGreen: #A2D1D6;
      --blueGray: #758390;
      --lightBrown: #AA8858;
      --blue1: #8EC5EE;
      --blue2: #8CC6EA;
      --blue3: #B6DAEC;
      --rust: #D8692D;
      --yellow: #F8C346;
    }
    .shape-1{fill:var(--sand)}
    .shape-2{fill:var(--darkBlue)}
    .shape-3{fill:var(--teal)}
    .shape-4{fill:var(--grayGreen)}
    .shape-5{fill:var(--golden)}
    .shape-6{fill:var(--golden)}
    .shape-7{fill:var(--blue3)}
    .line{stroke:#fff;stroke-width:3px}
    .guides{ stroke: #4FFF4F; display: none; fill: none}
  </style>
      <g class="line" id="pattern">
			  <rect x="-5.775" y="0.001" class="shape-1" width="92.377" height="140.009"/>
			  <g>
			    <polygon class="shape-2" points="-0.002,50.005 -5.778,60.005 -17.325,60.005 -11.551,70.005 -17.325,80.005 -5.777,80.005 
			      -0.003,90.005 5.771,80.005 17.318,80.005 11.544,70.005 17.317,60.005 5.771,60.005     "/>
			    <polygon class="shape-2" points="80.83,50.004 75.054,60.004 63.507,60.004 69.281,70.004 63.507,80.004 75.055,80.004 80.829,90.005 
			      86.603,80.004 98.15,80.004 92.376,70.004 98.149,60.004 86.603,60.004    "/>
			    <polygon class="shape-2" points="40.416,-20 34.64,-10 23.093,-10 28.867,0 23.093,10 34.641,10 40.415,20.001 46.188,10 57.736,10 
			      51.962,0 57.735,-10 46.189,-10    "/>
			    <polygon class="shape-2" points="40.412,120.01 34.636,130.01 23.089,130.01 28.863,140.01 23.089,150.01 34.637,150.01 
			      40.411,160.011 46.185,150.01 57.732,150.01 51.958,140.01 57.731,130.01 46.185,130.01    "/>
			  </g>
			  <g>
			    <polygon class="shape-3" points="23.093,110.007 17.318,120.007 5.771,113.34 5.771,100.005 17.318,100.005 23.091,90.005 
			      34.639,96.671 34.639,110.006    "/>
			    <polygon class="shape-3" points="46.188,70.005 51.96,80.006 40.413,86.672 28.866,80.005 34.639,70.005 28.865,60.006 40.412,53.338 
			      51.959,60.005     "/>
			    <polygon class="shape-3" points="23.091,30.001 34.64,30.003 34.638,43.336 23.091,50.003 17.318,40.003 5.771,40.005 5.769,26.67 
			      17.318,20.003     "/>
			    <polygon class="shape-3" points="63.509,40.004 57.734,50.004 46.188,43.336 46.188,30.002 57.734,30.002 63.507,20.003 
			      75.055,26.669 75.055,40.002     "/>
			    <polygon class="shape-3" points="63.506,100.007 75.054,100.007 75.053,113.341 63.505,120.01 57.732,110.01 46.186,110.01 
			      46.185,96.675 57.732,90.008     "/>
			    <polygon class="shape-3" points="5.774,0.001 11.547,10.002 0,16.668 -11.548,10.001 -5.775,0.001 -11.548,-9.998 -0.001,-16.666 
			      11.545,-9.999     "/>
			    <polygon class="shape-3" points="86.606,0 92.378,10.002 80.831,16.667 69.284,10 75.057,0.001 69.283,-9.998 80.83,-16.667 
			      92.377,-10    "/>
			    <polygon class="shape-3" points="5.77,140.011 11.543,150.011 -0.004,156.677 -11.552,150.011 -5.779,140.011 -11.552,130.011 
			      -0.005,123.344 11.542,130.011     "/>
			    <polygon class="shape-3" points="86.602,140.01 92.375,150.011 80.827,156.677 69.28,150.01 75.053,140.011 69.279,130.011 
			      80.826,123.344 92.374,130.01    "/>
			  </g>
			  <g>
			    <polygon class="shape-4" points="-5.777,26.67 -5.777,20.004 -0.005,16.67 5.771,20.003 5.771,26.669 -0.003,30.003    "/>
			    <polygon class="shape-4" points="34.638,50.005 34.638,43.339 40.41,40.005 46.185,43.338 46.185,50.004 40.412,53.338     "/>
			    <polygon class="shape-4" points="34.641,96.672 34.641,90.006 40.413,86.672 46.188,90.006 46.188,96.672 40.415,100.005     "/>
			    <polygon class="shape-4" points="-5.776,120.006 -5.776,113.34 -0.004,110.006 5.771,113.34 5.771,120.006 -0.002,123.337    "/>
			    <polygon class="shape-4" points="75.055,26.669 75.055,20.004 80.827,16.669 86.603,20.003 86.603,26.669 80.829,30.002    "/>
			    <polygon class="shape-4" points="75.056,120.006 75.056,113.34 80.828,110.006 86.604,113.34 86.604,120.006 80.83,123.337     "/>
			    <polygon class="shape-4" points="34.638,96.675 34.638,90.009 40.41,86.675 46.185,90.009 46.185,96.675 40.412,100.009    "/>
			  </g>
			  <g>
			    <polygon class="shape-5" points="-17.323,40.005 -5.777,40.003 -0.002,50.005 -5.776,60.005 -17.325,60.005 -23.098,50.005     "/>
			    <polygon class="shape-5" points="-17.323,80.007 -5.777,80.005 -0.003,90.007 -5.776,100.007 -17.326,100.007 -23.098,90.007     "/>
			    <polygon class="shape-5" points="5.771,80.005 17.316,80.003 23.091,90.005 17.317,100.005 5.768,100.005 -0.004,90.005    "/>
			    <polygon class="shape-5" points="17.319,60.005 28.865,60.003 34.639,70.005 28.866,80.005 17.316,80.005 11.544,70.005    "/>
			    <polygon class="shape-5" points="5.772,40.005 17.318,40.003 23.092,50.005 17.319,60.005 5.77,60.005 -0.003,50.005     "/>
			    <polygon class="shape-5" points="63.509,40.004 75.055,40.002 80.83,50.004 75.056,60.004 63.507,60.004 57.734,50.004     "/>
			    <polygon class="shape-5" points="51.96,60.004 63.506,60.002 69.28,70.004 63.507,80.004 51.958,80.004 46.185,70.004    "/>
			    <polygon class="shape-5" points="63.509,80.006 75.055,80.004 80.829,90.006 75.056,100.007 63.506,100.007 57.734,90.006    "/>
			    <polygon class="shape-5" points="86.603,80.004 98.148,80.002 103.923,90.004 98.149,100.005 86.6,100.005 80.828,90.004     "/>
			    <polygon class="shape-5" points="86.604,40.004 98.15,40.002 103.924,50.004 98.151,60.004 86.602,60.004 80.829,50.004    "/>
			    <polygon class="shape-5" points="11.546,-10 23.092,-10.001 28.866,0 23.093,10 11.543,10 5.771,0     "/>
			    <polygon class="shape-5" points="23.095,10.002 34.641,10 40.415,20.002 34.642,30.003 23.092,30.003 17.32,20.002     "/>
			    <polygon class="shape-5" points="46.188,10 57.734,9.999 63.509,20 57.735,30.001 46.186,30.001 40.414,20     "/>
			    <polygon class="shape-5" points="57.737,-10 69.283,-10.001 75.057,0 69.284,10 57.734,10 51.962,0    "/>
			    <polygon class="shape-5" points="23.091,110.01 34.637,110.007 40.412,120.01 34.638,130.01 23.089,130.01 17.316,120.01     "/>
			    <polygon class="shape-5" points="11.542,130.01 23.088,130.007 28.862,140.01 23.089,150.01 11.54,150.01 5.767,140.01     "/>
			    <polygon class="shape-5" points="57.733,130.01 69.279,130.007 75.053,140.01 69.28,150.01 57.73,150.01 51.958,140.01     "/>
			    <polygon class="shape-5" points="46.186,110.01 57.732,110.007 63.506,120.01 57.733,130.01 46.184,130.01 40.411,120.01     "/>
			  </g>
      </g>
      <g class="guides">
  <g>
    <line class="st0" x1="43.302" y1="244.999" x2="-109.696" y2="-20.001"/>
    <line class="st0" x1="51.962" y1="239.999" x2="-101.036" y2="-25.001"/>
    <line class="st0" x1="60.623" y1="234.999" x2="-92.376" y2="-30.001"/>
    <line class="st0" x1="69.283" y1="229.999" x2="-83.716" y2="-35.001"/>
    <line class="st0" x1="77.943" y1="224.999" x2="-75.056" y2="-40.001"/>
    <line class="st0" x1="86.604" y1="219.999" x2="-66.396" y2="-45.001"/>
    <line class="st0" x1="95.264" y1="214.999" x2="-57.735" y2="-50.001"/>
    <line class="st0" x1="103.924" y1="209.999" x2="-49.074" y2="-55.001"/>
    <line class="st0" x1="112.584" y1="204.999" x2="-40.414" y2="-60.001"/>
    <line class="st0" x1="121.244" y1="199.999" x2="-31.754" y2="-65.001"/>
    <line class="st0" x1="129.904" y1="194.999" x2="-23.094" y2="-70.001"/>
    <line class="st0" x1="138.564" y1="189.999" x2="-14.434" y2="-75.001"/>
    <line class="st0" x1="147.226" y1="184.999" x2="-5.772" y2="-80.001"/>
    <line class="st0" x1="155.886" y1="179.999" x2="2.888" y2="-85.001"/>
    <line class="st0" x1="164.547" y1="174.999" x2="11.548" y2="-90.001"/>
    <line class="st0" x1="173.206" y1="169.999" x2="20.208" y2="-95.001"/>
    <line class="st0" x1="181.866" y1="164.999" x2="28.868" y2="-100.001"/>
    <line class="st0" x1="190.527" y1="159.999" x2="37.528" y2="-105.001"/>
  </g>
  <g>
    <line class="st0" x1="190.527" y1="-20" x2="37.529" y2="244.999"/>
    <line class="st0" x1="181.868" y1="-25" x2="28.869" y2="239.999"/>
    <line class="st0" x1="173.207" y1="-30" x2="20.208" y2="234.999"/>
    <line class="st0" x1="164.548" y1="-35" x2="11.548" y2="229.999"/>
    <line class="st0" x1="155.887" y1="-40" x2="2.888" y2="224.999"/>
    <line class="st0" x1="147.227" y1="-45" x2="-5.772" y2="219.999"/>
    <line class="st0" x1="138.567" y1="-50.001" x2="-14.433" y2="214.999"/>
    <line class="st0" x1="129.907" y1="-55.001" x2="-23.093" y2="209.999"/>
    <line class="st0" x1="121.247" y1="-60.001" x2="-31.753" y2="204.999"/>
    <line class="st0" x1="112.586" y1="-65" x2="-40.414" y2="199.999"/>
    <line class="st0" x1="103.926" y1="-70" x2="-49.074" y2="194.999"/>
    <line class="st0" x1="95.264" y1="-75.001" x2="-57.735" y2="189.998"/>
    <line class="st0" x1="86.604" y1="-80.001" x2="-66.395" y2="184.999"/>
    <line class="st0" x1="77.943" y1="-85.001" x2="-75.055" y2="179.999"/>
    <line class="st0" x1="69.283" y1="-90.001" x2="-83.715" y2="174.999"/>
    <line class="st0" x1="60.623" y1="-95.001" x2="-92.375" y2="169.999"/>
    <line class="st0" x1="51.963" y1="-100.001" x2="-101.036" y2="164.999"/>
    <line class="st0" x1="43.303" y1="-105.001" x2="-109.696" y2="159.999"/>
  </g>
  <g>
    <line class="st0" x1="-109.696" y1="-20.001" x2="190.527" y2="-20"/>
    <line class="st0" x1="-109.696" y1="-10" x2="190.527" y2="-10"/>
    <line class="st0" x1="-109.696" y1="0" x2="190.527" y2="0"/>
    <line class="st0" x1="-109.696" y1="10" x2="190.527" y2="10"/>
    <line class="st0" x1="-109.696" y1="20" x2="190.527" y2="20"/>
    <line class="st0" x1="-109.696" y1="30" x2="190.527" y2="30"/>
    <line class="st0" x1="-109.696" y1="39.999" x2="190.527" y2="40"/>
    <line class="st0" x1="-109.696" y1="49.999" x2="190.527" y2="50"/>
    <line class="st0" x1="-109.696" y1="60" x2="190.527" y2="60"/>
    <line class="st0" x1="-109.696" y1="70" x2="190.527" y2="70"/>
    <line class="st0" x1="-109.696" y1="80" x2="190.527" y2="80"/>
    <line class="st0" x1="-109.696" y1="90" x2="190.527" y2="90"/>
    <line class="st0" x1="-109.696" y1="100" x2="190.527" y2="99.999"/>
    <line class="st0" x1="-109.696" y1="109.999" x2="190.528" y2="109.998"/>
    <line class="st0" x1="-109.696" y1="119.999" x2="190.528" y2="119.998"/>
    <line class="st0" x1="-109.696" y1="129.999" x2="190.527" y2="129.998"/>
    <line class="st0" x1="-109.696" y1="139.999" x2="190.527" y2="140.001"/>
    <line class="st0" x1="-109.696" y1="149.999" x2="190.527" y2="149.999"/>
    <line class="st0" x1="-109.696" y1="159.999" x2="190.527" y2="159.999"/>
  </g>
      </g>
</svg>
