<svg xmlns="http://www.w3.org/2000/svg" width="368.1" height="368.1" viewBox="0 0 368.1 368.1">
  <style>
    :root { --black: #443430; --red: #BF402B; --gold: #CEA600; --turquois: #4D9BA3; --emerald: #216554; --blue: #262F66; --white: #FFFAF2; } .shape-2{fill:var(--red)} .shape-1{fill:var(--white)} .shape-3{fill:var(--black)} .shape-4{fill:var(--turquois)} .guides{ stroke: #4FFF4F; display: none; fill: none}
  </style>
  <g class="line" id="pattern">
    <path class="shape-1" d="M86.8 33.7L67.4 0l19.4-33.7h38.9L145.1 0l-19.4 33.7H86.8zm155.6 300.7L222.9 368l19.5 33.7h38.9l19.4-33.7-19.4-33.7h-39zM33.7 58.4L0 38.8l-33.7 19.4v39L0 116.6l33.7-19.5V58.3zm24.6 92L39 184l19.4 33.7h39l19.4-33.7-19.5-33.6H58.3zm159.4 92L184 222.9l-33.6 19.5v38.9l33.6 19.4 33.7-19.4v-39zM67.4 368l19.4 33.7h38.9l19.4-33.7-19.4-33.7H86.8l-19.4 33.7zM0 251.4l-33.6 19.4v39L0 329.1l33.7-19.5v-38.9L0 251.4zM300.7 0l-19.4-33.7h-39L223 0l19.5 33.7h38.9L300.7 0zm67.4 116.7l33.6-19.5V58.3L368.1 39l-33.7 19.4v39l33.7 19.4zm-58.4 33.7h-38.9L251.4 184l19.4 33.7h39l19.4-33.7-19.5-33.6zm92 159.3v-38.9L368 251.4l-33.6 19.4v39l33.7 19.4 33.6-19.5zm-184-222.9L184 67.4l-33.6 19.4v38.9l33.6 19.4 33.7-19.4V86.8z"/>
    <path class="shape-2" d="M217.7 203.5l33.7-19.5-33.7-19.4v-38.9L184 145.1l-33.6-19.4v38.9L116.7 184l33.7 19.5v38.9l33.6-19.5 33.7 19.5zM33.7 19.4L67.4 0 33.7-19.4v-38.9L0-38.9l-33.7-19.4v38.9L-67.4 0l33.7 19.4v38.9L0 38.9l33.7 19.4zM401.7 387.5l33.7-19.4-33.7-19.5v-38.9l-33.6 19.5-33.7-19.5v38.9l-33.7 19.5 33.7 19.4v38.9l33.7-19.4 33.6 19.4zM33.7 387.5l33.7-19.4-33.7-19.5v-38.9L0 329.2l-33.7-19.5v38.9l-33.7 19.5 33.7 19.4v38.9L0 407l33.7 19.4zM401.8 19.4L435.4 0l-33.6-19.4v-38.9l-33.7 19.4-33.7-19.4v38.9L300.7 0l33.7 19.4v38.9l33.7-19.4 33.7 19.4zM203.5 334.4L184 300.7l-19.4 33.7h-38.9l19.4 33.7-19.4 33.7h38.9l19.4 33.6 19.5-33.6h38.9l-19.5-33.7 19.5-33.7zM203.5-33.7L184-67.4l-19.4 33.7h-38.9L145.1 0l-19.4 33.7h38.9L184 67.4l19.5-33.7h38.9L222.9 0l19.5-33.7zM19.4 150.4L0 116.7l-19.4 33.7h-38.9l19.4 33.6-19.4 33.7h38.9L0 251.4l19.4-33.7h38.9L38.9 184l19.4-33.6zM387.5 150.4l-19.4-33.7-19.5 33.7h-38.9l19.5 33.6-19.5 33.7h38.9l19.5 33.7 19.4-33.7h38.9L407 184l19.4-33.6z"/>
    <g>
      <path class="shape-3" d="M256.6 125.7h-38.9V86.8L184 67.4l19.6-33.7h38.8v38.9L276 92zM348.6 150.4h-38.9v-38.9L276 92l19.6-33.7h38.8v38.9l33.7 19.5zM-19.4 150.4h-38.9v-38.9L-92 92l19.5-33.7h38.8v38.9L0 116.7zM72.6 309.7H33.7v-38.9L0 251.4l19.5-33.7h38.8v38.9L92 276zM440.6 309.7h-38.9v-38.9L368 251.4l19.5-33.7h38.8v38.9L460 276zM164.6 334.4h-38.9v-38.9L92 276.1l19.6-33.7h38.8v38.9l33.6 19.4zM334.4 348.6v-38.9h-38.9L276 276.1l-33.6 19.5v38.8h38.9l19.4 33.7zM309.7 256.6v-38.9h-38.9L251.4 184l-33.7 19.6v38.8h38.9l19.4 33.7zM125.7 440.6v-38.8H86.8l-19.4-33.7-33.7 19.5v38.8h38.9L92 460.1zM150.4 164.6v-38.9h-38.9L92 92l-33.7 19.6v38.8h38.9l19.5 33.6zM334.4-19.4v-38.9h-38.9L276.1-92l-33.7 19.5v38.8h38.9L300.7 0zM125.7 72.6V33.7H86.8L67.4 0 33.7 19.5v38.8h38.9L92 92z"/>
    </g>
    <g>
      <path class="shape-4" d="M217.7 164.6v-38.9h38.9L276 92l33.7 19.6v38.8h-38.9L251.4 184zM33.7-19.4v-38.9h38.9L92-92l33.7 19.5v38.8H86.8L67.4 0zM242.4 72.6V33.7h38.9L300.7 0l33.7 19.5v38.8h-38.9L276 92zM33.7 348.6v-38.9h38.9L92 276.1l33.7 19.5v38.8H86.8l-19.4 33.7zM58.3 256.6v-38.9h38.9l19.5-33.7 33.7 19.6v38.8h-38.9L92 276.1zM242.4 440.6v-38.8h38.9l19.4-33.7 33.7 19.5v38.8h-38.9L276 460.1zM295.5 309.7h38.9v-38.9l33.7-19.4-19.6-33.7h-38.8v38.9L276 276zM-72.5 309.7h38.9v-38.9L.1 251.4l-19.5-33.7h-38.8v38.9L-91.9 276zM203.5 334.4h38.9v-38.9l33.6-19.4-19.5-33.7h-38.8v38.9L184 300.7zM111.5 125.7h38.9V86.8L184 67.4l-19.5-33.7h-38.8v38.9L92 92zM19.4 150.4h38.9v-38.9L92 92 72.5 58.3H33.7v38.9L0 116.7zM387.5 150.4h38.9v-38.9L460.1 92l-19.5-33.7h-38.8v38.9l-33.7 19.5z"/>
    </g>
  </g>
  <g class="guides">
    <path d="M184-67.4v502.8M0 184h368.1M.5 78.1l367.6 212.1M0 290.2L368.1 77.7M261.9 367.8l106.2-183.9L261.9 0M106.2 367.7L0 183.8 106.2-.1M150.4 125.7L184 67.4l33.7 58.3"/>
    <path d="M309.7 150.4L184 368.1 58.3 150.4"/>
    <path d="M368.1 116.7L184 435.4 0 116.5"/>
    <path d="M0 251.4L184-67.4l184.1 318.8"/>
    <path d="M58.3 217.7L184 0l125.7 217.7M217.7 242.4L184 300.7l-33.6-58.3"/>
    <path d="M150.4 242.4L116.7 184l33.7-58.3h67.3l33.7 58.3-33.7 58.4z"/>
    <path d="M368.1 329.2L0 116.5 67.4-.1V0l150.3 86.8v194.5L67.4 368.1v-.4L0 251.4 368.1 38.9"/>
    <path d="M150.4 125.7L368.1 0H0l217.7 125.7M150.4 242.4l217.7 125.7H0l217.7-125.7"/>
    <path d="M0 329.2l368.1-212.5L300.7 0 150.4 86.8v195.3l150.3 86v-.3l67.4-116.4L0 38.9M0 0v368.1M368.1 0v368.1"/>
  </g>
</svg>
