<svg version="1.1" xmlns="http://www.w3.org/2000/svg" width="368.065" height="368.068" viewBox="0 0 100% 100%">
  <style>
    :root {
      --black: #443430;
      --red: #BF402B;
      --gold: #CEA600;
      --turquois: #4D9BA3;
      --emerald: #216554;
      --blue: #262F66;
      --white: #FFFAF2;
    }
    .shape-2{fill:var(--red)}
    .shape-1{fill:var(--white)}
    .shape-3{fill:var(--black)}
    .shape-4{fill:var(--turquois)}
    <!-- .line{stroke:#fff;stroke-width:10px} -->
    .guides{ stroke: #4FFF4F; display: none; fill: none}
  </style>
      <g class="line" id="pattern">
  <rect x="-33.68" y="-33.677" class="shape-1" width="435.425" height="435.428"/>
  <g>
    <polygon class="shape-2" points="217.715,203.482 251.398,184.036 217.715,164.589 217.715,125.698 184.035,145.142 150.355,125.698 
      150.355,164.589 116.672,184.036 150.355,203.482 150.355,242.37 184.035,222.927 217.715,242.37     "/>
    <polygon class="shape-2" points="33.678,19.444 67.362,-0.002 33.678,-19.45 33.678,-58.341 -0.001,-38.897 -33.681,-58.341 
      -33.681,-19.45 -67.365,-0.002 -33.681,19.444 -33.681,58.332 -0.001,38.889 33.678,58.332     "/>
    <polygon class="shape-2" points="401.745,387.517 435.429,368.071 401.745,348.623 401.745,309.731 368.065,329.177 334.386,309.731 
      334.386,348.623 300.702,368.071 334.386,387.517 334.386,426.405 368.065,406.961 401.745,426.405     "/>
    <polygon class="shape-2" points="33.68,387.52 67.363,368.073 33.68,348.627 33.68,309.735 0,329.179 -33.68,309.735 -33.68,348.627 
      -67.363,368.073 -33.68,387.52 -33.68,426.407 0,406.965 33.68,426.407    "/>
    <polygon class="shape-2" points="401.751,19.446 435.435,0 401.751,-19.447 401.751,-58.339 368.071,-38.895 334.391,-58.339 
      334.391,-19.447 300.707,0 334.391,19.446 334.391,58.334 368.071,38.891 401.751,58.334     "/>
    <polygon class="shape-2" points="203.482,334.391 184.035,300.707 164.588,334.391 125.697,334.391 145.141,368.071 125.697,401.751 
      164.588,401.751 184.035,435.435 203.482,401.751 242.369,401.751 222.926,368.071 242.369,334.391     "/>
    <polygon class="shape-2" points="203.482,-33.682 184.035,-67.365 164.588,-33.682 125.697,-33.682 145.141,-0.002 125.697,33.678 
      164.588,33.678 184.035,67.361 203.482,33.678 242.369,33.678 222.926,-0.002 242.369,-33.682    "/>
    <polygon class="shape-2" points="19.449,150.356 0.001,116.673 -19.446,150.356 -58.336,150.356 -38.893,184.036 -58.336,217.715 
      -19.446,217.715 0.001,251.398 19.449,217.715 58.335,217.715 38.892,184.036 58.335,150.356     "/>
    <polygon class="shape-2" points="387.52,150.356 368.073,116.673 348.626,150.356 309.735,150.356 329.178,184.036 309.735,217.715 
      348.626,217.715 368.073,251.398 387.52,217.715 426.406,217.715 406.964,184.036 426.406,150.356    "/>
  </g>
  <g>
    <polygon class="shape-3" points="256.602,125.695 217.708,125.698 217.708,86.808 184.03,67.361 203.568,33.677 242.372,33.677 
      242.372,72.568 276.049,92.011     "/>
    <polygon class="shape-3" points="348.622,150.352 309.728,150.354 309.728,111.464 276.049,92.018 295.586,58.334 334.391,58.334 
      334.391,97.225 368.068,116.668    "/>
    <polygon class="shape-3" points="-19.446,150.356 -58.34,150.359 -58.34,111.469 -92.018,92.022 -72.481,58.339 -33.676,58.339 
      -33.676,97.229 0.001,116.673    "/>
    <polygon class="shape-3" points="72.574,309.731 33.68,309.735 33.68,270.844 0.002,251.397 19.54,217.715 58.344,217.715 
      58.344,256.605 92.021,276.048     "/>
    <polygon class="shape-3" points="440.554,309.732 401.66,309.735 401.66,270.845 367.982,251.398 387.52,217.715 426.323,217.715 
      426.323,256.606 460.002,276.049     "/>
    <polygon class="shape-3" points="164.594,334.39 125.699,334.391 125.699,295.502 92.021,276.056 111.559,242.372 150.363,242.372 
      150.363,281.263 184.041,300.706     "/>
    <polygon class="shape-3" points="334.384,348.626 334.386,309.731 295.497,309.731 276.049,276.056 242.366,295.593 242.366,334.397 
      281.256,334.397 300.7,368.073     "/>
    <polygon class="shape-3" points="309.732,256.607 309.735,217.714 270.845,217.714 251.398,184.036 217.715,203.573 217.715,242.377 
      256.605,242.377 276.049,276.056     "/>
    <polygon class="shape-3" points="125.698,440.646 125.7,401.751 86.81,401.751 67.363,368.073 33.68,387.611 33.68,426.415 
      72.57,426.415 92.014,460.093    "/>
    <polygon class="shape-3" points="150.355,164.589 150.358,125.695 111.469,125.695 92.021,92.019 58.338,111.556 58.338,150.36 
      97.229,150.36 116.672,184.036     "/>
    <polygon class="shape-3" points="334.391,-19.447 334.394,-58.341 295.505,-58.341 276.057,-92.018 242.374,-72.48 242.374,-33.676 
      281.264,-33.676 300.707,0     "/>
    <polygon class="shape-3" points="125.705,72.571 125.707,33.677 86.817,33.677 67.371,0 33.687,19.537 33.687,58.341 72.578,58.341 
      92.021,92.019     "/>
  </g>
  <g>
    <polygon class="shape-4" points="217.715,164.589 217.712,125.695 256.602,125.695 276.049,92.018 309.731,111.555 309.731,150.359 
      270.842,150.359 251.398,184.036     "/>
    <polygon class="shape-4" points="33.687,-19.448 33.684,-58.342 72.574,-58.342 92.021,-92.019 125.704,-72.481 125.704,-33.677 
      86.814,-33.677 67.371,0     "/>
    <polygon class="shape-4" points="242.366,72.57 242.363,33.676 281.253,33.676 300.7,-0.001 334.384,19.537 334.384,58.341 
      295.493,58.341 276.049,92.018     "/>
    <polygon class="shape-4" points="33.687,348.626 33.684,309.731 72.574,309.731 92.021,276.056 125.704,295.593 125.704,334.397 
      86.814,334.397 67.371,368.073     "/>
    <polygon class="shape-4" points="58.338,256.607 58.335,217.714 97.225,217.714 116.672,184.036 150.355,203.573 150.355,242.377 
      111.465,242.377 92.021,276.056    "/>
    <polygon class="shape-4" points="242.366,440.646 242.363,401.751 281.253,401.751 300.7,368.073 334.384,387.61 334.384,426.415 
      295.493,426.415 276.049,460.093     "/>
    <polygon class="shape-4" points="295.497,309.731 334.391,309.735 334.391,270.844 368.068,251.397 348.53,217.715 309.728,217.715 
      309.728,256.605 276.049,276.048     "/>
    <polygon class="shape-4" points="-72.479,309.732 -33.584,309.735 -33.584,270.845 0.092,251.398 -19.446,217.715 -58.249,217.715 
      -58.249,256.606 -91.927,276.049     "/>
    <polygon class="shape-4" points="203.477,334.39 242.371,334.391 242.371,295.502 276.049,276.056 256.512,242.372 217.707,242.372 
      217.707,281.263 184.029,300.706     "/>
    <polygon class="shape-4" points="111.469,125.695 150.363,125.698 150.363,86.808 184.04,67.361 164.502,33.678 125.699,33.678 
      125.699,72.568 92.021,92.012    "/>
    <polygon class="shape-4" points="19.449,150.353 58.343,150.354 58.343,111.465 92.021,92.019 72.484,58.335 33.679,58.335 
      33.679,97.226 0.001,116.669     "/>
    <polygon class="shape-4" points="387.52,150.356 426.415,150.358 426.415,111.469 460.093,92.022 440.556,58.339 401.751,58.339 
      401.751,97.229 368.073,116.673    "/>
  </g>
      </g>
      <g class="guides">
  <line class="st0" x1="184.035" y1="-67.361" x2="184.035" y2="435.435"/>
  <line class="st0" x1="0" y1="184.033" x2="368.073" y2="184.033"/>
  <line class="st0" x1="0.516" y1="78.081" x2="368.065" y2="290.161"/>
  <line class="st0" x1="0" y1="290.163" x2="368.064" y2="77.659"/>
  <polyline class="st0" points="261.896,367.818 368.073,183.907 261.896,-0.004  "/>
  <polyline class="st0" points="106.178,367.693 0,183.783 106.178,-0.129  "/>
  <polyline class="st0" points="150.355,125.698 184.035,67.361 217.715,125.698  "/>
  <polyline class="st0" points="309.731,150.359 184.035,368.074 58.335,150.359  "/>
  <polyline class="st0" points="368.068,116.668 184.035,435.429 0.004,116.543   "/>
  <polyline class="st0" points="0.001,251.398 184.035,-67.361 368.073,251.398   "/>
  <polyline class="st0" points="58.335,217.716 184.035,-0.004 309.731,217.716   "/>
  <polyline class="st0" points="217.715,242.37 184.035,300.707 150.355,242.37   "/>
  <polygon class="st0" points="150.355,242.37 116.672,184.036 150.355,125.698 217.715,125.698 251.398,184.036 217.715,242.37  "/>
  <polyline class="st0" points="368.071,329.182 0.004,116.543 67.365,-0.125 67.357,0 217.712,86.805 217.712,281.261 
    67.357,368.067 67.365,367.689 0.001,251.398 368.071,38.891  "/>
  <polyline class="st0" points="150.355,125.698 368.065,0 0,0 217.715,125.698   "/>
  <polyline class="st0" points="150.355,242.37 368.065,368.068 0,368.068 217.715,242.37   "/>
  <polyline class="st0" points="0,329.179 368.068,116.668 300.707,0 150.355,86.805 150.355,87.619 150.355,282.075 
    300.707,368.067 300.707,367.814 368.073,251.398 0.001,38.889  "/>
  <line class="st0" x1="0" y1="0" x2="0" y2="368.068"/>
  <line class="st0" x1="368.065" y1="0" x2="368.065" y2="368.068"/>

      </g>
</svg>
