<svg version="1.1" xmlns="http://www.w3.org/2000/svg" width="608.74" height="608.77">
  <style>
    :root {
      --black: #443430;
      --red: #BF402B;
      --gold: #CEA600;
      --turquois: #4D9BA3;
      --emerald: #216554;
      --blue: #262F66;
      --white: #FFFAF2;
    }
    .shape-2{fill:var(--turquois)}
    .shape-6{fill:var(--white)}
    .shape-5{fill:var(--red)}
    .shape-3{fill:var(--white)}
    .shape-1{fill:var(--black)}
    .shape-4{fill:var(--white)}
    .shape-7{fill:var(--blue3)}
    <!-- .line{stroke:#fff;stroke-width:13px; stroke-miterlimit: 1} -->
    .guides{ stroke: #4FFF4F; display: none; fill: none}
  </style>
      <g class="line" id="pattern">
  <rect x="-1.823" y="-0.107" class="shape-1" width="610" height="600"/>
  <g>
    <polygon class="shape-2" points="-0.031,-64.326 -18.6,-32.164 -55.737,-32.164 -37.168,-0.001 -55.737,32.161 -18.6,32.161 
      -0.031,64.323 18.538,32.161 55.676,32.161 37.107,-0.001 55.676,-32.164 18.538,-32.164     "/>
    <polygon class="shape-2" points="608.74,-64.326 590.171,-32.164 553.033,-32.164 571.602,-0.001 553.033,32.161 590.171,32.161 
      608.74,64.323 627.308,32.161 664.447,32.161 645.877,-0.001 664.447,-32.164 627.308,-32.164    "/>
    <polygon class="shape-2" points="304.355,240.058 285.786,272.221 248.648,272.221 267.216,304.383 248.648,336.545 285.786,336.545 
      304.355,368.708 322.923,336.545 360.061,336.545 341.492,304.383 360.061,272.221 322.923,272.221     "/>
    <polygon class="shape-2" points="240.03,-0.002 272.192,18.567 272.192,55.705 304.354,37.136 336.516,55.705 336.516,18.567 
      368.679,-0.002 336.516,-18.571 336.516,-55.708 304.355,-37.14 272.192,-55.708 272.192,-18.57    "/>
    <polygon class="shape-2" points="-0.031,544.445 -18.6,576.608 -55.737,576.608 -37.168,608.77 -55.737,640.932 -18.6,640.932 
      -0.031,673.094 18.538,640.932 55.676,640.932 37.107,608.77 55.676,576.608 18.538,576.608    "/>
    <polygon class="shape-2" points="608.74,544.445 590.171,576.608 553.033,576.608 571.602,608.77 553.033,640.932 590.171,640.932 
      608.74,673.094 627.308,640.932 664.447,640.932 645.877,608.77 664.447,576.608 627.308,576.608     "/>
    <polygon class="shape-2" points="240.03,608.769 272.192,627.338 272.192,664.475 304.354,645.907 336.516,664.475 336.516,627.338 
      368.679,608.769 336.516,590.2 336.516,553.063 304.355,571.631 272.192,553.063 272.192,590.201     "/>
    <polygon class="shape-2" points="-64.355,304.384 -32.193,322.954 -32.193,360.09 -0.031,341.522 32.131,360.09 32.131,322.954 
      64.294,304.384 32.131,285.815 32.131,248.678 -0.03,267.247 -32.193,248.678 -32.193,285.816    "/>
    <polygon class="shape-2" points="544.415,304.382 576.577,322.952 576.577,360.088 608.739,341.52 640.901,360.088 640.901,322.952 
      673.064,304.382 640.901,285.813 640.901,248.676 608.74,267.245 576.577,248.676 576.577,285.814    "/>
  </g>
  <g>
    <polygon class="shape-6" points="-18.6,32.161 -55.737,32.161 -74.306,64.323 -55.737,96.485 -18.6,96.485 -0.031,64.323     "/>
    <polygon class="shape-6" points="18.538,32.161 -0.031,64.323 18.538,96.485 55.676,96.485 74.245,64.323 55.676,32.161    "/>
    <polygon class="shape-6" points="92.813,-32.164 55.676,-32.164 37.107,-0.001 55.676,32.161 92.814,32.161 111.382,-0.001     "/>
    <polygon class="shape-6" points="571.602,-0.001 553.033,-32.164 515.896,-32.164 497.327,-0.002 515.896,32.161 553.033,32.161    "/>
    <polygon class="shape-6" points="590.171,32.161 553.033,32.161 534.464,64.323 553.033,96.485 590.171,96.485 608.74,64.323     "/>
    <polygon class="shape-6" points="627.308,32.161 608.74,64.323 627.308,96.485 664.447,96.485 683.015,64.323 664.447,32.161     "/>
    <polygon class="shape-6" points="304.355,240.058 285.787,207.897 248.648,207.897 230.08,240.058 248.648,272.221 285.786,272.221     
      "/>
    <polygon class="shape-6" points="267.216,304.383 248.648,272.221 211.51,272.221 192.941,304.382 211.511,336.545 248.648,336.545     
      "/>
    <polygon class="shape-6" points="285.786,336.545 248.648,336.545 230.08,368.708 248.648,400.87 285.786,400.87 304.355,368.708     
      "/>
    <polygon class="shape-6" points="322.923,336.545 304.355,368.708 322.923,400.87 360.061,400.87 378.63,368.708 360.061,336.545     
      "/>
    <polygon class="shape-6" points="397.199,272.221 360.061,272.221 341.492,304.383 360.061,336.545 397.199,336.545 415.767,304.383 
          "/>
    <polygon class="shape-6" points="322.923,272.221 360.061,272.221 378.629,240.059 360.061,207.897 322.923,207.897 304.354,240.059 
          "/>
    <polygon class="shape-6" points="240.03,-0.002 207.868,18.566 207.868,55.705 240.03,74.274 272.192,55.705 272.192,18.567    "/>
    <polygon class="shape-6" points="304.354,37.136 272.192,55.705 272.192,92.842 304.354,111.411 336.516,92.842 336.516,55.705     "/>
    <polygon class="shape-6" points="336.516,18.567 336.516,55.705 368.678,74.274 400.84,55.705 400.84,18.567 368.679,-0.002    "/>
    <polygon class="shape-6" points="336.516,-18.571 368.679,-0.002 400.84,-18.571 400.84,-55.708 368.679,-74.277 336.516,-55.708     
      "/>
    <polygon class="shape-6" points="272.192,-18.57 272.192,-55.708 240.031,-74.277 207.868,-55.708 207.868,-18.57 240.031,-0.001     
      "/>
    <polygon class="shape-6" points="-0.031,544.445 -18.599,512.284 -55.737,512.284 -74.306,544.445 -55.737,576.608 -18.6,576.608     
      "/>
    <polygon class="shape-6" points="92.813,576.608 55.676,576.608 37.107,608.77 55.676,640.932 92.814,640.932 111.382,608.77     "/>
    <polygon class="shape-6" points="18.538,576.608 55.676,576.608 74.244,544.446 55.676,512.284 18.538,512.284 -0.031,544.446    "/>
    <polygon class="shape-6" points="608.74,544.445 590.171,512.284 553.033,512.284 534.464,544.445 553.033,576.608 590.171,576.608     
      "/>
    <polygon class="shape-6" points="571.602,608.77 553.033,576.608 515.896,576.608 497.327,608.769 515.896,640.932 553.033,640.932     
      "/>
    <polygon class="shape-6" points="627.308,576.608 664.447,576.608 683.015,544.446 664.447,512.284 627.308,512.284 608.74,544.446     
      "/>
    <polygon class="shape-6" points="240.03,608.769 207.868,627.337 207.868,664.475 240.03,683.045 272.192,664.475 272.192,627.338    
      "/>
    <polygon class="shape-6" points="336.516,627.338 336.516,664.475 368.678,683.045 400.84,664.475 400.84,627.338 368.679,608.769    
      "/>
    <polygon class="shape-6" points="336.516,590.2 368.679,608.769 400.84,590.2 400.84,553.063 368.679,534.494 336.516,553.063    "/>
    <polygon class="shape-6" points="272.192,515.925 272.192,553.063 304.355,571.631 336.516,553.063 336.516,515.924 304.355,497.356 
          "/>
    <polygon class="shape-6" points="272.192,590.201 272.192,553.063 240.031,534.495 207.868,553.063 207.868,590.201 240.031,608.77     
      "/>
    <polygon class="shape-6" points="-0.031,341.522 -32.193,360.09 -32.193,397.229 -0.031,415.797 32.131,397.229 32.131,360.09    "/>
    <polygon class="shape-6" points="32.131,322.954 32.131,360.09 64.293,378.661 96.455,360.09 96.455,322.954 64.294,304.384    "/>
    <polygon class="shape-6" points="32.131,285.815 64.294,304.384 96.455,285.815 96.455,248.678 64.294,230.109 32.131,248.678    "/>
    <polygon class="shape-6" points="-32.193,211.541 -32.193,248.678 -0.03,267.247 32.131,248.678 32.131,211.54 -0.03,192.971     "/>
    <polygon class="shape-6" points="544.415,304.382 512.252,322.951 512.252,360.088 544.415,378.659 576.577,360.088 576.577,322.952 
          "/>
    <polygon class="shape-6" points="608.739,341.52 576.577,360.088 576.577,397.227 608.739,415.795 640.901,397.227 640.901,360.088     
      "/>
    <polygon class="shape-6" points="576.577,211.539 576.577,248.676 608.74,267.245 640.901,248.676 640.901,211.538 608.74,192.969    
      "/>
    <polygon class="shape-6" points="576.577,285.814 576.577,248.676 544.416,230.108 512.252,248.676 512.252,285.814 544.416,304.383 
          "/>
  </g>
  <g>
    <polygon class="shape-3" points="-55.737,96.485 -167.15,96.485 -0.031,192.971 -55.737,96.485    "/>
    <polygon class="shape-3" points="553.033,96.485 441.621,96.485 608.74,192.971 553.033,96.485    "/>
    <polygon class="shape-3" points="471.474,207.897 304.355,111.41 360.061,207.897     "/>
    <polygon class="shape-3" points="248.648,400.87 137.235,400.87 304.355,497.356 248.648,400.87     "/>
    <polygon class="shape-3" points="207.868,55.705 207.868,55.705 111.381,-0.002 207.868,167.118 207.868,55.705    "/>
    <polygon class="shape-3" points="497.327,-0.002 400.84,-167.121 400.84,-55.708    "/>
    <polygon class="shape-3" points="167.089,512.284 -0.031,415.796 55.676,512.284    "/>
    <polygon class="shape-3" points="775.86,512.284 608.74,415.796 664.447,512.284    "/>
    <polygon class="shape-3" points="207.868,664.475 207.868,664.475 111.381,608.769 207.868,775.889 207.868,664.476    "/>
    <polygon class="shape-3" points="497.327,608.769 400.84,441.65 400.84,553.063     "/>
    <polygon class="shape-3" points="192.941,304.384 96.455,137.265 96.455,248.678    "/>
    <polygon class="shape-3" points="512.252,360.088 512.252,360.088 415.766,304.382 512.252,471.502 512.252,360.089    "/>
  </g>
  <g>
    <polygon class="shape-4" points="-0.031,192.971 167.088,96.485 55.676,96.485     "/>
    <polygon class="shape-4" points="608.74,192.971 775.859,96.485 664.447,96.485    "/>
    <polygon class="shape-4" points="248.648,207.896 248.648,207.896 304.355,111.41 137.236,207.897 248.648,207.897    "/>
    <polygon class="shape-4" points="304.355,497.356 471.474,400.87 360.061,400.87     "/>
    <polygon class="shape-4" points="207.868,-167.122 111.381,-0.002 207.868,-55.708     "/>
    <polygon class="shape-4" points="400.84,55.705 400.84,167.118 497.327,-0.002 400.84,55.705     "/>
    <polygon class="shape-4" points="-55.737,512.283 -55.737,512.283 -0.031,415.796 -167.15,512.284 -55.738,512.284    "/>
    <polygon class="shape-4" points="553.033,512.283 553.033,512.283 608.74,415.796 441.621,512.284 553.033,512.284    "/>
    <polygon class="shape-4" points="207.868,441.649 111.381,608.769 207.868,553.063     "/>
    <polygon class="shape-4" points="400.84,664.475 400.84,775.889 497.327,608.769 400.84,664.475    "/>
    <polygon class="shape-4" points="96.455,360.09 96.455,471.504 192.941,304.384 96.455,360.09    "/>
    <polygon class="shape-4" points="512.252,137.262 415.766,304.382 512.252,248.676     "/>
  </g>
  <g>
    <polygon class="shape-5" points="55.676,-96.488 74.244,-64.325 55.676,-32.164 92.814,-32.164 111.382,-0.001 167.089,-96.488     "/>
    <polygon class="shape-5" points="55.676,96.485 167.088,96.485 111.382,-0.001 92.814,32.161 55.676,32.161 74.245,64.323 
      68.951,73.492     "/>
    <polygon class="shape-5" points="18.538,96.485 -0.031,64.323 -18.6,96.485 -55.737,96.485 -0.031,192.971 55.676,96.485     "/>
    <polygon class="shape-5" points="534.464,-64.326 553.033,-96.488 441.621,-96.488 497.327,-0.002 515.896,-32.164 553.033,-32.164     
      "/>
    <polygon class="shape-5" points="534.464,64.323 553.033,32.161 515.896,32.161 515.896,32.161 497.327,-0.001 497.327,-0.002 
      441.621,96.485 553.033,96.485 534.464,64.323    "/>
    <polygon class="shape-5" points="627.308,96.485 608.74,64.323 590.171,96.485 553.033,96.485 608.74,192.971 664.447,96.485     "/>
    <polygon class="shape-5" points="230.08,240.058 248.648,207.897 137.236,207.897 192.941,304.382 211.51,272.221 248.648,272.221    
      "/>
    <polygon class="shape-5" points="360.061,207.897 378.629,240.059 360.061,272.221 397.199,272.221 415.767,304.383 471.474,207.897 
          "/>
    <polygon class="shape-5" points="230.08,368.708 248.648,336.545 211.511,336.545 211.51,336.545 192.941,304.383 192.941,304.382 
      137.235,400.87 248.648,400.87 230.08,368.708    "/>
    <polygon class="shape-5" points="360.061,400.87 471.474,400.87 415.767,304.383 397.199,336.545 360.061,336.545 378.63,368.708 
      373.336,377.875     "/>
    <polygon class="shape-5" points="304.355,111.41 248.648,207.896 285.786,207.896 285.787,207.897 304.355,240.058 322.923,207.897 
      360.061,207.897     "/>
    <polygon class="shape-5" points="322.923,400.87 304.355,368.708 285.786,400.87 248.648,400.87 304.355,497.356 360.061,400.87    "/>
    <polygon class="shape-5" points="240.03,74.274 207.868,55.705 207.868,167.118 304.354,111.411 272.192,92.842 272.192,55.705     "/>
    <polygon class="shape-5" points="368.678,74.274 336.516,55.705 336.516,92.842 336.516,92.842 304.354,111.411 304.354,111.411 
      400.84,167.118 400.84,55.705 368.679,74.274     "/>
    <polygon class="shape-5" points="111.381,-0.002 207.868,55.705 207.868,18.567 207.868,18.566 240.03,-0.002 207.868,-18.57 
      207.868,-55.708     "/>
    <polygon class="shape-5" points="400.84,-18.571 368.679,-0.002 400.84,18.567 400.84,55.705 497.327,-0.002 400.84,-55.708    "/>
    <polygon class="shape-5" points="55.676,512.284 74.244,544.446 55.676,576.608 92.814,576.608 111.382,608.77 167.089,512.284     "/>
    <polygon class="shape-5" points="55.676,705.256 167.088,705.256 111.382,608.77 92.814,640.932 55.676,640.932 74.245,673.094 
      68.951,682.262    "/>
    <polygon class="shape-5" points="-0.031,415.796 -55.737,512.283 -18.6,512.283 -18.599,512.284 -0.031,544.445 18.538,512.284 
      55.676,512.284    "/>
    <polygon class="shape-5" points="534.464,544.445 553.033,512.284 441.621,512.284 497.327,608.769 515.896,576.608 553.033,576.608 
          "/>
    <polygon class="shape-5" points="534.464,673.094 553.033,640.932 515.896,640.932 515.896,640.932 497.327,608.77 497.327,608.769 
      441.621,705.256 553.033,705.256 534.464,673.094     "/>
    <polygon class="shape-5" points="608.74,415.796 553.033,512.283 590.171,512.283 590.171,512.284 608.74,544.445 627.308,512.284 
      664.447,512.284     "/>
    <polygon class="shape-5" points="207.868,553.063 240.031,534.495 272.192,553.063 272.192,515.924 304.355,497.356 207.868,441.649 
          "/>
    <polygon class="shape-5" points="400.84,553.063 400.84,441.65 304.355,497.356 336.516,515.924 336.516,553.063 368.679,534.494 
      377.848,539.788     "/>
    <polygon class="shape-5" points="111.381,608.769 207.868,664.475 207.868,627.338 207.868,627.337 240.03,608.769 207.868,590.201 
      207.868,553.063     "/>
    <polygon class="shape-5" points="400.84,590.2 368.679,608.769 400.84,627.338 400.84,664.475 497.327,608.769 400.84,553.063    "/>
    <polygon class="shape-5" points="-64.355,378.661 -96.518,360.091 -96.518,471.504 -0.031,415.797 -32.193,397.229 -32.193,360.09    
      "/>
    <polygon class="shape-5" points="-96.518,248.678 -64.354,230.11 -32.193,248.678 -32.193,211.54 -0.03,192.971 -96.518,137.264    "/>
    <polygon class="shape-5" points="64.293,378.661 32.131,360.09 32.131,397.229 32.131,397.229 -0.031,415.797 -0.031,415.797 
      96.455,471.504 96.455,360.09 64.294,378.661     "/>
    <polygon class="shape-5" points="96.455,248.678 96.455,137.265 -0.03,192.971 32.131,211.54 32.131,248.678 64.294,230.109 
      73.463,235.403    "/>
    <polygon class="shape-5" points="96.455,285.815 64.294,304.384 96.455,322.954 96.455,360.09 192.941,304.384 96.455,248.678    "/>
    <polygon class="shape-5" points="544.415,378.659 512.252,360.089 512.252,471.502 608.739,415.795 576.577,397.227 576.577,360.088 
          "/>
    <polygon class="shape-5" points="512.252,248.676 544.416,230.108 576.577,248.676 576.577,211.538 608.74,192.969 512.252,137.262     
      "/>
    <polygon class="shape-5" points="673.063,378.659 640.901,360.088 640.901,397.227 640.901,397.227 608.739,415.795 608.739,415.795 
      705.224,471.502 705.224,360.088 673.064,378.659     "/>
    <polygon class="shape-5" points="705.224,248.676 705.224,137.263 608.74,192.969 640.901,211.538 640.901,248.676 673.064,230.107 
      682.233,235.401     "/>
    <polygon class="shape-5" points="415.766,304.382 512.252,360.088 512.252,322.952 512.252,322.951 544.415,304.382 512.252,285.814 
      512.252,248.676     "/>
  </g>
      </g>
      <g class="guides">
  <g>
    <circle class="st1" cx="-0.031" cy="-0.001" r="192.973"/>
    <ellipse class="st1" cx="-0.031" cy="-0.001" rx="0" ry="64.323"/>
    <circle class="st1" cx="-0.031" cy="-0.001" r="64.322"/>
    <circle class="st1" cx="-0.031" cy="-0.001" r="111.413"/>
    <line class="st1" x1="-0.031" y1="-192.974" x2="-0.031" y2="192.971"/>
    <line class="st1" x1="-193.003" y1="-0.001" x2="192.942" y2="-0.001"/>
    <line class="st1" x1="-55.725" y1="96.458" x2="55.662" y2="-96.473"/>
    <line class="st1" x1="167.073" y1="-96.473" x2="-167.123" y2="96.476"/>
    <line class="st1" x1="-55.725" y1="-96.473" x2="55.663" y2="96.458"/>
    <line class="st1" x1="167.073" y1="96.458" x2="-167.135" y2="-96.473"/>
  </g>
  <g>
    <circle class="st1" cx="608.74" cy="-0.001" r="192.973"/>
    <ellipse class="st1" cx="608.74" cy="-0.001" rx="0" ry="64.323"/>
    <circle class="st1" cx="608.74" cy="-0.001" r="64.322"/>
    <circle class="st1" cx="608.74" cy="-0.001" r="111.413"/>
    <line class="st1" x1="608.74" y1="-192.974" x2="608.74" y2="192.971"/>
    <line class="st1" x1="415.767" y1="-0.001" x2="801.712" y2="-0.001"/>
    <line class="st1" x1="553.046" y1="96.458" x2="664.433" y2="-96.473"/>
    <line class="st1" x1="775.843" y1="-96.473" x2="441.648" y2="96.476"/>
    <line class="st1" x1="553.046" y1="-96.473" x2="664.433" y2="96.458"/>
    <line class="st1" x1="775.843" y1="96.458" x2="441.636" y2="-96.473"/>
  </g>
  <g>
    <circle class="st1" cx="304.354" cy="-0.002" r="192.973"/>
    <ellipse class="st1" cx="304.354" cy="-0.002" rx="0" ry="64.322"/>
    <circle class="st1" cx="304.354" cy="-0.002" r="64.322"/>
    <circle class="st1" cx="304.354" cy="-0.002" r="111.413"/>
    <line class="st1" x1="111.382" y1="-0.001" x2="497.327" y2="-0.001"/>
    <line class="st1" x1="304.354" y1="192.971" x2="304.354" y2="-192.975"/>
    <line class="st1" x1="400.813" y1="55.692" x2="207.883" y2="-55.695"/>
    <line class="st1" x1="207.883" y1="-167.105" x2="400.833" y2="167.09"/>
    <line class="st1" x1="207.883" y1="55.692" x2="400.813" y2="-55.696"/>
    <line class="st1" x1="400.813" y1="-167.105" x2="207.883" y2="167.102"/>
  </g>
  <g>
    <circle class="st1" cx="304.355" cy="304.383" r="192.973"/>
    <ellipse class="st1" cx="304.355" cy="304.383" rx="0" ry="64.323"/>
    <circle class="st1" cx="304.354" cy="304.383" r="64.322"/>
    <circle class="st1" cx="304.354" cy="304.383" r="111.413"/>
    <line class="st1" x1="304.354" y1="111.411" x2="304.354" y2="497.356"/>
    <line class="st1" x1="111.382" y1="304.383" x2="497.328" y2="304.383"/>
    <line class="st1" x1="248.661" y1="400.842" x2="360.047" y2="207.912"/>
    <line class="st1" x1="471.458" y1="207.912" x2="137.262" y2="400.86"/>
    <line class="st1" x1="248.661" y1="207.912" x2="360.048" y2="400.842"/>
    <line class="st1" x1="471.458" y1="400.842" x2="137.25" y2="207.912"/>
  </g>
  <g>
    <circle class="st1" cx="-0.031" cy="608.77" r="192.973"/>
    <ellipse class="st1" cx="-0.031" cy="608.77" rx="0" ry="64.323"/>
    <circle class="st1" cx="-0.031" cy="608.77" r="64.322"/>
    <circle class="st1" cx="-0.031" cy="608.77" r="111.413"/>
    <line class="st1" x1="-0.031" y1="415.797" x2="-0.031" y2="801.743"/>
    <line class="st1" x1="-193.003" y1="608.77" x2="192.942" y2="608.77"/>
    <line class="st1" x1="-55.725" y1="705.229" x2="55.662" y2="512.298"/>
    <line class="st1" x1="167.073" y1="512.298" x2="-167.123" y2="705.247"/>
    <line class="st1" x1="-55.725" y1="512.298" x2="55.663" y2="705.229"/>
    <line class="st1" x1="167.073" y1="705.229" x2="-167.135" y2="512.298"/>
  </g>
  <g>
    <circle class="st1" cx="608.74" cy="608.77" r="192.973"/>
    <ellipse class="st1" cx="608.74" cy="608.77" rx="0" ry="64.323"/>
    <circle class="st1" cx="608.74" cy="608.77" r="64.322"/>
    <circle class="st1" cx="608.74" cy="608.77" r="111.413"/>
    <line class="st1" x1="608.74" y1="415.797" x2="608.74" y2="801.743"/>
    <line class="st1" x1="415.767" y1="608.77" x2="801.712" y2="608.77"/>
    <line class="st1" x1="553.046" y1="705.229" x2="664.433" y2="512.298"/>
    <line class="st1" x1="775.843" y1="512.298" x2="441.648" y2="705.247"/>
    <line class="st1" x1="553.046" y1="512.298" x2="664.433" y2="705.229"/>
    <line class="st1" x1="775.843" y1="705.229" x2="441.636" y2="512.298"/>
  </g>
  <g>
    <circle class="st1" cx="304.354" cy="608.77" r="192.973"/>
    <ellipse class="st1" cx="304.354" cy="608.769" rx="0" ry="64.322"/>
    <circle class="st1" cx="304.354" cy="608.769" r="64.321"/>
    <circle class="st1" cx="304.354" cy="608.769" r="111.413"/>
    <line class="st1" x1="111.382" y1="608.77" x2="497.327" y2="608.77"/>
    <line class="st1" x1="304.354" y1="801.743" x2="304.354" y2="415.796"/>
    <line class="st1" x1="400.813" y1="664.463" x2="207.883" y2="553.077"/>
    <line class="st1" x1="207.883" y1="441.666" x2="400.833" y2="775.862"/>
    <line class="st1" x1="207.883" y1="664.463" x2="400.813" y2="553.075"/>
    <line class="st1" x1="400.813" y1="441.666" x2="207.883" y2="775.874"/>
  </g>
  <g>
    <circle class="st1" cx="-0.031" cy="304.385" r="192.973"/>
    <ellipse class="st1" cx="-0.031" cy="304.384" rx="0" ry="64.322"/>
    <circle class="st1" cx="-0.031" cy="304.384" r="64.321"/>
    <circle class="st1" cx="-0.031" cy="304.384" r="111.413"/>
    <line class="st1" x1="-193.003" y1="304.385" x2="192.941" y2="304.385"/>
    <line class="st1" x1="-0.031" y1="497.358" x2="-0.031" y2="111.412"/>
    <line class="st1" x1="96.427" y1="360.079" x2="-96.502" y2="248.692"/>
    <line class="st1" x1="-96.502" y1="137.281" x2="96.447" y2="471.477"/>
    <line class="st1" x1="-96.502" y1="360.079" x2="96.427" y2="248.69"/>
    <line class="st1" x1="96.427" y1="137.281" x2="-96.502" y2="471.489"/>
  </g>
  <g>
    <circle class="st1" cx="608.739" cy="304.383" r="192.973"/>
    <ellipse class="st1" cx="608.739" cy="304.382" rx="0" ry="64.322"/>
    <circle class="st1" cx="608.739" cy="304.382" r="64.321"/>
    <circle class="st1" cx="608.739" cy="304.382" r="111.413"/>
    <line class="st1" x1="415.767" y1="304.383" x2="801.71" y2="304.383"/>
    <line class="st1" x1="608.739" y1="497.356" x2="608.739" y2="111.41"/>
    <line class="st1" x1="705.197" y1="360.077" x2="512.268" y2="248.69"/>
    <line class="st1" x1="512.268" y1="137.279" x2="705.216" y2="471.475"/>
    <line class="st1" x1="512.268" y1="360.077" x2="705.197" y2="248.688"/>
    <line class="st1" x1="705.197" y1="137.279" x2="512.268" y2="471.487"/>
  </g>
      </g>
</svg>
