<svg xmlns="http://www.w3.org/2000/svg" width="608.7" height="608.8" viewBox="0 0 608.7 608.8">
  <style>
    :root { --black: #443430; --red: #BF402B; --gold: #CEA600; --turquois: #4D9BA3; --emerald: #216554; --blue: #262F66; --white: #FFFAF2; } .shape-2{fill:var(--turquois)} .shape-6{fill:var(--white)} .shape-5{fill:var(--red)} .shape-3{fill:var(--white)} .shape-1{fill:var(--black)} .shape-4{fill:var(--white)} .shape-7{fill:var(--blue3)}
    .guides{ stroke: #4FFF4F; display: none; fill: none}
  </style>
  <g class="line" id="pattern">
    <path class="shape-1" d="M96.5 137.3L167 96.5l40.8 70.6-70.7 40.8-40.7-70.6zM400.8 167l70.7 40.8 40.8-70.6-70.7-40.8-40.8 70.6zM137.2 401l-40.7 70.6 70.6 40.8 40.8-70.7-70.7-40.7zm334.3 0l-70.7 40.8 40.8 70.6 70.7-40.8-40.8-70.6z"/>
    <path class="shape-2" d="M0-64.3l-18.6 32.1h-37.1L-37.2 0l-18.5 32.2h37.1L0 64.3l18.5-32.1h37.2L37.1 0l18.6-32.2H18.5zM608.7-64.3l-18.5 32.1H553L571.6 0 553 32.2h37.2l18.5 32.1 18.6-32.1h37.1L645.9 0l18.5-32.2h-37.1zM304.4 240.1l-18.6 32.1h-37.2l18.6 32.2-18.6 32.1h37.2l18.6 32.2 18.5-32.2h37.2l-18.6-32.1 18.6-32.2h-37.2zM240 0l32.2 18.6v37.1l32.2-18.6 32.1 18.6V18.6L368.7 0l-32.2-18.6v-37.1l-32.1 18.6-32.2-18.6v37.1zM0 544.4l-18.6 32.2h-37.1l18.5 32.2-18.5 32.1h37.1L0 673.1l18.5-32.2h37.2l-18.6-32.1 18.6-32.2H18.5zM608.7 544.4l-18.5 32.2H553l18.6 32.2-18.6 32.1h37.2l18.5 32.2 18.6-32.2h37.1l-18.5-32.1 18.5-32.2h-37.1zM240 608.8l32.2 18.5v37.2l32.2-18.6 32.1 18.6v-37.2l32.2-18.5-32.2-18.6v-37.1l-32.1 18.5-32.2-18.5v37.1zM-64.4 304.4l32.2 18.6v37.1L0 341.5l32.1 18.6V323l32.2-18.6-32.2-18.6v-37.1L0 267.2l-32.2-18.5v37.1zM544.4 304.4l32.2 18.6v37.1l32.1-18.6 32.2 18.6V323l32.2-18.6-32.2-18.6v-37.1l-32.2 18.5-32.1-18.5v37.1z"/>
    <g>
      <path class="shape-6" d="M-18.6 32.2h-37.1l-18.6 32.1 18.6 32.2h37.1L0 64.3zM18.5 32.2L0 64.3l18.5 32.2h37.2l18.5-32.2-18.5-32.1z"/>
      <path class="shape-6" d="M92.8-32.2H55.7L37.1 0l18.6 32.2h37.1L111.4 0zM571.6 0L553-32.2h-37.1L497.3 0l18.6 32.2H553zM590.2 32.2H553l-18.5 32.1L553 96.5h37.2l18.5-32.2z"/>
      <path class="shape-6" d="M627.3 32.2l-18.6 32.1 18.6 32.2h37.1L683 64.3l-18.6-32.1zM304.4 240.1l-18.6-32.2h-37.2l-18.5 32.2 18.5 32.1h37.2zM267.2 304.4l-18.6-32.2h-37.1l-18.6 32.2 18.6 32.1h37.1zM285.8 336.5h-37.2l-18.5 32.2 18.5 32.2h37.2l18.6-32.2z"/>
      <path class="shape-6" d="M322.9 336.5l-18.5 32.2 18.5 32.2h37.2l18.5-32.2-18.5-32.2zM397.2 272.2h-37.1l-18.6 32.2 18.6 32.1h37.1l18.6-32.1zM322.9 272.2h37.2l18.5-32.1-18.5-32.2h-37.2l-18.5 32.2zM240 0l-32.1 18.6v37.1L240 74.3l32.2-18.6V18.6zM304.4 37.1l-32.2 18.6v37.1l32.2 18.6 32.1-18.6V55.7zM336.5 18.6v37.1l32.2 18.6 32.1-18.6V18.6L368.7 0zM336.5-18.6L368.7 0l32.1-18.6v-37.1l-32.1-18.6-32.2 18.6zM272.2-18.6v-37.1L240-74.3l-32.1 18.6v37.1L240 0zM0 544.4l-18.6-32.1h-37.1l-18.6 32.1 18.6 32.2h37.1zM92.8 576.6H55.7l-18.6 32.2 18.6 32.1h37.1l18.6-32.1zM18.5 576.6h37.2l18.5-32.2-18.5-32.1H18.5L0 544.4zM608.7 544.4l-18.5-32.1H553l-18.5 32.1 18.5 32.2h37.2zM571.6 608.8L553 576.6h-37.1l-18.6 32.2 18.6 32.1H553z"/>
      <path class="shape-6" d="M627.3 576.6h37.1l18.6-32.2-18.6-32.1h-37.1l-18.6 32.1zM240 608.8l-32.1 18.5v37.2L240 683l32.2-18.5v-37.2zM336.5 627.3v37.2l32.2 18.5 32.1-18.5v-37.2l-32.1-18.5z"/>
      <path class="shape-6" d="M336.5 590.2l32.2 18.6 32.1-18.6v-37.1l-32.1-18.6-32.2 18.6zM272.2 515.9v37.2l32.2 18.5 32.1-18.5v-37.2l-32.1-18.5zM272.2 590.2v-37.1L240 534.5l-32.1 18.6v37.1l32.1 18.6zM0 341.5l-32.2 18.6v37.1L0 415.8l32.1-18.6v-37.1zM32.1 323v37.1l32.2 18.6 32.2-18.6V323l-32.2-18.6z"/>
      <path class="shape-6" d="M32.1 285.8l32.2 18.6 32.2-18.6v-37.1l-32.2-18.6-32.2 18.6zM-32.2 211.5v37.2L0 267.2l32.1-18.5v-37.2L0 193zM544.4 304.4L512.3 323v37.1l32.1 18.6 32.2-18.6V323zM608.7 341.5l-32.1 18.6v37.1l32.1 18.6 32.2-18.6v-37.1zM576.6 211.5v37.2l32.1 18.5 32.2-18.5v-37.2L608.7 193z"/>
      <path class="shape-6" d="M576.6 285.8v-37.1l-32.2-18.6-32.1 18.6v37.1l32.1 18.6z"/>
    </g>
    <g>
      <path class="shape-3" d="M-55.7 96.5h-111.5L0 193l-55.7-96.5zM553 96.5H441.6L608.7 193 553 96.5zM471.5 207.9l-167.1-96.5 55.7 96.5zM248.6 400.9H137.2l167.2 96.5-55.8-96.5zM207.9 55.7L111.4 0l96.5 167.1V55.7zM497.3 0l-96.5-167.1v111.4zM167.1 512.3L0 415.8l55.7 96.5zM775.9 512.3l-167.2-96.5 55.7 96.5zM207.9 664.5l-96.5-55.7 96.5 167.1V664.5zM497.3 608.8l-96.5-167.2v111.5zM192.9 304.4L96.5 137.3v111.4zM512.3 360.1l-96.5-55.7 96.5 167.1V360.1z"/>
    </g>
    <g>
      <path class="shape-4" d="M0 193l167.1-96.5H55.7zM608.7 193l167.2-96.5H664.4zM248.6 207.9l55.8-96.5-167.2 96.5h111.4zM304.4 497.4l167.1-96.5H360.1zM207.9-167.1L111.4 0l96.5-55.7zM400.8 55.7v111.4L497.3 0l-96.5 55.7zM-55.7 512.3L0 415.8l-167.2 96.5h111.5zM553 512.3l55.7-96.5-167.1 96.5H553zM207.9 441.6l-96.5 167.2 96.5-55.7zM400.8 664.5v111.4l96.5-167.1-96.5 55.7zM96.5 360.1v111.4l96.4-167.1-96.4 55.7zM512.3 137.3l-96.5 167.1 96.5-55.7z"/>
    </g>
    <g>
      <path class="shape-5" d="M55.7-96.5l18.5 32.2-18.5 32.1h37.1L111.4 0l55.7-96.5zM55.7 96.5h111.4L111.4 0 92.8 32.2H55.7l18.5 32.1-5.2 9.2zM18.5 96.5L0 64.3l-18.6 32.2h-37.1L0 193l55.7-96.5zM534.5-64.3L553-96.5H441.6L497.3 0l18.6-32.2H553zM534.5 64.3L553 32.2h-37.1L497.3 0l-55.7 96.5H553l-18.5-32.2zM627.3 96.5l-18.6-32.2-18.5 32.2H553l55.7 96.5 55.7-96.5zM230.1 240.1l18.5-32.2H137.2l55.7 96.5 18.6-32.2h37.1zM360.1 207.9l18.5 32.2-18.5 32.1h37.1l18.6 32.2 55.7-96.5zM230.1 368.7l18.5-32.2h-37.1l-18.6-32.1-55.7 96.5h111.4l-18.5-32.2z"/>
      <path class="shape-5" d="M360.1 400.9h111.4l-55.7-96.5-18.6 32.1h-37.1l18.5 32.2-5.3 9.2zM304.4 111.4l-55.8 96.5h37.2l18.6 32.2 18.5-32.2h37.2zM322.9 400.9l-18.5-32.2-18.6 32.2h-37.2l55.8 96.5 55.7-96.5zM240 74.3l-32.1-18.6v111.4l96.5-55.7-32.2-18.6V55.7zM368.7 74.3l-32.2-18.6v37.1l-32.1 18.6 96.4 55.7V55.7l-32.1 18.6z"/>
      <path class="shape-5" d="M111.4 0l96.5 55.7V18.6L240 0l-32.1-18.6v-37.1zM400.8-18.6L368.7 0l32.1 18.6v37.1L497.3 0l-96.5-55.7zM55.7 512.3l18.5 32.1-18.5 32.2h37.1l18.6 32.2 55.7-96.5z"/>
      <path class="shape-5" d="M55.7 705.3h111.4l-55.7-96.5-18.6 32.1H55.7l18.5 32.2-5.2 9.2zM0 415.8l-55.7 96.5h37.1L0 544.4l18.5-32.1h37.2zM534.5 544.4l18.5-32.1H441.6l55.7 96.5 18.6-32.2H553zM534.5 673.1l18.5-32.2h-37.1l-18.6-32.1-55.7 96.5H553l-18.5-32.2zM608.7 415.8L553 512.3h37.2l18.5 32.1 18.6-32.1h37.1zM207.9 553.1l32.1-18.6 32.2 18.6v-37.2l32.2-18.5-96.5-55.8zM400.8 553.1V441.6l-96.4 55.8 32.1 18.5v37.2l32.2-18.6 9.1 5.3z"/>
      <path class="shape-5" d="M111.4 608.8l96.5 55.7v-37.2l32.1-18.5-32.1-18.6v-37.1zM400.8 590.2l-32.1 18.6 32.1 18.5v37.2l96.5-55.7-96.5-55.7zM-64.4 378.7l-32.1-18.6v111.4L0 415.8l-32.2-18.6v-37.1zM-96.5 248.7l32.1-18.6 32.2 18.6v-37.2L0 193l-96.5-55.7zM64.3 378.7l-32.2-18.6v37.1L0 415.8l96.5 55.7V360.1l-32.2 18.6zM96.5 248.7V137.3L0 193l32.1 18.5v37.2l32.2-18.6 9.2 5.3zM96.5 285.8l-32.2 18.6L96.5 323v37.1l96.4-55.7-96.4-55.7zM544.4 378.7l-32.1-18.6v111.4l96.4-55.7-32.1-18.6v-37.1zM512.3 248.7l32.1-18.6 32.2 18.6v-37.2l32.1-18.5-96.4-55.7zM673.1 378.7l-32.2-18.6v37.1l-32.2 18.6 96.5 55.7V360.1l-32.1 18.6zM705.2 248.7V137.3L608.7 193l32.2 18.5v37.2l32.2-18.6 9.1 5.3z"/>
      <path class="shape-5" d="M415.8 304.4l96.5 55.7V323l32.1-18.6-32.1-18.6v-37.1z"/>
    </g>
  </g>
  <g class="guides">
    <circle r="193"/>
    <circle r="64.3"/>
    <circle r="111.4"/>
    <path d="M0-193v386M-193 0h385.9M-55.7 96.5l111.4-193M167.1-96.5l-334.2 193M-55.7-96.5l111.4 193M167.1 96.5l-334.2-193"/>
    <g>
      <circle cx="608.7" r="193"/>
      <circle cx="608.7" r="64.3"/>
      <circle cx="608.7" r="111.4"/>
      <path d="M608.7-193v386M415.8 0h385.9M553 96.5l111.4-193M775.8-96.5l-334.2 193M553-96.5l111.4 193M775.8 96.5l-334.2-193"/>
    </g>
    <g>
      <circle cx="304.4" r="193"/>
      <circle cx="304.4" r="64.3"/>
      <circle cx="304.4" r="111.4"/>
      <path d="M111.4 0h385.9M304.4 193v-386M400.8 55.7L207.9-55.7M207.9-167.1l192.9 334.2M207.9 55.7L400.8-55.7M400.8-167.1L207.9 167.1"/>
    </g>
    <g>
      <circle cx="304.4" cy="304.4" r="193"/>
      <circle cx="304.4" cy="304.4" r="64.3"/>
      <circle cx="304.4" cy="304.4" r="111.4"/>
      <path d="M304.4 111.4v386M111.4 304.4h385.9M248.7 400.8L360 207.9M471.5 207.9l-334.2 193M248.7 207.9L360 400.8M471.5 400.8L137.3 207.9"/>
    </g>
    <g>
      <circle cy="608.8" r="193"/>
      <circle cy="608.8" r="64.3"/>
      <circle cy="608.8" r="111.4"/>
      <path d="M0 415.8v385.9M-193 608.8h385.9M-55.7 705.2L55.7 512.3M167.1 512.3l-334.2 192.9M-55.7 512.3L55.7 705.2M167.1 705.2l-334.2-192.9"/>
    </g>
    <g>
      <circle cx="608.7" cy="608.8" r="193"/>
      <circle cx="608.7" cy="608.8" r="64.3"/>
      <circle cx="608.7" cy="608.8" r="111.4"/>
      <path d="M608.7 415.8v385.9M415.8 608.8h385.9M553 705.2l111.4-192.9M775.8 512.3L441.6 705.2M553 512.3l111.4 192.9M775.8 705.2L441.6 512.3"/>
    </g>
    <g>
      <circle cx="304.4" cy="608.8" r="193"/>
      <circle cx="304.4" cy="608.8" r="64.3"/>
      <circle cx="304.4" cy="608.8" r="111.4"/>
      <path d="M111.4 608.8h385.9M304.4 801.7V415.8M400.8 664.5L207.9 553.1M207.9 441.7l192.9 334.2M207.9 664.5l192.9-111.4M400.8 441.7L207.9 775.9"/>
    </g>
    <g>
      <circle cy="304.4" r="193"/>
      <circle cy="304.4" r="64.3"/>
      <circle cy="304.4" r="111.4"/>
      <path d="M-193 304.4h385.9M0 497.4v-386M96.4 360.1L-96.5 248.7M-96.5 137.3L96.4 471.5M-96.5 360.1L96.4 248.7M96.4 137.3L-96.5 471.5"/>
    </g>
    <g>
      <circle cx="608.7" cy="304.4" r="193"/>
      <circle cx="608.7" cy="304.4" r="64.3"/>
      <circle cx="608.7" cy="304.4" r="111.4"/>
      <path d="M415.8 304.4h385.9M608.7 497.4v-386M705.2 360.1L512.3 248.7M512.3 137.3l192.9 334.2M512.3 360.1l192.9-111.4M705.2 137.3L512.3 471.5"/>
    </g>
  </g>
</svg>
