<svg version="1.1" xmlns="http://www.w3.org/2000/svg" width="595.918" height="595.917"  viewBox="0 0 100% 100%">
  <style>
    :root {
      --black: #443430;
      --red: #BF402B;
      --gold: #CEA600;
      --turquois: #4D9BA3;
      --emerald: #216554;
      --blue: #262F66;
      --white: #FFFAF2;
    }
    .shape-2{fill:var(--red);stroke-miterlimit: 1}
    .shape-1{fill:var(--black)}
    .shape-3{fill:var(--turquois)}
    .shape-6{fill:var(--white)}
    .shape-5{fill:var(--white)}
    .shape-7{fill:var(--white)}
    .shape-4{fill:var(--turquois)}
    .shape-8{fill:var(--gold)}
    <!-- .line{stroke:#fff;stroke-width:13px;} -->
    .guides{ stroke: #4FFF4F; display: none; fill: none}
  </style>
      <g class="line" id="pattern">
  <rect x="-54.529" y="-54.534" class="shape-1" width="704.977" height="704.983"/>
  <g>
    <polygon class="shape-2" points="54.532,329.439 109.063,297.956 54.532,266.473 54.532,203.506 0.001,234.99 -54.529,203.506 
      -54.529,266.473 -109.06,297.956 -54.529,329.439 -54.529,392.406 0.001,360.923 54.532,392.406    "/>
    <polygon class="shape-2" points="650.448,329.442 704.98,297.958 650.448,266.475 650.448,203.509 595.918,234.992 541.389,203.509 
      541.389,266.475 486.856,297.958 541.389,329.442 541.389,392.408 595.918,360.925 650.448,392.408     "/>
    <polygon class="shape-2" points="352.49,31.48 407.022,-0.003 352.492,-31.487 352.492,-94.453 297.96,-62.97 243.431,-94.453 
      243.431,-31.487 188.9,-0.003 243.431,31.48 243.431,94.446 297.96,62.963 352.49,94.446     "/>
    <polygon class="shape-2" points="329.443,243.427 297.96,188.896 266.478,243.426 203.511,243.426 234.994,297.957 203.511,352.488 
      266.478,352.488 297.96,407.017 329.443,352.488 392.41,352.488 360.927,297.957 392.41,243.427    "/>
    <polygon class="shape-2" points="31.485,-54.533 0.001,-109.064 -31.482,-54.534 -94.448,-54.534 -62.965,-0.003 -94.448,54.528 
      -31.482,54.528 0.001,109.058 31.485,54.528 94.451,54.528 62.968,-0.003 94.451,-54.533     "/>
    <polygon class="shape-2" points="627.404,-54.532 595.92,-109.063 564.438,-54.533 501.471,-54.533 532.953,-0.003 501.471,54.528 
      564.438,54.528 595.92,109.059 627.404,54.528 690.369,54.528 658.887,-0.003 690.369,-54.532    "/>
    <polygon class="shape-2" points="352.488,627.4 407.019,595.917 352.489,564.433 352.489,501.466 297.957,532.951 243.427,501.466 
      243.427,564.433 188.897,595.917 243.427,627.4 243.427,690.367 297.957,658.884 352.488,690.367     "/>
    <polygon class="shape-2" points="31.482,541.388 -0.001,486.857 -31.485,541.386 -94.451,541.386 -62.968,595.917 -94.451,650.449 
      -31.485,650.449 -0.001,704.978 31.482,650.449 94.448,650.449 62.965,595.917 94.448,541.388    "/>
    <polygon class="shape-2" points="627.4,541.388 595.918,486.857 564.434,541.386 501.469,541.386 532.951,595.917 501.469,650.449 
      564.434,650.449 595.918,704.978 627.4,650.449 690.367,650.449 658.885,595.917 690.367,541.388     "/>
  </g>
  <g>
    <path class="shape-3" d="M94.452,243.426l23.046-39.919c-29.764,0-62.964,0-62.964,0l-0.002,62.966l54.532,31.484l31.483-54.529
      L94.452,243.426z"/>
    <path class="shape-3" d="M180.465,94.446c29.766,0,62.966,0,62.966,0V31.48L188.898-0.003l-31.482,54.529h46.098L180.465,94.446z"/>
    <path class="shape-3" d="M415.457,501.466c-29.766,0-62.964,0-62.964,0l-0.003,62.967l54.532,31.484l31.482-54.529h-46.098
      L415.457,501.466z"/>
    <path class="shape-3" d="M478.424,392.406c29.766,0,62.965,0,62.965,0V329.44l-54.53-31.483l-31.482,54.529h46.096L478.424,392.406z"
      />
    <path class="shape-3" d="M352.489,157.413v46.096l39.921-23.048c0,29.766,0,62.966,0,62.965l-62.967,0.002l-31.483-54.531
      L352.489,157.413z"/>
    <path class="shape-3" d="M501.47,117.494c0-29.765,0-62.965-0.001-62.965h62.967l31.483,54.531l-54.53,31.482V94.447L501.47,117.494z"
      />
    <path class="shape-3" d="M54.532,455.371v46.096l39.92-23.047c0,29.766,0,62.965,0,62.965l-62.967,0.002L0.002,486.853L54.532,455.371
      z"/>
    <path class="shape-3" d="M203.512,415.453c0-29.765,0-62.965-0.001-62.965h62.967l31.483,54.531l-54.53,31.482v-46.097
      L203.512,415.453z"/>
  </g>
  <g>
    <path class="shape-4" d="M134.369,94.446l23.047-39.92H94.452l-0.001,62.967l54.53,31.484l31.483-54.531
      C156.283,94.446,134.369,94.446,134.369,94.446z"/>
    <path class="shape-4" d="M163.595,203.507l-23.047,39.92h62.963v-62.968c0,0-53.204-31.297-54.529-31.482l-31.483,54.53
      C141.681,203.507,163.595,203.507,163.595,203.507z"/>
    <path class="shape-4" d="M432.327,392.406l23.048-39.92H392.41l-0.002,62.967l54.531,31.484l31.483-54.531
      C454.242,392.406,432.327,392.406,432.327,392.406z"/>
    <path class="shape-4" d="M461.553,501.468l-23.047,39.92h62.963v-62.969c0,0-53.203-31.297-54.528-31.482l-31.482,54.529
      C439.64,501.468,461.553,501.468,461.553,501.468z"/>
    <path class="shape-4" d="M501.47,163.59l39.919-23.047l-0.003,62.964l-62.964,0.001l-31.481-54.53l54.529-31.484
      C501.47,141.675,501.47,163.59,501.47,163.59z"/>
    <path class="shape-4" d="M352.489,157.413V94.447l62.966,0.001l31.484,54.531L392.41,180.46c0-24.181,0-46.096,0-46.096
      L352.489,157.413z"/>
    <path class="shape-4" d="M203.512,461.548l39.919-23.047l-0.003,62.963l-62.964,0.002l-31.482-54.531l54.53-31.482
      C203.512,439.634,203.512,461.548,203.512,461.548z"/>
    <path class="shape-4" d="M54.532,455.371v-62.966l62.965,0.001l31.484,54.531l-54.529,31.482c0-24.182,0-46.096,0-46.096
      L54.532,455.371z"/>
  </g>
  <g>
    <path class="shape-5" d="M117.498,203.507l-23.049,39.92h46.099l23.047-39.92C163.595,203.507,141.681,203.507,117.498,203.507z"/>
    <path class="shape-5" d="M180.465,94.446l23.049-39.92h-46.098l-23.047,39.92C134.369,94.446,156.283,94.446,180.465,94.446z"/>
    <path class="shape-5" d="M415.457,501.466l-23.047,39.92l46.096,0.002l23.047-39.92C461.553,501.468,439.64,501.468,415.457,501.466z"
      />
    <path class="shape-5" d="M478.424,392.406l23.047-39.92h-46.096l-23.048,39.92C432.327,392.406,454.242,392.406,478.424,392.406z"/>
    <path class="shape-5" d="M352.489,157.413l39.921-23.048c0,0,0,21.915,0,46.096l-39.921,23.048V157.413z"/>
    <path class="shape-5" d="M501.47,117.494l39.919-23.047v46.096L501.47,163.59C501.47,163.59,501.47,141.675,501.47,117.494z"/>
    <path class="shape-5" d="M54.532,455.371l39.92-23.047c0,0,0,21.914,0,46.096l-39.92,23.047V455.371z"/>
    <path class="shape-5" d="M203.512,415.453l39.919-23.047v46.096l-39.919,23.047C203.512,461.548,203.512,439.634,203.512,415.453z"/>
  </g>
  <g>
    <path class="shape-6" d="M243.432,157.411v46.096l-39.921-23.048c0,29.766,0,62.966,0,62.965l62.967,0.002l31.482-54.532
      L243.432,157.411z"/>
    <path class="shape-6" d="M94.451,117.493c0-29.765,0-62.965,0.001-62.965H31.485L0.001,109.059l54.53,31.482V94.445L94.451,117.493z"
      />
    <path class="shape-6" d="M690.369,117.493c0-29.765,0-62.965,0.002-62.965h-62.967l-31.485,54.531l54.532,31.482V94.446
      L690.369,117.493z"/>
    <path class="shape-6" d="M-54.529,455.371v46.096l-39.92-23.047c0,29.766,0,62.965,0,62.965l62.967,0.002L0,486.853L-54.529,455.371z"
      />
    <path class="shape-6" d="M180.463,690.367c29.764,0,62.964,0,62.964,0V627.4l-54.53-31.482l-31.482,54.527h46.096L180.463,690.367z"/>
    <path class="shape-6" d="M541.389,455.371v46.096l-39.92-23.047c0,29.766,0,62.965,0,62.965l62.967,0.002l31.482-54.531
      L541.389,455.371z"/>
    <path class="shape-6" d="M392.408,415.453c0-29.765,0-62.965,0.002-62.965h-62.967l-31.483,54.531l54.53,31.482v-46.097
      L392.408,415.453z"/>
    <path class="shape-6" d="M501.469,243.427l-23.047-39.919c29.766,0,62.964,0,62.964-0.001l0.003,62.967l-54.531,31.484l-31.483-54.529
      L501.469,243.427z"/>
    <path class="shape-6" d="M415.455,94.448c-29.765,0-62.966,0-62.966,0V31.481l54.532-31.483l31.48,54.529h-46.096L415.455,94.448z"/>
    <path class="shape-6" d="M-94.448,117.493c0-29.765,0-62.965-0.002-62.965h62.967l31.484,54.531l-54.531,31.482V94.445
      L-94.448,117.493z"/>
    <path class="shape-6" d="M415.452,690.367c-29.763,0-62.964,0-62.964,0V627.4l54.529-31.482l31.483,54.527h-46.096L415.452,690.367z"
      />
    <path class="shape-6" d="M650.447,455.373v46.096l39.92-23.049c0,29.766,0,62.967,0,62.965l-62.967,0.002l-31.482-54.531
      L650.447,455.373z"/>
    <path class="shape-6" d="M180.464,501.466c29.765,0,62.964,0,62.964,0l0.003,62.967l-54.532,31.484l-31.483-54.529h46.097
      L180.464,501.466z"/>
    <path class="shape-6" d="M117.497,392.406c-29.765,0-62.965,0-62.965,0V329.44l54.532-31.483l31.481,54.529H94.449L117.497,392.406z"
      />
  </g>
  <g>
    <path class="shape-7" d="M94.451,163.588l-39.919-23.047l0.002,62.965h62.964l31.483-54.53l-54.53-31.484
      C94.451,141.674,94.451,163.588,94.451,163.588z"/>
    <path class="shape-7" d="M243.432,157.411V94.445l-62.967,0.001l-31.483,54.531l54.529,31.482c0-24.181,0-46.096,0-46.096
      L243.432,157.411z"/>
    <path class="shape-7" d="M392.408,461.548l-39.918-23.047l0.003,62.963l62.964,0.002l31.482-54.531l-54.531-31.482
      C392.408,439.634,392.408,461.548,392.408,461.548z"/>
    <path class="shape-7" d="M541.389,455.371v-62.966l-62.965,0.001l-31.483,54.531l54.528,31.482c0-24.182,0-46.096,0-46.096
      L541.389,455.371z"/>
    <path class="shape-7" d="M461.552,94.448l-23.049-39.92h62.966l0.001,62.967l-54.529,31.484l-31.484-54.531
      C439.636,94.448,461.552,94.448,461.552,94.448z"/>
    <path class="shape-7" d="M432.326,203.509l23.047,39.92H392.41V180.46c0,0,53.203-31.297,54.529-31.482l31.481,54.53
      C454.239,203.509,432.326,203.509,432.326,203.509z"/>
    <path class="shape-7" d="M163.594,392.406l-23.049-39.92h62.966l0.001,62.967l-54.53,31.484l-31.484-54.531
      C141.678,392.406,163.594,392.406,163.594,392.406z"/>
    <path class="shape-7" d="M134.368,501.468l23.047,39.92H94.452v-62.969c0,0,53.203-31.297,54.529-31.482l31.482,54.529
      C156.281,501.468,134.368,501.468,134.368,501.468z"/>
  </g>
  <g>
    <path class="shape-8" d="M243.432,157.411l-39.921-23.048c0,0,0,21.915,0,46.096l39.921,23.048V157.411z"/>
    <path class="shape-8" d="M94.451,117.493L54.532,94.445v46.096l39.919,23.047C94.451,163.588,94.451,141.674,94.451,117.493z"/>
    <path class="shape-8" d="M541.389,455.371l-39.92-23.047c0,0,0,21.914,0,46.096l39.92,23.047V455.371z"/>
    <path class="shape-8" d="M392.408,415.453l-39.918-23.047v46.096l39.918,23.047C392.408,461.548,392.408,439.634,392.408,415.453z"/>
    <path class="shape-8" d="M478.422,203.508l23.047,39.919l-46.096,0.002l-23.047-39.92
      C432.326,203.509,454.239,203.509,478.422,203.508z"/>
    <path class="shape-8" d="M415.455,94.448l-23.048-39.92h46.096l23.049,39.92C461.552,94.448,439.636,94.448,415.455,94.448z"/>
    <path class="shape-8" d="M180.464,501.466l23.047,39.92l-46.096,0.002l-23.047-39.92
      C134.368,501.468,156.281,501.468,180.464,501.466z"/>
    <path class="shape-8" d="M117.497,392.406l-23.048-39.92h46.096l23.049,39.92C163.594,392.406,141.678,392.406,117.497,392.406z"/>
  </g>
      </g>
      <g class="guides">
  <g>
    <path class="st0" d="M461.552,203.507c52.163,90.35,21.205,205.878-69.145,258.042c-90.347,52.162-205.877,21.207-258.039-69.142
      c-52.165-90.349-21.208-205.877,69.143-258.041C293.859,82.203,409.386,113.158,461.552,203.507z"/>
    <line class="st1" x1="297.96" y1="109.032" x2="297.96" y2="486.884"/>
    <line class="st1" x1="203.498" y1="134.343" x2="392.423" y2="461.572"/>
    <line class="st1" x1="134.346" y1="203.494" x2="461.574" y2="392.42"/>
    <line class="st1" x1="109.034" y1="297.957" x2="486.886" y2="297.958"/>
    <line class="st1" x1="134.344" y1="392.42" x2="461.573" y2="203.495"/>
    <line class="st1" x1="203.495" y1="461.573" x2="392.423" y2="134.344"/>
  </g>
  <g>
    <circle class="st0" cx="0.002" cy="297.956" r="188.9"/>
    <line class="st1" x1="0.002" y1="109.031" x2="0.002" y2="486.884"/>
    <line class="st1" x1="-94.46" y1="134.342" x2="94.465" y2="461.572"/>
    <line class="st1" x1="-163.612" y1="203.494" x2="163.617" y2="392.42"/>
    <line class="st1" x1="-188.924" y1="297.957" x2="188.927" y2="297.957"/>
    <line class="st1" x1="-163.614" y1="392.42" x2="163.615" y2="203.495"/>
    <line class="st1" x1="-94.462" y1="461.572" x2="94.465" y2="134.343"/>
  </g>
  <g>
    <circle class="st0" cx="0.002" cy="-0.004" r="188.9"/>
    <line class="st1" x1="0.002" y1="-188.929" x2="0.002" y2="188.924"/>
    <line class="st1" x1="-94.46" y1="-163.618" x2="94.465" y2="163.612"/>
    <line class="st1" x1="-163.612" y1="-94.466" x2="163.617" y2="94.46"/>
    <line class="st1" x1="-188.924" y1="-0.003" x2="188.927" y2="-0.003"/>
    <line class="st1" x1="-163.614" y1="94.46" x2="163.615" y2="-94.465"/>
    <line class="st1" x1="-94.462" y1="163.612" x2="94.465" y2="-163.617"/>
  </g>
  <g>
    <path class="st0" d="M461.552-94.454c52.165,90.35,21.206,205.878-69.144,258.042c-90.348,52.162-205.877,21.207-258.039-69.142
      C82.205,4.098,113.16-111.431,203.511-163.595C293.86-215.758,409.387-184.802,461.552-94.454z"/>
    <line class="st1" x1="297.961" y1="-188.929" x2="297.961" y2="188.924"/>
    <line class="st1" x1="203.498" y1="-163.618" x2="392.424" y2="163.612"/>
    <line class="st1" x1="134.348" y1="-94.466" x2="461.576" y2="94.46"/>
    <line class="st1" x1="109.035" y1="-0.003" x2="486.886" y2="-0.003"/>
    <line class="st1" x1="134.345" y1="94.46" x2="461.574" y2="-94.465"/>
    <line class="st1" x1="203.497" y1="163.612" x2="392.423" y2="-163.617"/>
  </g>
  <g>
    <circle class="st0" cx="595.918" cy="-0.004" r="188.899"/>
    <line class="st1" x1="595.919" y1="-188.929" x2="595.919" y2="188.924"/>
    <line class="st1" x1="501.456" y1="-163.618" x2="690.382" y2="163.612"/>
    <line class="st1" x1="432.305" y1="-94.466" x2="759.533" y2="94.46"/>
    <line class="st1" x1="406.992" y1="-0.003" x2="784.844" y2="-0.003"/>
    <line class="st1" x1="432.303" y1="94.46" x2="759.532" y2="-94.465"/>
    <line class="st1" x1="501.455" y1="163.612" x2="690.381" y2="-163.617"/>
  </g>
  <g>
    <circle class="st0" cx="0.002" cy="595.917" r="188.9"/>
    <line class="st1" x1="0.002" y1="406.992" x2="0.002" y2="784.845"/>
    <line class="st1" x1="-94.46" y1="432.303" x2="94.465" y2="759.532"/>
    <line class="st1" x1="-163.612" y1="501.454" x2="163.617" y2="690.38"/>
    <line class="st1" x1="-188.924" y1="595.917" x2="188.927" y2="595.917"/>
    <line class="st1" x1="-163.614" y1="690.38" x2="163.615" y2="501.455"/>
    <line class="st1" x1="-94.462" y1="759.532" x2="94.465" y2="432.304"/>
  </g>
  <g>
    <path class="st0" d="M461.552,501.467c52.165,90.35,21.206,205.878-69.144,258.042c-90.348,52.162-205.877,21.207-258.039-69.143
      c-52.164-90.348-21.209-205.877,69.142-258.041C293.86,380.163,409.387,411.118,461.552,501.467z"/>
    <line class="st1" x1="297.961" y1="406.992" x2="297.961" y2="784.845"/>
    <line class="st1" x1="203.498" y1="432.303" x2="392.424" y2="759.532"/>
    <line class="st1" x1="134.348" y1="501.454" x2="461.576" y2="690.38"/>
    <line class="st1" x1="109.035" y1="595.917" x2="486.886" y2="595.917"/>
    <line class="st1" x1="134.345" y1="690.38" x2="461.574" y2="501.455"/>
    <line class="st1" x1="203.497" y1="759.532" x2="392.423" y2="432.304"/>
  </g>
  <g>
    <circle class="st0" cx="595.918" cy="595.917" r="188.899"/>
    <line class="st1" x1="595.919" y1="406.992" x2="595.919" y2="784.845"/>
    <line class="st1" x1="501.456" y1="432.303" x2="690.382" y2="759.532"/>
    <line class="st1" x1="432.305" y1="501.454" x2="759.533" y2="690.38"/>
    <line class="st1" x1="406.992" y1="595.917" x2="784.844" y2="595.917"/>
    <line class="st1" x1="432.303" y1="690.38" x2="759.532" y2="501.455"/>
    <line class="st1" x1="501.455" y1="759.532" x2="690.381" y2="432.304"/>
  </g>
  <g>
    <circle class="st0" cx="595.918" cy="297.956" r="188.899"/>
    <line class="st1" x1="595.919" y1="109.031" x2="595.919" y2="486.884"/>
    <line class="st1" x1="501.456" y1="134.342" x2="690.382" y2="461.572"/>
    <line class="st1" x1="432.305" y1="203.494" x2="759.533" y2="392.419"/>
    <line class="st1" x1="406.992" y1="297.957" x2="784.844" y2="297.957"/>
    <line class="st1" x1="432.303" y1="392.419" x2="759.532" y2="203.495"/>
    <line class="st1" x1="501.455" y1="461.572" x2="690.381" y2="134.343"/>
  </g>

      </g>
</svg>
