<?xml version="1.0" encoding="utf-8"?>
<svg version="1.1" xmlns="http://www.w3.org/2000/svg" xmlns:xlink="http://www.w3.org/1999/xlink" x="0px" y="0px"
	 width="901" height="520" viewBox="0 0 100% 100%" xml:space="preserve">
	<style>
    :root {
      --black: #443430;
      --red: #BF402B;
      --gold: #CEA600;
      --turquois: #4D9BA3;
      --emerald: #216554;
      --blue: #262F66;
      --white: #FFFAF2;
      --lightBlue: #2AAFDD;
    }

		.shape-1 {
			fill: var(--white);
		}
		.shape-2 {
			fill: var(--red);
		}
		.shape-3 {
			fill: var(--black);
		}
<!-- 		.lines {
			fill: none;
			stroke: #fff;
			stroke-width: 20px;
		}
 -->		.guides {
			stroke: #4FFF4F;
  		display: none;
		}
	</style>
	<g id="pattern"  class="lines">
		<rect x="-76.499" y="-29.774" class="shape-1" width="1008.021" height="580.501"/>
		<polygon class="shape-2" points="-71.5,87.103 128.5,87.103 228.5,260.308 128.5,433.513 -71.499,433.512 -171.499,260.308"/>
		<polygon class="shape-2" points="378.501,346.91 578.502,346.91 678.502,520.115 578.501,693.321 378.502,693.32 278.503,520.115"/>
		<polygon class="shape-2" points="378.5,-172.705 578.501,-172.705 678.501,0.5 578.5,173.706 378.501,173.705 278.502,0.5"/>
		<polygon class="shape-2" points="828.5,87.104 1028.5,87.104 1128.5,260.309 1028.5,433.514 828.5,433.513 728.501,260.309"/>
		<polygon class="shape-3" points="278.501,173.705 378.501,173.705 428.501,260.308 378.501,346.91 278.501,346.91 228.5,260.308"/>
		<polygon class="shape-3" points="578.5,173.706 678.501,173.706 728.501,260.309 678.501,346.911 578.5,346.911 528.5,260.309"/>
		<polygon class="shape-3" points="728.501,-86.102 828.502,-86.102 878.502,0.501 828.502,87.104 728.501,87.104 678.5,0.501"/>
		<polygon class="shape-3" points="128.501,-86.102 228.501,-86.102 278.501,0.5 228.501,87.103 128.501,87.103 78.5,0.5"/>
		<polygon class="shape-3" points="728.501,433.513 828.501,433.513 878.501,520.116 828.501,606.718 728.501,606.718 678.5,520.116"/>
		<polygon class="shape-3" points="128.5,433.513 228.5,433.513 278.5,520.116 228.5,606.718 128.5,606.718 78.499,520.116"/>
	</g>
			<g class="guides">
				<line x1="-21.499" y1="-692.32" x2="-721.499" y2="520.115"/>
				<line x1="78.501" y1="-692.32" x2="-621.499" y2="520.115"/>
				<line x1="178.501" y1="-692.32" x2="-521.499" y2="520.115"/>
				<line x1="278.501" y1="-692.32" x2="-421.499" y2="520.115"/>
				<line x1="378.501" y1="-692.32" x2="-321.499" y2="520.115"/>
				<line x1="478.501" y1="-692.32" x2="-221.499" y2="520.115"/>
				<line x1="578.501" y1="-692.32" x2="-121.499" y2="520.115"/>
				<line x1="678.501" y1="-692.32" x2="-21.499" y2="520.115"/>
				<line x1="778.501" y1="-692.32" x2="78.501" y2="520.115"/>
				<line x1="878.501" y1="-692.32" x2="178.501" y2="520.115"/>
				<line x1="978.501" y1="-692.32" x2="278.501" y2="520.115"/>
				<line x1="1078.501" y1="-692.32" x2="378.501" y2="520.115"/>
				<line x1="1178.501" y1="-692.319" x2="478.501" y2="520.116"/>
				<line x1="1278.501" y1="-692.32" x2="578.501" y2="520.115"/>
				<line x1="1378.501" y1="-692.32" x2="678.501" y2="520.115"/>
				<line x1="1478.501" y1="-692.32" x2="778.501" y2="520.115"/>
				<line x1="1578.501" y1="-692.32" x2="878.501" y2="520.115"/>
				<line x1="878.501" y1="-692.319" x2="1578.501" y2="520.116"/>
				<line x1="778.501" y1="-692.319" x2="1478.501" y2="520.116"/>
				<line x1="678.501" y1="-692.319" x2="1378.501" y2="520.116"/>
				<line x1="578.501" y1="-692.319" x2="1278.501" y2="520.116"/>
				<line x1="478.501" y1="-692.319" x2="1178.501" y2="520.116"/>
				<line x1="378.501" y1="-692.319" x2="1078.501" y2="520.116"/>
				<line x1="278.501" y1="-692.319" x2="978.501" y2="520.116"/>
				<line x1="178.501" y1="-692.319" x2="878.501" y2="520.116"/>
				<line x1="78.501" y1="-692.319" x2="778.501" y2="520.116"/>
				<line x1="-21.499" y1="-692.319" x2="678.501" y2="520.116"/>
				<line x1="-121.499" y1="-692.319" x2="578.501" y2="520.116"/>
				<line x1="-221.499" y1="-692.319" x2="478.501" y2="520.116"/>
				<line x1="-321.499" y1="-692.32" x2="378.501" y2="520.115"/>
				<line x1="-421.499" y1="-692.319" x2="278.501" y2="520.116"/>
				<line x1="-521.499" y1="-692.319" x2="178.501" y2="520.116"/>
				<line x1="-621.499" y1="-692.319" x2="78.501" y2="520.116"/>
				<line x1="-721.499" y1="-692.319" x2="-21.499" y2="520.116"/>
				<line x1="-371.499" y1="-86.103" x2="1228.501" y2="-86.103"/>
				<line x1="-421.499" y1="0.5" x2="1178.501" y2="0.5"/>
				<line x1="-471.499" y1="87.103" x2="1328.501" y2="87.103"/>
				<line x1="-521.499" y1="173.705" x2="1378.501" y2="173.705"/>
				<line x1="-571.499" y1="260.308" x2="1428.501" y2="260.308"/>
				<line x1="-622.505" y1="346.91" x2="1487.191" y2="346.91"/>
				<line x1="-671.499" y1="433.512" x2="1537.501" y2="433.512"/>
			</g>

</svg>