<svg xmlns="http://www.w3.org/2000/svg" width="901" height="520" viewBox="0 0 901 520">
  <style>
    :root { --black: #443430; --red: #BF402B; --gold: #CEA600; --turquois: #4D9BA3; --emerald: #216554; --blue: #262F66; --white: #FFFAF2; --lightBlue: #2AAFDD; } .shape-1 { fill: var(--white); } .shape-2 { fill: var(--red); } .shape-3 { fill: var(--black); } .guides { stroke: #4FFF4F; display: none; }
  </style>
  <g id="pattern" class="line">
    <path class="shape-1" d="M428.5 260.3l-50-86.6h200l-50 86.6 50 86.6h-200l50-86.6zm150 86.6l100 173.2 50-86.6h100l-100-173.2-50 86.6h-100zM878.5.5l-50 86.6h103V-29.8H861L878.5.5zm-500 173.2L278.5.5 296-29.8h-35L278.5.5l-50 86.6h-100L78.5.5 96-29.8H-76.5V95.8l5-8.7h200l100 173.2 50-86.6h100zM661-29.8L678.5.5 696-29.8h-35zm67.5 290.1l100-173.2h-100L678.5.5l-100 173.2h100l50 86.6zm-32.3 290.4l-17.7-30.6-17.7 30.6h35.4zM78.5 520.1l50-86.6h-200l-5-8.6v125.8H96.2l-17.7-30.6zm750-86.6l50 86.6-17.7 30.6h70.7V433.5h-103zm-550 86.6l-17.7 30.6h35.4l-17.7-30.6 100-173.2h-100l-50-86.6-100 173.2h100l50 86.6z"/>
    <path class="shape-2" d="M-71.5 87.1h200l100 173.2-100 173.2h-200l-100-173.2zM378.5 346.9h200l100 173.2-100 173.2h-200l-100-173.2zM378.5-172.7h200L678.5.5l-100 173.2h-200L278.5.5zM828.5 87.1h200l100 173.2-100 173.2h-200l-100-173.2z"/>
    <path class="shape-3" d="M278.5 173.7h100l50 86.6-50 86.6h-100l-50-86.6zM578.5 173.7h100l50 86.6-50 86.6h-100l-50-86.6zM728.5-86.1h100l50 86.6-50 86.6h-100L678.5.5zM128.5-86.1h100l50 86.6-50 86.6h-100L78.5.5zM728.5 433.5h100l50 86.6-50 86.6h-100l-50-86.6zM128.5 433.5h100l50 86.6-50 86.6h-100l-50-86.6z"/>
  </g>
  <g class="guides">
    <path d="M-21.5-692.3l-700 1212.4M78.5-692.3l-700 1212.4M178.5-692.3l-700 1212.4M278.5-692.3l-700 1212.4M378.5-692.3l-700 1212.4M478.5-692.3l-700 1212.4M578.5-692.3l-700 1212.4M678.5-692.3l-700 1212.4M778.5-692.3L78.5 520.1M878.5-692.3l-700 1212.4M978.5-692.3l-700 1212.4M1078.5-692.3l-700 1212.4M1178.5-692.3l-700 1212.4M1278.5-692.3l-700 1212.4M1378.5-692.3l-700 1212.4M1478.5-692.3l-700 1212.4M1578.5-692.3l-700 1212.4M878.5-692.3l700 1212.4M778.5-692.3l700 1212.4M678.5-692.3l700 1212.4M578.5-692.3l700 1212.4M478.5-692.3l700 1212.4M378.5-692.3l700 1212.4M278.5-692.3l700 1212.4M178.5-692.3l700 1212.4M78.5-692.3l700 1212.4M-21.5-692.3l700 1212.4M-121.5-692.3l700 1212.4M-221.5-692.3l700 1212.4M-321.5-692.3l700 1212.4M-421.5-692.3l700 1212.4M-521.5-692.3l700 1212.4M-621.5-692.3l700 1212.4M-721.5-692.3l700 1212.4M-371.5-86.1h1600M-421.5.5h1600M-471.5 87.1h1800M-521.5 173.7h1900M-571.5 260.3h2000M-622.5 346.9h2109.7M-671.5 433.5h2209"/>
  </g>
</svg>
