<?xml version="1.0" encoding="utf-8"?>
<svg version="1.1" xmlns="http://www.w3.org/2000/svg" xmlns:xlink="http://www.w3.org/1999/xlink" x="0px" y="0px"
	  width="601" height="1040" viewBox="0 0 100% 100%" xml:space="preserve">
	<style>
		.shape-1 {
			fill: #907A58;
		}
		.shape-2 {
			fill: #475387;
		}
		.shape-3 {
			fill: #475387;
		}
		.lines {
			fill: none;
			stroke: #fff;
			stroke-width: 20px;
		}
		.guides {
			stroke: #4FFF4F;
			display: none;
		}
	</style>
		<g class="pattern">
			<g class="shapes">
				<rect class="shape-1" x="-16.679" y="-16.397" width="636.063" height="1086.815"/>
				<polygon class="shape-2" points="-99.424,606.794 100.576,606.794 200.576,780 100.576,953.205 -99.423,953.204 -199.423,780 	"/>
				<polygon class="shape-2" points="200.576,87.18 400.576,87.18 500.576,260.385 400.576,433.591 200.577,433.59 100.577,260.385 	"/>
				<polygon class="shape-2" points="500.576,606.795 700.576,606.795 800.575,780 700.576,953.206 500.577,953.205 400.577,780 	"/>
				<polygon class="shape-3" points="250.577,693.397 350.577,693.397 400.577,780 350.577,866.602 250.577,866.602 200.576,780 	"/>
				<polygon class="shape-3" points="400.576,433.591 500.576,433.591 550.576,520.193 500.576,606.796 400.576,606.796 350.575,520.193 	"/>
				<polygon class="shape-3" points="550.577,173.783 650.578,173.783 700.578,260.385 650.578,346.988 550.577,346.988 500.576,260.385 						"/>
				<polygon class="shape-3" points="400.576,-86.025 500.577,-86.025 550.577,0.578 500.577,87.18 400.576,87.18 350.575,0.578 	"/>
				<polygon class="shape-3" points="100.575,-86.025 200.576,-86.025 250.576,0.578 200.576,87.18 100.575,87.18 50.574,0.578 	"/>
				<polygon class="shape-3" points="100.577,433.59 200.577,433.59 250.577,520.192 200.577,606.795 100.577,606.795 50.576,520.192 	"/>
				<polygon class="shape-3" points="-49.423,173.783 50.577,173.783 100.577,260.385 50.577,346.988 -49.423,346.988 -99.424,260.385 	"/>
				<polygon class="shape-3" points="400.577,953.205 500.577,953.205 550.577,1039.808 500.577,1126.41 400.577,1126.41 350.576,1039.808 						"/>
				<polygon class="shape-3" points="100.576,953.205 200.576,953.205 250.576,1039.808 200.576,1126.41 100.576,1126.41 50.575,1039.808 			"/>

			</g>
			
			<g class="lines">
				<polygon points="-99.424,606.794 100.576,606.794 200.576,780 100.576,953.205 -99.423,953.204 -199.423,780 	"/>
				<polygon points="200.576,87.18 400.576,87.18 500.576,260.385 400.576,433.591 200.577,433.59 100.577,260.385 	"/>
				<polygon points="500.576,606.795 700.576,606.795 800.575,780 700.576,953.206 500.577,953.205 400.577,780 	"/>
				<polygon points="250.577,693.397 350.577,693.397 400.577,780 350.577,866.602 250.577,866.602 200.576,780 	"/>
				<polygon points="400.576,433.591 500.576,433.591 550.576,520.193 500.576,606.796 400.576,606.796 350.575,520.193 	"/>
				<polygon points="550.577,173.783 650.578,173.783 700.578,260.385 650.578,346.988 550.577,346.988 500.576,260.385 						"/>
				<polygon points="400.576,-86.025 500.577,-86.025 550.577,0.578 500.577,87.18 400.576,87.18 350.575,0.578 	"/>
				<polygon points="100.575,-86.025 200.576,-86.025 250.576,0.578 200.576,87.18 100.575,87.18 50.574,0.578 	"/>
				<polygon points="100.577,433.59 200.577,433.59 250.577,520.192 200.577,606.795 100.577,606.795 50.576,520.192 	"/>
				<polygon points="-49.423,173.783 50.577,173.783 100.577,260.385 50.577,346.988 -49.423,346.988 -99.424,260.385 	"/>
				<polygon points="400.577,953.205 500.577,953.205 550.577,1039.808 500.577,1126.41 400.577,1126.41 350.576,1039.808 						"/>
				<polygon points="100.576,953.205 200.576,953.205 250.576,1039.808 200.576,1126.41 100.576,1126.41 50.575,1039.808 			"/>
			</g>
		</g>

			<g class="guides">
					<line class="st0" x1="-49.423" y1="-172.628" x2="-749.423" y2="1039.807"/>
					<line class="st0" x1="50.577" y1="-172.628" x2="-649.423" y2="1039.807"/>
					<line class="st0" x1="150.577" y1="-172.628" x2="-549.423" y2="1039.807"/>
					<line class="st0" x1="250.577" y1="-172.628" x2="-449.423" y2="1039.807"/>
					<line class="st0" x1="350.577" y1="-172.628" x2="-349.423" y2="1039.807"/>
					<line class="st0" x1="450.577" y1="-172.628" x2="-249.423" y2="1039.807"/>
					<line class="st0" x1="550.577" y1="-172.628" x2="-149.423" y2="1039.807"/>
					<line class="st0" x1="650.577" y1="-172.628" x2="-49.423" y2="1039.807"/>
					<line class="st0" x1="750.577" y1="-172.628" x2="50.577" y2="1039.807"/>
					<line class="st0" x1="850.577" y1="-172.628" x2="150.577" y2="1039.807"/>
					<line class="st0" x1="950.577" y1="-172.628" x2="250.577" y2="1039.807"/>
					<line class="st0" x1="1050.577" y1="-172.628" x2="350.577" y2="1039.807"/>
					<line class="st0" x1="1150.577" y1="-172.627" x2="450.577" y2="1039.808"/>
					<line class="st0" x1="1250.577" y1="-172.628" x2="550.577" y2="1039.807"/>
					<line class="st0" x1="1350.577" y1="-172.628" x2="650.577" y2="1039.807"/>
					<line class="st0" x1="1450.577" y1="-172.628" x2="750.577" y2="1039.807"/>
					<line class="st0" x1="1550.577" y1="-172.628" x2="850.577" y2="1039.807"/>
					<line class="st0" x1="850.577" y1="-172.627" x2="1550.577" y2="1039.808"/>
					<line class="st0" x1="750.577" y1="-172.627" x2="1450.577" y2="1039.808"/>
					<line class="st0" x1="650.577" y1="-172.627" x2="1350.577" y2="1039.808"/>
					<line class="st0" x1="550.577" y1="-172.627" x2="1250.577" y2="1039.808"/>
					<line class="st0" x1="450.577" y1="-172.627" x2="1150.577" y2="1039.808"/>
					<line class="st0" x1="350.577" y1="-172.627" x2="1050.577" y2="1039.808"/>
					<line class="st0" x1="250.577" y1="-172.627" x2="950.577" y2="1039.808"/>
					<line class="st0" x1="150.577" y1="-172.627" x2="850.577" y2="1039.808"/>
					<line class="st0" x1="50.577" y1="-172.627" x2="750.577" y2="1039.808"/>
					<line class="st0" x1="-49.423" y1="-172.627" x2="650.577" y2="1039.808"/>
					<line class="st0" x1="-149.423" y1="-172.627" x2="550.577" y2="1039.808"/>
					<line class="st0" x1="-249.423" y1="-172.627" x2="450.577" y2="1039.808"/>
					<line class="st0" x1="-349.423" y1="-172.628" x2="350.577" y2="1039.807"/>
					<line class="st0" x1="-449.423" y1="-172.627" x2="250.577" y2="1039.808"/>
					<line class="st0" x1="-549.423" y1="-172.627" x2="150.577" y2="1039.808"/>
					<line class="st0" x1="-649.423" y1="-172.627" x2="50.577" y2="1039.808"/>
					<line class="st0" x1="-749.423" y1="-172.627" x2="-49.423" y2="1039.808"/>
					<line class="st0" x1="-399.423" y1="433.589" x2="1200.577" y2="433.589"/>
					<line class="st0" x1="-349.423" y1="346.987" x2="1250.577" y2="346.987"/>
					<line class="st0" x1="-299.423" y1="260.385" x2="1300.577" y2="260.385"/>
					<line class="st0" x1="-249.423" y1="173.782" x2="1350.577" y2="173.782"/>
					<line class="st0" x1="-199.423" y1="87.179" x2="1400.577" y2="87.179"/>
					<line class="st0" x1="-149.423" y1="0.577" x2="1450.577" y2="0.577"/>
					<line class="st0" x1="-99.423" y1="-86.025" x2="1500.577" y2="-86.025"/>
					<line class="st0" x1="-449.423" y1="520.192" x2="1150.577" y2="520.192"/>
					<line class="st0" x1="-499.423" y1="606.794" x2="1300.577" y2="606.794"/>
					<line class="st0" x1="-549.423" y1="693.397" x2="1350.577" y2="693.397"/>
					<line class="st0" x1="-599.423" y1="780" x2="1400.577" y2="780"/>
					<line class="st0" x1="-650.429" y1="866.602" x2="1459.267" y2="866.602"/>
					<line class="st0" x1="-699.423" y1="953.204" x2="1509.577" y2="953.204"/>
			</g>

</svg>