<svg xmlns="http://www.w3.org/2000/svg" width="601" height="1040" viewBox="0 0 601 1040">
  <style>
    :root { --black: #443430; --red: #BF402B; --gold: #CEA600; --turquois: #4D9BA3; --emerald: #216554; --blue: #262F66; --white: #FFFAF2; --lightBlue: #2AAFDD; } .shape-1 { fill: var(--white); } .shape-2 { fill: var(--red); } .shape-3 { fill: var(--black); } .guides { stroke: #4FFF4F; display: none; }
  </style>
  <g id="pattern" class="line">
    <path class="shape-1" d="M400.6 433.6l100-173.2 50 86.6h68.8v259.8H500.6l50-86.6-50-86.6h-100zm-50-433l9.8-17H240.8l9.8 17-50 86.6h200L350.6.6zm200 173.2h68.8V-16.4h-78.6l9.8 17-50 86.6h-100l100 173.2 50-86.6zm-450-86.6L50.6.6l9.8-17h-77v190.2h67.2l50 86.6 100-173.2h-100zm400 866l50 86.6-17.7 30.6h86.5V953.2H500.6zm0-346.4h-100l-50-86.6 50-86.6h-200l50 86.6-50 86.6h-100l-50-86.6 50-86.6h100l-100-173.2-50 86.6h-67.3v259.8h117.3l100 173.2 50-86.6h100l50 86.6-50 86.6h-100l-50-86.6-100 173.2h100l50 86.6-17.7 30.6h135.3l-17.6-30.6 50-86.6h100L400.6 780l100-173.2zm-517.3 463.6h85l-17.7-30.6 50-86.6H-16.7v117.2z"/>
    <path class="shape-2" d="M-99.4 606.8h200l100 173.2-100 173.2h-200l-100-173.2zM200.6 87.2h200l100 173.2-100 173.2h-200l-100-173.2zM500.6 606.8h200l100 173.2-100 173.2h-200L400.6 780z"/>
    <path class="shape-3" d="M250.6 693.4h100l50 86.6-50 86.6h-100l-50-86.6zM400.6 433.6h100l50 86.6-50 86.6h-100l-50-86.6zM550.6 173.8h100l50 86.6-50 86.6h-100l-50-86.6zM400.6-86h100l50 86.6-50 86.6h-100L350.6.6zM100.6-86h100l50 86.6-50 86.6h-100L50.6.6zM100.6 433.6h100l50 86.6-50 86.6h-100l-50-86.6zM-49.4 173.8h100l50 86.6-50 86.6h-100l-50-86.6zM400.6 953.2h100l50 86.6-50 86.6h-100l-50-86.6zM100.6 953.2h100l50 86.6-50 86.6h-100l-50-86.6z"/>
  </g>
  <g class="guides">
    <path d="M-49.4-172.6l-700 1212.4M50.6-172.6l-700 1212.4M150.6-172.6l-700 1212.4M250.6-172.6l-700 1212.4M350.6-172.6l-700 1212.4M450.6-172.6l-700 1212.4M550.6-172.6l-700 1212.4M650.6-172.6l-700 1212.4M750.6-172.6l-700 1212.4M850.6-172.6l-700 1212.4M950.6-172.6l-700 1212.4M1050.6-172.6l-700 1212.4M1150.6-172.6l-700 1212.4M1250.6-172.6l-700 1212.4M1350.6-172.6l-700 1212.4M1450.6-172.6l-700 1212.4M1550.6-172.6l-700 1212.4M850.6-172.6l700 1212.4M750.6-172.6l700 1212.4M650.6-172.6l700 1212.4M550.6-172.6l700 1212.4M450.6-172.6l700 1212.4M350.6-172.6l700 1212.4M250.6-172.6l700 1212.4M150.6-172.6l700 1212.4M50.6-172.6l700 1212.4M-49.4-172.6l700 1212.4M-149.4-172.6l700 1212.4M-249.4-172.6l700 1212.4M-349.4-172.6l700 1212.4M-449.4-172.6l700 1212.4M-549.4-172.6l700 1212.4M-649.4-172.6l700 1212.4M-749.4-172.6l700 1212.4M-399.4 433.6h1600M-349.4 347h1600M-299.4 260.4h1600M-249.4 173.8h1600M-199.4 87.2h1600M-149.4.6h1600M-99.4-86h1600M-449.4 520.2h1600M-499.4 606.8h1800M-549.4 693.4h1900M-599.4 780h2000M-650.4 866.6h2109.7M-699.4 953.2h2209"/>
  </g>
</svg>
