<?xml version="1.0" encoding="utf-8"?>
<svg version="1.1" xmlns="http://www.w3.org/2000/svg" xmlns:xlink="http://www.w3.org/1999/xlink" x="0px" y="0px"
	 width="1000" height="1039" viewBox="0 0 100% 100%" xml:space="preserve">
	<style>
		.shape-1 {
			fill: #907A58; // aranybarna
		}
		.shape-2 {
			fill: #406A72;
		}
		.shape-3 {
			fill: #475387;
		}
		.shape-4 {
			fill: #4A9AC4;
		}
		.shape-5 {
			fill: #AA8858;
		}
		.lines {
			fill: none;
			stroke: #fff;
			stroke-width: 25px;
		}
		.guides {
			stroke: #4FFF4F;
			display: none;
		}
	</style>
		<g id="pattern">
			<g class="shapes">
				<rect x="-80.278" y="-52.978" class="shape-1" width="1196.06" height="1159.149"/>
				<polygon class="shape-2" points="500.059,346.556 450.059,433.158 350.059,433.158 400.059,519.761 350.058,606.363 450.059,606.363 
					500.059,692.966 550.059,606.363 650.059,606.364 600.059,519.761 650.059,433.158 550.059,433.158 	"/>
				<polygon class="shape-2" points="1000.09,-173.059 950.09,-86.456 850.091,-86.456 900.09,0.146 850.09,86.749 950.09,86.749 
					1000.09,173.352 1050.09,86.749 1150.09,86.75 1100.09,0.146 1150.09,-86.456 1050.09,-86.456 	"/>
				<polygon class="shape-2" points="0.028,-173.059 -49.972,-86.457 -149.971,-86.457 -99.972,0.146 -149.972,86.749 -49.972,86.749 
					0.028,173.352 50.028,86.749 150.028,86.749 100.028,0.146 150.028,-86.457 50.028,-86.457 	"/>
				<polygon class="shape-2" points="1000.088,866.17 950.088,952.773 850.089,952.773 900.088,1039.375 850.088,1125.978 
					950.088,1125.978 1000.088,1212.582 1050.088,1125.978 1150.088,1125.979 1100.088,1039.375 1150.088,952.773 1050.088,952.773 	
					"/>
				<polygon class="shape-2" points="0.027,866.17 -49.973,952.772 -149.973,952.772 -99.973,1039.375 -149.974,1125.978 -49.973,1125.978 
					0.027,1212.581 50.027,1125.978 150.027,1125.978 100.027,1039.375 150.027,952.772 50.027,952.772 	"/>
				<polygon class="shape-3" points="350.059,433.158 250.059,259.954 200.059,346.57 100.059,346.556 200.09,519.761 250.059,433.158 	
					"/>
				<polygon class="shape-3" points="400.028,173.352 300.028,0.147 250.028,86.764 150.028,86.749 250.059,259.954 300.028,173.352 	"/>
				<polygon class="shape-3" points="900.059,346.556 800.059,519.76 750.059,433.144 650.059,433.158 750.09,259.953 800.059,346.556 	
					"/>
				<polygon class="shape-3" points="850.09,86.749 750.09,259.953 700.09,173.337 600.09,173.352 700.121,0.146 750.09,86.749 	"/>
				<polygon class="shape-3" points="350.058,606.363 250.058,779.567 200.058,692.951 100.058,692.966 200.089,519.761 250.058,606.363 	
					"/>
				<polygon class="shape-3" points="400.027,866.17 300.027,1039.374 250.027,952.758 150.027,952.772 250.058,779.567 300.027,866.17 	
					"/>
				<polygon class="shape-3" points="900.059,692.966 800.059,519.762 750.059,606.378 650.059,606.364 750.089,779.569 800.059,692.966 	
					"/>
				<polygon class="shape-3" points="850.089,952.773 750.089,779.569 700.089,866.185 600.089,866.17 700.12,1039.375 750.089,952.773 	
					"/>
				<polygon class="shape-4" points="-99.974,692.965 0.027,866.17 100.026,692.965 	"/>
				<polygon class="shape-4" points="900.088,692.966 1000.088,866.17 1100.088,692.966 	"/>
				<polygon class="shape-4" points="400.059,173.351 500.059,346.556 600.059,173.351 	"/>
				<polygon class="shape-4" points="400.058,866.171 500.059,692.966 600.058,866.171 	"/>
				<polygon class="shape-4" points="-99.972,346.556 0.028,173.352 100.028,346.556 	"/>
				<polygon class="shape-4" points="900.09,346.557 1000.09,173.352 1100.09,346.557 	"/>
				<polygon class="shape-5" points="400,-173.205 300,0 400,173.205 600,173.205 700.121,0.146 600,-173.205 	"/>
				<polygon class="shape-5" points="-100.031,346.41 -200.032,519.614 -100.032,692.819 99.968,692.819 200.089,519.761 99.969,346.41 "/>
				<polygon class="shape-5" points="900.059,346.558 800.059,519.762 900.059,692.967 1100.059,692.967 1200.179,519.909 1100.059,346.558 	"/>
				<polygon class="shape-5" points="400.058,866.171 300.058,1039.375 400.058,1212.581 600.058,1212.581 700.178,1039.522 600.058,866.171 	"/>
			</g>
			
			<g class="lines">
				<polygon points="500.059,346.556 450.059,433.158 350.059,433.158 400.059,519.761 350.058,606.363 450.059,606.363 500.059,692.966 550.059,606.363 650.059,606.364 600.059,519.761 650.059,433.158 550.059,433.158 	"/>
				<polygon points="1000.09,-173.059 950.09,-86.456 850.091,-86.456 900.09,0.146 850.09,86.749 950.09,86.749 1000.09,173.352 1050.09,86.749 1150.09,86.75 1100.09,0.146 1150.09,-86.456 1050.09,-86.456 	"/>
				<polygon points="0.028,-173.059 -49.972,-86.457 -149.971,-86.457 -99.972,0.146 -149.972,86.749 -49.972,86.749 0.028,173.352 50.028,86.749 150.028,86.749 100.028,0.146 150.028,-86.457 50.028,-86.457 	"/>
				<polygon points="1000.088,866.17 950.088,952.773 850.089,952.773 900.088,1039.375 850.088,1125.978 950.088,1125.978 1000.088,1212.582 1050.088,1125.978 1150.088,1125.979 1100.088,1039.375 1150.088,952.773 1050.088,952.773 	"/>
				<polygon points="0.027,866.17 -49.973,952.772 -149.973,952.772 -99.973,1039.375 -149.974,1125.978 -49.973,1125.978 
					0.027,1212.581 50.027,1125.978 150.027,1125.978 100.027,1039.375 150.027,952.772 50.027,952.772 	"/>
				<polygon points="350.059,433.158 250.059,259.954 200.059,346.57 100.059,346.556 200.09,519.761 250.059,433.158 	
					"/>
				<polygon points="400.028,173.352 300.028,0.147 250.028,86.764 150.028,86.749 250.059,259.954 300.028,173.352 	"/>
				<polygon points="900.059,346.556 800.059,519.76 750.059,433.144 650.059,433.158 750.09,259.953 800.059,346.556 	
					"/>
				<polygon points="850.09,86.749 750.09,259.953 700.09,173.337 600.09,173.352 700.121,0.146 750.09,86.749 	"/>
				<polygon points="350.058,606.363 250.058,779.567 200.058,692.951 100.058,692.966 200.089,519.761 250.058,606.363 	
					"/>
				<polygon points="400.027,866.17 300.027,1039.374 250.027,952.758 150.027,952.772 250.058,779.567 300.027,866.17 	
					"/>
				<polygon points="900.059,692.966 800.059,519.762 750.059,606.378 650.059,606.364 750.089,779.569 800.059,692.966 	
					"/>
				<polygon points="850.089,952.773 750.089,779.569 700.089,866.185 600.089,866.17 700.12,1039.375 750.089,952.773 	
					"/>
				<polygon points="-99.974,692.965 0.027,866.17 100.026,692.965 	"/>
				<polygon points="900.088,692.966 1000.088,866.17 1100.088,692.966 	"/>
				<polygon points="400.059,173.351 500.059,346.556 600.059,173.351 	"/>
				<polygon points="400.058,866.171 500.059,692.966 600.058,866.171 	"/>
				<polygon points="-99.972,346.556 0.028,173.352 100.028,346.556 	"/>
				<polygon points="900.09,346.557 1000.09,173.352 1100.09,346.557 	"/>
			</g>
		</g>	

			<g class="guides">
				<line class="st0" x1="100" y1="-173.206" x2="-600" y2="1039.23"/>
				<line class="st0" x1="200" y1="-173.206" x2="-500" y2="1039.23"/>
				<line class="st0" x1="300" y1="-173.206" x2="-400" y2="1039.23"/>
				<line class="st0" x1="400" y1="-173.206" x2="-300" y2="1039.23"/>
				<line class="st0" x1="500" y1="-173.206" x2="-200" y2="1039.23"/>
				<line class="st0" x1="600" y1="-173.206" x2="-100" y2="1039.23"/>
				<line class="st0" x1="700" y1="-173.206" x2="0" y2="1039.23"/>
				<line class="st0" x1="800" y1="-173.206" x2="100" y2="1039.23"/>
				<line class="st0" x1="900" y1="-173.206" x2="200" y2="1039.23"/>
				<line class="st0" x1="1000" y1="-173.206" x2="300" y2="1039.23"/>
				<line class="st0" x1="1100" y1="-173.206" x2="400" y2="1039.23"/>
				<line class="st0" x1="1200" y1="-173.206" x2="500" y2="1039.23"/>
				<line class="st0" x1="1300" y1="-173.205" x2="600" y2="1039.231"/>
				<line class="st0" x1="1400" y1="-173.206" x2="700" y2="1039.23"/>
				<line class="st0" x1="1500" y1="-173.206" x2="800" y2="1039.23"/>
				<line class="st0" x1="1600" y1="-173.206" x2="900" y2="1039.23"/>
				<line class="st0" x1="1700" y1="-173.206" x2="1000" y2="1039.23"/>
				<line class="st0" x1="1000" y1="-173.205" x2="1700" y2="1039.231"/>
				<line class="st0" x1="900" y1="-173.205" x2="1600" y2="1039.231"/>
				<line class="st0" x1="800" y1="-173.205" x2="1500" y2="1039.231"/>
				<line class="st0" x1="700" y1="-173.205" x2="1400" y2="1039.231"/>
				<line class="st0" x1="600" y1="-173.205" x2="1300" y2="1039.231"/>
				<line class="st0" x1="500" y1="-173.205" x2="1200" y2="1039.231"/>
				<line class="st0" x1="400" y1="-173.205" x2="1100" y2="1039.231"/>
				<line class="st0" x1="300" y1="-173.205" x2="1000" y2="1039.231"/>
				<line class="st0" x1="200" y1="-173.205" x2="900" y2="1039.231"/>
				<line class="st0" x1="100" y1="-173.205" x2="800" y2="1039.231"/>
				<line class="st0" x1="0" y1="-173.205" x2="700" y2="1039.231"/>
				<line class="st0" x1="-100" y1="-173.205" x2="600" y2="1039.231"/>
				<line class="st0" x1="-200" y1="-173.206" x2="500" y2="1039.23"/>
				<line class="st0" x1="-300" y1="-173.205" x2="400" y2="1039.231"/>
				<line class="st0" x1="-400" y1="-173.205" x2="300" y2="1039.231"/>
				<line class="st0" x1="-500" y1="-173.205" x2="200" y2="1039.231"/>
				<line class="st0" x1="-600" y1="-173.205" x2="100" y2="1039.231"/>
				<line class="st0" x1="-250" y1="433.012" x2="1350" y2="433.012"/>
				<line class="st0" x1="-200" y1="346.41" x2="1400" y2="346.41"/>
				<line class="st0" x1="-150" y1="259.808" x2="1450" y2="259.808"/>
				<line class="st0" x1="-100" y1="173.205" x2="1500" y2="173.205"/>
				<line class="st0" x1="-50" y1="86.602" x2="1550" y2="86.602"/>
				<line class="st0" x1="0" y1="0" x2="1600" y2="0"/>
				<line class="st0" x1="50" y1="-86.603" x2="1650" y2="-86.603"/>
				<line class="st0" x1="-300" y1="519.615" x2="1300" y2="519.615"/>
				<line class="st0" x1="-350" y1="606.217" x2="1450" y2="606.217"/>
				<line class="st0" x1="-400" y1="692.82" x2="1500" y2="692.82"/>
				<line class="st0" x1="-450" y1="779.422" x2="1550" y2="779.422"/>
				<line class="st0" x1="-501.006" y1="866.025" x2="1608.69" y2="866.025"/>
				<line class="st0" x1="-550" y1="952.627" x2="1659" y2="952.627"/>
			</g>
</svg>