<svg xmlns="http://www.w3.org/2000/svg" width="1000" height="1039" viewBox="0 0 1000 1039">
  <style>
    :root { --black: #443430; --red: #BF402B; --gold: #CEA600; --turquois: #4D9BA3; --emerald: #216554; --blue: #262F66; --white: #FFFAF2; --lightBlue: #2AAFDD; } .shape-1 { fill: var(--white); } .shape-2 { fill: var(--turquois); } .shape-3 { fill: var(--red); } .shape-4 { fill: var(--black); } .shape-5 { fill: var(--white); } .guides { stroke: #4FFF4F; display: none; }
  </style>
  <g id="pattern" class="line">
    <path class="shape-1" d="M250 433.2h100l50 86.6-50 86.6H250l-50-86.6 50-86.6zm-150-86.6h100l50-86.6L150 86.7H50L0 173.4l100 173m0 346.6L0 866.2l50 86.6h100l100-173.2-50-86.6H100zM300 0l30.6-53H130.7L100 .1l50 86.6h100L300 .2m300 173.3L500 346.6l50 86.6h100L750 260l-50-86.7H600zm-200 0H300L250 260l100 173.2h100l50-86.6-100-173.3zm450-86.7L900 .1l-30.6-53h-200l30.7 53 50 86.6h100zm50 259.9l100-173.2-50-86.7H850L750 260l50 86.6h100zM750 433H650l-50 86.7 50 86.6h100l50-86.6-50-86.7zM900 693H800l-50 86.6 100 173.2h100l50-86.6L900 693zM400 866.2L500 693l-50-86.6H350L250 779.6l50 86.6h100zm-100 173.2l-50-86.6H150l-50 86.6 38.6 66.8h200l-38.5-66.8m361.5 66.8h200l38.5-66.8-50-86.6H750l-88.5 153.4zm38.5-240l50-86.6-100-173.2H550L500 693l100 173.2h100z"/>
    <path class="shape-2" d="M500.1 346.6l-50 86.6h-100l50 86.6-50 86.6h100l50 86.6 50-86.6h100l-50-86.6 50-86.6h-100zM1000.1-173.1l-50 86.6h-100l50 86.6-50 86.6h100l50 86.7 50-86.7 100 .1-50-86.7 50-86.6h-100zM0-173.1l-50 86.6h-100l50 86.6-50 86.6h100l50 86.7 50-86.7h100L100 .1l50-86.6H50zM1000.1 866.2l-50 86.6h-100l50 86.6-50 86.6h100l50 86.6 50-86.6h100l-50-86.6 50-86.6h-100zM0 866.2l-50 86.6h-100l50 86.6-50 86.6h100l50 86.6 50-86.6h100l-50-86.6 50-86.6H50z"/>
    <path class="shape-3" d="M350.1 433.2L250.1 260l-50 86.6h-100l100 173.2 50-86.6zM400 173.4L300 .1l-50 86.7-100-.1L250.1 260l49.9-86.6zM900.1 346.6l-100 173.2-50-86.7-100 .1 100-173.2 50 86.6zM850.1 86.7L750.1 260l-50-86.7-100 .1L700.1.1l50 86.6zM350.1 606.4l-100 173.2-50-86.6h-100l100-173.2 50 86.6zM400 866.2l-100 173.2-50-86.6H150l100.1-173.2 49.9 86.6zM900.1 693l-100-173.2-50 86.6h-100l100 173.2 50-86.6zM850.1 952.8l-100-173.2-50 86.6h-100l100 173.2 50-86.6z"/>
    <path class="shape-4" d="M-100 693L0 866.2 100 693zM900.1 693l100 173.2 100-173.2zM400.1 173.4l100 173.2 100-173.2zM400.1 866.2l100-173.2 100 173.2zM-100 346.6L0 173.4l100 173.2zM900.1 346.6l100-173.2 100 173.2z"/>
    <path class="shape-5" d="M400-173.2L300 0l100 173.2h200L700.1.1 600-173.2zM-100 346.4l-100 173.2 100 173.2h200l100.1-173L100 346.4zM900.1 346.6l-100 173.2 100 173.2h200l100.1-173.1-100.1-173.3zM400.1 866.2l-100 173.2 100 173.2h200l100.1-173.1-100.1-173.3z"/>
  </g>
  <g class="guides">
    <path class="st0" d="M100-173.2l-700 1212.4M200-173.2l-700 1212.4M300-173.2l-700 1212.4M400-173.2l-700 1212.4M500-173.2l-700 1212.4M600-173.2l-700 1212.4M700-173.2L0 1039.2M800-173.2L100 1039.2M900-173.2L200 1039.2M1000-173.2L300 1039.2M1100-173.2L400 1039.2M1200-173.2L500 1039.2M1300-173.2L600 1039.2M1400-173.2L700 1039.2M1500-173.2L800 1039.2M1600-173.2L900 1039.2M1700-173.2l-700 1212.4M1000-173.2l700 1212.4M900-173.2l700 1212.4M800-173.2l700 1212.4M700-173.2l700 1212.4M600-173.2l700 1212.4M500-173.2l700 1212.4M400-173.2l700 1212.4M300-173.2l700 1212.4M200-173.2l700 1212.4M100-173.2l700 1212.4M0-173.2l700 1212.4M-100-173.2l700 1212.4M-200-173.2l700 1212.4M-300-173.2l700 1212.4M-400-173.2l700 1212.4M-500-173.2l700 1212.4M-600-173.2l700 1212.4M-250 433h1600M-200 346.4h1600M-150 259.8h1600M-100 173.2h1600M-50 86.6h1600M0 0h1600M50-86.6h1600M-300 519.6h1600M-350 606.2h1800M-400 692.8h1900M-450 779.4h2000M-501 866h2109.7M-550 952.6h2209"/>
  </g>
</svg>
