<svg version="1.1" xmlns="http://www.w3.org/2000/svg" width="707.781" height="708.046"  viewBox="0 0 100% 100%">
  <style>
    :root {
      --golden: #907A58;
      --darkBlue: #475387;
      --beige: #DFD8CC;
      --teal: #4A9AC4;
      --gray: #A49DA0;
      --smaragd: #406A72;
      --sand: #D3BDA7;
      --grayGreen: #A2D1D6;
      --blueGray: #758390;
      --lightBrown: #AA8858;
      --blue1: #8EC5EE;
      --blue2: #8CC6EA;
      --blue3: #B6DAEC;
      --rust: #D8692D;
      --yellow: #F8C346;
    }
    .shape-1{fill:var(--darkBlue)}
    .shape-2{fill:var(--grayGreen)}
    .shape-3{fill:var(--teal)}
    .shape-4{fill:var(--sand)}
    .shape-5{fill:var(--gray)}
    .shape-6{fill:var(--golden)}
    .shape-7{fill:var(--blue3)}
    .line{stroke:#fff;stroke-width:10px}
    .guides{ stroke: #4FFF4F; display: none; fill: none}
  </style>
      <g class="line" id="pattern">
				<rect x="-40.941" y="-41.122" class="shape-1" width="789.667" height="790.194"/>
				<g>
					<polygon class="shape-2" points="176.868,224.406 129.459,224.406 47.296,176.951 74.654,129.564 129.46,129.493 129.459,192.779 
						161.096,192.779 176.868,176.952 192.695,192.779 192.695,224.406 		"/>
					<polygon class="shape-2" points="176.915,129.543 224.323,129.543 306.487,176.998 279.127,224.385 224.323,224.455 224.323,161.17 
						192.686,161.17 176.915,176.996 161.086,161.17 161.086,129.543 		"/>
					<polygon class="shape-2" points="578.323,176.998 578.323,129.59 530.868,47.426 483.481,74.784 483.41,129.59 546.696,129.59 
						546.696,161.227 530.868,176.998 546.696,192.825 578.323,192.825 		"/>
					<polygon class="shape-2" points="483.46,177.045 483.46,224.453 530.915,306.617 578.302,279.258 578.372,224.453 515.086,224.453 
						515.086,192.816 530.913,177.045 515.086,161.217 483.46,161.217 		"/>
					<polygon class="shape-2" points="129.459,530.998 129.459,578.406 176.915,660.57 224.301,633.211 224.373,578.406 161.086,578.406 
						161.086,546.77 176.914,530.998 161.086,515.17 129.459,515.17 		"/>
					<polygon class="shape-2" points="224.323,530.951 224.323,483.543 176.868,401.379 129.481,428.738 129.411,483.543 192.696,483.543 
						192.696,515.18 176.87,530.951 192.696,546.779 224.323,546.779 		"/>
					<polygon class="shape-2" points="530.868,578.453 483.46,578.453 401.295,530.998 428.653,483.611 483.46,483.54 483.46,546.826 
						515.097,546.826 530.868,530.998 546.694,546.826 546.694,578.453 		"/>
					<polygon class="shape-2" points="530.915,483.59 578.323,483.59 660.486,531.045 633.127,578.432 578.323,578.503 578.323,515.217 
						546.687,515.217 530.915,531.044 515.086,515.217 515.086,483.59 		"/>
				</g>
				<g>
					<polygon class="shape-3" points="224.323,176.998 224.323,224.406 176.868,306.57 129.48,279.212 129.41,224.406 192.695,224.406 
						192.695,192.77 176.868,176.998 192.695,161.171 224.323,161.171 		"/>
					<polygon class="shape-3" points="129.459,176.951 129.459,129.543 176.915,47.379 224.301,74.738 224.373,129.543 161.086,129.543 
						161.086,161.18 176.914,176.951 161.086,192.779 129.459,192.779 		"/>
					<polygon class="shape-3" points="530.868,129.59 483.46,129.59 401.295,177.045 428.655,224.432 483.46,224.503 483.46,161.217 
						515.097,161.217 530.868,177.044 546.696,161.217 546.696,129.59 		"/>
					<polygon class="shape-3" points="530.915,224.453 578.323,224.453 660.486,176.998 633.127,129.611 578.323,129.541 578.323,192.826 
						546.687,192.826 530.915,177 515.086,192.826 515.086,224.453 		"/>
					<polygon class="shape-3" points="176.868,483.543 129.459,483.543 47.295,530.998 74.654,578.385 129.459,578.456 129.459,515.17 
						161.096,515.17 176.868,530.998 192.695,515.17 192.695,483.543 		"/>
					<polygon class="shape-3" points="176.915,578.406 224.323,578.406 306.487,530.951 279.127,483.564 224.323,483.493 224.323,546.779 
						192.686,546.779 176.915,530.952 161.086,546.779 161.086,578.406 		"/>
					<polygon class="shape-3" points="483.46,530.998 483.46,483.59 530.915,401.426 578.302,428.785 578.372,483.59 515.086,483.59 
						515.086,515.227 530.913,530.998 515.086,546.826 483.46,546.826 		"/>
					<polygon class="shape-3" points="578.323,531.045 578.323,578.453 530.868,660.617 483.481,633.258 483.41,578.453 546.696,578.453 
						546.696,546.816 530.869,531.045 546.696,515.217 578.323,515.217 		"/>
				</g>
				<g>
					<polygon class="shape-4" points="428.655,224.432 401.295,177.045 353.915,149.688 353.915,149.614 306.487,176.998 279.127,224.385 
						332.53,224.424 353.868,268.578 353.868,268.722 353.903,268.649 353.915,268.674 353.915,268.626 375.252,224.472 		"/>
					<polygon class="shape-4" points="204.238,353.975 204.251,353.951 204.224,353.951 176.868,306.57 129.48,279.212 129.44,332.613 
						85.288,353.951 85.192,353.951 85.24,353.975 85.191,353.998 85.289,353.998 129.442,375.336 129.481,428.738 176.868,401.379 
						204.225,353.998 204.251,353.998 		"/>
					<polygon class="shape-4" points="375.252,483.57 353.915,439.418 353.915,439.274 353.88,439.347 353.868,439.321 353.868,439.371 
						332.53,483.524 279.127,483.564 306.487,530.951 353.868,558.308 353.868,558.381 401.295,530.998 428.653,483.611 		"/>
					<polygon class="shape-4" points="622.542,354.021 622.591,353.998 622.494,353.998 578.341,332.66 578.302,279.258 530.915,306.617 
						503.558,353.998 503.531,353.998 503.544,354.021 503.531,354.045 503.558,354.045 530.915,401.426 578.302,428.785 
						578.341,375.383 622.494,354.045 622.591,354.045 		"/>
					<polygon class="shape-4" points="268.592,-0.048 268.59,-0.049 268.591,-0.049 268.59,-0.049 224.342,-21.433 224.302,-74.835 
						176.915,-47.476 149.532,-0.049 149.531,-0.049 149.531,-0.048 149.531,-0.048 149.531,-0.048 176.915,47.379 224.301,74.738 
						224.341,21.336 268.589,-0.048 		"/>
					<polygon class="shape-4" points="558.252,-0.001 530.868,-47.429 483.481,-74.788 483.442,-21.386 439.194,-0.002 439.19,-0.002 
						439.192,-0.001 439.192,-0.001 439.192,-0.001 483.439,21.383 483.481,74.784 530.868,47.426 558.25,-0.001 		"/>
					<polygon class="shape-4" points="268.591,707.998 268.59,707.997 268.591,707.997 268.589,707.997 224.341,686.613 224.301,633.211 
						176.915,660.57 149.531,707.997 149.53,707.997 149.531,707.998 149.531,707.998 149.531,707.998 176.914,755.425 
						224.301,782.784 224.341,729.382 268.589,707.998 		"/>
					<polygon class="shape-4" points="558.251,708.045 530.868,660.617 483.481,633.258 483.442,686.66 439.194,708.044 439.19,708.044 
						439.192,708.045 439.192,708.045 439.192,708.045 483.439,729.429 483.479,782.83 530.866,755.472 558.248,708.045 		"/>
					<polygon class="shape-4" points="74.654,129.564 21.253,129.524 0.133,85.822 0.133,85.274 0,85.548 -0.132,85.274 -0.132,85.822 
						-21.252,129.524 -74.654,129.563 -47.295,176.95 -0.132,204.182 -0.132,204.335 0.001,204.258 0.133,204.334 0.133,204.182 
						47.296,176.951 		"/>
					<polygon class="shape-4" points="74.654,578.385 47.295,530.998 0.133,503.769 0.133,503.613 -0.001,503.69 -0.132,503.615 
						-0.132,503.767 -47.295,530.997 -74.654,578.384 -21.252,578.424 -0.132,622.125 -0.132,622.675 0,622.4 0.133,622.674 
						0.133,622.126 21.252,578.426 		"/>
					<polygon class="shape-4" points="782.437,129.612 729.034,129.572 707.915,85.872 707.915,85.322 707.782,85.597 707.649,85.322 
						707.649,85.872 686.53,129.572 633.127,129.611 660.486,176.998 707.649,204.229 707.649,204.383 707.783,204.306 
						707.915,204.382 707.915,204.229 755.077,176.999 		"/>
					<polygon class="shape-4" points="782.437,578.433 755.077,531.046 707.915,503.817 707.915,503.661 707.78,503.739 707.648,503.663 
						707.648,503.815 660.486,531.045 633.127,578.432 686.53,578.472 707.648,622.17 707.648,622.723 707.782,622.446 
						707.915,622.722 707.915,622.171 729.034,578.474 		"/>
				</g>
				<g>
					<polygon class="shape-5" points="224.323,224.406 176.868,306.57 204.251,353.998 227.965,312.925 282.728,312.925 253.564,268.666 
						279.077,224.406 		"/>
					<polygon class="shape-5" points="129.461,224.45 47.297,176.995 -0.131,204.379 40.942,228.092 40.942,282.855 85.201,253.691 
						129.461,279.204 		"/>
					<polygon class="shape-5" points="129.416,129.545 176.871,47.381 149.487,-0.047 125.774,41.026 71.011,41.026 100.175,85.285 
						74.662,129.545 		"/>
					<polygon class="shape-5" points="224.321,129.5 306.485,176.955 353.913,149.57 312.839,125.857 312.839,71.094 268.581,100.258 
						224.321,74.746 		"/>
					<polygon class="shape-5" points="224.366,224.404 176.911,306.568 204.295,353.996 228.008,312.922 282.772,312.922 253.608,268.664 
						279.12,224.404 		"/>
					<polygon class="shape-5" points="578.323,129.59 530.868,47.426 558.251,-0.002 581.965,41.071 636.728,41.071 607.564,85.33 
						633.077,129.59 		"/>
					<polygon class="shape-5" points="483.461,129.546 401.298,177.001 353.869,149.617 394.942,125.904 394.942,71.141 439.202,100.305 
						483.461,74.792 		"/>
					<polygon class="shape-5" points="483.416,224.451 530.872,306.615 503.486,354.043 479.773,312.97 425.011,312.97 454.174,268.711 
						428.663,224.451 		"/>
					<polygon class="shape-5" points="578.321,224.496 660.485,177.041 707.913,204.426 666.839,228.139 666.839,282.902 622.581,253.738 
						578.321,279.25 		"/>
					<polygon class="shape-5" points="578.365,129.592 530.91,47.428 558.296,0 582.009,41.074 636.772,41.074 607.608,85.332 
						633.119,129.592 		"/>
					<polygon class="shape-5" points="129.459,483.543 47.295,530.998 -0.132,503.615 40.941,479.9 40.941,425.139 85.2,454.301 
						129.459,428.789 		"/>
					<polygon class="shape-5" points="129.416,578.404 176.871,660.568 149.487,707.996 125.774,666.924 71.01,666.924 100.174,622.664 
						74.662,578.404 		"/>
					<polygon class="shape-5" points="224.321,578.449 306.485,530.994 353.913,558.379 312.839,582.092 312.839,636.855 268.581,607.691 
						224.321,633.203 		"/>
					<polygon class="shape-5" points="224.366,483.545 176.911,401.381 204.295,353.953 228.008,395.026 282.772,395.026 253.608,439.285 
						279.12,483.545 		"/>
					<polygon class="shape-5" points="129.461,483.5 47.297,530.955 -0.13,503.57 40.944,479.857 40.944,425.094 85.202,454.258 
						129.461,428.746 		"/>
					<polygon class="shape-5" points="483.46,578.453 401.295,530.998 353.868,558.381 394.94,582.096 394.94,636.857 439.199,607.695 
						483.46,633.207 		"/>
					<polygon class="shape-5" points="483.415,483.592 530.87,401.428 503.486,354 479.773,395.072 425.011,395.072 454.174,439.332 
						428.661,483.592 		"/>
					<polygon class="shape-5" points="578.321,483.547 660.485,531.002 707.913,503.617 666.839,479.904 666.839,425.141 622.581,454.305 
						578.321,428.793 		"/>
					<polygon class="shape-5" points="578.365,578.451 530.91,660.615 558.296,708.043 582.009,666.97 636.772,666.97 607.608,622.711 
						633.119,578.451 		"/>
					<polygon class="shape-5" points="483.461,578.496 401.298,531.041 353.87,558.426 394.943,582.139 394.943,636.902 439.202,607.738 
						483.461,633.25 		"/>
					<polygon class="shape-5" points="129.416,-129.642 176.871,-47.478 149.487,-0.05 125.774,-41.122 71.011,-41.122 100.175,-85.382 
						74.662,-129.642 		"/>
					<polygon class="shape-5" points="578.365,-129.595 530.91,-47.431 558.296,-0.003 582.009,-41.076 636.772,-41.076 607.608,-85.335 
						633.119,-129.595 		"/>
					<polygon class="shape-5" points="129.416,837.591 176.871,755.427 149.487,707.999 125.774,749.072 71.01,749.072 100.174,793.331 
						74.662,837.591 		"/>
					<polygon class="shape-5" points="578.321,837.636 530.866,755.472 558.249,708.044 581.964,749.117 636.726,749.117 607.564,793.376 
						633.075,837.636 		"/>
					<polygon class="shape-5" points="578.364,837.638 530.909,755.474 558.294,708.046 582.007,749.12 636.771,749.12 607.606,793.378 
						633.119,837.638 		"/>
					<polygon class="shape-5" points="-129.461,224.448 -47.297,176.993 0.131,204.378 -40.941,228.091 -40.941,282.854 -85.201,253.69 
						-129.461,279.202 		"/>
					<polygon class="shape-5" points="-129.461,483.499 -47.297,530.954 0.131,503.569 -40.941,479.856 -40.941,425.093 -85.201,454.257 
						-129.461,428.745 		"/>
					<polygon class="shape-5" points="837.243,224.498 755.078,177.043 707.651,204.427 748.724,228.14 748.724,282.903 792.983,253.739 
						837.243,279.252 		"/>
					<polygon class="shape-5" points="837.24,483.591 755.077,531.046 707.648,503.663 748.723,479.948 748.723,425.187 792.981,454.349 
						837.24,428.837 		"/>
					<polygon class="shape-5" points="837.243,483.548 755.078,531.003 707.651,503.618 748.726,479.905 748.726,425.142 792.983,454.306 
						837.243,428.794 		"/>
				</g>
				<g>
					<polygon class="shape-6" points="282.728,312.925 253.564,268.666 279.048,224.406 333.705,224.406 353.741,268.666 330.154,312.925 
								"/>
					<polygon class="shape-6" points="40.942,282.855 85.191,253.51 129.678,279.699 129.44,332.613 85.191,353.866 40.942,330.143 		"/>
					<polygon class="shape-6" points="71.011,41.026 100.356,85.274 74.167,129.762 21.253,129.524 0,85.274 23.724,41.026 		"/>
					<polygon class="shape-6" points="312.839,71.094 268.591,100.439 224.104,74.25 224.341,21.336 268.592,-0.048 312.839,23.807 		"/>
					<polygon class="shape-6" points="282.772,312.922 253.426,268.674 279.616,224.188 332.53,224.424 353.782,268.674 330.059,312.922 
								"/>
					<polygon class="shape-6" points="636.728,41.071 607.564,85.33 633.048,129.59 687.704,129.59 707.74,85.33 684.155,41.071 		"/>
					<polygon class="shape-6" points="353.914,43.854 312.839,71.094 312.839,125.855 353.868,149.542 353.868,149.615 394.942,125.901 
						394.942,71.141 		"/>
					<polygon class="shape-6" points="394.942,71.141 439.19,100.486 483.678,74.297 483.439,21.383 439.19,0.13 394.942,23.854 		"/>
					<polygon class="shape-6" points="425.011,312.97 454.356,268.722 428.167,224.234 375.252,224.472 354,268.722 377.723,312.97 		"/>
					<polygon class="shape-6" points="666.839,282.902 622.591,253.557 578.302,279.258 578.341,332.66 622.591,353.912 666.839,330.189 
								"/>
					<polygon class="shape-6" points="636.772,41.074 607.427,85.322 633.615,129.809 686.53,129.572 707.781,85.322 684.06,41.074 		"/>
					<polygon class="shape-6" points="40.941,425.139 85.2,454.301 129.459,428.817 129.459,374.161 85.2,354.125 40.941,377.711 		"/>
					<polygon class="shape-6" points="71.01,666.924 100.356,622.675 74.167,578.188 21.252,578.426 0,622.675 23.723,666.924 		"/>
					<polygon class="shape-6" points="312.839,636.855 268.591,607.51 224.104,633.699 224.341,686.613 268.591,707.865 312.839,684.143 
								"/>
					<polygon class="shape-6" points="309.998,353.975 309.983,353.952 282.772,312.922 228.01,312.922 204.323,353.952 204.297,353.952 
						204.31,353.975 204.297,353.996 228.01,395.026 282.772,395.026 309.983,353.996 		"/>
					<polygon class="shape-6" points="282.772,395.026 253.426,439.274 279.127,483.564 332.53,483.524 353.782,439.274 330.059,395.026 
								"/>
					<polygon class="shape-6" points="40.944,425.094 85.192,454.439 129.678,428.25 129.442,375.336 85.192,354.084 40.944,377.807 		"/>
					<polygon class="shape-6" points="394.94,636.857 439.199,607.695 483.46,633.179 483.46,687.835 439.199,707.871 394.94,684.285 		
						"/>
					<polygon class="shape-6" points="503.472,354.021 503.485,353.998 503.458,353.998 479.772,312.97 425.011,312.97 397.77,353.998 
						425.011,395.072 479.771,395.072 503.458,354.044 503.485,354.044 		"/>
					<polygon class="shape-6" points="425.011,395.072 454.356,439.321 428.167,483.809 375.252,483.57 354,439.321 377.723,395.072 		"/>
					<polygon class="shape-6" points="666.839,425.141 622.591,454.486 578.104,428.297 578.341,375.383 622.591,354.131 666.839,377.854 
								"/>
					<polygon class="shape-6" points="353.914,558.453 353.914,558.381 312.839,582.094 312.839,636.855 353.87,664.066 394.943,636.902 
						394.943,582.141 		"/>
					<polygon class="shape-6" points="636.772,666.97 607.427,622.722 633.615,578.234 686.53,578.472 707.781,622.722 684.06,666.97 		
						"/>
					<polygon class="shape-6" points="394.943,636.902 439.192,607.557 483.678,633.746 483.442,686.66 439.192,707.912 394.943,684.189 
								"/>
					<polygon class="shape-6" points="149.485,-0.048 125.771,-41.122 71.011,-41.122 43.771,-0.048 71.011,41.026 125.771,41.026 		"/>
					<polygon class="shape-6" points="71.011,-41.122 100.356,-85.371 74.167,-129.858 21.253,-129.62 0,-85.371 23.724,-41.122 		"/>
					<polygon class="shape-6" points="312.84,-71.19 268.592,-100.536 224.104,-74.347 224.342,-21.433 268.592,-0.048 312.84,-23.903 		
						"/>
					<polygon class="shape-6" points="394.942,-71.188 439.199,-100.351 483.46,-74.867 483.46,-20.211 439.199,-0.175 394.942,-23.761 		
						"/>
					<polygon class="shape-6" points="558.298,-0.002 582.011,-41.076 636.772,-41.076 664.013,-0.002 664.013,0 636.772,41.074 
						582.011,41.074 558.298,0 		"/>
					<polygon class="shape-6" points="636.772,-41.076 607.427,-85.324 633.615,-129.812 686.53,-129.574 707.781,-85.324 684.06,-41.076 
								"/>
					<polygon class="shape-6" points="394.943,-71.144 439.192,-100.489 483.678,-74.3 483.442,-21.386 439.192,-0.134 394.943,-23.856 		
						"/>
					<polygon class="shape-6" points="149.485,707.998 125.771,749.072 71.01,749.072 43.77,707.998 71.01,666.924 125.771,666.924 		"/>
					<polygon class="shape-6" points="312.839,779.14 268.591,808.485 224.104,782.296 224.341,729.382 268.591,708.13 312.839,731.853 		
						"/>
					<polygon class="shape-6" points="394.94,779.187 439.19,808.532 483.677,782.343 483.439,729.429 439.19,708.176 394.94,731.899 		
						"/>
					<polygon class="shape-6" points="558.296,708.046 582.009,749.12 636.771,749.12 664.011,708.046 664.013,708.044 636.772,666.97 
						582.011,666.97 558.298,708.044 		"/>
					<polygon class="shape-6" points="-71.055,41.023 -100.217,85.282 -74.732,129.542 -20.076,129.542 -0.041,85.282 -23.627,41.023 		
						"/>
					<polygon class="shape-6" points="0.133,204.38 -40.941,228.093 -40.941,282.854 -0.132,310.096 40.942,282.855 40.942,228.095 
						-0.132,204.381 		"/>
					<polygon class="shape-6" points="-71.01,41.026 -100.355,85.274 -74.166,129.761 -21.252,129.524 0,85.274 -23.723,41.026 		"/>
					<polygon class="shape-6" points="-40.941,479.854 -40.941,425.093 -0.132,398.182 40.941,425.139 40.941,479.9 -0.132,503.615 		"/>
					<polygon class="shape-6" points="-71.01,666.922 -100.355,622.674 -74.166,578.187 -21.252,578.424 0,622.674 -23.723,666.922 		"/>
					<polygon class="shape-6" points="748.724,228.143 707.913,204.581 707.913,204.428 707.78,204.504 707.649,204.429 707.649,204.58 
						666.839,228.141 666.839,282.902 707.649,310.144 707.782,310.056 707.913,310.143 748.724,282.903 		"/>
					<polygon class="shape-6" points="778.792,41.074 808.138,85.322 781.948,129.81 729.034,129.572 707.781,85.322 731.505,41.074 		"/>
					<polygon class="shape-6" points="778.792,666.972 808.138,622.723 781.948,578.235 729.034,578.474 707.781,622.723 731.505,666.972 
								"/>
					<polygon class="shape-6" points="748.726,425.142 707.781,397.987 666.839,425.141 666.839,479.902 707.651,503.464 707.651,503.616 
						707.783,503.54 707.913,503.615 707.913,503.465 748.726,479.903 		"/>
				</g>
      </g>
      <g class="guides">
	<g class="st10">
		<rect x="-0.132" y="-0.002" class="st15" width="354" height="354"/>
		<line class="st15" x1="204.25" y1="-0.002" x2="-0.132" y2="353.998"/>
		<polyline class="st15" points="149.485,-0.002 -0.132,259.142 129.44,332.613 		"/>
		<line class="st15" x1="224.341" y1="21.336" x2="353.914" y2="94.808"/>
		<line class="st15" x1="94.726" y1="-0.002" x2="21.253" y2="129.524"/>
		<line class="st15" x1="-0.132" y1="149.615" x2="353.868" y2="353.998"/>
		<line class="st15" x1="-0.132" y1="149.615" x2="353.868" y2="353.998"/>
		<line class="st15" x1="-0.132" y1="204.381" x2="259.014" y2="353.998"/>
		<line class="st15" x1="149.485" y1="-0.002" x2="353.868" y2="353.998"/>
		<line class="st15" x1="204.25" y1="353.998" x2="-0.132" y2="-0.002"/>
		<line class="st15" x1="353.868" y1="204.381" x2="-0.132" y2="-0.002"/>
		<line class="st15" x1="353.868" y1="149.615" x2="94.726" y2="-0.002"/>
		<line class="st15" x1="-0.132" y1="204.381" x2="353.868" y2="-0.002"/>
		<line class="st15" x1="149.485" y1="353.998" x2="353.868" y2="-0.002"/>
		<line class="st15" x1="259.014" y1="353.998" x2="333.705" y2="224.406"/>
		<line class="st15" x1="204.251" y1="353.998" x2="353.914" y2="94.808"/>
		<line class="st15" x1="176.868" y1="-0.002" x2="176.868" y2="353.998"/>
		<line class="st15" x1="-0.132" y1="176.998" x2="353.868" y2="176.998"/>
		<line class="st15" x1="161.086" y1="161.18" x2="192.695" y2="192.77"/>
		<line class="st15" x1="161.096" y1="192.779" x2="192.695" y2="161.171"/>
		<circle class="st15" cx="-0.132" cy="353.998" r="149.617"/>
		<circle class="st15" cx="353.868" cy="353.998" r="149.617"/>
		<circle class="st15" cx="-0.132" cy="-0.002" r="149.617"/>
		<circle class="st15" cx="353.868" cy="-0.002" r="149.617"/>
		<line class="st4" x1="-0.132" y1="353.998" x2="222.437" y2="225.498"/>
		<line class="st15" x1="353.913" y1="149.57" x2="-0.132" y2="353.998"/>
		<line class="st13" x1="-0.132" y1="310.096" x2="85.191" y2="253.51"/>
		<line class="st15" x1="309.684" y1="353.835" x2="253.564" y2="268.666"/>
	</g>
	<g class="st10">
		<rect x="353.868" y="-0.002" class="st15" width="354" height="354"/>
		<line class="st15" x1="558.251" y1="353.998" x2="353.868" y2="-0.002"/>
		<polyline class="st15" points="503.485,353.998 353.868,94.854 483.439,21.383 		"/>
		<line class="st15" x1="578.341" y1="332.66" x2="707.913" y2="259.188"/>
		<line class="st15" x1="448.726" y1="353.998" x2="375.252" y2="224.472"/>
		<line class="st15" x1="353.868" y1="204.381" x2="707.868" y2="-0.002"/>
		<line class="st15" x1="353.868" y1="204.381" x2="707.868" y2="-0.002"/>
		<line class="st15" x1="353.868" y1="149.615" x2="613.015" y2="-0.002"/>
		<line class="st15" x1="503.485" y1="353.998" x2="707.868" y2="-0.002"/>
		<line class="st15" x1="558.251" y1="-0.002" x2="353.868" y2="353.998"/>
		<line class="st15" x1="707.868" y1="149.615" x2="353.868" y2="353.998"/>
		<line class="st15" x1="707.868" y1="204.381" x2="448.726" y2="353.998"/>
		<line class="st15" x1="353.868" y1="149.615" x2="707.868" y2="353.998"/>
		<line class="st15" x1="503.485" y1="-0.002" x2="707.868" y2="353.998"/>
		<line class="st15" x1="613.015" y1="-0.002" x2="687.704" y2="129.59"/>
		<line class="st15" x1="558.251" y1="-0.002" x2="707.913" y2="259.188"/>
		<line class="st15" x1="530.868" y1="353.998" x2="530.868" y2="-0.002"/>
		<line class="st15" x1="353.868" y1="176.998" x2="707.868" y2="176.998"/>
		<line class="st15" x1="515.086" y1="192.816" x2="546.696" y2="161.227"/>
		<line class="st15" x1="515.097" y1="161.217" x2="546.696" y2="192.825"/>
		<circle class="st15" cx="707.868" cy="-0.002" r="149.617"/>
		<circle class="st15" cx="707.868" cy="353.998" r="149.617"/>
		<line class="st4" x1="353.868" y1="-0.002" x2="576.437" y2="128.498"/>
		<line class="st15" x1="707.913" y1="204.426" x2="353.868" y2="-0.002"/>
		<line class="st13" x1="353.868" y1="43.9" x2="439.19" y2="100.486"/>
		<line class="st15" x1="663.685" y1="0.161" x2="607.564" y2="85.33"/>
	</g>
	<g class="st10">
		<rect x="-0.132" y="353.998" class="st15" width="354" height="354"/>
		<line class="st15" x1="353.868" y1="503.615" x2="-0.132" y2="707.998"/>
		<polyline class="st15" points="353.868,558.381 94.724,707.998 21.252,578.426 		"/>
		<line class="st15" x1="332.53" y1="483.524" x2="259.058" y2="353.952"/>
		<line class="st15" x1="353.868" y1="613.141" x2="224.341" y2="686.613"/>
		<line class="st15" x1="204.25" y1="707.998" x2="-0.132" y2="353.998"/>
		<line class="st15" x1="204.25" y1="707.998" x2="-0.132" y2="353.998"/>
		<line class="st15" x1="149.485" y1="707.998" x2="-0.132" y2="448.852"/>
		<line class="st15" x1="353.868" y1="558.381" x2="-0.132" y2="353.998"/>
		<line class="st15" x1="-0.132" y1="503.615" x2="353.868" y2="707.998"/>
		<line class="st15" x1="149.485" y1="353.998" x2="353.868" y2="707.998"/>
		<line class="st15" x1="204.25" y1="353.998" x2="353.868" y2="613.141"/>
		<line class="st15" x1="149.485" y1="707.998" x2="353.868" y2="353.998"/>
		<line class="st15" x1="-0.132" y1="558.381" x2="353.868" y2="353.998"/>
		<line class="st15" x1="-0.132" y1="448.852" x2="129.459" y2="374.161"/>
		<line class="st15" x1="-0.132" y1="503.615" x2="259.058" y2="353.952"/>
		<line class="st15" x1="353.868" y1="530.998" x2="-0.132" y2="530.998"/>
		<line class="st15" x1="176.868" y1="707.998" x2="176.868" y2="353.998"/>
		<line class="st15" x1="192.686" y1="546.779" x2="161.096" y2="515.17"/>
		<line class="st15" x1="161.086" y1="546.77" x2="192.695" y2="515.17"/>
		<circle class="st15" cx="-0.132" cy="707.998" r="149.617"/>
		<circle class="st15" cx="353.868" cy="707.998" r="149.617"/>
		<line class="st4" x1="-0.132" y1="707.998" x2="128.368" y2="485.429"/>
		<line class="st15" x1="204.295" y1="353.953" x2="-0.132" y2="707.998"/>
		<line class="st13" x1="43.77" y1="707.998" x2="100.356" y2="622.675"/>
		<line class="st15" x1="0.031" y1="398.182" x2="85.2" y2="454.301"/>
	</g>
	<g class="st10">
		<rect x="353.868" y="353.998" class="st15" width="354" height="354"/>
		<line class="st15" x1="707.868" y1="558.381" x2="353.868" y2="353.998"/>
		<polyline class="st15" points="707.868,503.615 448.724,353.998 375.252,483.57 		"/>
		<line class="st15" x1="686.53" y1="578.472" x2="613.058" y2="708.044"/>
		<line class="st15" x1="707.868" y1="448.855" x2="578.341" y2="375.383"/>
		<line class="st15" x1="558.251" y1="353.998" x2="353.868" y2="707.998"/>
		<line class="st15" x1="558.251" y1="353.998" x2="353.868" y2="707.998"/>
		<line class="st15" x1="503.485" y1="353.998" x2="353.868" y2="613.145"/>
		<line class="st15" x1="707.868" y1="503.615" x2="353.868" y2="707.998"/>
		<line class="st15" x1="353.868" y1="558.381" x2="707.868" y2="353.998"/>
		<line class="st15" x1="503.485" y1="707.998" x2="707.868" y2="353.998"/>
		<line class="st15" x1="558.251" y1="707.998" x2="707.868" y2="448.855"/>
		<line class="st15" x1="503.485" y1="353.998" x2="707.868" y2="707.998"/>
		<line class="st15" x1="353.868" y1="503.615" x2="707.868" y2="707.998"/>
		<line class="st15" x1="353.868" y1="613.145" x2="483.46" y2="687.835"/>
		<line class="st15" x1="353.868" y1="558.381" x2="613.058" y2="708.044"/>
		<line class="st15" x1="707.868" y1="530.998" x2="353.868" y2="530.998"/>
		<line class="st15" x1="530.868" y1="353.998" x2="530.868" y2="707.998"/>
		<line class="st15" x1="546.687" y1="515.217" x2="515.097" y2="546.826"/>
		<line class="st15" x1="515.086" y1="515.227" x2="546.694" y2="546.826"/>
		<circle class="st15" cx="707.868" cy="707.998" r="149.617"/>
		<line class="st4" x1="353.868" y1="353.998" x2="482.368" y2="576.567"/>
		<line class="st15" x1="558.296" y1="708.043" x2="353.868" y2="353.998"/>
		<line class="st13" x1="397.77" y1="353.998" x2="454.356" y2="439.321"/>
		<line class="st15" x1="354.031" y1="663.814" x2="439.199" y2="607.695"/>
	</g>
      </g>
</svg>
