<svg xmlns="http://www.w3.org/2000/svg" width="707.8" height="708" viewBox="0 0 707.8 708">
  <style>
    :root { --black: #443430; --red: #BF402B; --gold: #CEA600; --turquois: #4D9BA3; --emerald: #216554; --blue: #262F66; --white: #FFFAF2; } .shape-1{fill:var(--turquois)} .shape-6{fill:var(--white)} .shape-5{fill:var(--red)} .shape-4{fill:var(--gold)} .shape-2{fill:var(--black)} .shape-3{fill:var(--white)}
    .guides{ stroke: #4FFF4F; display: none; fill: none}
  </style>
  <g class="line" id="pattern">
    <path class="shape-1" d="M353.8 439.3L330 395h-47.3l27.2-41-27.2-41h47.4l23.6-44.3h.2l23.7 44.3H425l-27.2 41 27.2 41h-47.3L354 439.4h-.2zM85.2 353.9L40.9 330V283L0 310-41 282.9V425l40.8-27 41 27v-47.4l30.3-16 14-7.6v-.2zM268.6 708l44.2 23.8V749H395v-17.2l44.3-23.7v-.3l-14-7.5-30.3-16.1v-47.4l-41 27.2-41-27.2V684L268.5 708M439.2-.1l-14-7.6-30.3-16v-17.4h-82V-24L268.5 0l44.2 23.8v47.3L354 43.9 395 71V24L439.2 0V0zM-23.6 41l16 30.2 7.6 14L23.7 41H71L43.8 0 71-41.1H-40.9V41h17.3zM684-41h-47.3L664 0l-27.2 41h47.4l16 30.3 7.6 14 23.7-44.2h17.2v-82.2h-64.6zm47.4 708l-23.7-44.3V622.4 622.7L684 667h-47.3l27.2 41-27.2 41h112v-82h-17.3zM71 667H23.7L0 622.6l-23.7 44.2H-41v82.2H71L43.7 708 71 667zM622.6 354l44.2 23.8V425l41-27.1 41 27.1V283l-40.9 27.2H707.6L666.8 283v47.3l-44.2 24z"/>
    <path class="shape-2" d="M176.9 224.4h-47.4L47.3 177l27.4-47.4 54.8-.1v63.3h31.6l15.8-15.8 15.8 15.8v31.6z"/>
    <path class="shape-2" d="M176.9 129.5h47.4l82.2 47.5-27.4 47.4-54.8.1v-63.3h-31.6L176.9 177l-15.8-15.8v-31.7zM578.3 177v-47.4l-47.4-82.2-47.4 27.4-.1 54.8h63.3v31.6L530.9 177l15.8 15.8h31.6z"/>
    <path class="shape-2" d="M483.5 177v47.5l47.4 82.1 47.4-27.3.1-54.8h-63.3v-31.7l15.8-15.8-15.8-15.8h-31.6zM129.5 531v47.4l47.4 82.2 47.4-27.4.1-54.8h-63.3v-31.6l15.8-15.8-15.8-15.8h-31.6z"/>
    <path class="shape-2" d="M224.3 531v-47.5l-47.4-82.1-47.4 27.3-.1 54.8h63.3v31.7L176.9 531l15.8 15.8h31.6zM530.9 578.5h-47.4L401.3 531l27.4-47.4 54.8-.1v63.3h31.6l15.8-15.8 15.8 15.8v31.7z"/>
    <path class="shape-2" d="M530.9 483.6h47.4l82.2 47.4-27.4 47.4-54.8.1v-63.3h-31.6L530.9 531l-15.8-15.8v-31.6z"/>
    <g>
      <path class="shape-3" d="M224.3 177v47.4l-47.4 82.2-47.4-27.4-.1-54.8h63.3v-31.6L176.9 177l15.8-15.8h31.6z"/>
      <path class="shape-3" d="M129.5 177v-47.5l47.4-82.1 47.4 27.3.1 54.8h-63.3v31.7l15.8 15.8-15.8 15.8h-31.6zM530.9 129.6h-47.4L401.3 177l27.4 47.4 54.8.1v-63.3h31.6l15.8 15.8 15.8-15.8v-31.6z"/>
      <path class="shape-3" d="M530.9 224.5h47.4l82.2-47.5-27.4-47.4-54.8-.1v63.3h-31.6L530.9 177l-15.8 15.8v31.7zM176.9 483.5h-47.4L47.3 531l27.4 47.4 54.8.1v-63.3h31.6l15.8 15.8 15.8-15.8v-31.7z"/>
      <path class="shape-3" d="M176.9 578.4h47.4l82.2-47.4-27.4-47.4-54.8-.1v63.3h-31.6L176.9 531l-15.8 15.8v31.6zM483.5 531v-47.4l47.4-82.2 47.4 27.4.1 54.8h-63.3v31.6l15.8 15.8-15.8 15.8h-31.6z"/>
      <path class="shape-3" d="M578.3 531v47.5l-47.4 82.1-47.4-27.3-.1-54.8h63.3v-31.7L530.9 531l15.8-15.8h31.6z"/>
    </g>
    <g>
      <path class="shape-4" d="M428.7 224.4L401.3 177l-47.4-27.3v-.1L306.5 177l-27.4 47.4h53.4l21.4 44.2v.1-.1.1-.1l21.4-44.1zM204.2 354h.1-.1l-27.3-47.4-47.4-27.4-.1 53.4L85.3 354h-.1.1l44.1 21.3.1 53.4 47.4-27.3 27.3-47.4h.1zM375.3 483.6l-21.4-44.2v-.1.1l-21.4 44.1-53.4.1 27.4 47.4 47.4 27.3v.1l47.4-27.4 27.4-47.4zM622.5 354h.1-.1l-44.2-21.3v-53.4l-47.4 27.3-27.3 47.4h-.1.1l27.3 47.4 47.4 27.4v-53.4l44.2-21.4h.1zM268.6 0l-44.3-21.4v-53.4l-47.4 27.3L149.5 0l27.4 47.4 47.4 27.3V21.3L268.6 0zM558.3 0l-27.4-47.4-47.4-27.4-.1 53.4L439.2 0l44.2 21.4.1 53.4 47.4-27.4L558.3 0zM268.6 708l-44.3-21.4v-53.4l-47.4 27.4-27.4 47.4 27.4 47.4 47.4 27.4v-53.4l44.3-21.4zM558.3 708l-27.4-47.4-47.4-27.3-.1 53.4-44.2 21.3 44.2 21.4.1 53.4 47.4-27.3 27.3-47.5zM74.7 129.6l-53.4-.1L.1 85.8v-.5l-.1.2-.1-.2v.5l-21.2 43.7-53.4.1 27.4 47.3 47.2 27.3v.1h.2v-.1L47.3 177zM74.7 578.4L47.3 531 .1 503.8v-.2l-.1.1-.1-.1v.2L-47.3 531l-27.4 47.4h53.4l21.2 43.7v.6l.1-.3.1.3v-.6l21.2-43.7zM782.4 129.6H729l-21.1-43.7v-.6l-.1.3-.2-.3v.6l-21.1 43.7h-53.4l27.4 47.4 47.1 27.2v.2l.2-.1.1.1v-.2l47.2-27.2zM782.4 578.4L755.1 531l-47.2-27.2v-.1H707.6v.1L660.5 531l-27.4 47.4 53.4.1 21.1 43.7v.5l.2-.3.1.3v-.5l21.1-43.7z"/>
    </g>
    <g>
      <path class="shape-5" d="M224.3 224.4l-47.4 82.2 27.4 47.4 23.7-41.1h54.7l-29.1-44.2 25.5-44.3zM129.5 224.4L47.3 177-.1 204.4l41 23.7v54.8l44.3-29.2 44.3 25.5zM129.4 129.5l47.5-82.1L149.5 0l-23.7 41H71l29.2 44.3-25.5 44.2zM224.3 129.5l82.2 47.5 47.4-27.4-41.1-23.7V71.1l-44.2 29.2-44.3-25.6z"/>
      <path class="shape-5" d="M224.4 224.4l-47.5 82.2 27.4 47.4 23.7-41.1h54.8l-29.2-44.2 25.5-44.3zM578.3 129.6l-47.4-82.2L558.3 0 582 41.1h54.7l-29.1 44.2 25.5 44.3zM483.5 129.5L401.3 177l-47.4-27.4 41-23.7V71.1l44.3 29.2 44.3-25.5zM483.4 224.5l47.5 82.1-27.4 47.4-23.7-41H425l29.2-44.3-25.5-44.2zM578.3 224.5l82.2-47.5 47.4 27.4-41.1 23.7v54.8l-44.2-29.2-44.3 25.6z"/>
      <path class="shape-5" d="M578.4 129.6l-47.5-82.2L558.3 0 582 41.1h54.8l-29.2 44.2 25.5 44.3zM129.5 483.5L47.3 531-.1 503.6l41-23.7v-54.8l44.3 29.2 44.3-25.5zM129.4 578.4l47.5 82.2-27.4 47.4-23.7-41.1H71l29.2-44.2-25.5-44.3zM224.3 578.4l82.2-47.4 47.4 27.4-41.1 23.7v54.8l-44.2-29.2-44.3 25.5zM224.4 483.5l-47.5-82.1 27.4-47.4 23.7 41h54.8l-29.2 44.3 25.5 44.2z"/>
      <path class="shape-5" d="M129.5 483.5L47.3 531-.1 503.6l41-23.7v-54.8l44.3 29.2 44.3-25.6zM483.5 578.5L401.3 531l-47.4 27.4 41 23.7v54.8l44.3-29.2 44.3 25.5zM483.4 483.6l47.5-82.2-27.4-47.4-23.7 41.1H425l29.2 44.2-25.5 44.3zM578.3 483.5l82.2 47.5 47.4-27.4-41.1-23.7v-54.8l-44.2 29.2-44.3-25.5zM578.4 578.5l-47.5 82.1 27.4 47.4 23.7-41h54.8l-29.2-44.3 25.5-44.2z"/>
      <path class="shape-5" d="M483.5 578.5L401.3 531l-47.4 27.4 41 23.7v54.8l44.3-29.2 44.3 25.6zM129.4-129.6l47.5 82.1L149.5-.1l-23.7-41H71l29.2-44.3-25.5-44.2zM578.4-129.6l-47.5 82.2L558.3 0 582-41.1h54.8l-29.2-44.2 25.5-44.3zM129.4 837.6l47.5-82.2-27.4-47.4-23.7 41.1H71l29.2 44.2-25.5 44.3zM578.3 837.6l-47.4-82.1 27.3-47.5 23.8 41.1h54.7l-29.1 44.3 25.5 44.2z"/>
      <path class="shape-5" d="M578.4 837.6l-47.5-82.1 27.4-47.5 23.7 41.1h54.8l-29.2 44.3 25.5 44.2zM-129.5 224.4l82.2-47.4L.1 204.4l-41 23.7v54.8l-44.3-29.2-44.3 25.5zM-129.5 483.5l82.2 47.5L.1 503.6l-41-23.7v-54.8l-44.3 29.2-44.3-25.6zM837.2 224.5L755.1 177l-47.4 27.4 41 23.7v54.8l44.3-29.2 44.2 25.6zM837.2 483.6L755.1 531l-47.5-27.3 41.1-23.8v-54.7l44.3 29.1 44.2-25.5z"/>
      <path class="shape-5" d="M837.2 483.5L755.1 531l-47.4-27.4 41-23.7v-54.8l44.3 29.2 44.2-25.5z"/>
    </g>
    <g>
      <path class="shape-6" d="M282.7 312.9l-29.1-44.2 25.4-44.3h54.7l20 44.3-23.5 44.2zM40.9 282.9l44.3-29.4 44.5 26.2-.3 52.9-44.2 21.3-44.3-23.8zM71 41l29.4 44.3-26.2 44.5-52.9-.3L0 85.3 23.7 41zM312.8 71.1l-44.2 29.3-44.5-26.1.2-53L268.6 0l44.2 23.8z"/>
      <path class="shape-6" d="M282.8 312.9l-29.4-44.2 26.2-44.5 52.9.2 21.3 44.3-23.7 44.2zM636.7 41.1l-29.1 44.2 25.4 44.3h54.7l20-44.3-23.5-44.2zM353.9 43.9l-41.1 27.2v54.8l41.1 23.6v.1l41-23.7V71.1zM394.9 71.1l44.3 29.4 44.5-26.2-.3-52.9L439.2.1l-44.3 23.8zM425 313l29.4-44.3-26.2-44.5-52.9.3-21.3 44.2 23.7 44.3zM666.8 282.9l-44.2-29.3-44.3 25.7v53.4l44.3 21.2 44.2-23.7z"/>
      <path class="shape-6" d="M636.8 41.1l-29.4 44.2 26.2 44.5 52.9-.2 21.3-44.3-23.7-44.2zM40.9 425.1l44.3 29.2 44.3-25.5v-54.6l-44.3-20.1-44.3 23.6zM71 666.9l29.4-44.2-26.2-44.5-52.9.2L0 622.7l23.7 44.2zM312.8 636.9l-44.2-29.4-44.5 26.2.2 52.9 44.3 21.3 44.2-23.8zM310 354l-27.2-41.1H228L204.3 354l23.7 41h54.8l27.2-41zM282.8 395l-29.4 44.3 25.7 44.3 53.4-.1 21.3-44.2-23.7-44.3z"/>
      <path class="shape-6" d="M40.9 425.1l44.3 29.3 44.5-26.1-.3-53-44.2-21.2-44.3 23.7zM394.9 636.9l44.3-29.2 44.3 25.5v54.6l-44.3 20.1-44.3-23.6zM503.5 354l-23.7-41H425l-27.2 41 27.2 41.1h54.8l23.7-41.1zM425 395.1l29.4 44.2-26.2 44.5-52.9-.2-21.3-44.3 23.7-44.2zM666.8 425.1l-44.2 29.4-44.5-26.2.2-52.9 44.3-21.3 44.2 23.8zM353.9 558.5v-.1l-41.1 23.7v54.8l41.1 27.2 41-27.2v-54.8zM636.8 667l-29.4-44.3 26.2-44.5 52.9.3 21.3 44.2-23.7 44.3z"/>
      <path class="shape-6" d="M394.9 636.9l44.3-29.3 44.5 26.1-.3 53-44.2 21.2-44.3-23.7zM149.5 0l-23.7-41.1H71L43.8 0 71 41h54.8zM71-41.1l29.4-44.3-26.2-44.5-52.9.3L0-85.4l23.7 44.3zM312.8-71.2l-44.2-29.3-44.5 26.2.2 52.9L268.6 0l44.2-23.9zM394.9-71.2l44.3-29.2 44.3 25.5v54.7l-44.3 20-44.3-23.6zM558.3 0L582-41.1h54.8L664 0l-27.2 41.1H582L558.3 0zM636.8-41.1l-29.4-44.2 26.2-44.5 52.9.2 21.3 44.3-23.7 44.2z"/>
      <path class="shape-6" d="M394.9-71.1l44.3-29.4 44.5 26.2-.3 52.9L439.2-.1l-44.3-23.8zM149.5 708l-23.7 41.1H71L43.8 708 71 666.9h54.8zM312.8 779.1l-44.2 29.4-44.5-26.2.2-52.9 44.3-21.3 44.2 23.8zM394.9 779.2l44.3 29.3 44.5-26.2-.3-52.9-44.2-21.2-44.3 23.7zM558.3 708l23.7 41.1h54.8L664 708l-27.2-41H582l-23.7 41zM-71.1 41l-29.1 44.3 25.5 44.2h54.6L0 85.3-23.6 41zM.1 204.4l-41 23.7v54.8l40.8 27.2 41-27.2v-54.8l-41-23.7z"/>
      <path class="shape-6" d="M-71 41l-29.4 44.3 26.2 44.5 52.9-.3L0 85.3-23.7 41zM-40.9 479.9v-54.8l40.8-26.9 41 26.9v54.8l-41 23.7zM-71 666.9l-29.4-44.2 26.2-44.5 52.9.2L0 622.7l-23.7 44.2zM748.7 228.1l-40.8-23.5v-.2l-.1.1-.2-.1v.2l-40.8 23.5v54.8l40.8 27.2H707.9l40.8-27.2zM778.8 41.1l29.3 44.2-26.2 44.5-52.9-.2-21.2-44.3 23.7-44.2zM778.8 667l29.3-44.3-26.2-44.5-52.9.3-21.2 44.2 23.7 44.3zM748.7 425.1L707.8 398l-41 27.1v54.8l40.9 23.6v.1l.1-.1.1.1v-.1l40.8-23.6z"/>
    </g>
  </g>
  <g class="guides">
    <g class="st10">
      <path class="st15" d="M-.1 0h354v354H-.1zM204.3 0L-.1 354"/>
      <path class="st15" d="M149.5 0L-.1 259.1l129.5 73.5M224.3 21.3l129.6 73.5M94.7 0L21.3 129.5M-.1 149.6l354 204.4M-.1 149.6l354 204.4M-.1 204.4L259 354M149.5 0l204.4 354M204.3 354L-.1 0M353.9 204.4L-.1 0M353.9 149.6L94.7 0M-.1 204.4L353.9 0M149.5 354L353.9 0M259 354l74.7-129.6M204.3 354L353.9 94.8M176.9 0v354M-.1 177h354M161.1 161.2l31.6 31.6M161.1 192.8l31.6-31.6"/>
      <circle class="st15" cx="-.1" cy="354" r="149.6"/>
      <circle class="st15" cx="353.9" cy="354" r="149.6"/>
      <circle class="st15" cx="-.1" r="149.6"/>
      <circle class="st15" cx="353.9" r="149.6"/>
      <path class="st4" d="M-.1 354l222.5-128.5"/>
      <path class="st15" d="M353.9 149.6L-.1 354"/>
      <path class="st13" d="M-.1 310.1l85.3-56.6"/>
      <path class="st15" d="M309.7 353.8l-56.1-85.1"/>
    </g>
    <g class="st10">
      <path class="st15" d="M353.9 0h354v354h-354zM558.3 354L353.9 0"/>
      <path class="st15" d="M503.5 354L353.9 94.9l129.5-73.5M578.3 332.7l129.6-73.5M448.7 354l-73.4-129.5M353.9 204.4L707.9 0M353.9 204.4L707.9 0M353.9 149.6L613 0M503.5 354L707.9 0M558.3 0L353.9 354M707.9 149.6L353.9 354M707.9 204.4L448.7 354M353.9 149.6l354 204.4M503.5 0l204.4 354M613 0l74.7 129.6M558.3 0l149.6 259.2M530.9 354V0M353.9 177h354M515.1 192.8l31.6-31.6M515.1 161.2l31.6 31.6"/>
      <circle class="st15" cx="707.9" r="149.6"/>
      <circle class="st15" cx="707.9" cy="354" r="149.6"/>
      <path class="st4" d="M353.9 0l222.5 128.5"/>
      <path class="st15" d="M707.9 204.4L353.9 0"/>
      <path class="st13" d="M353.9 43.9l85.3 56.6"/>
      <path class="st15" d="M663.7.2l-56.1 85.1"/>
    </g>
    <g class="st10">
      <path class="st15" d="M-.1 354h354v354H-.1zM353.9 503.6L-.1 708"/>
      <path class="st15" d="M353.9 558.4L94.7 708 21.3 578.4M332.5 483.5L259.1 354M353.9 613.1l-129.6 73.5M204.3 708L-.1 354M204.3 708L-.1 354M149.5 708L-.1 448.9M353.9 558.4L-.1 354M-.1 503.6l354 204.4M149.5 354l204.4 354M204.3 354l149.6 259.1M149.5 708l204.4-354M-.1 558.4l354-204.4M-.1 448.9l129.6-74.7M-.1 503.6L259.1 354M353.9 531H-.1M176.9 708V354M192.7 546.8l-31.6-31.6M161.1 546.8l31.6-31.6"/>
      <circle class="st15" cx="-.1" cy="708" r="149.6"/>
      <circle class="st15" cx="353.9" cy="708" r="149.6"/>
      <path class="st4" d="M-.1 708l128.5-222.6"/>
      <path class="st15" d="M204.3 354L-.1 708"/>
      <path class="st13" d="M43.8 708l56.6-85.3"/>
      <path class="st15" d="M0 398.2l85.2 56.1"/>
    </g>
    <g class="st10">
      <path class="st15" d="M353.9 354h354v354h-354zM707.9 558.4L353.9 354"/>
      <path class="st15" d="M707.9 503.6L448.7 354l-73.4 129.6M686.5 578.5L613.1 708M707.9 448.9l-129.6-73.5M558.3 354L353.9 708M558.3 354L353.9 708M503.5 354L353.9 613.1M707.9 503.6L353.9 708M353.9 558.4l354-204.4M503.5 708l204.4-354M558.3 708l149.6-259.1M503.5 354l204.4 354M353.9 503.6l354 204.4M353.9 613.1l129.6 74.7M353.9 558.4L613.1 708M707.9 531h-354M530.9 354v354M546.7 515.2l-31.6 31.6M515.1 515.2l31.6 31.6"/>
      <circle class="st15" cx="707.9" cy="708" r="149.6"/>
      <path class="st4" d="M353.9 354l128.5 222.6"/>
      <path class="st15" d="M558.3 708L353.9 354"/>
      <path class="st13" d="M397.8 354l56.6 85.3"/>
      <path class="st15" d="M354 663.8l85.2-56.1"/>
    </g>
  </g>
</svg>
