<svg xmlns="http://www.w3.org/2000/svg" width="806.9" height="465.9" viewBox="0 0 806.9 465.9">
  <style>
    :root { --black: #443430; --red: #BF402B; --gold: #CEA600; --turquois: #4D9BA3; --emerald: #216554; --blue: #262F66; --white: #FFFAF2; } .shape-6{fill:var(--turquois)} .shape-2{fill:var(--white)} .shape-5{fill:var(--red)} .shape-1{fill:var(--black)} .shape-3{fill:var(--white)} .shape-4{fill:var(--white)} .shape-7{fill:var(--white)}
    .guides{ stroke: #4FFF4F; display: none; fill: none}
  </style>
  <g class="line" id="pattern">
    <path class="shape-6" d="M403.9 67.7l19.5-33.6h38.8L442.8.5l19.4-33.6H345.7L365.1.5l-19.4 33.6h38.8zM807.4 166.2L788 199.8h-38.8l19.4 33.6-19.4 33.7H788l19.4 33.6 19.4-33.6v-67.3zM423.4 432.7l-19.5-33.6-19.4 33.6h-38.8l19.4 33.7-19.4 33.6h116.5l-19.4-33.6 19.4-33.7zM19.9 267h38.8l-19.4-33.6 19.4-33.6H19.9L.5 166.2l-19.4 33.6V267L.5 300.7z"/>
    <path class="shape-1" d="M277 137l8.9 68 63.3-26.3-22.6 54.7 22.6 54.7-63.3-26.2-8.9 68-36.1-47-58.7-7.7 54.4-41.8-54.4-41.7 58.7-7.7zM458.7 178.7L522 205l8.9-68 36.1 47 58.7 7.7-54.4 41.7 54.4 41.8-58.7 7.7-36.1 47-8.9-68-63.3 26.2 22.6-54.7zM585.6 42.2L640 .5l-54.4-41.7 58.8-7.8 36-46.9 8.9 67.9 63.4-26.2L730 .5l22.7 54.7L689.4 29l-9 67.9-36-46.9zM222.2-41.2L167.9.5l54.3 41.7-58.7 7.8-36 46.9-9-67.9-63.3 26.2L77.9.5 55.2-54.2 118.5-28l9-67.9 36 46.9zM585.6 508.1l54.4-41.7-54.4-41.8 58.8-7.7 36-47 8.9 68 63.4-26.3-22.7 54.8 22.7 54.7-63.3-26.3-9 68-36-47zM222.2 424.6l-54.3 41.8 54.3 41.7-58.7 7.7-36 47-9-68-63.3 26.3 22.7-54.7-22.7-54.8 63.3 26.3 9-68 36 47z"/>
    <g>
      <path class="shape-2" d="M306.9 34.1L287.5.5l19.4-33.6h38.8L365.1.5l-19.4 33.6zM345.7 101.4l-19.4-33.7 19.4-33.6h38.8l19.4 33.6-19.4 33.7zM423.4 101.4l-19.5-33.7 19.5-33.6h38.8l19.4 33.6-19.4 33.7zM462.2 34.1L442.8.5l19.4-33.6H501L520.4.5 501 34.1zM345.7 432.7l-19.4-33.6 19.4-33.6h38.8l19.4 33.6-19.4 33.6zM306.9 500l-19.4-33.6 19.4-33.7h38.8l19.4 33.7-19.4 33.6zM462.2 500l-19.4-33.6 19.4-33.7H501l19.4 33.7L501 500zM423.4 432.7l-19.5-33.6 19.5-33.6h38.8l19.4 33.6-19.4 33.6zM749.2 199.8l-19.4-33.6 19.4-33.6H788l19.4 33.6-19.4 33.6zM710.3 267.1l-19.4-33.7 19.4-33.6h38.9l19.4 33.6-19.4 33.7zM749.2 334.3l-19.4-33.6 19.4-33.6H788l19.4 33.6-19.4 33.6zM826.8 334.3l-19.4-33.6 19.4-33.6h38.8l19.4 33.6-19.4 33.6zM826.8 199.8l-19.4-33.6 19.4-33.6h38.8l19.4 33.6-19.4 33.6zM-57.7 199.8l-19.4-33.6 19.4-33.6h38.8L.5 166.2l-19.4 33.6zM-57.7 334.3l-19.4-33.6 19.4-33.7h38.8L.5 300.7l-19.4 33.6zM19.9 334.3L.5 300.7 19.9 267h38.8l19.4 33.7-19.4 33.6zM58.7 267l-19.4-33.6 19.4-33.6h38.9l19.4 33.6L97.6 267zM19.9 199.8L.5 166.2l19.4-33.6h38.8l19.4 33.6-19.4 33.6z"/>
    </g>
    <g>
      <path class="shape-3" d="M458.7 288.1l-54.8 22.7-54.7-22.7-22.6-54.7 22.6-54.7 54.7-22.6 54.8 22.6 22.6 54.7zM680.4 96.9l-7.7 58.8-47 36L567 184l-36.1-47 7.8-58.7 46.9-36.1 58.8 7.8zM182.2 191.7l-47-36-7.7-58.8 36-46.9 58.7-7.8 47 36.1L277 137l-36.1 47zM625.7 275.2l47 36 7.7 58.7-36 47-58.8 7.7-46.9-36-7.8-58.7 36.1-47zM127.5 369.9l7.7-58.7 47-36 58.7 7.7 36.1 47-7.8 58.7-46.9 36-58.8-7.7zM862.1 521.1l-54.7 22.6-54.7-22.6-22.7-54.7 22.7-54.8 54.7-22.6 54.7 22.6 22.7 54.8zM752.7-54.2l54.7-22.7 54.7 22.7L884.8.5l-22.7 54.7-54.7 22.7-54.7-22.7L730 .5zM55.2 521.1L.5 543.7l-54.7-22.6-22.7-54.7 22.7-54.8L.5 389l54.7 22.6 22.7 54.8zM-54.2-54.2L.5-76.9l54.7 22.7L77.9.5 55.2 55.2.5 77.9l-54.7-22.7L-76.9.5z"/>
    </g>
    <g>
      <path class="shape-4" d="M304.3 101.4L277 137l8.9 68 63.3-26.3 17.2-41.5-20.7-35.8zM441.5 137.2l17.2 41.5L522 205l8.9-68-27.3-35.6h-41.4zM541.1 36.4l44.5 5.8L640 .5l-54.4-41.7-44.5 5.8L520.4.5zM266.8-35.4l-44.6-5.8L167.9.5l54.3 41.7 44.6-5.8L287.5.5zM541.1 502.2l44.5 5.9 54.4-41.7-54.4-41.8-44.5 5.9-20.7 35.9zM503.6 365.5l27.3-35.6-8.9-68-63.3 26.2-17.2 41.5 20.7 35.9zM366.4 329.6l-17.2-41.5-63.3-26.2-8.9 68 27.3 35.6h41.4zM266.8 430.5l-44.6-5.9-54.3 41.8 54.3 41.7 44.6-5.9 20.7-35.8zM707.7 334.3l-27.3 35.6 9 68 63.3-26.3 17.2-41.4-20.7-35.9zM769.9 96.7l-17.2-41.5L689.4 29l-9 67.9 27.3 35.7h41.5zM670.2 197.6l-44.5-5.9-54.4 41.7 54.4 41.8 44.5-5.9 20.7-35.9zM38 370.2l17.2 41.4 63.3 26.3 9-68-27.4-35.6H58.7zM137.7 269.3l44.5 5.9 54.4-41.8-54.4-41.7-44.5 5.9-20.7 35.8zM100.1 132.6l27.4-35.7-9-67.9-63.3 26.2L38 96.7l20.7 35.9z"/>
    </g>
    <g>
      <path class="shape-5" d="M349.2 178.7l17.2-41.5-20.7-35.8h38.8l19.4-33.7 19.5 33.7h38.8l-20.7 35.8 17.2 41.5-54.8-22.6zM530.9 137l-27.3-35.6h-41.4l19.4-33.7-19.4-33.6H501L520.4.5l20.7 35.9 44.5 5.8-46.9 36.1zM585.6-41.2l-44.5 5.8L520.4.5 501-33.1h-38.8l19.4-33.6-19.4-33.7h41.4l27.3-35.6 7.8 58.7zM277-136l27.3 35.6h41.4l-19.4 33.7 19.4 33.6h-38.8L287.5.5l-20.7-35.9-44.5-5.8 46.9-36.1zM222.2 42.2l44.6-5.8L287.5.5l19.4 33.6h38.8l-19.4 33.6 19.4 33.7h-41.4L277 137l-7.8-58.7zM530.9 602.8l-27.3-35.6h-41.4l19.4-33.6-19.4-33.6H501l19.4-33.7 20.7 35.9 44.5 5.9-46.9 36z"/>
      <path class="shape-5" d="M585.6 424.6l-44.5 5.9-20.7 35.9-19.4-33.7h-38.8l19.4-33.6-19.4-33.6h41.4l27.3-35.6 7.8 58.7zM458.7 288.1l-17.2 41.5 20.7 35.9h-38.8l-19.5 33.6-19.4-33.6h-38.8l20.7-35.9-17.2-41.5 54.7 22.7zM277 329.9l27.3 35.6h41.4l-19.4 33.6 19.4 33.6h-38.8l-19.4 33.7-20.7-35.9-44.5-5.9 46.9-36zM222.2 508.1l44.6-5.9 20.7-35.8 19.4 33.6h38.8l-19.4 33.6 19.4 33.6h-41.4L277 602.9l-7.8-58.8zM752.7 411.6l17.2-41.4-20.7-35.9H788l19.4-33.6 19.4 33.6h38.9l-20.8 35.9 17.2 41.4-54.7-22.6zM862.1 55.2l-17.2 41.5 20.7 35.9h-38.8l-19.4 33.6-19.4-33.6h-38.9l20.8-35.9-17.2-41.5 54.7 22.7z"/>
      <path class="shape-5" d="M680.4 96.9l27.3 35.7h41.5l-19.4 33.6 19.4 33.6h-38.9l-19.4 33.7-20.7-35.9-44.5-5.9 47-36z"/>
      <path class="shape-5" d="M625.7 275.2l44.5-5.9 20.7-35.9 19.4 33.7h38.9l-19.4 33.6 19.4 33.6h-41.5l-27.3 35.6-7.7-58.7zM-54.2 411.6l17.2-41.4-20.7-35.9h38.8L.5 300.7l19.4 33.6h38.9L38 370.2l17.2 41.4L.5 389z"/>
      <path class="shape-5" d="M127.5 369.9l-27.4-35.6H58.7l19.4-33.6L58.7 267h38.9l19.4-33.6 20.7 35.9 44.5 5.9-47 36zM182.2 191.7l-44.5 5.9-20.7 35.8-19.4-33.6H58.7l19.4-33.6-19.4-33.7 41.4.1 27.4-35.7 7.7 58.8z"/>
      <path class="shape-5" d="M55.2 55.2L38 96.7l20.7 35.9H19.9L.5 166.2l-19.4-33.6h-38.9L-37 96.7l-17.2-41.5L.5 77.9z"/>
    </g>
  </g>
  <g class="guides">
    <path class="st0" d="M202.2-116L.5 233.4l201.7 349.4M605.7 582.8l201.7-349.4L605.7-116M605.7 117L403.9 233.4 202.2 117v-233l201.7-116.4L605.7-116z"/>
    <circle class="st0" cx="403.9" cy="233.4" r="77.4"/>
    <circle class="st0" cx="605.7" cy="117" r="77.4"/>
    <circle class="st0" cx="202.2" cy="117" r="77.4"/>
    <path class="st0" d="M202.2 117l201.7-349.4L605.7 117z"/>
    <circle class="st0" cx="403.9" cy=".5" r="116.5"/>
    <path class="st0" d="M77.9.5H730M202.2 349.9L.5 466.4l-201.7-116.5V117L.5.5 202.2 117z"/>
    <circle class="st0" cx=".5" cy="466.4" r="77.4"/>
    <circle class="st0" cx="202.2" cy="349.9" r="77.4"/>
    <circle class="st0" cx=".5" cy=".5" r="77.4"/>
    <path class="st0" d="M-201.2 349.9L605.7-116M.5 466.4V.5M-201.2 349.9L.5.5l201.7 349.4z"/>
    <circle class="st0" cx=".5" cy="233.4" r="116.5"/>
    <path class="st0" d="M1009.1 349.9L807.4 466.4 605.7 349.9V117L807.4.5 1009.1 117z"/>
    <circle class="st0" cx="807.4" cy="466.4" r="77.4"/>
    <circle class="st0" cx="807.4" cy=".5" r="77.4"/>
    <circle class="st0" cx="605.7" cy="349.9" r="77.4"/>
    <path class="st0" d="M202.2-116l806.9 465.9M605.7 349.9L807.4.5l201.7 349.4z"/>
    <circle class="st0" cx="807.4" cy="233.4" r="116.5"/>
    <path class="st0" d="M.5 233.4h806.9M605.7 582.8L403.9 699.3 202.2 582.8V349.9l201.7-116.5 201.8 116.5zM202.2 582.8L1009.1 117M-201.2 117l806.9 465.8"/>
    <path class="st0" d="M202.2 582.8l201.7-349.4 201.8 349.4z"/>
    <path class="st0" d="M605.7-116L403.9 233.4 202.2-116zM605.7 349.9L403.9 699.3 202.2 349.9zM202.2 117L.5 466.4-201.2 117zM1009.1 117L807.4 466.4 605.7 117z"/>
    <circle class="st0" cx="403.9" cy="466.4" r="116.5"/>
    <path class="st0" d="M.5.5h806.9v465.9H.5zM403.9 699.3v-931.7"/>
    <path class="st0" d="M672.8 466.4L403.9.5l-269 465.9"/>
    <path class="st0" d="M672.8.5L403.9 466.4 134.9.5"/>
    <circle class="st0" cx="269.4" cy="233.4" r="32.8"/>
    <circle class="st0" cx="538.4" cy="233.4" r="32.8"/>
    <circle class="st0" cx="672.8" cy=".5" r="32.8"/>
    <circle class="st0" cx="672.8" cy="466.4" r="32.8"/>
    <circle class="st0" cx="134.9" cy="466.4" r="32.8"/>
    <circle class="st0" cx="134.9" cy=".5" r="32.8"/>
  </g>
</svg>
