<svg version="1.1" xmlns="http://www.w3.org/2000/svg" width="806.896" height="465.859" viewBox="0 0 100% 100%">
  <style>
    :root {
      --black: #443430;
      --red: #BF402B;
      --gold: #CEA600;
      --turquois: #4D9BA3;
      --emerald: #216554;
      --blue: #262F66;
      --white: #FFFAF2;
    }
    .shape-6{fill:var(--turquois)}
    .shape-2{fill:var(--white)}
    .shape-5{fill:var(--red)}
    .shape-1{fill:var(--black)}
    .shape-3{fill:var(--white)}
    .shape-4{fill:var(--white)}
    .shape-7{fill:var(--white)}
    <!-- .line{stroke:#fff;stroke-width:15px} -->
    .guides{ stroke: #4FFF4F; display: none; fill: none}
  </style>
        <g class="line" id="pattern">
  <rect x="-18.911" y="-33.121" class="shape-6" width="845.718" height="533.099"/>
  <g>
    <polygon class="shape-1" points="276.96,136.992 285.904,204.957 349.237,178.721 326.577,233.432 349.238,288.139 285.906,261.901 
      276.96,329.868 240.91,282.888 182.202,275.16 236.59,233.432 182.202,191.701 240.913,183.971     "/>
    <polygon class="shape-1" points="458.66,178.721 521.99,204.957 530.936,136.99 566.985,183.971 625.694,191.699 571.307,233.428 
      625.694,275.158 566.984,282.889 530.938,329.867 521.994,261.902 458.66,288.139 481.32,233.428     "/>
    <polygon class="shape-1" points="585.647,42.229 640.035,0.5 585.646,-41.229 644.356,-48.96 680.406,-95.939 689.349,-27.973 
      752.684,-54.21 730.021,0.5 752.684,55.207 689.352,28.97 680.406,96.938 644.355,49.957     "/>
    <polygon class="shape-1" points="222.248,-41.23 167.86,0.5 222.249,42.229 163.537,49.961 127.489,96.939 118.545,28.974 
      55.212,55.211 77.873,0.5 55.211,-54.208 118.543,-27.971 127.489,-95.939 163.541,-48.957     "/>
    <polygon class="shape-1" points="585.647,508.087 640.035,466.359 585.646,424.629 644.356,416.898 680.406,369.92 689.349,437.885 
      752.684,411.648 730.021,466.359 752.684,521.065 689.352,494.828 680.406,562.796 644.355,515.815     "/>
    <polygon class="shape-1" points="222.248,424.629 167.86,466.357 222.249,508.087 163.537,515.819 127.489,562.798 118.545,494.832 
      55.212,521.069 77.873,466.357 55.211,411.65 118.543,437.887 127.489,369.92 163.541,416.902    "/>
  </g>
  <g>
    <polygon class="shape-2" points="306.894,34.121 287.483,0.5 306.894,-33.121 345.715,-33.121 365.127,0.5 345.715,34.121    "/>
    <polygon class="shape-2" points="345.715,101.361 326.305,67.741 345.715,34.121 384.536,34.121 403.948,67.741 384.536,101.361    "/>
    <polygon class="shape-2" points="423.359,101.361 403.948,67.741 423.359,34.121 462.18,34.121 481.591,67.741 462.18,101.361    "/>
    <polygon class="shape-2" points="462.18,34.121 442.769,0.5 462.18,-33.121 501.002,-33.121 520.412,0.5 501.002,34.121    "/>
    <polygon class="shape-2" points="345.715,432.738 326.305,399.117 345.715,365.497 384.536,365.497 403.948,399.117 384.536,432.738 
          "/>
    <polygon class="shape-2" points="306.894,499.979 287.483,466.358 306.894,432.738 345.715,432.738 365.127,466.358 345.715,499.979 
          "/>
    <polygon class="shape-2" points="462.18,499.979 442.769,466.358 462.18,432.738 501.002,432.738 520.412,466.358 501.002,499.979    
      "/>
    <polygon class="shape-2" points="423.359,432.738 403.948,399.117 423.359,365.497 462.18,365.497 481.591,399.117 462.18,432.738    
      "/>
    <polygon class="shape-2" points="749.164,199.81 729.752,166.189 749.164,132.568 787.984,132.568 807.396,166.189 787.984,199.81    
      "/>
    <polygon class="shape-2" points="710.342,267.051 690.932,233.43 710.342,199.81 749.164,199.81 768.573,233.43 749.164,267.051    "/>
    <polygon class="shape-2" points="749.164,334.291 729.752,300.672 749.164,267.051 787.984,267.051 807.396,300.672 787.984,334.291 
          "/>
    <polygon class="shape-2" points="826.807,334.291 807.396,300.672 826.807,267.051 865.628,267.051 885.039,300.672 865.628,334.291 
          "/>
    <polygon class="shape-2" points="826.807,199.81 807.396,166.189 826.807,132.568 865.628,132.568 885.039,166.189 865.628,199.81    
      "/>
    <polygon class="shape-2" points="-57.732,199.809 -77.143,166.188 -57.732,132.567 -18.911,132.567 0.5,166.188 -18.911,199.809    "/>
    <polygon class="shape-2" points="-57.732,334.29 -77.143,300.67 -57.732,267.049 -18.911,267.049 0.5,300.67 -18.911,334.29    "/>
    <polygon class="shape-2" points="19.911,334.29 0.5,300.67 19.911,267.049 58.732,267.049 78.144,300.67 58.732,334.29     "/>
    <polygon class="shape-2" points="58.732,267.049 39.321,233.429 58.732,199.809 97.554,199.809 116.965,233.429 97.554,267.049     "/>
    <polygon class="shape-2" points="19.911,199.809 0.5,166.188 19.911,132.567 58.732,132.567 78.144,166.188 58.732,199.809     "/>
  </g>
  <g>
    <polygon class="shape-3" points="458.656,288.139 403.948,310.803 349.238,288.139 326.577,233.432 349.238,178.721 403.945,156.057 
      458.66,178.717 481.319,233.428    "/>
    <polygon class="shape-3" points="680.404,96.939 672.677,155.65 625.694,191.699 566.985,183.971 530.936,136.99 538.662,78.279 
      585.645,42.227 644.355,49.957     "/>
    <polygon class="shape-3" points="182.2,191.699 135.217,155.652 127.489,96.939 163.537,49.961 222.248,42.23 269.231,78.277 
      276.961,136.992 240.913,183.971     "/>
    <polygon class="shape-3" points="625.694,275.16 672.677,311.207 680.406,369.92 644.356,416.898 585.646,424.629 538.665,388.582 
      530.934,329.867 566.982,282.889     "/>
    <polygon class="shape-3" points="127.491,369.918 135.217,311.207 182.199,275.158 240.908,282.887 276.958,329.867 269.232,388.578 
      222.25,424.631 163.54,416.9     "/>
    <polygon class="shape-3" points="862.105,521.068 807.396,543.732 752.686,521.068 730.025,466.361 752.686,411.65 807.395,388.986 
      862.106,411.646 884.768,466.357     "/>
    <polygon class="shape-3" points="752.688,-54.208 807.396,-76.873 862.106,-54.209 884.768,0.499 862.106,55.209 807.397,77.873 
      752.686,55.213 730.025,0.502    "/>
    <polygon class="shape-3" points="55.209,521.067 0.501,543.731 -54.21,521.067 -76.871,466.36 -54.21,411.649 0.498,388.985 
      55.212,411.646 77.872,466.356     "/>
    <polygon class="shape-3" points="-54.209,-54.209 0.5,-76.874 55.211,-54.211 77.871,0.497 55.211,55.208 0.502,77.872 
      -54.211,55.211 -76.871,0.501    "/>
  </g>
  <g>
    <polygon class="shape-4" points="304.301,101.363 276.96,136.992 285.904,204.957 349.236,178.721 366.422,137.229 345.715,101.361     
      "/>
    <polygon class="shape-4" points="441.474,137.229 458.66,178.721 521.99,204.957 530.936,136.992 503.595,101.363 462.18,101.361     
      "/>
    <polygon class="shape-4" points="541.121,36.366 585.647,42.229 640.035,0.5 585.647,-41.228 541.121,-35.366 520.412,0.5    "/>
    <polygon class="shape-4" points="266.774,-35.366 222.248,-41.23 167.86,0.5 222.247,42.229 266.774,36.367 287.483,0.5    "/>
    <polygon class="shape-4" points="541.121,502.225 585.647,508.087 640.035,466.359 585.647,424.631 541.121,430.492 520.412,466.359 
          "/>
    <polygon class="shape-4" points="503.596,365.495 530.938,329.866 521.992,261.901 458.66,288.138 441.475,329.63 462.182,365.497    
      "/>
    <polygon class="shape-4" points="366.42,329.629 349.237,288.137 285.904,261.9 276.96,329.865 304.299,365.496 345.715,365.496    "/>
    <polygon class="shape-4" points="266.774,430.492 222.248,424.629 167.86,466.357 222.247,508.087 266.774,502.225 287.483,466.357     
      "/>
    <polygon class="shape-4" points="707.748,334.293 680.407,369.922 689.353,437.887 752.684,411.65 769.869,370.158 749.164,334.291     
      "/>
    <polygon class="shape-4" points="769.869,96.7 752.686,55.208 689.353,28.972 680.407,96.937 707.748,132.567 749.164,132.567    "/>
    <polygon class="shape-4" points="670.223,197.564 625.695,191.7 571.309,233.43 625.694,275.158 670.223,269.297 690.932,233.43    "/>
    <polygon class="shape-4" points="38.026,370.157 55.212,411.649 118.543,437.886 127.487,369.921 100.147,334.292 58.731,334.29    "/>
    <polygon class="shape-4" points="137.674,269.295 182.2,275.157 236.587,233.43 182.199,191.701 137.674,197.562 116.965,233.43    "/>
    <polygon class="shape-4" points="100.148,132.565 127.49,96.937 118.545,28.972 55.213,55.208 38.027,96.7 58.734,132.567    "/>
  </g>
  <g>
    <polygon class="shape-5" points="349.238,178.721 366.423,137.229 345.715,101.361 384.536,101.361 403.948,67.741 423.359,101.361 
			462.215,101.361 441.473,137.229 458.66,178.717 403.948,156.057 		"/>
		<polygon class="shape-5" points="530.936,136.99 503.595,101.361 462.18,101.361 481.59,67.74 462.18,34.121 501.002,34.12 
			520.43,0.47 541.121,36.368 585.645,42.227 538.664,78.277 		"/>
		<polygon class="shape-5" points="585.646,-41.23 541.121,-35.367 520.412,0.5 501.002,-33.121 462.18,-33.121 481.59,-66.742 
			462.162,-100.39 503.596,-100.369 530.934,-135.991 538.664,-77.279 		"/>
		<polygon class="shape-5" points="276.958,-135.992 304.299,-100.363 345.715,-100.363 326.303,-66.742 345.715,-33.121 
			306.893,-33.121 287.467,0.529 266.769,-35.365 222.25,-41.228 269.231,-77.279 		"/>
		<polygon class="shape-5" points="222.248,42.23 266.774,36.367 287.483,0.5 306.893,34.122 345.715,34.121 326.305,67.742 
			345.733,101.391 304.299,101.361 276.961,136.992 269.231,78.279 		"/>
		<polygon class="shape-5" points="530.936,602.849 503.595,567.22 462.18,567.22 481.59,533.599 462.18,499.979 501.002,499.979 
			520.43,466.328 541.127,502.223 585.645,508.085 538.664,544.136 		"/>
		<polygon class="shape-5" points="585.646,424.629 541.121,430.492 520.412,466.359 501.002,432.738 462.18,432.738 481.59,399.117 
			462.162,365.469 503.596,365.49 530.934,329.867 538.664,388.58 		"/>
		<polygon class="shape-5" points="458.658,288.138 441.473,329.63 462.182,365.497 423.36,365.497 403.948,399.117 384.537,365.497 
			345.682,365.498 366.424,329.63 349.237,288.141 403.948,310.802 		"/>
		<polygon class="shape-5" points="276.958,329.867 304.299,365.496 345.715,365.496 326.303,399.117 345.715,432.738 306.893,432.738 
			287.467,466.387 266.774,430.49 222.25,424.631 269.231,388.58 		"/>
		<polygon class="shape-5" points="222.248,508.089 266.774,502.225 287.483,466.357 306.893,499.98 345.715,499.979 326.305,533.601 
			345.733,567.249 304.299,567.22 276.961,602.851 269.231,544.138 		"/>
		<polygon class="shape-5" points="752.686,411.65 769.871,370.158 749.164,334.291 787.984,334.291 807.396,300.672 826.807,334.291 
			865.661,334.291 844.919,370.158 862.106,411.646 807.396,388.986 		"/>
		<polygon class="shape-5" points="862.106,55.209 844.922,96.701 865.631,132.568 826.809,132.568 807.396,166.189 787.985,132.568 
			749.131,132.57 769.867,96.697 752.686,55.213 807.396,77.873 		"/>
		<polygon class="shape-5" points="680.406,96.938 707.748,132.567 749.164,132.567 729.752,166.188 749.164,199.81 710.342,199.81 
			690.915,233.459 670.217,197.565 625.697,191.702 672.68,155.651 		"/>
		<polygon class="shape-5" points="625.695,275.16 670.223,269.297 690.932,233.43 710.342,267.052 749.164,267.051 729.753,300.672 
			749.182,334.32 707.748,334.299 680.41,369.922 672.68,311.209 		"/>
		<polygon class="shape-5" points="-54.21,411.649 -37.024,370.157 -57.732,334.29 -18.911,334.29 0.5,300.67 19.911,334.29 
			58.767,334.29 38.024,370.157 55.212,411.646 0.5,388.985 		"/>
		<polygon class="shape-5" points="127.488,369.919 100.147,334.29 58.731,334.29 78.143,300.669 58.732,267.049 97.554,267.049 
			116.981,233.398 137.673,269.297 182.196,275.155 135.216,311.206 		"/>
		<polygon class="shape-5" points="182.198,191.699 137.673,197.562 116.965,233.43 97.554,199.809 58.732,199.809 78.143,166.188 
			58.715,132.539 100.148,132.568 127.485,96.938 135.216,155.65 		"/>
		<polygon class="shape-5" points="55.211,55.208 38.025,96.7 58.734,132.567 19.912,132.567 0.5,166.188 -18.91,132.567 
			-57.766,132.568 -37.029,96.696 -54.211,55.211 0.5,77.872 		"/>
  </g>
      </g>
      <g class="guides">
  <polyline class="st0" points="202.225,-115.964 0.5,233.429 202.225,582.823  "/>
  <polyline class="st0" points="605.672,582.823 807.396,233.43 605.672,-115.964   "/>
  <polygon class="st0" points="605.672,116.965 403.948,233.43 202.225,116.965 202.225,-115.964 403.948,-232.429 605.672,-115.964 
      "/>
  <circle class="st0" cx="403.948" cy="233.43" r="77.373"/>
  <circle class="st0" cx="605.672" cy="116.965" r="77.373"/>
  <circle class="st0" cx="202.225" cy="116.965" r="77.373"/>
  <polygon class="st0" points="202.225,116.965 403.948,-232.429 605.672,116.965   "/>
  <circle class="st0" cx="403.948" cy="0.5" r="116.465"/>
  <line class="st0" x1="77.873" y1="0.5" x2="730.021" y2="0.5"/>
  <polygon class="st0" points="202.224,349.894 0.5,466.358 -201.223,349.894 -201.223,116.965 0.5,0.5 202.224,116.965  "/>
  <circle class="st0" cx="0.5" cy="466.358" r="77.373"/>
  <circle class="st0" cx="202.224" cy="349.894" r="77.373"/>
  <circle class="st0" cx="0.5" cy="0.5" r="77.373"/>
  <line class="st0" x1="-201.223" y1="349.894" x2="605.67" y2="-115.963"/>
  <line class="st0" x1="0.5" y1="466.358" x2="0.5" y2="0.5"/>
  <polygon class="st0" points="-201.223,349.894 0.5,0.5 202.224,349.894   "/>
  <circle class="st0" cx="0.5" cy="233.429" r="116.465"/>
  <polygon class="st0" points="1009.119,349.895 807.396,466.359 605.673,349.895 605.673,116.967 807.396,0.501 1009.119,116.967  
    "/>
  <circle class="st0" cx="807.396" cy="466.359" r="77.373"/>
  <circle class="st0" cx="807.396" cy="0.502" r="77.373"/>
  <circle class="st0" cx="605.673" cy="349.895" r="77.373"/>
  <line class="st0" x1="202.224" y1="-115.963" x2="1009.119" y2="349.895"/>
  <polygon class="st0" points="605.673,349.895 807.396,0.501 1009.119,349.895   "/>
  <circle class="st0" cx="807.396" cy="233.43" r="116.464"/>
  <line class="st0" x1="0.5" y1="233.429" x2="807.396" y2="233.43"/>
  <polygon class="st0" points="605.672,582.823 403.948,699.288 202.225,582.823 202.225,349.895 403.948,233.43 605.672,349.895   
    "/>
  <line class="st0" x1="202.225" y1="582.823" x2="1009.119" y2="116.967"/>
  <line class="st0" x1="-201.223" y1="116.965" x2="605.672" y2="582.823"/>
  <polygon class="st0" points="202.225,582.823 403.948,233.43 605.672,582.823   "/>
  <polygon class="st0" points="605.67,-115.963 403.948,233.43 202.224,-115.963  "/>
  <polygon class="st0" points="605.67,349.896 403.948,699.288 202.224,349.896   "/>
  <polygon class="st0" points="202.223,116.966 0.5,466.358 -201.224,116.966   "/>
  <polygon class="st0" points="1009.119,116.967 807.396,466.359 605.672,116.967   "/>
  <circle class="st0" cx="403.948" cy="466.358" r="116.465"/>
  <rect x="0.5" y="0.5" class="st0" width="806.896" height="465.859"/>
  <line class="st0" x1="403.948" y1="699.288" x2="403.948" y2="-232.429"/>
  <polyline class="st0" points="672.783,466.358 403.948,0.5 134.859,466.358   "/>
  <polyline class="st0" points="672.787,0.5 403.948,466.358 134.86,0.5  "/>
  <circle class="st0" cx="269.404" cy="233.429" r="32.818"/>
  <circle class="st0" cx="538.367" cy="233.431" r="32.819"/>
  <circle class="st0" cx="672.788" cy="0.5" r="32.819"/>
  <circle class="st0" cx="672.784" cy="466.358" r="32.819"/>
  <circle class="st0" cx="134.859" cy="466.358" r="32.818"/>
  <circle class="st0" cx="134.86" cy="0.5" r="32.818"/>
      </g>
</svg>
