<svg xmlns="http://www.w3.org/2000/svg" width="375" height="649.5" viewBox="0 0 375 649.5">
  <style>
    :root {
      --black: #443430;
      --red: #BF402B;
      --gold: #CEA600;
      --turquois: #4D9BA3;
      --emerald: #216554;
      --blue: #262F66;
      --white: #FFFAF2;
    }
    .shape-8{fill:var(--red)}
    .shape-6{fill:var(--white)}
    .shape-5{fill:var(--black)}
    .shape-3{fill:var(--turquois)}
    .shape-2{fill:var(--white)}
    .shape-4{fill:var(--red)}
    .shape-1{fill:var(--white)}
    .guides{ stroke: #4FFF4F; display: none; fill: none}
  </style>
  <g id="pattern" class="line">
    <g>
      <path  class="shape-1" d="M68.2 218.5L98 198.2l-3.8-35.3-28.6-21-32.4 15.6-10.7 46.8 45.9 14.1zM-34.7 375.6L.5 408.3l35.2-32.7-2.7-36L.5 325.2 33 310.9l2.7-36-35-32.8-35.2 32.6zM410.6 274.9l-35.1-32.7-35.2 32.7 2.7 36 32.5 14.3-32.5 14.4-2.7 36 35.2 32.7 35.1-32.7zM188 650l32.5-14.4 2.7-36-35.2-32.7-35.2 32.7 2.7 36L188 650zM152.8 50.9L188 83.5l35.2-32.6-2.7-36L188 .5l-32.5 14.4-2.7 36z"/>
      <path  class="shape-1" d="M120.3 107.2l-29.8 20.3 3.7 35.4 28.7 20.9 32.6-15.7-4.1 17.6 4.1-17.6 10.6-46.7-45.8-14.2M255.7 543.3l29.8-20.4-3.8-35.3-28.7-20.9-32.5 15.6-10.7 46.8 45.9 14.2zM342.9 157.6l-32.5-15.7-28.7 21-3.8 35.3 29.9 20.3 45.8-14.1-10.7-46.8zM255.7 107.2l-45.9 14.2 10.7 46.7 32.5 15.7 28.7-20.9 3.8-35.4zM342.9 492.9l10.7-46.8-45.8-14.2-29.9 20.4 3.8 35.3 28.7 20.9 32.5-15.6M68.2 431.9l-45.9 14.2L33 492.9l32.6 15.6 28.6-20.9 3.8-35.3-29.8-20.4zM155.5 482.3l-32.6-15.6-28.7 20.9-3.7 35.3 29.8 20.4 45.8-14.2-10.6-46.8"/>
    </g>
    <path class="shape-5" d="M18.5 556.3h-36l18 22.6zM72.6 587.5L62 614.4l28.7 4.4zM-17.5 94.2h36L.5 71.6zM62 36l10.6 27 17.3-30 .8-1.3zM357.4 94.2h36.1l-18-22.6zM285.3 31.7L303.4 63l10.5-27zM393.5 556.3h-36.1l18.1 22.6zM303.4 587.5l-.7 1.1-17.4 30.2 28.6-4.4zM206 231.6h-36.1l18.1 22.6zM169.9 418.9H206l-18-22.6zM115.9 262.8L97.8 294l28.6-4.3zM249.5 360.8l10.6 26.9 17.3-29.9.7-1.4zM97.8 356.4l18.1 31.3 10.5-26.9zM260.1 262.8l-10.6 26.9 28.6 4.3z"/>
    <g>
      <path class="shape-6" d="M277.4 357.8l.7-1.4zM126.4 289.7l37.9-5.8 23.7-29.7-18.1-22.6h-36l-18 31.2 10.5 26.9-28.6 4.3-18 31.2 18 31.2 28.6 4.4 14-35.6zM249.5 289.7l10.6-26.9-18-31.2H206l-18 22.6 23.8 29.8zM278.1 294l-28.6-4.3-13.9 35.5 13.9 35.6-37.7 5.7-23.8 29.8 18 22.6h36.1l18-31.2-10.6-26.9 28.6-4.4 18.1-31.2zM126.4 360.8l-10.5 26.9 18 31.2h36l18.1-22.6-23.8-29.8zM54.6-93.2H-53.6L-107.7.5l54.1 93.7h36.1l18-22.6-23.8-29.9L-61 36-47.1.5-61-35l37.8-5.8L.5-70.6l23.8 29.9L62-35 48.1.5l14 35.5-37.8 5.7L.5 71.6l18 22.6h36.1l18-31.2L62 36l28.7-4.3 18-31.2zM429.6 556.3h-36.1l-18 22.6 23.8 29.8 37.7 5.7-13.9 35.6 13.9 35.5-37.7 5.7-23.8 29.8-23.8-29.8-37.8-5.7 14-35.5-14-35.6 37.9-5.7 23.7-29.8-18.1-22.6h-36l-18 31.2 10.5 26.9-28.6 4.4-18 31.2 54.1 93.6h108.2l54-93.6zM429.6-93.2H321.4L267.3.5l18 31.2 28.6 4.3 14-35.5-14-35.5 37.9-5.8 23.7-29.8 23.8 29.9L437-35 423.1.5 437 36l-37.7 5.7-23.8 29.9 18 22.6h36.1l54-93.7z"/>
      <path class="shape-6" d="M313.9 36l-10.5 27 18 31.2h36l18.1-22.6-23.8-29.9zM62 614.4l10.6-26.9-18-31.2H18.5l-18 22.6 23.8 29.8z"/>
      <path class="shape-6" d="M90.7 618.8L62 614.4 48.1 650l14 35.5-37.8 5.7L.5 721l-23.8-29.8-37.7-5.7 13.9-35.5-13.9-35.6 37.8-5.7L.5 578.9l-18-22.6h-36.1l-54.1 93.7 54.1 93.6H54.6l54.1-93.6z"/>
    </g>
    <g>
      <path class="shape-8" d="M249.5 360.8l-13.9-35.6 13.9-35.5-37.7-5.7-23.8-29.8-23.7 29.7-37.9 5.8 14 35.5-14 35.6 37.8 5.7 23.8 29.8 23.8-29.8zM62.1 36L48.1.5 62-35l-37.7-5.7L.5-70.6l-23.7 29.8L-61-35-47.1.5-61 36l37.7 5.7L.5 71.6l23.8-29.9zM313.9 614.4l14 35.6-14 35.5 37.8 5.7 23.8 29.8 23.8-29.8 37.7-5.7-13.9-35.5 13.9-35.6-37.7-5.7-23.8-29.8-23.7 29.8zM437 36L423.1.5 437-35l-37.7-5.7-23.8-29.9-23.7 29.8-37.9 5.8 14 35.5-14 35.5 37.8 5.7 23.8 29.9 23.8-29.9zM-61 614.4l13.9 35.6-13.9 35.5 37.7 5.7L.5 721l23.8-29.8 37.8-5.7-14-35.5L62 614.4l-37.7-5.7L.5 578.9l-23.7 29.8z"/>
    </g>
    <path class="shape-2" d="M169.9 231.6l-22.5-28.3 8.1-35.2 32.5-15.6 32.5 15.6 8 35.2-22.5 28.3zM-17.5 556.3L-40 528.1l8-35.2L.5 477.2 33 492.9l8 35.2-22.5 28.2zm374.9 0l-22.5-28.2 8-35.2 32.6-15.7 32.5 15.7 8 35.2-22.5 28.2zM169.9 418.9l-22.5 28.2 8.1 35.2L188 498l32.5-15.7 8-35.2-22.5-28.2zM-17.5 94.2L-40 122.4l8 35.2L.5 173.2 33 157.6l8-35.2-22.5-28.2zm374.9 0l-22.5 28.2 8 35.2 32.6 15.6 32.5-15.6 8-35.2-22.5-28.2zM97.8 294l-35.7 5.4-26.4-24.5 2.7-36 29.8-20.4 34.5 10.7 13.2 33.6zm162.3 93.7l13.2 33.6 34.5 10.6 29.8-20.3 2.7-36-26.5-24.5-35.7 5.3zM72.6 63l13.2 33.6 34.5 10.6 29.8-20.3 2.7-36-26.5-24.6-35.6 5.4zm43.3 324.7l-13.2 33.6-34.5 10.6-29.8-20.3-2.7-36 26.4-24.5 35.7 5.3zM303.4 63l-13.2 33.6-34.5 10.6-29.8-20.3-2.7-36 26.4-24.6 35.7 5.4zm-25.3 231l35.7 5.4 26.5-24.5-2.7-36-29.8-20.4-34.5 10.7-13.2 33.6z"/>
    <path class="shape-3" d="M277.9 198.2l3.8-35.3-28.7 20.9-32.5-15.7 8 35.2-22.5 28.3h36.1l18 31.2 13.2-33.6 34.5-10.7z"/>
    <path class="shape-3" d="M285.5 127.5l-3.8 35.4 28.7-21 32.5 15.7-8-35.2 22.5-28.2h-36l-18-31.2-13.2 33.6-34.5 10.6zm-195 395.4l3.7-35.3-28.6 20.9L33 492.9l8 35.2-22.5 28.2h36.1l18 31.2 13.2-33.6 34.5-10.6z"/>
    <path class="shape-3" d="M98 452.3l-3.8 35.3 28.7-20.9 32.6 15.6-8.1-35.2 22.5-28.2h-36l-18-31.2-13.2 33.6-34.5 10.6zM220.5-13.9L188 .5l32.5 14.4 2.7 36 26.4-24.6 35.7 5.4-18-31.2 18-31.2-35.7 5.4-26.4-24.6zM33 310.9L.5 325.2 33 339.6l2.7 36 26.4-24.5 35.7 5.3-18-31.2 18-31.2-35.7 5.4-26.4-24.5zm187.5 324.7L188 650l32.5 14.3 2.7 36 26.4-24.5 35.7 5.4-18-31.2 18-31.2-35.7 5.3-26.4-24.5zm-130-508.1l3.7 35.4-28.6-21L33 157.6l8-35.2-22.5-28.2h36.1l18-31.2 13.2 33.6 34.5 10.6zm65-141.4L188 .5l-32.5 14.4-2.7 36-26.5-24.6-35.6 5.4 18-31.2-18-31.2 35.6 5.4 26.5-24.6zM343 310.9l32.5 14.3-32.5 14.4-2.7 36-26.5-24.5-35.7 5.3 18.1-31.2-18.1-31.2 35.7 5.4 26.5-24.5zM155.5 635.6L188 650l-32.5 14.3-2.7 36-26.5-24.5-35.6 5.4 18-31.2-18-31.2 35.6 5.3 26.5-24.5zM98 198.2l-3.8-35.3 28.7 20.9 32.6-15.7-8.1 35.2 22.5 28.3h-36l-18 31.2-13.2-33.6-34.5-10.7zm179.9 254.1l3.8 35.3-28.7-20.9-32.5 15.6 8-35.2-22.5-28.2h36.1l18-31.2 13.2 33.6 34.5 10.6zM285.5 522.9l-3.8-35.3 28.7 20.9 32.5-15.6-8 35.2 22.5 28.2h-36l-18 31.2-13.2-33.6-34.5-10.6z"/>
    <path class="shape-4" d="M152.8 50.9l-2.7 36-29.8 20.3 45.8 14.2-10.6 46.7 32.5-15.6 32.5 15.6-10.7-46.7 45.9-14.2-29.8-20.3-2.7-36L188 83.5zM-34.7 375.6l-2.7 36-29.8 20.3 45.9 14.2-10.7 46.8L.5 477.2 33 492.9l-10.7-46.8 45.9-14.2-29.8-20.3-2.7-36L.5 408.3zm375 0l-2.7 36-29.8 20.3 45.8 14.2-10.7 46.8 32.6-15.7 32.5 15.7-10.7-46.8 45.9-14.2-29.9-20.3-2.7-36-35.1 32.7z"/>
    <path class="shape-2" d="M303.4 587.5l-13.2-33.6-34.5-10.6-29.8 20.3-2.7 36 26.4 24.5 35.7-5.3zm-230.8 0l13.2-33.6 34.5-10.6 29.8 20.3 2.7 36-26.5 24.5-35.6-5.3z"/>
    <path class="shape-4" d="M223.2 599.6l2.7-36 29.8-20.3-45.9-14.2 10.7-46.8L188 498l-32.5-15.7 10.6 46.8-45.8 14.2 29.8 20.3 2.7 36 35.2-32.7zm187.4-324.7l2.7-36 29.9-20.4-45.9-14.1 10.7-46.8-32.5 15.6-32.6-15.6 10.7 46.8-45.8 14.1 29.8 20.4 2.7 36 35.2-32.7zm-374.8-.2l2.7-35.9 29.9-20.4-45.9-14.1 10.7-46.8L.7 173.1l-32.6-15.6 10.7 46.8-45.8 14.1 29.8 20.4 2.7 35.9L.7 242.1z"/>
  </g>
  <g class="guides">
    <path d="M.5.5l375 649.5m0-324.8H.5M188 650V.5m209.3 203.9L-21.3 446.1m.1-241.8l418.5 241.8M375.5.5L.5 650"/>
    <circle cx="188" cy="325.2" r="71.1"/>
    <circle cx="188" cy="325.2" r="47.6"/>
    <circle cx=".5" cy="650" r="71.1"/>
    <circle cx=".5" cy="650" r="47.6"/>
    <circle cx="375.5" cy="650" r="71.1"/>
    <circle cx="375.5" cy="650" r="47.6"/>
    <circle cx=".5" cy=".5" r="71.1"/>
    <circle cx=".5" cy=".5" r="47.6"/>
    <circle cx="375.5" cy=".5" r="71.1"/>
    <circle cx="375.5" cy=".5" r="47.6"/>
    <path d="M.5.5l412.8 238.4M375.5.5L-37.2 238.8M.5 650l412.8-238.4M-37.4 411.6L375.5 650M188 194.1l66.9 15.2m-133.8 0l66.9-15.2"/>
    <circle cx="254.9" cy="209.3" r="53.7"/>
    <circle cx="188" cy="194.1" r="41.6"/>
    <path d="M188 456.4l-66.9-15.3m133.8 0L188 456.4"/>
    <circle cx="121.1" cy="441.1" r="53.7"/>
    <circle cx="188" cy="456.4" r="41.6"/>
    <path d="M74.4 259.7l46.7-50.4M54.2 325.2l20.2-65.5"/>
    <circle cx="121.1" cy="209.3" r="53.7"/>
    <circle cx="74.4" cy="259.7" r="41.6"/>
    <path d="M301.6 390.8l-46.7 50.3m66.9-115.9l-20.2 65.6"/>
    <circle cx="254.9" cy="441.1" r="53.7"/>
    <circle cx="301.6" cy="390.8" r="41.6"/>
    <g>
      <path d="M74.4 390.8l-20.2-65.6m66.9 115.9l-46.7-50.3"/>
      <circle cx="54.2" cy="325.2" r="53.7"/>
      <circle cx="74.4" cy="390.8" r="41.6"/>
    </g>
    <g>
      <path d="M301.6 259.7l20.2 65.5m-66.9-115.8l46.7 50.3"/>
      <circle cx="321.8" cy="325.2" r="53.7"/>
      <circle cx="301.6" cy="259.7" r="41.6"/>
    </g>
    <g>
      <path d="M375.5 518.8l66.9 15.3m-133.8 0l66.9-15.3"/>
      <circle cx="375.5" cy="518.8" r="41.6"/>
      <path d="M375.5 781.1l-66.9-15.3m133.8 0l-66.9 15.3M261.9 584.4l46.7-50.3M241.7 650l20.2-65.6"/>
      <circle cx="308.6" cy="534.1" r="53.7"/>
      <circle cx="261.9" cy="584.4" r="41.6"/>
      <path d="M489 715.5l-46.6 50.3M509.3 650L489 715.5M261.9 715.5L241.7 650m66.9 115.8l-46.7-50.3"/>
      <circle cx="241.7" cy="650" r="53.7"/>
      <g>
        <path d="M489 584.4l20.3 65.6m-66.9-115.9l46.6 50.3"/>
      </g>
    </g>
    <g>
      <path d="M.5 518.8l66.9 15.3m-133.8 0L.5 518.8"/>
      <circle cx="67.4" cy="534.1" r="53.7"/>
      <circle cx=".5" cy="518.8" r="41.6"/>
      <path d="M.5 781.1l-66.9-15.3m133.8 0L.5 781.1M-113.1 584.4l46.7-50.3M-133.3 650l20.2-65.6M114.1 715.5l-46.7 50.3M134.3 650l-20.2 65.5M-113.1 715.5l-20.2-65.5m66.9 115.8l-46.7-50.3M114.1 584.4l20.2 65.6M67.4 534.1l46.7 50.3"/>
      <circle cx="134.3" cy="650" r="53.7"/>
      <circle cx="114.1" cy="584.4" r="41.6"/>
    </g>
    <g>
      <path d="M375.5-130.7l66.9 15.3m-133.8 0l66.9-15.3m0 262.4l-66.9-15.3m133.8 0l-66.9 15.3"/>
      <circle cx="308.6" cy="116.4" r="53.7"/>
      <circle cx="375.5" cy="131.7" r="41.6"/>
      <path d="M261.9-65.1l46.7-50.3M241.7.5l20.2-65.6M489 66.1l-46.6 50.3M509.3.5L489 66.1M261.9 66.1L241.7.5m66.9 115.9l-46.7-50.3"/>
      <circle cx="241.7" cy=".5" r="53.7"/>
      <circle cx="261.9" cy="66.1" r="41.6"/>
      <g>
        <path d="M489.1-65.1L509.3.5m-66.9-115.9L489-65.1"/>
      </g>
    </g>
    <g>
      <path d="M.7-130.8l66.9 15.3m-133.8 0L.7-130.8m0 262.3l-66.9-15.2m133.8 0L.7 131.5"/>
      <circle cx=".7" cy="131.5" r="41.6"/>
      <path d="M-112.9-65.2l46.7-50.3M-133.1.4l20.2-65.6M114.2 66l-46.6 50.3M134.5.4L114.2 66"/>
      <circle cx="67.6" cy="116.3" r="53.7"/>
      <circle cx="114.2" cy="66" r="41.6"/>
      <g>
        <path d="M-112.9 66L-133.1.4m66.9 115.9L-112.9 66"/>
      </g>
      <g>
        <path d="M114.2-65.2L134.5.4M67.6-115.5l46.6 50.3"/>
        <circle cx="134.5" cy=".4" r="53.7"/>
      </g>
    </g>
  </g>
</svg>
