<svg xmlns="http://www.w3.org/2000/svg" width="375" height="649.5" viewBox="0 0 100% 100%">
  <style>
    :root { --golden: #907A58; --darkBlue: #475387; --beige: #DFD8CC; --teal: #4A9AC4; --gray: #A49DA0; --smaragd: #406A72; --sand: #D3BDA7; --grayGreen: #A2D1D6; --blueGray: #758390; --lightBrown: #AA8858; --blue1: #8EC5EE; --blue2: #8CC6EA; --blue3: #B6DAEC; --rust: #D8692D; --yellow: #F8C346; }
    .shape-1{fill:var(--sand)}
    .shape-2{fill:var(--grayGreen)}
    .shape-3{fill:var(--teal)}
    .shape-4{fill:var(--golden)}
    .shape-5{fill:var(--darkBlue)}
    .shape-6{fill:var(--smaragd)}
    .shape-7{fill:var(--blue3)}
    .shape-8{fill:var(--yellow)}
    .line{stroke:#fff;stroke-width:10px}
    .guides{ stroke: #4FFF4F; display: none; fill: none}
  </style>
  <g id="pattern" class="line">
    <path class="shape-1" d="M-61-35h498.1v720.5H-61z"/>
    <path class="shape-2" d="M169.9 231.6l-22.5-28.3 8.1-35.2 32.5-15.6 32.5 15.6 8 35.2-22.5 28.3zM-17.5 556.3L-40 528.1l8-35.2L.5 477.2 33 492.9l8 35.2-22.5 28.2zM357.4 556.3l-22.5-28.2 8-35.2 32.6-15.7 32.5 15.7 8 35.2-22.5 28.2zM169.9 418.9l-22.5 28.2 8.1 35.2L188 498l32.5-15.7 8-35.2-22.5-28.2zM-17.5 94.2L-40 122.4l8 35.2L.5 173.2 33 157.6l8-35.2-22.5-28.2zM357.4 94.2l-22.5 28.2 8 35.2 32.6 15.6 32.5-15.6 8-35.2-22.5-28.2zM97.8 294l-35.7 5.4-26.4-24.5 2.7-36 29.8-20.4 34.5 10.7 13.2 33.6zM260.1 387.7l13.2 33.6 34.5 10.6 29.8-20.3 2.7-36-26.5-24.5-35.7 5.3zM72.6 63l13.2 33.6 34.5 10.6 29.8-20.3 2.7-36-26.5-24.6-35.6 5.4zM115.9 387.7l-13.2 33.6-34.5 10.6-29.8-20.3-2.7-36 26.4-24.5 35.7 5.3zM303.4 63l-13.2 33.6-34.5 10.6-29.8-20.3-2.7-36 26.4-24.6 35.7 5.4zM278.1 294l35.7 5.4 26.5-24.5-2.7-36-29.8-20.4-34.5 10.7-13.2 33.6z"/>
    <path class="shape-3" d="M277.9 198.2l3.8-35.3-28.7 20.9-32.5-15.7 8 35.2-22.5 28.3h36.1l18 31.2 13.2-33.6 34.5-10.7z"/>
    <path class="shape-3" d="M285.5 127.5l-3.8 35.4 28.7-21 32.5 15.7-8-35.2 22.5-28.2h-36l-18-31.2-13.2 33.6-34.5 10.6zM90.5 522.9l3.7-35.3-28.6 20.9L33 492.9l8 35.2-22.5 28.2h36.1l18 31.2 13.2-33.6 34.5-10.6z"/>
    <path class="shape-3" d="M98 452.3l-3.8 35.3 28.7-20.9 32.6 15.6-8.1-35.2 22.5-28.2h-36l-18-31.2-13.2 33.6-34.5 10.6zM220.5-13.9L188 .5l32.5 14.4 2.7 36 26.4-24.6 35.7 5.4-18-31.2 18-31.2-35.7 5.4-26.4-24.6zM33 310.9L.5 325.2 33 339.6l2.7 36 26.4-24.5 35.7 5.3-18-31.2 18-31.2-35.7 5.4-26.4-24.5zM220.5 635.6L188 650l32.5 14.3 2.7 36 26.4-24.5 35.7 5.4-18-31.2 18-31.2-35.7 5.3-26.4-24.5zM90.5 127.5l3.7 35.4-28.6-21L33 157.6l8-35.2-22.5-28.2h36.1l18-31.2 13.2 33.6 34.5 10.6zM155.5-13.9L188 .5l-32.5 14.4-2.7 36-26.5-24.6-35.6 5.4 18-31.2-18-31.2 35.6 5.4 26.5-24.6zM343 310.9l32.5 14.3-32.5 14.4-2.7 36-26.5-24.5-35.7 5.3 18.1-31.2-18.1-31.2 35.7 5.4 26.5-24.5zM155.5 635.6L188 650l-32.5 14.3-2.7 36-26.5-24.5-35.6 5.4 18-31.2-18-31.2 35.6 5.3 26.5-24.5z"/>
    <path class="shape-3" d="M98 198.2l-3.8-35.3 28.7 20.9 32.6-15.7-8.1 35.2 22.5 28.3h-36l-18 31.2-13.2-33.6-34.5-10.7zM277.9 452.3l3.8 35.3-28.7-20.9-32.5 15.6 8-35.2-22.5-28.2h36.1l18-31.2 13.2 33.6 34.5 10.6z"/>
    <path class="shape-3" d="M285.5 522.9l-3.8-35.3 28.7 20.9 32.5-15.6-8 35.2 22.5 28.2h-36l-18 31.2-13.2-33.6-34.5-10.6z"/>
    <path class="shape-4" d="M152.8 50.9l-2.7 36-29.8 20.3 45.8 14.2-10.6 46.7 32.5-15.6 32.5 15.6-10.7-46.7 45.9-14.2-29.8-20.3-2.7-36L188 83.5zM-34.7 375.6l-2.7 36-29.8 20.3 45.9 14.2-10.7 46.8L.5 477.2 33 492.9l-10.7-46.8 45.9-14.2-29.8-20.3-2.7-36L.5 408.3zM340.3 375.6l-2.7 36-29.8 20.3 45.8 14.2-10.7 46.8 32.6-15.7 32.5 15.7-10.7-46.8 45.9-14.2-29.9-20.3-2.7-36-35.1 32.7z"/>
    <path class="shape-2" d="M303.4 587.5l-13.2-33.6-34.5-10.6-29.8 20.3-2.7 36 26.4 24.5 35.7-5.3zM72.6 587.5l13.2-33.6 34.5-10.6 29.8 20.3 2.7 36-26.5 24.5-35.6-5.3z"/>
    <path class="shape-4" d="M223.2 599.6l2.7-36 29.8-20.3-45.9-14.2 10.7-46.8L188 498l-32.5-15.7 10.6 46.8-45.8 14.2 29.8 20.3 2.7 36 35.2-32.7zM410.6 274.9l2.7-36 29.9-20.4-45.9-14.1 10.7-46.8-32.5 15.6-32.6-15.6 10.7 46.8-45.8 14.1 29.8 20.4 2.7 36 35.2-32.7zM35.8 274.7l2.7-35.9 29.9-20.4-45.9-14.1 10.7-46.8L.7 173.1l-32.6-15.6 10.7 46.8-45.8 14.1 29.8 20.4 2.7 35.9L.7 242.1z"/>
    <path class="shape-5" d="M133.9 418.9l-54.1-93.7 54.1-93.6h108.2l54.1 93.6-54.1 93.7z"/>
    <path class="shape-6" d="M188 254.2l-23.7 29.7-37.9 5.8 14 35.5-14 35.6 37.8 5.7 23.8 29.8 23.8-29.8 37.7-5.7-13.9-35.6 13.9-35.5-37.7-5.7z"/>
    <path class="shape-8" d="M169.9 231.6H206l-18 22.6zM169.9 418.9H206l-18-22.6zM97.8 294l18.1-31.2 10.5 26.9zM260.1 387.7l18-31.3-28.6 4.4zM115.9 387.7l-18.1-31.3 28.6 4.4zM278.1 294l-18-31.2-10.6 26.9z"/>
    <g>
      <path class="shape-5" d="M-53.6 94.2L-107.7.5l54.1-93.7H54.6L108.7.5 54.6 94.2z"/>
      <path class="shape-6" d="M.5-70.6l-23.7 29.8L-61-35-47.1.5-61 36l37.7 5.7L.5 71.6l23.8-29.9L62.1 36 48.1.5 62-35l-37.7-5.7z"/>
      <path class="shape-8" d="M-17.5 94.2h36L.5 71.6zM72.6 63l18.1-31.3L62 36z"/>
    </g>
    <g>
      <path class="shape-5" d="M321.4 743.6L267.3 650l54.1-93.7h108.2l54 93.7-54 93.6z"/>
      <path class="shape-6" d="M375.5 578.9l-23.7 29.8-37.9 5.7 14 35.6-14 35.5 37.8 5.7 23.8 29.8 23.8-29.8 37.7-5.7-13.9-35.5 13.9-35.6-37.7-5.7z"/>
      <path class="shape-8" d="M357.4 556.3h36.1l-18 22.6zM285.3 618.8l18.1-31.3 10.5 26.9z"/>
    </g>
    <g>
      <path class="shape-5" d="M321.4 94.2L267.3.5l54.1-93.7h108.2l54 93.7-54 93.7z"/>
      <path class="shape-6" d="M375.5-70.6l-23.7 29.8-37.9 5.8 14 35.5-14 35.5 37.8 5.7 23.8 29.9 23.8-29.9L437 36 423.1.5 437-35l-37.7-5.7z"/>
      <path class="shape-8" d="M357.4 94.2h36.1l-18-22.6zM303.4 63l-18.1-31.3 28.6 4.3z"/>
    </g>
    <g>
      <path class="shape-5" d="M-53.6 743.6l-54.1-93.6 54.1-93.7H54.6l54.1 93.7-54.1 93.6z"/>
      <path class="shape-6" d="M.5 578.9l-23.7 29.8-37.8 5.7 13.9 35.6-13.9 35.5 37.7 5.7L.5 721l23.8-29.8 37.8-5.7-14-35.5L62 614.4l-37.7-5.7z"/>
      <path class="shape-8" d="M-17.5 556.3h36l-18 22.6zM90.7 618.8l-18.1-31.3L62 614.4z"/>
    </g>
  </g>
  <g class="guides">
    <path class="st0" d="M.5.5l375 649.5M375.5 325.2H.5M188 650V.5M397.3 204.4L-21.3 446.1M-21.2 204.3l418.5 241.8M375.5.5L.5 650"/>
    <circle class="st14" cx="188" cy="325.2" r="71.1"/>
    <circle class="st15" cx="188" cy="325.2" r="47.6"/>
    <circle class="st14" cx=".5" cy="650" r="71.1"/>
    <circle class="st15" cx=".5" cy="650" r="47.6"/>
    <circle class="st14" cx="375.5" cy="650" r="71.1"/>
    <circle class="st15" cx="375.5" cy="650" r="47.6"/>
    <circle class="st14" cx=".5" cy=".5" r="71.1"/>
    <circle class="st15" cx=".5" cy=".5" r="47.6"/>
    <circle class="st14" cx="375.5" cy=".5" r="71.1"/>
    <circle class="st15" cx="375.5" cy=".5" r="47.6"/>
    <path class="st10" d="M.5.5l412.8 238.4"/>
    <path class="st5" d="M375.5.5L-37.2 238.8"/>
    <path class="st1" d="M.5 650l412.8-238.4"/>
    <path class="st13" d="M-37.4 411.6L375.5 650"/>
    <g>
      <path class="st0" d="M188 194.1l66.9 15.2M121.1 209.3l66.9-15.2"/>
      <circle class="st4" cx="254.9" cy="209.3" r="53.7"/>
      <circle class="st9" cx="188" cy="194.1" r="41.6"/>
      <path class="st0" d="M188 456.4l-66.9-15.3M254.9 441.1L188 456.4"/>
      <circle class="st4" cx="121.1" cy="441.1" r="53.7"/>
      <circle class="st9" cx="188" cy="456.4" r="41.6"/>
      <g>
        <path class="st0" d="M74.4 259.7l46.7-50.4M54.2 325.2l20.2-65.5"/>
        <circle class="st4" cx="121.1" cy="209.3" r="53.7"/>
        <circle class="st9" cx="74.4" cy="259.7" r="41.6"/>
      </g>
      <g>
        <path class="st0" d="M301.6 390.8l-46.7 50.3M321.8 325.2l-20.2 65.6"/>
        <circle class="st4" cx="254.9" cy="441.1" r="53.7"/>
        <circle class="st9" cx="301.6" cy="390.8" r="41.6"/>
      </g>
      <g>
        <path class="st0" d="M74.4 390.8l-20.2-65.6M121.1 441.1l-46.7-50.3"/>
        <circle class="st4" cx="54.2" cy="325.2" r="53.7"/>
        <circle class="st9" cx="74.4" cy="390.8" r="41.6"/>
      </g>
      <g>
        <path class="st0" d="M301.6 259.7l20.2 65.5M254.9 209.4l46.7 50.3"/>
        <circle class="st4" cx="321.8" cy="325.2" r="53.7"/>
        <circle class="st9" cx="301.6" cy="259.7" r="41.6"/>
      </g>
    </g>
    <g>
      <path class="st0" d="M375.5 518.8l66.9 15.3M308.6 534.1l66.9-15.3"/>
      <circle class="st9" cx="375.5" cy="518.8" r="41.6"/>
      <path class="st0" d="M375.5 781.1l-66.9-15.3M442.4 765.8l-66.9 15.3M261.9 584.4l46.7-50.3M241.7 650l20.2-65.6"/>
      <circle class="st4" cx="308.6" cy="534.1" r="53.7"/>
      <circle class="st9" cx="261.9" cy="584.4" r="41.6"/>
      <g>
        <path class="st0" d="M489 715.5l-46.6 50.3M509.3 650L489 715.5"/>
      </g>
      <g>
        <path class="st0" d="M261.9 715.5L241.7 650M308.6 765.8l-46.7-50.3"/>
        <circle class="st4" cx="241.7" cy="650" r="53.7"/>
      </g>
      <g>
        <path class="st0" d="M489 584.4l20.3 65.6M442.4 534.1l46.6 50.3"/>
      </g>
    </g>
    <g>
      <path class="st0" d="M.5 518.8l66.9 15.3M-66.4 534.1L.5 518.8"/>
      <circle class="st4" cx="67.4" cy="534.1" r="53.7"/>
      <circle class="st9" cx=".5" cy="518.8" r="41.6"/>
      <path class="st0" d="M.5 781.1l-66.9-15.3M67.4 765.8L.5 781.1"/>
      <g>
        <path class="st0" d="M-113.1 584.4l46.7-50.3M-133.3 650l20.2-65.6"/>
      </g>
      <g>
        <path class="st0" d="M114.1 715.5l-46.7 50.3M134.3 650l-20.2 65.5"/>
      </g>
      <g>
        <path class="st0" d="M-113.1 715.5l-20.2-65.5M-66.4 765.8l-46.7-50.3"/>
      </g>
      <g>
        <path class="st0" d="M114.1 584.4l20.2 65.6M67.4 534.1l46.7 50.3"/>
        <circle class="st4" cx="134.3" cy="650" r="53.7"/>
        <circle class="st9" cx="114.1" cy="584.4" r="41.6"/>
      </g>
    </g>
    <g>
      <path class="st0" d="M375.5-130.7l66.9 15.3M308.6-115.4l66.9-15.3M375.5 131.7l-66.9-15.3M442.4 116.4l-66.9 15.3"/>
      <circle class="st4" cx="308.6" cy="116.4" r="53.7"/>
      <circle class="st9" cx="375.5" cy="131.7" r="41.6"/>
      <g>
        <path class="st0" d="M261.9-65.1l46.7-50.3M241.7.5l20.2-65.6"/>
      </g>
      <g>
        <path class="st0" d="M489 66.1l-46.6 50.3M509.3.5L489 66.1"/>
      </g>
      <g>
        <path class="st0" d="M261.9 66.1L241.7.5M308.6 116.4l-46.7-50.3"/>
        <circle class="st4" cx="241.7" cy=".5" r="53.7"/>
        <circle class="st9" cx="261.9" cy="66.1" r="41.6"/>
      </g>
      <g>
        <path class="st0" d="M489.1-65.1L509.3.5M442.4-115.4L489-65.1"/>
      </g>
    </g>
    <g>
      <path class="st0" d="M.7-130.8l66.9 15.3M-66.2-115.5L.7-130.8M.7 131.5l-66.9-15.2M67.6 116.3L.7 131.5"/>
      <circle class="st9" cx=".7" cy="131.5" r="41.6"/>
      <path class="st0" d="M-112.9-65.2l46.7-50.3M-133.1.4l20.2-65.6"/>
      <g>
        <path class="st0" d="M114.2 66l-46.6 50.3M134.5.4L114.2 66"/>
        <circle class="st4" cx="67.6" cy="116.3" r="53.7"/>
        <circle class="st9" cx="114.2" cy="66" r="41.6"/>
      </g>
      <g>
        <path class="st0" d="M-112.9 66L-133.1.4M-66.2 116.3L-112.9 66"/>
      </g>
      <g>
        <path class="st0" d="M114.2-65.2L134.5.4M67.6-115.5l46.6 50.3"/>
        <circle class="st4" cx="134.5" cy=".4" r="53.7"/>
      </g>
    </g>
  </g>
</svg>
