<svg version="1.1" xmlns="http://www.w3.org/2000/svg" width="322.343" height="558.262" viewBox="0 0 100% 100%">
  <style>
    :root {
      --golden: #907A58;
      --darkBlue: #475387;
      --beige: #DFD8CC;
      --teal: #4A9AC4;
      --gray: #A49DA0;
      --smaragd: #406A72;
      --sand: #D3BDA7;
      --grayGreen: #A2D1D6;
      --blueGray: #758390;
      --lightBrown: #AA8858;
      --blue1: #8EC5EE;
      --blue2: #8CC6EA;
      --blue3: #B6DAEC;
      --rust: #D8692D;
      --yellow: #F8C346;
      --black: #443430;
      --red: #BF402B;
      --gold: #CEA600;
      --turquois: #4D9BA3;
      --emerald: #216554;
      --blue: #262F66;
      --white: #FFFAF2;
    
    }
    .shape-2{fill:var(--red); stroke:none}
    .shape-4{fill:var(--white)}
    .shape-1{fill:var(--turquois)}
    .shape-3{fill:var(--black)}
    <!-- .line{stroke:#fff;stroke-width:15px} -->
    .guides{ stroke: #4FFF4F; display: none; fill: none}
  </style>
      <g class="line" id="pattern">
  <rect x="-54.114" y="-62.035" class="shape-1" width="430.18" height="682.386"/>
  <g>
    <polygon class="shape-2" points="107.447,217.122 35.815,217.122 0,155.087 0,155.087 -35.816,217.122 -107.448,217.122 
      -107.448,217.122 -71.632,279.158 -107.448,341.192 -107.446,341.193 -35.815,341.193 0,403.228 0,403.228 35.815,341.193 
      107.445,341.193 107.447,341.193 71.631,279.158    "/>
    <polygon class="shape-2" points="429.79,217.122 358.157,217.122 322.343,155.087 322.343,155.087 286.526,217.122 214.895,217.122 
      214.894,217.122 250.71,279.158 214.895,341.192 214.896,341.193 286.526,341.193 322.343,403.228 322.343,403.228 
      358.157,341.193 429.788,341.193 429.79,341.193 393.974,279.158    "/>
    <polygon class="shape-2" points="268.618,496.279 196.985,496.279 161.171,434.244 161.171,434.244 125.354,496.279 53.723,496.279 
      53.722,496.279 89.538,558.314 53.723,620.35 53.724,620.35 125.354,620.35 161.171,682.385 161.171,682.385 196.985,620.35 
      268.616,620.35 268.618,620.35 232.802,558.314     "/>
    <polygon class="shape-2" points="268.62,-62.035 196.987,-62.035 161.173,-124.07 161.173,-124.07 125.356,-62.035 53.725,-62.035 
      53.724,-62.035 89.54,0 53.725,62.035 53.726,62.035 125.356,62.035 161.173,124.069 161.173,124.069 196.987,62.035 
      268.618,62.035 268.62,62.035 232.804,0    "/>
  </g>
  <g>
    <polygon class="shape-3" points="161.171,248.139 107.446,279.157 161.171,310.175 214.896,279.157    "/>
    <polygon class="shape-3" points="268.618,434.244 268.618,372.21 214.894,403.229 214.894,465.262     "/>
    <polygon class="shape-3" points="107.447,403.229 53.722,372.21 53.722,434.244 107.447,465.262     "/>
    <polygon class="shape-3" points="268.62,124.071 214.894,93.052 214.894,155.085 268.62,186.104     "/>
    <polygon class="shape-3" points="107.447,155.087 107.447,93.052 53.724,124.07 53.724,186.104    "/>
    <polygon class="shape-3" points="0,-31.018 -53.724,0 0,31.018 53.724,0    "/>
    <polygon class="shape-3" points="322.343,-31.018 268.618,0 322.343,31.018 376.067,0     "/>
    <polygon class="shape-3" points="-0.001,527.297 -53.726,558.314 -0.001,589.332 53.723,558.314     "/>
    <polygon class="shape-3" points="322.341,527.297 268.616,558.314 322.341,589.334 376.065,558.314    "/>
  </g>
  <g>
    <polygon class="shape-4" points="161.171,248.139 107.447,217.122 71.631,279.158 107.447,341.193 107.447,341.192 161.171,310.175 
      107.446,279.157     "/>
    <polygon class="shape-4" points="214.894,217.122 161.171,248.139 214.896,279.157 161.171,310.175 214.894,341.192 214.895,341.192 
      250.71,279.158    "/>
    <polygon class="shape-4" points="268.618,434.244 322.343,403.228 286.526,341.193 214.896,341.193 214.894,341.193 214.894,403.229 
      268.618,372.21    "/>
    <polygon class="shape-4" points="214.894,465.262 214.894,403.229 161.171,434.244 196.985,496.279 268.618,496.279 268.618,434.244 
          "/>
    <polygon class="shape-4" points="107.447,403.229 107.447,341.193 107.445,341.193 35.815,341.193 0,403.228 53.722,434.244 
      53.722,372.21     "/>
    <polygon class="shape-4" points="107.447,403.229 107.447,465.262 53.722,434.244 53.722,496.279 53.723,496.279 125.354,496.279 
      161.171,434.244     "/>
    <polygon class="shape-4" points="268.62,124.071 268.62,186.104 214.894,155.085 214.894,217.122 214.895,217.122 286.526,217.122 
      322.343,155.087     "/>
    <polygon class="shape-4" points="268.62,124.071 268.62,62.035 268.618,62.035 196.987,62.035 161.173,124.069 214.894,155.085 
      214.894,93.052    "/>
    <polygon class="shape-4" points="53.724,186.104 53.724,124.07 0,155.087 35.815,217.122 107.447,217.122 107.447,155.087    "/>
    <polygon class="shape-4" points="107.447,155.087 161.173,124.069 125.356,62.035 53.726,62.035 53.724,62.035 53.724,124.07 
      107.447,93.052    "/>
    <polygon class="shape-4" points="53.724,-62.035 0,-31.018 53.724,0 0,31.018 53.724,62.035 53.725,62.035 89.54,0     "/>
    <polygon class="shape-4" points="0,-31.018 -53.724,-62.035 -89.54,0 -53.724,62.035 0,31.018 -53.724,0     "/>
    <polygon class="shape-4" points="376.065,186.104 376.065,124.07 322.343,155.087 358.157,217.122 429.79,217.122 429.79,155.087     
      "/>
    <polygon class="shape-4" points="322.343,-31.018 268.62,-62.035 232.804,0 268.62,62.035 322.343,31.018 268.618,0    "/>
    <polygon class="shape-4" points="376.065,-62.035 322.343,-31.018 376.067,0 322.343,31.018 376.065,62.035 376.066,62.035 411.882,0 
          "/>
    <polygon class="shape-4" points="53.722,496.279 -0.001,527.297 53.723,558.314 -0.001,589.332 53.722,620.35 53.723,620.35 
      89.538,558.314    "/>
    <polygon class="shape-4" points="-0.001,527.297 -53.725,496.279 -89.541,558.314 -53.725,620.35 -0.001,589.332 -53.726,558.314     
      "/>
    <polygon class="shape-4" points="-35.815,341.193 -107.446,341.193 -107.448,341.193 -107.448,403.228 -53.725,372.21 
      -53.725,434.244 0,403.228     "/>
    <polygon class="shape-4" points="-107.448,155.086 -107.448,217.122 -107.448,217.122 -35.816,217.122 0,155.087 -53.724,124.07 
      -53.724,186.104     "/>
    <polygon class="shape-4" points="429.79,403.229 429.79,341.193 429.788,341.193 358.157,341.193 322.343,403.228 376.063,434.242 
      376.063,372.21    "/>
    <polygon class="shape-4" points="322.341,527.297 268.618,496.279 232.802,558.314 268.618,620.35 322.341,589.334 268.616,558.314     
      "/>
    <polygon class="shape-4" points="376.063,496.279 322.341,527.297 376.065,558.314 322.341,589.334 376.063,620.35 376.064,620.35 
      411.88,558.314    "/>
  </g>
      </g>
      <g class="guides">
 <line class="st7" x1="-268.621" y1="744.419" x2="268.62" y2="-186.105"/>
  <line class="st7" x1="-53.726" y1="558.314" x2="376.065" y2="558.314"/>
  <line class="st7" x1="-268.62" y1="-186.105" x2="268.618" y2="744.419"/>
  <line class="st7" x1="-53.724" y1="0" x2="376.067" y2="0"/>
  <line class="st7" x1="53.724" y1="-186.105" x2="590.96" y2="744.419"/>
  <line class="st7" x1="0" y1="-31.018" x2="0" y2="589.334"/>
  <polygon class="st7" points="53.724,186.104 53.724,372.21 -107.448,279.157  "/>
  <polygon class="st7" points="-53.725,186.105 107.446,279.157 -53.725,372.21   "/>
  <line class="st7" x1="-214.896" y1="279.157" x2="537.237" y2="279.157"/>
  <line class="st7" x1="322.343" y1="-31.018" x2="322.343" y2="589.331"/>
  <polygon class="st7" points="376.065,186.104 376.065,372.21 214.894,279.157   "/>
  <polygon class="st7" points="268.618,186.105 429.788,279.157 268.618,372.21   "/>
  <polygon class="st7" points="268.618,372.21 268.618,744.419 -53.726,558.314   "/>
  <polygon class="st7" points="53.722,372.21 53.722,744.419 376.065,558.314   "/>
  <line class="st7" x1="53.722" y1="744.419" x2="590.962" y2="-186.105"/>
  <polyline class="st7" points="-107.448,217.122 322.343,465.137 53.722,620.35  "/>
  <polyline class="st7" points="429.79,217.122 0,465.121 268.618,620.35   "/>
  <polygon class="st7" points="214.894,465.262 214.894,651.367 53.722,558.314   "/>
  <polygon class="st7" points="107.446,465.262 268.616,558.314 107.446,651.367  "/>
  <polyline class="st7" points="268.62,186.104 -53.724,0 268.62,-186.105 268.62,186.104   "/>
  <polygon class="st7" points="53.724,186.104 53.724,-186.105 376.067,0   "/>
  <line class="st7" x1="161.173" y1="-124.07" x2="161.171" y2="682.385"/>
  <polyline class="st7" points="268.62,-62.035 0,92.913 429.79,341.192  "/>
  <polyline class="st7" points="53.724,-62.035 322.343,92.928 -107.449,341.192  "/>
  <polygon class="st7" points="214.896,-93.053 214.896,93.053 53.724,0  "/>
  <polygon class="st7" points="107.448,-93.053 268.618,0 107.448,93.052   "/>
  <polygon class="st7" points="53.724,0 -268.62,186.104 -268.62,-186.105  "/>
  <polygon class="st7" points="268.618,0 590.962,186.104 590.962,-186.105   "/>
  <polygon class="st7" points="53.723,558.314 -268.621,744.419 -268.621,372.21  "/>
  <polygon class="st7" points="268.616,558.314 590.96,744.419 590.96,372.21   "/>
  <polygon class="st7" points="107.447,465.262 -214.896,279.157 107.447,93.052  "/>
  <polygon class="st7" points="214.894,465.262 214.894,93.052 537.237,279.157   "/>
  <polygon class="st7" points="214.896,279.157 -107.448,465.262 -107.448,93.052   "/>
  <polygon class="st7" points="107.446,279.157 429.79,465.262 429.79,93.052   "/>
  <line class="st7" x1="-53.724" y1="0" x2="376.067" y2="0"/>
      </g>
</svg>
