<svg version="1.1" xmlns="http://www.w3.org/2000/svg" width="391.962" height="391.961" viewBox="0 0 391.962 391.961">
  <style>
    :root {
      --black: #443430;
      --red: #BF402B;
      --gold: #CEA600;
      --turquois: #4D9BA3;
      --emerald: #216554;
      --blue: #262F66;
      --white: #FFFAF2;
    }
    .shape-1{fill:var(--turquois)}
    .shape-5{fill:var(--white)}
    .shape-7{fill:var(--white)}
    .shape-4{fill:var(--red)}
    .shape-6{fill:var(--white)}
    .shape-3{fill:var(--black)}
    .shape-2{fill:var(--gold)}
    <!-- .line{stroke:#fff;stroke-width:10px} -->
    .guides{ stroke: #4FFF4F; display: none; fill: none}
  </style>
      <g class="line" id="pattern">
  <g>
    <polygon class="shape-1" points="214.84,163.316 195.982,130.653 177.124,163.316 139.407,163.316 158.265,195.98 139.407,228.644 
      177.124,228.644 195.982,261.307 214.84,228.644 252.557,228.644 233.698,195.98 252.557,163.316     "/>
    <polygon class="shape-1" points="410.823,97.991 410.823,-26.897 338.717,-26.897 354.245,-0.001 335.387,32.662 373.104,32.662    "/>
    <polygon class="shape-1" points="-18.857,97.991 0.002,65.326 0.001,65.325 18.86,32.662 56.577,32.662 37.718,-0.001 53.247,-26.897 
      -29.691,-26.897 -29.691,97.991    "/>
    <polygon class="shape-1" points="37.718,391.961 56.576,359.299 56.572,359.299 56.572,359.298 18.86,359.298 0.001,326.635 
      18.86,293.971 0,326.636 -18.859,293.971 -29.691,293.971 -29.691,418.856 53.246,418.856    "/>
    <polygon class="shape-1" points="410.821,293.971 391.962,326.635 391.962,326.635 373.104,359.298 335.387,359.298 354.245,391.961 
      338.717,418.856 410.823,418.856 410.823,293.971     "/>
  </g>
  <g>
    <polygon class="shape-2" points="195.982,438.153 163.318,424.624 149.789,391.961 163.318,359.298 195.982,345.769 228.644,359.299 
      242.175,391.961 228.644,424.624     "/>
    <polygon class="shape-2" points="0.001,242.171 -32.662,228.642 -46.191,195.979 -32.662,163.316 0.001,149.787 32.665,163.316 
      46.195,195.979 32.665,228.642     "/>
    <polygon class="shape-2" points="-46.191,195.98 -32.662,163.316 0.001,149.787 32.665,163.316 46.194,195.98 32.664,228.642 
      0.001,242.173 -32.662,228.642     "/>
    <polygon class="shape-2" points="195.982,-46.193 228.645,-32.664 242.174,0 228.645,32.663 195.982,46.192 163.32,32.662 149.789,0 
      163.32,-32.664    "/>
    <polygon class="shape-2" points="438.155,195.981 424.626,228.646 391.962,242.175 359.299,228.646 345.77,195.981 359.3,163.319 
      391.962,149.788 424.626,163.319     "/>
  </g>
  <g>
    <polygon class="shape-3" points="163.318,359.298 169.085,345.375 160.115,329.838 143.47,339.448 133.859,356.095 149.396,365.064     
      "/>
    <polygon class="shape-3" points="228.644,359.299 242.567,365.065 258.104,356.096 248.494,339.45 231.848,329.839 222.877,345.375     
      "/>
    <polygon class="shape-3" points="32.665,163.316 46.587,169.083 62.125,160.113 52.514,143.467 35.868,133.856 26.898,149.393    "/>
    <polygon class="shape-3" points="32.664,228.642 26.897,242.564 35.867,258.102 52.512,248.492 62.124,231.845 46.587,222.875    "/>
    <polygon class="shape-3" points="228.645,32.663 222.878,46.585 231.848,62.123 248.494,52.512 258.105,35.866 242.568,26.896    "/>
    <polygon class="shape-3" points="163.32,32.662 149.397,26.895 133.86,35.865 143.47,52.51 160.117,62.122 169.086,46.585    "/>
    <polygon class="shape-3" points="359.299,228.646 345.377,222.878 329.84,231.849 339.449,248.494 356.097,258.105 365.065,242.568     
      "/>
    <polygon class="shape-3" points="359.3,163.319 365.067,149.397 356.098,133.86 339.452,143.47 329.84,160.116 345.377,169.087     "/>
  </g>
  <g>
    <polygon class="shape-4" points="139.407,228.644 101.687,228.644 82.831,195.982 62.124,231.851 97.989,252.558 97.989,293.972 
      139.407,293.973 120.547,261.31    "/>
    <polygon class="shape-4" points="335.387,424.623 297.667,424.623 278.811,391.962 258.104,427.83 293.969,448.537 293.969,489.951 
      335.387,489.952 316.527,457.289     "/>
    <polygon class="shape-4" points="335.387,32.662 297.667,32.662 278.811,0.001 258.104,35.869 293.969,56.576 293.969,97.99 
      335.387,97.991 316.527,65.328     "/>
    <polygon class="shape-4" points="195.982,261.307 177.124,293.971 139.407,293.971 160.115,329.838 195.982,309.131 231.848,329.839 
      252.557,293.971 214.84,293.971    "/>
    <polygon class="shape-4" points="195.982,261.307 177.124,293.971 139.407,293.971 160.115,329.838 195.982,309.131 231.848,329.839 
      252.557,293.971 214.84,293.971    "/>
    <polygon class="shape-4" points="252.557,228.644 271.415,261.308 252.558,293.971 293.974,293.97 293.974,252.556 329.84,231.849 
      309.132,195.979 290.274,228.644     "/>
    <polygon class="shape-4" points="56.572,424.625 75.43,457.289 56.573,489.952 97.989,489.951 97.989,448.537 133.855,427.83 
      113.147,391.961 94.29,424.625     "/>
    <polygon class="shape-4" points="56.577,32.662 75.435,65.326 56.578,97.989 97.994,97.988 97.994,56.574 133.86,35.867 
      113.152,-0.002 94.294,32.662    "/>
    <polygon class="shape-4" points="252.557,163.316 290.274,163.316 309.132,195.979 329.84,160.111 293.974,139.404 293.974,97.989 
      252.557,97.988 271.415,130.651    "/>
    <polygon class="shape-4" points="56.576,-32.663 94.293,-32.663 113.151,0 133.858,-35.868 97.993,-56.575 97.993,-97.99 
      56.576,-97.991 75.434,-65.328     "/>
    <polygon class="shape-4" points="56.572,359.299 94.29,359.299 113.147,391.961 133.854,356.094 97.989,335.387 97.989,293.972 
      56.572,293.971 75.43,326.634    "/>
    <polygon class="shape-4" points="195.982,130.653 214.841,97.988 252.557,97.988 231.848,62.122 195.982,82.829 160.116,62.121 
      139.406,97.989 177.123,97.988     "/>
    <polygon class="shape-4" points="0,326.636 18.86,293.971 56.575,293.971 35.866,258.104 0,278.812 -35.866,258.104 -56.576,293.972 
      -18.859,293.971     "/>
    <polygon class="shape-4" points="0.002,65.326 -18.857,97.991 -56.572,97.991 -35.863,133.857 0.002,113.15 35.868,133.858 
      56.578,97.99 18.861,97.991    "/>
    <polygon class="shape-4" points="139.407,163.316 120.547,130.65 139.405,97.989 97.989,97.99 97.989,139.404 62.123,160.111 
      82.831,195.98 101.688,163.316     "/>
    <polygon class="shape-4" points="335.388,-32.666 316.528,-65.332 335.386,-97.993 293.97,-97.992 293.97,-56.578 258.104,-35.871 
      278.812,-0.001 297.669,-32.666    "/>
    <polygon class="shape-4" points="335.387,359.298 316.527,326.632 335.386,293.971 293.969,293.972 293.969,335.386 258.103,356.093 
      278.811,391.962 297.669,359.298     "/>
    <polygon class="shape-4" points="391.964,65.326 373.104,97.991 335.39,97.991 356.098,133.857 391.964,113.15 427.829,133.858 
      448.54,97.99 410.823,97.991     "/>
    <polygon class="shape-4" points="391.961,326.636 410.821,293.971 448.535,293.971 427.827,258.104 391.961,278.812 356.097,258.104 
      335.386,293.972 373.103,293.971     "/>
  </g>
  <g>
    <polygon class="shape-5" points="160.115,329.838 195.982,309.131 231.848,329.839 222.877,345.375 228.644,359.299 195.982,345.769 
      163.318,359.298 169.085,345.375     "/>
    <polygon class="shape-5" points="133.858,427.828 113.151,391.961 133.859,356.096 149.396,365.065 163.319,359.299 149.789,391.961 
      163.318,424.625 149.396,418.857     "/>
    <polygon class="shape-5" points="258.106,356.094 278.813,391.961 258.105,427.826 242.568,418.856 228.645,424.623 242.175,391.961 
      228.646,359.297 242.568,365.064     "/>
    <polygon class="shape-5" points="62.125,160.113 82.832,195.98 62.124,231.845 46.587,222.875 32.664,228.642 46.194,195.98 
      32.665,163.316 46.587,169.083     "/>
    <polygon class="shape-5" points="-35.866,133.856 0.001,113.149 35.867,133.857 26.897,149.393 32.664,163.317 0.001,149.787 
      -32.663,163.316 -26.895,149.393     "/>
    <polygon class="shape-5" points="35.869,258.104 0.001,278.811 -35.864,258.104 -26.894,242.566 -32.661,228.642 0.001,242.173 
      32.666,228.644 26.898,242.566     "/>
    <polygon class="shape-5" points="231.848,62.123 195.982,82.83 160.117,62.122 169.086,46.585 163.32,32.662 195.982,46.192 
      228.645,32.663 222.878,46.585     "/>
    <polygon class="shape-5" points="258.106,-35.868 278.812,0 258.104,35.865 242.568,26.895 228.644,32.662 242.174,0 
      228.645,-32.665 242.568,-26.897     "/>
    <polygon class="shape-5" points="133.858,35.867 113.151,0 133.859,-35.866 149.395,-26.896 163.319,-32.663 149.789,0 
      163.318,32.664 149.395,26.896     "/>
    <polygon class="shape-5" points="329.84,231.849 309.132,195.981 329.84,160.116 345.377,169.087 359.3,163.319 345.77,195.981 
      359.299,228.646 345.377,222.878     "/>
    <polygon class="shape-5" points="427.829,258.105 391.962,278.812 356.098,258.104 365.067,242.568 359.3,228.645 391.962,242.175 
      424.627,228.646 418.858,242.568     "/>
    <polygon class="shape-5" points="356.095,133.858 391.962,113.151 427.827,133.858 418.857,149.396 424.624,163.319 391.962,149.788 
      359.298,163.317 365.065,149.396     "/>
  </g>
  <g>
    <polygon class="shape-6" points="97.989,293.972 98.021,335.403 133.854,356.094 143.47,339.448 160.115,329.838 139.407,293.971     
      "/>
    <polygon class="shape-6" points="293.97,293.969 252.539,294.001 231.848,329.834 248.494,339.45 258.104,356.096 293.972,335.387    
      "/>
    <polygon class="shape-6" points="293.976,97.989 293.943,56.557 258.11,35.867 248.494,52.512 231.848,62.123 252.557,97.99    "/>
    <polygon class="shape-6" points="97.994,97.992 139.425,97.959 160.116,62.126 143.47,52.51 133.86,35.865 97.993,56.574     "/>
    <polygon class="shape-6" points="97.995,293.969 97.963,252.538 62.124,231.851 52.514,248.493 35.869,258.104 56.577,293.971    "/>
    <polygon class="shape-6" points="97.99,97.987 56.559,98.02 35.872,133.859 52.514,143.468 62.125,160.114 97.992,139.405    "/>
    <polygon class="shape-6" points="293.969,97.993 294.001,139.424 329.84,160.111 339.449,143.469 356.095,133.858 335.387,97.991     
      "/>
    <polygon class="shape-6" points="293.973,293.975 335.405,293.941 356.093,258.103 339.449,248.493 329.839,231.848 293.972,252.556 
          "/>
  </g>
  <g>
    <polygon class="shape-7" points="101.69,228.644 82.832,195.98 101.69,163.316 139.407,163.316 158.265,195.98 139.407,228.644     "/>
    <polygon class="shape-7" points="139.407,293.971 120.548,261.307 139.407,228.644 177.124,228.644 195.982,261.307 177.124,293.971 
          "/>
    <polygon class="shape-7" points="214.84,293.971 195.982,261.307 214.84,228.644 252.557,228.644 271.415,261.307 252.557,293.971    
      "/>
    <polygon class="shape-7" points="252.557,228.644 233.698,195.98 252.557,163.316 290.273,163.316 309.132,195.98 290.273,228.644    
      "/>
    <polygon class="shape-7" points="214.84,163.316 195.982,130.653 214.84,97.989 252.557,97.989 271.415,130.653 252.557,163.316    "/>
    <polygon class="shape-7" points="139.407,163.316 120.548,130.653 139.407,97.989 177.124,97.989 195.982,130.653 177.124,163.316    
      "/>
    <polygon class="shape-7" points="297.67,32.662 278.812,-0.001 297.67,-32.665 335.387,-32.665 354.245,-0.001 335.387,32.662    "/>
    <polygon class="shape-7" points="335.387,97.989 316.528,65.325 335.387,32.662 373.104,32.662 391.962,65.325 373.104,97.989    "/>
    <polygon class="shape-7" points="94.293,32.662 113.152,-0.001 94.293,-32.665 56.577,-32.665 37.718,-0.001 56.577,32.662     "/>
    <polygon class="shape-7" points="56.577,97.989 75.435,65.325 56.577,32.662 18.86,32.662 0.001,65.325 18.86,97.989     "/>
    <polygon class="shape-7" points="373.104,359.298 391.962,326.635 373.104,293.971 335.387,293.971 316.528,326.635 335.387,359.298 
          "/>
    <polygon class="shape-7" points="335.387,424.625 354.245,391.961 335.387,359.298 297.67,359.298 278.812,391.961 297.67,424.625    
      "/>
    <polygon class="shape-7" points="56.577,424.625 37.718,391.961 56.577,359.298 94.293,359.298 113.152,391.961 94.293,424.625     "/>
    <polygon class="shape-7" points="18.86,359.298 0.001,326.635 18.86,293.971 56.577,293.971 75.435,326.635 56.577,359.298     "/>
  </g>
      </g>
      <g class="guides">
  <circle class="st9" cx="195.982" cy="195.98" r="113.15"/>
  <line class="st9" x1="0.001" y1="195.98" x2="391.962" y2="195.98"/>
  <line class="st9" x1="195.982" y1="-0.001" x2="195.982" y2="391.961"/>
  <polyline class="st9" points="278.812,-0.001 391.962,195.98 293.974,139.404   "/>
  <line class="st9" x1="195.982" y1="391.961" x2="293.969" y2="335.386"/>
  <polyline class="st9" points="293.974,252.556 391.962,195.98 335.387,293.971  "/>
  <line class="st9" x1="195.982" y1="-0.001" x2="293.969" y2="56.576"/>
  <circle class="st9" cx="0.001" cy="391.961" r="113.15"/>
  <circle class="st9" cx="391.962" cy="391.961" r="113.15"/>
  <circle class="st9" cx="391.962" cy="-0.001" r="113.15"/>
  <circle class="st9" cx="0.001" cy="-0.001" r="113.15"/>
  <circle class="st9" cx="195.982" cy="391.961" r="82.83"/>
  
    <rect x="57.403" y="57.4" transform="matrix(0.7071 0.7071 -0.7071 0.7071 195.9807 -81.179)" class="st9" width="277.159" height="277.159"/>
  <circle class="st9" cx="0.001" cy="195.98" r="82.83"/>
  <circle class="st9" cx="391.962" cy="195.98" r="82.83"/>
  <circle class="st9" cx="195.982" cy="-0.001" r="82.83"/>
  <polygon class="st9" points="320.229,124.248 71.735,267.713 0.001,391.961 124.27,320.249 267.737,71.755 391.962,-0.001  "/>
  <polygon class="st9" points="124.25,71.732 267.715,320.228 391.962,391.961 320.251,267.693 71.756,124.225 0,0   "/>
  <line class="st9" x1="52.514" y1="143.467" x2="195.982" y2="391.961"/>
  <line class="st9" x1="195.982" y1="-0.001" x2="339.449" y2="248.494"/>
  <line class="st9" x1="339.452" y1="143.47" x2="195.982" y2="391.961"/>
  <polyline class="st9" points="52.512,248.492 195.982,-0.001 97.994,56.574   "/>
  <line class="st9" x1="195.982" y1="391.961" x2="98.021" y2="335.403"/>
  <line class="st9" x1="113.152" y1="391.961" x2="0.001" y2="195.98"/>
  <line class="st9" x1="0.001" y1="195.98" x2="97.977" y2="252.562"/>
  <line class="st9" x1="113.152" y1="-0.001" x2="0.001" y2="195.98"/>
  <line class="st9" x1="0.001" y1="195.98" x2="97.989" y2="139.404"/>
  <line class="st9" x1="0.001" y1="391.961" x2="391.962" y2="-0.001"/>
  <line class="st9" x1="0" y1="0" x2="391.962" y2="391.961"/>
  <polyline class="st9" points="18.86,293.971 75.305,391.961 94.162,359.299   "/>
  <line class="st9" x1="0" y1="326.636" x2="75.429" y2="326.636"/>
  <polyline class="st9" points="18.86,293.971 75.305,391.961 94.162,359.299   "/>
  <line class="st9" x1="0" y1="326.636" x2="75.429" y2="326.636"/>
  <polyline class="st9" points="18.861,97.991 75.306,0 94.164,32.663  "/>
  <line class="st9" x1="0.002" y1="65.326" x2="75.431" y2="65.326"/>
  <polyline class="st9" points="373.104,97.991 316.659,0 297.802,32.663   "/>
  <line class="st9" x1="391.964" y1="65.326" x2="316.535" y2="65.326"/>
  <polyline class="st9" points="373.103,293.971 316.657,391.961 297.8,359.299   "/>
  <line class="st9" x1="391.961" y1="326.636" x2="316.534" y2="326.636"/>
  <line class="st9" x1="120.548" y1="130.653" x2="271.415" y2="130.653"/>
  <line class="st9" x1="120.548" y1="261.307" x2="271.415" y2="261.307"/>
  <line class="st9" x1="177.124" y1="97.989" x2="101.69" y2="228.644"/>
  <line class="st9" x1="214.841" y1="97.988" x2="290.273" y2="228.644"/>
  <line class="st9" x1="101.69" y1="163.316" x2="177.124" y2="293.971"/>
  <line class="st9" x1="290.273" y1="163.316" x2="214.84" y2="293.971"/>
  <line class="st9" x1="0" y1="97.991" x2="391.962" y2="97.991"/>
  <line class="st9" x1="0" y1="293.971" x2="391.962" y2="293.971"/>
  <g>
    <line class="st9" x1="94.293" y1="424.625" x2="143.47" y2="339.448"/>
    <line class="st9" x1="297.67" y1="424.625" x2="248.494" y2="339.45"/>
  </g>
  <g>
    <line class="st9" x1="297.67" y1="-32.665" x2="248.494" y2="52.513"/>
    <line class="st9" x1="94.293" y1="-32.665" x2="143.471" y2="52.511"/>
  </g>
  <rect class="st9" width="391.962" height="391.961"/>
      </g>
</svg>
