<svg version="1.1" xmlns="http://www.w3.org/2000/svg" width="526.414" height="911.776" viewBox="0 0 100% 100%">
  <style>
    :root {
      --golden: #907A58;
      --darkBlue: #475387;
      --beige: #DFD8CC;
      --teal: #4A9AC4;
      --gray: #A49DA0;
      --smaragd: #406A72;
      --sand: #D3BDA7;
      --grayGreen: #A2D1D6;
      --blueGray: #758390;
      --lightBrown: #AA8858;
      --blue1: #8EC5EE;
      --blue2: #8CC6EA;
      --blue3: #B6DAEC;
      --rust: #D8692D;
      --yellow: #F8C346;
      --black: #443430;
      --red: #BF402B;
      --gold: #CEA600;
      --turquois: #4D9BA3;
      --emerald: #216554;
      --blue: #262F66;
      --white: #FFFAF2;
    
    }
    .shape-1{fill:var(--turquois)}
    .shape-9{fill:var(--white)}
    .shape-5{fill:var(--red)}
    .shape-8{fill:var(--white)}
    .shape-7{fill:var(--white)}
    .shape-2{fill:var(--gold)}
    .shape-3{fill:var(--black)}
    .shape-4{fill:var(--red)}
    .shape-6{fill:var(--white); stroke: none}
    <!-- .line{stroke:#fff;stroke-width:10px} -->
    .guides{ stroke: #4FFF4F; display: none; fill: none}
  </style>
      <g class="line" id="pattern">
  <rect x="-11.622" y="-16.332" class="shape-1" width="549.963" height="944.441"/>
  <g>
    <polygon class="shape-2" points="212.939,928.108 212.939,895.443 181.873,885.349 162.672,911.776 181.873,938.203    "/>
    <polygon class="shape-2" points="313.475,895.444 313.475,928.109 344.541,938.203 363.742,911.776 344.541,885.349    "/>
    <polygon class="shape-2" points="476.146,472.221 476.146,439.556 445.08,429.462 425.879,455.889 445.08,482.316    "/>
    <polygon class="shape-2" points="434.088,719.2 405.8,735.533 412.591,767.484 445.078,770.899 458.363,741.057    "/>
    <polygon class="shape-2" points="355.533,648.466 383.822,632.133 377.03,600.182 344.543,596.767 331.258,626.61    "/>
    <polygon class="shape-2" points="50.268,439.555 50.268,472.22 81.334,482.314 100.535,455.887 81.334,429.46    "/>
    <polygon class="shape-2" points="142.594,632.133 170.882,648.464 195.157,626.608 181.871,596.765 149.385,600.181    "/>
    <polygon class="shape-2" points="120.613,735.53 92.324,719.198 68.05,741.055 81.336,770.897 113.824,767.481     "/>
    <polygon class="shape-2" points="313.475,-16.332 313.475,16.333 344.541,26.427 363.742,0 344.541,-26.427    "/>
    <polygon class="shape-2" points="212.939,16.332 212.939,-16.333 181.873,-26.427 162.672,0 181.873,26.427    "/>
    <polygon class="shape-2" points="92.326,192.576 120.614,176.243 113.823,144.292 81.336,140.877 68.051,170.719     "/>
    <polygon class="shape-2" points="170.881,263.31 142.592,279.643 149.384,311.594 181.871,315.009 195.156,285.166     "/>
    <polygon class="shape-2" points="383.82,279.643 355.532,263.312 331.257,285.168 344.543,315.011 377.029,311.595     "/>
    <polygon class="shape-2" points="405.801,176.246 434.09,192.578 458.364,170.721 445.078,140.879 412.59,144.295    "/>
  </g>
  <g>
    <polygon class="shape-5" points="607.75,770.899 555.184,776.424 526.404,802.318 555.164,828.211 555.164,861.982     "/>
    <polygon class="shape-5" points="-81.355,770.897 -28.788,776.424 -0.01,802.316 -28.77,828.21 -28.77,861.98    "/>
    <polygon class="shape-5" points="234.457,539.454 234.457,505.683 234.455,505.686 205.212,522.57 168.407,510.611 160.373,548.479 
      181.87,596.767 234.438,591.241 263.217,565.347    "/>
    <polygon class="shape-5" points="162.67,911.774 162.681,911.759 162.66,911.759 131.603,869.014 94.79,857.038 86.745,894.891 
      57.529,911.759 57.508,911.759 57.519,911.765 57.5,911.776 57.537,911.776 86.753,928.644 94.799,966.498 131.611,954.521 
      162.669,911.776 162.672,911.776     "/>
    <polygon class="shape-5" points="497.645,861.944 497.645,828.212 526.404,802.318 497.626,776.426 445.08,770.901 445.078,770.898 
      445.077,770.901 445.059,770.899 445.069,770.917 423.58,819.187 431.614,857.054 468.419,845.095 497.633,861.961 
      497.645,861.982 497.645,861.968 497.665,861.98    "/>
    <polygon class="shape-5" points="468.896,911.787 468.914,911.776 468.877,911.776 439.66,894.908 431.614,857.054 394.803,869.031 
      363.744,911.776 363.742,911.776 363.743,911.777 363.732,911.792 363.754,911.792 394.812,954.538 431.624,966.514 
      439.669,928.661 468.886,911.792 468.905,911.792     "/>
    <polygon class="shape-5" points="344.552,596.748 366.041,548.478 358.006,510.611 321.201,522.57 291.989,505.705 291.977,505.683 
      291.977,505.698 291.955,505.685 291.977,505.722 291.977,539.453 263.217,565.347 291.995,591.239 344.541,596.764 
      344.543,596.767 344.544,596.764 344.562,596.766     "/>
    <polygon class="shape-5" points="81.337,770.896 28.77,776.422 -0.01,802.316 28.75,828.209 28.75,861.98 28.752,861.977 
      57.995,845.093 94.8,857.052 102.834,819.184     "/>
    <polygon class="shape-5" points="-81.336,140.877 -28.77,135.352 0.01,109.458 -28.75,83.564 -28.75,49.794    "/>
    <polygon class="shape-5" points="205.689,455.897 205.707,455.887 205.671,455.887 176.453,439.019 168.408,401.165 131.596,413.142 
      100.537,455.887 100.535,455.887 100.536,455.889 100.525,455.903 100.547,455.903 131.604,498.649 168.417,510.625 
      176.462,472.772 205.679,455.903 205.699,455.903     "/>
    <polygon class="shape-5" points="425.878,455.887 425.889,455.873 425.867,455.873 394.81,413.127 357.997,401.15 349.952,439.004 
      320.735,455.873 320.715,455.873 320.725,455.878 320.707,455.889 320.743,455.889 349.961,472.757 358.006,510.611 
      394.818,498.634 425.877,455.889 425.879,455.889     "/>
    <polygon class="shape-5" points="607.77,140.879 555.202,135.352 526.424,109.46 555.184,83.565 555.184,49.796    "/>
    <polygon class="shape-5" points="344.544,315.009 291.977,320.535 263.197,346.429 291.957,372.322 291.957,406.093 291.959,406.09 
      321.202,389.206 358.007,401.165 366.041,363.297     "/>
    <polygon class="shape-5" points="468.896,0.01 468.914,0 468.878,0 439.66,-16.868 431.615,-54.722 394.803,-42.745 363.744,0 
      363.742,0 363.743,0.001 363.732,0.017 363.754,0.017 394.812,42.762 431.624,54.738 439.669,16.885 468.886,0.017 468.906,0.017 
          "/>
    <polygon class="shape-5" points="81.345,140.858 102.834,92.589 94.8,54.722 57.995,66.681 28.781,49.815 28.77,49.794 28.77,49.808 
      28.749,49.796 28.77,49.832 28.77,83.563 0.01,109.458 28.788,135.35 81.334,140.875 81.336,140.878 81.337,140.875 
      81.355,140.877    "/>
    <polygon class="shape-5" points="162.671,-0.001 162.682,-0.017 162.66,-0.017 131.603,-42.762 94.79,-54.738 86.745,-16.885 
      57.529,-0.017 57.509,-0.017 57.519,-0.011 57.5,0 57.538,0 86.754,16.868 94.8,54.722 131.611,42.745 162.669,0 162.672,0    "/>
    <polygon class="shape-5" points="234.438,406.054 234.438,372.323 263.197,346.429 234.419,320.537 181.873,315.012 181.871,315.009 
      181.87,315.012 181.852,315.01 181.862,315.028 160.373,363.298 168.408,401.165 205.213,389.206 234.425,406.071 
      234.438,406.093 234.438,406.079 234.459,406.091     "/>
    <polygon class="shape-5" points="497.664,83.566 497.664,49.796 497.662,49.799 468.419,66.683 431.614,54.724 423.58,92.592 
      445.077,140.88 497.645,135.354 526.424,109.46     "/>
  </g>
  <g>
    <polygon class="shape-6" points="526.415,665.896 572.967,692.772 538.067,614.395 537.907,614.672 623.234,605.708 576.682,578.831 
      576.682,525.077 526.254,594.489 526.574,594.489 476.146,525.077 476.146,578.831 429.595,605.708 514.922,614.672 
      514.762,614.395 479.862,692.773 526.414,665.896     "/>
    <polygon class="shape-6" points="0.001,665.894 46.553,692.77 11.653,614.393 11.493,614.67 96.82,605.706 50.268,578.829 
      50.268,525.075 -0.16,594.487 0.16,594.487 -50.268,525.075 -50.268,578.829 -96.819,605.706 -11.492,614.67 -11.652,614.393 
      -46.552,692.771 0,665.894     "/>
    <polygon class="shape-6" points="263.206,701.769 216.654,674.893 251.554,753.27 251.714,752.993 166.387,761.958 212.939,788.834 
      212.939,842.587 263.367,773.176 263.047,773.176 313.475,842.588 313.475,788.834 360.026,761.958 274.699,752.993 
      274.859,753.27 309.759,674.892 263.207,701.769    "/>
    <polygon class="shape-6" points="-0.001,245.88 -46.553,219.004 -11.653,297.381 -11.493,297.104 -96.82,306.068 -50.268,332.945 
      -50.268,386.699 0.16,317.287 -0.16,317.287 50.268,386.699 50.268,332.945 96.819,306.068 11.492,297.104 11.652,297.381 
      46.552,219.003 0,245.88     "/>
    <polygon class="shape-6" points="526.413,245.882 479.861,219.006 514.761,297.383 514.921,297.105 429.594,306.07 476.146,332.947 
      476.146,386.701 526.574,317.289 526.254,317.289 576.682,386.701 576.682,332.947 623.233,306.07 537.906,297.105 
      538.066,297.383 572.966,219.005 526.414,245.882     "/>
    <polygon class="shape-6" points="263.208,210.007 309.76,236.883 274.86,158.506 274.7,158.783 360.027,149.818 313.475,122.941 
      313.475,69.188 263.047,138.6 263.367,138.6 212.939,69.188 212.939,122.941 166.388,149.818 251.715,158.783 251.555,158.506 
      216.655,236.884 263.207,210.007     "/>
  </g>
    <g>
    <polygon class="shape-4" points="212.939,928.108 263.207,911.776 313.475,928.109 313.475,980.964 263.047,1050.376 212.939,980.964 
          "/>
    <polygon class="shape-4" points="476.146,472.221 526.414,455.889 576.682,472.222 576.682,525.077 526.254,594.489 476.146,525.077 
          "/>
    <polygon class="shape-4" points="433.928,718.923 394.65,683.556 383.662,631.857 429.436,605.43 514.762,614.395 479.703,692.496    
      "/>
    <polygon class="shape-4" points="-50.268,472.219 0,455.887 50.268,472.22 50.268,525.075 -0.16,594.487 -50.268,525.075     "/>
    <polygon class="shape-4" points="142.594,632.133 131.604,683.832 92.326,719.198 46.553,692.77 11.653,614.393 96.82,605.704    "/>
    <polygon class="shape-4" points="313.475,895.444 263.207,911.776 212.939,895.443 212.939,842.587 263.367,773.176 313.475,842.588 
          "/>
    <polygon class="shape-4" points="355.693,648.742 394.971,684.109 405.959,735.808 360.186,762.235 274.859,753.27 309.918,675.169     
      "/>
    <polygon class="shape-4" points="120.613,735.53 131.604,683.832 170.881,648.465 216.654,674.893 251.554,753.27 166.387,761.959    
      "/>
    <polygon class="shape-4" points="313.475,-16.332 263.207,0 212.939,-16.333 212.939,-69.188 263.367,-138.6 313.475,-69.188     "/>
    <polygon class="shape-4" points="50.268,439.555 0,455.887 -50.268,439.554 -50.268,386.699 0.16,317.287 50.268,386.699     "/>
    <polygon class="shape-4" points="92.486,192.853 131.764,228.22 142.752,279.919 96.979,306.346 11.652,297.381 46.711,219.28    "/>
    <polygon class="shape-4" points="576.682,439.557 526.414,455.889 476.146,439.556 476.146,386.701 526.574,317.289 576.682,386.701 
          "/>
    <polygon class="shape-4" points="383.82,279.643 394.811,227.944 434.088,192.578 479.861,219.006 514.761,297.383 429.594,306.072     
      "/>
    <polygon class="shape-4" points="212.939,16.332 263.207,0 313.475,16.333 313.475,69.188 263.047,138.6 212.939,69.188    "/>
    <polygon class="shape-4" points="170.721,263.034 131.443,227.667 120.455,175.968 166.229,149.541 251.555,158.506 216.496,236.606 
          "/>
    <polygon class="shape-4" points="405.801,176.246 394.811,227.944 355.533,263.311 309.76,236.883 274.86,158.506 360.027,149.816    
      "/>
  </g>

    <g>
    <polygon class="shape-3" points="526.414,665.896 479.862,692.773 458.363,741.057 497.645,776.424 526.361,779.448 555.184,776.424 
      594.464,741.057 572.967,692.772     "/>
    <polygon class="shape-3" points="476.146,578.831 476.146,525.076 445.08,482.315 394.811,498.651 377.834,522.008 366.041,548.481 
      377.03,600.182 429.596,605.708    "/>
    <polygon class="shape-3" points="0,665.894 -46.552,692.771 -68.051,741.055 -28.77,776.422 -0.053,779.446 28.77,776.422 
      68.05,741.055 46.553,692.77     "/>
    <polygon class="shape-3" points="50.268,578.829 96.82,605.706 149.385,600.182 160.373,548.48 148.633,522.099 131.604,498.65 
      81.334,482.316 50.267,525.076     "/>
    <polygon class="shape-3" points="263.207,701.769 309.759,674.892 331.258,626.608 291.977,591.241 263.26,588.217 234.438,591.241 
      195.157,626.608 216.654,674.893     "/>
    <polygon class="shape-3" points="212.939,788.834 166.387,761.958 113.822,767.481 102.834,819.183 114.574,845.564 131.604,869.013 
      181.873,885.347 212.94,842.587    "/>
    <polygon class="shape-3" points="313.475,788.834 313.475,842.589 344.541,885.35 394.811,869.014 411.786,845.657 423.579,819.184 
      412.591,767.483 360.025,761.958     "/>
    <polygon class="shape-3" points="0,245.88 46.552,219.003 68.051,170.719 28.77,135.352 0.053,132.328 -28.77,135.352 
      -68.05,170.719 -46.553,219.004    "/>
    <polygon class="shape-3" points="50.268,332.945 50.268,386.7 81.334,429.461 131.604,413.125 148.58,389.768 160.373,363.295 
      149.384,311.594 96.818,306.068    "/>
    <polygon class="shape-3" points="526.414,245.882 572.966,219.005 594.465,170.721 555.184,135.354 526.467,132.33 497.645,135.354 
      458.364,170.721 479.861,219.006     "/>
    <polygon class="shape-3" points="476.146,332.947 429.594,306.07 377.029,311.594 366.041,363.296 377.781,389.677 394.811,413.126 
      445.08,429.46 476.147,386.7     "/>
    <polygon class="shape-3" points="263.207,210.007 216.655,236.884 195.156,285.168 234.438,320.535 263.154,323.559 291.977,320.535 
      331.257,285.168 309.76,236.883    "/>
    <polygon class="shape-3" points="313.475,122.941 360.027,149.818 412.592,144.295 423.58,92.593 411.84,66.212 394.811,42.763 
      344.541,26.429 313.474,69.188     "/>
    <polygon class="shape-3" points="212.939,122.941 212.939,69.187 181.873,26.426 131.604,42.762 114.628,66.119 102.835,92.592 
      113.823,144.293 166.389,149.818     "/>
  </g>

  <g>
    <polygon class="shape-7" points="212.939,842.588 181.873,885.349 212.939,895.443     "/>
    <polygon class="shape-7" points="263.207,911.776 212.939,895.443 212.939,928.108     "/>
    <polygon class="shape-7" points="131.603,869.016 162.672,911.776 181.873,885.349     "/>
    <polygon class="shape-7" points="181.873,938.203 162.672,911.776 131.604,954.537     "/>
    <polygon class="shape-7" points="263.207,911.776 313.475,928.109 313.475,895.444     "/>
    <polygon class="shape-7" points="394.811,954.536 363.742,911.776 344.541,938.203     "/>
    <polygon class="shape-7" points="344.541,885.349 363.742,911.776 394.811,869.015     "/>
    <polygon class="shape-7" points="313.475,842.588 313.475,895.444 344.541,885.349     "/>
    <polygon class="shape-7" points="476.146,386.701 445.08,429.462 476.146,439.556    "/>
    <polygon class="shape-7" points="526.414,455.889 476.146,439.556 476.146,472.221     "/>
    <polygon class="shape-7" points="394.811,413.129 425.879,455.889 445.08,429.462    "/>
    <polygon class="shape-7" points="445.08,482.316 425.879,455.889 394.811,498.65     "/>
    <polygon class="shape-7" points="476.146,525.077 476.146,472.221 445.08,482.316    "/>
    <polygon class="shape-7" points="526.414,455.889 576.682,472.222 576.682,439.557     "/>
    <polygon class="shape-7" points="360.025,761.96 412.591,767.484 405.8,735.533    "/>
    <polygon class="shape-7" points="394.811,683.833 405.8,735.533 434.088,719.2     "/>
    <polygon class="shape-7" points="423.581,819.186 445.078,770.899 412.591,767.484     "/>
    <polygon class="shape-7" points="458.363,741.057 445.078,770.899 497.645,776.424     "/>
    <polygon class="shape-7" points="479.863,692.772 434.088,719.2 458.363,741.057     "/>
    <polygon class="shape-7" points="429.596,605.707 377.03,600.182 383.822,632.133    "/>
    <polygon class="shape-7" points="394.811,683.833 383.822,632.133 355.533,648.466     "/>
    <polygon class="shape-7" points="366.041,548.481 344.543,596.767 377.03,600.182    "/>
    <polygon class="shape-7" points="331.258,626.61 344.543,596.767 291.977,591.242    "/>
    <polygon class="shape-7" points="309.758,674.894 355.533,648.466 331.258,626.61    "/>
    <polygon class="shape-7" points="0,455.887 -50.268,439.554 -50.268,472.219     "/>
    <polygon class="shape-7" points="50.268,525.075 81.334,482.314 50.268,472.22     "/>
    <polygon class="shape-7" points="0,455.887 50.268,472.22 50.268,439.555    "/>
    <polygon class="shape-7" points="131.604,498.647 100.535,455.887 81.334,482.314    "/>
    <polygon class="shape-7" points="81.334,429.46 100.535,455.887 131.604,413.126     "/>
    <polygon class="shape-7" points="50.268,386.699 50.268,439.555 81.334,429.46     "/>
    <polygon class="shape-7" points="216.656,674.893 195.157,626.608 170.882,648.464     "/>
    <polygon class="shape-7" points="131.604,683.832 170.882,648.464 142.594,632.133     "/>
    <polygon class="shape-7" points="234.438,591.239 181.871,596.765 195.157,626.608     "/>
    <polygon class="shape-7" points="149.385,600.181 181.871,596.765 160.373,548.479     "/>
    <polygon class="shape-7" points="96.818,605.704 142.594,632.133 149.385,600.181    "/>
    <polygon class="shape-7" points="46.551,692.77 68.05,741.055 92.324,719.198    "/>
    <polygon class="shape-7" points="131.604,683.832 92.324,719.198 120.613,735.53     "/>
    <polygon class="shape-7" points="28.77,776.422 81.336,770.897 68.05,741.055    "/>
    <polygon class="shape-7" points="113.824,767.481 81.336,770.897 102.834,819.184    "/>
    <polygon class="shape-7" points="166.389,761.958 120.613,735.53 113.824,767.481    "/>
    <polygon class="shape-7" points="313.475,69.188 344.541,26.427 313.475,16.333    "/>
    <polygon class="shape-7" points="263.207,0 313.475,16.333 313.475,-16.332    "/>
    <polygon class="shape-7" points="394.811,42.76 363.742,0 344.541,26.427    "/>
    <polygon class="shape-7" points="344.541,-26.427 363.742,0 394.811,-42.761     "/>
    <polygon class="shape-7" points="263.207,0 212.939,-16.333 212.939,16.332    "/>
    <polygon class="shape-7" points="131.604,-42.76 162.672,0 181.873,-26.427    "/>
    <polygon class="shape-7" points="181.873,26.427 162.672,0 131.604,42.761     "/>
    <polygon class="shape-7" points="212.939,69.188 212.939,16.332 181.873,26.427    "/>
    <polygon class="shape-7" points="166.389,149.815 113.823,144.292 120.614,176.243     "/>
    <polygon class="shape-7" points="131.604,227.943 120.614,176.243 92.326,192.576    "/>
    <polygon class="shape-7" points="102.833,92.59 81.336,140.877 113.823,144.292    "/>
    <polygon class="shape-7" points="68.051,170.719 81.336,140.877 28.77,135.352     "/>
    <polygon class="shape-7" points="46.551,219.004 92.326,192.576 68.051,170.719    "/>
    <polygon class="shape-7" points="96.818,306.069 149.384,311.594 142.592,279.643    "/>
    <polygon class="shape-7" points="131.604,227.943 142.592,279.643 170.881,263.31    "/>
    <polygon class="shape-7" points="160.373,363.295 181.871,315.009 149.384,311.594     "/>
    <polygon class="shape-7" points="195.156,285.166 181.871,315.009 234.438,320.534     "/>
    <polygon class="shape-7" points="216.656,236.882 170.881,263.31 195.156,285.166    "/>
    <polygon class="shape-7" points="309.758,236.883 331.257,285.168 355.532,263.312     "/>
    <polygon class="shape-7" points="394.811,227.944 355.532,263.312 383.82,279.643    "/>
    <polygon class="shape-7" points="291.977,320.537 344.543,315.011 331.257,285.168     "/>
    <polygon class="shape-7" points="377.029,311.595 344.543,315.011 366.041,363.297     "/>
    <polygon class="shape-7" points="429.596,306.072 383.82,279.643 377.029,311.595    "/>
    <polygon class="shape-7" points="479.863,219.006 458.364,170.721 434.09,192.578    "/>
    <polygon class="shape-7" points="394.811,227.944 434.09,192.578 405.801,176.246    "/>
    <polygon class="shape-7" points="497.645,135.354 445.078,140.879 458.364,170.721     "/>
    <polygon class="shape-7" points="412.59,144.295 445.078,140.879 423.58,92.592    "/>
    <polygon class="shape-7" points="360.025,149.818 405.801,176.246 412.59,144.295    "/>
  </g>
  <g>
    <polygon class="shape-8" points="555.184,776.424 526.404,802.318 497.645,776.424 526.361,779.448    "/>
    <polygon class="shape-8" points="366.041,548.481 358.006,510.611 394.811,498.651 377.834,522.009    "/>
    <polygon class="shape-8" points="28.77,776.422 -0.01,802.316 -28.77,776.422 -0.053,779.446    "/>
    <polygon class="shape-8" points="131.604,498.649 168.417,510.625 160.373,548.479 148.633,522.098    "/>
    <polygon class="shape-8" points="234.438,591.241 263.217,565.347 291.977,591.241 263.26,588.217     "/>
    <polygon class="shape-8" points="131.604,869.014 94.79,857.038 102.834,819.184 114.574,845.565    "/>
    <polygon class="shape-8" points="423.58,819.184 431.614,857.054 394.811,869.014 411.787,845.656     "/>
    <polygon class="shape-8" points="-28.77,135.352 0.01,109.458 28.77,135.352 0.053,132.328    "/>
    <polygon class="shape-8" points="160.373,363.295 168.408,401.165 131.604,413.125 148.58,389.767     "/>
    <polygon class="shape-8" points="497.645,135.354 526.424,109.46 555.184,135.354 526.467,132.33    "/>
    <polygon class="shape-8" points="394.811,413.127 357.997,401.15 366.041,363.297 377.781,389.678     "/>
    <polygon class="shape-8" points="291.977,320.535 263.197,346.429 234.438,320.535 263.154,323.559    "/>
    <polygon class="shape-8" points="394.811,42.762 431.624,54.738 423.58,92.592 411.84,66.211    "/>
    <polygon class="shape-8" points="102.834,92.592 94.8,54.722 131.604,42.762 114.627,66.12    "/>
  </g>
  <g>
    <polygon class="shape-9" points="468.915,911.776 439.669,928.661 431.624,966.514 468.438,978.491 497.625,961.639 497.625,928.397 
          "/>
    <polygon class="shape-9" points="28.75,961.572 57.995,978.458 94.799,966.498 86.764,928.628 57.577,911.777 28.789,928.398     "/>
    <polygon class="shape-9" points="555.164,861.982 555.164,828.211 526.404,802.318 497.625,828.211 497.625,861.914 526.414,878.535 
          "/>
    <polygon class="shape-9" points="291.957,505.685 321.201,522.572 358.006,510.611 349.971,472.742 320.783,455.89 291.996,472.511     
      "/>
    <polygon class="shape-9" points="28.75,861.98 28.75,828.209 -0.01,802.316 -28.789,828.209 -28.789,861.912 0,878.533     "/>
    <polygon class="shape-9" points="205.708,455.887 176.462,472.772 168.417,510.625 205.231,522.602 234.418,505.75 234.418,472.508     
      "/>
    <polygon class="shape-9" points="234.457,505.683 234.457,539.454 263.217,565.347 291.996,539.454 291.996,505.751 263.207,489.13     
      "/>
    <polygon class="shape-9" points="57.499,911.776 86.745,894.891 94.79,857.038 57.976,845.061 28.789,861.913 28.789,895.155     "/>
    <polygon class="shape-9" points="497.664,861.98 468.419,845.093 431.614,857.054 439.649,894.923 468.837,911.775 497.625,895.154     
      "/>
    <polygon class="shape-9" points="57.499,0 86.745,-16.885 94.79,-54.738 57.976,-66.715 28.789,-49.863 28.789,-16.621     "/>
    <polygon class="shape-9" points="497.664,-49.796 468.42,-66.683 431.615,-54.722 439.65,-16.853 468.838,-0.001 497.625,-16.622     
      "/>
    <polygon class="shape-9" points="-28.75,49.794 -28.75,83.564 0.01,109.458 28.789,83.564 28.789,49.862 0,33.241    "/>
    <polygon class="shape-9" points="234.457,406.091 205.213,389.204 168.408,401.165 176.443,439.034 205.631,455.886 234.418,439.265 
          "/>
    <polygon class="shape-9" points="497.664,49.796 497.664,83.566 526.424,109.46 555.203,83.566 555.203,49.864 526.414,33.243    "/>
    <polygon class="shape-9" points="320.706,455.889 349.952,439.004 357.997,401.15 321.183,389.174 291.996,406.025 291.996,439.268     
      "/>
    <polygon class="shape-9" points="291.957,406.093 291.957,372.322 263.197,346.429 234.418,372.322 234.418,406.024 263.207,422.646 
          "/>
    <polygon class="shape-9" points="468.915,0 439.669,16.885 431.624,54.738 468.438,66.715 497.625,49.863 497.625,16.621     "/>
    <polygon class="shape-9" points="28.75,49.796 57.995,66.683 94.8,54.722 86.765,16.853 57.577,0.001 28.789,16.622    "/>
  </g>
      </g>
      <g class="guides">
  <g>
    <circle class="st12" cx="190.459" cy="911.776" r="72.748"/>
    <circle class="st12" cx="72.748" cy="911.776" r="72.748"/>
    <circle class="st12" cx="335.955" cy="911.776" r="72.748"/>
    <circle class="st12" cx="453.666" cy="911.776" r="72.748"/>
    <circle class="st12" cx="36.374" cy="974.778" r="72.747"/>
    <circle class="st12" cx="490.04" cy="974.777" r="72.747"/>
    <circle class="st12" cx="0" cy="911.776" r="245.882"/>
    <circle class="st12" cx="526.414" cy="911.776" r="245.882"/>
    <circle class="st12" cx="526.414" cy="911.776" r="57.58"/>
    <circle class="st12" cx="0" cy="911.775" r="57.58"/>
    <polyline class="st12" points="526.414,911.778 263.207,455.889 789.622,455.889    "/>
    <line class="st12" x1="584.027" y1="640.985" x2="-57.613" y2="270.791"/>
    <line class="st12" x1="526.414" y1="455.889" x2="526.414" y2="911.778"/>
    <path class="st12" d="M789.622,455.889"/>
    <path class="st12" d="M394.811,683.833"/>
    <circle class="st12" cx="453.666" cy="455.889" r="72.748"/>
    <circle class="st12" cx="335.955" cy="455.889" r="72.748"/>
    <circle class="st12" cx="431.185" cy="746.834" r="72.747"/>
    <circle class="st12" cx="490.041" cy="848.776" r="72.748"/>
    <circle class="st12" cx="358.437" cy="620.832" r="72.747"/>
    <circle class="st12" cx="299.581" cy="518.891" r="72.747"/>
    <circle class="st12" cx="562.788" cy="848.775" r="72.747"/>
    <circle class="st12" cx="263.207" cy="455.889" r="245.882"/>
    <polygon class="st12" points="526.414,911.778 468.914,641.18 263.207,455.889 526.302,541.391 789.622,455.889 584.027,640.985 
          "/>
    <circle class="st12" cx="263.207" cy="455.889" r="57.58"/>
    <path class="st12" d="M-263.207,455.887"/>
    <path class="st12" d="M131.604,683.832"/>
    <line class="st12" x1="0" y1="455.887" x2="0" y2="911.776"/>
    <path class="st12" d="M263.208,455.887"/>
    <path class="st12" d="M-57.5,641.178"/>
    <circle class="st12" cx="72.748" cy="455.887" r="72.748"/>
    <circle class="st12" cx="190.459" cy="455.887" r="72.748"/>
    <circle class="st12" cx="-36.374" cy="848.774" r="72.748"/>
    <circle class="st12" cx="167.978" cy="620.83" r="72.747"/>
    <circle class="st12" cx="226.833" cy="518.888" r="72.747"/>
    <circle class="st12" cx="95.229" cy="746.833" r="72.747"/>
    <circle class="st12" cx="36.374" cy="848.773" r="72.747"/>
    <polygon class="st12" points="0,911.776 -57.5,641.178 -263.207,455.887 -0.112,541.389 263.208,455.887 57.613,640.983    "/>
    <path class="st12" d="M263.207,455.887"/>
    <line class="st12" x1="526.414" y1="911.776" x2="-0.001" y2="911.776"/>
    <path class="st12" d="M526.414,911.776"/>
    <path class="st12" d="M131.603,683.832"/>
    <path class="st12" d="M263.207,455.887"/>
    <path class="st12" d="M263.207,911.776"/>
    <path class="st12" d="M-0.001,911.776"/>
    <path class="st12" d="M394.811,683.832"/>
    <polygon class="st12" points="263.207,455.887 320.707,726.485 526.414,911.776 263.319,826.274 -0.001,911.776 205.594,726.68     
      "/>
    <circle class="st12" cx="335.955" cy="0" r="72.748"/>
    <circle class="st12" cx="453.666" cy="0" r="72.748"/>
    <circle class="st12" cx="190.459" cy="0" r="72.748"/>
    <circle class="st12" cx="72.748" cy="0" r="72.748"/>
    <circle class="st12" cx="490.04" cy="-63.002" r="72.747"/>
    <circle class="st12" cx="36.374" cy="-63.001" r="72.747"/>
    <circle class="st12" cx="526.414" cy="0" r="245.882"/>
    <circle class="st12" cx="0" cy="0" r="245.882"/>
    <circle class="st12" cx="0" cy="0" r="57.58"/>
    <circle class="st12" cx="526.414" cy="0" r="57.58"/>
    <polyline class="st12" points="0,-0.002 263.207,455.887 -263.208,455.887    "/>
    <line class="st12" x1="0" y1="455.887" x2="0" y2="-0.002"/>
    <path class="st12" d="M-263.208,455.887"/>
    <path class="st12" d="M131.604,227.942"/>
    <circle class="st12" cx="95.229" cy="164.941" r="72.747"/>
    <circle class="st12" cx="36.374" cy="63" r="72.748"/>
    <circle class="st12" cx="167.978" cy="290.944" r="72.747"/>
    <circle class="st12" cx="226.833" cy="392.885" r="72.747"/>
    <circle class="st12" cx="-36.374" cy="63" r="72.747"/>
    <polygon class="st12" points="0,-0.002 57.5,270.596 263.207,455.887 0.112,370.385 -263.208,455.887 -57.613,270.791    "/>
    <path class="st12" d="M789.621,455.889"/>
    <path class="st12" d="M394.81,227.944"/>
    <line class="st12" x1="526.414" y1="455.889" x2="526.414" y2="0"/>
    <path class="st12" d="M263.206,455.889"/>
    <path class="st12" d="M583.914,270.598"/>
    <circle class="st12" cx="562.788" cy="63.002" r="72.748"/>
    <circle class="st12" cx="358.437" cy="290.946" r="72.747"/>
    <circle class="st12" cx="299.581" cy="392.888" r="72.747"/>
    <circle class="st12" cx="431.185" cy="164.943" r="72.747"/>
    <circle class="st12" cx="490.04" cy="63.002" r="72.747"/>
    <polygon class="st12" points="526.414,0 583.914,270.598 789.621,455.889 526.526,370.387 263.206,455.889 468.801,270.793     "/>
    <polyline class="st12" points="0,0 526.415,0 0,911.776    "/>
    <path class="st12" d="M0,0"/>
    <path class="st12" d="M394.812,227.944"/>
    <path class="st12" d="M263.207,455.889"/>
    <path class="st12" d="M263.207,0"/>
    <path class="st12" d="M526.415,0"/>
    <path class="st12" d="M131.604,227.944"/>
    <line class="st12" x1="583.914" y1="270.598" x2="-57.5" y2="641.178"/>
    <polyline class="st12" points="0,0 789.621,455.889 789.622,455.889 -0.001,911.776     "/>
    <polyline class="st12" points="263.207,0 263.207,455.889 263.207,455.887 263.207,911.776    "/>
    <polyline class="st12" points="526.415,0 -263.208,455.887 -263.207,455.887 131.604,683.832 526.414,911.776    "/>
    <polygon class="st12" points="263.207,455.889 205.707,185.291 0,0 263.095,85.502 526.415,0 320.82,185.096     "/>
  </g>
      </g>
</svg>
