<svg version="1.1" xmlns="http://www.w3.org/2000/svg" width="361.11" height="208.88"  viewBox="0 0 100% 100%">
  <style>
    :root {
      --golden: #907A58;
      --darkBlue: #475387;
      --beige: #DFD8CC;
      --teal: #4A9AC4;
      --gray: #A49DA0;
      --smaragd: #406A72;
      --sand: #D3BDA7;
      --grayGreen: #A2D1D6;
      --blueGray: #758390;
      --lightBrown: #AA8858;
      --blue1: #8EC5EE;
      --blue2: #8CC6EA;
      --blue3: #B6DAEC;
      --rust: #D8692D;
      --yellow: #F8C346;
    }
    .shape-1{fill:var(--sand)}
    .shape-2{fill:var(--teal)}
    .shape-3{fill:var(--beige)}
    .shape-4{fill:var(--golden)}
    .shape-5{fill:var(--blue1)}
    .shape-6{fill:var(--grayGreen)}
    .shape-7{fill:var(--blue3)}
    .line{stroke:#fff;stroke-width:2.5px}
    .guides{ stroke: #4FFF4F; display: none; fill: none}
  </style>
      <g class="line" id="pattern">
  <rect class="shape-1" x="-111.521" y="-61.917" width="584.143" height="332.691"/>
  <g>
    <polygon class="shape-2" points="214.702,113.578 209.419,104.427 214.702,95.276 205.552,89.994 205.552,79.427 194.985,79.427 
      189.702,70.276 180.552,75.56 171.401,70.276 166.118,79.427 155.552,79.427 155.552,89.994 146.401,95.276 151.685,104.427 
      146.401,113.578 155.552,118.861 155.552,129.427 166.118,129.427 171.401,138.578 180.552,133.295 189.702,138.578 
      194.985,129.427 205.552,129.427 205.552,118.861     "/>
    <polygon class="shape-2" points="394.757,9.624 389.474,0.472 394.757,-8.678 385.606,-13.961 385.606,-24.527 375.04,-24.527 
      369.757,-33.678 360.606,-28.395 351.456,-33.678 346.173,-24.528 335.606,-24.528 335.606,-13.961 326.456,-8.678 331.739,0.473 
      326.456,9.624 335.606,14.906 335.606,25.472 346.173,25.472 351.456,34.623 360.606,29.34 369.757,34.624 375.04,25.473 
      385.606,25.473 385.606,14.906     "/>
    <polygon class="shape-2" points="34.648,217.535 29.365,208.384 34.648,199.233 25.498,193.951 25.498,183.384 14.932,183.384 
      9.648,174.233 0.498,179.517 -8.652,174.233 -13.936,183.384 -24.502,183.384 -24.502,193.951 -33.652,199.233 -28.369,208.384 
      -33.652,217.535 -24.502,222.818 -24.502,233.384 -13.936,233.384 -8.652,242.535 0.498,237.252 9.648,242.535 14.932,233.384 
      25.498,233.384 25.498,222.818     "/>
    <polygon class="shape-2" points="394.757,217.533 389.474,208.381 394.757,199.231 385.606,193.948 385.606,183.382 375.04,183.382 
      369.757,174.231 360.606,179.514 351.456,174.231 346.173,183.381 335.606,183.381 335.606,193.948 326.456,199.231 
      331.739,208.382 326.456,217.533 335.606,222.815 335.606,233.381 346.173,233.381 351.456,242.532 360.606,237.25 
      369.757,242.533 375.04,233.382 385.606,233.382 385.606,222.815    "/>
    <polygon class="shape-2" points="34.65,9.625 29.367,0.474 34.65,-8.676 25.5,-13.959 25.5,-24.525 14.934,-24.525 9.65,-33.676 
      0.5,-28.393 -8.65,-33.676 -13.934,-24.526 -24.5,-24.526 -24.5,-13.959 -33.65,-8.676 -28.367,0.475 -33.65,9.625 -24.5,14.908 
      -24.5,25.474 -13.934,25.474 -8.65,34.625 0.5,29.342 9.65,34.625 14.934,25.475 25.5,25.475 25.5,14.908     "/>
  </g>
  <g>
    <polygon class="shape-3" points="155.552,129.427 155.552,147.729 171.401,138.578 166.118,129.427    "/>
    <polygon class="shape-3" points="146.401,95.276 130.552,104.427 146.401,113.578 151.685,104.427     "/>
    <polygon class="shape-3" points="205.552,79.427 205.552,61.126 189.702,70.276 194.985,79.427    "/>
    <polygon class="shape-3" points="189.702,138.578 205.552,147.729 205.552,129.427 194.985,129.427    "/>
    <polygon class="shape-3" points="171.401,70.276 155.552,61.126 155.552,79.427 166.118,79.427    "/>
    <polygon class="shape-3" points="214.702,113.578 230.552,104.427 214.702,95.276 209.419,104.427     "/>
    <polygon class="shape-3" points="189.702,70.276 180.552,54.427 171.401,70.276 180.552,75.56     "/>
    <polygon class="shape-3" points="214.702,95.276 223.854,79.427 205.552,79.427 205.552,89.994    "/>
    <polygon class="shape-3" points="171.401,138.578 180.552,154.427 189.702,138.578 180.552,133.295    "/>
    <polygon class="shape-3" points="214.702,113.578 205.552,118.861 205.552,129.427 223.853,129.427    "/>
    <polygon class="shape-3" points="155.552,79.427 137.251,79.427 146.401,95.276 155.552,89.994    "/>
    <polygon class="shape-3" points="146.401,113.578 137.251,129.427 155.552,129.427 155.552,118.861    "/>
    <polygon class="shape-3" points="335.606,25.472 335.606,43.774 351.456,34.623 346.173,25.472    "/>
    <polygon class="shape-3" points="326.456,-8.678 310.606,0.473 326.456,9.624 331.739,0.473     "/>
    <polygon class="shape-3" points="351.456,34.623 360.606,50.473 369.757,34.624 360.606,29.34     "/>
    <polygon class="shape-3" points="326.456,9.624 317.306,25.473 335.606,25.472 335.606,14.906     "/>
    <polygon class="shape-3" points="326.456,199.231 310.606,208.382 326.456,217.533 331.739,208.382    "/>
    <polygon class="shape-3" points="351.456,174.231 335.606,165.081 335.606,183.381 346.173,183.381    "/>
    <polygon class="shape-3" points="369.757,174.231 360.606,158.382 351.456,174.231 360.606,179.514    "/>
    <polygon class="shape-3" points="335.606,183.381 317.306,183.382 326.456,199.231 335.606,193.948    "/>
    <polygon class="shape-3" points="9.65,34.625 25.5,43.776 25.5,25.475 14.934,25.475    "/>
    <polygon class="shape-3" points="34.65,9.625 50.5,0.475 34.65,-8.676 29.367,0.474     "/>
    <polygon class="shape-3" points="-8.65,34.625 0.5,50.475 9.65,34.625 0.5,29.342     "/>
    <polygon class="shape-3" points="34.65,9.625 25.5,14.908 25.5,25.475 43.801,25.475    "/>
    <polygon class="shape-3" points="25.498,183.384 25.498,165.083 9.648,174.233 14.932,183.384     "/>
    <polygon class="shape-3" points="34.648,217.535 50.498,208.384 34.648,199.233 29.365,208.384    "/>
    <polygon class="shape-3" points="9.648,174.233 0.498,158.384 -8.652,174.233 0.498,179.517     "/>
    <polygon class="shape-3" points="34.648,199.233 43.799,183.384 25.498,183.384 25.498,193.951    "/>
  </g>
  <g>
    <polygon class="shape-4" points="238.287,204.425 261.225,164.698 254.377,160.745 250.423,167.592 243.576,163.639 239.623,170.486 
      246.47,174.439 233.722,196.52 208.226,196.521 208.226,188.614 200.319,188.614 200.319,196.521 192.413,196.521 
      192.413,204.427 238.286,204.427 238.286,204.427 238.286,204.427 238.288,204.427     "/>
    <polygon class="shape-4" points="296.023,104.427 273.086,64.697 266.238,68.651 270.191,75.5 263.344,79.452 267.297,86.299 
      274.145,82.346 286.892,104.426 274.144,126.508 267.296,122.555 263.343,129.402 270.189,133.355 266.236,140.203 
      273.084,144.156 296.021,104.427     "/>
    <polygon class="shape-4" points="238.287,4.428 192.411,4.427 192.411,12.334 200.318,12.334 200.318,20.24 208.225,20.24 
      208.225,12.334 233.722,12.334 246.471,34.414 239.624,38.368 243.577,45.214 250.424,41.262 254.378,48.109 261.225,44.156 
      238.287,4.426     "/>
    <polygon class="shape-4" points="122.818,4.428 122.817,4.427 122.817,4.428 122.815,4.428 122.816,4.429 99.879,44.157 
      106.727,48.11 110.681,41.262 117.527,45.215 121.48,38.368 114.634,34.415 127.382,12.334 152.877,12.334 152.877,20.24 
      160.784,20.24 160.784,12.334 168.691,12.334 168.691,4.427     "/>
    <polygon class="shape-4" points="93.807,122.556 86.959,126.508 74.212,104.428 86.96,82.347 93.808,86.3 97.761,79.453 90.914,75.5 
      94.867,68.652 88.02,64.699 65.083,104.427 65.08,104.427 88.018,144.158 94.865,140.204 90.912,133.355 97.76,129.403    "/>
    <polygon class="shape-4" points="168.692,196.521 160.786,196.521 160.786,188.614 152.879,188.614 152.879,196.521 127.382,196.52 
      114.633,174.44 121.479,170.487 117.526,163.64 110.68,167.592 106.726,160.746 99.879,164.699 122.816,204.428 122.817,204.427 
      168.692,204.427     "/>
    <polygon class="shape-4" points="273.861,18.601 267.014,22.554 254.267,0.474 267.015,-21.608 273.862,-17.655 277.815,-24.502 
      270.969,-28.455 274.922,-35.303 268.074,-39.256 245.138,0.473 245.135,0.473 268.072,40.203 274.92,36.249 270.967,29.4 
      277.814,25.448    "/>
    <polygon class="shape-4" points="348.747,92.566 340.841,92.566 340.841,84.66 332.934,84.66 332.934,92.566 307.436,92.566 
      294.688,70.486 301.534,66.532 297.581,59.686 290.734,63.638 286.78,56.791 279.934,60.744 302.871,100.474 302.872,100.472 
      348.747,100.473     "/>
    <polygon class="shape-4" points="302.872,108.382 302.872,108.382 302.872,108.382 302.87,108.382 302.87,108.384 279.933,148.111 
      286.78,152.064 290.735,145.217 297.581,149.17 301.534,142.323 294.688,138.37 307.437,116.289 332.933,116.289 332.933,124.195 
      340.839,124.195 340.839,116.289 348.745,116.289 348.745,108.382     "/>
    <polygon class="shape-4" points="273.86,226.51 267.013,230.463 254.267,208.383 267.015,186.301 273.862,190.254 277.815,183.407 
      270.968,179.454 274.921,172.606 268.073,168.653 245.137,208.382 245.134,208.382 268.071,248.112 274.919,244.158 
      270.966,237.31 277.813,233.357    "/>
    <polygon class="shape-4" points="58.234,100.473 81.172,60.745 74.324,56.792 70.371,63.64 63.523,59.687 59.57,66.534 66.418,70.487 
      53.67,92.567 28.174,92.567 28.174,84.662 20.268,84.662 20.268,92.567 12.361,92.567 12.361,100.475 58.234,100.474 
      58.234,100.475 58.234,100.474 58.236,100.474    "/>
    <polygon class="shape-4" points="115.971,0.475 93.033,-39.256 86.186,-35.302 90.139,-28.453 83.291,-24.501 87.244,-17.654 
      94.092,-21.606 106.84,0.474 94.092,22.555 87.244,18.602 83.291,25.449 90.137,29.402 86.184,36.25 93.031,40.203 115.969,0.475 
          "/>
    <polygon class="shape-4" points="115.969,208.384 93.031,168.654 86.184,172.608 90.137,179.457 83.289,183.409 87.242,190.256 
      94.09,186.303 106.838,208.383 94.09,230.465 87.242,226.512 83.289,233.359 90.135,237.312 86.182,244.16 93.029,248.113 
      115.967,208.384     "/>
    <polygon class="shape-4" points="58.232,108.385 12.357,108.384 12.357,116.291 20.264,116.291 20.264,124.197 28.17,124.197 
      28.17,116.291 53.668,116.292 66.416,138.371 59.57,142.325 63.523,149.171 70.369,145.219 74.324,152.066 81.17,148.113 
      58.232,108.383    "/>
    <polygon class="shape-4" points="238.286,212.339 192.411,212.339 192.411,220.246 200.317,220.246 200.317,228.152 208.224,228.152 
      208.224,220.246 233.722,220.246 246.47,242.326 239.624,246.279 243.577,253.126 250.423,249.174 254.378,256.021 
      261.224,252.067 238.286,212.338     "/>
    <polygon class="shape-4" points="122.818,212.339 122.818,212.339 122.818,212.339 122.816,212.339 122.816,212.341 99.878,252.068 
      106.726,256.021 110.681,249.174 117.527,253.127 121.48,246.279 114.634,242.327 127.382,220.246 152.878,220.246 
      152.878,228.152 160.785,228.152 160.785,220.246 168.691,220.246 168.691,212.339     "/>
  </g>
  <g>
    <polygon class="shape-5" points="180.552,154.427 169.943,172.802 152.879,172.801 152.879,180.708 160.786,180.708 160.786,188.614 
      168.692,188.614 168.692,180.708 176.599,180.708 176.599,204.427 180.553,208.381 184.506,204.427 184.506,180.708 
      192.413,180.708 192.413,188.614 200.317,188.614 200.319,180.708 208.226,180.708 208.226,172.801 191.161,172.802     "/>
    <polygon class="shape-5" points="223.853,129.427 234.461,147.802 225.928,162.58 232.775,166.533 236.729,159.686 243.576,163.639 
      247.529,156.792 240.683,152.838 244.636,145.991 265.178,157.851 270.578,156.404 269.131,151.003 248.59,139.144 
      252.543,132.296 259.39,136.25 263.342,129.403 256.496,125.449 260.449,118.602 253.602,114.648 245.069,129.427     "/>
    <polygon class="shape-5" points="223.854,79.427 245.071,79.427 253.603,94.207 260.45,90.252 256.498,83.405 263.344,79.452 
      259.391,72.605 252.544,76.557 248.59,69.71 269.133,57.85 270.579,52.45 265.179,51.003 244.637,62.862 240.684,56.015 
      247.531,52.062 243.578,45.216 236.73,49.167 232.777,42.321 225.93,46.274 234.463,61.053     "/>
    <polygon class="shape-5" points="180.552,54.427 191.16,36.053 208.225,36.053 208.225,28.146 200.318,28.146 200.318,20.24 
      192.411,20.24 192.411,28.146 184.505,28.146 184.505,4.427 180.551,0.474 176.598,4.427 176.598,28.146 168.691,28.146 
      168.691,20.24 160.786,20.24 160.784,28.146 152.877,28.146 152.877,36.053 169.943,36.053     "/>
    <polygon class="shape-5" points="137.251,79.427 126.643,61.052 135.176,46.275 128.328,42.321 124.374,49.168 117.527,45.215 
      113.574,52.063 120.421,56.016 116.468,62.863 95.926,51.003 90.525,52.451 91.973,57.851 112.514,69.711 108.561,76.558 
      101.714,72.605 97.762,79.451 104.607,83.406 100.654,90.253 107.502,94.207 116.034,79.427    "/>
    <polygon class="shape-5" points="137.25,129.427 116.032,129.427 107.501,114.648 100.653,118.602 104.605,125.45 97.76,129.403 
      101.713,136.25 108.56,132.297 112.514,139.144 91.971,151.004 90.524,156.405 95.925,157.851 116.467,145.992 120.42,152.839 
      113.572,156.792 117.525,163.638 124.373,159.687 128.326,166.534 135.174,162.581 126.641,147.801     "/>
    <polygon class="shape-5" points="360.606,50.473 349.998,68.847 332.934,68.847 332.934,76.753 340.841,76.753 340.841,84.66 
      348.747,84.66 348.747,76.753 356.653,76.753 356.653,100.473 360.607,104.426 364.561,100.473 364.561,76.753 372.468,76.753 
      372.468,84.66 380.372,84.66 380.374,76.753 388.28,76.753 388.28,68.847 371.216,68.847     "/>
    <polygon class="shape-5" points="317.305,25.473 296.087,25.473 287.556,10.693 280.708,14.647 284.66,21.495 277.814,25.448 
      281.768,32.295 288.614,28.343 292.568,35.189 272.025,47.05 270.579,52.45 275.979,53.896 296.521,42.038 300.475,48.885 
      293.627,52.838 297.58,59.684 304.428,55.732 308.381,62.579 315.229,58.626 306.695,43.847    "/>
    <polygon class="shape-5" points="360.606,158.382 371.214,140.007 388.278,140.008 388.278,132.101 380.372,132.101 380.372,124.195 
      372.466,124.195 372.466,132.101 364.56,132.101 364.56,108.382 360.604,104.428 356.651,108.382 356.651,132.101 
      348.745,132.101 348.745,124.195 340.841,124.195 340.839,132.101 332.933,132.101 332.933,140.008 349.997,140.007     "/>
    <polygon class="shape-5" points="317.306,183.382 306.696,165.007 315.229,150.229 308.382,146.276 304.429,153.123 297.581,149.17 
      293.628,156.018 300.476,159.971 296.522,166.818 275.979,154.958 270.579,156.405 272.026,161.806 292.567,173.666 
      288.614,180.513 281.769,176.56 277.815,183.406 284.661,187.36 280.708,194.208 287.556,198.161 296.089,183.382     "/>
    <polygon class="shape-5" points="0.5,50.475 -10.109,68.849 -27.174,68.849 -27.174,76.755 -19.266,76.755 -19.266,84.662 
      -11.359,84.662 -11.359,76.755 -3.453,76.755 -3.453,100.475 0.5,104.429 4.453,100.475 4.453,76.755 12.361,76.755 
      12.361,84.662 20.266,84.662 20.268,76.755 28.174,76.755 28.174,68.849 11.109,68.849     "/>
    <polygon class="shape-5" points="43.801,25.475 54.408,43.85 45.875,58.627 52.723,62.581 56.678,55.733 63.523,59.687 67.477,52.839 
      60.631,48.886 64.584,42.039 85.125,53.898 90.525,52.451 89.078,47.051 68.537,35.191 72.49,28.344 79.338,32.297 83.289,25.451 
      76.443,21.496 80.396,14.649 73.549,10.695 65.018,25.475     "/>
    <polygon class="shape-5" points="43.799,183.384 65.018,183.384 73.549,198.164 80.396,194.209 76.443,187.362 83.289,183.409 
      79.336,176.562 72.49,180.514 68.535,173.667 89.078,161.807 90.525,156.407 85.125,154.96 64.582,166.819 60.629,159.972 
      67.477,156.019 63.523,149.173 56.676,153.125 52.723,146.278 45.875,150.231 54.408,165.01    "/>
    <polygon class="shape-5" points="0.498,158.384 11.105,140.01 28.17,140.01 28.17,132.104 20.264,132.104 20.264,124.197 
      12.357,124.197 12.357,132.104 4.451,132.104 4.451,108.384 0.496,104.431 -3.457,108.384 -3.457,132.104 -11.363,132.104 
      -11.363,124.197 -19.268,124.197 -19.27,132.104 -27.176,132.104 -27.176,140.01 -10.111,140.01    "/>
    <polygon class="shape-5" points="180.552,262.339 191.159,243.965 208.224,243.965 208.224,236.058 200.317,236.058 200.317,228.152 
      192.411,228.152 192.411,236.058 184.505,236.058 184.505,212.339 180.55,208.385 176.597,212.339 176.597,236.058 
      168.691,236.058 168.691,228.152 160.787,228.152 160.785,236.058 152.878,236.058 152.878,243.965 169.943,243.965     "/>
    <polygon class="shape-5" points="180.556,-53.479 169.947,-35.105 152.882,-35.105 152.882,-27.199 160.791,-27.199 160.791,-19.292 
      168.697,-19.292 168.697,-27.199 176.603,-27.199 176.603,-3.479 180.556,0.474 184.509,-3.479 184.509,-27.199 192.417,-27.199 
      192.417,-19.292 200.321,-19.292 200.323,-27.199 208.229,-27.199 208.229,-35.105 191.165,-35.105     "/>
  </g>
  <g>
    <polyline class="shape-6" points="0.496,104.431 4.451,108.384 4.451,132.104 12.357,132.104 12.357,124.197 20.264,124.197 
      20.264,116.291 12.357,116.291 12.357,108.384 58.232,108.385 81.17,148.113 74.322,152.066 70.369,145.218 63.521,149.171 
      67.477,156.019 60.629,159.972 64.582,166.819 85.123,154.959 90.525,156.407 90.524,156.405 91.971,151.004 112.514,139.144 
      108.56,132.297 101.713,136.25 97.76,129.403 90.912,133.355 94.865,140.204 88.018,144.158 65.081,104.429 88.02,64.699 
      94.867,68.652 90.913,75.5 97.761,79.453 101.714,72.605 108.561,76.559 112.514,69.711 91.973,57.852 90.525,52.451 
      90.525,52.451 85.125,53.898 64.584,42.039 60.631,48.886 67.477,52.839 63.523,59.687 70.371,63.64 74.324,56.792 81.172,60.745 
      58.235,100.474 12.361,100.475 12.361,92.567 20.268,92.567 20.268,84.662 12.361,84.662 12.361,76.755 4.455,76.755 
      4.455,100.475 0.5,104.429     "/>
    <polygon class="shape-6" points="0.5,104.429 -3.453,100.475 -3.453,76.755 -11.359,76.755 -11.359,84.662 -19.266,84.662 
      -19.266,92.567 -11.359,92.567 -11.359,100.475 -57.234,100.474 -80.174,60.746 -73.326,56.793 -69.373,63.641 -62.525,59.688 
      -66.479,52.84 -59.633,48.887 -63.586,42.04 -84.127,53.899 -89.531,52.453 -90.979,57.854 -111.521,69.713 -107.567,76.561 
      -100.72,72.607 -96.767,79.454 -89.92,75.501 -93.874,68.654 -87.026,64.7 -64.089,104.431 -87.024,144.159 -93.872,140.206 
      -89.917,133.358 -96.766,129.405 -100.719,136.253 -107.565,132.3 -111.519,139.147 -90.978,151.007 -89.53,156.407 
      -84.129,154.96 -63.586,166.82 -59.633,159.973 -66.48,156.02 -62.527,149.172 -69.373,145.219 -73.328,152.067 -80.176,148.114 
      -57.236,108.385 -11.363,108.384 -11.363,116.291 -19.27,116.291 -19.27,124.197 -11.363,124.197 -11.363,132.104 -3.457,132.104 
      -3.457,108.384 0.496,104.431    "/>
    <polygon class="shape-6" points="360.604,104.428 364.557,108.382 364.556,132.102 372.463,132.103 372.464,124.196 380.369,124.195 
      380.369,116.29 372.463,116.29 372.462,108.382 418.34,108.381 441.276,148.111 434.43,152.064 430.477,145.216 423.63,149.169 
      427.583,156.018 420.735,159.97 424.688,166.818 445.229,154.958 450.631,156.405 450.635,156.404 452.083,151.003 
      472.624,139.144 468.671,132.296 461.823,136.25 457.871,129.404 451.024,133.356 454.977,140.202 448.13,144.156 
      425.192,104.425 448.128,64.697 454.976,68.65 451.021,75.499 457.869,79.452 461.823,72.604 468.669,76.557 472.622,69.709 
      452.081,57.85 450.634,52.45 450.632,52.449 445.232,53.896 424.688,42.037 420.735,48.884 427.585,52.836 423.63,59.685 
      430.477,63.638 434.433,56.79 441.279,60.743 418.339,100.472 372.467,100.472 372.467,92.566 380.372,92.566 380.372,84.66 
      372.467,84.661 372.467,76.753 364.56,76.753 364.562,100.473 360.608,104.426     "/>
    <polygon class="shape-6" points="180.556,0.474 184.509,4.428 184.507,28.148 192.415,28.148 192.415,20.242 200.321,20.241 
      200.321,12.335 192.415,12.335 192.413,4.428 238.29,4.43 261.228,44.157 254.382,48.11 250.429,41.262 243.581,45.215 
      247.534,52.063 240.687,56.016 244.64,62.864 265.181,51.004 270.583,52.451 270.587,52.45 272.034,47.049 292.575,35.19 
      288.622,28.342 281.774,32.296 277.823,25.45 270.976,29.402 274.929,36.248 268.081,40.202 245.142,0.472 268.079,-39.257 
      274.927,-35.304 270.972,-28.455 277.821,-24.502 281.774,-31.35 288.62,-27.397 292.573,-34.245 272.032,-46.104 
      270.585,-51.504 270.583,-51.505 265.185,-50.058 244.64,-61.917 240.687,-55.07 247.536,-51.118 243.581,-44.269 
      250.429,-40.316 254.384,-47.164 261.231,-43.211 238.29,-3.482 192.419,-3.482 192.419,-11.388 200.323,-11.388 200.323,-19.294 
      192.419,-19.293 192.419,-27.201 184.511,-27.201 184.513,-3.481 180.56,0.472     "/>
    <polygon class="shape-6" points="180.552,208.383 184.504,212.337 184.503,236.057 192.41,236.058 192.411,228.151 200.316,228.15 
      200.316,220.245 192.41,220.245 192.409,212.337 238.287,212.336 261.224,252.066 254.377,256.02 250.424,249.171 
      243.577,253.125 247.53,259.973 240.683,263.925 244.636,270.773 265.177,258.914 270.579,260.36 270.583,260.359 272.03,254.959 
      292.571,243.099 288.618,236.251 281.771,240.206 277.819,233.359 270.972,237.311 274.925,244.157 268.077,248.111 
      245.138,208.381 268.075,168.652 274.923,172.605 270.968,179.454 277.817,183.407 281.771,176.559 288.616,180.512 
      292.569,173.665 272.028,161.805 270.581,156.405 270.579,156.404 265.181,157.851 244.636,145.992 240.683,152.839 
      247.532,156.792 243.577,163.64 250.424,167.593 254.38,160.745 261.228,164.698 238.286,204.427 192.414,204.427 
      192.414,196.521 200.319,196.521 200.319,188.615 192.414,188.616 192.414,180.708 184.507,180.708 184.509,204.428 
      180.556,208.381     "/>
    <polygon class="shape-6" points="180.556,0.474 176.603,-3.479 176.603,-27.199 168.697,-27.199 168.697,-19.292 160.791,-19.292 
      160.791,-11.387 168.697,-11.387 168.697,-3.479 122.82,-3.479 99.882,-43.208 106.73,-47.161 110.683,-40.313 117.531,-44.267 
      113.578,-51.114 120.423,-55.067 116.47,-61.914 95.929,-50.055 90.527,-51.503 89.08,-46.103 68.537,-34.242 72.492,-27.396 
      79.338,-31.348 83.291,-24.501 90.139,-28.453 86.186,-35.302 93.033,-39.256 115.969,0.473 93.031,40.203 86.184,36.25 
      90.139,29.402 83.291,25.449 79.338,32.296 72.49,28.343 68.537,35.19 89.078,47.05 90.525,52.451 90.526,52.451 95.926,51.003 
      116.468,62.863 120.421,56.016 113.574,52.063 117.527,45.215 110.681,41.262 106.727,48.11 99.879,44.157 122.817,4.428 
      168.69,4.427 168.69,12.334 160.784,12.334 160.784,20.24 168.69,20.24 168.69,28.146 176.597,28.146 176.597,4.427 180.55,0.474 
          "/>
    <polygon class="shape-6" points="356.655,100.475 356.655,76.755 348.749,76.755 348.749,84.662 340.843,84.662 340.843,92.567 
      348.749,92.567 348.749,100.475 302.872,100.475 279.935,60.746 286.782,56.793 290.735,63.641 297.583,59.688 293.63,52.84 
      300.476,48.887 296.522,42.04 275.981,53.899 270.581,52.452 270.58,52.451 269.133,57.852 248.59,69.712 252.545,76.559 
      259.391,72.606 263.344,79.453 270.191,75.501 266.238,68.652 273.086,64.698 296.023,104.427 273.084,144.157 266.236,140.204 
      270.191,133.356 263.344,129.403 259.391,136.25 252.543,132.297 248.59,139.145 269.131,151.004 270.578,156.405 
      270.579,156.405 275.979,154.958 296.521,166.817 300.474,159.97 293.627,156.017 297.58,149.169 290.733,145.216 
      286.779,152.064 279.932,148.111 302.87,108.382 348.743,108.381 348.743,116.288 340.837,116.288 340.837,124.194 
      348.743,124.194 348.743,132.101 356.649,132.101 356.649,108.381 360.603,104.428     "/>
    <polygon class="shape-6" points="180.551,208.383 176.598,204.43 176.598,180.71 168.691,180.71 168.691,188.617 160.785,188.617 
      160.785,196.522 168.691,196.522 168.691,204.43 122.816,204.428 99.877,164.701 106.725,160.748 110.678,167.596 
      117.525,163.643 113.572,156.795 120.418,152.842 116.465,145.995 95.924,157.854 90.523,156.407 90.522,156.406 89.075,161.807 
      68.532,173.667 72.487,180.514 79.333,176.562 83.286,183.408 90.134,179.456 86.181,172.607 93.028,168.653 115.966,208.382 
      93.026,248.112 86.179,244.158 90.134,237.311 83.286,233.358 79.333,240.206 72.485,236.252 68.532,243.1 89.073,254.959 
      90.521,260.36 95.921,258.912 116.463,270.772 120.416,263.926 113.569,259.973 117.522,253.125 110.676,249.172 106.722,256.02 
      99.874,252.066 122.812,212.337 168.686,212.336 168.686,220.243 160.779,220.243 160.779,228.149 168.686,228.149 
      168.686,236.056 176.592,236.056 176.592,212.336 180.545,208.383     "/>
  </g>
      </g>
      <g class="guides">
  <polygon class="st8" points="127.382,196.52 74.212,104.427 127.382,12.334 233.722,12.334 286.892,104.427 233.722,196.52   "/>
  <polygon class="st8" points="-52.67,92.566 -105.839,0.474 -52.67,-91.619 53.67,-91.619 106.84,0.474 53.67,92.566  "/>
  <polygon class="st8" points="307.437,92.566 254.267,0.474 307.437,-91.619 413.776,-91.619 466.946,0.474 413.776,92.566  "/>
  <polygon class="st8" points="-52.672,300.477 -105.842,208.384 -52.672,116.292 53.668,116.292 106.838,208.384 53.668,300.477   
    "/>
  <polygon class="st8" points="307.437,300.475 254.267,208.383 307.437,116.29 413.776,116.29 466.946,208.383 413.776,300.475  "/>
  <circle class="st8" cx="180.518" cy="104.365" r="49.938"/>
  <circle class="st8" cx="0.5" cy="0.472" r="49.938"/>
  <circle class="st8" cx="0.5" cy="208.382" r="49.938"/>
  <circle class="st8" cx="360.606" cy="0.472" r="49.938"/>
  <circle class="st8" cx="360.606" cy="208.382" r="49.938"/>
  <line class="st8" x1="-24.5" y1="-13.959" x2="385.606" y2="222.815"/>
  <line class="st8" x1="-24.502" y1="222.818" x2="385.606" y2="-13.961"/>
  <line class="st8" x1="180.556" y1="-53.479" x2="180.552" y2="262.339"/>
  <line class="st8" x1="270.585" y1="-51.504" x2="90.521" y2="260.36"/>
  <line class="st8" x1="270.579" y1="260.36" x2="90.527" y2="-51.503"/>
  <line class="st8" x1="425.192" y1="104.425" x2="-64.086" y2="104.431"/>
  <line class="st8" x1="-13.934" y1="-24.526" x2="120.396" y2="208.382"/>
  <line class="st8" x1="120.478" y1="0.472" x2="-13.936" y2="233.384"/>
  <line class="st8" x1="240.575" y1="0.472" x2="375.04" y2="233.382"/>
  <line class="st8" x1="240.569" y1="208.38" x2="375.04" y2="-24.527"/>
  <rect x="0.5" y="0.5" class="st8" width="360.107" height="207.882"/>

      </g>
</svg>
