<svg version="1.1" xmlns="http://www.w3.org/2000/svg" width="361.11" height="208.88"  viewBox="0 0 361.11 208.88">
  <style>
    :root {
      --black: #443430;
      --red: #BF402B;
      --gold: #CEA600;
      --turquois: #4D9BA3;
      --emerald: #216554;
      --blue: #262F66;
      --white: #FFFAF2;
    }
    .shape-2{fill:var(--turquois)}
    .shape-3{fill:var(--white)}
    .shape-1{fill:var(--red)}
    .shape-5{fill:var(--white)}
    .shape-4{fill:var(--white)}
    .shape-6{fill:var(--black)}
    .guides{ stroke: #4FFF4F; display: none; fill: none}
  </style>
  <g class="line" id="pattern">
    <path class="shape-1" d="M335.6 43.8V25.5h-18.3l9.2-15.9L310.6.5l13.7-7.9h-65.5L254.3.5 267 22.6l6.9-4 3.9 6.8 6.9-3.9-4-6.9 6.9-3.9 8.5 14.8h21.2l-10.6 18.3 8.5 14.8-6.8 4-4-6.9-6.8 4 3.9 6.8-6.8 4 12.7 22.1h25.5v-7.9h7.9v-7.9h-7.9v-8H350l10.6-18.3-9.1-15.9zM277.8 183.4l-3.9 6.9-6.9-4-12.7 22.1 6 10.4h68.4l-2.2-1.3-15.9-9.1 15.9-9.2-9.2-15.8h-21.2l-8.5 14.8-6.9-4 4-6.8-6.9-4zM340.8 124.2h-7.9v-7.9h-25.5l-12.7 22.1 6.8 3.9-3.9 6.9 6.8 3.9 4-6.8 6.8 3.9-8.5 14.8 10.6 18.4h18.3v-18.3l15.9 9.1 9.1-15.8L350 140h-17.1v-7.9h7.9v-7.9zM83.3 25.4l3.9-6.8 6.9 4L106.8.5l-4.5-7.9H36.8L50.5.5 34.6 9.6l9.2 15.9H65l8.5-14.8 6.9 3.9-4 6.9 6.9 4zM28.2 68.8v8h-7.9v7.9h7.9v7.9h25.5l12.7-22.1-6.8-4 3.9-6.8-6.8-4-4 6.9-6.8-4 8.5-14.7-10.6-18.4H25.5v18.3L9.7 34.6.5 50.5l10.6 18.3zM87.2 190.3l-3.9-6.9-6.9 4 4 6.8-6.9 4-8.5-14.8H43.8l-9.2 15.8 15.9 9.2-15.9 9.1-2.2 1.3h68.4l6-10.4-12.7-22.1z"/>
    <path class="shape-1" d="M45.9 150.2l6.8-3.9 4 6.8 6.8-3.9-3.9-6.9 6.8-3.9-12.7-22.1H28.2v7.9h-7.9v7.9h7.9v7.9H11.1L.5 158.4l9.1 15.8 15.9-9.1v18.3h18.3L54.4 165zM200.3 188.6h7.9v7.9h25.5l12.8-22.1-6.9-3.9 4-6.9-6.9-3.9-3.9 6.8-6.9-3.9 8.6-14.8-10.6-18.4h-18.3v18.3l-15.9-9.1-9.1 15.8 10.6 18.4h17v7.9h-7.9v7.9zM117.5 163.6l4 6.9-6.9 3.9 12.8 22.1h25.5v-7.9h7.9v-7.9h-7.9v-7.9h17l10.7-18.4-9.2-15.8-15.8 9.1v-18.3h-18.3l9.1-15.8-15.8-9.2 15.8-9.1-9.1-15.9H116l-8.5 14.8-6.8-3.9 3.9-6.9-6.8-3.9-4 6.8-6.8-4-12.8 22.1L87 126.5l6.8-3.9 4 6.8 6.8-3.9-3.9-6.9 6.8-4 8.5 14.8h21.3l-10.7 18.4 8.6 14.8-6.9 3.9-3.9-6.8-6.9 3.9z"/>
    <path class="shape-1" d="M263.3 129.4l4-6.8 6.8 3.9 12.8-22.1-12.8-22.1-6.8 4-4-6.8-6.8 3.9 3.9 6.9-6.8 3.9-8.5-14.8h-21.2l-9.2 15.9 15.9 9.1-15.9 9.2 9.2 15.8h21.2l8.5-14.8 6.8 4-3.9 6.8 6.8 4zM243.6 45.2l-4-6.8 6.9-4-12.8-22.1h-25.5v7.9h-7.9v7.9h7.9v8h-17l-10.6 18.3 9.1 15.9 15.9-9.2v18.3h18.3l10.6-18.3-8.6-14.8 6.9-4 3.9 6.9 6.9-4zM155.6 61.1l15.8 9.2 9.2-15.9-10.7-18.3h-17v-8h7.9v-7.9h-7.9v-7.9h-25.5l-12.8 22.1 6.9 4-4 6.8 6.9 4 3.9-6.9 6.9 4-8.6 14.8 10.7 18.3h18.3z"/>
    <g>
      <path class="shape-2" d="M214.7 113.6l-5.3-9.2 5.3-9.1-9.1-5.3V79.4H195l-5.3-9.1-9.1 5.3-9.2-5.3-5.3 9.1h-10.5V90l-9.2 5.3 5.3 9.1-5.3 9.2 9.2 5.3v10.5h10.5l5.3 9.2 9.2-5.3 9.1 5.3 5.3-9.2h10.6v-10.5zM394.8 9.6L389.5.5l5.3-9.2-9.2-5.3v-10.5H375l-5.2-9.2-9.2 5.3-9.1-5.3-5.3 9.2h-10.6V-14l-9.1 5.3 5.2 9.2-5.2 9.1 9.1 5.3v10.6h10.6l5.3 9.1 9.1-5.3 9.2 5.3 5.2-9.1h10.6V14.9zM34.6 217.5l-5.2-9.1 5.2-9.2-9.1-5.2v-10.6H14.9l-5.3-9.2-9.1 5.3-9.2-5.3-5.2 9.2h-10.6V194l-9.2 5.2 5.3 9.2-5.3 9.1 9.2 5.3v10.6h10.6l5.2 9.1 9.2-5.2 9.1 5.2 5.3-9.1h10.6v-10.6zM394.8 217.5l-5.3-9.1 5.3-9.2-9.2-5.3v-10.5H375l-5.2-9.2-9.2 5.3-9.1-5.3-5.3 9.2h-10.6v10.5l-9.1 5.3 5.2 9.2-5.2 9.1 9.1 5.3v10.6h10.6l5.3 9.1 9.1-5.2 9.2 5.2 5.2-9.1h10.6v-10.6zM34.6 9.6L29.4.5l5.2-9.2-9.1-5.3v-10.5H14.9l-5.2-9.2-9.2 5.3-9.2-5.3-5.2 9.2h-10.6V-14l-9.1 5.3 5.2 9.2-5.2 9.1 9.1 5.3v10.6h10.6l5.2 9.1 9.2-5.3 9.2 5.3 5.2-9.1h10.6V14.9z"/>
    </g>
    <g>
      <path class="shape-3" d="M155.6 129.4v18.3l15.8-9.1-5.3-9.2zM146.4 95.3l-15.8 9.1 15.8 9.2 5.3-9.2zM205.6 79.4V61.1l-15.9 9.2 5.3 9.1zM189.7 138.6l15.9 9.1v-18.3H195zM171.4 70.3l-15.8-9.2v18.3h10.5zM214.7 113.6l15.9-9.2-15.9-9.1-5.3 9.1zM189.7 70.3l-9.1-15.9-9.2 15.9 9.2 5.3z"/>
      <path class="shape-3" d="M214.7 95.3l9.2-15.9h-18.3V90zM171.4 138.6l9.2 15.8 9.1-15.8-9.1-5.3zM214.7 113.6l-9.1 5.3v10.5h18.3zM155.6 79.4h-18.3l9.1 15.9 9.2-5.3zM146.4 113.6l-9.1 15.8h18.3v-10.5zM335.6 25.5v18.3l15.9-9.2-5.3-9.1zM326.5-8.7L310.6.5l15.9 9.1 5.2-9.1zM351.5 34.6l9.1 15.9 9.2-15.9-9.2-5.3zM326.5 9.6l-9.2 15.9h18.3V14.9zM326.5 199.2l-15.9 9.2 15.9 9.1 5.2-9.1zM351.5 174.2l-15.9-9.1v18.3h10.6zM369.8 174.2l-9.2-15.8-9.1 15.8 9.1 5.3z"/>
      <path class="shape-3" d="M335.6 183.4h-18.3l9.2 15.8 9.1-5.3zM9.7 34.6l15.8 9.2V25.5H14.9zM34.6 9.6L50.5.5 34.6-8.7 29.4.5zM-8.7 34.6L.5 50.5l9.2-15.9-9.2-5.3zM34.6 9.6l-9.1 5.3v10.6h18.3zM25.5 183.4v-18.3l-15.9 9.1 5.3 9.2zM34.6 217.5l15.9-9.1-15.9-9.2-5.2 9.2zM9.6 174.2L.5 158.4l-9.2 15.8 9.2 5.3zM34.6 199.2l9.2-15.8H25.5V194z"/>
    </g>
    <g>
      <path class="shape-4" d="M238.3 204.4l22.9-39.7-6.8-4-4 6.9-6.8-4-4 6.9 6.9 3.9-12.8 22.1h-25.5v-7.9h-7.9v7.9h-7.9v7.9h45.9zM296 104.4l-22.9-39.7-6.9 4 4 6.8-6.9 4 4 6.8 6.8-4 12.8 22.1-12.8 22.1-6.8-3.9-4 6.8 6.9 4-4 6.8 6.9 4 22.9-39.8zM238.3 4.4h-45.9v7.9h7.9v7.9h7.9v-7.9h25.5l12.8 22.1-6.9 4 4 6.8 6.8-3.9 4 6.8 6.8-3.9-22.9-39.8zM122.8 4.4L99.9 44.2l6.8 3.9 4-6.8 6.8 3.9 4-6.8-6.9-4 12.8-22.1h25.5v7.9h7.9v-7.9h7.9V4.4zM93.8 122.6l-6.8 3.9-12.8-22.1L87 82.3l6.8 4 4-6.8-6.9-4 4-6.8-6.9-4-22.9 39.7L88 144.2l6.9-4-4-6.8 6.9-4zM168.7 196.5h-7.9v-7.9h-7.9v7.9h-25.5l-12.8-22.1 6.9-3.9-4-6.9-6.8 4-4-6.9-6.8 4 22.9 39.7h45.9zM273.9 18.6l-6.9 4L254.3.5 267-21.6l6.9 3.9 3.9-6.8-6.8-4 3.9-6.8-6.8-4-23 39.8 23 39.7 6.8-4-3.9-6.8 6.8-4zM348.7 92.6h-7.9v-7.9h-7.9v7.9h-25.5l-12.7-22.1 6.8-4-3.9-6.8-6.9 3.9-3.9-6.8-6.9 3.9 23 39.8h45.8zM302.9 108.4l-23 39.7 6.9 4 3.9-6.9 6.9 4 3.9-6.9-6.8-3.9 12.7-22.1h25.5v7.9h7.9v-7.9h7.9v-7.9zM273.9 226.5l-6.9 4-12.7-22.1 12.7-22.1 6.9 4 3.9-6.9-6.8-3.9 3.9-6.9-6.8-3.9-23 39.7 23 39.7 6.8-3.9-3.9-6.9 6.8-3.9zM58.2 100.5l23-39.8-6.9-3.9-3.9 6.8-6.9-3.9-3.9 6.8 6.8 4-12.7 22.1H28.2v-7.9h-7.9v7.9h-7.9v7.9h45.8zM116 .5L93-39.3l-6.8 4 3.9 6.8-6.8 4 3.9 6.8 6.9-3.9L106.8.5 94.1 22.6l-6.9-4-3.9 6.8 6.8 4-3.9 6.9 6.8 3.9L116 .5zM116 208.4l-23-39.7-6.8 3.9 3.9 6.9-6.8 3.9 3.9 6.9 6.9-4 12.7 22.1-12.7 22.1-6.9-4-3.9 6.9 6.8 3.9-3.9 6.9 6.8 3.9 23-39.7zM58.2 108.4H12.4v7.9h7.9v7.9h7.9v-7.9h25.5l12.7 22.1-6.8 3.9 3.9 6.9 6.9-4 3.9 6.9 6.9-4-23-39.7zM238.3 212.3h-45.9v7.9h7.9v8h7.9v-8h25.5l12.8 22.1-6.9 4 4 6.8 6.8-3.9 4 6.8 6.8-3.9-22.9-39.8zM122.8 212.3l-22.9 39.8 6.8 3.9 4-6.8 6.8 3.9 4-6.8-6.9-4 12.8-22.1h25.5v8h7.9v-8h7.9v-7.9z"/>
    </g>
    <g>
      <path class="shape-5" d="M180.6 154.4l-10.7 18.4h-17v7.9h7.9v7.9h7.9v-7.9h7.9v23.7l4 4 3.9-4v-23.7h7.9v7.9h7.9v-7.9h7.9v-7.9h-17zM223.9 129.4l10.6 18.4-8.6 14.8 6.9 3.9 3.9-6.8 6.9 3.9 3.9-6.8-6.8-4 3.9-6.8 20.6 11.9 5.4-1.5-1.5-5.4-20.5-11.9 3.9-6.8 6.9 4 3.9-6.9-6.8-4 3.9-6.8-6.8-4-8.5 14.8zM223.9 79.4h21.2l8.5 14.8 6.8-3.9-3.9-6.9 6.8-3.9-3.9-6.9-6.9 4-3.9-6.9 20.5-11.8 1.5-5.4-5.4-1.5-20.6 11.9-3.9-6.9 6.8-3.9-3.9-6.9-6.9 4-3.9-6.9-6.9 4 8.6 14.8zM180.6 54.4l10.6-18.3h17v-8h-7.9v-7.9h-7.9v7.9h-7.9V4.4L180.6.5l-4 3.9v23.7h-7.9v-7.9h-7.9v7.9h-7.9v8h17zM137.3 79.4l-10.7-18.3 8.6-14.8-6.9-4-3.9 6.9-6.9-4-3.9 6.9 6.8 3.9-3.9 6.9L95.9 51l-5.4 1.5 1.5 5.4 20.5 11.8-3.9 6.9-6.9-4-3.9 6.9 6.8 3.9-3.9 6.9 6.8 3.9 8.5-14.8zM137.3 129.4H116l-8.5-14.8-6.8 4 3.9 6.9-6.8 3.9 3.9 6.9 6.9-4 3.9 6.8L92 151l-1.5 5.4 5.4 1.5 20.6-11.9 3.9 6.8-6.8 4 3.9 6.8 6.9-3.9 3.9 6.8 6.9-3.9-8.6-14.8zM360.6 50.5L350 68.8h-17.1v8h7.9v7.9h7.9v-7.9h8v23.7l3.9 3.9 4-3.9V76.8h7.9v7.9h7.9v-7.9h7.9v-8h-17.1zM317.3 25.5h-21.2l-8.5-14.8-6.9 3.9 4 6.9-6.9 3.9 4 6.9 6.8-4 4 6.9L272 47l-1.4 5.5 5.4 1.4L296.5 42l4 6.9-6.9 3.9 4 6.9 6.8-4 4 6.9 6.8-4-8.5-14.8zM360.6 158.4l10.6-18.4h17.1v-7.9h-7.9v-7.9h-7.9v7.9h-7.9v-23.7l-4-4-3.9 4v23.7h-8v-7.9h-7.9v7.9h-7.9v7.9H350zM317.3 183.4L306.7 165l8.5-14.8-6.8-3.9-4 6.8-6.8-3.9-4 6.8 6.9 4-4 6.8L276 155l-5.4 1.4 1.4 5.4 20.6 11.9-4 6.8-6.8-3.9-4 6.8 6.9 4-4 6.8 6.9 4 8.5-14.8zM.5 50.5l-10.6 18.3h-17.1v8h7.9v7.9h7.9v-7.9h7.9v23.7l4 3.9 4-3.9V76.8h7.9v7.9h7.9v-7.9h7.9v-8H11.1zM43.8 25.5l10.6 18.4-8.5 14.7 6.8 4 4-6.9 6.8 4 4-6.9-6.9-3.9 4-6.9 20.5 11.9 5.4-1.4-1.4-5.4-20.6-11.9 4-6.9 6.8 4 4-6.8-6.9-4 4-6.9-6.9-3.9L65 25.5z"/>
      <path class="shape-5" d="M43.8 183.4H65l8.5 14.8 6.9-4-4-6.8 6.9-4-4-6.8-6.8 3.9-4-6.8 20.6-11.9 1.4-5.4-5.4-1.4-20.5 11.8-4-6.8 6.9-4-4-6.8-6.8 3.9-4-6.8-6.8 3.9 8.5 14.8zM.5 158.4L11.1 140h17.1v-7.9h-7.9v-7.9h-7.9v7.9H4.5v-23.7l-4-4-4 4v23.7h-7.9v-7.9h-7.9v7.9h-7.9v7.9h17.1zM180.6 262.3l10.6-18.3h17v-7.9h-7.9v-7.9h-7.9v7.9h-7.9v-23.8l-3.9-3.9-4 3.9v23.8h-7.9v-7.9h-7.9v7.9h-7.9v7.9h17zM180.6-53.5l-10.7 18.4h-17v7.9h7.9v7.9h7.9v-7.9h7.9v23.7l4 4 3.9-4v-23.7h7.9v7.9h7.9v-7.9h7.9v-7.9h-17z"/>
    </g>
    <g>
      <path class="shape-6" d="M.5 104.4l4 4v23.7h7.9v-7.9h7.9v-7.9h-7.9v-7.9h45.8l23 39.7-6.9 4-3.9-6.9-6.9 4 4 6.8-6.9 4 4 6.8L85.1 155l5.4 1.4L92 151l20.5-11.9-3.9-6.8-6.9 4-3.9-6.9-6.9 4 4 6.8-6.9 4-22.9-39.8L88 64.7l6.9 4-4 6.8 6.9 4 3.9-6.9 6.9 4 3.9-6.9L92 57.9l-1.5-5.4-5.4 1.4L64.6 42l-4 6.9 6.9 3.9-4 6.9 6.9 3.9 3.9-6.8 6.9 3.9-23 39.8H12.4v-7.9h7.9v-7.9h-7.9v-7.9H4.5v23.7l-4 3.9M.5 104.4l-4-3.9V76.8h-7.9v7.9h-7.9v7.9h7.9v7.9h-45.8l-23-39.8 6.9-3.9 3.9 6.8 6.9-3.9-4-6.9 6.9-3.9-4-6.9-20.5 11.9-5.4-1.4-1.5 5.4-20.5 11.8 3.9 6.9 6.9-4 3.9 6.9 6.9-4-4-6.8 6.9-4 22.9 39.7-22.9 39.8-6.9-4 4-6.8-6.9-4-3.9 6.9-6.9-4-3.9 6.8L-91 151l1.5 5.4 5.4-1.4 20.5 11.8 4-6.8-6.9-4 4-6.8-6.9-4-3.9 6.9-6.9-4 23-39.7h45.8v7.9h-7.9v7.9h7.9v7.9h7.9v-23.7l4-4zM360.6 104.4l4 4v23.7h7.9v-7.9h7.9v-7.9h-7.9v-7.9h45.8l23 39.7-6.9 4-3.9-6.9-6.9 4 4 6.8-6.9 4 4 6.8 20.5-11.8 5.4 1.4 1.5-5.4 20.5-11.9-3.9-6.8-6.9 4-3.9-6.9-6.9 4 4 6.8-6.9 4-22.9-39.8 22.9-39.7 6.9 4-4 6.8 6.9 4 3.9-6.9 6.9 4 3.9-6.9-20.5-11.8-1.5-5.4v-.1l-5.4 1.5L424.7 42l-4 6.9 6.9 3.9-4 6.9 6.9 3.9 3.9-6.8 6.9 3.9-23 39.8h-45.8v-7.9h7.9v-7.9h-7.9v-7.9h-7.9v23.7l-4 3.9zM180.6.5l3.9 3.9v23.7h7.9v-7.9h7.9v-7.9h-7.9V4.4h45.9l22.9 39.8-6.8 3.9-4-6.8-6.8 3.9 3.9 6.9-6.8 3.9 3.9 6.9L265.2 51l5.4 1.5L272 47l20.6-11.8-4-6.9-6.8 4-4-6.9-6.8 4 3.9 6.8-6.8 4-23-39.7 23-39.8 6.8 4-3.9 6.8 6.8 4 4-6.9 6.8 4 4-6.8L272-46.1l-1.4-5.4-5.4 1.4-20.6-11.8-3.9 6.8 6.8 4-3.9 6.8 6.8 4 4-6.9 6.8 4-22.9 39.7h-45.9v-7.9h7.9v-7.9h-7.9v-7.9h-7.9v23.7l-3.9 4zM180.6 208.4l3.9 3.9v23.8h7.9v-7.9h7.9v-8h-7.9v-7.9h45.9l22.9 39.8-6.8 3.9-4-6.8-6.8 3.9 3.9 6.9-6.8 3.9 3.9 6.9 20.6-11.9 5.4 1.5 1.4-5.4 20.6-11.9-4-6.8-6.8 3.9-4-6.8-6.8 3.9 3.9 6.9-6.8 3.9-23-39.7 23-39.7 6.8 3.9-3.9 6.9 6.8 3.9 4-6.8 6.8 3.9 4-6.8-20.6-11.9-1.4-5.4-5.4 1.5-20.6-11.9-3.9 6.8 6.8 4-3.9 6.8 6.8 4 4-6.9 6.8 4-22.9 39.7h-45.9v-7.9h7.9v-7.9h-7.9v-7.9h-7.9v23.7l-3.9 4z"/>
      <path class="shape-6" d="M180.6.5l-4-4v-23.7h-7.9v7.9h-7.9v7.9h7.9v7.9h-45.9L99.9-43.2l6.8-4 4 6.9 6.8-4-3.9-6.8 6.8-4-3.9-6.8-20.6 11.8-5.4-1.4-1.4 5.4-20.6 11.9 4 6.8 6.8-3.9 4 6.8 6.8-4-3.9-6.8 6.8-4L116 .5 93 40.2l-6.8-3.9 3.9-6.9-6.8-4-4 6.9-6.8-4-4 6.9L89.1 47l1.4 5.5 5.4-1.5 20.6 11.9 3.9-6.9-6.8-3.9 3.9-6.9-6.8-3.9-4 6.8-6.8-3.9 22.9-39.8h45.9v7.9h-7.9v7.9h7.9v7.9h7.9V4.4l4-3.9zM356.7 100.5V76.8h-8v7.9h-7.9v7.9h7.9v7.9h-45.8l-23-39.8 6.9-3.9 3.9 6.8 6.9-3.9-4-6.9 6.9-3.9-4-6.9L276 53.9l-5.4-1.4-1.5 5.4-20.5 11.8 3.9 6.9 6.9-4 3.9 6.9 6.9-4-4-6.8 6.9-4 22.9 39.7-22.9 39.8-6.9-4 4-6.8-6.9-4-3.9 6.9-6.9-4-3.9 6.8 20.5 11.9 1.5 5.4 5.4-1.4 20.5 11.8 4-6.8-6.9-4 4-6.8-6.9-4-3.9 6.9-6.9-4 23-39.7h45.8v7.9h-7.9v7.9h7.9v7.9h7.9v-23.7l4-4zM180.6 208.4l-4-4v-23.7h-7.9v7.9h-7.9v7.9h7.9v7.9h-45.9l-22.9-39.7 6.8-4 4 6.9 6.8-4-3.9-6.8 6.8-4-3.9-6.8-20.6 11.9-5.4-1.5-1.4 5.4-20.6 11.9 4 6.8 6.8-3.9 4 6.8 6.8-3.9-3.9-6.9 6.8-3.9 23 39.7-23 39.7-6.8-3.9 3.9-6.9-6.8-3.9-4 6.8-6.8-3.9-4 6.8L89.1 255l1.4 5.4 5.4-1.5 20.6 11.9 3.9-6.9-6.8-3.9 3.9-6.9-6.8-3.9-4 6.8-6.8-3.9 22.9-39.8h45.9v7.9h-7.9v7.9h7.9v8h7.9v-23.8l3.9-3.9z"/>
    </g>
  </g>
  <g class="guides">
    <path class="st8" d="M127.4 196.5l-53.2-92.1 53.2-92.1h106.3l53.2 92.1-53.2 92.1zM-52.7 92.6L-105.8.5l53.1-92.1H53.7L106.8.5 53.7 92.6zM307.4 92.6L254.3.5l53.1-92.1h106.4L466.9.5l-53.1 92.1zM-52.7 300.5l-53.1-92.1 53.1-92.1H53.7l53.1 92.1-53.1 92.1zM307.4 300.5l-53.1-92.1 53.1-92.1h106.4l53.1 92.1-53.1 92.1z"/>
    <circle class="st8" cx="180.5" cy="104.4" r="49.9"/>
    <circle class="st8" cx=".5" cy=".5" r="49.9"/>
    <circle class="st8" cx=".5" cy="208.4" r="49.9"/>
    <circle class="st8" cx="360.6" cy=".5" r="49.9"/>
    <circle class="st8" cx="360.6" cy="208.4" r="49.9"/>
    <path class="st8" d="M-24.5-14l410.1 236.8M-24.5 222.8L385.6-14M180.6-53.5v315.8M270.6-51.5L90.5 260.4M270.6 260.4L90.5-51.5M425.2 104.4H-64.1M-13.9-24.5l134.3 232.9M120.5.5L-13.9 233.4M240.6.5L375 233.4M240.6 208.4L375-24.5M.5.5h360.1v207.9H.5z"/>
  </g>

</svg>
