<svg xmlns="http://www.w3.org/2000/svg" width="720" height="415.7" viewBox="0 0 720 415.7">
  <style>
    :root {
      --black: #443430;
      --red: #BF402B;
      --gold: #CEA600;
      --turquois: #4D9BA3;
      --emerald: #216554;
      --blue: #262F66;
      --white: #FFFAF2;

    }
    .shape-3{fill:var(--turquois)}
    .shape-2{fill:var(--white)}
    .shape-5{fill:var(--red)}
    .shape-1{fill:var(--white)}
    .shape-4{fill:var(--white)}
    .guides{ stroke: #4FFF4F; display: none; fill: none}
  </style>
  <g id="pattern" class="line">
    <path class="shape-1" d="M360 80c16.4-13 36-20.9 56.5-23.3A103.9 103.9 0 01499-32.8a104.7 104.7 0 0162 6.1 110.8 110.8 0 0159.6-41H99.4a112.2 112.2 0 0159.6 41 103.9 103.9 0 0162-6.2 104.1 104.1 0 0182.5 89.6c20.4 2.4 40 10.4 56.5 23.3zM470.7 144a112.2 112.2 0 0148.4 37.2 103.9 103.9 0 0162-6.2 104.7 104.7 0 0136.3-50.5c-8.2-18.9-11.1-39.9-8.1-60.6l1.4.6-1.4-.6A112.2 112.2 0 01561 26.6a103.9 103.9 0 01-62 6.2 104.6 104.6 0 01-36.3 50.6c8.2 18.9 11.1 39.9 8.1 60.5M82.1 207.9A104.7 104.7 0 0156.5 151 112 112 0 01-39 67.7V348A112 112 0 010 288v-.1c16.4-13 36-21 56.5-23.3A103.9 103.9 0 0182 208M462.6 332.4a103.9 103.9 0 0136.4 50.5 104.7 104.7 0 0161.9 6.2c12.3-16.5 29-29.6 48.4-37.3-3-20.7-.1-41.7 8-60.6a103.9 103.9 0 01-36.3-50.5 104.6 104.6 0 01-61.9-6.2c-12.3 16.5-48.4 37.3-48.4 37.3s.1 41.7-8 60.6zM249.3 144c-3-20.7-.1-41.7 8-60.6A103.9 103.9 0 01221 32.8a104.6 104.6 0 01-62-6.2 112.3 112.3 0 01-50.5 38.1l2.2-.8c3 20.7.1 41.7-8 60.6A103.9 103.9 0 01139 175a104.7 104.7 0 0161.9 6.2c12.3-16.5 48.4-37.3 48.4-37.3zM249.3 271.8a112 112 0 01-48.4-37.3 103.9 103.9 0 01-62 6.2 104.6 104.6 0 01-36.3 50.5c8.2 19 11.1 40 8.1 60.6a112.2 112.2 0 0148.4 37.3 103.9 103.9 0 0162-6.2 104.7 104.7 0 0136.3-50.5c-8.2-19-11.1-40-8.1-60.6zM720 288c19 15 33 35.9 39.1 60V67.7a112.2 112.2 0 01-95.6 83.4A103.9 103.9 0 01638 208a104.6 104.6 0 0125.6 56.7C684 267 703.6 275 720 288zM360 335.7c16.4 13 36 21 56.5 23.3a103.9 103.9 0 0082.5 89.6 104.7 104.7 0 0061.9-6.2 111 111 0 0059.7 41.1H99.4a111 111 0 0059.7-41.1 103.9 103.9 0 00118.8-26.6 104.7 104.7 0 0025.6-56.8c20.4-2.4 40-10.3 56.5-23.3z"/>
    <path class="shape-2" d="M318.6 231.8a112 112 0 01-36.8-24c-17.1 16.8-29 39-32.5 64a111.5 111.5 0 0071.6 3.8 112 112 0 01-2.3-43.8zm-1.2-63.9A112 112 0 01321 140a111.9 111.9 0 00-71.6 3.8 112 112 0 0032.5 64 112 112 0 0136.8-24c-.8-5.2-1.2-10.6-1.2-16z"/>
    <path class="shape-2" d="M399.1 140.1a112 112 0 00-39.1-60c-19 15-33 36-39.1 60 14.4 4 27.7 11 39.1 20 11.4-9 24.7-16 39.1-20zm-78.2 135.5a112 112 0 0039.1 60 111 111 0 0039.1-60 110 110 0 01-39.1-20 110 110 0 01-39.1 20z"/>
    <path class="shape-2" d="M438.2 207.9a112 112 0 01-36.8 23.9 112.8 112.8 0 01-2.3 43.8 112 112 0 0071.6-3.8 112 112 0 00-32.5-64z"/>
    <path class="shape-2" d="M401.4 184a112 112 0 0136.8 23.9c17.1-16.8 29-39 32.5-64a111.5 111.5 0 00-71.6-3.8 112 112 0 012.3 43.8z"/>
    <path class="shape-3" d="M438.2 207.9a112 112 0 00-36.8-24 112.8 112.8 0 00-2.3-43.8c-14.4 4-27.7 11-39.1 20-11.4-9-24.7-16-39.1-20a112 112 0 00-2.3 43.8 112 112 0 00-36.8 24 112 112 0 0036.8 23.9 112.8 112.8 0 002.3 43.8 110 110 0 0039.1-20 110 110 0 0039.1 20 112 112 0 002.3-43.8 112 112 0 0036.8-24z"/>
    <g>
      <path class="shape-2" d="M678.6 24a112 112 0 01-36.8-24c-17.1 16.8-29 39-32.5 64a111.5 111.5 0 0071.6 3.7 112 112 0 01-2.3-43.8zm-1.2-64a112 112 0 013.5-27.7 111.9 111.9 0 00-71.6 3.8A112.6 112.6 0 00641.8 0a112 112 0 0136.8-24c-.8-5.2-1.2-10.5-1.2-16z"/>
      <path class="shape-2" d="M680.9 67.7a112 112 0 0039.1 60.1c19-15 33-36 39.1-60-14.4-4.1-27.7-11-39.1-20-11.4 9-24.7 15.9-39.1 20z"/>
      <path class="shape-3" d="M798.2 0a112 112 0 00-36.8-24 112.8 112.8 0 00-2.3-43.7c-14.4 4-27.7 10.9-39.1 19.9-11.4-9-24.7-15.9-39.1-20a112 112 0 00-2.3 43.9A112 112 0 00641.8 0a112 112 0 0036.8 24 112.8 112.8 0 002.3 43.7c14.4-4 27.7-10.9 39.1-19.9 11.4 9 24.7 15.9 39.1 20a112 112 0 002.3-43.9A112 112 0 00798.2 0z"/>
    </g>
    <g>
      <path class="shape-2" d="M678.6 439.7a112 112 0 01-36.8-24c-17.1 16.8-29 39-32.5 64a111.5 111.5 0 0071.6 3.8 112 112 0 01-2.3-43.8z"/>
      <path class="shape-2" d="M677.4 375.7A112 112 0 01681 348a112 112 0 00-71.6 3.8 112 112 0 0032.5 64 112 112 0 0136.8-24c-.8-5.2-1.2-10.6-1.2-16z"/>
      <path class="shape-2" d="M759.1 348a112 112 0 00-39.1-60c-19 15-33 35.9-39.1 60a110 110 0 0139.1 20 110 110 0 0139.1-20z"/>
      <path class="shape-3" d="M798.2 415.7a112 112 0 00-36.8-23.9 112.8 112.8 0 00-2.3-43.8 110 110 0 00-39.1 20 110 110 0 00-39.1-20 112 112 0 00-2.3 43.8 112 112 0 00-36.8 24 112 112 0 0036.8 23.9 112.7 112.7 0 002.3 43.8c14.4-4 27.7-11 39-20a113 113 0 0039.2 20 112 112 0 002.3-43.8 112 112 0 0036.8-24z"/>
    </g>
    <g>
      <path class="shape-2" d="M-39.1 67.7A112 112 0 000 127.8c19-15 33-36 39.1-60-14.4-4.1-27.7-11-39.1-20-11.4 9-24.7 15.9-39.1 20zM78.2 0a112 112 0 01-36.8 24 112.8 112.8 0 01-2.3 43.7 112 112 0 0071.6-3.8A111.6 111.6 0 0078.2 0zM41.4-24A112 112 0 0178.2 0c17.1-16.8 29-39 32.5-64a111.5 111.5 0 00-71.6-3.7A112 112 0 0141.4-24z"/>
      <path class="shape-3" d="M78.2 0a112 112 0 00-36.8-24 112.8 112.8 0 00-2.3-43.7C24.7-63.7 11.4-56.8 0-47.8c-11.4-9-24.7-15.9-39.1-20a112 112 0 00-2.3 43.9A112 112 0 00-78.2 0a112 112 0 0036.8 24 112.8 112.8 0 002.3 43.7c14.4-4 27.7-10.9 39.1-19.9 11.4 9 24.7 15.9 39.1 20a112 112 0 002.3-43.9A112 112 0 0078.2 0z"/>
    </g>
    <g>
      <path class="shape-2" d="M39.1 348A112 112 0 000 288c-19 15-33 35.9-39.1 60A110 110 0 010 368a110 110 0 0139.1-20zm39.1 67.7a112 112 0 01-36.8 24 112.8 112.8 0 01-2.3 43.8 112 112 0 0071.6-3.8 111.6 111.6 0 00-32.5-64z"/>
      <path class="shape-2" d="M41.4 391.8a112 112 0 0136.8 24c17.1-16.8 29-39 32.5-64a111.5 111.5 0 00-71.6-3.8 112 112 0 012.3 43.8z"/>
      <path class="shape-3" d="M78.2 415.7a112 112 0 00-36.8-23.9 112.8 112.8 0 00-2.3-43.8c-14.4 4-27.7 11-39.1 20a110 110 0 00-39.1-20 112 112 0 00-2.3 43.8 112 112 0 00-36.8 24 112 112 0 0036.8 23.9 112.8 112.8 0 002.3 43.8c14.4-4 27.7-11 39.1-20 11.4 9 24.7 16 39.1 20a112 112 0 002.3-43.8 112 112 0 0036.8-24z"/>
    </g>
    <g>
      <path class="shape-4" d="M278 0a104.1 104.1 0 00-57-32.8c-6.9 20.9-7.2 44 0 65.6A104.2 104.2 0 00278 0zM139 175a104.1 104.1 0 00-57 33 104.1 104.1 0 0056.9 32.8 104.1 104.1 0 000-65.7zm82 207.9a104 104 0 000 65.7 104.1 104.1 0 0057-32.8 104.2 104.2 0 00-57-32.9zm221 32.9a104.1 104.1 0 0057 32.8c6.9-21 7.2-44 0-65.7a104.1 104.1 0 00-57 32.9zm139-175.1a104.1 104.1 0 0057-32.7 104.1 104.1 0 00-57-33 104.2 104.2 0 000 65.7zM499 32.8c7.2-21.7 6.9-44.7 0-65.6A104.1 104.1 0 00442 0a104.2 104.2 0 0057 32.8z"/>
    </g>
    <g>
      <path class="shape-5" d="M720 287.9c-16.4-13-36-21-56.5-23.3A104 104 0 00638 208a104.1 104.1 0 01-56.9 32.8 104.7 104.7 0 0036.4 50.5c-8.2 19-11.1 40-8.1 60.6a111.5 111.5 0 0171.6-3.8c6-23.2 19.3-44.6 39.1-60.1zM249.3 144a112.2 112.2 0 00-48.4 37.2 103.9 103.9 0 00-62-6.2 104.1 104.1 0 010 65.7 104.7 104.7 0 0062-6.2c12.3 16.5 29 29.6 48.4 37.3a111.6 111.6 0 0132.5-64c-17.1-16.7-29-39-32.5-63.9zm360-208A112.2 112.2 0 00561-26.6a103.9 103.9 0 00-62-6.2 104.1 104.1 0 010 65.7 104.7 104.7 0 0062-6.2c12.3 16.6 29 29.6 48.4 37.3A111.6 111.6 0 01642 0c-17.2-16.7-29-39-32.6-63.8zm0 415.8a112.2 112.2 0 00-48.4 37.3 103.9 103.9 0 00-62-6.2 104.1 104.1 0 010 65.7 104.7 104.7 0 0062-6.2 113 113 0 0048.4 37.3 111.6 111.6 0 0132.5-64c-17.1-16.7-29-39-32.5-63.9z"/>
      <path class="shape-5" d="M249.3 271.8a113 113 0 008 60.6 103.9 103.9 0 00-36.3 50.5 104.1 104.1 0 0157 32.9 104.7 104.7 0 0025.5-56.8c20.4-2.4 40-10.3 56.5-23.3a111.6 111.6 0 01-39.1-60.1 111.5 111.5 0 01-71.6-3.8zM609.3 64c-3 20.6-.1 41.6 8 60.5A103.9 103.9 0 00581 175a104.1 104.1 0 0157 32.9 104.7 104.7 0 0025.5-56.8 111.6 111.6 0 0056.5-23.2 111.6 111.6 0 01-39-60.2 111.5 111.5 0 01-71.7-3.8zM360 335.7c16.4 13 36 21 56.5 23.3a103.9 103.9 0 0025.6 56.8 104.1 104.1 0 0156.9-32.9 104.7 104.7 0 00-36.4-50.5c8.2-19 11.1-40 8.1-60.6a111.5 111.5 0 01-71.6 3.8c-6 23.3-19.3 44.6-39.1 60.1zM0 127.9c16.4 12.9 36 20.9 56.5 23.2A103.9 103.9 0 0082.1 208a104.1 104.1 0 0156.9-33 104.7 104.7 0 00-36.3-50.5 113 113 0 008-60.6 111.5 111.5 0 01-71.6 3.8C33.1 91 19.8 112.3.1 128z"/>
      <path class="shape-5" d="M470.7 271.8a112.2 112.2 0 0048.4-37.3 103.9 103.9 0 0062 6.2 104.2 104.2 0 010-65.7 104.7 104.7 0 00-62 6.2 112.2 112.2 0 00-48.4-37.3 111.6 111.6 0 01-32.5 64c17.1 16.7 29 39 32.5 63.9zM110.7 64A112.2 112.2 0 00159 26.5a103.9 103.9 0 0062 6.2 104.2 104.2 0 010-65.7 104.7 104.7 0 00-62 6.2A112.2 112.2 0 00110.6-64 111.6 111.6 0 0178 0c17.2 16.8 29 39 32.6 64zm0 415.7a112.2 112.2 0 0048.4-37.3 103.9 103.9 0 0062 6.2 104.2 104.2 0 010-65.7 104.7 104.7 0 00-62 6.2 112.2 112.2 0 00-48.4-37.3 111.6 111.6 0 01-32.5 64c17.1 16.7 29 39 32.5 63.9z"/>
      <path class="shape-5" d="M470.7 144c3-20.7.1-41.7-8-60.6A103.9 103.9 0 00499 32.8 104.1 104.1 0 01442 0a104.8 104.8 0 00-25.5 56.7c-20.4 2.4-40 10.4-56.5 23.3a111.6 111.6 0 0139.1 60.1c23.1-6.4 48.3-5.5 71.6 3.8zm-360 207.8c3-20.7 0-41.7-8-60.6a103.9 103.9 0 0036.3-50.5A104.1 104.1 0 0182 208a104.8 104.8 0 00-25.5 56.7A110.8 110.8 0 000 288a111.6 111.6 0 0139 60c23.2-6.5 48.4-5.5 71.7 3.8zM360 80c-16.4-13-36-20.9-56.5-23.3A103.9 103.9 0 00277.9 0 104.2 104.2 0 01221 32.8a104.7 104.7 0 0036.4 50.6 111.6 111.6 0 00-8.1 60.5 111.6 111.6 0 0171.6-3.8c6-23.2 19.3-44.5 39-60.1z"/>
    </g>
  </g>
  <g class="guides">
    <circle cx="120" cy="207.9" r="80"/>
    <path d="M257.3 332.5a79.7 79.7 0 01-98 56.6 79.7 79.7 0 01-56.6-98 79.7 79.7 0 0198-56.6 79.7 79.7 0 0156.6 98zm0-207.9a79.7 79.7 0 01-98 56.6 79.7 79.7 0 01-56.6-98 79.7 79.7 0 0198-56.6 79.7 79.7 0 0156.6 98zm180-103.9a79.7 79.7 0 01-98 56.6 79.7 79.7 0 01-56.6-98 79.7 79.7 0 0198-56.6 79.7 79.7 0 0156.6 98zm180 103.9a79.7 79.7 0 01-98 56.6 79.7 79.7 0 01-56.6-98 79.7 79.7 0 0198-56.6 79.7 79.7 0 0156.6 98zm0 207.9a79.7 79.7 0 01-98 56.6 79.7 79.7 0 01-56.6-98 79.7 79.7 0 0198-56.6 79.7 79.7 0 0156.6 98zm179.5-103.9a79.7 79.7 0 01-98 56.5 79.7 79.7 0 01-56.6-98 79.7 79.7 0 0198-56.5 79.7 79.7 0 0156.6 98zM437.3 436.5a79.7 79.7 0 01-98 56.5 79.7 79.7 0 01-56.6-98 79.7 79.7 0 0198-56.5 79.7 79.7 0 0156.6 98zm-360-207.9a79.7 79.7 0 01-98 56.5 79.7 79.7 0 01-56.5-98 79.7 79.7 0 0198-56.5 79.7 79.7 0 0156.5 98z"/>
    <circle cx="240" cy="415.7" r="80"/>
    <path d="M360 207.9L180 311.8M80 277.1l-40-69.2 40-69.3h80l40 69.3-40 69.2z"/>
    <circle cx="240" r="80"/>
    <path d="M200 69.3L160 0l40-69.3h80L320 0l-40 69.3z"/>
    <circle cx="480" r="80"/>
    <path d="M440 69.3L400 0l40-69.3h80L560 0l-40 69.3z"/>
    <circle cx="600" cy="207.9" r="80"/>
    <path d="M560 277.2l-40-69.3 40-69.3h80l40 69.3-40 69.3z"/>
    <circle cx="480" cy="415.8" r="80"/>
    <path d="M440 485l-40-69.2 40-69.3h80l40 69.3-40 69.2zm-160 0h-80l-40-69.3 40-69.3h80l40 69.3z"/>
    <circle cx="360" cy="207.9" r="80"/>
    <circle cx="360" cy="207.9" r="127.8"/>
    <path d="M360 287.9l-69.3-40v-80l69.3-40 69.3 40v80z"/>
    <circle cx="360" cy="287.9" r="111.8"/>
    <circle cx="429.3" cy="247.9" r="111.8"/>
    <circle cx="429.3" cy="167.9" r="111.8"/>
    <circle cx="360" cy="127.9" r="111.8"/>
    <circle cx="290.7" cy="247.9" r="111.8"/>
    <circle cx="290.7" cy="167.9" r="111.8"/>
    <circle cx="720" r="80"/>
    <circle cx="720" r="127.8"/>
    <path d="M720 80l-69.3-40v-80L720-80l69.3 40v80z"/>
    <circle cx="720" cy="80" r="111.8"/>
    <circle cx="789.3" cy="40" r="111.8"/>
    <circle cx="789.3" cy="-40" r="111.8"/>
    <circle cx="720" cy="-80" r="111.8"/>
    <circle cx="650.7" cy="40" r="111.8"/>
    <circle cx="650.7" cy="-40" r="111.8"/>
    <circle r="80"/>
    <circle r="127.8"/>
    <path d="M0 80l-69.3-40v-80L0-80l69.3 40v80z"/>
    <circle cy="80" r="111.8"/>
    <circle cx="69.3" cy="40" r="111.8"/>
    <circle cx="69.3" cy="-40" r="111.8"/>
    <circle cy="-80" r="111.8"/>
    <circle cx="-69.3" cy="40" r="111.8"/>
    <circle cx="-69.3" cy="-40" r="111.8"/>
    <g>
      <circle cy="415.7" r="80"/>
      <circle cy="415.7" r="127.8"/>
      <path d="M0 495.7l-69.3-40v-80l69.3-40 69.3 40v80z"/>
      <circle cy="495.7" r="111.8"/>
      <circle cx="69.3" cy="455.7" r="111.8"/>
      <circle cx="69.3" cy="375.7" r="111.8"/>
      <circle cy="335.7" r="111.8"/>
      <circle cx="-69.3" cy="455.7" r="111.8"/>
      <circle cx="-69.3" cy="375.7" r="111.8"/>
    </g>
    <g>
      <circle cx="719" cy="415.8" r="80"/>
      <circle cx="719" cy="415.8" r="127.8"/>
      <path d="M719 495.8l-69.3-40v-80l69.3-40 69.3 40v80z"/>
      <circle cx="719" cy="495.8" r="111.8"/>
      <circle cx="788.3" cy="455.8" r="111.8"/>
      <circle cx="788.3" cy="375.8" r="111.8"/>
      <circle cx="719" cy="335.8" r="111.8"/>
      <circle cx="649.7" cy="455.8" r="111.8"/>
      <circle cx="649.7" cy="375.8" r="111.8"/>
    </g>
    <path d="M-39.1-67.7l317.2 549.4m-317.2 1.8L279.1-67.7M-41.4-23.9l802.8 463.6m0-463.6L-41.4 439.7M360 483.5V-67.7m399.1 0L438.5 487.8m320.6-4.3L440.9-67.7m318.2 275.6H-39.1M499-32.9L221 448.6m0-481.5l278 481.5M720 0H0v415.7l719 .1z"/>
  </g>
</svg>
