<svg xmlns="http://www.w3.org/2000/svg" width="300.7" height="520.8" viewBox="0 0 300.7 520.8">
  <style>
    :root {
      --black: #443430;
      --red: #BF402B;
      --gold: #CEA600;
      --turquois: #4D9BA3;
      --emerald: #216554;
      --blue: #262F66;
      --white: #FFFAF2;
    }
    .shape-1{fill:var(--black)}
    .shape-2{fill:var(--red)}
    .shape-3{fill:var(--white)}
    <!-- .line{stroke:#fff;stroke-width:12px} -->
    .guides{ stroke: #4FFF4F; display: none; fill: none}
  </style>
  <g id="pattern" class="line">
    <g>
      <path class="shape-1" d="M150.318,388.722c12.207-8.422,26.131-14.525,41.132-17.714c-3.611-11.148-5.567-23.042-5.567-35.394
        c0-3.062,0.123-6.094,0.358-9.095c-13.69-6.523-25.881-15.682-35.923-26.815c-10.042,11.134-22.233,20.292-35.923,26.816
        c-0.017,0.008-0.033,0.015-0.05,0.023c0.233,2.988,0.356,6.01,0.356,9.061c0,12.352-1.956,24.245-5.567,35.393
        c15.001,3.189,28.926,9.293,41.132,17.715"/>
      <path class="shape-1" d="M114.753,185.298c0,3.061-0.123,6.093-0.358,9.094c13.69,6.524,25.881,15.682,35.923,26.816
        c10.042-11.134,22.233-20.292,35.923-26.816c-0.235-3-0.358-6.033-0.358-9.094c0-12.352,1.956-24.246,5.567-35.394
        c-15.001-3.189-28.925-9.292-41.132-17.714c-12.207,8.423-26.131,14.525-41.132,17.714
        C112.797,161.053,114.753,172.946,114.753,185.298z"/>
      <path class="shape-1" d="M264.71,66.167c0.235,3,0.358,6.032,0.358,9.094c0,12.352-1.956,24.245-5.567,35.393
        c15.001,3.189,28.926,9.292,41.132,17.715c14.883,10.27,27.217,23.964,35.872,39.944V65.982
        c-13.669-6.522-25.842-15.67-35.872-26.79C290.591,50.326,278.4,59.484,264.71,66.009"/>
      <path class="shape-1" d="M35.875,454.735"/>
      <path class="shape-1" d="M35.926,454.745"/>
      <path class="shape-1" d="M300.582,481.393c10.042-11.134,22.233-20.292,35.923-26.816c0,0.002,0,0.003,0,0.005v-101.98
        c-8.654,15.979-20.988,29.674-35.872,39.943c-12.207,8.423-26.131,14.525-41.132,17.715c3.611,11.147,5.567,23.041,5.567,35.393
        c0,3.015-0.122,6-0.35,8.954C278.384,461.128,290.554,470.275,300.582,481.393z"/>
      <path class="shape-1" d="M41.084,410.249c-15.001-3.189-28.925-9.292-41.132-17.715c0.006-0.005,0.013-0.01,0.019-0.014
        c-14.896-10.287-27.24-24.004-35.89-40.011v102.251c13.668,6.522,25.842,15.671,35.871,26.791
        c10.042-11.134,22.233-20.292,35.923-26.816c-0.235-3-0.358-6.032-0.358-9.094C35.517,433.29,37.473,421.396,41.084,410.249z"/>
      <path class="shape-1" d="M0.003,39.351c-10.042,11.134-22.233,20.292-35.923,26.816v102.236c8.657-16.019,21.011-29.745,35.923-40.034
        c12.207-8.423,26.131-14.525,41.132-17.714c-3.611-11.148-5.567-23.042-5.567-35.394c0-3.062,0.123-6.094,0.358-9.095
        C22.236,59.643,10.046,50.484,0.003,39.351z"/>
    </g>
    <path class="shape-2" d="M86.76,260.504c-0.014-0.016-0.029-0.031-0.043-0.048c0.014-0.017,0.029-0.032,0.043-0.049 c0.009-0.01,0.018-0.021,0.027-0.03c15.566-17.978,25.637-40.843,27.608-65.985c-14.938-7.118-31.654-11.107-49.304-11.107 c-7.393,0-14.619,0.708-21.622,2.043c-0.017,0.003-0.034,0.007-0.051,0.01c-0.013,0.002-0.026,0.005-0.039,0.007 c-0.005-0.016-0.011-0.031-0.017-0.047c-0.005-0.014-0.01-0.028-0.015-0.042c-8.075-23.278-23.431-43.147-43.345-56.888 c-19.915,13.741-35.271,33.61-43.345,56.888c-0.005,0.014-0.01,0.027-0.015,0.042c-0.005,0.016-0.011,0.031-0.017,0.047 c-0.013-0.002-0.026-0.005-0.039-0.007c-0.017-0.003-0.034-0.006-0.051-0.01c-7.003-1.335-14.229-2.043-21.622-2.043 c-17.65,0-34.366,3.989-49.304,11.107c1.971,25.142,12.042,48.006,27.608,65.984c0.009,0.011,0.018,0.021,0.027,0.031 c0.014,0.017,0.029,0.032,0.043,0.049c-0.014,0.017-0.029,0.032-0.043,0.049c-0.009,0.01-0.018,0.021-0.027,0.031 c-15.566,17.978-25.637,40.842-27.608,65.983c14.938,7.119,31.653,11.107,49.303,11.107c7.393,0,14.619-0.707,21.622-2.043 c0.018-0.003,0.034-0.007,0.052-0.01c0.013-0.003,0.025-0.005,0.039-0.008c0.005,0.017,0.011,0.032,0.017,0.048 c0.005,0.014,0.01,0.027,0.015,0.042c8.075,23.277,23.431,43.146,43.345,56.888c19.915-13.741,35.271-33.61,43.345-56.888 c0.004-0.015,0.01-0.028,0.015-0.042c0.005-0.016,0.011-0.031,0.017-0.048c0.013,0.003,0.026,0.005,0.039,0.008 c0.018,0.003,0.035,0.007,0.052,0.01c7.003,1.336,14.229,2.043,21.622,2.043c17.65,0,34.366-3.988,49.303-11.106 c-1.971-25.143-12.042-48.008-27.608-65.985C86.778,260.525,86.769,260.515,86.76,260.504z"/>
    <path class="shape-3" d="M150.318 132.19c-19.914-13.741-35.271-33.61-43.345-56.888-.041-.023-.081-.049-.122-.072-7.003 1.336-14.229 2.043-21.622 2.043-17.65 0-34.366-3.988-49.303-11.107-.235 3.001-.358 6.033-.358 9.095 0 12.352 1.956 24.245 5.567 35.394-15.001 3.189-28.925 9.292-41.132 17.714 19.915 13.741 35.271 33.61 43.345 56.888.041.023.081.048.121.071 7.003-1.335 14.229-2.043 21.622-2.043 17.65 0 34.366 3.989 49.304 11.107.235-3 .358-6.033.358-9.094 0-12.352-1.956-24.246-5.567-35.394C124.188 146.715 138.112 140.613 150.318 132.19zM300.633 392.544c-19.914-13.741-35.271-33.61-43.345-56.888-.041-.023-.081-.049-.122-.072-7.003 1.336-14.229 2.043-21.622 2.043-17.65 0-34.366-3.988-49.303-11.107-.235 3.001-.358 6.033-.358 9.095 0 12.352 1.956 24.245 5.567 35.394-15.001 3.188-28.925 9.292-41.132 17.714 19.915 13.742 35.271 33.611 43.345 56.889.041.023.081.048.121.071 7.003-1.335 14.229-2.043 21.622-2.043 17.65 0 34.366 3.989 49.304 11.106.235-3 .358-6.032.358-9.094 0-12.352-1.956-24.245-5.567-35.393C274.502 407.069 288.427 400.967 300.633 392.544z"/>
    <path class="shape-2" d="M237.075.15c-.014-.016-.029-.031-.043-.048.014-.017.029-.032.043-.049.009-.01.018-.021.027-.03 15.566-17.978 25.637-40.843 27.608-65.985-14.938-7.118-31.654-11.107-49.304-11.107-7.393 0-14.619.708-21.622 2.043-.017.003-.034.007-.051.01-.013.002-.026.005-.039.007-.005-.016-.011-.031-.017-.047-.005-.014-.01-.028-.015-.042-8.075-23.278-23.431-43.147-43.345-56.888-19.915 13.741-35.271 33.61-43.345 56.888-.005.014-.01.027-.015.042-.005.016-.011.031-.017.047-.013-.002-.026-.005-.039-.007-.017-.003-.034-.006-.051-.01-7.003-1.335-14.229-2.043-21.622-2.043-17.65 0-34.366 3.989-49.304 11.107C37.897-40.82 47.968-17.955 63.535.022c.009.011.018.021.027.031.014.017.029.032.043.049-.014.017-.029.032-.043.049-.009.01-.018.021-.027.031C47.968 18.16 37.898 41.024 35.927 66.166 50.864 73.285 67.58 77.273 85.23 77.273c7.393 0 14.619-.707 21.622-2.043.018-.003.034-.007.052-.01.013-.003.025-.005.039-.008.005.017.011.032.017.048.005.014.01.027.015.042 8.075 23.277 23.431 43.146 43.345 56.888 19.915-13.741 35.271-33.61 43.345-56.888.004-.015.01-.028.015-.042.005-.016.011-.031.017-.048.013.003.026.005.039.008.018.003.035.007.052.01 7.003 1.336 14.229 2.043 21.622 2.043 17.65 0 34.366-3.988 49.303-11.106-1.971-25.143-12.042-48.008-27.608-65.985C237.093.172 237.084.161 237.075.15zM237.075 520.856c-.014-.016-.029-.031-.043-.047.014-.018.029-.033.043-.049.009-.01.018-.021.027-.031 15.566-17.978 25.637-40.843 27.608-65.984-14.938-7.118-31.654-11.107-49.304-11.107-7.393 0-14.619.708-21.622 2.043-.017.004-.034.008-.051.01-.013.003-.026.006-.039.008-.005-.016-.011-.031-.017-.047-.005-.014-.01-.027-.015-.041-8.075-23.278-23.431-43.147-43.345-56.889-19.915 13.741-35.271 33.61-43.345 56.889-.005.014-.01.027-.015.041-.005.016-.011.031-.017.047-.013-.002-.026-.005-.039-.008-.017-.003-.034-.006-.051-.01-7.003-1.335-14.229-2.043-21.622-2.043-17.65 0-34.366 3.989-49.304 11.107 1.971 25.142 12.042 48.006 27.608 65.984.009.01.018.021.027.031.014.016.029.031.043.049-.014.016-.029.031-.043.049-.009.01-.018.02-.027.031-15.566 17.977-25.637 40.842-27.608 65.982 14.938 7.119 31.653 11.107 49.303 11.107 7.393 0 14.619-.707 21.622-2.043.018-.002.034-.006.052-.01.013-.002.025-.004.039-.008.005.018.011.033.017.049.005.014.01.027.015.041 8.075 23.277 23.431 43.146 43.345 56.889 19.915-13.742 35.271-33.611 43.345-56.889.004-.014.01-.027.015-.041.005-.016.011-.031.017-.049.013.004.026.006.039.008.018.004.035.008.052.01 7.003 1.336 14.229 2.043 21.622 2.043 17.65 0 34.366-3.988 49.303-11.105-1.971-25.143-12.042-48.008-27.608-65.986C237.093 520.878 237.084 520.868 237.075 520.856z"/>
    <path class="shape-3" d="M259.501 110.654c3.611-11.148 5.567-23.042 5.567-35.393 0-3.062-.123-6.094-.358-9.094-14.937 7.118-31.653 11.106-49.303 11.106-7.393 0-14.619-.707-21.622-2.043-.041.023-.081.049-.122.072-8.075 23.277-23.431 43.146-43.345 56.888 12.207 8.423 26.131 14.525 41.132 17.714-3.611 11.148-5.567 23.042-5.567 35.394 0 3.061.123 6.093.358 9.094 14.938-7.118 31.654-11.107 49.304-11.107 7.393 0 14.619.708 21.622 2.043.041-.023.081-.048.121-.071 8.075-23.278 23.431-43.147 43.345-56.888C288.427 119.946 274.502 113.843 259.501 110.654zM109.134 370.997c3.611-11.147 5.567-23.041 5.567-35.393 0-3.062-.123-6.094-.358-9.094-14.937 7.118-31.653 11.106-49.303 11.106-7.393 0-14.619-.707-21.622-2.043-.041.023-.081.049-.122.072-8.075 23.277-23.431 43.146-43.345 56.888 12.207 8.423 26.131 14.525 41.132 17.715-3.611 11.147-5.567 23.041-5.567 35.393 0 3.062.123 6.094.358 9.094 14.938-7.117 31.654-11.106 49.304-11.106 7.393 0 14.619.708 21.622 2.043.041-.023.081-.048.121-.071 8.075-23.277 23.431-43.146 43.345-56.889C138.06 380.29 124.136 374.187 109.134 370.997z"/>
    <path class="shape-3" d="M213.85 260.376c-15.566-17.978-25.637-40.842-27.608-65.984-13.69 6.524-25.881 15.682-35.923 26.816-10.042-11.134-22.233-20.292-35.923-26.816-1.971 25.142-12.042 48.007-27.608 65.985 0 .026.001.053.001.079s-.001.053-.001.079c15.566 17.978 25.637 40.843 27.608 65.985 13.69-6.524 25.881-15.683 35.923-26.816 10.042 11.134 22.233 20.292 35.923 26.815 1.971-25.142 12.042-48.006 27.608-65.983 0-.027-.001-.054-.001-.08S213.85 260.403 213.85 260.376zM63.535.022C47.968-17.955 37.897-40.82 35.926-65.961c-13.69 6.524-25.881 15.682-35.923 26.816-10.042-11.134-22.233-20.292-35.923-26.816C-37.891-40.82-47.961-17.955-63.528.023c0 .026.001.053.001.079s-.001.053-.001.079c15.566 17.978 25.637 40.843 27.608 65.985 13.69-6.524 25.881-15.683 35.923-26.816 10.042 11.134 22.233 20.292 35.923 26.815C37.898 41.024 47.968 18.16 63.535.183c0-.027-.001-.054-.001-.08S63.535.05 63.535.022zM364.165-.136c-15.566-17.978-25.637-40.842-27.608-65.984-13.69 6.524-25.881 15.682-35.923 26.816C290.591-50.438 278.4-59.596 264.71-66.12c-1.971 25.142-12.042 48.007-27.608 65.985 0 .026.001.053.001.079s-.001.053-.001.079c15.566 17.978 25.637 40.843 27.608 65.985 13.69-6.524 25.881-15.683 35.923-26.816 10.042 11.134 22.233 20.292 35.923 26.815 1.971-25.142 12.042-48.006 27.608-65.983 0-.027-.001-.054-.001-.08S364.165-.108 364.165-.136zM63.483 520.72c-15.566-17.978-25.637-40.842-27.608-65.984-13.69 6.524-25.881 15.683-35.923 26.816-10.042-11.134-22.233-20.292-35.923-26.816-1.971 25.143-12.042 48.008-27.608 65.985 0 .026.001.053.001.079s-.001.053-.001.079c15.566 17.978 25.637 40.843 27.608 65.985 13.69-6.524 25.881-15.683 35.923-26.816 10.042 11.134 22.233 20.292 35.923 26.815 1.971-25.142 12.042-48.006 27.608-65.983 0-.027-.001-.054-.001-.08S63.483 520.747 63.483 520.72zM364.113 520.561c-15.566-17.978-25.637-40.842-27.608-65.984-13.69 6.524-25.881 15.683-35.923 26.816-10.042-11.134-22.233-20.292-35.923-26.816-1.971 25.143-12.042 48.008-27.608 65.985 0 .026.001.053.001.079s-.001.053-.001.079c15.566 17.978 25.637 40.843 27.608 65.985 13.69-6.524 25.881-15.683 35.923-26.816 10.042 11.134 22.233 20.292 35.923 26.815 1.971-25.142 12.042-48.006 27.608-65.983 0-.027-.001-.054-.001-.08S364.113 520.588 364.113 520.561z"/>
    <path class="shape-2" d="M387.39,260.504c-0.014-0.016-0.029-0.031-0.043-0.048c0.014-0.017,0.029-0.032,0.043-0.049 c0.009-0.01,0.018-0.021,0.027-0.03c15.566-17.978,25.637-40.843,27.608-65.985c-14.938-7.118-31.654-11.107-49.304-11.107 c-7.393,0-14.619,0.708-21.622,2.043c-0.017,0.003-0.034,0.007-0.051,0.01c-0.013,0.002-0.026,0.005-0.039,0.007 c-0.005-0.016-0.011-0.031-0.017-0.047c-0.005-0.014-0.01-0.028-0.015-0.042c-8.075-23.278-23.431-43.147-43.345-56.888 c-19.915,13.741-35.271,33.61-43.345,56.888c-0.005,0.014-0.01,0.027-0.015,0.042c-0.005,0.016-0.011,0.031-0.017,0.047 c-0.013-0.002-0.026-0.005-0.039-0.007c-0.017-0.003-0.034-0.006-0.051-0.01c-7.003-1.335-14.229-2.043-21.622-2.043 c-17.65,0-34.366,3.989-49.304,11.107c1.971,25.142,12.042,48.006,27.608,65.984c0.009,0.011,0.018,0.021,0.027,0.031 c0.014,0.017,0.029,0.032,0.043,0.049c-0.014,0.017-0.029,0.032-0.043,0.049c-0.009,0.01-0.018,0.021-0.027,0.031 c-15.566,17.978-25.637,40.842-27.608,65.983c14.938,7.119,31.653,11.107,49.303,11.107c7.393,0,14.619-0.707,21.622-2.043 c0.018-0.003,0.034-0.007,0.052-0.01c0.013-0.003,0.025-0.005,0.039-0.008c0.005,0.017,0.011,0.032,0.017,0.048 c0.005,0.014,0.01,0.027,0.015,0.042c8.075,23.277,23.431,43.146,43.345,56.888c19.915-13.741,35.271-33.61,43.345-56.888 c0.004-0.015,0.01-0.028,0.015-0.042c0.005-0.016,0.011-0.031,0.017-0.048c0.013,0.003,0.026,0.005,0.039,0.008 c0.018,0.003,0.035,0.007,0.052,0.01c7.003,1.336,14.229,2.043,21.622,2.043c17.65,0,34.366-3.988,49.303-11.106 c-1.971-25.143-12.042-48.008-27.608-65.985C387.408,260.525,387.399,260.515,387.39,260.504z"/>
  </g>
  <g class="guides">
    <path d="M0 260.5L75.2 130.3 150.3.1 225.5 130.3 300.6 260.5 150.3 260.5zM150.3.1L150.3 520.7"/>
    <path class="st1" d="M-114.4 326.5L336.6 66M-35.9 66.2L415 326.5"/>
    <circle cx="85.2" cy="-37.5" r="114.8"/>
    <circle cx="150.3" cy="-75.1" r="114.8"/>
    <circle cx="215.4" cy="-37.5" r="114.8"/>
    <circle cx="215.4" cy="37.7" r="114.8"/>
    <circle cx="150.3" cy="75.3" r="114.8"/>
    <circle cx="85.2" cy="37.7" r="114.8"/>
    <circle cx="150.3" cy=".1" r="86.8"/>
    <path d="M106.9 75.3L85.2 37.7 63.5 0.1 85.2 -37.5 106.9 -75.1 150.3 -75.1 193.7 -75.1 215.4 -37.5 237.1 0.1 215.4 37.7 193.7 75.3 150.3 75.3z"/>
    <circle cx="85.2" cy="483.2" r="114.8"/>
    <circle cx="150.3" cy="445.7" r="114.8"/>
    <circle cx="215.4" cy="483.2" r="114.8"/>
    <circle cx="215.4" cy="558.4" r="114.8"/>
    <circle cx="150.3" cy="596" r="114.8"/>
    <circle cx="85.2" cy="558.4" r="114.8"/>
    <circle cx="150.3" cy="520.8" r="86.8"/>
    <path d="M106.9 596L85.2 558.4 63.5 520.8 85.2 483.2 106.9 445.7 150.3 445.7 193.7 445.7 215.4 483.2 237.1 520.8 215.4 558.4 193.7 596 150.3 596z"/>
    <circle cx="235.5" cy="222.9" r="114.8"/>
    <circle cx="300.6" cy="185.3" r="114.8"/>
    <circle cx="365.7" cy="222.9" r="114.8"/>
    <circle cx="365.7" cy="298" r="114.8"/>
    <circle cx="300.6" cy="335.6" r="114.8"/>
    <circle cx="235.5" cy="298" r="114.8"/>
    <circle cx="300.6" cy="260.5" r="86.8"/>
    <path d="M257.2 335.6L235.5 298 213.8 260.5 235.5 222.9 257.2 185.3 300.6 185.3 344 185.3 365.7 222.9 387.4 260.5 365.7 298 344 335.6 300.6 335.6z"/>
    <circle cx="-65.1" cy="222.9" r="114.8"/>
    <circle cy="185.3" r="114.8"/>
    <circle cx="65.1" cy="222.9" r="114.8"/>
    <circle cx="65.1" cy="298" r="114.8"/>
    <circle cy="335.6" r="114.8"/>
    <circle cx="-65.1" cy="298" r="114.8"/>
    <circle cy="260.5" r="86.8"/>
    <path d="M-43.4 335.6L-65.1 298 -86.8 260.5 -65.1 222.9 -43.4 185.3 0 185.3 43.4 185.3 65.1 222.9 86.8 260.5 65.1 298 43.4 335.6 0 335.6z"/>
    <path class="st1" d="M415 194.4L-36 454.7M-114.4 194.4L336.5 454.6M0 86.8L150.3.1M150.3.1L300.6 86.6"/>
    <path d="M-0.6 262.2L150.3 520.7 300.6 260.5"/>
    <path d="M0 434L150.3 520.7 300.6 433.9M0-39.1L0 560M-63.6 520.9L364.1 520.7M300.6 559.9L300.6-39.3M364.2-.1L-63.5 0"/>
  </g>
</svg>
