<svg xmlns="http://www.w3.org/2000/svg" width="300" height="519.6">
  <style>
    :root {
      --golden: #907A58;
      --darkBlue: #475387;
      --beige: #DFD8CC;
      --teal: #4A9AC4;
      --gray: #A49DA0;
      --smaragd: #406A72;
      --sand: #D3BDA7;
      --grayGreen: #A2D1D6;
      --blueGray: #758390;
      --lightBrown: #AA8858;
      --blue1: #8EC5EE;
      --blue2: #8CC6EA;
      --blue3: #B6DAEC;
      --rust: #D8692D;
      --yellow: #F8C346;
    }
    .shape-1{fill:var(--darkBlue)}
    .shape-2{fill:var(--grayGreen)}
    .shape-3{fill:var(--teal)}
    .shape-4{fill:var(--golden)}
    .shape-5{fill:var(--gray)}
    .shape-6{fill:var(--blue3)}
    .shape-7{fill:var(--yellow)}
    .shape-8{fill:var(--blue1)}
    .shape-9{fill:var(--smaragd)}
    .shape-10{fill:var(--rust)}
    .line{stroke:#fff;stroke-width:3px}
    .guides{ stroke: #4FFF4F; display: none; fill: none}

  </style>
  <g id="pattern" class="line">
    <path class="shape-1" d="M-21.7 -11.2H321.6V530.8H-21.7z"/>
    <path class="shape-2" d="M150 458L128.3 445.5 128.3 420.5 150 408 171.6 420.5 171.6 445.5zM171.6 99.1L150 111.6 128.3 99.1 128.3 74.1 150 61.6 171.6 74.1zM300 198.2L278.3 185.7 278.3 160.7 300 148.2 321.6 160.7 321.6 185.7zM321.6 358.9L300 371.4 278.3 358.9 278.3 333.9 300 321.4 321.6 333.9zM0 198.2L-21.7 185.7-21.7 160.7 0 148.2 21.6 160.7 21.6 185.7zM21.6 358.9L0 371.4-21.7 358.9-21.7 333.9 0 321.4 21.6 333.9z"/>
    <path class="shape-3" d="M150 458L138.8 464.5 138.8 500.2 119.4 489 108.2 508.4 138.8 508.4 150 519.6 161.2 508.4 191.8 508.4 180.6 489 161.2 500.2 161.2 464.5zM171.6 420.5L182.8 427 213.8 409.1 213.8 431.5 236.2 431.5 220.9 405 225 389.7 209.7 385.6 194.4 359.1 183.2 378.5 202.6 389.7 171.6 407.6zM128.3 420.5L128.4 407.6 97.4 389.7 116.8 378.5 105.6 359.1 90.3 385.6 75 389.7 79.1 405 63.8 431.5 86.2 431.5 86.2 409.1 117.2 427zM171.6 99.1L171.6 112 202.6 129.9 183.2 141.1 194.4 160.5 209.7 134 225 129.9 220.9 114.6 236.2 88.1 213.8 88.1 213.8 110.5 182.8 92.6zM150 61.6L161.2 55.1 161.2 19.4 180.6 30.6 191.8 11.2 161.2 11.2 150 0 138.8 11.2 108.2 11.2 119.4 30.6 138.8 19.4 138.8 55.1zM128.3 99.1L117.2 92.6 86.2 110.5 86.2 88.1 63.8 88.1 79.1 114.6 75 129.9 90.3 134 105.6 160.5 116.8 141.1 97.4 129.9 128.4 112zM300 198.2L288.8 204.7 288.8 240.4 269.4 229.2 258.2 248.6 288.8 248.6 300 259.8 311.2 248.6 341.8 248.6 330.6 229.2 311.2 240.4 311.2 204.7zM278.3 160.7L278.4 147.8 247.4 129.9 266.8 118.7 255.6 99.3 240.3 125.8 225 129.9 229.1 145.2 213.8 171.7 236.2 171.7 236.2 149.3 267.2 167.2zM300 321.4L311.2 315 311.2 279.2 330.6 290.4 341.8 271 311.2 271 300 259.8 288.8 271 258.2 271 269.4 290.4 288.8 279.2 288.8 315zM278.3 358.9L267.2 352.4 236.2 370.3 236.2 347.9 213.8 347.9 229.1 374.4 225 389.7 240.3 393.8 255.6 420.3 266.8 400.9 247.4 389.7 278.4 371.8zM0 198.2L-11.2 204.7-11.2 240.4-30.6 229.2-41.8 248.6-11.2 248.6 0 259.8 11.2 248.6 41.8 248.6 30.6 229.2 11.2 240.4 11.2 204.7zM21.6 160.7L32.8 167.2 63.8 149.3 63.8 171.7 86.2 171.7 70.9 145.2 75 129.9 59.7 125.8 44.4 99.3 33.2 118.7 52.6 129.9 21.6 147.8zM21.6 358.9L21.6 371.8 52.6 389.7 33.2 400.9 44.4 420.3 59.7 393.8 75 389.7 70.9 374.4 86.2 347.9 63.8 347.9 63.8 370.3 32.8 352.4zM0 321.4L11.2 315 11.2 279.2 30.6 290.4 41.8 271 11.2 271 0 259.8-11.2 271-41.8 271-30.6 290.4-11.2 279.2-11.2 315z"/>
    <g>
      <path class="shape-4" d="M128.3 445.5L128.3 420.5 117.2 427 86.2 409.1 86.2 431.5 108.6 431.5 86.6 469.6 86.6 469.6 86.6 469.6 86.6 469.6 86.6 469.6 130.6 469.6 119.4 489 138.8 500.2 138.8 464.5 150 458zM171.6 445.5L150 458 161.2 464.5 161.2 500.2 180.6 489 169.4 469.6 213.4 469.6 213.4 469.6 213.4 469.6 213.4 469.6 213.4 469.6 191.4 431.5 213.8 431.5 213.8 409.1 182.8 427 171.6 420.5zM150 408L171.6 420.5 171.6 407.6 202.6 389.7 183.2 378.5 172 397.9 150 359.8 150 359.8 150 359.8 150 359.8 150 359.8 128 397.9 116.8 378.5 97.4 389.7 128.4 407.6 128.3 420.5zM150 111.6L128.3 99.1 128.4 112 97.4 129.9 116.8 141.1 128 121.7 150 159.8 150 159.8 150 159.8 150 159.8 150 159.8 172 121.7 183.2 141.1 202.6 129.9 171.6 112 171.6 99.1zM171.6 74.1L171.6 99.1 182.8 92.6 213.8 110.5 213.8 88.1 191.4 88.1 213.4 50 213.4 50 213.4 50 213.4 50 213.4 50 169.4 50 180.6 30.6 161.2 19.4 161.2 55.1 150 61.6zM128.3 74.1L150 61.6 138.8 55.1 138.8 19.4 119.4 30.6 130.6 50 86.6 50 86.6 50 86.6 50 86.6 50 86.6 50 108.6 88.1 86.2 88.1 86.2 110.5 117.2 92.6 128.3 99.1zM278.3 185.7L278.3 160.7 267.2 167.2 236.2 149.3 236.2 171.7 258.6 171.7 236.6 209.8 236.6 209.8 236.6 209.8 236.6 209.8 236.6 209.8 280.6 209.8 269.4 229.2 288.8 240.4 288.8 204.7 300 198.2zM300 148.2L321.6 160.7 321.6 147.8 352.6 129.9 333.2 118.7 322 138.1 300 100 300 100 300 100 300 100 300 100 278 138.1 266.8 118.7 247.4 129.9 278.4 147.8 278.3 160.7zM300 371.4L278.3 358.9 278.4 371.8 247.4 389.7 266.8 400.9 278 381.5 300 419.6 300 419.6 300 419.6 300 419.6 300 419.6 322 381.5 333.2 400.9 352.6 389.7 321.6 371.8 321.6 358.9zM278.3 333.9L300 321.4 288.8 315 288.8 279.2 269.4 290.4 280.6 309.8 236.6 309.8 236.6 309.8 236.6 309.8 236.6 309.8 236.6 309.8 258.6 347.9 236.2 347.9 236.2 370.3 267.2 352.4 278.3 358.9zM21.6 185.7L0 198.2 11.2 204.7 11.2 240.4 30.6 229.2 19.4 209.8 63.4 209.8 63.4 209.8 63.4 209.8 63.4 209.8 63.4 209.8 41.4 171.7 63.8 171.7 63.8 149.3 32.8 167.2 21.6 160.7zM0 148.2L21.6 160.7 21.6 147.8 52.6 129.9 33.2 118.7 22 138.1 0 100 0 100 0 100 0 100 0 100-22 138.1-33.2 118.7-52.6 129.9-21.6 147.8-21.6 160.7zM0 371.4L-21.7 358.9-21.6 371.8-52.6 389.7-33.2 400.9-22 381.5 0 419.6 0 419.6 0 419.6 0 419.6 0 419.6 22 381.5 33.2 400.9 52.6 389.7 21.6 371.8 21.6 358.9zM21.6 333.9L21.6 358.9 32.8 352.4 63.8 370.3 63.8 347.9 41.4 347.9 63.4 309.8 63.4 309.8 63.4 309.8 63.4 309.8 63.4 309.8 19.4 309.8 30.6 290.4 11.2 279.2 11.2 315 0 321.4z"/>
    </g>
    <g>
      <path class="shape-5" d="M130.6 469.6L86.6 469.6 65.5 506.2 88.7 519.6 100 513.1 100 477.8 119.4 489zM108.6 431.5L86.6 469.6 44.3 469.6 44.3 442.8 55.6 436.3 86.2 453.9 86.2 431.5zM191.4 431.5L213.4 469.6 255.7 469.6 255.7 442.8 244.4 436.3 213.8 453.9 213.8 431.5zM169.4 469.6L213.4 469.6 234.5 506.2 211.3 519.6 200 513.1 200 477.8 180.6 489zM128 397.9L150 359.8 128.9 323.2 105.6 336.6 105.6 349.6 136.2 367.3 116.8 378.5zM172 397.9L150 359.8 171.1 323.2 194.4 336.6 194.4 349.6 163.8 367.3 183.2 378.5zM172 121.7L150 159.8 171.1 196.4 194.4 183 194.4 170 163.8 152.3 183.2 141.1zM128 121.7L150 159.8 128.9 196.4 105.6 183 105.6 170 136.2 152.3 116.8 141.1zM169.4 50L213.4 50 234.5 13.4 211.3 0 200 6.5 200 41.8 180.6 30.6zM191.4 88.1L213.4 50 255.7 50 255.7 76.9 244.4 83.4 213.8 65.7 213.8 88.1zM108.6 88.1L86.6 50 44.3 50 44.3 76.9 55.6 83.4 86.2 65.7 86.2 88.1zM130.6 50L86.6 50 65.5 13.4 88.7 0 100 6.5 100 41.8 119.4 30.6zM280.6 209.8L236.6 209.8 215.5 246.4 238.7 259.8 250 253.3 250 218 269.4 229.2z"/>
      <path class="shape-5" d="M258.6 171.7L236.6 209.8 194.3 209.8 194.3 183 205.6 176.5 236.2 194.1 236.2 171.7zM278 138.1L300 100 278.9 63.4 255.6 76.8 255.6 89.8 286.2 107.5 266.8 118.7zM278 381.5L300 419.6 278.9 456.2 255.6 442.8 255.6 429.8 286.2 412.1 266.8 400.9zM258.6 347.9L236.6 309.8 194.3 309.8 194.3 336.7 205.6 343.2 236.2 325.5 236.2 347.9zM280.6 309.8L236.6 309.8 215.5 273.2 238.7 259.8 250 266.3 250 301.6 269.4 290.4zM41.4 171.7L63.4 209.8 105.7 209.8 105.7 182.9 94.4 176.4 63.8 194.1 63.8 171.7zM19.4 209.8L63.4 209.8 84.5 246.4 61.3 259.8 50 253.3 50 218 30.6 229.2zM22 138.1L0 100 21.1 63.4 44.4 76.8 44.4 89.8 13.8 107.5 33.2 118.7zM22 381.5L0 419.6 21.1 456.2 44.4 442.8 44.4 429.8 13.8 412.1 33.2 400.9zM19.4 309.8L63.4 309.8 84.5 273.2 61.3 259.8 50 266.3 50 301.6 30.6 290.4zM41.4 347.9L63.4 309.8 105.7 309.8 105.7 336.7 94.4 343.2 63.8 325.5 63.8 347.9z"/>
    </g>
    <g>
      <path class="shape-6" d="M31.9 486.8L44.4 494 44.3 508.4 19.4 508.4zM255.7 508.4L255.7 494 268.1 486.8 280.6 508.4zM162.5 303.8L150 311 137.5 303.8 150 282.2zM137.5 215.8L150 208.6 162.5 215.8 150 237.4zM268.1 32.8L255.6 25.6 255.7 11.2 280.6 11.2zM44.3 11.2L44.3 25.6 31.9 32.8 19.4 11.2zM181.9 227L194.4 234.2 194.3 248.6 169.4 248.6zM312.5 44L300 51.2 287.5 44 300 22.4zM287.5 475.6L300 468.4 312.5 475.6 300 497.2zM194.3 271L194.3 285.4 181.9 292.6 169.4 271zM105.7 248.6L105.7 234.2 118.1 227 130.6 248.6zM12.5 44L0 51.2-12.5 44 0 22.4zM-12.5 475.6L0 468.4 12.5 475.6 0 497.2zM118.1 292.6L105.6 285.4 105.7 271 130.6 271z"/>
    </g>
    <g>
      <path class="shape-7" d="M44.3 469.6L86.6 469.6 65.5 506.2 44.4 494zM234.5 506.2L213.4 469.6 255.7 469.6 255.7 494zM171.1 323.2L150 359.8 128.9 323.2 150 311zM128.9 196.4L150 159.8 171.1 196.4 150 208.6zM255.7 50L213.4 50 234.5 13.4 255.6 25.6zM65.5 13.4L86.6 50 44.3 50 44.3 25.6zM194.3 209.8L236.6 209.8 215.5 246.4 194.4 234.2zM321.1 63.4L300 100 278.9 63.4 300 51.2zM278.9 456.2L300 419.6 321.1 456.2 300 468.4zM215.5 273.2L236.6 309.8 194.3 309.8 194.3 285.4zM84.5 246.4L63.4 209.8 105.7 209.8 105.7 234.2zM21.1 63.4L0 100-21.1 63.4 0 51.2zM-21.1 456.2L0 419.6 21.1 456.2 0 468.4zM105.7 309.8L63.4 309.8 84.5 273.2 105.6 285.4z"/>
    </g>
    <g>
      <path class="shape-8" d="M215.5 246.4L194.4 234.2 194.3 248.6 169.4 248.6 162.9 259.8 169.4 271 194.3 271 194.3 285.4 215.5 273.2 207.7 259.8z"/>
      <path class="shape-8" d="M171.1 196.4L150 208.6 162.5 215.8 150 237.4 156.5 248.6 169.4 248.6 181.9 227 194.4 234.2 194.3 209.8 178.9 209.8zM21.1 456.2L0 468.4 12.5 475.6 0 497.2 6.5 508.4 19.4 508.4 31.9 486.8 44.4 494 44.3 469.6 28.9 469.6zM105.7 209.8L105.7 234.2 118.1 227 130.6 248.6 143.5 248.6 150 237.4 137.5 215.8 150 208.6 128.9 196.4 121.1 209.8zM255.7 469.6L255.7 494 268.1 486.8 280.6 508.4 293.5 508.4 300 497.2 287.5 475.6 300 468.4 278.9 456.2 271.1 469.6zM84.5 273.2L105.6 285.4 105.7 271 130.6 271 137.1 259.8 130.6 248.6 105.6 248.6 105.6 234.2 84.5 246.4 92.3 259.8z"/>
      <path class="shape-8" d="M128.9 323.2L150 311 137.5 303.8 150 282.2 143.5 271 130.6 271 118.1 292.6 105.6 285.4 105.7 309.8 121.1 309.8zM278.9 63.4L300 51.2 287.5 44 300 22.4 293.5 11.2 280.6 11.2 268.1 32.8 255.6 25.6 255.7 50 271.1 50zM194.3 309.8L194.3 285.4 181.9 292.6 169.4 271 156.5 271 150 282.2 162.5 303.8 150 311 171.1 323.2 178.9 309.8zM44.3 50L44.3 25.6 31.9 32.8 19.4 11.2 6.5 11.2 0 22.4 12.5 44 0 51.2 21.1 63.4 28.9 50z"/>
    </g>
    <g>
      <path class="shape-9" d="M300 259.8L288.8 248.6 258.2 248.6 269.4 229.2 250 218 250 253.3 238.8 259.8 250 266.3 250 301.6 269.4 290.4 258.2 271 288.8 271zM225 129.9L209.7 134 194.4 160.5 183.2 141.1 163.8 152.3 194.4 170 194.4 182.9 205.6 176.5 236.2 194.1 236.2 171.7 213.8 171.7 229.1 145.2zM75 389.7L59.7 393.8 44.4 420.3 33.2 400.9 13.8 412.1 44.4 429.8 44.4 442.7 55.6 436.3 86.2 453.9 86.2 431.5 63.8 431.5 79.1 405zM75 129.9L70.9 145.2 86.2 171.7 63.8 171.7 63.8 194.1 94.4 176.4 105.6 182.9 105.6 170 136.2 152.3 116.8 141.1 105.6 160.5 90.3 134zM225 389.7L220.9 405 236.2 431.5 213.8 431.5 213.8 453.9 244.4 436.3 255.6 442.7 255.6 429.8 286.2 412.1 266.8 400.9 255.6 420.3 240.3 393.8zM0 259.8L11.2 271 41.8 271 30.6 290.4 50 301.6 50 266.3 61.2 259.8 50 253.3 50 218 30.6 229.2 41.8 248.6 11.2 248.6zM75 389.7L90.3 385.6 105.6 359.1 116.8 378.5 136.2 367.3 105.6 349.6 105.6 336.7 94.4 343.2 63.8 325.5 63.8 347.9 86.2 347.9 70.9 374.4zM225 129.9L240.3 125.8 255.6 99.3 266.8 118.7 286.2 107.5 255.6 89.8 255.6 76.9 244.4 83.4 213.8 65.7 213.8 88.1 236.2 88.1 220.9 114.6zM225 389.7L229.1 374.4 213.8 347.9 236.2 347.9 236.2 325.5 205.6 343.2 194.4 336.7 194.4 349.6 163.8 367.3 183.2 378.5 194.4 359.1 209.7 385.6zM75 129.9L79.1 114.6 63.8 88.1 86.2 88.1 86.2 65.7 55.6 83.4 44.4 76.9 44.4 89.8 13.8 107.5 33.2 118.7 44.4 99.3 59.7 125.8z"/>
    </g>
    <g>
      <path class="shape-10" d="M211.3 0L234.5 13.4 242.3 0M238.7 259.8L238.7 259.8 238.7 259.8 215.5 246.4 207.7 259.8 215.5 273.2 238.7 259.8 238.7 259.8z"/>
      <path class="shape-8" d="M65.5 -13.4L44.4 -25.6 44.3 -11.2 19.4 -11.2 12.9 0 19.4 11.2 44.3 11.2 44.3 25.6 65.5 13.4 57.7 0z"/>
      <path class="shape-9" d="M150 0L138.8 -11.2 108.2 -11.2 119.4 -30.6 100 -41.8 100 -6.5 88.8 0 100 6.5 100 41.8 119.4 30.6 108.2 11.2 138.8 11.2z"/>
      <path class="shape-10" d="M88.7 0L88.7 0 88.7 0 65.5-13.4 57.7 0 65.5 13.4 88.7 0 88.7 0zM194.3 183L194.3 183 194.3 183 171.1 196.4 178.9 209.8 194.3 209.8 194.3 183 194.3 183zM44.3 442.8L44.3 442.8 44.3 442.8 21.1 456.2 28.9 469.6 44.3 469.6 44.3 442.8 44.3 442.8zM105.7 183L105.6 183 105.7 183 105.7 209.8 121.1 209.8 128.9 196.4 105.7 183 105.7 183zM255.7 442.8L255.7 442.8 255.7 442.8 255.7 469.6 271.1 469.6 278.9 456.2 255.7 442.8 255.7 442.8zM61.3 259.8L61.3 259.8 61.3 259.8 84.5 273.2 92.3 259.8 84.5 246.4 61.3 259.8 61.3 259.8z"/>
      <path class="shape-8" d="M234.5 13.4L255.6 25.6 255.7 11.2 280.6 11.2 287.1 0 280.6 -11.2 255.6 -11.2 255.6 -25.6 234.5 -13.4 242.3 0z"/>
      <path class="shape-9" d="M150 0L161.2 11.2 191.8 11.2 180.6 30.6 200 41.8 200 6.5 211.2 0 200 -6.5 200 -41.8 180.6 -30.6 191.8 -11.2 161.2 -11.2z"/>
      <path class="shape-10" d="M211.3 0L211.3 0 211.3 0 234.5 13.4 242.3 0 234.5 -13.4 211.3 0 211.3 0z"/>
      <path class="shape-8" d="M65.5 506.2L44.4 494 44.3 508.4 19.4 508.4 12.9 519.6 19.4 530.8 44.3 530.8 44.3 545.2 65.5 533 57.7 519.6z"/>
      <path class="shape-9" d="M150 519.6L138.8 508.4 108.2 508.4 119.4 489 100 477.8 100 513.1 88.8 519.6 100 526.1 100 561.4 119.4 550.2 108.2 530.8 138.8 530.8z"/>
      <path class="shape-10" d="M88.7 519.6L88.7 519.6 88.7 519.6 65.5 506.2 57.7 519.6 65.5 533 88.7 519.6 88.7 519.6z"/>
      <path class="shape-8" d="M234.5 533L255.6 545.2 255.7 530.8 280.6 530.8 287.1 519.6 280.6 508.4 255.7 508.4 255.7 494 234.5 506.2 242.3 519.6z"/>
      <path class="shape-9" d="M150 519.6L161.2 530.8 191.8 530.8 180.6 550.2 200 561.4 200 526.1 211.2 519.6 200 513.1 200 477.8 180.6 489 191.8 508.4 161.2 508.4z"/>
      <path class="shape-10" d="M211.3 519.6L211.3 519.6 211.3 519.6 234.5 533 242.3 519.6 234.5 506.2 211.3 519.6 211.3 519.6zM105.7 336.6L105.7 336.6 105.7 336.6 128.9 323.2 121.1 309.8 105.7 309.8 105.7 336.6 105.7 336.6zM255.7 76.8L255.7 76.8 255.7 76.8 278.9 63.4 271.1 50 255.7 50 255.7 76.8 255.7 76.8zM194.3 336.6L194.3 336.6 194.3 336.6 194.3 309.8 178.9 309.8 171.1 323.2 194.3 336.6 194.3 336.6zM44.3 76.8L44.3 76.8 44.3 76.8 44.3 50 28.9 50 21.1 63.4 44.3 76.8 44.3 76.8z"/>
    </g>
  </g>
  <g class="guides">
    <path d="M0 519.6L75 389.7 150 259.8 225 389.7 300 519.6 150 519.6zM300 519.6L75 389.7M150 259.8L150 519.6M0 519.6L225 389.7"/>
    <circle cx="150" cy="433" r="25"/>
    <path d="M150 458L128.4 445.5 128.4 420.5 150 408 171.6 420.5 171.6 445.5z"/>
    <g>
      <circle cy="519.6" r="100"/>
      <circle cx="150" cy="519.6" r="43.3"/>
      <path d="M150 562.9L119.4 550.2 106.7 519.6 119.4 489 150 476.3 180.6 489 193.3 519.6 180.6 550.2zM161.2 464.5L150 458M150 458L138.8 464.5M130.6 469.6L101.7 519.6M169.4 469.6L198.3 519.6M6.5 508.4L293.5 508.4M150 519.6L138.8 508.4M150 519.6L161.2 508.4M138.8 519.6L138.8 464.5M161.2 519.6L161.2 464.5M86.6 469.6L213.4 469.6"/>
      <circle cx="119.4" cy="489" r="22.4"/>
      <circle cx="180.6" cy="489" r="22.4"/>
      <path d="M88.7 519.6L108.2 508.4M88.7 519.6L22.2 481.2"/>
    </g>
    <g>
      <circle cx="300" cy="519.6" r="100"/>
      <circle cx="225" cy="389.7" r="43.3"/>
      <path d="M262.5 368.1L266.8 400.9 246.6 427.2 213.8 431.5 187.5 411.4 183.2 378.5 203.3 352.2 236.2 347.9zM171.6 407.6L171.6 420.5M171.7 420.5L182.8 427M191.4 431.5L249.1 431.5M172 397.9L200.8 347.9M287.1 519.6L143.5 271M225 389.7L220.9 405M225 389.7L209.7 385.6M230.6 399.4L182.8 427M219.4 380L171.6 407.6M213.4 469.6L150 359.8"/>
      <circle cx="213.8" cy="431.5" r="22.4"/>
      <circle cx="183.2" cy="378.5" r="22.4"/>
      <path d="M255.7 442.8L236.2 431.5M255.7 442.8L255.7 519.6"/>
    </g>
    <g>
      <circle cx="150" cy="259.8" r="100"/>
      <circle cx="75" cy="389.7" r="43.3"/>
      <path d="M37.5 368.1L63.8 347.9 96.6 352.2 116.8 378.5 112.5 411.4 86.2 431.5 53.3 427.2 33.2 400.9zM117.2 427L128.4 420.5M128.4 420.5L128.4 407.6M128 397.9L99.1 347.9M108.6 431.5L50.8 431.5M156.4 271L12.9 519.6M75 389.7L90.3 385.6M75 389.7L79.1 405M80.6 380L128.4 407.6M69.4 399.4L117.2 427M150 359.8L86.6 469.6"/>
      <circle cx="116.8" cy="378.5" r="22.4"/>
      <circle cx="86.2" cy="431.5" r="22.4"/>
      <path d="M105.6 336.6L105.6 359.1M105.7 336.6L172.2 298.2"/>
    </g>
    <g>
      <path d="M450 259.8L225 389.7M150 259.8L375 389.7M300 519.6L300 259.8"/>
      <circle cx="300" cy="346.4" r="25"/>
      <path d="M321.6 358.9L300 371.4 278.4 358.9 278.4 333.9 300 321.4 321.6 333.9z"/>
      <g>
        <path d="M332.8 352.4L321.6 358.9M321.6 358.9L321.6 371.8M322 381.6L350.8 431.5M341.4 347.9L399.1 347.9M293.5 508.4L437.1 259.8M375 389.7L359.7 393.8M375 389.7L370.9 374.4M369.4 399.4L321.6 371.8M380.6 380L332.8 352.4M300 419.6L363.4 309.8"/>
        <circle cx="333.2" cy="400.9" r="22.4"/>
        <circle cx="363.8" cy="347.9" r="22.4"/>
        <path d="M344.4 442.8L344.4 420.3M344.3 442.8L277.8 481.2"/>
      </g>
      <g>
        <circle cx="300" cy="259.8" r="43.3"/>
        <path d="M300 216.5L330.6 229.2 343.3 259.8 330.6 290.4 300 303.1 269.4 290.4 256.7 259.8 269.4 229.2zM288.8 315L300 321.4M300 321.4L311.2 315M319.4 309.8L348.3 259.8M280.6 309.8L251.7 259.8M443.5 271L156.5 271M300 259.8L311.2 271M300 259.8L288.8 271M311.2 259.8L311.2 315M288.8 259.8L288.8 315M363.4 309.8L236.6 309.8"/>
        <circle cx="330.6" cy="290.4" r="22.4"/>
        <circle cx="269.4" cy="290.4" r="22.4"/>
        <path d="M361.3 259.8L341.8 271M361.3 259.8L427.8 298.2"/>
      </g>
      <g>
        <path d="M278.4 371.8L278.4 358.9M278.3 358.9L267.2 352.4M258.6 347.9L200.8 347.9M278 381.5L249.1 431.5M162.9 259.8L306.5 508.4M225 389.7L229.1 374.4M225 389.7L240.3 393.8M219.4 380L267.2 352.4M230.6 399.4L278.4 371.8M236.6 309.8L300 419.6"/>
        <circle cx="236.2" cy="347.9" r="22.4"/>
        <circle cx="266.8" cy="400.9" r="22.4"/>
        <path d="M194.3 336.7L213.8 347.9M194.3 336.6L194.3 259.8"/>
      </g>
    </g>
    <g>
      <path d="M450 259.8L300 259.8 150 259.8 225 129.9 300 0 375 129.9zM300 0L300 259.8M150 259.8L375 129.9M450 259.8L225 129.9"/>
      <circle cx="300" cy="173.2" r="25"/>
      <path d="M321.6 160.7L321.6 185.7 300 198.2 278.4 185.7 278.4 160.7 300 148.2z"/>
      <g>
        <path d="M321.6 147.8L321.6 160.7M321.7 160.8L332.8 167.2M341.4 171.8L399.1 171.8M322 138.1L350.8 88.1M437.1 259.8L293.5 11.2M375 129.9L370.9 145.2M375 129.9L359.7 125.8M380.6 139.6L332.8 167.2M369.4 120.2L321.6 147.8M363.4 209.8L300 100.1"/>
        <circle cx="363.8" cy="171.8" r="22.4"/>
        <circle cx="333.2" cy="118.7" r="22.4"/>
        <path d="M405.7 183L386.2 171.8M405.6 183L405.6 259.8"/>
      </g>
      <g>
        <circle cx="300" r="100"/>
        <circle cx="225" cy="129.9" r="43.3"/>
        <path d="M187.5 108.3L213.8 88.1 246.6 92.4 266.8 118.7 262.5 151.6 236.2 171.8 203.3 167.4 183.2 141.1zM267.2 167.2L278.4 160.7M278.4 160.7L278.4 147.8M278 138.1L249.1 88.1M258.6 171.8L200.8 171.8M306.4 11.3L162.9 259.8M225 129.9L240.3 125.8M225 129.9L229.1 145.2M230.6 120.2L278.4 147.8M219.4 139.6L267.2 167.2M300 100.1L236.6 209.8"/>
        <path d="M286.211,107.539c6.183,10.708,2.514,24.4-8.194,30.584c-10.71,6.182-24.401,2.513-30.583-8.196 c-6.183-10.706-2.514-24.398,8.195-30.582C266.336,93.161,280.03,96.832,286.211,107.539z"/>
        <circle cx="236.2" cy="171.8" r="22.4"/>
        <path d="M255.6 76.9L255.6 99.3M255.6 76.8L322.2 38.4"/>
      </g>
      <g>
        <path d="M311.2 204.7L300 198.2M300 198.2L288.8 204.7M280.6 209.9L251.7 259.8M319.4 209.8L348.3 259.8M156.5 248.6L443.5 248.6M300 259.8L288.8 248.6M300 259.8L311.2 248.7M288.8 259.8L288.8 204.7M311.2 259.8L311.2 204.7M236.6 209.8L363.4 209.8"/>
        <circle cx="269.4" cy="229.2" r="22.4"/>
        <circle cx="330.6" cy="229.2" r="22.4"/>
        <path d="M238.7 259.9L258.2 248.7M238.7 259.8L172.2 221.4"/>
      </g>
    </g>
    <g>
      <path d="M0 0L225 129.9M150 259.8L150 0M300 0L75 129.9"/>
      <circle cx="150" cy="86.6" r="25"/>
      <path d="M150 61.6L171.7 74.1 171.7 99.1 150 111.6 128.4 99.1 128.4 74.1z"/>
      <g>
        <circle cx="150" r="43.3"/>
        <path d="M150-43.3L180.6-30.6 193.3 0 180.6 30.6 150 43.3 119.4 30.6 106.7 0 119.4-30.6zM138.8 55.1L150 61.6M150 61.6L161.2 55.1M169.5 50L198.3 0M130.6 50L101.7 0M293.5 11.2L6.5 11.2M150 0L161.2 11.2M150 0L138.8 11.2M161.2 0L161.2 55.1M138.8 0L138.8 55.1M213.4 50L86.6 50"/>
        <circle cx="180.6" cy="30.6" r="22.4"/>
        <circle cx="119.4" cy="30.6" r="22.4"/>
        <path d="M211.3 0L191.9 11.2M211.3 0L277.8 38.4"/>
      </g>
      <g>
        <circle r="100"/>
        <circle cx="75" cy="129.9" r="43.3"/>
        <path d="M37.5 151.6L33.2 118.7 53.4 92.4 86.2 88.1 112.5 108.3 116.8 141.1 96.7 167.4 63.8 171.7zM128.4 112L128.4 99.1M128.4 99.1L117.2 92.6M108.6 88.1L50.9 88.1M128 121.7L99.2 171.7M13 0L156.5 248.6M75 129.9L79.1 114.6M75 129.9L90.3 134M69.4 120.2L117.2 92.6M80.6 139.6L128.4 112M86.6 50L150 159.8"/>
        <circle cx="86.2" cy="88.1" r="22.4"/>
        <circle cx="116.8" cy="141.1" r="22.4"/>
        <path d="M44.4 76.9L63.8 88.1M44.4 76.8L44.4 0"/>
      </g>
      <g>
        <path d="M182.9 92.6L171.7 99.1M171.7 99.1L171.7 112M172 121.7L200.9 171.7M191.4 88.1L249.2 88.1M143.6 248.6L287.1 0M225 129.9L209.7 134M225 129.9L220.9 114.6M219.4 139.6L171.7 112M230.6 120.2L182.9 92.6M150 159.8L213.4 50"/>
        <circle cx="183.2" cy="141.1" r="22.4"/>
        <circle cx="213.8" cy="88.1" r="22.4"/>
        <path d="M194.4 183L194.4 160.5M194.4 183L127.8 221.4"/>
      </g>
    </g>
    <g>
      <path d="M0 0L75 129.9 150 259.8 0 259.8-150 259.8-75 129.9zM-150 259.8L75 129.9M150 259.8L-75 129.9M0 0L0 259.8"/>
      <circle cy="173.2" r="25"/>
      <path d="M-21.6 160.7L0 148.2 21.7 160.7 21.7 185.7 0 198.2 -21.6 185.7z"/>
      <g>
        <path d="M-32.8 167.2L-21.6 160.7M-21.6 160.7L-21.6 147.8M-22 138.1L-50.8 88.1M-41.4 171.7L-99.1 171.7M6.5 11.2L-137.1 259.8M-75 129.9L-59.7 125.8M-75 129.9L-70.9 145.2M-69.4 120.2L-21.6 147.8M-80.6 139.6L-32.8 167.2M0 100L-63.4 209.8"/>
        <circle cx="-33.2" cy="118.7" r="22.4"/>
        <circle cx="-63.8" cy="171.7" r="22.4"/>
        <path d="M-44.4 76.8L-44.4 99.3M-44.3 76.8L22.2 38.4"/>
      </g>
      <g>
        <circle cy="259.8" r="43.3"/>
        <path d="M0 303.1L-30.6 290.4-43.3 259.8-30.6 229.2 0 216.5 30.6 229.2 43.3 259.8 30.6 290.4zM11.2 204.7L0 198.2M0 198.2L-11.2 204.7M-19.4 209.8L-48.3 259.8M19.4 209.8L48.3 259.8M-143.5 248.6L143.6 248.6M0 259.8L-11.2 248.6M0 259.8L11.2 248.6M-11.2 259.8L-11.2 204.7M11.2 259.8L11.2 204.7M-63.4 209.8L63.4 209.8"/>
        <circle cx="-30.6" cy="229.2" r="22.4"/>
        <circle cx="30.6" cy="229.2" r="22.4"/>
        <path d="M-61.2 259.8L-41.8 248.6M-61.3 259.8L-127.8 221.4"/>
      </g>
      <g>
        <path d="M21.7 147.8L21.7 160.7M21.7 160.7L32.9 167.2M41.5 171.7L99.2 171.7M22 138.1L50.9 88.1M137.1 259.8L-6.4 11.2M75 129.9L70.9 145.2M75 129.9L59.7 125.8M80.6 139.6L32.9 167.2M69.4 120.2L21.7 147.8M63.4 209.8L0 100"/>
        <circle cx="63.8" cy="171.7" r="22.4"/>
        <circle cx="33.2" cy="118.7" r="22.4"/>
        <path d="M105.7 182.9L86.2 171.7M105.7 183L105.7 259.8"/>
      </g>
    </g>
    <g>
      <path d="M0 519.6L0 259.8M150 259.8L-75 389.7M-150 259.8L75 389.7"/>
      <circle cy="346.4" r="25"/>
      <path d="M-21.6 358.9L-21.6 333.9 0 321.4 21.7 333.9 21.7 358.9 0 371.4z"/>
      <g>
        <path d="M-21.6 371.8L-21.6 358.9M-21.6 358.9L-32.8 352.4M-41.4 347.9L-99.1 347.9M-22 381.5L-50.8 431.5M-137 259.8L6.5 508.4M-75 389.7L-70.9 374.4M-75 389.7L-59.7 393.8M-80.6 380L-32.8 352.4M-69.4 399.4L-21.6 371.8M-63.4 309.8L0 419.6M-63.774 325.496c12.365 0 22.389 10.023 22.389 22.388 0 12.366-10.023 22.388-22.39 22.389-12.364 0-22.386-10.025-22.386-22.39C-86.164 335.52-76.138 325.495-63.774 325.496zM-33.154 378.53c12.364.001 22.388 10.024 22.388 22.39 0 12.364-10.024 22.386-22.39 22.388-12.364-.001-22.387-10.022-22.386-22.39C-55.544 388.554-45.518 378.531-33.154 378.53zM-105.6 336.7L-86.2 347.9M-105.6 336.6L-105.6 259.8"/>
      </g>
      <g>
        <path d="M50.017,433.012c47.83,27.615,64.217,88.775,36.604,136.603c-27.615,47.826-88.773,64.217-136.604,36.602 c-47.828-27.613-64.217-88.775-36.602-136.602C-58.971,421.786,2.187,405.397,50.017,433.012z"/>
        <circle cx="75" cy="389.7" r="43.3"/>
        <path d="M112.5 411.4L86.2 431.5 53.4 427.2 33.2 400.9 37.5 368.1 63.8 347.9 96.7 352.2 116.8 378.5zM32.9 352.4L21.7 358.9M21.7 358.9L21.7 371.8M22 381.6L50.9 431.5M41.4 347.9L99.2 347.9M-6.4 508.4L137.1 259.8M75 389.7L59.7 393.8M75 389.7L70.9 374.4M69.4 399.4L21.7 371.8M80.6 380L32.9 352.4M0 419.6L63.4 309.8"/>
        <path d="M13.802,412.112c-6.184-10.707-2.514-24.399,8.193-30.584c10.711-6.181,24.402-2.511,30.584,8.196 c6.182,10.707,2.514,24.398-8.195,30.583C33.677,426.491,19.983,422.819,13.802,412.112z"/>
        <circle cx="63.8" cy="347.9" r="22.4"/>
        <path d="M44.4 442.8L44.4 420.3M44.4 442.8L-22.2 481.2"/>
      </g>
      <g>
        <path d="M-11.2 315L0 321.4M0 321.4L11.2 315M19.5 309.8L48.3 259.8M-19.4 309.8L-48.3 259.8M143.5 271L-143.5 271M0 259.8L11.2 271M0 259.8L-11.2 271M11.2 259.8L11.2 315M-11.2 259.8L-11.2 315M63.4 309.8L-63.4 309.8"/>
        <circle cx="30.6" cy="290.4" r="22.4"/>
        <circle cx="-30.6" cy="290.4" r="22.4"/>
        <path d="M61.3 259.8L41.9 271M61.3 259.8L127.8 298.2"/>
      </g>
    </g>
  </g>
</svg>
