<svg xmlns="http://www.w3.org/2000/svg" width="4678.5" height="2702" viewBox="0 0 4678.5 2702">
  <style>
    :root { --black: #443430; --red: #BF402B; --turquois: #4D9BA3; --white: #FFFAF2; } .shape-1 { fill: var(--white); } .shape-2 { fill: var(--turquois); } .shape-3 { fill: var(--red); } .shape-4 { fill: var(--black); } .shape-5 { fill: var(--white); } .guides { stroke: #4FFF4F; display: none; }
  </style>
  <g id="pattern" class="line">
    <path class="shape-1" d="M1558.5 1803.9l260-450.3-260-450.3h-520V1804zM2338.4 453L2078.6 2.8l-780 450.1 259.9 450.4h520zM2525-124.6l73.5 127.2 220.4-127.2zM1558.5 1803.9l-260.1 450.2 780.2 450.5-269.6 155.6h359.3l-89.7-155.4 259.9-450.5-260-450.4zM258.5 1353.6l-259.6 451 259.6 449.7h520l260-450.3zM518.5 2704.7l89.8 155.5h690.1v-606.1l-519.9.2zM2868 2860.2l-269.5-155.6-89.8 155.6zM778.5 452.9h-520l-260 450.4-140.4-243.2v486.6L-1.5 903.3l260 450.3 780-450.3zM1857.9-124.6L2078.6 2.8l73.6-127.4z"/>
    <path class="shape-1" d="M1298.4-124.6H592L518.5 2.6l260 450.3 519.9-.1zM2598.5 2.6l-259.6 451 259.6 449.7h520l260-450.4zM3118.5 1803.9h-520l-260 450.4 260 450.3 780-450.3z"/>
    <path class="shape-1" d="M3378.5 2860.2h690.2l89.9-155.7-260-450.3-520.1.1zM-141.9 1560.9v486.4l140.4-243.2zM4678.9 1804.4l150.4 260.5v-521.8zM4418.6 2254.2l259.8-450.1-259.8-450.3-780.1 450.1 260.1 450.3zM4829.3 641.9l-150.8 261.3 150.8 261.3zM3638.5 903.3l780.1 450.4 259.9-450.5-260-450.4h-520.1l-260 450.3-519.9.2-260 450.3 260 450.3h520z"/>
    <path class="shape-1" d="M4158.5 2.5L4085-124.6h-706.4l-.1 577.5 519.9-.1z"/>
    <g>
      <path class="shape-2" d="M2338.5 452.9l-260 450.4h-520l260 450.3-260 450.3h520l260 450.4 260-450.4h520l-260-450.3 260-450.3h-520zM4678.5-898.2l-260 450.4h-520l260 450.3-260.1 450.3h520.1l260 450.4 260-450.4h520l-260-450.3 260-450.3h-520zM4678.6 1803.8l-260 450.4h-520l260 450.3-260 450.3h520l260 450.4 260-450.4h520l-260-450.3 260-450.3h-520zM-1.5 1804l-260 450.3h-520l260 450.4-260 450.3h520l260 450.3 260-450.3h520l-260-450.3 260-450.4h-520zM-1.5-898.1l-260 450.4h-520l260 450.3-260 450.3h520l260 450.4 260-450.4h520L518.5 2.6l260-450.3h-520z"/>
    </g>
    <g>
      <path class="shape-3" d="M1298.4 453.1v-900.7L2078.6 2.8zM3638.5 1803.9V903.3l780.2 450.4zM1298.4 3154.8v-900.7l780.2 450.5zM3378.5 452.9l-780-450.3 780.2-450.5zM3378.5 3154.9l-780-450.3 780-450.3zM1038.5 1804l-780-450.4 780-450.3z"/>
    </g>
    <g>
      <path class="shape-4" d="M2338.5-447.7L2078.6 2.8l260.2 450.9L2598.5 2.6zM-1.5 903.3l-259.9 450.5 260.2 450.9 259.7-451.1zM4678.5 903.2l-259.9 450.5 260.2 450.9 259.7-451.1zM2338.5 2254.3l-259.9 450.5 259.8 450.2 260.1-450.4zM778.5 2254.3l519.9-.2 260.1-450.2-520 .1zM3118.5 903.3l519.9-.2 260-450.3-519.9.1zM778.5 452.9l260 450.4h520l-259.9-450.5zM3118.5 1803.9l260 450.4 520.1-.1-260.1-450.3z"/>
    </g>
  </g>
  <g class="guides">
    <path d="M515.9-900.7l-3640 6304.7M1035.9-900.7l-3640 6304.7M1555.9-900.7l-3640 6304.7M2075.9-900.7l-3640 6304.7M2595.9-900.7l-3640 6304.7M3115.9-900.7L-524.1 5404M3635.9-900.7L-4.1 5404M4155.9-900.7L515.9 5404M4675.9-900.7L1035.9 5404M5195.9-900.7L1555.9 5404M5715.9-900.7L2075.9 5404M6235.9-900.7L2595.9 5404M6755.9-900.7L3115.9 5404M7275.9-900.7L3635.9 5404M7795.9-900.7L4155.9 5404M5195.9-900.7l3640 6304.7M4675.9-900.7l3640 6304.7M4155.9-900.7l3640 6304.7M3635.9-900.7l3640 6304.7M3115.9-900.7l3640 6304.7M2595.9-900.7l3640 6304.7M2075.9-900.7l3640 6304.7M1555.9-900.7l3640 6304.7M1035.9-900.7l3640 6304.7M515.9-900.7l3640 6304.7M-4.1-900.7l3640 6304.7M-524.1-900.7l3640 6304.7M-1044.1-900.7l3640 6304.7M-1564.1-900.7l3640 6304.7M-2084.1-900.7l3640 6304.7M-2604.1-900.7l3640 6304.7M-3124.1-900.7L515.9 5404M-1304.1 2251.7h8320M-1044.1 1801.3h8320M-784.1 1351h8320M-524.1 900.7h8320M-264.1 450.3h8320M-4.1 0h8320M255.9-450.3h8320M-1564.1 2702h8320M-1824.1 3152.3h9360"/>
  </g>
</svg>
