<svg version="1.1" xmlns="http://www.w3.org/2000/svg" xmlns:xlink="http://www.w3.org/1999/xlink" x="0px" y="0px"
	  width="901" height="520" viewBox="0 0 100% 100%" xml:space="preserve">
	<style>
		:root {
		  --golden: #907A58;
		  --darkBlue: #475387;
		  --beige: #DFD8CC;
		  --teal: #4A9AC4;
		  --gray: #A49DA0;
		  --smaragd: #406A72;
		  --sand: #D3BDA7;
		  --grayGreen: #A2D1D6;
		  --blueGray: #758390;
		  --lightBrown: #AA8858;
		  --blue1: #8EC5EE;
		  --blue2: #8CC6EA;
		  --blue3: #B6DAEC;
		  --rust: #D8692D;
		  --yellow: #F8C346;

		        --black: #443430;
      --red: #BF402B;
      --gold: #CEA600;
      --turquois: #4D9BA3;
      --emerald: #216554;
      --blue: #262F66;
      --white: #FFFAF2;
      --lightBlue: #2AAFDD;

		}
		.shape-1 {
			fill: var(--white);
		}
		.shape-2 {
			fill: var(--turquois);
		}
		.shape-3 {
			fill: var(--red);
		}
		.shape-4 {
			fill: var(--black);
		}
<!-- 		.line {
			stroke: #fff;
			stroke-width: 25px;
		}
 -->		.guides {
			stroke: #4FFF4F;
			display: none;
		}
	</style>
			<g id="pattern">
				<rect x="-26.5" y="-23.968" class="shape-1" width="956" height="574"/>
				<g class="line">
					<polygon class="shape-2 line" points="450.5,87.102 400.5,173.705 300.5,173.705 350.5,260.307 300.499,346.91 400.5,346.91 450.5,433.513 500.5,346.91 600.5,346.91 550.5,260.307 600.5,173.705 500.5,173.705 	"/>
					<polygon class="shape-2 line" points="900.492,-172.722 850.492,-86.119 750.492,-86.119 800.491,0.483 750.49,87.086 850.492,87.086 
						900.491,173.689 950.491,87.086 1050.491,87.086 1000.491,0.483 1050.492,-86.119 950.491,-86.119 	"/>
					<polygon class="shape-2 line" points="900.512,346.89 850.512,433.492 750.513,433.492 800.512,520.095 750.511,606.697 850.512,606.697 
						900.512,693.3 950.512,606.697 1050.512,606.698 1000.512,520.095 1050.512,433.492 950.512,433.492 	"/>
					<polygon class="shape-2 line" points="0.509,346.926 -49.491,433.528 -149.491,433.528 -99.492,520.131 -149.493,606.733 -49.491,606.733 
						0.508,693.336 50.508,606.733 150.508,606.734 100.508,520.131 150.509,433.528 50.508,433.528 	"/>
					<polygon class="shape-2 line" points="0.501,-172.706 -49.499,-86.103 -149.499,-86.103 -99.5,0.5 -149.501,87.102 -49.499,87.102 
						0.5,173.705 50.5,87.102 150.5,87.103 100.5,0.5 150.501,-86.103 50.5,-86.103 	"/>
					<polygon class="shape-3 line" points="250.487,87.125 250.487,-86.08 400.526,0.545 	"/>
					<polygon class="shape-3 line" points="700.5,346.91 700.5,173.706 850.538,260.331 	"/>
					<polygon class="shape-3 line" points="250.487,606.693 250.487,433.488 400.525,520.113 	"/>
					<polygon class="shape-3 line" points="650.5,87.102 500.5,0.5 650.539,-86.125 	"/>
					<polygon class="shape-3 line" points="650.5,606.717 500.5,520.115 650.5,433.512 	"/>
					<polygon class="shape-3 line" points="200.509,346.925 50.5,260.308 200.5,173.705 	"/>
					<polygon class="shape-4 line" points="450.5,-86.103 400.526,0.545 450.559,87.248 500.5,0.5 	"/>
					<polygon class="shape-4 line" points="0.5,173.706 -49.474,260.353 0.56,347.056 50.5,260.308 	"/>
					<polygon class="shape-4 line" points="900.491,173.689 850.516,260.336 900.549,347.04 950.491,260.292 	"/>
					<polygon class="shape-4 line" points="450.5,433.513 400.525,520.16 450.487,606.74 500.5,520.115 	"/>
					<polygon class="shape-4 line" points="150.509,433.528 250.487,433.488 300.499,346.91 200.509,346.925 	"/>
					<polygon class="shape-4 line" points="600.5,173.705 700.478,173.665 750.49,87.086 650.5,87.102 	"/>
					<polygon class="shape-4 line" points="150.5,87.103 200.5,173.705 300.5,173.705 250.513,87.081 	"/>
					<polygon class="shape-4 line" points="600.5,346.91 650.5,433.512 750.513,433.492 700.5,346.91 	"/>
				</g>
			</g>
			
			<g class="guides">
				<line x1="100" y1="-173.206" x2="-600" y2="1039.23"/>
				<line x1="200" y1="-173.206" x2="-500" y2="1039.23"/>
				<line x1="300" y1="-173.206" x2="-400" y2="1039.23"/>
				<line x1="400" y1="-173.206" x2="-300" y2="1039.23"/>
				<line x1="500" y1="-173.206" x2="-200" y2="1039.23"/>
				<line x1="600" y1="-173.206" x2="-100" y2="1039.23"/>
				<line x1="700" y1="-173.206" x2="0" y2="1039.23"/>
				<line x1="800" y1="-173.206" x2="100" y2="1039.23"/>
				<line x1="900" y1="-173.206" x2="200" y2="1039.23"/>
				<line x1="1000" y1="-173.206" x2="300" y2="1039.23"/>
				<line x1="1100" y1="-173.206" x2="400" y2="1039.23"/>
				<line x1="1200" y1="-173.206" x2="500" y2="1039.23"/>
				<line x1="1300" y1="-173.205" x2="600" y2="1039.231"/>
				<line x1="1400" y1="-173.206" x2="700" y2="1039.23"/>
				<line x1="1500" y1="-173.206" x2="800" y2="1039.23"/>
				<line x1="1600" y1="-173.206" x2="900" y2="1039.23"/>
				<line x1="1700" y1="-173.206" x2="1000" y2="1039.23"/>
				<line x1="1000" y1="-173.205" x2="1700" y2="1039.231"/>
				<line x1="900" y1="-173.205" x2="1600" y2="1039.231"/>
				<line x1="800" y1="-173.205" x2="1500" y2="1039.231"/>
				<line x1="700" y1="-173.205" x2="1400" y2="1039.231"/>
				<line x1="600" y1="-173.205" x2="1300" y2="1039.231"/>
				<line x1="500" y1="-173.205" x2="1200" y2="1039.231"/>
				<line x1="400" y1="-173.205" x2="1100" y2="1039.231"/>
				<line x1="300" y1="-173.205" x2="1000" y2="1039.231"/>
				<line x1="200" y1="-173.205" x2="900" y2="1039.231"/>
				<line x1="100" y1="-173.205" x2="800" y2="1039.231"/>
				<line x1="0" y1="-173.205" x2="700" y2="1039.231"/>
				<line x1="-100" y1="-173.205" x2="600" y2="1039.231"/>
				<line x1="-200" y1="-173.206" x2="500" y2="1039.23"/>
				<line x1="-300" y1="-173.205" x2="400" y2="1039.231"/>
				<line x1="-400" y1="-173.205" x2="300" y2="1039.231"/>
				<line x1="-500" y1="-173.205" x2="200" y2="1039.231"/>
				<line x1="-600" y1="-173.205" x2="100" y2="1039.231"/>
				<line x1="-250" y1="433.012" x2="1350" y2="433.012"/>
				<line x1="-200" y1="346.41" x2="1400" y2="346.41"/>
				<line x1="-150" y1="259.808" x2="1450" y2="259.808"/>
				<line x1="-100" y1="173.205" x2="1500" y2="173.205"/>
				<line x1="-50" y1="86.602" x2="1550" y2="86.602"/>
				<line x1="0" y1="0" x2="1600" y2="0"/>
				<line x1="50" y1="-86.603" x2="1650" y2="-86.603"/>
				<line x1="-300" y1="519.615" x2="1300" y2="519.615"/>
				<line x1="-350" y1="606.217" x2="1450" y2="606.217"/>
				<line x1="-400" y1="692.82" x2="1500" y2="692.82"/>
				<line x1="-450" y1="779.422" x2="1550" y2="779.422"/>
				<line x1="-501.006" y1="866.025" x2="1608.69" y2="866.025"/>
				<line x1="-550" y1="952.627" x2="1659" y2="952.627"/>
			</g>
</svg>