<svg xmlns="http://www.w3.org/2000/svg" width="1040.5" height="601.2" viewBox="0 0 100% 100%">
  <style>
    :root {
      --golden: #907A58;
      --darkBlue: #475387;
      --beige: #DFD8CC;
      --teal: #4A9AC4;
      --gray: #A49DA0;
      --smaragd: #406A72;
      --sand: #D3BDA7;
      --grayGreen: #A2D1D6;
      --blueGray: #758390;
      --lightBrown: #AA8858;
      --blue1: #8EC5EE;
      --blue2: #8CC6EA;
      --blue3: #B6DAEC;
      --rust: #D8692D;
      --yellow: #F8C346;
    }
    .shape-1{fill:var(--gray)}
    .shape-2{fill:var(--grayGreen)}
    .shape-3{fill:var(--smaragd)}
    .shape-4{fill:var(--blue1)}
    .shape-5{fill:var(--darkBlue)}
    .shape-6{fill:var(--teal)}
    .shape-7{fill:var(--blue3)}
    .shape-8{fill:var(--golden)}
    .shape-9{fill:var(--sand)}
    .shape-10{fill:var(--yellow)}
    .shape-12{fill:var(--blueGray)}
    .shape-13{fill:var(--rust)}
    .line{stroke:#fff;stroke-width:8px}
    .guides{ stroke: #4FFF4F; display: none; fill: none}

  </style>
  <g id="pattern" class="line">
    <path class="shape-1" d="M-81.3 -99.5H1120.2V700.8H-81.3z"/>
    <path class="shape-2" d="M520.267 424.12c12.025 6.7 22.56 15.748 31.002 26.514h55.625l-22.205-38.459c-4.711-.661-9.521-1.01-14.415-1.01C552.123 411.165 535.073 415.871 520.267 424.12zM489.265 450.634c8.442-10.766 18.977-19.813 31.002-26.514-14.806-8.25-31.855-12.956-50.007-12.956-4.894 0-9.705.349-14.416 1.01l-22.205 38.459H489.265z"/>
    <path class="shape-3" d="M520.267,424.12c-12.025,6.7-22.56,15.748-31.002,26.514h62.004 C542.827,439.868,532.292,430.82,520.267,424.12z"/>
    <path class="shape-2" d="M673.154 512.399c.009.555.021 1.108.021 1.665 0 13.607-2.642 26.597-7.44 38.485l27.788 48.131 22.203-38.456C707.306 541.349 692.248 523.862 673.154 512.399zM634.696 498.788c13.904 1.952 26.916 6.682 38.458 13.611-.37-23.288-8.48-44.692-21.863-61.766h-44.396L634.696 498.788zM405.837 498.788l27.802-48.154h-44.395c-13.384 17.073-21.494 38.478-21.864 61.766C378.922 505.47 391.934 500.741 405.837 498.788z"/>
    <path class="shape-2" d="M374.799,552.547c-4.797-11.888-7.439-24.877-7.439-38.483c0-0.557,0.012-1.11,0.021-1.665 c-19.093,11.463-34.151,28.948-42.571,49.823l22.202,38.455L374.799,552.547z"/>
    <path class="shape-3" d="M367.381 512.399c-.009.554-.021 1.108-.021 1.665 0 13.606 2.642 26.595 7.439 38.483l31.038-53.759C391.934 500.741 378.922 505.47 367.381 512.399zM673.175 514.064c0-.557-.012-1.11-.021-1.665-11.542-6.93-24.554-11.659-38.458-13.611l31.039 53.761C670.533 540.661 673.175 527.671 673.175 514.064z"/>
    <path class="shape-4" d="M625.848 600.679c17.814 11.454 31.865 28.253 39.887 48.132l27.788-48.131-27.788-48.131C657.712 572.427 643.663 589.226 625.848 600.679zM620.267 497.781c4.897 0 9.714.345 14.429 1.007l-27.802-48.154H551.27c12.779 16.296 20.755 36.539 21.774 58.604C587.187 501.918 603.243 497.781 620.267 497.781zM467.491 509.238c1.019-22.065 8.995-42.308 21.774-58.604H433.64l-27.802 48.154c4.715-.662 9.532-1.007 14.43-1.007C437.291 497.781 453.347 501.918 467.491 509.238zM414.686 600.679c-17.814-11.454-31.865-28.253-39.887-48.132l-27.788 48.13 27.789 48.132C382.822 628.931 396.872 612.132 414.686 600.679z"/>
    <path class="shape-5" d="M625.848,600.679c17.814-11.453,31.864-28.252,39.887-48.13l-31.039-53.761 c-4.715-0.662-9.531-1.007-14.429-1.007c-17.024,0-33.08,4.138-47.224,11.457c-1.019-22.065-8.995-42.307-21.774-58.604h-62.004 c-12.779,16.296-20.755,36.539-21.774,58.604c-14.144-7.319-30.2-11.457-47.224-11.457c-4.898,0-9.715,0.345-14.43,1.007 l-31.038,53.759c8.022,19.878,22.072,36.678,39.887,48.132c-17.814,11.453-31.864,28.252-39.886,48.13l31.04,53.764 c4.714,0.662,9.53,1.007,14.427,1.007c17.024,0,33.08-4.138,47.224-11.457c1.02,22.064,8.995,42.305,21.773,58.601h62.006 c12.779-16.296,20.754-36.537,21.773-58.601c14.144,7.319,30.2,11.457,47.224,11.457c4.897,0,9.714-0.345,14.429-1.007 l31.039-53.761C657.713,628.932,643.663,612.133,625.848,600.679z"/>
    <path class="shape-6" d="M850.638,572.719c2.572-10.073,6.512-19.596,11.592-28.377l-41.963-24.227v48.458 C830.791,568.573,840.975,570.021,850.638,572.719z"/>
    <path class="shape-7" d="M862.23,544.342c-5.081,8.781-9.021,18.304-11.592,28.377c-9.663-2.699-19.847-4.146-30.371-4.146v32.107 v32.103c10.523,0,20.708-1.447,30.371-4.146c2.572,10.074,6.512,19.598,11.593,28.378l27.803-16.052l27.813-16.058 c-5.162-8.92-11.508-17.069-18.829-24.227c7.321-7.157,13.666-15.306,18.828-24.225l-27.809-16.056L862.23,544.342z"/>
    <path class="shape-6" d="M661.216 300.631c-7.443-7.269-13.724-15.449-18.79-24.247l-41.928 24.207 41.966 24.229C647.722 315.724 654.059 307.64 661.216 300.631zM740.038 332.739c-10.152.012-20.378-1.338-30.396-4.149-2.49 9.703-6.321 19.233-11.571 28.334l41.967 24.229V332.739z"/>
    <path class="shape-7" d="M642.426,276.385c5.065,8.797,11.347,16.978,18.79,24.247c-7.157,7.009-13.494,15.092-18.751,24.189 l27.803,16.052l27.804,16.052c5.25-9.101,9.081-18.631,11.571-28.334c10.018,2.811,20.244,4.161,30.396,4.149V300.59v-32.071 c-10.313,0.009-20.552,1.429-30.418,4.193c-2.54-9.926-6.428-19.502-11.576-28.438l-27.776,16.036L642.426,276.385z"/>
    <path class="shape-6" d="M342.466 356.923c-5.249-9.101-9.081-18.63-11.572-28.333-10.017 2.811-20.242 4.161-30.394 4.149v48.413l29.552-17.062L342.466 356.923zM440.036 300.591l-41.926-24.206c-5.065 8.797-11.347 16.977-18.79 24.247 7.159 7.008 13.496 15.09 18.752 24.187l41.925-24.206L440.036 300.591z"/>
    <path class="shape-7" d="M300.5,332.739c10.152,0.012,20.377-1.338,30.394-4.149c2.491,9.703,6.323,19.232,11.572,28.333 l27.801-16.051l27.805-16.053c-5.257-9.097-11.593-17.179-18.752-24.187c7.443-7.27,13.724-15.449,18.79-24.247l-27.842-16.075 l-27.773-16.035c-5.148,8.935-9.037,18.511-11.576,28.436c-9.866-2.764-20.104-4.185-30.417-4.193v32.071V332.739z"/>
    <path class="shape-6" d="M178.307,544.342c5.082,8.781,9.021,18.306,11.594,28.38c9.663-2.699,19.844-4.147,30.366-4.147v-48.458 L178.307,544.342z"/>
    <path class="shape-7" d="M178.308,657.019c5.082-8.781,9.021-18.305,11.594-28.379c9.662,2.698,19.844,4.145,30.366,4.146V600.68 v-32.105c-10.521,0-20.703,1.449-30.366,4.147c-2.573-10.075-6.513-19.599-11.594-28.38L150.5,560.396l-27.809,16.056 c5.163,8.92,11.508,17.07,18.83,24.229c-7.322,7.158-13.667,15.308-18.83,24.228l27.806,16.054L178.308,657.019z"/>
    <path class="shape-8" d="M760.094,485.375l-4.252,7.365l-40.109,69.471c5.88,14.583,14.722,27.654,25.782,38.467 c20.312-19.859,48.1-32.104,78.751-32.104v-48.458l-51.823-29.919L760.094,485.375z"/>
    <path class="shape-9" d="M820.267,632.783V600.68v-32.107c-30.652,0-58.439,12.246-78.751,32.104 C761.828,620.537,789.615,632.783,820.267,632.783z"/>
    <path class="shape-8" d="M698.071,356.924c-0.008,0.014-0.015,0.027-0.023,0.041c-15.326,26.545-39.825,44.487-67.18,52.148 c3.83,14.968,10.719,29.146,20.391,41.521l80.322,0h8.456v-9.594v-59.886L698.071,356.924z"/>
    <path class="shape-9" d="M642.44,324.86c-15.326,26.545-18.614,56.733-11.572,84.253c27.354-7.661,51.854-25.603,67.18-52.148 c0.008-0.014,0.015-0.027,0.023-0.041l-27.804-16.052l-27.803-16.052C642.457,324.834,642.448,324.847,642.44,324.86z"/>
    <path class="shape-8" d="M642.464,324.82l-41.966-24.229l-51.823,29.92l-8.351,4.821l4.252,7.365l40.136,69.518 c15.553,2.189,31.276,1.066,46.155-3.102c-7.042-27.52-3.754-57.708,11.572-84.253 C642.448,324.847,642.457,324.834,642.464,324.82z"/>
    <path class="shape-10" d="M606.894 450.634l-22.181-38.419c15.553 2.189 31.276 1.066 46.155-3.102 3.83 14.968 10.719 29.146 20.391 41.521H606.894zM433.64 450.634h-44.362c9.673-12.375 16.562-26.553 20.392-41.522 14.878 4.167 30.601 5.291 46.153 3.101L433.64 450.634zM347.011 600.677l-22.181 38.418c-5.88-14.564-14.714-27.619-25.764-38.42 11.048-10.801 19.882-23.855 25.763-38.42L347.011 600.677zM693.523 600.68l22.181-38.418c5.88 14.564 14.714 27.62 25.764 38.42-11.048 10.801-19.882 23.856-25.763 38.419L693.523 600.68z"/>
    <path class="shape-8" d="M491.862,330.513l-51.826-29.922l-0.039,0.022l-41.925,24.206c0.008,0.014,0.017,0.027,0.025,0.041 c15.325,26.545,18.613,56.733,11.571,84.253c14.878,4.167,30.6,5.29,46.152,3.102l40.138-69.521l4.25-7.362L491.862,330.513z"/>
    <path class="shape-9" d="M342.49,356.965c15.326,26.545,39.824,44.487,67.179,52.148c7.042-27.521,3.754-57.708-11.571-84.253 c-0.008-0.014-0.017-0.027-0.025-0.041l-27.805,16.053l-27.801,16.051C342.475,356.937,342.482,356.951,342.49,356.965z"/>
    <path class="shape-8" d="M284.693 492.739l-4.251-7.364-8.349 4.82-51.826 29.921v48.458c.002 0 .003 0 .005 0 30.651 0 58.439 12.247 78.752 32.105 11.06-10.812 19.901-23.883 25.781-38.464L284.693 492.739zM342.49 356.965c-.008-.014-.015-.028-.023-.042l-12.414 7.167L300.5 381.152v59.888 9.593h8.456l80.322 0c9.672-12.375 16.561-26.552 20.39-41.521C382.314 401.452 357.816 383.51 342.49 356.965z"/>
    <path class="shape-9" d="M299.024,600.68c-20.312-19.858-48.101-32.105-78.752-32.105c-0.002,0-0.003,0-0.005,0v32.105v32.104 c0.002,0,0.003,0,0.005,0C250.925,632.785,278.712,620.54,299.024,600.68z"/>
    <path class="shape-12" d="M780.2 450.6L760.1 485.4 768.4 490.2 820.3 520.1 820.3 460.3 820.3 450.6zM791.8 411.1L740 381.2 740 441 740 450.6 780.2 450.6 800.2 415.9z"/>
    <path class="shape-13" d="M740 473.8L760.1 485.4 780.2 450.6 740 450.6zM780.2 450.6L820.3 450.6 820.3 427.5 800.2 415.9z"/>
    <path class="shape-12" d="M248.7 411.1L240.3 415.9 260.4 450.6 300.5 450.6 300.5 441 300.5 381.2zM260.4 450.6L220.3 450.6 220.3 460.3 220.3 520.1 272.1 490.2 280.4 485.4z"/>
    <path class="shape-13" d="M300.5 450.6L260.4 450.6 280.4 485.4 300.5 473.8zM220.3 427.5L220.3 450.6 260.4 450.6 240.3 415.9z"/>
    <path class="shape-12" d="M548.7 270.7L540.3 265.9 520.3 300.6 540.3 335.3 548.7 330.5 600.5 300.6zM500.2 265.9L491.8 270.7 440 300.6 491.9 330.5 500.2 335.3 520.3 300.6z"/>
    <path class="shape-13" d="M520.3 346.9L540.3 335.3 520.3 300.6 500.2 335.3zM520.3 300.6L540.3 265.9 520.3 254.3 500.2 265.9z"/>
    <g>
      <path class="shape-2" d="M145.987 348.738c4.797 11.888 7.439 24.877 7.439 38.483 0 .557-.012 1.112-.021 1.667 19.094-11.463 34.152-28.949 42.572-49.825l-22.202-38.456L145.987 348.738zM.52 124.047c12.025 6.7 22.56 15.748 31.002 26.514h55.625l-22.205-38.459c-4.711-.661-9.521-1.01-14.415-1.01C32.375 111.091 15.326 115.797.52 124.047zM114.948 402.499l-27.801 48.152h44.396c13.383-17.072 21.493-38.476 21.863-61.763C141.864 395.817 128.852 400.547 114.948 402.499z"/>
      <path class="shape-3" d="M.52 124.047c-12.025 6.7-22.56 15.748-31.002 26.514h62.004C23.08 139.795 12.545 130.747.52 124.047zM145.987 348.738l-31.039 53.761c13.903-1.952 26.916-6.682 38.458-13.611.009-.555.021-1.109.021-1.667C153.427 373.615 150.785 360.626 145.987 348.738z"/>
      <path class="shape-2" d="M153.406 212.326c.009.555.021 1.108.021 1.665 0 13.607-2.642 26.597-7.44 38.485l27.788 48.131 22.203-38.456C187.558 241.275 172.5 223.789 153.406 212.326zM114.948 198.715c13.904 1.952 26.916 6.682 38.458 13.611-.37-23.288-8.48-44.692-21.863-61.766H87.146L114.948 198.715zM31.522 450.651c-8.442 10.766-18.977 19.814-31.003 26.514 14.806 8.25 31.855 12.956 50.007 12.956 4.894 0 9.705-.349 14.416-1.01l22.205-38.46H31.522z"/>
      <path class="shape-3" d="M.52 477.165c12.026-6.7 22.561-15.748 31.003-26.514h-62.006C-22.041 461.417-11.506 470.465.52 477.165zM153.427 213.991c0-.557-.012-1.11-.021-1.665-11.542-6.93-24.554-11.659-38.458-13.611l31.039 53.761C150.785 240.587 153.427 227.598 153.427 213.991z"/>
      <path class="shape-4" d="M106.101 300.606c17.814 11.454 31.865 28.253 39.887 48.132l27.788-48.131-27.788-48.131C137.965 272.354 123.915 289.153 106.101 300.606zM100.52 197.708c4.897 0 9.714.345 14.429 1.007l-27.802-48.154H31.522c12.779 16.296 20.755 36.539 21.774 58.604C67.439 201.845 83.496 197.708 100.52 197.708zM53.296 392.05c-1.02 22.064-8.995 42.305-21.773 58.601h55.625l27.801-48.152c-4.715.662-9.531 1.007-14.429 1.007C83.496 403.506 67.439 399.369 53.296 392.05z"/>
      <path class="shape-5" d="M106.101,300.606c17.814-11.453,31.864-28.252,39.887-48.13l-31.039-53.761 c-4.715-0.662-9.531-1.007-14.429-1.007c-17.024,0-33.08,4.138-47.224,11.457c-1.019-22.065-8.995-42.307-21.774-58.604h-62.004 c-12.779,16.296-20.755,36.539-21.774,58.604c-14.144-7.319-30.2-11.457-47.224-11.457c-4.898,0-9.715,0.345-14.43,1.007 l-31.038,53.759c8.022,19.878,22.072,36.678,39.887,48.132c-17.814,11.453-31.864,28.252-39.886,48.13l31.04,53.764 c4.714,0.662,9.53,1.007,14.427,1.007c17.024,0,33.08-4.138,47.224-11.457c1.02,22.064,8.995,42.305,21.773,58.601h62.006 c12.779-16.296,20.754-36.537,21.773-58.601c14.144,7.319,30.2,11.457,47.224,11.457c4.897,0,9.714-0.345,14.429-1.007 l31.039-53.761C137.965,328.859,123.915,312.06,106.101,300.606z"/>
      <path class="shape-6" d="M330.89 272.646c2.572-10.073 6.512-19.596 11.592-28.377l-41.963-24.227V268.5C311.043 268.5 321.228 269.947 330.89 272.646zM141.468.558c-7.443-7.269-13.724-15.449-18.79-24.247L80.751.518l41.966 24.229C127.974 15.65 134.311 7.567 141.468.558zM220.29 32.666c-10.152.012-20.378-1.338-30.396-4.149-2.49 9.703-6.321 19.233-11.571 28.334l41.967 24.229V32.666z"/>
      <path class="shape-7" d="M122.679-23.688c5.065,8.797,11.347,16.978,18.79,24.247c-7.157,7.009-13.494,15.092-18.751,24.189 l27.803,16.052l27.804,16.052c5.25-9.101,9.081-18.631,11.571-28.334c10.018,2.811,20.244,4.161,30.396,4.149V0.517v-32.071 c-10.313,0.009-20.552,1.429-30.418,4.193c-2.54-9.926-6.428-19.502-11.576-28.438L150.52-39.763L122.679-23.688z"/>
      <path class="shape-6" d="M122.691,624.909c5.062-8.784,11.337-16.951,18.77-24.21c-7.168-7.017-13.51-15.108-18.771-24.217 l-41.939,24.213L122.691,624.909z"/>
      <path class="shape-8" d="M240.347,185.302l-4.252,7.365l-40.109,69.471c5.88,14.583,14.722,27.654,25.782,38.467 c20.312-19.859,48.1-32.104,78.751-32.104v-48.458l-51.823-29.919L240.347,185.302z"/>
      <path class="shape-9" d="M300.52,332.709v-32.103V268.5c-30.652,0-58.439,12.246-78.751,32.104 C242.081,320.464,269.868,332.709,300.52,332.709z"/>
      <path class="shape-8" d="M178.323,56.851c-0.008,0.014-0.015,0.027-0.023,0.041c-15.326,26.545-39.825,44.487-67.18,52.148 c3.83,14.968,10.719,29.146,20.391,41.521l80.322,0h8.456v-9.594V81.081L178.323,56.851z"/>
      <path class="shape-9" d="M122.693,24.787c-15.326,26.545-18.614,56.733-11.572,84.253c27.354-7.661,51.854-25.603,67.18-52.148 c0.008-0.014,0.015-0.027,0.023-0.041L150.52,40.799l-27.803-16.052C122.709,24.761,122.701,24.773,122.693,24.787z"/>
      <path class="shape-8" d="M122.717,24.747L80.751,0.518l-51.823,29.92l-8.351,4.821l4.252,7.365l40.136,69.518 c15.553,2.189,31.276,1.066,46.155-3.102c-7.042-27.52-3.754-57.708,11.572-84.253C122.701,24.773,122.709,24.761,122.717,24.747z"/>
      <path class="shape-10" d="M87.146 150.561l-22.181-38.419c15.553 2.189 31.276 1.066 46.155-3.102 3.83 14.968 10.719 29.146 20.391 41.521H87.146zM87.147 450.651l44.362 0c-9.674 12.374-16.562 26.552-20.392 41.522-14.878-4.167-30.601-5.29-46.153-3.102L87.147 450.651zM173.775 300.607l22.181-38.418c5.88 14.564 14.714 27.62 25.764 38.42-11.048 10.801-19.882 23.856-25.763 38.419L173.775 300.607z"/>
      <path class="shape-8" d="M221.768 300.604c-11.061 10.813-19.903 23.886-25.783 38.47l40.138 69.522 4.223 7.315 8.294-4.789 51.879-29.953v-48.46C269.868 332.709 242.081 320.464 221.768 300.604zM211.835 450.651h-80.299c-9.69 12.385-16.59 26.579-20.425 41.565 27.355 7.661 51.853 25.603 67.179 52.148.002.004.004.008.007.012l41.99-24.243v-59.896-9.587H211.835zM122.684 576.47c-15.325-26.545-18.614-56.734-11.572-84.253-14.884-4.169-30.614-5.292-46.173-3.099l-40.143 69.53-4.218 7.306 8.291 4.786 51.883 29.955 41.939-24.213C122.688 576.477 122.686 576.474 122.684 576.47z"/>
      <path class="shape-9" d="M178.29,544.365c-15.326-26.546-39.823-44.487-67.179-52.148c-7.042,27.52-3.753,57.708,11.572,84.253 c0.002,0.004,0.004,0.007,0.007,0.011l27.829-16.067l27.777-16.037C178.294,544.373,178.292,544.369,178.29,544.365z"/>
      <path class="shape-12" d="M260.4 150.6L240.3 185.3 248.7 190.1 300.5 220 300.5 160.2 300.5 150.6zM272.1 111L220.3 81.1 220.3 141 220.3 150.6 260.4 150.6 280.5 115.8z"/>
      <path class="shape-13" d="M220.3 173.7L240.3 185.3 260.4 150.6 220.3 150.6zM260.4 150.6L300.5 150.6 300.5 127.4 280.5 115.8z"/>
      <path class="shape-12" d="M29 -29.4L20.6 -34.2 0.5 0.5 20.6 35.3 28.9 30.4 80.8 0.5z"/>
      <path class="shape-13" d="M0.5 46.8L20.6 35.3 0.5 0.5 -19.5 35.3z"/>
      <path class="shape-12" d="M28.9 570.7L20.6 566 0.5 600.7 20.6 635.4 28.9 630.6 80.8 600.7z"/>
      <path class="shape-13" d="M0.5 554.4L-19.5 566 0.5 600.7 20.6 566z"/>
    </g>
    <g>
      <path class="shape-2" d="M665.735 48.635c4.797 11.888 7.439 24.877 7.439 38.483 0 .557-.012 1.112-.021 1.667 19.094-11.463 34.152-28.949 42.572-49.825L693.523.504 665.735 48.635zM367.381 88.785c-.009-.555-.021-1.109-.021-1.667 0-13.607 2.643-26.597 7.44-38.485L347.011.501l-22.203 38.457C333.228 59.834 348.286 77.321 367.381 88.785z"/>
      <path class="shape-2" d="M405.84 102.396c-13.904-1.953-26.917-6.682-38.459-13.612.37 23.287 8.48 44.691 21.863 61.763h44.397L405.84 102.396zM634.696 102.396l-27.801 48.152h44.396c13.383-17.072 21.493-38.476 21.863-61.763C661.611 95.714 648.599 100.444 634.696 102.396z"/>
      <path class="shape-3" d="M367.36 87.118c0 .557.012 1.112.021 1.667 11.542 6.93 24.555 11.659 38.459 13.612L374.8 48.633C370.002 60.521 367.36 73.511 367.36 87.118zM665.735 48.635l-31.039 53.761c13.903-1.952 26.916-6.682 38.458-13.611.009-.555.021-1.109.021-1.667C673.174 73.512 670.532 60.523 665.735 48.635z"/>
      <path class="shape-2" d="M520.267,177.062c-12.026-6.7-22.561-15.748-31.003-26.514h-55.624l22.205,38.46 c4.711,0.661,9.521,1.01,14.415,1.01C488.412,190.018,505.461,185.312,520.267,177.062z"/>
      <path class="shape-2" d="M551.27,150.548c-8.442,10.766-18.977,19.814-31.003,26.514c14.806,8.25,31.855,12.956,50.007,12.956 c4.894,0,9.705-0.349,14.416-1.01l22.205-38.46H551.27z"/>
      <path class="shape-3" d="M520.267,177.062c12.026-6.7,22.561-15.748,31.003-26.514h-62.006 C497.707,161.314,508.241,170.362,520.267,177.062z"/>
      <path class="shape-4" d="M625.848.503c17.814 11.454 31.865 28.253 39.887 48.132l27.788-48.131-27.788-48.131C657.712-27.749 643.663-10.95 625.848.503zM414.686.503c-17.814-11.454-31.865-28.253-39.887-48.132l-27.788 48.13L374.8 48.633C382.822 28.755 396.872 11.956 414.686.503zM420.267 103.403c-4.897 0-9.712-.345-14.427-1.007l27.8 48.151h55.624c-12.779-16.296-20.754-36.537-21.773-58.601C453.347 99.266 437.291 103.403 420.267 103.403zM573.043 91.947c-1.02 22.064-8.995 42.305-21.773 58.601h55.625l27.801-48.152c-4.715.662-9.531 1.007-14.429 1.007C603.243 103.403 587.187 99.266 573.043 91.947z"/>
      <path class="shape-5" d="M625.848,0.503c17.814-11.453,31.864-28.252,39.887-48.13l-31.039-53.761 c-4.715-0.662-9.531-1.007-14.429-1.007c-17.024,0-33.08,4.138-47.224,11.457c-1.019-22.065-8.995-42.307-21.774-58.604h-62.004 c-12.779,16.296-20.755,36.539-21.774,58.604c-14.144-7.319-30.2-11.457-47.224-11.457c-4.898,0-9.715,0.345-14.43,1.007 l-31.038,53.759c8.022,19.878,22.072,36.678,39.887,48.132c-17.814,11.453-31.864,28.252-39.886,48.13l31.04,53.764 c4.714,0.662,9.53,1.007,14.427,1.007c17.024,0,33.08-4.138,47.224-11.457c1.02,22.064,8.995,42.305,21.773,58.601h62.006 c12.779-16.296,20.754-36.537,21.773-58.601c14.144,7.319,30.2,11.457,47.224,11.457c4.897,0,9.714-0.345,14.429-1.007 l31.039-53.761C657.713,28.756,643.663,11.957,625.848,0.503z"/>
      <path class="shape-6" d="M862.231,56.839c-5.081-8.781-9.021-18.305-11.593-28.378c-9.663,2.699-19.847,4.146-30.371,4.146v48.46 L862.231,56.839z"/>
      <path class="shape-7" d="M862.23-55.834c-5.081,8.781-9.021,18.304-11.592,28.377c-9.663-2.699-19.847-4.146-30.371-4.146V0.504 v32.103c10.523,0,20.708-1.447,30.371-4.146c2.572,10.074,6.512,19.598,11.593,28.378l27.803-16.052l27.813-16.058 c-5.162-8.92-11.508-17.069-18.829-24.227c7.321-7.157,13.666-15.306,18.828-24.225l-27.809-16.056L862.23-55.834z"/>
      <path class="shape-6" d="M709.633,272.636c10.02-2.812,20.247-4.162,30.401-4.149v-48.457l-41.99,24.243 C703.302,253.383,707.139,262.923,709.633,272.636z"/>
      <path class="shape-9" d="M820.267,32.606V0.504v-32.107c-30.652,0-58.439,12.246-78.751,32.104 C761.828,20.361,789.615,32.606,820.267,32.606z"/>
      <path class="shape-10" d="M347.011.501l-22.181 38.418c-5.88-14.564-14.714-27.619-25.764-38.42 11.048-10.801 19.882-23.855 25.763-38.42L347.011.501zM433.641 150.548l22.181 38.418c-15.553-2.19-31.275-1.067-46.154 3.102-3.83-14.969-10.719-29.146-20.391-41.521L433.641 150.548zM606.895 150.548l44.362 0c-9.674 12.374-16.562 26.552-20.392 41.522-14.878-4.167-30.601-5.29-46.153-3.102L606.895 150.548zM693.523.504l22.181-38.418c5.88 14.564 14.714 27.62 25.764 38.42-11.048 10.801-19.882 23.856-25.763 38.419L693.523.504z"/>
      <path class="shape-9" d="M299.024,0.504c-20.312-19.858-48.101-32.105-78.752-32.105c-0.002,0-0.003,0-0.005,0V0.504v32.104 c0.002,0,0.003,0,0.005,0C250.925,32.608,278.712,20.363,299.024,0.504z"/>
      <path class="shape-8" d="M299.024.504c-20.312 19.859-48.1 32.104-78.752 32.104-.002 0-.003 0-.005 0v48.459l51.878 29.952 8.293 4.788 4.22-7.309 40.146-69.534C318.924 24.384 310.083 11.315 299.024.504zM389.201 150.548h-80.242-8.462v9.599 59.882l16.741 9.665 25.226 14.564c15.327-26.537 39.822-44.474 67.171-52.134C405.799 177.134 398.896 162.936 389.201 150.548z"/>
      <path class="shape-9" d="M409.634,192.125c-27.349,7.66-51.844,25.597-67.171,52.134l27.804,16.052l27.803,16.052 C413.389,249.82,416.676,219.64,409.634,192.125z"/>
      <path class="shape-8" d="M741.516.501c-11.061 10.813-19.903 23.886-25.783 38.47l40.138 69.522 4.223 7.315 8.294-4.789 51.879-29.953v-48.46C789.615 32.606 761.828 20.361 741.516.501zM731.583 150.548h-80.299c-9.69 12.385-16.59 26.579-20.425 41.565 27.355 7.661 51.853 25.603 67.179 52.148.002.004.004.008.007.012l41.99-24.243v-59.896-9.587H731.583zM495.964 258.496l-40.105-69.464c-15.576-2.203-31.324-1.082-46.225 3.092 7.042 27.516 3.755 57.696-11.564 84.238l16.895 9.754 25.07 14.474 51.83-29.924 8.344-4.817L495.964 258.496zM642.431 276.367c-15.325-26.545-18.614-56.734-11.572-84.253-14.884-4.169-30.614-5.292-46.173-3.099l-40.143 69.53-4.218 7.306 8.291 4.786 51.883 29.955 41.939-24.213C642.436 276.374 642.433 276.371 642.431 276.367z"/>
      <path class="shape-9" d="M698.038,244.262c-15.326-26.546-39.823-44.487-67.179-52.148c-7.042,27.52-3.753,57.708,11.572,84.253 c0.002,0.004,0.004,0.007,0.007,0.011l27.829-16.067l27.777-16.037C698.042,244.27,698.04,244.266,698.038,244.262z"/>
      <path class="shape-12" d="M780.2 150.5L740 150.5 740 160.1 740 220 791.9 190.1 800.2 185.3zM768.4 111L760.1 115.8 780.2 150.5 820.3 150.5 820.3 140.9 820.3 81.1z"/>
      <path class="shape-13" d="M740 150.5L780.2 150.5 760.1 115.8 740 127.4zM820.3 173.7L820.3 150.5 780.2 150.5 800.2 185.3z"/>
    </g>
    <g>
      <path class="shape-2" d="M1009.013 150.531c8.442-10.766 18.977-19.813 31.002-26.514-14.806-8.25-31.855-12.956-50.007-12.956-4.894 0-9.705.349-14.416 1.01l-22.205 38.459H1009.013zM887.129 388.858c-.009-.555-.021-1.109-.021-1.667 0-13.607 2.643-26.597 7.44-38.485l-27.789-48.132-22.203 38.457C852.976 359.908 868.034 377.395 887.129 388.858zM925.588 402.47c-13.904-1.953-26.917-6.682-38.459-13.612.37 23.287 8.48 44.691 21.863 61.763h44.397L925.588 402.47z"/>
      <path class="shape-3" d="M1040.015 124.018c-12.025 6.7-22.56 15.748-31.002 26.514h62.004C1062.575 139.766 1052.041 130.718 1040.015 124.018zM887.108 387.192c0 .557.012 1.112.021 1.667 11.542 6.93 24.555 11.659 38.459 13.612l-31.04-53.764C889.75 360.595 887.108 373.584 887.108 387.192z"/>
      <path class="shape-2" d="M925.585,198.686l27.802-48.154h-44.395c-13.384,17.073-21.494,38.478-21.864,61.766 C898.67,205.368,911.682,200.638,925.585,198.686z"/>
      <path class="shape-2" d="M894.547 252.445c-4.797-11.888-7.439-24.877-7.439-38.483 0-.557.012-1.11.021-1.665-19.093 11.463-34.151 28.948-42.571 49.823l22.202 38.455L894.547 252.445zM1040.015 477.136c-12.026-6.7-22.561-15.748-31.003-26.514h-55.624l22.205 38.46c4.711.661 9.521 1.01 14.415 1.01C1008.16 490.091 1025.209 485.385 1040.015 477.136z"/>
      <path class="shape-3" d="M1040.015 477.136c12.026-6.7 22.561-15.748 31.003-26.514h-62.006C1017.455 461.388 1027.989 470.436 1040.015 477.136zM887.129 212.297c-.009.554-.021 1.108-.021 1.665 0 13.606 2.642 26.595 7.439 38.483l31.038-53.759C911.682 200.638 898.67 205.368 887.129 212.297z"/>
      <path class="shape-4" d="M987.239 209.135c1.019-22.065 8.995-42.308 21.774-58.604h-55.625l-27.802 48.154c4.715-.662 9.532-1.007 14.43-1.007C957.039 197.678 973.095 201.816 987.239 209.135zM934.434 300.577c-17.814-11.454-31.865-28.253-39.887-48.132l-27.788 48.13 27.789 48.132C902.57 328.829 916.62 312.03 934.434 300.577zM940.015 403.477c-4.897 0-9.712-.345-14.427-1.007l27.8 48.151h55.624c-12.779-16.296-20.754-36.537-21.773-58.601C973.095 399.339 957.039 403.477 940.015 403.477z"/>
      <path class="shape-5" d="M1145.596,300.577c17.814-11.453,31.864-28.252,39.887-48.13l-31.039-53.761 c-4.715-0.662-9.531-1.007-14.429-1.007c-17.024,0-33.08,4.138-47.224,11.457c-1.019-22.065-8.995-42.307-21.774-58.604h-62.004 c-12.779,16.296-20.755,36.539-21.774,58.604c-14.144-7.319-30.2-11.457-47.224-11.457c-4.898,0-9.715,0.345-14.43,1.007 l-31.038,53.759c8.022,19.878,22.072,36.678,39.887,48.132c-17.814,11.453-31.864,28.252-39.886,48.13l31.04,53.764 c4.714,0.662,9.53,1.007,14.427,1.007c17.024,0,33.08-4.138,47.224-11.457c1.02,22.064,8.995,42.305,21.773,58.601h62.006 c12.779-16.296,20.754-36.537,21.773-58.601c14.144,7.319,30.2,11.457,47.224,11.457c4.897,0,9.714-0.345,14.429-1.007 l31.039-53.761C1177.461,328.83,1163.411,312.03,1145.596,300.577z"/>
      <path class="shape-6" d="M959.784.489l-41.926-24.206c-5.065 8.797-11.347 16.977-18.79 24.247 7.159 7.008 13.496 15.09 18.752 24.187l41.925-24.206L959.784.489zM917.818 576.437c-.003.005-.005.01-.008.015-5.262 9.113-11.607 17.21-18.775 24.229 7.435 7.262 13.711 15.432 18.774 24.219l41.975-24.234-25.07-14.474L917.818 576.437z"/>
      <path class="shape-10" d="M953.388 150.531h-44.362c9.673-12.375 16.562-26.553 20.392-41.522 14.878 4.167 30.601 5.291 46.153 3.101L953.388 150.531zM866.759 300.575l-22.181 38.418c-5.88-14.564-14.714-27.619-25.764-38.42 11.048-10.801 19.882-23.855 25.763-38.42L866.759 300.575zM953.389 450.622l22.181 38.418c-15.553-2.19-31.275-1.067-46.154 3.102-3.83-14.969-10.719-29.146-20.391-41.521L953.389 450.622z"/>
      <path class="shape-8" d="M1011.61,30.411L959.784,0.489l-0.039,0.022L917.82,24.716c0.008,0.014,0.017,0.027,0.025,0.041 c15.325,26.545,18.613,56.733,11.571,84.253c14.878,4.167,30.6,5.29,46.152,3.102l40.138-69.521l4.25-7.362L1011.61,30.411z"/>
      <path class="shape-9" d="M862.238,56.862c15.326,26.545,39.824,44.487,67.179,52.148c7.042-27.521,3.754-57.708-11.571-84.253 c-0.008-0.014-0.017-0.027-0.025-0.041L890.015,40.77L862.214,56.82C862.223,56.834,862.23,56.849,862.238,56.862z"/>
      <path class="shape-8" d="M804.441 192.637l-4.251-7.364-8.349 4.82-51.826 29.921v48.458c.002 0 .003 0 .005 0 30.651 0 58.439 12.247 78.752 32.105 11.06-10.812 19.901-23.883 25.781-38.464L804.441 192.637zM862.238 56.862c-.008-.014-.015-.028-.023-.042L849.8 63.988 820.248 81.05v59.888 9.593h8.456l80.322 0c9.672-12.375 16.561-26.552 20.39-41.521C902.062 101.349 877.564 83.408 862.238 56.862z"/>
      <path class="shape-9" d="M818.772,300.578c-20.312-19.858-48.101-32.105-78.752-32.105c-0.002,0-0.003,0-0.005,0v32.105v32.104 c0.002,0,0.003,0,0.005,0C770.673,332.682,798.46,320.437,818.772,300.578z"/>
      <path class="shape-8" d="M818.772 300.578c-20.312 19.859-48.1 32.104-78.752 32.104-.002 0-.003 0-.005 0v48.459l51.878 29.952 8.293 4.788 4.22-7.309 40.146-69.534C838.672 324.458 829.831 311.389 818.772 300.578zM908.949 450.622h-80.242-8.462v9.599 59.882l16.741 9.665 25.226 14.564c15.327-26.537 39.822-44.474 67.171-52.134C925.547 477.208 918.644 463.009 908.949 450.622z"/>
      <path class="shape-9" d="M929.382,492.198c-27.349,7.66-51.844,25.597-67.171,52.134l27.804,16.052l27.803,16.052 C933.137,549.894,936.424,519.714,929.382,492.198z"/>
      <path class="shape-8" d="M1015.712,558.57l-40.105-69.464c-15.576-2.203-31.324-1.082-46.225,3.092 c7.042,27.516,3.755,57.696-11.564,84.238l16.895,9.754l25.07,14.474l51.83-29.924l8.344-4.817L1015.712,558.57z"/>
      <path class="shape-12" d="M1020 -34.3L1011.6 -29.4 959.8 0.5 1011.6 30.4 1020 35.2 1040 0.5z"/>
      <path class="shape-13" d="M1040 46.8L1060.1 35.2 1040 0.5 1020 35.2z"/>
      <path class="shape-12" d="M1020 565.9L1011.6 570.7 959.8 600.7 1011.6 630.6 1020 635.4 1040 600.7z"/>
      <path class="shape-13" d="M1040 554.3L1020 565.9 1040 600.7 1060.1 565.9z"/>
    </g>
  </g>
  <g class="guides">
    <path d="M-299.5 127.4L-149.5 40.8.5-45.8 150.5 40.8 300.5 127.4 300.5 300.6 300.5 473.8 150.5 560.4.5 647-149.5 560.4-299.5 473.8-299.5 300.6zM.5-45.8L.5 647M-299.5 127.4L300.5 473.8M-299.5 473.8L300.5 127.4"/>
    <circle cx=".5" cy="300.6" r="100"/>
    <path d="M-86.1 250.6L0.5 200.6 87.1 250.6 87.1 350.6 0.5 400.6 -86.1 350.6z"/>
    <path d="M-86.1 150.5L173.7 300.5 -86.1 450.5z"/>
    <path d="M87.1 450.6L-172.7 300.6 87.1 150.6z"/>
    <path d="M-86.1 450.6L-172.8 300.6-86.1 150.5 87.1 150.5 173.8 300.6 87.1 450.6zM173.8 300.6L.5 600.7"/>
    <path d="M260.4 150.5L0.5 600.7 -259.4 150.5z"/>
    <path d="M260.4 450.6L-259.4 450.6.5.5zM-149.5 40.8L300.5 820.2M300.5-219L-149.5 560.4M-299.5 300.6L1213.3 300.6"/>
    <path d="M220.3 427.5L370.3 340.9 520.3 254.3 670.3 340.9 820.3 427.5 820.3 600.7 820.3 773.9 670.3 860.5 520.3 947.1 370.3 860.5 220.3 773.9 220.3 600.7zM520.3 254.3L520.3 947.1M220.3 427.5L820.3 773.9M220.3 773.9L820.3 427.5"/>
    <circle cx="520.3" cy="600.7" r="100"/>
    <path d="M433.7 550.7L520.3 500.7 606.9 550.7 606.9 650.7 520.3 700.7 433.7 650.7z"/>
    <path d="M433.7 450.6L693.5 600.6 433.7 750.6z"/>
    <path d="M606.9 750.7L347.1 600.7 606.9 450.7z"/>
    <path d="M433.6 750.7L347 600.7 433.6 450.6 606.9 450.6 693.5 600.7 606.9 750.7zM693.5 600.7L520.3 900.8"/>
    <path d="M780.2 450.6L520.3 900.8 260.4 450.6z"/>
    <path d="M780.2 750.7L260.4 750.7 520.3 300.6z"/>
    <path d="M780.2 450.6L520.3 900.8 260.4 450.6zM109.9-110.1L670.3 860.5M927-103.8L370.3 860.5M220.3 600.7L820.3 600.7"/>
    <g>
      <path d="M220.3-172.7L370.3-259.3 520.3-345.9 670.3-259.3 820.3-172.7 820.3.5 820.3 173.7 670.3 260.3 520.3 346.9 370.3 260.3 220.3 173.7 220.3.5zM520.3-345.9L520.3 346.9M220.3-172.7L820.3 173.7M220.3 173.7L820.3-172.7"/>
      <circle cx="520.3" cy=".5" r="100"/>
      <path d="M433.7 -49.5L520.3 -99.5 606.9 -49.5 606.9 50.5 520.3 100.5 433.7 50.5z"/>
      <path d="M433.7 -149.6L693.5 0.4 433.7 150.4z"/>
      <path d="M606.9 150.5L347.1 0.5 606.9 -149.5z"/>
      <path d="M433.6 150.5L347 .5 433.6-149.5 606.9-149.5 693.5.5 606.9 150.5zM693.5.5L520.3 300.6"/>
      <path d="M780.2 -149.5L520.3 300.6 260.4 -149.5z"/>
      <path d="M780.1 150.5L260.4 150.5 520.3 -299.6z"/>
      <path d="M780.2-149.5L520.3 300.6 260.4-149.5zM370.3-259.3L929.4 709.2M670.3-259.3L113.6 704.9M220.3.5L820.3.5"/>
    </g>
    <g>
      <path d="M740 127.4L890 40.8 1040-45.8 1190 40.8 1340 127.4 1340 300.6 1340 473.8 1190 560.4 1040 647 890 560.4 740 473.8 740 300.6zM1040-45.8L1040 647M740 127.4L1340 473.8M740 473.8L1340 127.4"/>
      <circle cx="1040" cy="300.6" r="100"/>
      <path d="M953.4 250.6L1040 200.6 1126.6 250.6 1126.6 350.6 1040 400.6 953.4 350.6z"/>
      <path d="M953.4 150.5L1213.2 300.5 953.4 450.5z"/>
      <path d="M1126.6 450.6L866.8 300.6 1126.6 150.6z"/>
      <path d="M953.4 450.6L866.8 300.6 953.4 150.5 1126.7 150.5 1213.3 300.6 1126.7 450.6zM1213.3 300.6L1040 600.7"/>
      <path d="M1299.9 150.5L1040 600.7 780.2 150.5z"/>
      <path d="M1299.9 450.6L780.2 450.6 1040 0.5z"/>
      <path d="M1299.9 150.5L1040 600.7 780.2 150.5zM740-219L1190 560.4M1190 40.8L740 820.2"/>
    </g>
    <g>
      <path d="M-299.5 -472.8L-149.5 -559.4 0.5 -646 150.5 -559.4 300.5 -472.8 300.5 -299.6 300.5 -126.4 150.5 -39.8 0.5 46.8 -149.5 -39.8 -299.5 -126.4 -299.5 -299.6z"/>
    </g>
    <g>
      <path d="M-299.5 727.6L-149.5 641 0.5 554.4 150.5 641 300.5 727.6 300.5 900.8 300.5 1074 150.5 1160.6 0.5 1247.2 -149.5 1160.6 -299.5 1074 -299.5 900.8z"/>
    </g>
    <g>
      <path d="M740 -472.8L890 -559.4 1040 -646 1190 -559.4 1340 -472.8 1340 -299.6 1340 -126.4 1190 -39.8 1040 46.8 890 -39.8 740 -126.4 740 -299.6z"/>
    </g>
    <g>
      <path d="M740 727.6L890 641 1040 554.4 1190 641 1340 727.6 1340 900.8 1340 1074 1190 1160.6 1040 1247.2 890 1160.6 740 1074 740 900.8z"/>
    </g>
    <circle cx="820.3" cy="520.1" r="112.7"/>
    <circle cx="740" cy="381.2" r="112.7"/>
    <circle cx="740" cy="220" r="112.7"/>
    <circle cx="820.3" cy="81.1" r="112.7"/>
    <circle cx="820.27" cy="-80.06" r="112.667"/>
    <circle cx="959.8" cy=".5" r="112.7"/>
    <circle cx="80.7" cy=".5" r="112.7"/>
    <circle cx="220.3" cy="-80.1" r="112.7"/>
    <circle cx="220.3" cy="81.1" r="112.7"/>
    <circle cx="600.5" cy="300.6" r="112.7"/>
    <circle cx="440" cy="300.6" r="112.7"/>
    <circle cx="300.5" cy="220" r="112.7"/>
    <circle cx="300.5" cy="381.2" r="112.7"/>
    <circle cx="220.3" cy="520.1" r="112.7"/>
    <circle cx="80.7" cy="600.7" r="112.7"/>
    <circle cx="220.3" cy="681.2" r="112.7"/>
    <circle cx="820.3" cy="681.2" r="112.7"/>
    <circle cx="959.8" cy="600.7" r="112.7"/>
    <g>
      <circle cx="620.3" cy="600.7" r="102.9"/>
      <circle cx="570.3" cy="514.1" r="102.9"/>
      <circle cx="470.3" cy="514.1" r="102.9"/>
      <circle cx="420.3" cy="600.7" r="102.9"/>
      <circle cx="470.3" cy="687.3" r="102.9"/>
      <circle cx="570.3" cy="687.3" r="102.9"/>
    </g>
    <g>
      <circle cx="100.5" cy="300.6" r="102.9"/>
      <circle cx="50.5" cy="214" r="102.9"/>
      <circle cx="-49.5" cy="214" r="102.9"/>
      <circle cx="-99.5" cy="300.6" r="102.9"/>
      <circle cx="-49.5" cy="387.2" r="102.9"/>
      <circle cx="50.5" cy="387.2" r="102.9"/>
    </g>
    <g>
      <circle cx="620.3" cy=".5" r="102.9"/>
      <circle cx="570.3" cy="-86.1" r="102.9"/>
      <circle cx="470.3" cy="-86.1" r="102.9"/>
      <circle cx="420.3" cy=".5" r="102.9"/>
      <circle cx="470.3" cy="87.1" r="102.9"/>
      <circle cx="570.3" cy="87.1" r="102.9"/>
    </g>
    <g>
      <circle cx="1140" cy="300.6" r="102.9"/>
      <circle cx="1090" cy="214" r="102.9"/>
      <circle cx="990" cy="214" r="102.9"/>
      <circle cx="940" cy="300.6" r="102.9"/>
      <circle cx="990" cy="387.2" r="102.9"/>
      <circle cx="1090" cy="387.2" r="102.9"/>
    </g>
    <path d="M0.5 0.5H1040V600.7H0.5z"/>
  </g>
</svg>
