<svg version="1.1" xmlns="http://www.w3.org/2000/svg" width="292.69" height="506.954" viewBox="0 0 100% 100%">
  <style>
    :root {
      --golden: #907A58;
      --darkBlue: #475387;
      --beige: #DFD8CC;
      --teal: #4A9AC4;
      --gray: #A49DA0;
      --smaragd: #406A72;
      --sand: #D3BDA7;
      --grayGreen: #A2D1D6;
      --blueGray: #758390;
      --lightBrown: #AA8858;
      --blue1: #8EC5EE;
      --blue2: #8CC6EA;
      --blue3: #B6DAEC;
      --rust: #D8692D;
      --yellow: #F8C346;
    }
    .shape-1{fill:var(--sand)}
    .shape-2{fill:var(--grayGreen)}
    .shape-3{fill:var(--teal)}
    .shape-4{fill:var(--golden)}
    .shape-5{fill:var(--darkBlue)}
    .shape-6{fill:var(--golden)}
    .shape-7{fill:var(--blue3)}
    .line{stroke:#fff;stroke-width:5px}
    .guides{ stroke: #4FFF4F; display: none; fill: none}
  </style>

  <g id="pattern" class="line">
    <polygon class="shape-1" points="120.504,84.994 107.334,107.805 133.674,107.805 146.844,84.994    "/>
    <polygon class="shape-1" points="146.844,84.994 133.674,107.805 146.844,130.616 160.014,107.805     "/>
    <polygon class="shape-1" points="146.844,84.994 173.184,84.994 186.354,107.805 160.014,107.805    "/>
    <polygon class="shape-1" points="120.504,422.963 107.334,445.774 133.674,445.774 146.844,422.963    "/>
    <polygon class="shape-1" points="146.844,422.963 133.674,445.774 146.844,468.585 160.014,445.774    "/>
    <polygon class="shape-1" points="146.844,422.963 173.184,422.963 186.354,445.774 160.014,445.774    "/>
    <polygon class="shape-1" points="120.504,422.963 107.334,400.151 133.674,400.151 146.844,422.963    "/>
    <polygon class="shape-1" points="146.844,422.963 133.674,400.151 146.844,377.341 160.014,400.151    "/>
    <polygon class="shape-1" points="146.844,422.963 173.184,422.963 186.354,400.151 160.014,400.151    "/>
    <polygon class="shape-1" points="120.504,84.994 107.334,62.183 133.674,62.183 146.844,84.994    "/>
    <polygon class="shape-1" points="146.844,84.994 133.674,62.183 146.844,39.372 160.014,62.183    "/>
    <polygon class="shape-1" points="146.844,84.994 173.184,84.994 186.354,62.183 160.014,62.183    "/>
    <polygon class="shape-1" points="-12.67,192.298 0.5,215.108 13.669,192.298 0.5,169.487    "/>
    <polygon class="shape-1" points="0.5,169.487 13.669,192.298 40.009,192.298 26.839,169.487     "/>
    <polygon class="shape-1" points="0.5,169.487 13.669,146.676 40.009,146.676 26.839,169.487     "/>
    <polygon class="shape-1" points="280.019,361.282 293.189,384.093 306.359,361.282 293.189,338.472    "/>
    <polygon class="shape-1" points="280.019,361.282 253.679,361.282 266.849,338.472 293.189,338.472    "/>
    <polygon class="shape-1" points="293.189,338.472 266.849,338.472 253.679,315.66 280.019,315.66    "/>
    <polygon class="shape-1" points="293.189,338.472 306.359,315.66 293.189,292.849 280.019,315.66    "/>
    <polygon class="shape-1" points="0.5,169.487 13.669,146.675 0.5,123.864 -12.67,146.675    "/>
    <polygon class="shape-1" points="293.19,169.487 280.02,146.677 293.19,123.865 306.361,146.677     "/>
    <polygon class="shape-1" points="293.19,169.487 280.02,192.298 253.679,192.298 266.849,169.487    "/>
    <polygon class="shape-1" points="306.359,192.298 293.189,215.109 280.02,192.298 293.19,169.487    "/>
    <polygon class="shape-1" points="293.19,169.487 280.019,146.676 253.679,146.676 266.849,169.487     "/>
    <polygon class="shape-1" points="13.668,361.282 40.008,361.282 26.838,338.472 0.499,338.472     "/>
    <polygon class="shape-1" points="0.499,338.472 26.838,338.472 40.008,315.661 13.669,315.661     "/>
    <polygon class="shape-1" points="0.499,338.472 -12.671,315.661 0.499,292.85 13.669,315.661    "/>
    <polygon class="shape-1" points="13.667,361.282 0.498,384.094 -12.671,361.282 0.499,338.472     "/>
    <polygon class="shape-2" points="120.504,84.994 84.991,84.994 84.991,120.705 107.334,107.805    "/>
    <polygon class="shape-2" points="173.184,84.994 208.698,84.994 208.698,120.705 186.354,107.805    "/>
    <polygon class="shape-2" points="133.674,107.805 107.334,107.805 84.991,120.705 115.917,138.56    "/>
    <polygon class="shape-2" points="146.844,130.616 133.674,107.805 115.917,138.56 146.844,156.416     "/>
    <polygon class="shape-2" points="160.014,107.805 186.354,107.805 208.698,120.705 177.771,138.56     "/>
    <polygon class="shape-2" points="146.844,130.616 160.014,107.805 177.771,138.56 146.844,156.416     "/>
    <polygon class="shape-2" points="120.504,422.963 84.991,422.963 84.991,458.674 107.334,445.774    "/>
    <polygon class="shape-2" points="173.184,422.963 208.698,422.963 208.698,458.674 186.354,445.774    "/>
    <polygon class="shape-2" points="133.674,445.774 107.334,445.774 84.991,458.674 115.917,476.528     "/>
    <polygon class="shape-2" points="146.844,468.585 133.674,445.774 115.917,476.528 146.844,494.384    "/>
    <polygon class="shape-2" points="160.014,445.774 186.354,445.774 208.698,458.674 177.771,476.528    "/>
    <polygon class="shape-2" points="146.844,468.585 160.014,445.774 177.771,476.528 146.844,494.384    "/>
    <polygon class="shape-2" points="120.504,422.963 84.991,422.963 84.991,387.252 107.334,400.151    "/>
    <polygon class="shape-2" points="173.184,422.963 208.698,422.963 208.698,387.252 186.354,400.151    "/>
    <polygon class="shape-2" points="133.674,400.151 107.334,400.151 84.991,387.252 115.917,369.397     "/>
    <polygon class="shape-2" points="146.844,377.341 133.674,400.151 115.917,369.397 146.844,351.542    "/>
    <polygon class="shape-2" points="160.014,400.151 186.354,400.151 208.698,387.252 177.771,369.397    "/>
    <polygon class="shape-2" points="146.844,377.341 160.014,400.151 177.771,369.397 146.844,351.542    "/>
    <polygon class="shape-2" points="120.504,84.994 84.991,84.994 84.991,49.283 107.334,62.183    "/>
    <polygon class="shape-2" points="173.184,84.994 208.698,84.994 208.698,49.283 186.354,62.183    "/>
    <polygon class="shape-2" points="133.674,62.183 107.334,62.183 84.991,49.283 115.917,31.429     "/>
    <polygon class="shape-2" points="146.844,39.372 133.674,62.183 115.917,31.429 146.844,13.573    "/>
    <polygon class="shape-2" points="160.014,62.183 186.354,62.183 208.698,49.283 177.771,31.429    "/>
    <polygon class="shape-2" points="146.844,39.372 160.014,62.183 177.771,31.429 146.844,13.573    "/>
    <polygon class="shape-2" points="13.669,146.676 31.426,115.92 62.353,133.776 40.009,146.676     "/>
    <polygon class="shape-2" points="13.669,192.298 0.5,215.108 0.5,240.909 31.425,223.053    "/>
    <polygon class="shape-2" points="40.009,192.298 13.669,192.298 31.425,223.053 62.353,205.197    "/>
    <polygon class="shape-2" points="26.839,169.487 40.009,146.676 62.353,133.776 62.353,169.486    "/>
    <polygon class="shape-2" points="40.009,192.298 26.839,169.487 62.353,169.486 62.353,205.197    "/>
    <polygon class="shape-2" points="280.019,361.282 262.262,392.038 293.189,409.894 293.189,384.093    "/>
    <polygon class="shape-2" points="280.019,361.282 262.262,392.038 231.335,374.183 253.679,361.282    "/>
    <polygon class="shape-2" points="266.849,338.472 253.679,361.282 231.335,374.183 231.337,338.472    "/>
    <polygon class="shape-2" points="253.679,315.66 266.849,338.472 231.337,338.472 231.337,302.761     "/>
    <polygon class="shape-2" points="280.019,315.66 293.189,292.849 293.189,267.05 262.263,284.905    "/>
    <polygon class="shape-2" points="253.679,315.66 280.019,315.66 262.263,284.905 231.337,302.761    "/>
    <polygon class="shape-2" points="13.669,146.675 31.426,115.92 0.5,98.065 0.5,123.864    "/>
    <polygon class="shape-2" points="280.02,146.677 262.264,115.921 293.19,98.064 293.19,123.865    "/>
    <polygon class="shape-2" points="280.019,146.676 262.263,115.921 231.337,133.776 253.679,146.676    "/>
    <polygon class="shape-2" points="280.02,192.298 293.189,215.109 293.19,240.91 262.264,223.052     "/>
    <polygon class="shape-2" points="253.679,192.298 280.02,192.298 262.264,223.052 231.337,205.197     "/>
    <polygon class="shape-2" points="266.849,169.487 253.679,146.676 231.337,133.776 231.337,169.487    "/>
    <polygon class="shape-2" points="253.679,192.298 266.849,169.487 231.337,169.487 231.337,205.197    "/>
    <polygon class="shape-2" points="13.668,361.282 31.426,392.038 62.352,374.183 40.008,361.282    "/>
    <polygon class="shape-2" points="26.838,338.472 40.008,361.282 62.352,374.183 62.352,338.472    "/>
    <polygon class="shape-2" points="40.008,315.661 26.838,338.472 62.352,338.472 62.352,302.76     "/>
    <polygon class="shape-2" points="13.669,315.661 0.499,292.85 0.499,267.049 31.425,284.904     "/>
    <polygon class="shape-2" points="40.008,315.661 13.669,315.661 31.425,284.904 62.352,302.76     "/>
    <polygon class="shape-2" points="13.667,361.282 31.425,392.038 0.499,409.894 0.498,384.094    "/>
    <polyline class="shape-3" points="208.698,84.994 244.408,84.994 220.017,127.241 208.698,120.705 208.698,84.994    "/>
    <polyline class="shape-3" points="231.336,169.486 195.626,169.486 220.017,127.24 231.336,133.775 231.336,169.486    "/>
    <polygon class="shape-3" points="244.408,84.994 220.017,127.24 231.336,133.775 262.262,115.92     "/>
    <polygon class="shape-3" points="208.698,120.705 177.771,138.56 195.626,169.486 220.017,127.241     "/>
    <polyline class="shape-3" points="84.988,422.962 49.278,422.962 73.668,380.716 84.988,387.251 84.988,422.962    "/>
    <polyline class="shape-3" points="62.349,338.47 98.059,338.47 73.668,380.716 62.349,374.181 62.349,338.47     "/>
    <polygon class="shape-3" points="49.278,422.962 73.668,380.716 62.349,374.181 31.423,392.036    "/>
    <polygon class="shape-3" points="84.988,387.251 115.915,369.396 98.059,338.47 73.668,380.716    "/>
    <polyline class="shape-3" points="31.426,115.917 49.281,84.992 73.673,127.237 62.353,133.773 31.426,115.917     "/>
    <polyline class="shape-3" points="115.917,138.558 98.063,169.483 73.671,127.237 84.992,120.702 115.917,138.558    "/>
    <polygon class="shape-3" points="49.281,84.992 73.671,127.237 84.992,120.702 84.992,84.992    "/>
    <polygon class="shape-3" points="62.353,133.773 62.353,169.483 98.063,169.483 73.673,127.237    "/>
    <polyline class="shape-3" points="262.26,392.037 244.406,422.963 220.014,380.717 231.333,374.182 262.26,392.037     "/>
    <polyline class="shape-3" points="177.769,369.396 195.624,338.471 220.014,380.717 208.695,387.252 177.769,369.396     "/>
    <polygon class="shape-3" points="244.406,422.963 220.014,380.717 208.695,387.252 208.695,422.962    "/>
    <polygon class="shape-3" points="231.333,374.182 231.333,338.471 195.624,338.471 220.014,380.717    "/>
    <polyline class="shape-3" points="31.423,223.049 49.279,253.975 0.497,253.976 0.498,240.904 31.423,223.049    "/>
    <polyline class="shape-3" points="177.77,476.528 195.625,507.454 146.843,507.456 146.844,494.384 177.77,476.528     "/>
    <polygon class="shape-3" points="98.063,507.456 146.843,507.456 146.844,494.384 115.918,476.528     "/>
    <polygon class="shape-3" points="0.498,267.045 31.423,284.899 49.279,253.975 0.498,253.974    "/>
    <polyline class="shape-3" points="262.261,284.903 244.406,253.978 293.188,253.979 293.188,267.049 262.261,284.903     "/>
    <polyline class="shape-3" points="115.917,31.428 98.062,0.502 146.844,0.503 146.844,13.573 115.917,31.428     "/>
    <polygon class="shape-3" points="195.626,0.502 146.844,0.503 146.844,13.573 177.77,31.428     "/>
    <polygon class="shape-3" points="293.188,240.908 262.261,223.052 244.406,253.978 293.188,253.979    "/>
    <polygon class="shape-4" points="177.771,138.56 169.483,169.487 146.842,191.995 146.844,156.416     "/>
    <polygon class="shape-4" points="231.336,169.489 208.694,192.127 177.833,200.302 195.625,169.489    "/>
    <polygon class="shape-4" points="115.914,138.56 124.202,169.487 146.842,191.995 146.84,156.416    "/>
    <polygon class="shape-4" points="177.771,369.397 169.483,338.47 146.842,315.962 146.844,351.542     "/>
    <polygon class="shape-4" points="115.914,369.397 124.202,338.47 146.842,315.962 146.84,351.542    "/>
    <polygon class="shape-4" points="115.917,138.559 124.204,169.486 115.85,200.299 98.062,169.486    "/>
    <polygon class="shape-4" points="62.348,169.488 84.989,192.127 115.85,200.299 98.059,169.488    "/>
    <polygon class="shape-4" points="231.336,338.47 208.695,315.83 177.833,307.657 195.625,338.47     "/>
    <polygon class="shape-4" points="177.766,369.399 169.481,338.471 177.833,307.657 195.622,338.472    "/>
    <polygon class="shape-4" points="62.351,169.485 84.991,192.125 93.163,222.987 62.351,205.196    "/>
    <polygon class="shape-4" points="31.422,223.055 62.35,231.34 93.163,222.987 62.349,205.199    "/>
    <polygon class="shape-4" points="262.262,284.903 231.333,276.617 200.52,284.97 231.334,302.759    "/>
    <polygon class="shape-4" points="231.333,338.474 208.694,315.831 200.52,284.97 231.333,302.763    "/>
    <polygon class="shape-4" points="31.423,223.051 62.35,231.338 84.858,253.979 49.279,253.978     "/>
    <polygon class="shape-4" points="31.423,284.907 62.35,276.62 84.858,253.979 49.28,253.981     "/>
    <polygon class="shape-4" points="262.26,223.05 231.333,231.339 208.824,253.979 244.405,253.978    "/>
    <polygon class="shape-4" points="262.26,284.908 231.333,276.618 208.824,253.979 244.405,253.981     "/>
    <polygon class="shape-4" points="31.422,284.903 62.349,276.617 93.163,284.972 62.349,302.759    "/>
    <polygon class="shape-4" points="62.35,338.474 84.991,315.833 93.163,284.972 62.352,302.763     "/>
    <polygon class="shape-4" points="231.333,169.485 208.693,192.127 200.52,222.989 231.333,205.196     "/>
    <polygon class="shape-4" points="262.262,223.056 231.333,231.339 200.52,222.989 231.334,205.2     "/>
    <polygon class="shape-4" points="62.348,338.47 84.989,315.831 115.85,307.659 98.059,338.47    "/>
    <polygon class="shape-4" points="115.917,369.399 124.204,338.472 115.85,307.659 98.063,338.472    "/>
    <polygon class="shape-4" points="177.766,138.56 169.481,169.488 177.833,200.302 195.622,169.487     "/>
    <polygon class="shape-4" points="262.258,115.92 270.546,84.992 293.187,62.484 293.185,98.064    "/>
    <polygon class="shape-4" points="177.768,31.43 208.695,23.143 231.203,0.502 195.625,0.504     "/>
    <polygon class="shape-4" points="177.767,31.426 208.694,23.14 239.507,31.494 208.694,49.281     "/>
    <polygon class="shape-4" points="208.695,84.996 231.335,62.355 239.507,31.494 208.697,49.285    "/>
    <polygon class="shape-4" points="208.693,84.992 231.333,62.354 262.195,54.182 244.404,84.992    "/>
    <polygon class="shape-4" points="262.261,115.922 270.548,84.994 262.195,54.182 244.408,84.994     "/>
    <polygon class="shape-4" points="31.427,392.035 23.139,422.962 0.499,445.47 0.5,409.891     "/>
    <polygon class="shape-4" points="84.993,422.964 62.35,445.603 31.49,453.776 49.281,422.964    "/>
    <polygon class="shape-4" points="115.917,476.525 84.989,484.813 62.48,507.454 98.061,507.452    "/>
    <polygon class="shape-4" points="84.989,422.96 62.349,445.603 54.176,476.464 84.989,458.671     "/>
    <polygon class="shape-4" points="115.918,476.53 84.99,484.814 54.176,476.464 84.991,458.675     "/>
    <polygon class="shape-4" points="31.422,392.035 23.137,422.964 31.49,453.776 49.278,422.962     "/>
    <polygon class="shape-4" points="262.26,392.035 270.548,422.962 293.189,445.47 293.187,409.891    "/>
    <polygon class="shape-4" points="262.264,392.034 270.55,422.962 262.197,453.774 244.409,422.961     "/>
    <polygon class="shape-4" points="208.695,422.963 231.335,445.603 262.197,453.774 244.406,422.963    "/>
    <polygon class="shape-4" points="208.698,422.96 231.337,445.601 239.509,476.462 208.698,458.671     "/>
    <polygon class="shape-4" points="177.769,476.53 208.697,484.815 239.509,476.462 208.696,458.675     "/>
    <polygon class="shape-4" points="177.77,476.526 208.697,484.813 231.205,507.454 195.625,507.452     "/>
    <polygon class="shape-4" points="31.43,115.917 23.142,84.99 0.501,62.482 0.503,98.062     "/>
    <polygon class="shape-4" points="84.996,84.99 62.354,62.35 31.493,54.177 49.285,84.99     "/>
    <polygon class="shape-4" points="31.425,115.919 23.14,84.991 31.493,54.177 49.281,84.992    "/>
    <polygon class="shape-4" points="115.921,31.423 84.993,23.137 54.179,31.49 84.994,49.279    "/>
    <polygon class="shape-4" points="84.992,84.994 62.353,62.351 54.179,31.49 84.992,49.283     "/>
    <polygon class="shape-4" points="115.919,31.428 84.993,23.138 62.483,0.5 98.064,0.501     "/>
    <polygon class="shape-5" points="124.205,169.487 115.85,200.299 146.844,253.979 146.842,191.995     "/>
    <polygon class="shape-5" points="208.696,192.129 177.833,200.299 146.844,253.98 200.522,222.987     "/>
    <polygon class="shape-5" points="169.48,169.487 177.834,200.299 146.84,253.979 146.842,191.995    "/>
    <polygon class="shape-5" points="124.205,338.47 115.85,307.657 146.844,253.979 146.842,315.962    "/>
    <polygon class="shape-5" points="169.48,338.47 177.834,307.657 146.84,253.979 146.842,315.962     "/>
    <polygon class="shape-5" points="62.352,231.338 84.859,253.979 146.843,253.978 93.163,222.987     "/>
    <polygon class="shape-5" points="84.989,192.128 115.851,200.299 146.841,253.98 93.163,222.987     "/>
    <polygon class="shape-5" points="208.696,315.829 177.833,307.658 146.843,253.978 200.522,284.971    "/>
    <polygon class="shape-5" points="231.333,276.62 208.826,253.978 146.841,253.98 200.522,284.971    "/>
    <polygon class="shape-5" points="84.99,315.829 115.852,307.659 146.842,253.978 93.164,284.972     "/>
    <polygon class="shape-5" points="62.352,276.62 84.859,253.978 146.844,253.98 93.164,284.972     "/>
    <polygon class="shape-5" points="231.333,231.337 208.827,253.979 146.842,253.978 200.522,222.987    "/>
    <polygon class="shape-5" points="270.549,84.992 262.195,54.18 293.189,0.501 293.187,62.484    "/>
    <polygon class="shape-5" points="231.334,62.352 262.197,54.182 293.187,0.5 239.508,31.494     "/>
    <polygon class="shape-5" points="208.697,23.143 231.204,0.5 293.189,0.503 239.508,31.494    "/>
    <polygon class="shape-5" points="62.352,445.604 31.489,453.774 0.5,507.456 54.178,476.462     "/>
    <polygon class="shape-5" points="23.136,422.962 31.491,453.774 0.497,507.454 0.499,445.47     "/>
    <polygon class="shape-5" points="84.99,484.812 62.483,507.454 0.499,507.452 54.178,476.462    "/>
    <polygon class="shape-5" points="270.551,422.962 262.197,453.774 293.191,507.454 293.189,445.47     "/>
    <polygon class="shape-5" points="208.699,484.813 231.206,507.454 293.19,507.452 239.509,476.462     "/>
    <polygon class="shape-5" points="231.335,445.603 262.198,453.774 293.188,507.456 239.509,476.462    "/>
    <polygon class="shape-5" points="23.139,84.99 31.494,54.177 0.5,0.499 0.501,62.482    "/>
    <polygon class="shape-5" points="62.355,62.349 31.493,54.178 0.502,0.498 54.181,31.491    "/>
    <polygon class="shape-5" points="84.992,23.14 62.485,0.498 0.5,0.5 54.181,31.491    "/>
  </g>
  <g class="guides">
      <polygon class="st8" points="49.28,422.964 -48.283,253.979 49.28,84.994 244.408,84.994 341.971,253.979 244.408,422.964  "/>
      <polygon class="st8" points="146.843,422.964 0.499,338.472 0.498,169.487 146.844,84.994 293.189,169.487 293.189,338.471   "/>
      <line class="st8" x1="293.189" y1="0.501" x2="0.497" y2="507.454"/>
      <line class="st8" x1="0.765" y1="0.964" x2="293.376" y2="507.779"/>
      <line class="st8" x1="-48.283" y1="253.979" x2="341.971" y2="253.979"/>
      <polygon class="st8" points="146.844,84.994 0.499,338.472 293.189,338.471   "/>
      <polygon class="st8" points="293.189,169.487 0.498,169.487 146.843,422.964  "/>
      <line class="st8" x1="146.844" y1="84.994" x2="146.843" y2="422.964"/>
      <line class="st8" x1="0.498" y1="169.487" x2="293.189" y2="338.471"/>
      <line class="st8" x1="293.189" y1="169.487" x2="0.499" y2="338.472"/>
      <line class="st8" x1="186.057" y1="107.634" x2="107.629" y2="400.326"/>
      <line class="st8" x1="39.54" y1="146.676" x2="254.148" y2="361.282"/>
      <line class="st8" x1="0.445" y1="293.206" x2="293.103" y2="214.79"/>
      <line class="st8" x1="107.655" y1="107.719" x2="186.119" y2="400.559"/>
      <line class="st8" x1="1.136" y1="214.938" x2="292.551" y2="293.021"/>
      <line class="st8" x1="253.778" y1="147.045" x2="39.541" y2="361.282"/>
      <polygon class="st8" points="124.205,169.487 231.335,276.619 84.991,315.832   "/>
      <polygon class="st8" points="84.991,192.127 231.336,231.34 124.204,338.473  "/>
      <polygon class="st8" points="169.483,169.487 208.697,315.831 62.351,276.619   "/>
      <polygon class="st8" points="208.697,192.126 62.351,231.34 169.483,338.471  "/>
      <polyline class="st8" points="173.087,84.828 186.354,107.805 107.334,107.805 120.504,84.994   "/>
      <polyline class="st8" points="146.844,156.416 84.991,120.705 84.991,84.994  "/>
      <polyline class="st8" points="146.844,156.416 208.698,120.705 208.698,84.994  "/>
      <polyline class="st8" points="146.844,351.542 84.991,387.252 84.991,422.963   "/>
      <polyline class="st8" points="146.844,351.542 208.698,387.252 208.698,422.963   "/>
      <polyline class="st8" points="62.353,205.197 0.5,240.909 -30.427,223.054  "/>
      <polyline class="st8" points="62.353,205.197 62.353,133.776 31.426,115.92   "/>
      <polyline class="st8" points="231.337,302.761 231.335,374.183 262.262,392.038   "/>
      <polyline class="st8" points="231.337,302.761 293.189,267.05 324.116,284.905  "/>
      <polyline class="st8" points="62.353,302.76 62.353,374.183 31.427,392.038   "/>
      <polyline class="st8" points="62.353,302.76 0.5,267.049 -30.426,284.905   "/>
      <polyline class="st8" points="231.337,205.197 293.19,240.91 324.117,223.054   "/>
      <polyline class="st8" points="231.337,205.197 231.337,133.776 262.263,115.921   "/>
      <circle class="st8" cx="146.845" cy="253.979" r="97.563"/>
      <polygon class="st8" points="173.184,84.994 120.504,84.994 146.844,130.616  "/>
      <polyline class="st8" points="173.087,422.798 186.354,445.774 107.334,445.774 120.504,422.964   "/>
      <polyline class="st8" points="146.844,494.386 84.991,458.675 84.991,422.964   "/>
      <polyline class="st8" points="146.844,494.386 208.698,458.675 208.698,422.964   "/>
      <polygon class="st8" points="173.184,422.964 120.504,422.964 146.844,468.585  "/>
      <polygon class="st8" points="186.354,400.151 160.014,400.151 173.184,422.963  "/>
      <polygon class="st8" points="107.334,400.151 120.504,422.963 133.674,400.151  "/>
      <polygon class="st8" points="173.183,422.964 173.184,422.964 173.184,422.963  "/>
      <polygon class="st8" points="146.844,377.341 133.674,400.151 160.014,400.151  "/>
      <polygon class="st8" points="120.504,422.963 120.504,422.964 120.505,422.964  "/>
      <polygon class="st8" points="173.183,422.964 173.184,422.963 160.014,400.151 133.674,400.151 120.504,422.963 120.505,422.964  
        "/>
      <polyline class="st8" points="146.844,13.572 84.991,49.282 84.991,84.993  "/>
      <polyline class="st8" points="146.844,13.572 208.698,49.282 208.698,84.993  "/>
      <polygon class="st8" points="186.354,62.182 160.014,62.182 173.184,84.993   "/>
      <polygon class="st8" points="107.334,62.182 120.504,84.993 133.674,62.182   "/>
      <polygon class="st8" points="146.844,39.371 133.674,62.182 160.014,62.182   "/>
      <polygon class="st8" points="173.183,84.994 173.184,84.993 160.014,62.182 133.674,62.182 120.504,84.993 120.505,84.994  "/>
      <polygon class="st8" points="40.009,146.676 13.669,146.676 26.839,169.487   "/>
      <polygon class="st8" points="0.5,215.108 13.669,192.298 -12.67,192.298  "/>
      <polygon class="st8" points="40.009,192.298 26.839,169.487 13.669,192.298   "/>
      <polygon class="st8" points="-12.671,192.297 -12.671,192.298 -12.67,192.298   "/>
      <polygon class="st8" points="13.669,146.676 13.668,146.675 13.668,146.676   "/>
      <polygon class="st8" points="-12.671,192.297 -12.67,192.298 13.669,192.298 26.839,169.487 13.669,146.676 13.668,146.676   "/>
      <polygon class="st8" points="306.36,315.661 306.36,315.661 306.36,315.661   "/>
      <polygon class="st8" points="253.679,361.282 280.019,361.282 266.849,338.471  "/>
      <polygon class="st8" points="280.019,315.66 306.36,315.661 306.36,315.661 293.189,292.849   "/>
      <polygon class="st8" points="253.679,315.66 266.849,338.471 280.019,315.66  "/>
      <polygon class="st8" points="280.019,361.282 280.019,361.282 280.02,361.282   "/>
      <polygon class="st8" points="266.849,338.471 280.019,361.282 280.02,361.282 306.36,315.661 280.019,315.66   "/>
      <polygon class="st8" points="0.5,292.85 -12.671,315.661 13.67,315.661   "/>
      <polygon class="st8" points="40.009,361.282 26.839,338.472 13.669,361.282   "/>
      <polygon class="st8" points="-12.671,315.661 -12.671,315.661 -12.671,315.661  "/>
      <polygon class="st8" points="40.009,315.661 13.67,315.661 26.839,338.472  "/>
      <polygon class="st8" points="13.668,361.282 13.668,361.283 13.669,361.282   "/>
      <polygon class="st8" points="13.668,361.282 13.669,361.282 26.839,338.472 13.67,315.661 -12.671,315.661 -12.671,315.661   "/>
      <polygon class="st8" points="280.021,146.676 280.02,146.676 280.02,146.677  "/>
      <polygon class="st8" points="266.85,169.488 280.02,146.677 280.02,146.676 253.679,146.676   "/>
      <polygon class="st8" points="293.189,215.109 306.359,192.298 280.019,192.298  "/>
      <polygon class="st8" points="253.679,192.298 280.019,192.298 266.85,169.488   "/>
      <polygon class="st8" points="306.359,192.298 306.36,192.298 306.359,192.298   "/>
      <polygon class="st8" points="280.02,146.677 266.85,169.488 280.019,192.298 306.359,192.298 306.359,192.298  "/>
  </g>
</svg>
