<svg version="1.1" xmlns="http://www.w3.org/2000/svg" width="292.69" height="506.954" viewBox="0 0 292.69 506.954">
  <style>
    :root {
      --black: #443430;
      --red: #BF402B;
      --gold: #CEA600;
      --turquois: #4D9BA3;
      --emerald: #216554;
      --blue: #262F66;
      --white: #FFFAF2;
    }
    .shape-1 {fill:var(--white)}
    .shape-2 {fill:var(--turquois)}
    .shape-3 {fill:var(--black)}
    .shape-4 {fill:var(--red)}
    .shape-5 {fill:var(--white)}
    .shape-6 {fill:var(--turquois)}
    .shape-7 {fill:var(--black)}
    .shape-8 {fill:var(--red)}
    .shape-9 {fill:var(--turquois)}
    .shape-10 {fill:var(--white)}
    .line{}
    .guides{ stroke: #4FFF4F; display: none; fill: none}
  </style>

  <g id="pattern" class="line">
  	<g>
			<polygon class="shape-1" points="120.004,84.494 106.834,107.305 133.174,107.305 146.344,84.494 		"/>
			<polygon class="shape-2" points="146.344,84.494 133.174,107.305 146.344,130.115 159.514,107.305 		"/>
			<polygon class="shape-1" points="146.344,84.494 172.684,84.494 185.854,107.305 159.514,107.305 		"/>
			<polygon class="shape-1" points="120.004,422.462 106.834,445.274 133.174,445.274 146.344,422.462 		"/>
			<polygon class="shape-2" points="146.344,422.462 133.174,445.274 146.344,468.084 159.514,445.274 		"/>
			<polygon class="shape-1" points="146.344,422.462 172.684,422.462 185.854,445.274 159.514,445.274 		"/>
			<polygon class="shape-2" points="120.004,422.462 106.834,399.651 133.174,399.651 146.344,422.462 		"/>
			<polygon class="shape-1" points="146.344,422.462 133.174,399.651 146.344,376.84 159.514,399.651 		"/>
			<polygon class="shape-2" points="146.344,422.462 172.684,422.462 185.854,399.651 159.514,399.651 		"/>
			<polygon class="shape-2" points="120.004,84.494 106.834,61.682 133.174,61.682 146.344,84.494 		"/>
			<polygon class="shape-1" points="146.344,84.494 133.174,61.682 146.344,38.872 159.514,61.682 		"/>
			<polygon class="shape-2" points="146.344,84.494 172.684,84.494 185.854,61.682 159.514,61.682 		"/>
			<polygon class="shape-2" points="-13.171,191.797 -0.001,214.608 13.169,191.797 -0.001,168.986 		"/>
			<polygon class="shape-1" points="-0.001,168.986 13.169,191.797 39.509,191.797 26.339,168.987 		"/>
			<polygon class="shape-2" points="-0.001,168.986 13.169,146.175 39.509,146.175 26.339,168.987 		"/>
			<polygon class="shape-2" points="279.519,360.782 292.688,383.592 305.858,360.782 292.688,337.971 		"/>
			<polygon class="shape-1" points="279.519,360.782 253.179,360.782 266.349,337.971 292.688,337.971 		"/>
			<polygon class="shape-2" points="292.688,337.971 266.349,337.971 253.179,315.16 279.519,315.16 		"/>
			<polygon class="shape-1" points="292.688,337.971 305.858,315.16 292.688,292.348 279.519,315.16 		"/>
			<polygon class="shape-1" points="-0.001,168.986 13.169,146.175 -0.001,123.363 -13.171,146.175 		"/>
			<polygon class="shape-1" points="292.689,168.987 279.52,146.176 292.689,123.365 305.86,146.176 		"/>
			<polygon class="shape-1" points="292.689,168.987 279.52,191.798 253.179,191.798 266.349,168.987 		"/>
			<polygon class="shape-2" points="305.858,191.798 292.688,214.609 279.52,191.798 292.689,168.987 		"/>
			<polygon class="shape-2" points="292.689,168.987 279.519,146.176 253.179,146.175 266.349,168.987 		"/>
			<polygon class="shape-1" points="13.168,360.782 39.508,360.782 26.338,337.971 -0.002,337.971 		"/>
			<polygon class="shape-2" points="-0.002,337.971 26.338,337.971 39.508,315.161 13.169,315.161 		"/>
			<polygon class="shape-1" points="-0.002,337.971 -13.172,315.161 -0.002,292.349 13.169,315.161 		"/>
			<polygon class="shape-2" points="13.167,360.782 -0.003,383.593 -13.172,360.782 -0.002,337.971 		"/>
		</g>
		<g>
			<polygon class="shape-3" points="120.004,84.494 84.49,84.494 84.49,120.205 106.834,107.305 		"/>
			<polygon class="shape-4" points="172.684,84.494 208.197,84.494 208.197,120.205 185.854,107.305 		"/>
			<polygon class="shape-4" points="133.174,107.305 106.834,107.305 84.49,120.205 115.417,138.06 		"/>
			<polygon class="shape-3" points="146.344,130.115 133.174,107.305 115.417,138.06 146.344,155.915 		"/>
			<polygon class="shape-3" points="159.514,107.305 185.854,107.305 208.197,120.205 177.271,138.06 		"/>
			<polygon class="shape-4" points="146.344,130.115 159.514,107.305 177.271,138.06 146.344,155.915 		"/>
			<polygon class="shape-3" points="120.004,422.462 84.49,422.462 84.49,458.173 106.834,445.274 		"/>
			<polygon class="shape-4" points="172.684,422.462 208.197,422.462 208.197,458.173 185.854,445.274 		"/>
			<polygon class="shape-4" points="133.174,445.274 106.834,445.274 84.49,458.173 115.417,476.028 		"/>
			<polygon class="shape-3" points="146.344,468.084 133.174,445.274 115.417,476.028 146.344,493.883 		"/>
			<polygon class="shape-3" points="159.514,445.274 185.854,445.274 208.197,458.173 177.271,476.028 		"/>
			<polygon class="shape-4" points="146.344,468.084 159.514,445.274 177.271,476.028 146.344,493.883 		"/>
			<polygon class="shape-4" points="120.004,422.462 84.49,422.462 84.49,386.751 106.834,399.651 		"/>
			<polygon class="shape-3" points="172.684,422.462 208.197,422.462 208.197,386.751 185.854,399.651 		"/>
			<polygon class="shape-3" points="133.174,399.651 106.834,399.651 84.49,386.751 115.417,368.897 		"/>
			<polygon class="shape-4" points="146.344,376.84 133.174,399.651 115.417,368.897 146.344,351.042 		"/>
			<polygon class="shape-4" points="159.514,399.651 185.854,399.651 208.197,386.751 177.271,368.897 		"/>
			<polygon class="shape-3" points="146.344,376.84 159.514,399.651 177.271,368.897 146.344,351.042 		"/>
			<polygon class="shape-4" points="120.004,84.494 84.49,84.494 84.49,48.783 106.834,61.682 		"/>
			<polygon class="shape-3" points="172.684,84.494 208.197,84.494 208.197,48.783 185.854,61.682 		"/>
			<polygon class="shape-3" points="133.174,61.682 106.834,61.682 84.49,48.783 115.417,30.928 		"/>
			<polygon class="shape-4" points="146.344,38.872 133.174,61.682 115.417,30.928 146.344,13.073 		"/>
			<polygon class="shape-4" points="159.514,61.682 185.854,61.682 208.197,48.783 177.271,30.928 		"/>
			<polygon class="shape-3" points="146.344,38.872 159.514,61.682 177.271,30.928 146.344,13.073 		"/>
			<polygon class="shape-4" points="13.169,146.175 30.926,115.42 61.853,133.275 39.509,146.175 		"/>
			<polygon class="shape-4" points="13.169,191.797 -0.001,214.608 -0.001,240.409 30.925,222.552 		"/>
			<polygon class="shape-3" points="39.509,191.797 13.169,191.797 30.925,222.552 61.853,204.697 		"/>
			<polygon class="shape-3" points="26.339,168.987 39.509,146.175 61.853,133.275 61.853,168.986 		"/>
			<polygon class="shape-4" points="39.509,191.797 26.339,168.987 61.853,168.986 61.853,204.697 		"/>
			<polygon class="shape-3" points="279.519,360.782 261.762,391.538 292.688,409.393 292.688,383.592 		"/>
			<polygon class="shape-4" points="279.519,360.782 261.762,391.538 230.835,373.682 253.179,360.782 		"/>
			<polygon class="shape-3" points="266.349,337.971 253.179,360.782 230.835,373.682 230.837,337.971 		"/>
			<polygon class="shape-4" points="253.179,315.16 266.349,337.971 230.837,337.971 230.837,302.26 		"/>
			<polygon class="shape-4" points="279.519,315.16 292.688,292.348 292.688,266.549 261.763,284.405 		"/>
			<polygon class="shape-3" points="253.179,315.16 279.519,315.16 261.763,284.405 230.837,302.26 		"/>
			<polygon class="shape-3" points="13.169,146.175 30.926,115.42 -0.001,97.564 -0.001,123.363 		"/>
			<polygon class="shape-4" points="279.52,146.176 261.764,115.42 292.689,97.564 292.689,123.365 		"/>
			<polygon class="shape-3" points="279.519,146.176 261.763,115.42 230.837,133.276 253.179,146.175 		"/>
			<polygon class="shape-3" points="279.52,191.798 292.688,214.609 292.689,240.409 261.764,222.552 		"/>
			<polygon class="shape-4" points="253.179,191.798 279.52,191.798 261.764,222.552 230.837,204.696 		"/>
			<polygon class="shape-4" points="266.349,168.987 253.179,146.175 230.837,133.276 230.837,168.986 		"/>
			<polygon class="shape-3" points="253.179,191.798 266.349,168.987 230.837,168.986 230.837,204.696 		"/>
			<polygon class="shape-3" points="13.168,360.782 30.926,391.538 61.852,373.682 39.508,360.782 		"/>
			<polygon class="shape-4" points="26.338,337.971 39.508,360.782 61.852,373.682 61.852,337.971 		"/>
			<polygon class="shape-3" points="39.508,315.161 26.338,337.971 61.852,337.971 61.852,302.259 		"/>
			<polygon class="shape-3" points="13.169,315.161 -0.002,292.349 -0.002,266.548 30.925,284.404 		"/>
			<polygon class="shape-4" points="39.508,315.161 13.169,315.161 30.925,284.404 61.852,302.259 		"/>
			<polygon class="shape-4" points="13.167,360.782 30.925,391.538 -0.002,409.393 -0.003,383.593 		"/>
		</g>
		<g>
			<polyline class="shape-5" points="208.197,84.494 243.907,84.494 219.517,126.74 208.197,120.205 208.197,84.494 		"/>
			<polyline class="shape-5" points="230.836,168.986 195.126,168.986 219.517,126.739 230.836,133.275 230.836,168.986 		"/>
			<polygon class="shape-6" points="243.907,84.494 219.517,126.739 230.836,133.275 261.762,115.419 		"/>
			<polygon class="shape-6" points="208.197,120.205 177.271,138.06 195.126,168.986 219.517,126.74 		"/>
			<polyline class="shape-5" points="84.487,422.461 48.777,422.461 73.168,380.215 84.487,386.75 84.487,422.461 		"/>
			<polyline class="shape-5" points="61.849,337.969 97.559,337.969 73.168,380.215 61.849,373.68 61.849,337.969 		"/>
			<polygon class="shape-6" points="48.777,422.461 73.168,380.215 61.849,373.68 30.923,391.536 		"/>
			<polygon class="shape-6" points="84.487,386.75 115.414,368.895 97.559,337.969 73.168,380.215 		"/>
			<polyline class="shape-5" points="30.926,115.417 48.78,84.491 73.173,126.737 61.853,133.272 30.926,115.417 		"/>
			<polyline class="shape-5" points="115.417,138.057 97.562,168.983 73.171,126.737 84.491,120.202 115.417,138.057 		"/>
			<polygon class="shape-6" points="48.78,84.491 73.171,126.737 84.491,120.202 84.491,84.492 		"/>
			<polygon class="shape-6" points="61.853,133.272 61.853,168.983 97.562,168.983 73.173,126.737 		"/>
			<polyline class="shape-5" points="261.76,391.537 243.905,422.462 219.514,380.216 230.833,373.681 261.76,391.537 		"/>
			<polyline class="shape-5" points="177.269,368.896 195.123,337.97 219.514,380.216 208.194,386.751 177.269,368.896 		"/>
			<polygon class="shape-6" points="243.905,422.462 219.514,380.216 208.194,386.751 208.194,422.461 		"/>
			<polygon class="shape-6" points="230.833,373.681 230.833,337.97 195.123,337.97 219.514,380.216 		"/>
			<polyline class="shape-5" points="30.923,222.548 48.778,253.474 -0.004,253.475 -0.003,240.403 30.923,222.548 		"/>
			<polyline class="shape-5" points="177.27,476.028 195.125,506.954 146.343,506.956 146.344,493.883 177.27,476.028 		"/>
			<polygon class="shape-6" points="97.562,506.956 146.343,506.956 146.344,493.883 115.418,476.028 		"/>
			<polygon class="shape-6" points="-0.003,266.544 30.923,284.399 48.778,253.474 -0.003,253.473 		"/>
			<polyline class="shape-5" points="261.761,284.403 243.905,253.477 292.688,253.478 292.688,266.548 261.761,284.403 		"/>
			<polyline class="shape-5" points="115.417,30.927 97.562,0.001 146.344,0.002 146.344,13.073 115.417,30.927 		"/>
			<polygon class="shape-6" points="195.126,0.001 146.344,0.002 146.344,13.073 177.27,30.927 		"/>
			<polygon class="shape-6" points="292.688,240.407 261.761,222.552 243.905,253.477 292.688,253.478 		"/>
		</g>
		<g>
			<polygon class="shape-7" points="177.271,138.06 168.982,168.986 146.342,191.495 146.344,155.915 		"/>
			<polygon class="shape-7" points="230.836,168.988 208.193,191.626 177.333,199.801 195.124,168.988 		"/>
			<polygon class="shape-8" points="115.413,138.06 123.701,168.986 146.342,191.495 146.34,155.915 		"/>
			<polygon class="shape-8" points="177.271,368.897 168.982,337.969 146.342,315.461 146.344,351.042 		"/>
			<polygon class="shape-7" points="115.413,368.897 123.701,337.969 146.342,315.461 146.34,351.042 		"/>
			<polygon class="shape-7" points="115.417,138.059 123.703,168.986 115.35,199.799 97.562,168.985 		"/>
			<polygon class="shape-8" points="61.848,168.987 84.488,191.626 115.35,199.799 97.559,168.987 		"/>
			<polygon class="shape-8" points="230.836,337.969 208.194,315.33 177.333,307.157 195.125,337.969 		"/>
			<polygon class="shape-7" points="177.266,368.899 168.98,337.97 177.333,307.157 195.121,337.971 		"/>
			<polygon class="shape-7" points="61.851,168.984 84.49,191.625 92.662,222.487 61.851,204.695 		"/>
			<polygon class="shape-8" points="30.922,222.554 61.85,230.84 92.662,222.487 61.849,204.699 		"/>
			<polygon class="shape-8" points="261.762,284.403 230.833,276.117 200.02,284.469 230.834,302.258 		"/>
			<polygon class="shape-7" points="230.832,337.973 208.193,315.331 200.02,284.469 230.832,302.262 		"/>
			<polygon class="shape-7" points="30.923,222.55 61.85,230.837 84.357,253.479 48.778,253.477 		"/>
			<polygon class="shape-8" points="30.923,284.407 61.85,276.12 84.357,253.479 48.779,253.481 		"/>
			<polygon class="shape-8" points="261.76,222.55 230.832,230.838 208.323,253.479 243.904,253.477 		"/>
			<polygon class="shape-7" points="261.76,284.408 230.833,276.118 208.323,253.479 243.904,253.481 		"/>
			<polygon class="shape-7" points="30.922,284.403 61.849,276.117 92.662,284.471 61.849,302.258 		"/>
			<polygon class="shape-8" points="61.85,337.973 84.49,315.333 92.662,284.471 61.852,302.262 		"/>
			<polygon class="shape-8" points="230.832,168.984 208.192,191.626 200.02,222.488 230.832,204.696 		"/>
			<polygon class="shape-7" points="261.762,222.555 230.833,230.839 200.02,222.488 230.834,204.699 		"/>
			<polygon class="shape-7" points="61.848,337.969 84.488,315.331 115.35,307.159 97.559,337.969 		"/>
			<polygon class="shape-8" points="115.416,368.899 123.703,337.971 115.35,307.159 97.562,337.971 		"/>
			<polygon class="shape-8" points="177.266,138.06 168.98,168.988 177.333,199.801 195.121,168.986 		"/>
			<polygon class="shape-7" points="261.758,115.419 270.046,84.492 292.687,61.984 292.685,97.564 		"/>
			<polygon class="shape-8" points="177.268,30.929 208.194,22.642 230.702,0.001 195.124,0.003 		"/>
			<polygon class="shape-7" points="177.267,30.925 208.193,22.639 239.007,30.994 208.193,48.781 		"/>
			<polygon class="shape-8" points="208.194,84.496 230.835,61.855 239.007,30.994 208.196,48.785 		"/>
			<polygon class="shape-7" points="208.192,84.492 230.833,61.853 261.694,53.681 243.903,84.492 		"/>
			<polygon class="shape-8" points="261.761,115.421 270.048,84.494 261.694,53.681 243.907,84.494 		"/>
			<polygon class="shape-7" points="30.927,391.535 22.639,422.461 -0.002,444.969 0,409.39 		"/>
			<polygon class="shape-7" points="84.492,422.463 61.85,445.102 30.989,453.276 48.78,422.463 		"/>
			<polygon class="shape-8" points="115.416,476.025 84.488,484.313 61.979,506.954 97.561,506.952 		"/>
			<polygon class="shape-8" points="84.488,422.459 61.849,445.102 53.676,475.963 84.488,458.17 		"/>
			<polygon class="shape-7" points="115.418,476.03 84.489,484.314 53.676,475.963 84.49,458.174 		"/>
			<polygon class="shape-8" points="30.922,391.535 22.637,422.463 30.989,453.276 48.777,422.461 		"/>
			<polygon class="shape-8" points="261.76,391.535 270.048,422.461 292.688,444.969 292.687,409.39 		"/>
			<polygon class="shape-7" points="261.764,391.534 270.05,422.461 261.696,453.274 243.908,422.46 		"/>
			<polygon class="shape-8" points="208.194,422.462 230.835,445.102 261.696,453.274 243.905,422.462 		"/>
			<polygon class="shape-7" points="208.197,422.459 230.837,445.1 239.009,475.961 208.197,458.17 		"/>
			<polygon class="shape-8" points="177.269,476.03 208.196,484.315 239.009,475.961 208.195,458.174 		"/>
			<polygon class="shape-7" points="177.27,476.026 208.196,484.313 230.704,506.954 195.125,506.952 		"/>
			<polygon class="shape-8" points="30.93,115.417 22.642,84.489 0.001,61.981 0.003,97.562 		"/>
			<polygon class="shape-8" points="84.495,84.489 61.854,61.85 30.992,53.677 48.784,84.489 		"/>
			<polygon class="shape-7" points="30.925,115.419 22.64,84.49 30.992,53.677 48.78,84.491 		"/>
			<polygon class="shape-8" points="115.421,30.923 84.492,22.637 53.679,30.989 84.493,48.778 		"/>
			<polygon class="shape-7" points="84.491,84.493 61.853,61.851 53.679,30.989 84.491,48.782 		"/>
			<polygon class="shape-7" points="115.419,30.928 84.492,22.638 61.982,-0.001 97.563,0.001 		"/>
		</g>
		<g>
			<polygon class="shape-9" points="123.704,168.986 115.35,199.799 146.344,253.478 146.342,191.495 		"/>
			<polygon class="shape-9" points="208.195,191.628 177.332,199.799 146.344,253.48 200.021,222.486 		"/>
			<polygon class="shape-10" points="168.979,168.986 177.334,199.799 146.34,253.478 146.342,191.495 		"/>
			<polygon class="shape-10" points="123.704,337.969 115.35,307.157 146.344,253.478 146.342,315.461 		"/>
			<polygon class="shape-9" points="168.979,337.969 177.334,307.157 146.34,253.478 146.342,315.461 		"/>
			<polygon class="shape-9" points="61.852,230.837 84.358,253.479 146.343,253.477 92.662,222.487 		"/>
			<polygon class="shape-10" points="84.488,191.627 115.351,199.798 146.341,253.48 92.662,222.487 		"/>
			<polygon class="shape-10" points="208.195,315.329 177.333,307.158 146.343,253.477 200.021,284.47 		"/>
			<polygon class="shape-9" points="230.832,276.12 208.325,253.477 146.341,253.48 200.021,284.47 		"/>
			<polygon class="shape-9" points="84.489,315.329 115.352,307.159 146.342,253.477 92.663,284.471 		"/>
			<polygon class="shape-10" points="61.852,276.12 84.358,253.477 146.344,253.48 92.663,284.471 		"/>
			<polygon class="shape-10" points="230.833,230.837 208.326,253.479 146.342,253.477 200.021,222.486 		"/>
			<polygon class="shape-10" points="270.049,84.492 261.694,53.679 292.688,0 292.687,61.984 		"/>
			<polygon class="shape-9" points="230.834,61.851 261.696,53.681 292.687,0 239.008,30.994 		"/>
			<polygon class="shape-10" points="208.196,22.642 230.703,0 292.688,0.002 239.008,30.994 		"/>
			<polygon class="shape-9" points="61.852,445.104 30.988,453.274 0,506.956 53.678,475.961 		"/>
			<polygon class="shape-10" points="22.636,422.461 30.99,453.274 -0.004,506.954 -0.002,444.969 		"/>
			<polygon class="shape-10" points="84.489,484.312 61.982,506.954 -0.002,506.952 53.678,475.961 		"/>
			<polygon class="shape-9" points="270.051,422.461 261.696,453.274 292.69,506.954 292.688,444.969 		"/>
			<polygon class="shape-9" points="208.198,484.313 230.705,506.954 292.689,506.952 239.009,475.961 		"/>
			<polygon class="shape-10" points="230.835,445.102 261.697,453.274 292.688,506.956 239.009,475.961 		"/>
			<polygon class="shape-9" points="22.639,84.489 30.993,53.677 -0.001,-0.002 0.001,61.981 		"/>
			<polygon class="shape-10" points="61.854,61.849 30.992,53.678 0.002,-0.003 53.681,30.99 		"/>
			<polygon class="shape-9" points="84.491,22.64 61.984,-0.003 0,0 53.681,30.99 		"/>
		</g>

	</g>
<g class="guides">
	<polygon points="48.779,422.463 -48.784,253.479 48.779,84.494 243.907,84.494 341.471,253.479 243.907,422.463 	"/>
	<polygon points="146.343,422.463 -0.002,337.971 -0.003,168.986 146.344,84.494 292.688,168.986 292.688,337.97 	"/>
	<line x1="292.688" y1="0" x2="-0.004" y2="506.954"/>
	<line x1="0.264" y1="0.463" x2="292.876" y2="507.279"/>
	<line x1="-48.784" y1="253.479" x2="341.471" y2="253.479"/>
	<polygon points="146.344,84.494 -0.002,337.971 292.688,337.97 	"/>
	<polygon points="292.688,168.986 -0.003,168.986 146.343,422.463 	"/>
	<line x1="146.344" y1="84.494" x2="146.343" y2="422.463"/>
	<line x1="-0.003" y1="168.986" x2="292.688" y2="337.97"/>
	<line x1="292.688" y1="168.986" x2="-0.002" y2="337.971"/>
	<line x1="185.557" y1="107.133" x2="107.129" y2="399.826"/>
	<line x1="39.039" y1="146.175" x2="253.647" y2="360.782"/>
	<line x1="-0.056" y1="292.706" x2="292.603" y2="214.289"/>
	<line x1="107.154" y1="107.219" x2="185.618" y2="400.058"/>
	<line x1="0.635" y1="214.438" x2="292.051" y2="292.521"/>
	<line x1="253.277" y1="146.545" x2="39.04" y2="360.782"/>
	<polygon points="123.704,168.986 230.835,276.119 84.49,315.332 	"/>
	<polygon points="84.49,191.626 230.836,230.839 123.703,337.972 	"/>
	<polygon points="168.982,168.986 208.196,315.331 61.851,276.119 	"/>
	<polygon points="208.196,191.626 61.851,230.84 168.982,337.97 	"/>
	<polyline points="172.587,84.327 185.854,107.305 106.834,107.305 120.004,84.494 	"/>
	<polyline points="146.344,155.915 84.49,120.205 84.49,84.494 	"/>
	<polyline points="146.344,155.915 208.197,120.205 208.197,84.494 	"/>
	<polyline points="146.344,351.042 84.49,386.751 84.49,422.462 	"/>
	<polyline points="146.344,351.042 208.197,386.751 208.197,422.462 	"/>
	<polyline points="61.853,204.697 -0.001,240.409 -30.928,222.553 	"/>
	<polyline points="61.853,204.697 61.853,133.275 30.926,115.42 	"/>
	<polyline points="230.837,302.26 230.835,373.682 261.762,391.538 	"/>
	<polyline points="230.837,302.26 292.688,266.549 323.615,284.405 	"/>
	<polyline points="61.853,302.259 61.853,373.682 30.927,391.538 	"/>
	<polyline points="61.853,302.259 -0.001,266.548 -30.927,284.405 	"/>
	<polyline points="230.837,204.696 292.689,240.409 323.616,222.554 	"/>
	<polyline points="230.837,204.696 230.837,133.276 261.763,115.42 	"/>
	<circle cx="146.344" cy="253.478" r="97.563"/>
	<polygon points="172.684,84.494 120.004,84.494 146.344,130.115 	"/>
	<polyline points="172.587,422.297 185.854,445.274 106.834,445.274 120.004,422.463 	"/>
	<polyline points="146.344,493.885 84.49,458.174 84.49,422.463 	"/>
	<polyline points="146.344,493.885 208.197,458.174 208.197,422.463 	"/>
	<polygon points="172.684,422.463 120.004,422.463 146.344,468.084 	"/>
	<polygon points="185.854,399.651 159.514,399.651 172.684,422.462 	"/>
	<polygon points="106.834,399.651 120.004,422.462 133.174,399.651 	"/>
	<polygon points="172.683,422.463 172.684,422.463 172.684,422.462 	"/>
	<polygon points="146.344,376.84 133.174,399.651 159.514,399.651 	"/>
	<polygon points="120.004,422.462 120.004,422.463 120.005,422.463 	"/>
	<polygon points="172.683,422.463 172.684,422.462 159.514,399.651 133.174,399.651 120.004,422.462 120.005,422.463 	
		"/>
	<polyline points="146.344,13.072 84.49,48.782 84.49,84.493 	"/>
	<polyline points="146.344,13.072 208.197,48.782 208.197,84.493 	"/>
	<polygon points="185.854,61.681 159.514,61.681 172.684,84.493 	"/>
	<polygon points="106.834,61.681 120.004,84.493 133.174,61.681 	"/>
	<polygon points="146.344,38.871 133.174,61.681 159.514,61.681 	"/>
	<polygon points="172.683,84.494 172.684,84.493 159.514,61.681 133.174,61.681 120.004,84.493 120.005,84.494 	"/>
	<polygon points="39.509,146.175 13.169,146.175 26.339,168.986 	"/>
	<polygon points="-0.001,214.608 13.169,191.797 -13.171,191.797 	"/>
	<polygon points="39.509,191.797 26.339,168.986 13.169,191.797 	"/>
	<polygon points="-13.171,191.796 -13.172,191.797 -13.171,191.797 	"/>
	<polygon points="13.169,146.175 13.168,146.174 13.167,146.175 	"/>
	<polygon points="-13.171,191.796 -13.171,191.797 13.169,191.797 26.339,168.986 13.169,146.175 13.167,146.175 	"/>
	<polygon points="305.859,315.161 305.859,315.161 305.859,315.161 	"/>
	<polygon points="253.179,360.782 279.519,360.782 266.349,337.97 	"/>
	<polygon points="279.519,315.16 305.859,315.161 305.859,315.161 292.688,292.348 	"/>
	<polygon points="253.179,315.16 266.349,337.97 279.519,315.16 	"/>
	<polygon points="279.519,360.782 279.519,360.782 279.52,360.782 	"/>
	<polygon points="266.349,337.97 279.519,360.782 279.52,360.782 305.859,315.161 279.519,315.16 	"/>
	<polygon points="-0.001,292.349 -13.171,315.161 13.169,315.161 	"/>
	<polygon points="39.509,360.782 26.339,337.971 13.169,360.782 	"/>
	<polygon points="-13.171,315.161 -13.172,315.161 -13.171,315.161 	"/>
	<polygon points="39.509,315.161 13.169,315.161 26.339,337.971 	"/>
	<polygon points="13.167,360.782 13.168,360.783 13.169,360.782 	"/>
	<polygon points="13.167,360.782 13.169,360.782 26.339,337.971 13.169,315.161 -13.171,315.161 -13.171,315.161 	"/>
	<polygon points="279.521,146.175 279.52,146.175 279.52,146.176 	"/>
	<polygon points="266.35,168.987 279.52,146.176 279.52,146.175 253.179,146.175 	"/>
	<polygon points="292.688,214.609 305.858,191.797 279.519,191.798 	"/>
	<polygon points="253.179,191.798 279.519,191.798 266.35,168.987 	"/>
	<polygon points="305.858,191.797 305.859,191.797 305.858,191.797 	"/>
	<polygon points="279.52,146.176 266.35,168.987 279.519,191.798 305.858,191.797 305.858,191.797 	"/>
</g>
</svg>
