<svg xmlns="http://www.w3.org/2000/svg" width="180" height="180">
  <style>
    :root {
      --golden: #907A58;
      --darkBlue: #475387;
      --beige: #DFD8CC;
      --teal: #4A9AC4;
      --gray: #A49DA0;
      --smaragd: #406A72;
      --sand: #D3BDA7;
      --grayGreen: #A2D1D6;
      --blueGray: #758390;
      --lightBrown: #AA8858;
      --blue1: #8EC5EE;
      --blue2: #8CC6EA;
      --blue3: #B6DAEC;
      --rust: #D8692D;
      --yellow: #F8C346;
    }
    .shape-1{fill:var(--golden)}
    .shape-2{fill:var(--teal)}
    .shape-3{fill:var(--darkBlue)}
    .shape-4{fill:var(--grayGreen)}
    .line{stroke:#fff;stroke-width:7px}
    .guides{ stroke: #4FFF4F; display: none; fill: none}
  </style>
  <g id="pattern" class="line">
    <path class="shape-1" d="M-63.6 -63.6H243.7V243.7H-63.6z"/>
    <path class="shape-2" d="M135-18.6L90 0 135 18.6 142.7 0zM135 18.6L116.4 63.6 161.4 45 153.6 26.4z"/>
    <path class="shape-3" d="M225 -18.6L206.4 -26.4 198.6 -45 180 -37.3 161.4 -45 153.6 -26.4 135 -18.6 142.7 0 135 18.6 153.6 26.4 161.4 45 180 37.3 198.6 45 206.4 26.4 225 18.6 217.3 0z"/>
    <path class="shape-2" d="M161.4 45L180 90 198.6 45 180 37.3zM18.6 45L63.6 63.6 45 18.6 26.4 26.4zM45-18.6L37.3 0 45 18.6 90 0z"/>
    <path class="shape-3" d="M45 -18.6L26.4 -26.4 18.6 -45 0 -37.3 -18.6 -45 -26.4 -26.4 -45 -18.6 -37.3 0 -45 18.6 -26.4 26.4 -18.6 45 0 37.3 18.6 45 26.4 26.4 45 18.6 37.3 0z"/>
    <path class="shape-2" d="M-18.6 45L0 90 18.6 45 0 37.3z"/>
    <path class="shape-2" d="M18.6 135L0 90-18.6 135 0 142.7zM45 161.4L63.6 116.4 18.6 135 26.4 153.6zM45 161.4L37.3 180 45 198.6 90 180z"/>
    <path class="shape-3" d="M45 161.4L26.4 153.6 18.6 135 0 142.7 -18.6 135 -26.4 153.6 -45 161.4 -37.3 180 -45 198.6 -26.4 206.4 -18.6 225 0 217.3 18.6 225 26.4 206.4 45 198.6 37.3 180z"/>
    <path class="shape-2" d="M198.6 135L180 90 161.4 135 180 142.7zM135 161.4L90 180 135 198.6 142.7 180zM161.4 135L116.4 116.4 135 161.4 153.6 153.6z"/>
    <path class="shape-3" d="M225 161.4L206.4 153.6 198.6 135 180 142.7 161.4 135 153.6 153.6 135 161.4 142.7 180 135 198.6 153.6 206.4 161.4 225 180 217.3 198.6 225 206.4 206.4 225 198.6 217.3 180z"/>
    <path class="shape-4" d="M63.6 63.6L74.6 90 63.6 116.4 90 105.4 116.4 116.4 105.4 90 116.4 63.6 90 74.6z"/>
  </g>
  <g class="guides">
    <path class="st1" d="M90 0c0 24.853-10.074 47.353-26.36 63.64C47.353 79.926 24.853 90 0 90c-24.853 0-47.353-10.074-63.64-26.36C-79.926 47.353-90 24.853-90 0c0-24.853 10.074-47.353 26.36-63.64C-47.353-79.927-24.853-90 0-90c24.853 0 47.353 10.074 63.64 26.36C79.927-47.353 90-24.853 90 0zM243.641-63.64c17.573 17.573 26.36 40.606 26.36 63.64s-8.787 46.066-26.36 63.64C226.067 81.213 203.034 90 180.001 90s-46.066-8.786-63.64-26.36C98.787 46.066 90 23.033 90 0s8.787-46.066 26.361-63.64C133.935-81.214 156.968-90 180.001-90 203.034-90 226.067-81.213 243.641-63.64zM63.641 116.36C81.214 133.934 90 156.967 90 180s-8.787 46.066-26.36 63.64C46.066 261.213 23.033 270 0 270s-46.066-8.786-63.64-26.359C-81.213 226.066-90 203.033-90 180s8.787-46.066 26.361-63.64C-46.065 98.787-23.032 90 0 90 23.034 90 46.067 98.787 63.641 116.36zM270.001 180c0 24.854-10.074 47.354-26.36 63.64-16.287 16.287-38.787 26.36-63.64 26.36-24.854 0-47.354-10.073-63.64-26.36C100.074 227.354 90 204.854 90 180c0-24.853 10.074-47.353 26.361-63.64C132.647 100.074 155.147 90 180.001 90c24.853 0 47.353 10.074 63.64 26.36C259.927 132.647 270.001 155.147 270.001 180z"/>
    <circle class="st1" cx="90" cy="90" r="37.3"/>
    <path class="st1" d="M0 0H180V180H0zM180 90L0 90M90 0L90 180M180 0L0 180"/>
    <path class="st1" d="M74.6 90L0-90-63.6 63.6-63.6 63.6 90 0-63.6-63.6 0 90 63.6-63.6-90 0 90 74.6M90 105.4L-90 180 63.6 243.6 63.6 243.6 0 90-63.6 243.6 90 180-63.6 116.4 0 270 74.6 90M105.4 90L180 270 243.6 116.4 243.6 116.4 90 180 243.6 243.6 180 90 116.4 243.6 270 180 90 105.4M90 74.6L270 0 116.4-63.6 116.4-63.6 180 90 243.6-63.6 90 0 243.6 63.6 180-90 105.4 90M0 0L180 180"/>
  </g>
</svg>
