<svg xmlns="http://www.w3.org/2000/svg" width="180" height="180" viewBox="0 0 180 180">
  <style>
    :root {
      --black: #443430;
      --red: #BF402B;
      --gold: #CEA600;
      --turquois: #4D9BA3;
      --emerald: #216554;
      --blue: #262F66;
      --white: #FFFAF2;
    }
    .shape-3{fill:var(--blue)}
    .shape-2{fill:var(--white)}
    .shape-1{fill:var(--turquois)}
    .shape-4{fill:var(--white)}
    <!-- .line{stroke:#fff;stroke-width:7px} -->
    .guides{ stroke: #4FFF4F; display: none; fill: none}
  </style>
  <g id="pattern" class="line">
    <g>
      <path class="shape-1" d="M116.364,153.627c-1.729-5.915-2.675-12.165-2.675-18.638c0-6.466,0.943-12.707,2.668-18.615
        c-2.47,0.729-5.082,1.126-7.788,1.126c-7.158,0-13.676-2.736-18.569-7.218c-4.893,4.481-11.41,7.218-18.568,7.218
        c-2.706,0-5.318-0.397-7.788-1.126c1.726,5.908,2.668,12.149,2.668,18.615c0,6.473-0.944,12.723-2.674,18.638
        c11.104,6.083,20.276,15.251,26.363,26.353C96.09,168.878,105.259,159.71,116.364,153.627z"/>
      <path class="shape-1" d="M0.014,89.995c11.105,6.087,20.277,15.26,26.361,26.368c5.915-1.729,12.164-2.675,18.639-2.675
        c6.465,0,12.707,0.943,18.613,2.668c-0.729-2.47-1.126-5.082-1.126-7.788c0-7.158,2.736-13.675,7.217-18.567
        c-4.482-4.893-7.218-11.41-7.218-18.569c0-2.711,0.399-5.328,1.129-7.802c2.475-0.731,5.092-1.13,7.803-1.13
        c7.158,0,13.676,2.736,18.568,7.218c4.893-4.482,11.411-7.218,18.569-7.218c2.71,0,5.326,0.398,7.8,1.129
        c-1.728-5.912-2.672-12.158-2.672-18.628c0-6.474,0.945-12.724,2.675-18.638C105.264,20.278,96.092,11.106,90.004,0l-0.01,0
        c-6.087,11.106-15.26,20.277-26.368,26.362C65.355,32.276,66.3,38.526,66.3,45c0,6.47-0.944,12.717-2.672,18.628
        C57.717,65.356,51.471,66.3,45,66.3c-6.474,0-12.724-0.945-18.638-2.674C20.277,74.733,11.106,83.906,0,89.994L0.014,89.995z"/>
      <path class="shape-1" d="M179.998,89.994c-11.107-6.087-20.277-15.26-26.363-26.368c-5.914,1.729-12.164,2.674-18.638,2.674
        c-6.47,0-12.716-0.944-18.628-2.671c0.731,2.475,1.13,5.092,1.13,7.803c0,7.158-2.735,13.675-7.216,18.567
        c4.481,4.893,7.218,11.411,7.218,18.569c0,2.706-0.397,5.318-1.126,7.788c5.908-1.725,12.149-2.668,18.614-2.668
        c6.474,0,12.724,0.945,18.638,2.675c6.085-11.108,15.256-20.281,26.363-26.368L179.998,89.994z"/>
      <path class="shape-1" d="M243.615,153.627c0.008,0.005,0.017,0.01,0.024,0.014v-0.103
        C243.631,153.567,243.624,153.598,243.615,153.627z"/>
    </g>
      <path class="shape-2" d="M63.625 26.362c-8.73 4.782-18.654 7.646-29.211 8.052-.407 10.557-3.27 20.481-8.052 29.211C32.277 65.355 38.526 66.3 45 66.3c6.47 0 12.716-.943 18.627-2.671C65.356 57.717 66.3 51.47 66.3 45 66.3 38.526 65.355 32.276 63.625 26.362zM-26.362 63.625C-20.277 74.733-11.106 83.906 0 89.994c11.106-6.088 20.277-15.261 26.362-26.369C16.404 60.713 7.417 55.536 0 48.676-7.417 55.536-16.403 60.713-26.362 63.625zM63.625 26.362C74.733 20.277 83.906 11.106 89.994 0c-6.087-11.106-15.26-20.277-26.368-26.362C60.713-16.403 55.536-7.417 48.676 0 55.536 7.417 60.713 16.403 63.625 26.362zM63.625-26.362C65.355-32.276 66.3-38.526 66.3-45c0-6.47-.944-12.717-2.672-18.628C57.717-65.356 51.471-66.3 45-66.3c-6.474 0-12.724.945-18.638 2.674 4.782 8.73 7.646 18.655 8.052 29.211C44.971-34.007 54.896-31.144 63.625-26.362zM26.362-63.625C20.278-74.733 11.106-83.907 0-89.994c-11.106 6.087-20.278 15.261-26.362 26.369 9.959 2.913 18.946 8.09 26.362 14.95C7.417-55.536 16.404-60.713 26.362-63.625zM-63.625 26.362C-65.355 32.276-66.3 38.526-66.3 45c0 6.47.944 12.717 2.671 18.628C-57.717 65.356-51.471 66.3-45 66.3c6.474 0 12.724-.945 18.638-2.674-4.782-8.73-7.645-18.655-8.052-29.211C-44.971 34.007-54.896 31.144-63.625 26.362zM-63.625-26.362C-74.733-20.277-83.906-11.106-89.994 0c6.087 11.106 15.26 20.277 26.368 26.362C-60.713 16.403-55.536 7.417-48.676 0-55.536-7.417-60.713-16.403-63.625-26.362zM-26.362-63.625C-32.277-65.355-38.526-66.3-45-66.3c-6.47 0-12.716.944-18.628 2.671C-65.356-57.717-66.3-51.47-66.3-45c0 6.474.945 12.724 2.674 18.638 8.73-4.782 18.654-7.646 29.211-8.052C-34.007-44.971-31.144-54.896-26.362-63.625z"/>
    <path class="shape-3" d="M63.625-26.362c-8.73-4.782-18.654-7.646-29.211-8.052c-0.407-10.557-3.27-20.481-8.052-29.211 C16.404-60.713,7.417-55.536,0-48.676c-7.417-6.86-16.403-12.037-26.362-14.95c-4.782,8.73-7.645,18.655-8.052,29.211 c-10.557,0.407-20.481,3.27-29.211,8.052C-60.713-16.403-55.536-7.417-48.676,0c-6.86,7.417-12.037,16.403-14.949,26.362 c8.73,4.782,18.654,7.646,29.211,8.052c0.407,10.557,3.27,20.481,8.052,29.211c9.959-2.913,18.946-8.09,26.362-14.95 c7.417,6.86,16.404,12.037,26.362,14.95c4.782-8.73,7.646-18.655,8.052-29.211c10.557-0.407,20.481-3.271,29.211-8.052 C60.713,16.403,55.536,7.417,48.676,0C55.536-7.417,60.713-16.403,63.625-26.362z"/>
    <g>
      <path class="shape-2" d="M243.623 26.362c-8.73 4.782-18.654 7.646-29.211 8.052-.406 10.557-3.27 20.481-8.053 29.211 5.915 1.729 12.164 2.674 18.639 2.674 6.471 0 12.717-.943 18.627-2.671 1.729-5.912 2.672-12.158 2.672-18.628C246.297 38.527 245.353 32.277 243.623 26.362zM153.635 63.626c6.086 11.108 15.256 20.281 26.363 26.368 11.105-6.087 20.277-15.26 26.361-26.368-9.958-2.913-18.945-8.09-26.361-14.95C172.581 55.536 163.594 60.713 153.635 63.626zM243.623 26.362C254.73 20.278 263.904 11.106 269.991 0c-6.087-11.106-15.261-20.277-26.368-26.362-2.912 9.958-8.09 18.945-14.949 26.362C235.533 7.417 240.711 16.404 243.623 26.362z"/>
      <path class="shape-2" d="M243.623-26.361c1.729-5.915 2.674-12.165 2.674-18.638 0-6.47-.943-12.717-2.672-18.628-5.91-1.728-12.156-2.671-18.627-2.671-6.475 0-12.724.945-18.639 2.674 4.783 8.73 7.646 18.655 8.053 29.211C224.969-34.007 234.893-31.143 243.623-26.361zM206.359-63.625c-6.084-11.108-15.256-20.281-26.361-26.369-11.107 6.087-20.278 15.261-26.363 26.369 9.959 2.913 18.946 8.09 26.363 14.95C187.414-55.535 196.401-60.712 206.359-63.625zM116.372 26.362c-1.729 5.915-2.675 12.165-2.675 18.638 0 6.47.944 12.717 2.672 18.628 5.912 1.728 12.158 2.671 18.628 2.671 6.474 0 12.724-.945 18.638-2.674-4.781-8.73-7.645-18.655-8.051-29.211C135.026 34.008 125.102 31.145 116.372 26.362zM116.372-26.361C105.264-20.277 96.092-11.105 90.004 0c6.088 11.106 15.26 20.277 26.368 26.362 2.912-9.958 8.089-18.945 14.949-26.362C124.461-7.417 119.284-16.403 116.372-26.361zM153.635-63.625c-5.914-1.729-12.164-2.674-18.638-2.674-6.47 0-12.716.944-18.628 2.671-1.728 5.912-2.672 12.158-2.672 18.628 0 6.474.945 12.724 2.675 18.638 8.729-4.782 18.654-7.646 29.212-8.052C145.99-44.97 148.854-54.895 153.635-63.625z"/>
      <path class="shape-3" d="M243.623-26.361c-8.73-4.782-18.654-7.646-29.211-8.052c-0.406-10.557-3.27-20.481-8.053-29.211 c-9.958,2.913-18.945,8.09-26.361,14.95c-7.417-6.86-16.404-12.037-26.363-14.95c-4.781,8.73-7.645,18.655-8.051,29.211 c-10.558,0.407-20.482,3.27-29.212,8.052c2.912,9.958,8.089,18.945,14.949,26.362c-6.86,7.417-12.037,16.403-14.949,26.362 c8.729,4.782,18.654,7.646,29.212,8.052c0.406,10.557,3.27,20.481,8.051,29.211c9.959-2.913,18.946-8.09,26.363-14.95 c7.416,6.86,16.403,12.037,26.361,14.95c4.783-8.73,7.646-18.655,8.053-29.211c10.557-0.407,20.48-3.271,29.211-8.052 c-2.912-9.958-8.09-18.945-14.949-26.362C235.533-7.417,240.711-16.403,243.623-26.361z"/>
    </g>
    <g>
      <path class="shape-2" d="M243.615 206.351c-8.73 4.781-18.654 7.646-29.211 8.053-.406 10.557-3.27 20.48-8.053 29.211 5.915 1.729 12.164 2.674 18.639 2.674 6.471 0 12.717-.943 18.627-2.671 1.729-5.911 2.672-12.158 2.672-18.628C246.289 218.515 245.345 212.265 243.615 206.351zM153.627 243.614c6.086 11.107 15.256 20.281 26.363 26.369 11.105-6.088 20.277-15.262 26.361-26.369-9.958-2.912-18.945-8.09-26.361-14.949C172.573 235.524 163.586 240.702 153.627 243.614zM243.615 206.351c11.107-6.084 20.281-15.256 26.368-26.361-6.087-11.106-15.261-20.277-26.368-26.362-2.912 9.958-8.09 18.944-14.949 26.362C235.525 187.405 240.703 196.392 243.615 206.351zM243.615 153.627c1.729-5.915 2.674-12.165 2.674-18.638 0-6.471-.943-12.717-2.672-18.629-5.91-1.728-12.156-2.672-18.627-2.672-6.475 0-12.724.945-18.639 2.675 4.783 8.729 7.646 18.655 8.053 29.212C224.961 145.981 234.885 148.845 243.615 153.627z"/>
      <path class="shape-2" d="M206.352 116.363c-6.084-11.108-15.256-20.281-26.361-26.368-11.107 6.087-20.278 15.26-26.363 26.368 9.959 2.913 18.946 8.09 26.363 14.95C187.406 124.453 196.394 119.276 206.352 116.363zM116.364 206.351c-1.729 5.914-2.675 12.164-2.675 18.639 0 6.47.944 12.717 2.672 18.628 5.912 1.728 12.158 2.671 18.628 2.671 6.474 0 12.724-.944 18.638-2.674-4.781-8.73-7.645-18.654-8.051-29.211C135.019 213.996 125.094 211.133 116.364 206.351zM116.364 153.627c-11.108 6.085-20.28 15.256-26.368 26.362 6.088 11.105 15.26 20.277 26.368 26.361 2.912-9.959 8.089-18.945 14.949-26.361C124.453 172.571 119.276 163.585 116.364 153.627zM153.627 116.363c-5.914-1.729-12.164-2.675-18.638-2.675-6.47 0-12.716.944-18.628 2.672-1.728 5.912-2.672 12.158-2.672 18.629 0 6.473.945 12.723 2.675 18.638 8.729-4.782 18.654-7.646 29.212-8.052C145.982 135.019 148.846 125.093 153.627 116.363z"/>
      <path class="shape-3" d="M243.615,153.627c-8.73-4.782-18.654-7.646-29.211-8.052c-0.406-10.557-3.27-20.482-8.053-29.212 c-9.958,2.913-18.945,8.09-26.361,14.95c-7.417-6.86-16.404-12.037-26.363-14.95c-4.781,8.729-7.645,18.655-8.051,29.212 c-10.558,0.406-20.482,3.27-29.212,8.052c2.912,9.958,8.089,18.944,14.949,26.362c-6.86,7.416-12.037,16.402-14.949,26.361 c8.729,4.782,18.654,7.646,29.212,8.053c0.406,10.557,3.27,20.48,8.051,29.211c9.959-2.912,18.946-8.09,26.363-14.949 c7.416,6.859,16.403,12.037,26.361,14.949c4.783-8.73,7.646-18.654,8.053-29.211c10.557-0.407,20.48-3.271,29.211-8.053 c-2.912-9.959-8.09-18.945-14.949-26.361C235.525,172.571,240.703,163.585,243.615,153.627z"/>
    </g>
    <g>
      <path class="shape-2" d="M243.615 206.351c-8.73 4.781-18.654 7.646-29.211 8.053-.406 10.557-3.27 20.48-8.053 29.211 5.915 1.729 12.164 2.674 18.639 2.674 6.471 0 12.717-.943 18.627-2.671 1.729-5.911 2.672-12.158 2.672-18.628C246.289 218.515 245.345 212.265 243.615 206.351zM153.627 243.614c6.086 11.107 15.256 20.281 26.363 26.369 11.105-6.088 20.277-15.262 26.361-26.369-9.958-2.912-18.945-8.09-26.361-14.949C172.573 235.524 163.586 240.702 153.627 243.614zM243.615 206.351c11.107-6.084 20.281-15.256 26.368-26.361-6.087-11.106-15.261-20.277-26.368-26.362-2.912 9.958-8.09 18.944-14.949 26.362C235.525 187.405 240.703 196.392 243.615 206.351zM243.615 153.627c1.729-5.915 2.674-12.165 2.674-18.638 0-6.471-.943-12.717-2.672-18.629-5.91-1.728-12.156-2.672-18.627-2.672-6.475 0-12.724.945-18.639 2.675 4.783 8.729 7.646 18.655 8.053 29.212C224.961 145.981 234.885 148.845 243.615 153.627z"/>
      <path class="shape-2" d="M206.352 116.363c-6.084-11.108-15.256-20.281-26.361-26.368-11.107 6.087-20.278 15.26-26.363 26.368 9.959 2.913 18.946 8.09 26.363 14.95C187.406 124.453 196.394 119.276 206.352 116.363zM116.364 206.351c-1.729 5.914-2.675 12.164-2.675 18.639 0 6.47.944 12.717 2.672 18.628 5.912 1.728 12.158 2.671 18.628 2.671 6.474 0 12.724-.944 18.638-2.674-4.781-8.73-7.645-18.654-8.051-29.211C135.019 213.996 125.094 211.133 116.364 206.351zM116.364 153.627c-11.108 6.085-20.28 15.256-26.368 26.362 6.088 11.105 15.26 20.277 26.368 26.361 2.912-9.959 8.089-18.945 14.949-26.361C124.453 172.571 119.276 163.585 116.364 153.627zM153.627 116.363c-5.914-1.729-12.164-2.675-18.638-2.675-6.47 0-12.716.944-18.628 2.672-1.728 5.912-2.672 12.158-2.672 18.629 0 6.473.945 12.723 2.675 18.638 8.729-4.782 18.654-7.646 29.212-8.052C145.982 135.019 148.846 125.093 153.627 116.363z"/>
      <path class="shape-3" d="M243.615,153.627c-8.73-4.782-18.654-7.646-29.211-8.052c-0.406-10.557-3.27-20.482-8.053-29.212 c-9.958,2.913-18.945,8.09-26.361,14.95c-7.417-6.86-16.404-12.037-26.363-14.95c-4.781,8.729-7.645,18.655-8.051,29.212 c-10.558,0.406-20.482,3.27-29.212,8.052c2.912,9.958,8.089,18.944,14.949,26.362c-6.86,7.416-12.037,16.402-14.949,26.361 c8.729,4.782,18.654,7.646,29.212,8.053c0.406,10.557,3.27,20.48,8.051,29.211c9.959-2.912,18.946-8.09,26.363-14.949 c7.416,6.859,16.403,12.037,26.361,14.949c4.783-8.73,7.646-18.654,8.053-29.211c10.557-0.407,20.48-3.271,29.211-8.053 c-2.912-9.959-8.09-18.945-14.949-26.361C235.525,172.571,240.703,163.585,243.615,153.627z"/>
    </g>
    <g>
      <path class="shape-2" d="M63.639 206.351c-8.73 4.781-18.654 7.646-29.211 8.053-.406 10.557-3.27 20.48-8.053 29.211 5.915 1.729 12.164 2.674 18.639 2.674 6.471 0 12.717-.943 18.627-2.671 1.729-5.911 2.672-12.158 2.672-18.628C66.312 218.515 65.368 212.265 63.639 206.351zM-26.35 243.614c6.086 11.107 15.256 20.281 26.363 26.369 11.105-6.088 20.277-15.262 26.361-26.369-9.958-2.912-18.945-8.09-26.361-14.949C-7.403 235.524-16.391 240.702-26.35 243.614zM63.639 206.351c11.107-6.084 20.281-15.256 26.368-26.361-6.087-11.106-15.261-20.277-26.368-26.362-2.912 9.958-8.09 18.944-14.949 26.362C55.549 187.405 60.727 196.392 63.639 206.351zM63.639 153.627c1.729-5.915 2.674-12.165 2.674-18.638 0-6.471-.943-12.717-2.672-18.629-5.91-1.728-12.156-2.672-18.627-2.672-6.475 0-12.724.945-18.639 2.675 4.783 8.729 7.646 18.655 8.053 29.212C44.984 145.981 54.908 148.845 63.639 153.627zM26.375 116.363c-6.084-11.108-15.256-20.281-26.361-26.368-11.107 6.087-20.278 15.26-26.363 26.368 9.959 2.913 18.946 8.09 26.363 14.95C7.43 124.453 16.417 119.276 26.375 116.363z"/>
      <path class="shape-2" d="M-63.612 206.351c-1.729 5.914-2.675 12.164-2.675 18.639 0 6.47.944 12.717 2.672 18.628 5.912 1.728 12.158 2.671 18.628 2.671 6.474 0 12.724-.944 18.638-2.674-4.781-8.73-7.645-18.654-8.051-29.211C-44.958 213.996-54.883 211.133-63.612 206.351zM-63.612 153.627c-11.108 6.085-20.28 15.256-26.368 26.362 6.088 11.105 15.26 20.277 26.368 26.361 2.912-9.959 8.089-18.945 14.949-26.361C-55.523 172.571-60.7 163.585-63.612 153.627zM-26.35 116.363c-5.914-1.729-12.164-2.675-18.638-2.675-6.47 0-12.716.944-18.628 2.672-1.728 5.912-2.672 12.158-2.672 18.629 0 6.473.945 12.723 2.675 18.638 8.729-4.782 18.654-7.646 29.212-8.052C-33.994 135.019-31.131 125.093-26.35 116.363z"/>
      <path class="shape-3" d="M63.639,153.627c-8.73-4.782-18.654-7.646-29.211-8.052c-0.406-10.557-3.27-20.482-8.053-29.212 c-9.958,2.913-18.945,8.09-26.361,14.95c-7.417-6.86-16.404-12.037-26.363-14.95c-4.781,8.729-7.645,18.655-8.051,29.212 c-10.558,0.406-20.482,3.27-29.212,8.052c2.912,9.958,8.089,18.944,14.949,26.362c-6.86,7.416-12.037,16.402-14.949,26.361 c8.729,4.782,18.654,7.646,29.212,8.053c0.406,10.557,3.27,20.48,8.051,29.211c9.959-2.912,18.946-8.09,26.363-14.949 c7.416,6.859,16.403,12.037,26.361,14.949c4.783-8.73,7.646-18.654,8.053-29.211c10.557-0.407,20.48-3.271,29.211-8.053 c-2.912-9.959-8.09-18.945-14.949-26.361C55.549,172.571,60.727,163.585,63.639,153.627z"/>
    </g>
    <path class="shape-4" d="M110.283,89.999c4.48-4.892,7.216-11.409,7.216-18.567c0-2.711-0.398-5.329-1.13-7.803 c-2.474-0.73-5.09-1.129-7.8-1.129c-7.158,0-13.676,2.736-18.569,7.218C85.108,65.236,78.59,62.5,71.432,62.5 c-2.711,0-5.329,0.399-7.803,1.13c-0.73,2.474-1.129,5.091-1.129,7.802c0,7.159,2.736,13.676,7.218,18.569 c-4.481,4.893-7.217,11.409-7.217,18.567c0,2.711,0.398,5.328,1.129,7.802c2.474,0.731,5.091,1.13,7.802,1.13 c7.158,0,13.676-2.736,18.568-7.218c4.893,4.481,11.411,7.218,18.569,7.218c2.711,0,5.328-0.398,7.802-1.13 c0.731-2.474,1.13-5.091,1.13-7.802C117.501,101.41,114.765,94.892,110.283,89.999z"/>
  </g>
  <g class="guides">
    <path d="M90 0c0 24.853-10.074 47.353-26.36 63.64C47.353 79.926 24.853 90 0 90c-24.853 0-47.353-10.074-63.64-26.36C-79.926 47.353-90 24.853-90 0c0-24.853 10.074-47.353 26.36-63.64C-47.353-79.927-24.853-90 0-90c24.853 0 47.353 10.074 63.64 26.36C79.927-47.353 90-24.853 90 0zM243.641-63.64c17.573 17.573 26.36 40.606 26.36 63.64s-8.787 46.066-26.36 63.64C226.067 81.213 203.034 90 180.001 90s-46.066-8.786-63.64-26.36C98.787 46.066 90 23.033 90 0s8.787-46.066 26.361-63.64C133.935-81.214 156.968-90 180.001-90 203.034-90 226.067-81.213 243.641-63.64zM63.641 116.36C81.214 133.934 90 156.967 90 180s-8.787 46.066-26.36 63.64C46.066 261.213 23.033 270 0 270s-46.066-8.786-63.64-26.359C-81.213 226.066-90 203.033-90 180s8.787-46.066 26.361-63.64C-46.065 98.787-23.032 90 0 90 23.034 90 46.067 98.787 63.641 116.36zM270.001 180c0 24.854-10.074 47.354-26.36 63.64-16.287 16.287-38.787 26.36-63.64 26.36-24.854 0-47.354-10.073-63.64-26.36C100.074 227.354 90 204.854 90 180c0-24.853 10.074-47.353 26.361-63.64C132.647 100.074 155.147 90 180.001 90c24.853 0 47.353 10.074 63.64 26.36C259.927 132.647 270.001 155.147 270.001 180z"/>
    <path d="M0 0H180V180H0zM180 90L0 90M90 0L90 180M180 0L0 180M0 0L180 180"/>
    <path d="M45,0c0,12.427-5.037,23.677-13.18,31.82C23.677,39.963,12.427,45,0,45s-23.677-5.037-31.82-13.18 C-39.963,23.677-45,12.427-45,0s5.037-23.677,13.18-31.82C-23.677-39.963-12.427-45,0-45s23.677,5.037,31.82,13.18 C39.964-23.677,45-12.427,45,0z"/>
    <circle cx="180" r="45"/>
    <circle cx="180" cy="180" r="45"/>
    <circle cy="180" r="45"/>
    <path d="M-21.299,0c0-36.619,29.68-66.3,66.299-66.3s66.3,29.681,66.3,66.3c0,36.618-29.681,66.3-66.3,66.3 S-21.299,36.618-21.299,0z"/>
    <path d="M-34.479,31.82c0-36.619,29.68-66.3,66.299-66.3s66.3,29.681,66.3,66.3c0,36.618-29.681,66.3-66.3,66.3 S-34.479,68.438-34.479,31.82z"/>
    <path d="M-66.3,45C-66.3,8.381-36.62-21.3,0-21.3S66.3,8.381,66.3,45c0,36.618-29.681,66.3-66.3,66.3 S-66.3,81.618-66.3,45z"/>
    <path d="M-98.12,31.82c0-36.619,29.68-66.3,66.299-66.3s66.3,29.681,66.3,66.3c0,36.618-29.681,66.3-66.3,66.3 S-98.12,68.438-98.12,31.82z"/>
    <path d="M-34.479-31.82c0-36.619,29.68-66.3,66.299-66.3s66.3,29.681,66.3,66.3c0,36.618-29.681,66.3-66.3,66.3 S-34.479,4.798-34.479-31.82z"/>
    <path d="M-66.3-45c0-36.619,29.68-66.3,66.299-66.3S66.3-81.619,66.3-45C66.3-8.382,36.619,21.3,0,21.3 S-66.3-8.382-66.3-45z"/>
    <path d="M-98.12-31.82c0-36.619,29.68-66.3,66.299-66.3s66.3,29.681,66.3,66.3c0,36.618-29.681,66.3-66.3,66.3 S-98.12,4.798-98.12-31.82z"/>
    <path d="M-111.3,0c0-36.619,29.68-66.3,66.299-66.3S21.3-36.619,21.3,0c0,36.618-29.681,66.3-66.3,66.3 S-111.3,36.618-111.3,0z"/>
    <g>
      <path d="M158.702-0.006c0-36.619,29.68-66.3,66.299-66.3s66.301,29.681,66.301,66.3c0,36.618-29.682,66.3-66.301,66.3 S158.702,36.612,158.702-0.006z"/>
      <path d="M145.521,31.814c0-36.619,29.681-66.3,66.3-66.3s66.3,29.681,66.3,66.3c0,36.618-29.681,66.299-66.3,66.299 S145.521,68.432,145.521,31.814z"/>
      <path d="M113.701,44.994c0-36.619,29.681-66.3,66.3-66.3s66.3,29.681,66.3,66.3c0,36.618-29.681,66.299-66.3,66.299 S113.701,81.612,113.701,44.994z"/>
      <circle cx="148.2" cy="31.8" r="66.3"/>
      <path d="M145.521-31.827c0-36.619,29.681-66.3,66.3-66.3s66.3,29.681,66.3,66.3c0,36.618-29.681,66.3-66.3,66.3 S145.521,4.792,145.521-31.827z"/>
      <path d="M113.701-45.006c0-36.619,29.681-66.3,66.3-66.3s66.3,29.681,66.3,66.3c0,36.618-29.681,66.3-66.3,66.3 S113.701-8.388,113.701-45.006z"/>
      <circle cx="148.2" cy="-31.8" r="66.3"/>
      <path d="M68.701-0.006c0-36.619,29.681-66.3,66.3-66.3s66.3,29.681,66.3,66.3c0,36.618-29.681,66.3-66.3,66.3 S68.701,36.612,68.701-0.006z"/>
    </g>
    <g>
      <path d="M-21.299,179.988c0-36.619,29.68-66.3,66.299-66.3s66.301,29.681,66.301,66.3 c0,36.618-29.682,66.3-66.301,66.3S-21.299,216.606-21.299,179.988z"/>
      <path d="M-34.479,211.809c0-36.619,29.681-66.3,66.3-66.3s66.3,29.681,66.3,66.3c0,36.618-29.681,66.299-66.3,66.299 S-34.479,248.427-34.479,211.809z"/>
      <path d="M-66.3,224.988c0-36.619,29.681-66.3,66.3-66.3s66.3,29.681,66.3,66.3c0,36.618-29.681,66.299-66.3,66.299 S-66.3,261.606-66.3,224.988z"/>
      <path d="M-98.12,211.809c0-36.619,29.68-66.3,66.299-66.3s66.301,29.681,66.301,66.3 c0,36.618-29.682,66.299-66.301,66.299S-98.12,248.427-98.12,211.809z"/>
      <path d="M-34.479,148.168c0-36.619,29.681-66.3,66.3-66.3s66.3,29.681,66.3,66.3c0,36.618-29.681,66.3-66.3,66.3 S-34.479,184.786-34.479,148.168z"/>
      <path d="M-66.3,134.988c0-36.619,29.681-66.3,66.3-66.3s66.3,29.681,66.3,66.3c0,36.618-29.681,66.3-66.3,66.3 S-66.3,171.606-66.3,134.988z"/>
      <path d="M-98.12,148.168c0-36.619,29.68-66.3,66.299-66.3s66.301,29.681,66.301,66.3 c0,36.618-29.682,66.3-66.301,66.3S-98.12,184.786-98.12,148.168z"/>
      <path d="M-111.3,179.988c0-36.619,29.681-66.3,66.3-66.3s66.3,29.681,66.3,66.3c0,36.618-29.681,66.3-66.3,66.3 S-111.3,216.606-111.3,179.988z"/>
    </g>
    <g>
      <path d="M158.699,179.988c0-36.619,29.68-66.3,66.299-66.3s66.301,29.681,66.301,66.3 c0,36.618-29.682,66.3-66.301,66.3S158.699,216.606,158.699,179.988z"/>
      <path d="M145.519,211.809c0-36.619,29.681-66.3,66.3-66.3s66.3,29.681,66.3,66.3c0,36.618-29.681,66.299-66.3,66.299 S145.519,248.427,145.519,211.809z"/>
      <path d="M113.698,224.988c0-36.619,29.681-66.3,66.3-66.3s66.3,29.681,66.3,66.3c0,36.618-29.681,66.299-66.3,66.299 S113.698,261.606,113.698,224.988z"/>
      <path d="M81.878,211.809c0-36.619,29.68-66.3,66.299-66.3s66.301,29.681,66.301,66.3 c0,36.618-29.682,66.299-66.301,66.299S81.878,248.427,81.878,211.809z"/>
      <path d="M145.519,148.168c0-36.619,29.681-66.3,66.3-66.3s66.3,29.681,66.3,66.3c0,36.618-29.681,66.3-66.3,66.3 S145.519,184.786,145.519,148.168z"/>
      <path d="M113.698,134.988c0-36.619,29.681-66.3,66.3-66.3s66.3,29.681,66.3,66.3c0,36.618-29.681,66.3-66.3,66.3 S113.698,171.606,113.698,134.988z"/>
      <path d="M81.878,148.168c0-36.619,29.68-66.3,66.299-66.3s66.301,29.681,66.301,66.3 c0,36.618-29.682,66.3-66.301,66.3S81.878,184.786,81.878,148.168z"/>
      <path d="M68.698,179.988c0-36.619,29.681-66.3,66.3-66.3s66.3,29.681,66.3,66.3c0,36.618-29.681,66.3-66.3,66.3 S68.698,216.606,68.698,179.988z"/>
    </g>
    <g>
      <circle cx="90" cy="90" r="18.6"/>
      <circle cx="71.4" cy="90" r="27.5"/>
      <circle cx="90" cy="71.4" r="27.5"/>
      <circle cx="108.6" cy="90" r="27.5"/>
      <circle cx="90" cy="108.6" r="27.5"/>
    </g>
  </g>
</svg>
