<svg xmlns="http://www.w3.org/2000/svg" width="180" height="180" viewBox="0 0 180 180">
  <style>
    :root {
      --black: #443430;
      --red: #BF402B;
      --gold: #CEA600;
      --turquois: #4D9BA3;
      --emerald: #216554;
      --blue: #262F66;
      --white: #FFFAF2;
    }
    .shape-2{fill:var(--gold)}
    .shape-1{fill:var(--white)}
    .shape-3{fill:var(--blue)}
    .shape-5{fill:var(--blue)}
    .shape-4{fill:var(--turquois)}

    .line{}
    .guides{ stroke: #4FFF4F; display: none; fill: none}
  </style>
  <g id="pattern" class="line">
    <path class="shape-1" d="M-63.64-63.64v307.281H243.64V-63.64H-63.64z M135.003,18.639l18.641,7.723L161.362,45l-45,18.639
    L135.003,18.639z M63.639,63.641L18.639,45l7.723-18.641L45,18.641L63.639,63.641z M52.721,89.998L7.723,108.634L0,89.999
    l7.722-18.642L52.721,89.998z M-26.361-26.36L0-37.28l26.36,10.92L37.28,0L26.36,26.36L0,37.279L-26.361,26.36L-37.279,0
    L-26.361-26.36z M26.36,206.364L0,217.282l-26.36-10.918l-10.919-26.361l10.92-26.36L0,142.724l26.359,10.919l10.92,26.36
    L26.36,206.364z M45,161.364l-18.641-7.723l-7.719-18.639l45-18.639L45,161.364z M89.999,179.999l-18.642-7.722l18.641-44.999
    l18.636,44.998L89.999,179.999z M97.723,108.641L90,127.278l-7.72-18.638l-18.639,7.718l7.719-18.637l-18.637-7.723l18.637-7.72
    L63.64,63.64l18.64,7.721l7.721-18.64L71.365,7.723L90,0l18.641,7.722L90.001,52.721l7.72,18.64l18.642-7.721l-7.722,18.64
    l18.639,7.722l44.997-18.636L179.999,90l-7.722,18.642l-44.998-18.641l-18.638,7.72l7.719,18.64L97.723,108.641z M116.364,116.362
    l45,18.641l-7.723,18.641l-18.639,7.719L116.364,116.362z M206.364,206.363l-26.361,10.919l-26.36-10.92l-10.919-26.359
    l10.919-26.359l26.36-10.92l26.361,10.919l10.918,26.36L206.364,206.363z M206.362,26.36L180.003,37.28L153.644,26.36L142.724,0
    l10.919-26.361l26.36-10.918l26.36,10.918L217.282,0L206.362,26.36z"/>
    <path class="shape-2" d="M108.6 97.7L108.6 97.7 108.6 97.7 127.3 90 108.6 82.3 108.6 82.3 108.6 82.3 116.4 63.6 97.7 71.4 97.7 71.4 97.7 71.4 90 52.7 82.3 71.4 82.3 71.4 82.3 71.4 63.6 63.6 71.4 82.3 71.4 82.3 71.4 82.3 52.7 90 71.4 97.7 71.4 97.7 71.4 97.7 63.6 116.4 82.3 108.6 82.3 108.6 82.3 108.6 90 127.3 97.7 108.6 97.7 108.6 97.7 108.6 116.4 116.4z"/>
    <path class="shape-3" d="M71.4 7.7L90 52.7 108.6 7.7 90 0zM172.3 71.4L127.3 90 172.3 108.6 180 90zM108.6 172.3L90 127.3 71.4 172.3 90 180zM7.7 108.6L52.7 90 7.7 71.4 0 90z"/>
    <path class="shape-4" d="M-26.4 -26.4L0 -37.3 26.4 -26.4 37.3 0 26.4 26.4 0 37.3 -26.4 26.4 -37.3 0z"/>
    <path class="shape-5" d="M63.6 63.6L18.6 45 26.4 26.4 45 18.6z"/>
    <path class="shape-4" d="M206.4 -26.4L217.3 0 206.4 26.4 180 37.3 153.6 26.4 142.7 0 153.6 -26.4 180 -37.3z"/>
    <path class="shape-5" d="M116.4 63.6L135 18.6 153.6 26.4 161.4 45z"/>
    <g>
      <path class="shape-4" d="M206.4 206.4L180 217.3 153.6 206.4 142.7 180 153.6 153.6 180 142.7 206.4 153.6 217.3 180z"/>
      <path class="shape-5" d="M116.4 116.4L161.4 135 153.6 153.6 135 161.4z"/>
    </g>
    <g>
      <path class="shape-4" d="M-26.4 206.4L-37.3 180 -26.4 153.6 0 142.7 26.4 153.6 37.3 180 26.4 206.4 0 217.3z"/>
      <path class="shape-5" d="M63.6 116.4L45 161.4 26.4 153.6 18.6 135z"/>
    </g>
  </g>
  <g class="guides">
    <path d="M90 0c0 24.853-10.074 47.353-26.36 63.64C47.353 79.926 24.853 90 0 90c-24.853 0-47.353-10.074-63.64-26.36C-79.926 47.353-90 24.853-90 0c0-24.853 10.074-47.353 26.36-63.64C-47.353-79.927-24.853-90 0-90c24.853 0 47.353 10.074 63.64 26.36C79.927-47.353 90-24.853 90 0zM243.641-63.64c17.573 17.573 26.36 40.606 26.36 63.64s-8.787 46.066-26.36 63.64C226.067 81.213 203.034 90 180.001 90s-46.066-8.786-63.64-26.36C98.787 46.066 90 23.033 90 0s8.787-46.066 26.361-63.64C133.935-81.214 156.968-90 180.001-90 203.034-90 226.067-81.213 243.641-63.64z"/>
    <path d="M153.64,26.36C171.213,43.934,180,66.967,180,90s-8.787,46.066-26.36,63.64S113.033,180,90,180 s-46.066-8.786-63.64-26.359C8.786,136.066-0.001,113.033-0.001,90S8.786,43.934,26.36,26.36C43.934,8.786,66.967,0,90,0 C113.033,0,136.066,8.787,153.64,26.36z"/>
    <path d="M63.641 116.36C81.214 133.934 90 156.967 90 180s-8.787 46.066-26.36 63.64C46.066 261.213 23.033 270 0 270s-46.066-8.786-63.64-26.359C-81.213 226.066-90 203.033-90 180s8.787-46.066 26.361-63.64C-46.065 98.787-23.032 90 0 90 23.034 90 46.067 98.787 63.641 116.36zM270.001 180c0 24.854-10.074 47.354-26.36 63.64-16.287 16.287-38.787 26.36-63.64 26.36-24.854 0-47.354-10.073-63.64-26.36C100.074 227.354 90 204.854 90 180c0-24.853 10.074-47.353 26.361-63.64C132.647 100.074 155.147 90 180.001 90c24.853 0 47.353 10.074 63.64 26.36C259.927 132.647 270.001 155.147 270.001 180z"/>
    <path d="M0 0H180V180H0zM180 90L0 90M90 0L90 180M180 0L0 180M-.1-.1L180.1 180.1"/>
    <circle cx="90" cy="90" r="37.3"/>
    <path d="M0-90L63.6 63.6-90 0 63.6-63.6 0 90-63.6-63.6 90 0-63.6 63.6 0-90M180 90L243.6 243.6 90 180 243.6 116.4 180 270 116.4 116.4 270 180 116.4 243.6 180 90M0 90L63.6 243.6-90 180 63.6 116.4 0 270-63.6 116.4 90 180-63.6 243.6 0 90M180-90L243.6 63.6 90 0 243.6-63.6 180 90 116.4-63.6 270 0 116.4 63.6 180-90M90 74.6L63.6 63.6 74.6 90"/>
    <path d="M100.9 79.1L90 52.7 79.1 79.1"/>
    <path d="M105.4 90L116.4 63.6 90 74.6"/>
    <path d="M100.9 100.9L127.3 90 100.9 79.1"/>
    <path d="M90 105.4L116.4 116.4 105.4 90"/>
    <path d="M79.1 100.9L90 127.3 100.9 100.9"/>
    <path d="M74.6 90L63.6 116.4 90 105.4"/>
    <path d="M79.1 79.1L52.7 90 79.1 100.9"/>
    <g>
      <path d="M68.2 0L90-52.7 111.8 0 90 52.7zM180 68.2L232.7 90 180 111.8 127.3 90zM111.8 180L90 232.7 68.2 180 90 127.3zM0 111.8L-52.7 90 0 68.2 52.7 90z"/>
    </g>
  </g>
</svg>
