<svg xmlns="http://www.w3.org/2000/svg" width="481" height="481" viewBox="0 0 481 481">
  <style>
    :root {
      --golden: #907A58;
      --darkBlue: #475387;
      --beige: #DFD8CC;
      --teal: #4A9AC4;
      --gray: #A49DA0;
      --smaragd: #406A72;
      --sand: #D3BDA7;
      --grayGreen: #A2D1D6;
      --blueGray: #758390;
      --lightBrown: #AA8858;
      --blue1: #8EC5EE;
      --blue2: #8CC6EA;
      --blue3: #B6DAEC;
      --rust: #D8692D;
      --yellow: #F8C346;

      --black: #443430;
      --red: #BF402B;
      --gold: #CEA600;
      --turquois: #4D9BA3;
      --emerald: #216554;
      --blue: #262F66;
      --white: #FFFAF2;
    }
    .shape-2{fill:var(--gold)}
    .shape-4{fill:var(--white)}
    .shape-3{fill:var(--white)}
    .shape-5{fill:var(--blue)}
    .shape-1{fill:var(--turquois)}
    .shape-7{fill:var(--white)}
    .shape-6{fill:var(--blue)}
    <!-- .line{stroke:#fff;stroke-width:10px} -->
    .guides{ stroke: #4FFF4F; display: none; fill: none}
  </style>
  <g id="pattern" class="line">
    <g class="shape-1">
      <polygon points="0.5,141.089 -40.678,41.678 -40.678,439.32 0.5,339.909 0.5,339.91 41.677,240.498 0.5,141.089 
        99.912,99.911 141.089,0.5 41.678,41.678     "/>
      <polygon points="240.499,439.322 141.089,480.499 99.91,381.086 0.5,339.91 41.677,439.321 141.088,480.499 
        41.677,521.676 439.321,521.676 339.91,480.499     "/>
      <polygon points="339.91,0.5 439.321,-40.678 41.678,-40.678 141.089,0.5 240.5,41.677 339.91,0.5 381.088,99.912 
        480.499,141.089 439.321,41.678    "/>
      <polygon points="480.499,339.909 521.677,439.321 521.677,41.678 480.499,141.089 439.322,240.5 480.499,339.91 
        381.087,381.087 339.91,480.499 439.321,439.321    "/>
    </g>
    <path class="shape-2" d="M305.5 175.5L259.5 194.6 240.5 148.6 221.5 194.6 175.5 175.5 194.6 221.5 148.6 240.5 194.6 259.5 175.5 305.5 221.5 286.4 240.5 332.4 259.5 286.4 305.5 305.5 286.4 259.5 332.4 240.5 286.4 221.5z"/>
    <path class="shape-3" d="M175.5 175.5L221.5 194.6 240.5 148.6 202.7 57.3 240.5 41.7 141.1 0.5 99.9 99.9 137.7 84.2z"/>
    <path class="shape-4" d="M148.6 240.5L194.6 221.5 175.5 175.5 84.2 137.7 99.9 99.9 0.5 141.1 41.7 240.5 57.3 202.7z"/>
    <path class="shape-5" d="M175.5 175.5L137.7 84.2 99.9 99.9 84.2 137.7z"/>
    <path class="shape-3" d="M305.5 175.5L286.4 221.5 332.4 240.5 423.7 202.7 439.3 240.5 480.5 141.1 381.1 99.9 396.8 137.7z"/>
    <path class="shape-4" d="M240.5 148.6L259.5 194.6 305.5 175.5 343.3 84.2 381.1 99.9 339.9 0.5 240.5 41.7 278.3 57.3z"/>
    <path class="shape-5" d="M240.5 148.6L278.3 57.3 240.5 41.7 202.7 57.3zM305.5 175.5L396.8 137.7 381.1 99.9 343.3 84.2z"/>
    <path class="shape-3" d="M305.5 305.5L259.5 286.4 240.5 332.4 278.3 423.7 240.5 439.3 339.9 480.5 381.1 381.1 343.3 396.8z"/>
    <path class="shape-4" d="M439.3 240.5L423.7 278.3 332.4 240.5 286.4 259.5 305.5 305.5 396.8 343.3 381.1 381.1 480.5 339.9z"/>
    <path class="shape-5" d="M332.4 240.5L423.7 278.3 439.3 240.5 423.7 202.7zM305.5 305.5L343.3 396.8 381.1 381.1 396.8 343.3z"/>
    <path class="shape-3" d="M175.5 305.5L194.6 259.5 148.6 240.5 57.3 278.3 41.7 240.5 0.5 339.9 99.9 381.1 84.2 343.3z"/>
    <path class="shape-5" d="M148.6 240.5L57.3 202.7 41.7 240.5 57.3 278.3z"/>
    <path class="shape-4" d="M240.5 332.4L221.5 286.4 175.5 305.5 137.7 396.7 99.9 381.1 141.1 480.5 240.5 439.3 202.7 423.7z"/>
    <path class="shape-5" d="M240.5 332.4L202.7 423.7 240.5 439.3 278.3 423.7zM175.5 305.5L84.2 343.3 99.9 381.1 137.7 396.7z"/>
    <g>
      <path class="shape-6" d="M41.7 -40.7L0.5 -57.7 -40.7 -40.7 -57.7 0.5 -40.7 41.7 0.5 58.7 41.7 41.7 58.7 0.5z"/>
      <path class="shape-7" d="M141.1.5L41.7-40.7 58.7.5 41.7 41.7zM.5 141.1L41.7 41.7.5 58.7-40.7 41.7z"/>
    </g>
    <g>
      <path class="shape-6" d="M521.7 41.7L538.7 0.5 521.7 -40.7 480.5 -57.7 439.3 -40.7 422.3 0.5 439.3 41.7 480.5 58.7z"/>
      <path class="shape-7" d="M480.5 141.1L521.7 41.7 480.5 58.7 439.3 41.7zM339.9.5L439.3 41.7 422.3.5 439.3-40.7z"/>
    </g>
    <g>
      <path class="shape-6" d="M439.3 521.7L480.5 538.7 521.7 521.7 538.7 480.5 521.7 439.3 480.5 422.3 439.3 439.3 422.3 480.5z"/>
      <path class="shape-7" d="M339.9 480.5L439.3 521.7 422.3 480.5 439.3 439.3zM480.5 339.9L439.3 439.3 480.5 422.3 521.7 439.3z"/>
    </g>
    <g>
      <path class="shape-6" d="M-40.7 439.3L-57.7 480.5 -40.7 521.7 0.5 538.7 41.7 521.7 58.7 480.5 41.7 439.3 0.5 422.3z"/>
      <path class="shape-7" d="M.5 339.9L-40.7 439.3.5 422.3 41.7 439.3zM141.1 480.5L41.7 439.3 58.7 480.5 41.7 521.7z"/>
    </g>
  </g>
  <g class="guides">
    <path class="st2" d="M120.5 190.8L240.5 190.8"/>
    <circle class="st2" cx="240.5" cy="240.5" r="49.7"/>
    <path class="st2" d="M240.5 240.5L.5 141.1M58.7.5L.5 141.1M240.5 240.5L141.1.5M141.1.5L.5 58.7"/>
    <path transform="rotate(22.5 181.3 97.5)" class="st2" d="M107 23.3H255.5V171.8H107z"/>
    <path transform="rotate(-22.5 97.5 181.3)" class="st2" d="M23.3 107H171.8V255.5H23.3z"/>
    <path class="st2" d="M240.5 240.5L339.9.5M480.5 58.7L339.9.5M240.5 240.5L480.5 141.1M480.5 141.1L422.3.5M480.5 120.5L.5 120.5"/>
    <path transform="scale(-1) rotate(-67.5 -271.3 573.9)" class="st2" d="M309.2 107H457.7V255.5H309.2z"/>
    <path transform="rotate(67.5 299.7 97.5)" class="st2" d="M225.5 23.3H374V171.8H225.5z"/>
    <path class="st2" d="M240.5 240.5L480.5 339.9M422.3 480.5L480.5 339.9M240.5 240.5L339.9 480.5M339.9 480.5L480.5 422.3M360.5 480.5L360.5.5"/>
    <path transform="scale(-1) rotate(22.5 1927.7 -1506.7)" class="st2" d="M225.5 309.2H374V457.7H225.5z"/>
    <path transform="scale(-1) rotate(-22.5 -1506.7 1927.7)" class="st2" d="M309.2 225.5H457.7V374H309.2z"/>
    <path class="st2" d="M240.5 240.5L141.1 480.5M.5 422.3L141.1 480.5M240.5 240.5L.5 339.9M.5 339.9L58.7 480.5M120.5 480.5L120.5.5M.5 360.5L480.5 360.5"/>
    <path transform="rotate(-67.5 97.5 299.7)" class="st2" d="M23.3 225.5H171.8V374H23.3z"/>
    <path transform="scale(-1) rotate(67.5 573.9 -271.3)" class="st2" d="M107 309.2H255.5V457.7H107z"/>
    <path class="st2" d="M.5.5H480.5V480.5H.5zM240.5.5L240.5 480.5M.5 240.5L480.5 240.5M.5.5L480.5 480.5M480.5.5L.5 480.5"/>
  </g>
</svg>
