<svg xmlns="http://www.w3.org/2000/svg" width="305.3" height="305.5" viewBox="0 0 305.3 305.5">
  <style>
    :root {
      --black: #443430;
      --red: #BF402B;
      --gold: #CEA600;
      --turquois: #4D9BA3;
      --emerald: #216554;
      --blue: #262F66;
      --white: #FFFAF2;
    }
    .shape-11{fill:var(--white)}
    .shape-3{fill:var(--white)}
    .shape-7{fill:var(--white)}
    .shape-2{fill:var(--white)}
    .shape-9{fill:var(--white)}
    .shape-5{fill:var(--white)}

    .shape-1{fill:var(--turquois)}

    .shape-4{fill:var(--blue)}
    .shape-8{fill:var(--blue)}

    .shape-6{fill:var(--gold)}
    .shape-10{fill:var(--gold)}
    .line{}
    .guides{ stroke: #4FFF4F; display: none; fill: none}
  </style>

  <g id="pattern" class="line">
    <path class="shape-8" d="M251.478,219.846L251.478,219.846l-9.211-22.238l9.227-22.502l0.001-0.008l-53.98-22.362l-22.378,9.27
        l9.27,22.378l-22.378-9.27l-9.27,22.379l22.362,53.98l0.003-0.001l22.39-9.274l22.343,9.256l9.249-22.328l22.353-9.259
        L251.478,219.846z M219.855,251.482l-0.002-0.002 M175.119,53.998l-22.362,53.98l9.27,22.379l22.378-9.27l-9.27,22.378l22.378,9.27
        l53.98-22.362l-0.001-0.004l-9.273-22.389l9.258-22.352v-0.003l-22.353-9.259l-9.259-22.352l-22.237,9.211l-22.502-9.227
        L175.119,53.998z M130.395,251.473l22.362-53.98l-9.27-22.379l-22.378,9.27l9.27-22.378L108,152.735l-53.98,22.362l0.001,0.004
        l9.274,22.389l-9.258,22.352v0.003l22.353,9.259l9.259,22.352l22.237-9.211l22.502,9.228L130.395,251.473z M44.742,305.477
        l0.015-0.006 M130.391,53.999l-22.39,9.274l-22.343-9.255l-9.249,22.329l-22.353,9.259l-0.021,0.02h0l9.211,22.238l-9.227,22.502
        l-0.001,0.008L108,152.735l22.378-9.27l-9.27-22.378l22.378,9.27l9.27-22.379l-22.362-53.98L130.391,53.999z M85.658,53.989
        l0.002,0.001"/>
    <path class="shape-1" d="M-7 44.8L9.3 22.4l22.4 9.2 22.3 54-31.6 13.1z"/>
    <path class="shape-2" d="M22.4 98.7L0 44.8l-22.3 53.9L0 108z"/>
    <path class="shape-11" d="M54 175.1l54-22.4-54-22.3-9.2 22.3z"/>
    <path class="shape-3" d="M22.4 98.7L54 85.6l9.2 22.3-9.2 22.5-22.3-9.3zM54 175.1l9.3 22.4-9.3 22.3-31.6-13.1 9.3-22.3z"/>
    <path class="shape-4" d="M0 108l-22.3-9.3-9.3 22.4-22.4 9.3 9.3 22.3-9.3 22.4 22.4 9.3 9.3 22.3L0 197.5l22.4 9.2 9.3-22.3 22.3-9.3-9.2-22.4 9.2-22.3-22.3-9.3-9.3-22.4z"/>
    <path class="shape-2" d="M-22.3 206.7l22.3 54 22.4-54L0 197.5z"/>
    <path class="shape-1" d="M-31.6 273.8l-22.4-54 31.7-13.1 22.3 54-9.2 22.4zM0 260.7l9.3 22.4 22.4-9.3 22.3-54-31.6-13.1z"/>
    <path class="shape-9" d="M175.1 143.5l9.3-22.4-22.4 9.3 3.9 9.2zM162 130.4l-9.2-22.4-9.3 22.4 9.3 3.8zm13.1 31.6l22.4-9.3-22.4-9.2-3.8 9.2zm-31.6-31.6l-22.4-9.3 9.3 22.4 9.2-3.9zm31.6 31.6l-9.2 3.8-3.9 9.3 22.4 9.3zm-31.6 13.1l9.3 22.4 9.2-22.4-9.2-3.8z"/>
    <path class="shape-10" d="M175.1 143.5l-9.2-3.9-3.9-9.2-9.2 3.8-9.3-3.8-3.9 9.2-9.2 3.9 3.8 9.2-3.8 9.3 9.2 3.8 3.9 9.3 9.3-3.8 9.2 3.8 3.9-9.3 9.2-3.8-3.8-9.3z"/>
    <path class="shape-9" d="M130.4 143.5l-22.4 9.2 22.4 9.3 3.8-9.3zm0 18.5l-9.3 22.4 22.4-9.3-3.9-9.3z"/>
    <path class="shape-5" d="M22.4 9.3L44.8 0 22.4-9.3 18.5 0zm0 0l-9.3 3.8-3.8 9.3 22.3 9.2z"/>
    <path class="shape-5" d="M-9.3 22.4L0 44.8l9.3-22.4L0 18.5z"/>
    <path class="shape-6" d="M22.4-9.3l-9.3-3.8-3.8-9.3L0-18.5l-9.3-3.9-3.8 9.3-9.3 3.8 3.9 9.3-3.9 9.3 9.3 3.8 3.8 9.3L0 18.5l9.3 3.9 3.8-9.3 9.3-3.8L18.5 0z"/>
    <path class="shape-5" d="M314.8 283.1l-9.3-22.4-9.3 22.4 9.3 3.9zm-18.6 0l-22.4-9.3 9.3 22.4 9.3-3.8z"/>
    <path class="shape-6" d="M327.9 296.2l-9.3-3.8-3.8-9.3-9.3 3.9-9.3-3.9-3.8 9.3-9.3 3.8 3.9 9.3-3.9 9.3 9.3 3.8 3.8 9.3 9.3-3.9 9.3 3.9 3.8-9.3 9.3-3.8-3.9-9.3z"/>
    <path class="shape-5" d="M283.1 296.2l-22.4 9.3 22.4 9.3 3.9-9.3zM296.2 22.4l9.3 22.4 9.3-22.4-9.3-3.9z"/>
    <path class="shape-6" d="M327.9-9.3l-9.3-3.8-3.8-9.3-9.3 3.9-9.3-3.9-3.8 9.3-9.3 3.8L287 0l-3.9 9.3 9.3 3.8 3.8 9.3 9.3-3.9 9.3 3.9 3.8-9.3 9.3-3.8-3.8-9.3z"/>
    <path class="shape-5" d="M283.1-9.3L260.8 0l22.3 9.3L287 0zm0 18.6l-9.2 22.3 22.3-9.2-3.8-9.3zM22.4 296.2l9.3-22.4-22.4 9.3 3.8 9.3zM9.3 283.1L0 260.7l-9.2 22.4L0 287zm13.1 31.7l22.4-9.3-22.4-9.3-3.8 9.3z"/>
    <path class="shape-6" d="M22.4 296.2l-9.3-3.8-3.8-9.3L0 287l-9.2-3.9-3.9 9.3-9.3 3.8 3.9 9.3-3.9 9.3 9.3 3.8 3.9 9.3L0 324l9.3 3.9 3.8-9.3 9.3-3.8-3.8-9.3z"/>
    <path class="shape-2" d="M206.8 22.4l54-22.4-54-22.4L197.5 0z"/>
    <path class="shape-11" d="M130.4 54l22.4 54 22.3-54-22.3-9.3z"/>
    <path class="shape-3" d="M206.8 22.4L219.9 54l-22.3 9.2-22.5-9.2 9.3-22.4zM130.4 54L108 63.3 85.7 54l13.1-31.6 22.3 9.2z"/>
    <path class="shape-4" d="M197.5 0l9.3-22.4-22.4-9.2-9.3-22.4-22.3 9.3-22.4-9.3-9.3 22.4-22.3 9.2L108 0l-9.2 22.4 22.3 9.2 9.3 22.4 22.4-9.3 22.3 9.3 9.3-22.4 22.4-9.2z"/>
    <path class="shape-2" d="M98.8-22.4L44.8 0l54 22.4L108 0z"/>
    <path class="shape-2" d="M98.8 283.1l-54 22.4 54 22.3 9.2-22.3z"/>
    <path class="shape-11" d="M175.1 251.5l-22.3-54-22.4 54 22.4 9.2z"/>
    <path class="shape-3" d="M98.8 283.1l-13.2-31.6 22.3-9.3 22.5 9.3-9.3 22.3zm76.3-31.6l22.4-9.3 22.4 9.3-13.1 31.6-22.4-9.3z"/>
    <path class="shape-4" d="M108 305.5l-9.2 22.3 22.3 9.3 9.3 22.4 22.4-9.3 22.3 9.3 9.3-22.4 22.4-9.3-9.3-22.3 9.3-22.4-22.4-9.3-9.3-22.3-22.3 9.2-22.4-9.2-9.3 22.3-22.3 9.3z"/>
    <path class="shape-2" d="M206.8 327.8l54-22.3-54-22.4-9.3 22.4z"/>
    <path class="shape-1" d="M260.8 305.5l22.3-9.3-9.2-22.4-54-22.3-13.1 31.6zM31.6 337.1l54 22.4 13.2-31.7-54-22.3-22.4 9.2zm13.2-31.6l-22.4-9.3 9.3-22.4 53.9-22.3 13.2 31.6z"/>
    <path class="shape-2" d="M283.1 206.7l22.4 54 22.4-54-22.4-9.2z"/>
    <path class="shape-11" d="M251.5 130.4l-54 22.3 54 22.4 9.3-22.4z"/>
    <path class="shape-3" d="M283.1 206.7l-31.6 13.1-9.2-22.2 9.2-22.5 22.4 9.3zm-31.6-76.3l-9.3-22.4 9.3-22.4 31.6 13.1-9.2 22.4z"/>
    <path class="shape-4" d="M305.5 197.5l22.4 9.2 9.2-22.3 22.4-9.3-9.3-22.4 9.3-22.3-22.4-9.3-9.2-22.4-22.4 9.3-22.4-9.3-9.2 22.4-22.4 9.3 9.3 22.3-9.3 22.4 22.4 9.3 9.2 22.3z"/>
    <path class="shape-2" d="M327.9 98.7l-22.4-53.9-22.4 53.9 22.4 9.3z"/>
    <path class="shape-1" d="M305.5 44.8l-9.3-22.4-22.4 9.2-22.3 54 31.6 13.1zm31.6 229l22.4-54-31.6-13.1-22.4 54 9.3 22.4zm-31.6-13.1l-9.3 22.4-22.4-9.3-22.3-54 31.6-13.1z"/>
    <path class="shape-7" d="M54 219.8l22.4 9.3 9.2 22.4-53.9 22.3zm165.8 31.7l9.3-22.4 22.4-9.2 22.3 53.9zm31.7-165.9l-22.4-9.2-9.2-22.4 53.9-22.4zM85.7 54l-9.3 22.3-22.3 9.3-22.4-54z"/>
    <polygon class="shape-1" points="44.757,0 22.378,9.27 31.648,31.647 85.647,54.015 98.757,22.367     "/>
    <polygon class="shape-1" points="260.757,0 283.135,9.27 273.866,31.647 219.866,54.015 206.757,22.367     "/>
  </g>
  <g class="guides">
    <path d="M76.4 76.4a107.7 107.7 0 010-152.8 107.7 107.7 0 01152.7 0 107.7 107.7 0 010 152.8 107.7 107.7 0 01-152.7 0z"/>
    <circle cy="152.7" r="108"/>
    <circle cx="305.5" cy="152.7" r="108"/>
    <circle cx="152.8" cy="305.5" r="108"/>
    <path d="M152.8-108v413.5M0 152.7h305.5m0-152.7L0 305.5M0 0l305.5 305.5M44.8 0h216M108-63.3L9.3-22.4m0 44.8L108 63.3m188.2-85.7l-98.6-40.8m.1 126.4l98.5-40.8M152.8 108L76.4-76.4 260.8 0 76.4 76.4 152.8-108l76.3 184.4L44.8 0l184.3-76.4zm-216.1 89.5l40.9 98.7m44.8 0l40.9-98.7M-22.4 9.2l-40.8 98.7m126.4-.1L22.4 9.2M108 152.7l-184.3 76.4L0 44.7l76.4 184.4-184.4-76.4L76.4 76.4 0 260.7-76.3 76.4zm89.5 216l98.7-40.8m0-44.8l-98.7-40.9M9.3 327.9l98.6 40.8m-.1-126.4L9.3 283.1"/>
    <path d="M152.8 197.5l76.3 184.3-184.3-76.3 184.3-76.4-76.3 184.4-76.4-184.4 184.4 76.4-184.4 76.3z"/>
    <path d="M368.8 108L327.9 9.2m-44.8 0L242.2 108m85.7 188.2l40.8-98.6m-126.4.1l40.8 98.5m-85.6-143.5l184.4-76.3-76.4 184.3-76.4-184.3 184.4 76.3-184.4 76.4 76.4-184.4 76.4 184.4z"/>
    <path d="M0 0h305.5v305.5H0z"/>
    <path d="M152.8.1L.1 152.7l152.7 152.7 152.7-152.7z"/>
    <circle cx="152.8" cy="152.7" r="44.8"/>
    <path d="M152.8 108l-31.7 76.4 76.4-31.7-76.4-31.6 31.7 76.4 31.6-76.4-76.4 31.6 76.4 31.7z"/>
    <circle r="44.8"/>
    <path d="M0-44.8l-31.6 76.4L44.8 0l-76.4-31.6L0 44.8l31.6-76.4L-44.8 0l76.4 31.6z"/>
    <circle cx="305.5" r="44.8"/>
    <path d="M305.5-44.8l-31.6 76.4L350.3 0l-77-32.2 31.6 76.4 32.3-75.8L260.8 0l76.4 31.6z"/>
    <g>
      <circle cy="305.5" r="44.8"/>
      <path d="M0 260.7l-31.6 76.4 76.4-31.6-76.4-31.7L0 350.2l31.6-76.4-76.4 31.7 76.4 31.6z"/>
    </g>
    <g>
      <circle cx="305.5" cy="305.5" r="44.8"/>
      <path d="M305.5 260.7l-31.6 76.4 76.4-31.6-76.4-31.7 31.6 76.4 31.7-76.4-76.4 31.7 76.4 31.6z"/>
    </g>
  </g>
</svg>