<svg version="1.1" xmlns="http://www.w3.org/2000/svg" width="255" height="254.984"  viewBox="0 0 255 255">
  <style>
    :root {
      --black: #443430;
      --red: #BF402B;
      --gold: #CEA600;
      --turquois: #4D9BA3;
      --emerald: #216554;
      --blue: #262F66;
      --white: #FFFAF2;
    }
    .shape-9{fill:var(--turquois)}
    .shape-6{fill:var(--white)}
    .shape-3{fill:var(--blue)}
    .shape-10{fill:var(--blue)}

    .shape-4{fill:var(--gold)}
    .shape-1{fill:var(--white)}
    .shape-8{fill:var(--white)}

    .shape-7{fill:var(--blue)}
    .shape-2{fill:var(--turquois)}
    .shape-5{fill:var(--white)}

    .line{}
    .guides{ stroke: #4FFF4F; display: none; fill: none}
  </style>

  <g id="pattern" class="line">
    <path class="shape-1" d="M26.4 63.7l11-26.4L0 52.8zM52.8 0L37.4 37.3l26.4-10.9zM191.3 26.4l26.4 10.9L202.2 0zM228.6 63.7L255 52.8l-37.3-15.5zM63.8 228.6l-26.4-11L52.8 255zM26.4 191.2L0 202.2l37.4 15.4zM228.6 191.2l-10.9 26.4 37.3-15.4zM191.3 228.6l10.9 26.4 15.5-37.4z"/>
    <path class="shape-2" d="M37.4-37.4L0-52.8l-37.3 15.4L-52.8 0l15.5 37.3L0 52.8l37.4-15.5L52.8 0zM292.4-37.4L255-52.8l-37.3 15.4L202.2 0l15.5 37.3L255 52.8l37.4-15.5L307.8 0zM37.4 217.6L0 202.2l-37.3 15.4-15.5 37.4 15.5 37.3L0 307.8l37.4-15.5L52.8 255zM292.4 217.6L255 202.2l-37.3 15.4-15.5 37.4 15.5 37.3 37.3 15.5 37.4-15.5 15.4-37.3z"/>
    <g>
      <path class="shape-3" d="M101.1 63.7L90.2 90.1l-26.4 11L56 82.4l-18.6 7.7-11-26.4 11-26.4 26.4-10.9 26.4 10.9L82.4 56zM191.3 101.1l-26.4-11-11-26.4 18.7-7.7-7.7-18.7 26.4-10.9 26.4 10.9 10.9 26.4-10.9 26.4-18.7-7.7zM63.8 153.9l26.4 10.9 10.9 26.4-18.7 7.8 7.8 18.6-26.4 11-26.4-11-11-26.4 11-26.4 18.6 7.8zM153.9 191.2l11-26.4 26.4-10.9 7.7 18.7 18.7-7.8 10.9 26.4-10.9 26.4-26.4 11-26.4-11 7.7-18.6z"/>
    </g>
    <g>
      <path transform="rotate(-22.5 50.6 95.6)" class="shape-4" d="M40.5 85.5h20.2v20.2H40.5z"/>
      <path transform="rotate(-67.5 95.6 50.5)" class="shape-4" d="M85.5 40.4h20.2v20.2H85.5z"/>
      <path transform="rotate(67.5 159.4 50.5)" class="shape-4" d="M149.3 40.4h20.2v20.2h-20.2z"/>
      <path transform="rotate(22.5 204.5 95.6)" class="shape-4" d="M194.4 85.5h20.2v20.2h-20.2z"/>
      <path transform="scale(-1) rotate(67.5 306 -143.1)" class="shape-4" d="M85.5 194.3h20.2v20.2H85.5z"/>
      <path transform="scale(-1) rotate(22.5 801.1 -254.2)" class="shape-4" d="M40.5 149.3h20.2v20.2H40.5z"/>
      <path transform="scale(-1) rotate(-22.5 -801.1 1027.9)" class="shape-4" d="M194.4 149.3h20.2v20.2h-20.2z"/>
      <path transform="scale(-1) rotate(-67.5 -306 238.5)" class="shape-4" d="M149.3 194.3h20.2v20.2h-20.2z"/>
    </g>
    <g>
      <path class="shape-5" d="M37.4 90.1l-11-26.4L11 101.1zM101.1 10.9L90.2 37.3 63.8 26.4zM164.9 37.3l26.4-10.9-37.4-15.5zM244.1 101.1l-26.4-11 10.9-26.4zM90.2 217.6l-26.4 11 37.3 15.4zM11 153.9l26.4 10.9-11 26.4zM217.7 164.8l10.9 26.4 15.5-37.3zM153.9 244l11-26.4 26.4 11z"/>
    </g>
    <g>
      <path class="shape-6" d="M127.5 74.7l-26.4-11-10.9 26.4zM90.2 90.1l-15.5 37.4-10.9-26.4 26.4-11M180.3 127.5l11-26.4-26.4-11zM164.9 90.1l-37.4-15.4 26.4-11 11 26.4M74.7 127.5l-10.9 26.4 26.4 10.9zM90.2 164.8l37.3 15.5-26.4 10.9-10.9-26.4M127.5 180.3l26.4 10.9 11-26.4zM164.9 164.8l15.4-37.3 11 26.4-26.4 10.9"/>
    </g>
    <g>
      <path class="shape-7" d="M63.8-26.4L101.1-11v21.9L63.8 26.4 52.8 0zM26.4 63.7L11 101.1h-21.9l-15.5-37.4L0 52.8zM191.3 26.4l-37.4-15.5V-11l37.4-15.4L202.2 0zM281.4 63.7L266 101.1h-21.9l-15.5-37.4L255 52.8zM63.8 228.6l37.3 15.4v21.9l-37.3 15.5-11-26.4zM-26.4 191.2l15.5-37.3H11l15.4 37.3-26.4 11zM228.6 191.2l15.5-37.3h21.8l15.5 37.3-26.4 11zM191.3 281.4l-37.4-15.5V244l37.4-15.4 10.9 26.4z"/>
    </g>
    <g>
      <path class="shape-8" d="M101.1-11l26.5 11-26.5 10.9zM11 101.1L0 127.5l-10.9-26.4z"/>
      <path class="shape-8" d="M153.9 10.9L127.5 0l26.4-11zM266 101.1l-11 26.4-10.9-26.4zM101.1 244l26.5 11-26.5 10.9zM-10.9 153.9L0 127.5l11 26.4zM244.1 153.9l10.9-26.4 10.9 26.4z"/>
      <path class="shape-8" d="M153.9 265.9L127.5 255l26.4-11z"/>
    </g>
    <path class="shape-9" d="M90.2 90.1l37.3-15.4 37.4 15.4 15.4 37.4-15.4 37.3-37.4 15.5-37.3-15.5-15.5-37.3z"/>
    <g>
      <path class="shape-10" d="M101.1 10.9L127.5 0l26.4 10.9 11 26.4-18.7 7.8 7.7 18.6-26.4 11-26.4-11 7.7-18.6-18.6-7.8zM10.9 153.9L0 127.5l11-26.4 26.4-11 7.7 18.7 18.7-7.7 10.9 26.4-10.9 26.4-18.7-7.8-7.7 18.7zM153.9 244l-26.4 11-26.4-11-10.9-26.4 18.6-7.7-7.7-18.7 26.4-10.9 26.4 10.9-7.7 18.7 18.6 7.7zM244.1 101.1l10.9 26.4-10.9 26.4-26.4 10.9-7.8-18.6-18.6 7.7-11-26.4 11-26.4 18.6 7.7 7.8-18.7z"/>
    </g>
  </g>
  <g class="guides">
    <path d="M-127.5-127.5h255v255h-255zM-127.5-127.5l255 255M127.5-127.5l-255 255"/>
    <path d="M0-127.5l127.5 52.8-90.1 37.3M108.8-45.1L0 0"/>
    <path d="M127.5 0L74.7-127.5 37.4-37.4M105.6 0L63.8-101.1M-127.5 0l52.8-127.5 37.4 90.1"/>
    <path d="M0-127.5l-127.5 52.8 90.2 37.3M0 127.5l-127.5-52.8 90.2-37.4"/>
    <path d="M-127.5 0l52.8 127.5 37.4-90.2M0-127.5L-52.8 0M0-52.8L-127.5 0M127.5 0L74.7 127.5 37.4 37.3"/>
    <path d="M0 127.5l127.5-52.8-90.1-37.4M-127.5 0h255M0-127.5v255M90.2-90.2L-127.5 0M-90.1-90.2L127.5 0M90.2 90.1L-127.5 0M-90.1 90.1L127.5 0M90.2-90.2L0 127.5M90.2 90.1L0-127.5M-90.1-90.2L0 127.5M-90.1 90.1L0-127.5M0 0l45.1-108.8M-45.1-108.8L0 0M-108.8-45.1L0 0M-108.8 45.1L0 0M-45.1 108.8L0 0M45.1 108.8L0 0M108.8 45.1L0 0M101.1-63.8L0-105.6M0-105.6l-101.1 41.9M-105.6 0l41.9-101.1M-105.6 0l41.9 101.1M.1 105.6L-101 63.8M0 105.6l101.1-41.9M105.7 0L63.8 101.1"/>
    <g>
      <path d="M127.5-127.5h255v255h-255zM127.5-127.5l255 255M382.5-127.5l-255 255"/>
      <path d="M255-127.5l127.5 52.8-90.1 37.3M363.8-45.1L255 0"/>
      <path d="M382.5 0l-52.8-127.5-37.3 90.1M360.6 0l-41.8-101.1M127.5 0l52.8-127.5 37.4 90.1"/>
      <path d="M255-127.5L127.5-74.7l90.2 37.3M255 127.5L127.5 74.7l90.2-37.4"/>
      <path d="M127.5 0l52.8 127.5 37.4-90.2M255-127.5L202.2 0M255-52.8L127.5 0M382.5 0l-52.8 127.5-37.3-90.2"/>
      <path d="M255 127.5l127.5-52.8-90.1-37.4M127.5 0h255M255-127.5v255M345.2-90.2L127.5 0M164.9-90.2L382.5 0M345.2 90.1L127.5 0M164.9 90.1L382.5 0M345.2-90.2L255 127.5M345.2 90.1L255-127.5M164.9-90.2L255 127.5M164.9 90.1L255-127.5M300.1-108.8L255 0M209.9-108.8L255 0M146.2-45.1L255 0M146.2 45.1L255 0M209.9 108.8L255 0M300.1 108.8L255 0M363.8 45.1L255 0M255-105.6l101.1 41.8M255-105.6L153.9-63.7M149.4 0l41.9-101.1M149.4 0l41.9 101.1M255.1 105.6L154 63.8M255 105.6l101.1-41.9M360.7 0l-41.9 101.1"/>
    </g>
    <g>
      <path d="M-127.5 127.5h255v255h-255zM-127.5 127.5l255 255M127.5 127.5l-255 255"/>
      <path d="M0 127.5l127.5 52.8-90.1 37.3M108.8 209.9L0 255"/>
      <path d="M127.5 255L74.7 127.5l-37.3 90.1M105.6 255L63.8 153.9M-127.5 255l52.8-127.5 37.4 90.1"/>
      <path d="M0 127.5l-127.5 52.8 90.2 37.3M0 382.5l-127.5-52.8 90.2-37.4"/>
      <path d="M-127.5 255l52.8 127.5 37.4-90.2M0 127.5L-52.8 255M0 202.2L-127.5 255M127.5 255L74.7 382.5l-37.3-90.2"/>
      <path d="M0 382.5l127.5-52.8-90.1-37.4M-127.5 255h255M0 127.5v255M90.2 164.8L-127.5 255M-90.1 164.8L127.5 255M90.2 345.1L-127.5 255M-90.1 345.1L127.5 255M90.2 164.8L0 382.5M90.2 345.1L0 127.5M-90.1 164.8L0 382.5M-90.1 345.1L0 127.5M45.1 146.2L0 255M-45.1 146.2L0 255M-108.8 209.9L0 255M-108.8 300.1L0 255M-45.1 363.8L0 255M45.1 363.8L0 255M108.8 300.1L0 255M0 149.4l101.1 41.8M0 149.4l-101.1 41.9M-105.6 255l41.9-101.1M-105.6 255l41.9 101.1M.1 360.6L-101 318.8M0 360.6l101.1-41.9M105.7 255L63.8 356.1"/>
    </g>
    <g>
      <path d="M127.5 127.5h255v255h-255zM127.5 127.5l255 255M382.5 127.5l-255 255"/>
      <path d="M255 127.5l127.5 52.8-90.1 37.3M363.8 209.9L255 255"/>
      <path d="M382.5 255l-52.8-127.5-37.3 90.1M360.6 255l-41.8-101.1M127.5 255l52.8-127.5 37.4 90.1"/>
      <path d="M255 127.5l-127.5 52.8 90.2 37.3M255 382.5l-127.5-52.8 90.2-37.4"/>
      <path d="M127.5 255l52.8 127.5 37.4-90.2M255 127.5L202.2 255M255 202.2L127.5 255M382.5 255l-52.8 127.5-37.3-90.2"/>
      <path d="M255 382.5l127.5-52.8-90.1-37.4M127.5 255h255M255 127.5v255M345.2 164.8L127.5 255M164.9 164.8L382.5 255M345.2 345.1L127.5 255M164.9 345.1L382.5 255M345.2 164.8L255 382.5M345.2 345.1L255 127.5M164.9 164.8L255 382.5M164.9 345.1L255 127.5M300.1 146.2L255 255M209.9 146.2L255 255M146.2 209.9L255 255M146.2 300.1L255 255M209.9 363.8L255 255M300.1 363.8L255 255M363.8 300.1L255 255M255 149.4l101.1 41.8M255 149.4l-101.1 41.9M149.4 255l41.9-101.1M149.4 255l41.9 101.1M255.1 360.6L154 318.8M255 360.6l101.1-41.9M360.7 255l-41.9 101.1"/>
    </g>
    <g>
      <circle cx="127.5" cy="127.5" r="127.5"/>
    </g>
  </g>
</svg>
