<svg version="1.1" xmlns="http://www.w3.org/2000/svg" width="405" height="405"  viewBox="0 0 405 405">
  <style>
    :root {
      --black: #443430;
      --red: #BF402B;
      --gold: #CEA600;
      --turquois: #4D9BA3;
      --emerald: #216554;
      --blue: #262F66;
      --white: #FFFAF2;
    }
    .shape-1{fill:var(--turquois)}
    .shape-2{fill:var(--white)}
    .shape-3{fill:var(--blue)}
    .shape-4{fill:var(--white)}
    .shape-5{fill:var(--blue)}
    .shape-6{fill:var(--black)}
    .shape-7{fill:var(--white)}
    .shape-8{fill:var(--turquois)}
    .line{}
    .guides{ stroke: #4FFF4F; display: none; fill: none}
  </style>

  <g id="pattern" class="line">
		<polygon class="shape-1" points="241.255,186.446 241.255,163.743 218.552,163.743 202.501,147.693 186.451,163.743 163.746,163.743 
			163.746,186.448 147.692,202.501 163.745,218.553 163.745,241.254 186.447,241.254 202.501,257.308 218.555,241.254 
			241.255,241.254 241.255,218.554 257.309,202.5 	"/>
		<g>
			<polygon class="shape-2" points="202.501,147.693 163.746,108.938 163.746,163.743 186.451,163.743 		"/>
			<polygon class="shape-2" points="163.746,163.743 108.934,163.743 147.692,202.501 163.746,186.448 		"/>
			<polygon class="shape-2" points="241.255,163.743 241.255,108.939 202.501,147.693 218.552,163.743 		"/>
			<polygon class="shape-2" points="257.309,202.5 296.066,163.743 241.255,163.743 241.255,186.446 		"/>
			<polygon class="shape-2" points="202.501,257.308 241.255,296.061 241.255,241.254 218.555,241.254 		"/>
			<polygon class="shape-2" points="257.309,202.5 241.255,218.554 241.255,241.254 296.063,241.254 		"/>
			<polygon class="shape-2" points="163.745,241.254 163.745,296.064 202.501,257.308 186.447,241.254 		"/>
			<polygon class="shape-2" points="147.692,202.501 108.939,241.254 163.745,241.254 163.745,218.553 		"/>
		</g>
		<g>
			<polygon class="shape-3" points="163.746,75.364 202.5,59.312 241.257,75.36 241.257,108.934 202.501,147.693 163.746,108.938 		"/>
			<polygon class="shape-3" points="85.199,140.003 101.25,101.249 140.003,85.191 163.744,108.932 163.746,163.743 108.939,163.743 		
				"/>
			<polygon class="shape-3" points="75.365,241.255 59.311,202.501 75.359,163.745 108.934,163.745 147.692,202.501 108.938,241.255 		
				"/>
			<polygon class="shape-3" points="140.005,319.801 101.249,303.75 85.193,264.996 108.934,241.256 163.745,241.254 163.745,296.061 		
				"/>
			<polygon class="shape-3" points="241.255,329.635 202.501,345.689 163.745,329.641 163.745,296.066 202.501,257.308 241.256,296.062 
						"/>
			<polygon class="shape-3" points="319.802,264.993 303.751,303.749 264.997,319.805 241.257,296.064 241.255,241.254 296.062,241.252 
						"/>
			<polygon class="shape-3" points="329.636,163.746 345.692,202.5 329.641,241.255 296.067,241.255 257.309,202.5 296.063,163.745 		"/>
			<polygon class="shape-3" points="264.993,85.196 303.751,101.247 319.806,140.001 296.065,163.741 241.255,163.743 241.253,108.936 		
				"/>
		</g>
		<g>
			<polygon class="shape-4" points="163.746,75.364 202.5,59.312 160.75,42.018 143.19,0 127.138,38.754 93.561,38.754 117.303,62.496 
				101.25,101.251 140.005,85.198 163.746,108.938 		"/>
			<polygon class="shape-4" points="75.363,163.748 59.31,202.501 42.017,160.751 -0.001,143.192 38.752,127.139 38.752,93.562 
				62.494,117.304 101.25,101.251 85.196,140.007 108.937,163.748 		"/>
			<polygon class="shape-4" points="75.365,241.254 59.312,202.5 42.019,244.25 0,261.81 38.754,277.862 38.754,311.438 62.496,287.697 
				101.251,303.751 85.198,264.995 108.939,241.254 		"/>
			<polygon class="shape-4" points="163.748,329.638 202.502,345.69 160.752,362.983 143.192,405.001 127.14,366.247 93.563,366.247 
				117.305,342.506 101.251,303.751 140.007,319.804 163.748,296.063 		"/>
			<polygon class="shape-4" points="241.254,329.638 202.5,345.69 244.25,362.984 261.81,405.002 277.863,366.248 311.439,366.248 
				287.698,342.506 303.751,303.751 264.995,319.805 241.254,296.063 		"/>
			<polygon class="shape-4" points="329.638,241.254 345.69,202.5 362.984,244.25 405.002,261.811 366.249,277.863 366.249,311.439 
				342.506,287.697 303.751,303.751 319.804,264.995 296.063,241.254 		"/>
			<polygon class="shape-4" points="329.64,163.743 345.693,202.497 362.987,160.747 405.004,143.188 366.25,127.135 366.25,93.558 
				342.509,117.3 303.753,101.247 319.807,140.002 296.066,163.743 		"/>
			<polygon class="shape-4" points="241.257,75.36 202.503,59.307 244.253,42.014 261.812,-0.004 277.865,38.75 311.442,38.75 
				287.7,62.491 303.753,101.247 264.998,85.193 241.257,108.934 		"/>
		</g>
		<g>
			<polygon class="shape-5" points="366.247,277.865 405,261.812 443.758,277.86 443.758,311.435 405.002,350.193 366.247,311.439 		"/>
			<polygon class="shape-5" points="287.699,342.504 303.751,303.749 342.504,287.691 366.244,311.432 366.246,366.244 311.439,366.244 
						"/>
			<polygon class="shape-5" points="277.866,443.756 261.811,405.002 277.86,366.245 311.434,366.245 350.193,405.002 311.438,443.756 		
				"/>
			<polygon class="shape-5" points="277.87,38.752 261.815,-0.002 277.864,-38.759 311.438,-38.759 350.197,-0.002 311.442,38.752 		"/>
			<polygon class="shape-5" points="342.509,117.297 303.753,101.247 287.698,62.493 311.438,38.752 366.25,38.75 366.25,93.557 		"/>
			<polygon class="shape-5" points="443.76,127.131 405.006,143.186 366.25,127.137 366.25,93.563 405.006,54.804 443.76,93.559 		"/>
			<polygon class="shape-5" points="38.753,127.137 0,143.191 -38.756,127.143 -38.756,93.568 0,54.81 38.754,93.564 		"/>
			<polygon class="shape-5" points="117.3,62.495 101.25,101.251 62.496,117.307 38.755,93.566 38.753,38.756 93.561,38.754 		"/>
			<polygon class="shape-5" points="127.135,-38.752 143.19,0.002 127.14,38.757 93.565,38.757 54.808,0.002 93.562,-38.753 		"/>
			<polygon class="shape-5" points="-38.756,277.867 -0.002,261.814 38.755,277.863 38.755,311.438 -0.001,350.195 -38.756,311.441 		"/>
			<polygon class="shape-5" points="127.134,366.248 143.19,405.003 127.139,443.758 93.565,443.758 54.807,405.003 93.561,366.248 		"/>
			<polygon class="shape-5" points="62.491,287.699 101.249,303.75 117.304,342.504 93.563,366.244 38.753,366.246 38.751,311.438 		"/>
		</g>
		<g>
			<polygon class="shape-6" points="261.81,405.001 261.81,405 261.81,405 244.25,362.984 202.5,345.69 160.752,362.983 143.192,405.001 
				160.752,447.019 202.5,464.312 244.25,447.018 261.81,405.002 261.81,405.002 		"/>
			<polygon class="shape-6" points="405.004,143.188 405.002,143.187 405.002,143.188 362.987,160.747 345.693,202.497 362.986,244.245 
				405.004,261.805 447.021,244.245 464.314,202.497 447.02,160.747 405.004,143.188 405.004,143.187 		"/>
			<polygon class="shape-6" points="143.19,0.001 143.189,0.002 143.19,0.002 160.75,42.018 202.5,59.312 244.248,42.019 261.808,0.001 
				244.248,-42.017 202.5,-59.31 160.75,-42.016 143.19,0 143.189,0 		"/>
			<polygon class="shape-6" points="0.001,261.81 0.002,261.811 0.002,261.81 42.018,244.25 59.312,202.5 42.019,160.752 0.001,143.192 
				-42.016,160.752 -59.309,202.5 -42.015,244.25 0,261.81 0,261.811 		"/>
		</g>
		<g>
			<polygon class="shape-7" points="54.807,0.002 93.563,-38.755 38.752,-38.755 38.752,-16.052 		"/>
			<polygon class="shape-7" points="-0.001,54.81 38.752,93.562 38.752,38.756 16.053,38.756 		"/>
			<polygon class="shape-7" points="54.807,0.002 38.752,16.056 38.752,38.756 93.561,38.756 		"/>
			<polygon class="shape-7" points="-38.757,38.756 -38.758,93.566 -0.001,54.81 -16.056,38.756 		"/>
			<polygon class="shape-7" points="366.251,-38.763 311.44,-38.763 350.198,-0.005 366.251,-16.058 		"/>
			<polygon class="shape-7" points="405.007,54.801 443.761,93.554 443.761,38.748 421.061,38.748 		"/>
			<polygon class="shape-7" points="366.251,38.748 366.25,93.558 405.007,54.801 388.953,38.748 		"/>
			<polygon class="shape-7" points="350.198,-0.005 311.445,38.748 366.251,38.748 366.251,16.046 		"/>
			<polygon class="shape-7" points="0,350.192 -38.754,311.438 -38.755,366.242 -16.049,366.242 		"/>
			<polygon class="shape-7" points="38.754,366.242 38.754,311.438 0,350.192 16.051,366.242 		"/>
			<polygon class="shape-7" points="54.808,404.999 93.566,366.242 38.754,366.242 38.754,388.945 		"/>
			<polygon class="shape-7" points="54.808,404.999 38.754,421.054 38.754,443.753 93.563,443.753 		"/>
			<polygon class="shape-7" points="405.006,350.198 366.251,311.443 366.25,366.248 388.957,366.248 		"/>
			<polygon class="shape-7" points="366.25,366.248 311.439,366.248 350.198,405.006 366.25,388.953 		"/>
			<polygon class="shape-7" points="443.76,366.248 443.76,311.444 405.006,350.198 421.057,366.248 		"/>
			<polygon class="shape-7" points="350.198,405.006 311.444,443.759 366.25,443.759 366.25,421.058 		"/>
		</g>
		<g>
			<polygon class="shape-8" points="38.752,-16.052 38.752,-38.755 16.049,-38.755 -0.001,-54.805 -16.052,-38.755 -38.757,-38.755 
				-38.757,-16.05 -54.81,0.003 -38.757,16.055 -38.757,38.756 -16.056,38.756 -0.001,54.81 16.053,38.756 38.752,38.756 
				38.752,16.056 54.807,0.002 		"/>
			<polygon class="shape-8" points="443.761,-16.06 443.761,-38.763 421.058,-38.763 405.007,-54.813 388.957,-38.763 366.251,-38.763 
				366.251,-16.058 350.198,-0.005 366.251,16.046 366.251,38.748 388.953,38.748 405.007,54.801 421.061,38.748 443.761,38.748 
				443.761,16.048 459.814,-0.006 		"/>
			<polygon class="shape-8" points="38.754,388.945 38.754,366.242 16.051,366.242 0,350.192 -16.049,366.242 -38.755,366.242 
				-38.755,388.947 -54.808,405 -38.755,421.052 -38.755,443.753 -16.053,443.753 0,459.807 16.054,443.753 38.754,443.753 
				38.754,421.054 54.808,404.999 		"/>
			<polygon class="shape-8" points="443.76,388.951 443.76,366.248 421.057,366.248 405.006,350.198 388.957,366.248 366.25,366.248 
				366.25,388.953 350.198,405.006 366.25,421.058 366.25,443.759 388.953,443.759 405.006,459.812 421.061,443.759 443.76,443.759 
				443.76,421.06 459.814,405.005 		"/>
		</g>
	</g>
	<g class="guides">
		<rect class="st0" width="405" height="405"/>
		<rect x="59.312" y="59.311" transform="matrix(0.7071 -0.7071 0.7071 0.7071 -83.8778 202.4999)" class="st0" width="286.379" height="286.378"/>
		<line class="st0" x1="405" y1="405" x2="0" y2="0"/>
		<line class="st0" x1="405" y1="0" x2="0" y2="405"/>
		<line class="st0" x1="0.001" y1="202.5" x2="405.001" y2="202.5"/>
		<line class="st0" x1="202.5" y1="0" x2="202.5" y2="405"/>
		<line class="st0" x1="143.189" y1="59.311" x2="261.812" y2="345.689"/>
		<line class="st0" x1="59.312" y1="143.189" x2="345.692" y2="261.811"/>
		<line class="st0" x1="59.315" y1="261.809" x2="345.689" y2="143.188"/>
		<line class="st0" x1="143.192" y1="345.683" x2="261.812" y2="59.311"/>
		<line class="st0" x1="0" y1="0" x2="143.189" y2="59.311"/>
		<line class="st0" x1="0" y1="0" x2="59.312" y2="143.189"/>
		<line class="st0" x1="405" y1="0" x2="261.812" y2="59.311"/>
		<line class="st0" x1="405" y1="0" x2="345.689" y2="143.188"/>
		<line class="st0" x1="345.692" y1="261.811" x2="405" y2="405"/>
		<line class="st0" x1="261.812" y1="345.689" x2="405" y2="405"/>
		<line class="st0" x1="143.192" y1="345.683" x2="0" y2="405"/>
		<line class="st0" x1="59.315" y1="261.809" x2="0" y2="405"/>
		<circle class="st0" cx="202.5" cy="202.501" r="143.19"/>
		<circle class="st0" cx="405" cy="0" r="143.19"/>
		<circle class="st0" cx="0" cy="0" r="143.19"/>
		<circle class="st0" cx="0" cy="405" r="143.19"/>
		<circle class="st0" cx="405" cy="405" r="143.19"/>
		<circle class="st0" cx="202.5" cy="202.5" r="101.249"/>
		<circle class="st0" cx="0" cy="0" r="101.249"/>
		<circle class="st0" cx="405" cy="0" r="101.249"/>
		<circle class="st0" cx="0" cy="405" r="101.249"/>
		<circle class="st0" cx="405" cy="405" r="101.249"/>
	</g>
</svg>
