<svg version="1.1" xmlns="http://www.w3.org/2000/svg" width="405" height="405"  viewBox="0 0 405 405">
  <style>
    :root {
      --black: #443430;
      --red: #BF402B;
      --gold: #CEA600;
      --turquois: #4D9BA3;
      --emerald: #216554;
      --blue: #262F66;
      --white: #FFFAF2;
    }
    .shape-1{fill:var(--white)}
    .shape-2{fill:var(--blue)}
    .shape-3{fill:var(--white)}
    .shape-4{fill:var(--turquois)}
    .shape-5{fill:var(--blue)}
    .shape-6{fill:var(--white)}
    .line{}
    .guides{ stroke: #4FFF4F; display: none; fill: none}
  </style>

  <g id="pattern" class="line">
    <path class="shape-1" d="M163.7 241.3c-9 14.6-14 30.7 0 54.8 27-7.2 34.8-22.1 38.8-38.8 4 16.7 11.9 31.6 38.8 38.8 14-24.1 9-40.2 0-54.8 14.6 9 30.7 14 54.8 0-7.2-27-22.1-34.8-38.8-38.8 16.7-4 31.6-11.9 38.8-38.8-24-14-40.2-9-54.8 0 9-14.6 14-30.7 0-54.8-27 7.2-34.8 22.1-38.8 38.8-4-16.7-11.9-31.6-38.8-38.8-14 24-9 40.2 0 54.8-14.6-9-30.7-14-54.8 0 7.2 27 22.1 34.8 38.8 38.8-16.7 4-31.6 11.9-38.8 38.8 24 14 40.2 9 54.8 0z"/>
    <path class="shape-2" d="M109 163.7a39 39 0 00-24.3-25.6c13.2-7.8 16.6-24.3 16.6-36.9 12.5 0 29-3.3 36.8-16.5a39 39 0 0025.6 24.2c-14 24-9 40.2 0 54.8-14.6-9-30.7-14-54.8 0zm54.7-90.2c4.4 7.7 8.2 18.2 0 35.4 27 7.2 34.8 22.1 38.8 38.8 4-16.7 11.9-31.6 38.8-38.8-8.2-17.2-4.4-27.7 0-35.4-10 3.5-30.3-4.5-38.8-14.2C194 69 173.6 77 163.7 73.5zm77.6 258c-4.4-7.7-8.2-18.2 0-35.4a39 39 0 0125.6 24.2c7.8-13.2 24.3-16.6 36.8-16.6 0-12.5 3.4-29 16.6-36.8a39 39 0 01-24.2-25.6c17.2-8.2 27.7-4.4 35.4 0-3.5-10 4.4-30.3 14.2-38.8-9.8-8.5-17.7-28.9-14.2-38.8-7.7 4.4-18.2 8.2-35.4 0-7.2 27-22.1 34.8-38.8 38.8 16.7 4 31.6 11.9 38.8 38.8-24 14-40.2 9-54.8 0 9 14.6 14 30.7 0 54.8-27-7.2-34.8-22.1-38.8-38.8-4 16.7-11.9 31.6-38.8 38.8 8.2 17.2 4.4 27.7 0 35.4 10-3.5 30.3 4.4 38.8 14.2 8.5-9.8 28.9-17.7 38.8-14.2zm-77.6-90.2c-14.6 9-30.7 14-54.8 0 7.2-27 22.1-34.8 38.8-38.8-16.7-4-31.6-11.9-38.8-38.8-17.2 8.2-27.7 4.4-35.4 0 3.5 10-4.5 30.3-14.2 38.8C69 211 77 231.4 73.5 241.3c7.7-4.4 18.2-8.2 35.4 0a39 39 0 01-24.2 25.6c13.2 7.8 16.6 24.3 16.6 36.8 12.5 0 29 3.4 36.8 16.6a39 39 0 0125.6-24.2c-14-24-9-40.2 0-54.8zM320.3 138c-13.2-7.7-16.6-24.2-16.6-36.8-12.5 0-29-3.3-36.8-16.5a39 39 0 01-25.6 24.2c14 24 9 40.2 0 54.8 14.6-9 30.7-14 54.8 0a39 39 0 0124.2-25.6z"/>
    <path class="shape-3" d="M163.7 73.5c4.4 7.7 8.2 18.2 0 35.4a39 39 0 01-25.6-24.2c-7.8 13.2-24.3 16.6-36.8 16.6-1-19.8 4.1-31 15.7-40 0 0-16.8-4.3-23.4-22.5 0 0 12.7-11.5 32.2-1-2.8-18 7.6-33.6 17.4-37.8 12.4 4.1 18.3 26.1 18.3 41 12.8-2.5 35.6 5.4 41 18.3C194 69 173.6 77 163.7 73.5zM241.3 73.5c-4.4 7.7-8.2 18.2 0 35.4a39 39 0 0025.6-24.2c7.8 13.2 24.3 16.6 36.8 16.6 1-19.8-4.1-31-15.7-40 0 0 16.8-4.3 23.4-22.5 0 0-12.7-11.5-32.1-1 2.7-18-7.7-33.6-17.5-37.8-12.4 4.1-18.3 26.1-18.3 41-12.8-2.5-35.6 5.4-41 18.3C211 69 231.4 77 241.3 73.5zM73.5 241.3c7.7-4.4 18.2-8.2 35.4 0a39 39 0 01-24.2 25.6c13.2 7.8 16.6 24.3 16.6 36.8-19.8 1-31-4.1-40-15.7 0 0-4.3 16.8-22.5 23.4 0 0-11.5-12.7-1-32.2-18 2.8-33.5-7.6-37.8-17.4 4.1-12.4 26.2-18.3 41-18.3-2.5-12.8 5.4-35.6 18.3-41C69 211 77 231.4 73.5 241.3z"/>
    <path class="shape-3" d="M73.5 163.7c7.7 4.4 18.2 8.2 35.4 0a39 39 0 00-24.2-25.6c13.2-7.8 16.6-24.3 16.6-36.9-19.8-1-31 4.2-40 15.8 0 0-4.3-16.8-22.5-23.4 0 0-11.5 12.6-1 32.1-18-2.7-33.5 7.7-37.8 17.5 4.1 12.4 26.2 18.3 41 18.3-2.5 12.7 5.4 35.6 18.3 41C69 194 77 173.6 73.5 163.7zM241.3 331.5c-4.4-7.7-8.2-18.2 0-35.4a39 39 0 0125.6 24.2c7.8-13.2 24.3-16.6 36.8-16.6 1 19.8-4.1 31-15.7 40 0 0 16.8 4.3 23.4 22.5 0 0-12.7 11.5-32.2 1 2.8 18-7.6 33.5-17.4 37.8-12.4-4.1-18.3-26.2-18.3-41-12.8 2.5-35.6-5.4-41-18.3 8.5-9.8 28.9-17.7 38.8-14.2zM163.7 331.5c4.4-7.7 8.2-18.2 0-35.4a39 39 0 00-25.6 24.2c-7.8-13.2-24.3-16.6-36.8-16.6-1 19.8 4.1 31 15.7 40 0 0-16.8 4.3-23.4 22.5 0 0 12.7 11.5 32.2 1-2.8 18 7.6 33.5 17.4 37.8 12.4-4.1 18.3-26.2 18.3-41 12.8 2.5 35.6-5.4 41-18.3-8.5-9.8-28.9-17.7-38.8-14.2zM331.5 163.7c-7.7 4.4-18.2 8.2-35.4 0a39 39 0 0124.2-25.6c-13.2-7.8-16.6-24.3-16.6-36.9 19.8-1 31 4.2 40 15.8 0 0 4.3-16.8 22.5-23.4 0 0 11.6 12.6 1 32.1 18-2.7 33.6 7.7 37.8 17.5-4.1 12.4-26.1 18.3-41 18.3 2.5 12.7-5.4 35.6-18.3 41-9.7-8.5-17.7-28.9-14.2-38.8z"/>
    <path class="shape-3" d="M331.5 241.3c-7.7-4.4-18.2-8.2-35.4 0a39 39 0 0024.2 25.6c-13.2 7.8-16.6 24.3-16.6 36.8 19.8 1 31-4.1 40-15.7 0 0 4.3 16.8 22.5 23.4 0 0 11.6-12.7 1-32.2 18 2.8 33.6-7.6 37.8-17.4-4.1-12.4-26.1-18.3-41-18.3 2.5-12.8-5.4-35.6-18.3-41-9.7 8.5-17.7 28.9-14.2 38.8z"/>
    <g>
      <path class="shape-4" d="M143.2 405c12.4 4.1 18.3 26.1 18.3 41 12.8-2.5 35.6 5.4 41 18.3 5.4-12.9 28.3-20.8 41-18.3 0-14.9 5.9-36.9 18.3-41-12.4-4.1-18.3-26.2-18.3-41-12.8 2.5-35.6-5.4-41-18.3-5.4 12.9-28.3 20.8-41 18.3 0 14.8-5.9 36.9-18.3 41zM143.2 0c12.4 4.1 18.3 26.1 18.3 41 12.8-2.5 35.6 5.4 41 18.3 5.4-12.9 28.3-20.8 41-18.3 0-14.9 5.9-36.9 18.3-41-12.4-4.1-18.3-26.1-18.3-41-12.8 2.5-35.6-5.4-41-18.3-5.4 12.9-28.3 20.8-41 18.3 0 14.9-5.9 36.9-18.3 41zM405 261.8c4.1-12.4 26.1-18.3 41-18.3-2.5-12.8 5.4-35.6 18.3-41-12.9-5.4-20.8-28.3-18.3-41-14.9 0-36.9-5.9-41-18.3-4.1 12.4-26.2 18.3-41 18.3 2.5 12.7-5.4 35.6-18.3 41 12.9 5.4 20.8 28.2 18.3 41 14.9 0 36.9 5.9 41 18.3zM0 261.8c4.1-12.4 26.2-18.3 41-18.3-2.5-12.8 5.4-35.6 18.3-41-12.9-5.4-20.8-28.3-18.3-41-14.8 0-36.9-5.9-41-18.3-4.1 12.4-26.1 18.3-41 18.3 2.5 12.7-5.4 35.6-18.3 41 12.9 5.4 20.8 28.2 18.3 41 14.9 0 36.9 5.9 41 18.3z"/>
    </g>
    <g>
      <path class="shape-5" d="M93.6 38.8A36.5 36.5 0 00117 61.3c-11.6 9-16.7 20.2-15.7 40-19.8-1-31 4.1-40 15.7 0 0-4.3-16.8-22.5-23.4 14-24 9-40.2 0-54.8 14.6 9 30.7 14 54.8 0zM0 143.2c4.3-9.8 19.8-20.2 37.8-17.5-10.5-19.4 1-32.1 1-32.1C11.8 86.4 4 71.5 0 54.8c-4 16.7-11.9 31.6-38.8 38.8-14-24-9-40.2 0-54.8-14.6 9-30.7 14-54.8 0C-86.4 11.8-71.5 4-54.8 0c-16.7-4-31.6-11.9-38.8-38.8 24-14 40.2-9 54.8 0-9-14.6-14-30.7 0-54.8C-11.8-86.4-4-71.5 0-54.8c4-16.7 11.9-31.6 38.8-38.8 14 24 9 40.2 0 54.8 14.6-9 30.7-14 54.8 0C86.4-11.8 71.5-4 54.8 0c16.7 4 31.6 11.9 38.8 38.8 0 0 12.7-11.5 32.2-1-2.8-18 7.6-33.5 17.4-37.8A143.2 143.2 0 100 143.2zM366.2 38.8c-9 14.6-14 30.7 0 54.8-18.2 6.6-22.5 23.4-22.5 23.4-9-11.6-20.2-16.8-40-15.7 1-19.8-4.1-31-15.7-40 0 0 16.8-4.3 23.4-22.5 24 14 40.2 9 54.8 0zM405 143.2A143.2 143.2 0 10261.8 0c9.8 4.3 20.2 19.8 17.4 37.7 19.6-10.5 32.2 1 32.2 1C318.6 12 333.5 4 350.2 0c-16.7-4-31.6-11.9-38.8-38.8 24-14 40.2-9 54.8 0-9-14.6-14-30.7 0-54.8 27 7.2 34.8 22.1 38.8 38.8 4-16.7 11.9-31.6 38.8-38.8 14 24 9 40.2 0 54.8 14.6-9 30.7-14 54.8 0-7.2 27-22.1 34.8-38.8 38.8 16.7 4 31.6 11.9 38.8 38.8-24 14-40.2 9-54.8 0 9 14.6 14 30.7 0 54.8-27-7.2-34.8-22.1-38.8-38.8-4 16.7-11.9 31.6-38.8 38.8 0 0 11.5 12.6 1 32.1 18-2.7 33.5 7.7 37.8 17.5zM38.8 366.2c9-14.6 14-30.7 0-54.8C57 304.8 61.3 288 61.3 288c9 11.6 20.2 16.7 40 15.7-1 19.8 4.1 31 15.7 40 0 0-16.8 4.3-23.4 22.5-24-14-40.2-9-54.8 0zM0 261.8A143.2 143.2 0 10143.2 405c-9.8-4.3-20.2-19.8-17.5-37.8-19.5 10.5-32.1-1-32.1-1-7.2 27-22.1 34.8-38.8 38.8 16.7 4 31.6 11.9 38.8 38.7-24 14-40.2 9-54.8 0 9 14.7 14 30.8 0 54.9-27-7.2-34.8-22.1-38.8-38.8-4 16.7-11.9 31.6-38.8 38.8-14-24.1-9-40.2 0-54.9-14.6 9-30.7 14-54.8 0C-86.4 417-71.5 409-54.8 405c-16.7-4-31.6-11.9-38.8-38.8 24-14 40.2-9 54.8 0-9-14.6-14-30.7 0-54.8 27 7.2 34.8 22.1 38.8 38.8 4-16.7 11.9-31.6 38.8-38.8 0 0-11.5-12.7-1-32.2-18 2.8-33.6-7.6-37.8-17.4zM311.4 366.2c-6.6-18.2-23.4-22.5-23.4-22.5 11.6-9 16.7-20.2 15.7-40 19.8 1 31-4.1 40-15.7 0 0 4.3 16.8 22.5 23.4-14 24-9 40.2 0 54.8-14.6-9-30.7-14-54.8 0zM405 261.8c-4.3 9.8-19.8 20.2-37.8 17.4 10.5 19.5-1 32.2-1 32.2 27 7.2 34.8 22.1 38.8 38.8 4-16.7 11.9-31.6 38.8-38.8 14 24 9 40.2 0 54.8 14.6-9 30.7-14 54.8 0-7.2 27-22.1 34.8-38.8 38.8 16.7 4 31.6 11.9 38.8 38.7-24 14-40.2 9-54.8 0 9 14.7 14 30.8 0 54.9-27-7.2-34.8-22.1-38.8-38.8-4 16.7-11.9 31.6-38.8 38.8-14-24.1-9-40.2 0-54.9-14.6 9-30.7 14-54.8 0 7.2-26.8 22.1-34.7 38.8-38.7-16.7-4-31.6-11.9-38.8-38.8 0 0-12.7 11.5-32.1 1 2.7 18-7.7 33.5-17.5 37.8A143.2 143.2 0 10405 261.8z"/>
    </g>
    <g>
      <path class="shape-6" d="M-38.8 38.8c-9 14.6-14 30.7 0 54.8C-11.8 86.4-4 71.5 0 54.8c4 16.7 11.9 31.6 38.8 38.8 14-24 9-40.2 0-54.8 14.6 9 30.7 14 54.8 0C86.4 11.8 71.5 4 54.8 0c16.7-4 31.6-11.9 38.8-38.8-24-14-40.2-9-54.8 0 9-14.6 14-30.7 0-54.8C11.8-86.4 4-71.5 0-54.8c-4-16.7-11.9-31.6-38.8-38.8-14 24-9 40.2 0 54.8-14.6-9-30.7-14-54.8 0C-86.4-11.8-71.5-4-54.8 0c-16.7 4-31.6 11.9-38.8 38.8 24 14 40.2 9 54.8 0zM366.2 443.7c-9 14.7-14 30.8 0 54.9 27-7.2 34.8-22.1 38.8-38.8 4 16.7 11.9 31.6 38.8 38.8 14-24.1 9-40.2 0-54.9 14.6 9 30.7 14 54.8 0-7.2-26.8-22.1-34.7-38.8-38.7 16.7-4 31.6-11.9 38.8-38.8-24-14-40.2-9-54.8 0 9-14.6 14-30.7 0-54.8-27 7.2-34.8 22.1-38.8 38.8-4-16.7-11.9-31.6-38.8-38.8-14 24-9 40.2 0 54.8-14.6-9-30.7-14-54.8 0 7.2 27 22.1 34.8 38.8 38.8-16.7 4-31.6 11.9-38.8 38.7 24 14 40.2 9 54.8 0zM366.2 38.8c-9 14.6-14 30.7 0 54.8 27-7.2 34.8-22.1 38.8-38.8 4 16.7 11.9 31.6 38.8 38.8 14-24 9-40.2 0-54.8 14.6 9 30.7 14 54.8 0-7.2-27-22.1-34.8-38.8-38.8 16.7-4 31.6-11.9 38.8-38.8-24-14-40.2-9-54.8 0 9-14.6 14-30.7 0-54.8-27 7.2-34.8 22.1-38.8 38.8-4-16.7-11.9-31.6-38.8-38.8-14 24-9 40.2 0 54.8-14.6-9-30.7-14-54.8 0 7.2 27 22.1 34.8 38.8 38.8-16.7 4-31.6 11.9-38.8 38.8 24 14 40.2 9 54.8 0zM-38.8 443.8c-9 14.6-14 30.7 0 54.8 27-7.2 34.8-22.1 38.8-38.8 4 16.7 11.9 31.6 38.8 38.8 14-24.1 9-40.2 0-54.9 14.6 9 30.7 14 54.8 0C86.4 417 71.5 409 54.8 405c16.7-4 31.6-11.9 38.8-38.8-24-14-40.2-9-54.8 0 9-14.6 14-30.7 0-54.8-27 7.2-34.8 22.1-38.8 38.8-4-16.7-11.9-31.6-38.8-38.8-14 24-9 40.2 0 54.8-14.6-9-30.7-14-54.8 0 7.2 27 22.1 34.8 38.8 38.8-16.7 4-31.6 11.9-38.8 38.8 24 14 40.2 9 54.8 0z"/>
    </g>
  </g>
  <g class="guides">
    <path class="st0" d="M0 0h405v405H0z"/>
    <path class="st0" d="M0 202.5L202.5 0 405 202.5 202.5 405zM405 405L0 0M405 0L0 405M0 202.5h405M202.5 0v405M143.2 59.3l118.6 286.4M59.3 143.2l286.4 118.6M59.3 261.8l286.4-118.6M143.2 345.7L261.8 59.3M0 0l143.2 59.3M0 0l59.3 143.2M405 0L261.8 59.3M405 0l-59.3 143.2M345.7 261.8L405 405M261.8 345.7L405 405M143.2 345.7L0 405M59.3 261.8L0 405"/>
    <circle class="st0" cx="202.5" cy="202.5" r="143.2"/>
    <circle class="st0" cx="405" r="143.2"/>
    <circle class="st0" r="143.2"/>
    <circle class="st0" cy="405" r="143.2"/>
    <circle class="st0" cx="405" cy="405" r="143.2"/>
    <circle class="st0" cx="202.5" cy="202.5" r="101.2"/>
    <circle class="st0" r="101.2"/>
    <circle class="st0" cx="405" r="101.2"/>
    <circle class="st0" cy="405" r="101.2"/>
    <circle class="st0" cx="405" cy="405" r="101.2"/>
    <path class="st0" d="M241.3 186.4v-22.7h-22.7l-16.1-16-16 16h-22.8v22.7l-16 16.1 16 16.1v22.7h22.7l16.1 16 16.1-16h22.7v-22.7l16-16.1z"/>
    <path class="st0" d="M202.5 147.7l-38.8-38.8v54.8h22.8zM163.7 163.7h-54.8l38.8 38.8 16-16.1zM241.3 163.7v-54.8l-38.8 38.8 16.1 16zM257.3 202.5l38.8-38.8h-54.8v22.7zM202.5 257.3l38.8 38.8v-54.8h-22.7zM257.3 202.5l-16 16.1v22.7h54.8zM163.7 241.3v54.8l38.8-38.8-16.1-16zM147.7 202.5l-38.8 38.8h54.8v-22.7z"/>
  </g>
</svg>
