<svg version="1.1" xmlns="http://www.w3.org/2000/svg" width="405" height="405"  viewBox="0 0 405 405">
  <style>
    :root {
      --black: #443430;
      --red: #BF402B;
      --gold: #CEA600;
      --turquois: #4D9BA3;
      --emerald: #216554;
      --blue: #262F66;
      --white: #FFFAF2;
    }
    .shape-1{fill:var(--white)}
    .shape-2{fill:var(--blue)}
    .shape-3{fill:var(--white)}
    .shape-4{fill:var(--turquois)}
    .shape-5{fill:var(--blue)}
    .shape-6{fill:var(--white)}
    .line{}
    .guides{ stroke: #4FFF4F; display: none; fill: none}
  </style>

  <g id="pattern" class="line">
		<path class="shape-1" d="M163.747,241.251c-8.976,14.631-13.973,30.754-0.001,54.807c26.888-7.127,34.754-22.062,38.754-38.754
			c4,16.691,11.867,31.627,38.754,38.754c13.972-24.053,8.975-40.176-0.001-54.807c14.631,8.976,30.754,13.973,54.808,0.001
			c-7.128-26.888-22.063-34.754-38.755-38.754c16.692-4,31.627-11.867,38.755-38.754c-24.053-13.972-40.176-8.975-54.808,0.001
			c8.976-14.631,13.973-30.754,0.001-54.808C214.367,116.065,206.5,131,202.5,147.692c-4-16.692-11.867-31.627-38.754-38.755
			c-13.972,24.053-8.975,40.176,0.001,54.808c-14.631-8.976-30.754-13.973-54.808-0.001c7.128,26.888,22.063,34.754,38.755,38.754
			c-16.692,4-31.627,11.867-38.755,38.754C132.992,255.225,149.115,250.227,163.747,241.251z"/>
		<path class="shape-2" d="M108.939,163.744c-4.348-16.4-19.491-24.434-24.284-25.693c13.292-7.767,16.597-24.299,16.597-36.801h0
			c0,0,0.001,0,0.001,0c0,0,0,0.001,0,0.002c12.502,0,29.034-3.305,36.801-16.597c1.259,4.793,9.292,19.936,25.692,24.284
			c-13.971,24.052-8.974,40.175,0.001,54.806C149.115,154.769,132.992,149.772,108.939,163.744z M163.747,73.541
			c4.371,7.673,8.175,18.122,0,35.396C190.634,116.065,198.5,131,202.5,147.692c4-16.692,11.866-31.626,38.753-38.754
			c-8.175-17.275-4.371-27.724,0-35.396c-9.878,3.44-30.23-4.493-38.753-14.229C193.977,69.048,173.625,76.981,163.747,73.541z
			 M241.253,331.456c-4.371-7.673-8.175-18.122,0-35.397c16.4,4.348,24.434,19.491,25.693,24.284
			c7.767-13.292,24.299-16.597,36.801-16.597c0,0.002,0,0.004,0,0.005c0.002-0.002,0.003-0.004,0.005-0.006c-0.001,0-0.003,0-0.005,0
			c0-12.502,3.305-29.033,16.597-36.801c-4.793-1.259-19.937-9.293-24.284-25.693c17.275-8.175,27.724-4.372,35.397,0
			c-3.44-9.878,4.493-30.23,14.229-38.753c-9.736-8.523-17.669-28.875-14.229-38.753c-7.673,4.371-18.122,8.175-35.397,0
			c-7.128,26.888-22.063,34.754-38.755,38.754c16.692,4,31.627,11.867,38.755,38.754c-24.053,13.972-40.176,8.975-54.808-0.001
			c8.976,14.631,13.973,30.754,0.001,54.807c-26.888-7.127-34.754-22.062-38.754-38.754c-4,16.691-11.867,31.627-38.754,38.754
			c8.175,17.275,4.372,27.725,0,35.397c9.878-3.44,30.23,4.493,38.753,14.229C211.023,335.949,231.375,328.016,241.253,331.456z
			 M163.747,241.251c-14.631,8.976-30.754,13.973-54.808,0.001c7.128-26.888,22.063-34.754,38.755-38.754
			c-16.692-4-31.627-11.867-38.755-38.754c-17.275,8.175-27.724,4.372-35.397,0c3.44,9.878-4.493,30.23-14.229,38.754
			c9.736,8.523,17.669,28.875,14.229,38.753c7.673-4.371,18.122-8.175,35.397,0.001c-4.348,16.4-19.491,24.434-24.284,25.693
			c13.292,7.766,16.597,24.299,16.597,36.801c12.502,0,29.034,3.305,36.801,16.597c1.259-4.793,9.293-19.937,25.693-24.284
			C149.774,272.006,154.771,255.883,163.747,241.251z M320.345,138.05c-13.292-7.767-16.597-24.299-16.597-36.801h0
			c0,0-0.001,0-0.001,0c0,0,0,0.001,0,0.002c-12.502,0-29.034-3.305-36.801-16.597c-1.259,4.793-9.292,19.936-25.692,24.284
			c13.971,24.052,8.974,40.175-0.001,54.806c14.631-8.976,30.754-13.973,54.808-0.001C300.409,147.343,315.552,139.31,320.345,138.05
			z"/>
		<g>
			<path class="shape-3" d="M163.747,73.541c4.371,7.673,8.175,18.122,0,35.397c-16.4-4.348-24.434-19.491-25.693-24.284
				c-7.767,13.292-24.299,16.597-36.801,16.597C100.25,81.454,105.426,70.292,117,61.25c0,0-16.833-4.226-23.437-22.495
				c-0.001,0.001,12.688-11.504,32.187-1.005c-2.75-18,7.631-33.5,17.44-37.75c12.434,4.115,18.31,26.149,18.31,41
				c12.75-2.5,35.563,5.437,41,18.312C193.977,69.048,173.625,76.981,163.747,73.541z"/>
			<path class="shape-3" d="M241.253,73.541c-4.371,7.673-8.175,18.122,0,35.397c16.4-4.348,24.434-19.491,25.693-24.284
				c7.767,13.292,24.299,16.597,36.801,16.597C304.75,81.454,299.574,70.292,288,61.25c0,0,16.833-4.226,23.437-22.495
				c0.001,0.001-12.688-11.504-32.187-1.005c2.75-18-7.631-33.5-17.44-37.75c-12.434,4.115-18.31,26.149-18.31,41
				c-12.75-2.5-35.563,5.437-41,18.312C211.023,69.048,231.375,76.981,241.253,73.541z"/>
			<path class="shape-3" d="M73.542,241.251c7.673-4.371,18.122-8.175,35.397,0.001c-4.348,16.4-19.491,24.434-24.284,25.693
				c13.292,7.766,16.597,24.299,16.597,36.801c-19.797,1.001-30.959-4.174-40.001-15.748c0,0-4.226,16.832-22.495,23.437
				c0.001,0.001-11.504-12.688-1.005-32.187c-18,2.75-33.5-7.631-37.75-17.441c4.115-12.434,26.149-18.309,41-18.309
				c-2.5-12.75,5.437-35.564,18.312-41C69.048,211.021,76.981,231.373,73.542,241.251z"/>
			<path class="shape-3" d="M73.542,163.744c7.673,4.371,18.122,8.175,35.397,0c-4.348-16.4-19.491-24.434-24.284-25.693
				c13.292-7.767,16.597-24.299,16.597-36.801c-19.797-1.001-30.959,4.174-40.001,15.748c0,0-4.226-16.833-22.495-23.437
				c0.001-0.001-11.504,12.688-1.005,32.187c-18-2.75-33.5,7.631-37.75,17.44c4.115,12.434,26.149,18.31,41,18.31
				c-2.5,12.75,5.437,35.563,18.312,41C69.048,193.975,76.981,173.623,73.542,163.744z"/>
			<path class="shape-3" d="M241.253,331.456c-4.371-7.673-8.175-18.122,0-35.397c16.4,4.348,24.434,19.491,25.693,24.284
				c7.767-13.292,24.299-16.597,36.801-16.597c1.001,19.797-4.174,30.959-15.748,40.001c0,0,16.833,4.226,23.437,22.495
				c0.001-0.002-12.688,11.504-32.187,1.005c2.75,18-7.631,33.5-17.44,37.75c-12.434-4.115-18.31-26.149-18.31-41
				c-12.75,2.5-35.563-5.437-41-18.312C211.023,335.949,231.375,328.016,241.253,331.456z"/>
			<path class="shape-3" d="M163.746,331.456c4.371-7.673,8.175-18.122,0-35.397c-16.4,4.348-24.434,19.491-25.693,24.284
				c-7.767-13.292-24.299-16.597-36.801-16.597c-1.001,19.797,4.174,30.959,15.748,40.001c0,0-16.833,4.226-23.437,22.495
				c-0.001-0.002,12.688,11.504,32.187,1.005c-2.75,18,7.631,33.5,17.44,37.75c12.434-4.115,18.31-26.149,18.31-41
				c12.75,2.5,35.563-5.437,41-18.312C193.976,335.949,173.625,328.016,163.746,331.456z"/>
			<path class="shape-3" d="M331.458,163.744c-7.673,4.371-18.122,8.175-35.397,0c4.348-16.4,19.491-24.434,24.284-25.693
				c-13.292-7.767-16.597-24.299-16.597-36.801c19.797-1.001,30.959,4.174,40.001,15.748c0,0,4.227-16.833,22.495-23.437
				c0-0.001,11.506,12.688,1.006,32.187c18-2.75,33.5,7.631,37.75,17.44c-4.115,12.434-26.148,18.31-41,18.31
				c2.5,12.75-5.438,35.563-18.312,41C335.952,193.974,328.019,173.623,331.458,163.744z"/>
			<path class="shape-3" d="M331.458,241.251c-7.673-4.371-18.122-8.175-35.397,0c4.348,16.4,19.491,24.434,24.284,25.693
				c-13.292,7.768-16.597,24.299-16.597,36.801c19.797,1.002,30.959-4.174,40.001-15.748c0,0,4.227,16.833,22.495,23.438
				c0,0.002,11.506-12.688,1.006-32.188c18,2.75,33.5-7.631,37.75-17.439c-4.115-12.435-26.148-18.31-41-18.31
				c2.5-12.75-5.438-35.563-18.312-41C335.952,211.021,328.019,231.373,331.458,241.251z"/>
		</g>
		<g>
			<path class="shape-4" d="M143.19,404.997c12.434,4.115,18.31,26.149,18.31,41c12.75-2.5,35.563,5.437,41,18.312
				c5.437-12.875,28.25-20.812,41-18.312c0-14.851,5.875-36.885,18.31-41c-12.434-4.115-18.31-26.149-18.31-41
				c-12.75,2.5-35.563-5.437-41-18.312c-5.437,12.875-28.25,20.812-41,18.312C161.5,378.848,155.624,400.882,143.19,404.997z"/>
			<path class="shape-4" d="M143.19,0c12.434,4.115,18.31,26.149,18.31,41c12.75-2.5,35.563,5.437,41,18.312
				c5.437-12.875,28.25-20.812,41-18.312c0-14.851,5.875-36.885,18.31-41c-12.434-4.115-18.31-26.149-18.31-41
				c-12.75,2.5-35.563-5.437-41-18.312C197.063-46.437,174.25-38.5,161.5-41C161.5-26.149,155.625-4.115,143.19,0z"/>
			<path class="shape-4" d="M404.998,261.809c4.115-12.435,26.15-18.31,41-18.31c-2.5-12.75,5.438-35.563,18.312-41
				c-12.875-5.437-20.812-28.25-18.312-41c-14.85,0-36.885-5.875-41-18.31c-4.115,12.434-26.148,18.31-41,18.31
				c2.5,12.75-5.436,35.563-18.311,41c12.875,5.437,20.811,28.25,18.311,41C378.85,243.499,400.883,249.374,404.998,261.809z"/>
			<path class="shape-4" d="M0.001,261.808c4.115-12.434,26.149-18.31,41-18.31c-2.5-12.75,5.437-35.563,18.312-41
				c-12.875-5.437-20.812-28.25-18.312-41c-14.851,0-36.885-5.875-41-18.31c-4.115,12.434-26.149,18.31-41,18.31
				c2.5,12.75-5.437,35.563-18.312,41c12.875,5.437,20.812,28.25,18.312,41C-26.148,243.498-4.114,249.374,0.001,261.808z"/>
		</g>
		<g>
			<path class="shape-5" d="M93.563,38.755C100.167,57.024,117,61.25,117,61.25c-11.574,9.042-16.749,20.203-15.748,39.999c0,0,0,0,0,0
				c-19.797-1.001-30.959,4.174-40.001,15.748c0,0-4.226-16.832-22.494-23.437c13.972-24.053,8.975-40.176-0.001-54.807
				C53.387,47.729,69.51,52.727,93.563,38.755z M0,143.188c4.25-9.81,19.75-20.19,37.75-17.44
				c-10.498-19.497,1.003-32.185,1.005-32.187C11.868,86.434,4.002,71.498,0.002,54.807c-4,16.691-11.867,31.627-38.754,38.754
				c-13.972-24.053-8.975-40.176,0.001-54.807c-14.631,8.976-30.754,13.973-54.808,0.001C-86.431,11.867-71.496,4-54.804,0
				c-16.692-4-31.627-11.867-38.755-38.754c24.053-13.972,40.176-8.975,54.808,0.001c-8.976-14.631-13.973-30.754-0.001-54.808
				c26.888,7.128,34.754,22.063,38.754,38.755c4-16.692,11.867-31.627,38.754-38.755c13.972,24.053,8.975,40.176-0.001,54.808
				c14.631-8.976,30.754-13.973,54.808-0.001C86.435-11.866,71.5-4,54.808,0C71.5,4,86.435,11.867,93.563,38.755
				c-0.001,0.001,12.688-11.504,32.187-1.005C123,19.751,133.38,4.252,143.189,0.001c0-36.646-13.979-73.292-41.938-101.251
				c-55.918-55.919-146.583-55.919-202.501,0s-55.918,146.582,0,202.501c27.959,27.96,64.605,41.939,101.252,41.939
				C0.001,143.189,0.001,143.188,0,143.188z"/>
			<path class="shape-5" d="M366.244,38.754c-8.975,14.631-13.972,30.754,0,54.807c-18.269,6.605-22.495,23.437-22.495,23.437
				c-9.042-11.574-20.204-16.75-40.001-15.748c0,0,0,0,0,0c1.001-19.796-4.174-30.957-15.748-39.999c0,0,16.833-4.226,23.437-22.495
				C335.49,52.727,351.613,47.729,366.244,38.754z M404.999,143.189c36.646,0,73.292-13.979,101.252-41.939
				c55.918-55.919,55.918-146.582,0-202.501s-146.583-55.919-202.501,0C275.79-73.291,261.811-36.645,261.811,0.001
				C271.62,4.252,282,19.751,279.25,37.75c19.5-10.5,32.188,1.006,32.187,1.005C318.565,11.867,333.5,4,350.192,0
				c-16.692-4-31.627-11.867-38.755-38.754c24.053-13.972,40.176-8.975,54.807,0.001c-8.975-14.631-13.972-30.754,0-54.808
				c26.887,7.128,34.754,22.063,38.754,38.755c4-16.692,11.867-31.627,38.754-38.755c13.973,24.053,8.975,40.176,0,54.808
				c14.631-8.976,30.754-13.973,54.807-0.001C491.432-11.866,476.496-4,459.805,0c16.691,4,31.627,11.867,38.754,38.754
				c-24.053,13.972-40.176,8.975-54.807-0.001c8.975,14.631,13.973,30.754,0,54.807c-26.887-7.127-34.754-22.062-38.754-38.754
				c-4,16.691-11.866,31.626-38.754,38.753c0.002,0.002,11.504,12.69,1.006,32.187c18-2.75,33.5,7.631,37.75,17.44
				C404.999,143.188,404.999,143.189,404.999,143.189z"/>
			<path class="shape-5" d="M38.755,366.24c8.976-14.631,13.973-30.754,0.001-54.807c18.268-6.605,22.494-23.437,22.494-23.437
				c9.042,11.574,20.204,16.749,40.001,15.748c0,0.001,0,0.001,0,0.001c-1.001,19.795,4.174,30.957,15.748,39.998
				c0,0-16.833,4.227-23.437,22.496C69.51,352.268,53.387,357.266,38.755,366.24z M0.001,261.805
				c-36.646,0-73.292,13.979-101.252,41.939c-55.918,55.919-55.918,146.582,0,202.501s146.583,55.919,202.501,0
				c27.959-27.96,41.939-64.605,41.938-101.251c-9.809-4.252-20.189-19.75-17.439-37.75c-19.5,10.5-32.188-1.006-32.187-1.004
				c-7.128,26.887-22.063,34.754-38.755,38.754c16.692,4,31.627,11.867,38.755,38.754c-24.053,13.973-40.176,8.975-54.808,0
				c8.976,14.631,13.973,30.754,0.001,54.807c-26.888-7.127-34.754-22.062-38.754-38.754c-4,16.691-11.867,31.627-38.754,38.754
				c-13.972-24.053-8.975-40.176,0.001-54.807c-14.631,8.975-30.754,13.973-54.808,0c7.128-26.887,22.063-34.754,38.755-38.754
				c-16.692-4-31.627-11.867-38.755-38.754c24.053-13.973,40.176-8.975,54.808,0c-8.976-14.631-13.973-30.754-0.001-54.807
				c26.888,7.127,34.754,22.062,38.754,38.754c4-16.691,11.866-31.627,38.753-38.754c-0.002-0.002-11.503-12.689-1.005-32.187
				c-18,2.75-33.5-7.631-37.75-17.44C0.001,261.807,0.001,261.805,0.001,261.805z"/>
			<path class="shape-5" d="M311.437,366.24C304.833,347.971,288,343.744,288,343.744c11.574-9.041,16.749-20.203,15.748-39.998
				c0,0,0,0,0-0.001c19.797,1.001,30.959-4.174,40.001-15.748c0,0,4.226,16.831,22.495,23.437c-13.972,24.053-8.975,40.176,0,54.807
				C351.613,357.266,335.49,352.268,311.437,366.24z M405,261.807c-4.25,9.81-19.75,20.19-37.75,17.44
				c10.498,19.497-1.004,32.185-1.006,32.187c26.888,7.127,34.754,22.062,38.754,38.754c4-16.691,11.867-31.627,38.754-38.754
				c13.973,24.053,8.975,40.176,0,54.807c14.631-8.975,30.754-13.973,54.807,0c-7.127,26.887-22.062,34.754-38.754,38.754
				c16.691,4,31.627,11.867,38.754,38.754c-24.053,13.973-40.176,8.975-54.807,0c8.975,14.631,13.973,30.754,0,54.807
				c-26.887-7.127-34.754-22.062-38.754-38.754c-4,16.691-11.867,31.627-38.754,38.754c-13.972-24.053-8.975-40.176,0-54.807
				c-14.631,8.975-30.754,13.973-54.807,0c7.128-26.887,22.063-34.754,38.755-38.754c-16.692-4-31.627-11.867-38.755-38.754
				c0.001-0.002-12.688,11.504-32.187,1.004c2.75,18-7.63,33.498-17.439,37.75c0,36.646,13.979,73.291,41.938,101.251
				c55.918,55.919,146.583,55.919,202.501,0s55.918-146.582,0-202.501c-27.96-27.96-64.605-41.939-101.252-41.939
				C404.999,261.805,404.999,261.807,405,261.807z"/>
		</g>
		<g>
			<path class="shape-6" d="M-38.751,38.754c-8.976,14.631-13.973,30.754-0.001,54.807c26.888-7.127,34.754-22.062,38.754-38.754
				c4,16.691,11.867,31.627,38.754,38.754c13.972-24.053,8.975-40.176-0.001-54.807c14.631,8.976,30.754,13.973,54.808,0.001
				C86.435,11.867,71.5,4,54.808,0C71.5-4,86.435-11.866,93.563-38.754c-24.053-13.972-40.176-8.975-54.808,0.001
				c8.976-14.631,13.973-30.754,0.001-54.808C11.869-86.433,4.002-71.498,0.002-54.806c-4-16.692-11.867-31.627-38.754-38.755
				c-13.972,24.053-8.975,40.176,0.001,54.808c-14.631-8.976-30.754-13.973-54.808-0.001C-86.431-11.866-71.496-4-54.804,0
				c-16.692,4-31.627,11.867-38.755,38.754C-69.506,52.727-53.383,47.729-38.751,38.754z"/>
			<path class="shape-6" d="M366.245,443.749c-8.976,14.632-13.973,30.755-0.001,54.808c26.888-7.127,34.754-22.062,38.754-38.754
				c4,16.691,11.867,31.627,38.755,38.754c13.972-24.053,8.975-40.176-0.001-54.808c14.631,8.976,30.754,13.974,54.808,0.001
				c-7.128-26.888-22.063-34.754-38.755-38.754c16.691-4,31.627-11.867,38.755-38.755c-24.054-13.972-40.177-8.975-54.808,0.001
				c8.976-14.631,13.973-30.754,0.001-54.808c-26.888,7.128-34.755,22.063-38.755,38.755c-4-16.691-11.866-31.627-38.754-38.755
				c-13.972,24.054-8.975,40.177,0.001,54.808c-14.631-8.976-30.754-13.973-54.808-0.001c7.128,26.888,22.063,34.755,38.755,38.755
				c-16.692,4-31.627,11.866-38.755,38.754C335.491,457.723,351.614,452.725,366.245,443.749z"/>
			<path class="shape-6" d="M366.244,38.754c-8.975,14.631-13.972,30.754,0,54.807c26.887-7.127,34.754-22.062,38.754-38.754
				c4,16.691,11.867,31.627,38.754,38.754c13.973-24.053,8.975-40.176,0-54.807c14.631,8.976,30.754,13.973,54.807,0.001
				C491.432,11.867,476.496,4,459.805,0c16.691-4,31.627-11.867,38.754-38.754c-24.053-13.972-40.176-8.975-54.807,0.001
				c8.975-14.631,13.973-30.754,0-54.808c-26.887,7.128-34.754,22.063-38.754,38.755c-4-16.692-11.867-31.627-38.754-38.755
				c-13.972,24.053-8.975,40.176,0,54.808c-14.631-8.976-30.754-13.973-54.807-0.001C318.565-11.866,333.5-4,350.192,0
				c-16.692,4-31.627,11.867-38.755,38.754C335.49,52.727,351.613,47.729,366.244,38.754z"/>
			<path class="shape-6" d="M-38.752,443.75c-8.975,14.631-13.972,30.754,0,54.807c26.887-7.127,34.754-22.062,38.754-38.754
				c4,16.691,11.867,31.627,38.754,38.754c13.973-24.053,8.975-40.176,0-54.807c14.631,8.976,30.754,13.973,54.807,0.001
				c-7.127-26.888-22.062-34.755-38.754-38.755c16.691-4,31.627-11.866,38.754-38.754c-24.053-13.972-40.176-8.975-54.807,0.001
				c8.975-14.632,13.973-30.755,0-54.808c-26.887,7.128-34.754,22.062-38.754,38.755c-4-16.692-11.867-31.627-38.754-38.755
				c-13.972,24.053-8.975,40.176,0,54.808c-14.631-8.976-30.754-13.973-54.807-0.001c7.128,26.888,22.063,34.754,38.755,38.754
				c-16.692,4-31.627,11.867-38.755,38.755C-69.506,457.723-53.383,452.726-38.752,443.75z"/>
		</g>
	</g>
	<g class="guides">
		<rect class="st0" width="405" height="405"/>

		<rect x="59.312" y="59.311" transform="matrix(0.7071 -0.7071 0.7071 0.7071 -83.8779 202.5)" class="st0" width="286.379" height="286.378"/>
	<line class="st0" x1="405" y1="405" x2="0" y2="0"/>
	<line class="st0" x1="405" y1="0" x2="0" y2="405"/>
	<line class="st0" x1="0.001" y1="202.5" x2="405.001" y2="202.5"/>
	<line class="st0" x1="202.5" y1="0" x2="202.5" y2="405"/>
	<line class="st0" x1="143.189" y1="59.311" x2="261.812" y2="345.689"/>
	<line class="st0" x1="59.312" y1="143.189" x2="345.692" y2="261.811"/>
	<line class="st0" x1="59.315" y1="261.809" x2="345.689" y2="143.188"/>
	<line class="st0" x1="143.192" y1="345.683" x2="261.812" y2="59.311"/>
	<line class="st0" x1="0" y1="0" x2="143.189" y2="59.311"/>
	<line class="st0" x1="0" y1="0" x2="59.312" y2="143.189"/>
	<line class="st0" x1="405" y1="0" x2="261.812" y2="59.311"/>
	<line class="st0" x1="405" y1="0" x2="345.689" y2="143.188"/>
	<line class="st0" x1="345.692" y1="261.811" x2="405" y2="405"/>
	<line class="st0" x1="261.812" y1="345.689" x2="405" y2="405"/>
	<line class="st0" x1="143.192" y1="345.683" x2="0" y2="405"/>
	<line class="st0" x1="59.315" y1="261.809" x2="0" y2="405"/>
	<circle class="st0" cx="202.5" cy="202.501" r="143.19"/>
	<circle class="st0" cx="405" cy="0" r="143.19"/>
	<circle class="st0" cx="0" cy="0" r="143.19"/>
	<circle class="st0" cx="0" cy="405" r="143.19"/>
	<circle class="st0" cx="405" cy="405" r="143.19"/>
	<circle class="st0" cx="202.5" cy="202.5" r="101.249"/>
	<circle class="st0" cx="0" cy="0" r="101.249"/>
	<circle class="st0" cx="405" cy="0" r="101.249"/>
	<circle class="st0" cx="0" cy="405" r="101.249"/>
	<circle class="st0" cx="405" cy="405" r="101.249"/>
	<polygon class="st0" points="241.255,186.446 241.255,163.743 218.552,163.743 202.501,147.693 186.451,163.743 163.746,163.743 
		163.746,186.448 147.692,202.501 163.745,218.553 163.745,241.254 186.447,241.254 202.501,257.308 218.555,241.254 
		241.255,241.254 241.255,218.555 257.309,202.5 	"/>
	<g>
		<polygon class="st0" points="202.501,147.693 163.746,108.938 163.746,163.743 186.451,163.743 		"/>
		<polygon class="st0" points="163.746,163.743 108.934,163.743 147.692,202.501 163.746,186.448 		"/>
		<polygon class="st0" points="241.255,163.743 241.255,108.939 202.501,147.693 218.552,163.743 		"/>
		<polygon class="st0" points="257.309,202.5 296.066,163.743 241.255,163.743 241.255,186.446 		"/>
		<polygon class="st0" points="202.501,257.308 241.255,296.061 241.255,241.254 218.555,241.254 		"/>
		<polygon class="st0" points="257.309,202.5 241.255,218.555 241.255,241.254 296.063,241.254 		"/>
		<polygon class="st0" points="163.745,241.254 163.745,296.064 202.501,257.308 186.447,241.254 		"/>
		<polygon class="st0" points="147.692,202.501 108.939,241.254 163.745,241.254 163.745,218.553 		"/>
	</g>
</g>
</svg>
