<svg xmlns="http://www.w3.org/2000/svg" width="1201" height="693" viewBox="0 0 1201 693">
  <style>
    :root { --black: #443430; --red: #BF402B; --gold: #CEA600; --turquois: #4D9BA3; --emerald: #216554; --blue: #262F66; --white: #FFFAF2; --lightBlue: #2AAFDD; } .shape-1 { fill: var(--white); } .shape-2 { fill: var(--turquois); } .shape-3 { fill: var(--red); } .guides { stroke: #4FFF4F; display: none; }
  </style>
  <g class="line" id="pattern">
    <path class="shape-1" d="M500 346.4l100 173.2-50 86.6H450l50 86.6-6.7 11.6h-400l6.7-11.6L0 519.6 50 433h100l100 173.2h200L350 433H150l-50-86.6 50-86.6H50L0 173.2 100 0 80.9-33.1h400L500 0l-50 86.6H250L150 259.8h200L450 86.6h100l50 86.6-100 173.2zm550 86.6L950 606.2H750l-50 86.6 6.7 11.6h400l-6.7-11.6 100-173.2-50-86.6h-100zm0 0l50-86.6-50-86.6h100l50-86.6L1100 0l19.1-33.1h-400L700-.1l50 86.7h200l100 173.2H850L750 86.6H650l-50 86.6 100 173.2-100 173.2 50 86.6h100L850 433h200z"/>
    <path class="shape-2" d="M600.5-172.7l-50 86.6h-100l50 86.6-50 86.6h100l50 86.6 50-86.6h100L700.5.5l50-86.6h-100zM.5 173.7l-50 86.6h-100l50 86.6-50 86.6h100l50 86.6 50-86.6h100l-50-86.6 50-86.6h-100zM1200.5 173.7l-50 86.6h-100l50 86.6-50 86.6h100l50 86.6 50-86.6h100l-50-86.6 50-86.6h-100zM600.5 520.1l-50 86.6h-100l50 86.6-50 86.6h100l50 86.6 50-86.6h100l-50-86.6 50-86.6h-100z"/>
    <path class="shape-3" d="M600.5 520.1l-100-173.2 100-173.2 100 173.2zM1200.5 173.7L1100.5.5l100-173.2L1300.5.5zM1200.5 866.5l-100-173.2 100-173.2 100 173.2zM.5 866.5l-100-173.2L.5 520.1l100 173.2zM.5 173.7L-99.5.5.5-172.7 100.5.5zM1050.5 260.3h-200l-100-173.2h200zM450.5 606.7h-200l-100-173.2h200zM450.5 87.1l-100 173.2h-200l100-173.2zM1050.5 433.5l-100 173.2h-200l100-173.2z"/>
  </g>
  <g class="guides">
    <path d="M100-173.2l-700 1212.4M200-173.2l-700 1212.4M300-173.2l-700 1212.4M400-173.2l-700 1212.4M500-173.2l-700 1212.4M600-173.2l-700 1212.4M700-173.2L0 1039.2M800-173.2L100 1039.2M900-173.2L200 1039.2M1000-173.2L300 1039.2M1100-173.2L400 1039.2M1200-173.2L500 1039.2M1300-173.2L600 1039.2M1400-173.2L700 1039.2M1500-173.2L800 1039.2M1600-173.2L900 1039.2M1700-173.2l-700 1212.4M1000-173.2l700 1212.4M900-173.2l700 1212.4M800-173.2l700 1212.4M700-173.2l700 1212.4M600-173.2l700 1212.4M500-173.2l700 1212.4M400-173.2l700 1212.4M300-173.2l700 1212.4M200-173.2l700 1212.4M100-173.2l700 1212.4M0-173.2l700 1212.4M-100-173.2l700 1212.4M-200-173.2l700 1212.4M-300-173.2l700 1212.4M-400-173.2l700 1212.4M-500-173.2l700 1212.4M-600-173.2l700 1212.4M-250 433h1600M-200 346.4h1600M-150 259.8h1600M-100 173.2h1600M-50 86.6h1600M0 0h1600M50-86.6h1600M-300 519.6h1600M-350 606.2h1800M-400 692.8h1900M-450 779.4h2000M-501 866h2109.7M-550 952.6h2209"/>
  </g>
</svg>
