<?xml version="1.0" encoding="utf-8"?>
<svg version="1.1" xmlns="http://www.w3.org/2000/svg" xmlns:xlink="http://www.w3.org/1999/xlink" x="0px" y="0px"
	 width="1201" height="693" viewBox="0 0 100% 100%" xml:space="preserve">
	<style>
		:root {
		  --golden: #907A58;
		  --darkBlue: #475387;
		  --beige: #DFD8CC;

		        --black: #443430;
      --red: #BF402B;
      --gold: #CEA600;
      --turquois: #4D9BA3;
      --emerald: #216554;
      --blue: #262F66;
      --white: #FFFAF2;
      --lightBlue: #2AAFDD;

		}
		.shape-1 {
			fill: var(--white);
		}
		.shape-2 {
			fill: var(--turquois);
		}
		.shape-3 {
			fill: var(--red);
		}
<!-- 		.line {
			stroke: #FFf;
			stroke-width: 35px;
		}
 -->		.guides {
			stroke: #4FFF4F;
			display: none;
		}
	</style>
			<g class="shapes" id="pattern">
				<rect x="-38.877" y="-32.591" class="shape-1" width="1263.877" height="737.481"/>
				<polygon class="shape-2 line" points="600.5,-172.705 550.5,-86.103 450.5,-86.103 500.5,0.5 450.499,87.104 550.5,87.104 600.5,173.706 650.5,87.104 750.5,87.104 700.5,0.5 750.5,-86.103 650.5,-86.103 "/>
				<polygon class="shape-2 line" points="0.5,173.706 -49.5,260.308 -149.5,260.308 -99.5,346.912 -149.501,433.513 -49.5,433.513 0.5,520.117 50.5,433.513 150.5,433.513 100.5,346.912 150.5,260.308 50.5,260.308 "/>
				<polygon class="shape-2 line" points="1200.5,173.705 1150.5,260.308 1050.5,260.308 1100.5,346.91 1050.499,433.513 1150.5,433.513 1200.5,520.117 1250.5,433.513 1350.5,433.513 1300.5,346.91 1350.5,260.308 1250.5,260.308 			"/>
				<polygon class="shape-2 line" points="600.5,520.117 550.5,606.718 450.5,606.718 500.5,693.322 450.5,779.923 550.5,779.923 600.5,866.527 650.5,779.923 750.5,779.923 700.5,693.322 750.5,606.718 650.5,606.718 			"/>
				<polygon class="shape-3 line" points="600.5,520.117 500.5,346.912 600.5,173.706 700.5,346.912 "/>
				<polygon class="shape-3 line" points="1200.5,173.705 1100.5,0.5 1200.5,-172.705 1300.5,0.5 "/>
				<polygon class="shape-3 line" points="1200.5,866.527 1100.5,693.322 1200.5,520.117 1300.5,693.322 "/>
				<polygon class="shape-3 line" points="0.5,866.527 -99.5,693.322 0.5,520.117 100.5,693.322 "/>
				<polygon class="shape-3 line" points="0.5,173.706 -99.5,0.5 0.5,-172.705 100.5,0.5 "/>
				<polygon class="shape-3 line" points="1050.5,260.308 850.5,260.308 750.5,87.104 950.5,87.103 "/>
				<polygon class="shape-3 line" points="450.5,606.718 250.5,606.718 150.5,433.513 350.5,433.513 "/>
				<polygon class="shape-3 line" points="450.499,87.104 350.499,260.308 150.501,260.31 250.499,87.104 "/>
				<polygon class="shape-3 line" points="1050.499,433.513 950.498,606.718 750.5,606.718 850.498,433.513"/>			
			</g>
			
			<g class="guides">
				<line x1="100" y1="-173.206" x2="-600" y2="1039.23"/>
				<line x1="200" y1="-173.206" x2="-500" y2="1039.23"/>
				<line x1="300" y1="-173.206" x2="-400" y2="1039.23"/>
				<line x1="400" y1="-173.206" x2="-300" y2="1039.23"/>
				<line x1="500" y1="-173.206" x2="-200" y2="1039.23"/>
				<line x1="600" y1="-173.206" x2="-100" y2="1039.23"/>
				<line x1="700" y1="-173.206" x2="0" y2="1039.23"/>
				<line x1="800" y1="-173.206" x2="100" y2="1039.23"/>
				<line x1="900" y1="-173.206" x2="200" y2="1039.23"/>
				<line x1="1000" y1="-173.206" x2="300" y2="1039.23"/>
				<line x1="1100" y1="-173.206" x2="400" y2="1039.23"/>
				<line x1="1200" y1="-173.206" x2="500" y2="1039.23"/>
				<line x1="1300" y1="-173.205" x2="600" y2="1039.231"/>
				<line x1="1400" y1="-173.206" x2="700" y2="1039.23"/>
				<line x1="1500" y1="-173.206" x2="800" y2="1039.23"/>
				<line x1="1600" y1="-173.206" x2="900" y2="1039.23"/>
				<line x1="1700" y1="-173.206" x2="1000" y2="1039.23"/>
				<line x1="1000" y1="-173.205" x2="1700" y2="1039.231"/>
				<line x1="900" y1="-173.205" x2="1600" y2="1039.231"/>
				<line x1="800" y1="-173.205" x2="1500" y2="1039.231"/>
				<line x1="700" y1="-173.205" x2="1400" y2="1039.231"/>
				<line x1="600" y1="-173.205" x2="1300" y2="1039.231"/>
				<line x1="500" y1="-173.205" x2="1200" y2="1039.231"/>
				<line x1="400" y1="-173.205" x2="1100" y2="1039.231"/>
				<line x1="300" y1="-173.205" x2="1000" y2="1039.231"/>
				<line x1="200" y1="-173.205" x2="900" y2="1039.231"/>
				<line x1="100" y1="-173.205" x2="800" y2="1039.231"/>
				<line x1="0" y1="-173.205" x2="700" y2="1039.231"/>
				<line x1="-100" y1="-173.205" x2="600" y2="1039.231"/>
				<line x1="-200" y1="-173.206" x2="500" y2="1039.23"/>
				<line x1="-300" y1="-173.205" x2="400" y2="1039.231"/>
				<line x1="-400" y1="-173.205" x2="300" y2="1039.231"/>
				<line x1="-500" y1="-173.205" x2="200" y2="1039.231"/>
				<line x1="-600" y1="-173.205" x2="100" y2="1039.231"/>
				<line x1="-250" y1="433.012" x2="1350" y2="433.012"/>
				<line x1="-200" y1="346.41" x2="1400" y2="346.41"/>
				<line x1="-150" y1="259.808" x2="1450" y2="259.808"/>
				<line x1="-100" y1="173.205" x2="1500" y2="173.205"/>
				<line x1="-50" y1="86.602" x2="1550" y2="86.602"/>
				<line x1="0" y1="0" x2="1600" y2="0"/>
				<line x1="50" y1="-86.603" x2="1650" y2="-86.603"/>
				<line x1="-300" y1="519.615" x2="1300" y2="519.615"/>
				<line x1="-350" y1="606.217" x2="1450" y2="606.217"/>
				<line x1="-400" y1="692.82" x2="1500" y2="692.82"/>
				<line x1="-450" y1="779.422" x2="1550" y2="779.422"/>
				<line x1="-501.006" y1="866.025" x2="1608.69" y2="866.025"/>
				<line x1="-550" y1="952.627" x2="1659" y2="952.627"/>
			</g>
</svg>