<svg version="1.1" xmlns="http://www.w3.org/2000/svg" width="338" height="478" viewBox="0 0 338 478">
  <style>
    :root {
      --black: #443430;
      --red: #BF402B;
      --gold: #CEA600;
      --turquois: #4D9BA3;
      --emerald: #216554;
      --blue: #262F66;
      --white: #FFFAF2;
    }
    .shape-1{fill:var(--blue)}
    .shape-2{fill:var(--gold)}
    .shape-3{fill:var(--white)}
    .shape-4{fill:var(--white)}
    .shape-5{fill:var(--blue)}
    .shape-6{fill:var(--white)}
    .shape-7{fill:var(--turquois)}
    .line{}
    .guides{ stroke: #4FFF4F; display: none; fill: none}
  </style>

  <g id="pattern" class="line">
    <path class="shape-1" d="M169 239l-49.5-20.5L99 169l20.5-49.5L169 99l49.5 20.5L239 169l-20.5 49.5z"/>
    <path class="shape-2" d="M338 309l-49.5-20.5L268 239l20.5-49.5L338 169l49.5 20.5L408 239l-20.5 49.5zM0 309l-49.5-20.5L-70 239l20.5-49.5L0 169l49.5 20.5L70 239l-20.5 49.5z"/>
    <path class="shape-1" d="M169 379l-49.5-20.5L99 309l20.5-49.5L169 239l49.5 20.5L239 309l-20.5 49.5z"/>
    <path class="shape-3" d="M119.5 218.5L99 169l20.5-49.5-45.7 18.9-28.1-28.2v39.9L0 169l49.5 20.5L70 239l-20.5 49.5L0 309l45.7 18.9v39.9l28.1-28.2 45.7 18.9L99 309l20.5-49.5L169 239zM268 239l20.5-49.5L338 169l-45.6-18.9v-39.9l-28.2 28.2-45.7-18.9L239 169l-20.5 49.5L169 239l49.5 20.5L239 309l-20.5 49.5 45.7-18.9 28.2 28.2v-39.9L338 309l-49.5-20.5z"/>
    <g>
      <path class="shape-4" d="M227.8 45.7h-39.9L169 0l-18.9 45.7h-39.9l28.2 28.2-18.9 45.6L169 99l49.5 20.5-18.9-45.7zM227.8 432.4h-39.9L169 478l-18.9-45.6h-39.9l28.2-28.2-18.9-45.7L169 379l49.5-20.5-18.9 45.7z"/>
    </g>
    <g>
      <path class="shape-5" d="M45.7 45.7v64.5l28.1 28.2 45.7-18.9 18.9-45.6-28.2-28.2zM64.6 0l45.6 45.7h39.9L169 0l-18.9-45.6-39.9-.1zM0 64.6l-45.7 45.6v39.9L0 169l45.6-18.9.1-39.9zM292.4 45.7v64.5l-28.2 28.2-45.7-18.9-18.9-45.6 28.2-28.2zM273.4 0l-45.6 45.7h-39.9L169 0l18.9-45.6h39.9zM338 64.6l45.7 45.6v39.9L338 169l-45.6-18.9v-39.9zM45.7 432.4v-64.6l28.1-28.2 45.7 18.9 18.9 45.7-28.2 28.2zM64.6 478l45.6-45.6h39.9L169 478l-18.9 45.7h-39.9zM0 413.4l-45.7-45.6v-39.9L0 309l45.6 18.9.1 39.9zM292.4 432.4v-64.6l-28.2-28.2-45.7 18.9-18.9 45.7 28.2 28.2zM273.4 478l-45.6-45.6h-39.9L169 478l18.9 45.7h39.9zM338 413.4l45.7-45.6v-39.9L338 309l-45.6 18.9v39.9z"/>
    </g>
    <g>
      <path class="shape-6" d="M110.2 45.7H18.9L0 64.6l45.7 45.6V18.9L64.6 0zM227.8 45.7h91.3L338 64.6l-45.6 45.6V18.9L273.4 0zM110.2 432.4H18.9L0 413.4l45.7-45.6v91.3L64.6 478zM227.8 432.4h91.3l18.9-19-45.6-45.6v91.3l-19 18.9z"/>
    </g>
    <g>
      <path class="shape-7" d="M45.7 18.9L64.6 0 45.7-18.9v-26.8H18.9L0-64.6l-18.9 18.9h-26.8v26.8L-64.6 0l18.9 18.9v26.8h26.8L0 64.6l18.9-18.9h26.8zM292.4 18.9L273.4 0l19-18.9v-26.8h26.7L338-64.6l18.9 18.9h26.8v26.8L402.6 0l-18.9 18.9v26.8h-26.8L338 64.6l-18.9-18.9h-26.7zM45.7 459.1L64.6 478l-18.9 18.9v26.8H18.9L0 542.6l-18.9-18.9h-26.8v-26.8L-64.6 478l18.9-18.9v-26.7h26.8l18.9-19 18.9 19h26.8zM292.4 459.1l-19 18.9 19 18.9v26.8h26.7l18.9 18.9 18.9-18.9h26.8v-26.8l18.9-18.9-18.9-18.9v-26.7h-26.8l-18.9-19-18.9 19h-26.7z"/>
    </g>
  </g>
  <g class="guides">
    <path d="M0 0h338v478H0z"/>
    <path d="M338 0L169 70 0 0"/>
    <path d="M338 0L99 239 0 0"/>
    <path d="M338 0l-99 239-.1-.1L0 0M338 478l-169-70L0 478"/>
    <path d="M338 478L99 239 0 478"/>
    <path d="M338 478l-99-239-.1.1L0 478M169 478V0M0 239h338M0 169h338M0 309h338M239 0L0 239M338 239L99 478M338 239L99.1.1M238.9 477.9L0 239"/>
    <circle cx="169" cy="169" r="70"/>
    <circle cx="338" cy="239" r="70"/>
    <circle cy="239" r="70"/>
    <circle cx="169" cy="309" r="70"/>
    <path d="M218.5 218.5L309 0M268 239l70-169"/>
    <circle cx="168.7" cy="239" r="119.3"/>
    <circle cx="338" r="119.3"/>
    <circle r="119.3"/>
    <circle cy="478" r="119.3"/>
    <circle cx="338" cy="478" r="119.3"/>
  </g>
</svg>
