<svg version="1.1" xmlns="http://www.w3.org/2000/svg" width="338" height="478" viewBox="0 0 338 478">
  <style>
    :root {
      --black: #443430;
      --red: #BF402B;
      --gold: #CEA600;
      --turquois: #4D9BA3;
      --emerald: #216554;
      --blue: #262F66;
      --white: #FFFAF2;
    }
    .shape-1{fill:var(--blue)}
    .shape-2{fill:var(--gold)}
    .shape-3{fill:var(--white)}
    .shape-4{fill:var(--white)}
    .shape-5{fill:var(--blue)}
    .shape-6{fill:var(--white)}
    .shape-7{fill:var(--turquois)}
    .line{}
    .guides{ stroke: #4FFF4F; display: none; fill: none}
  </style>

  <g id="pattern" class="line">
  	<g>
			<polygon class="shape-1" points="169.001,239.004 119.502,218.5 98.999,169 119.502,119.502 169.001,98.998 218.501,119.501 
				239.004,169 218.501,218.5 		"/>
			<polygon class="shape-2" points="338,309.006 288.5,288.502 267.997,239.002 288.5,189.504 338,169 387.499,189.503 408.002,239.002 
				387.499,288.502 		"/>
			<polygon class="shape-2" points="0.001,309.006 -49.499,288.502 -70.001,239.001 -49.499,189.503 0.001,168.999 49.5,189.502 
				70.003,239.002 49.5,288.502 		"/>
			<polygon class="shape-1" points="169.001,379.01 119.502,358.506 98.999,309.006 119.502,259.508 169.001,239.004 218.501,259.508 
				239.004,309.007 218.501,358.506 		"/>
		</g>
		<g>
			<polygon class="shape-3" points="119.502,218.5 98.999,169 119.502,119.502 73.847,138.412 45.653,110.217 45.653,150.09 
				0.001,168.999 49.5,189.502 70.003,239.002 49.5,288.502 0.001,309.006 45.653,327.914 45.653,367.789 73.847,339.594 
				119.502,358.504 98.999,309.006 119.502,259.506 169.001,239.004 		"/>
			<polygon class="shape-3" points="268,239.002 288.502,189.503 338.002,169 292.35,150.091 292.35,110.217 264.156,138.413 
				218.501,119.502 239.004,169 218.501,218.5 169.001,239 218.501,259.505 239.004,309.004 218.501,358.502 264.156,339.592 
				292.35,367.787 292.35,327.914 338.002,309.006 288.502,288.502 		"/>
		</g>
		<g>
			<polygon class="shape-4" points="227.786,45.652 187.911,45.652 169,0 150.091,45.652 110.213,45.652 138.411,73.852 119.502,119.502 
				169.001,98.998 218.501,119.501 199.591,73.85 		"/>
			<polygon class="shape-4" points="227.786,432.353 187.911,432.353 169,478.005 150.091,432.353 110.213,432.353 138.411,404.153 
				119.502,358.503 169.001,379.008 218.501,358.504 199.591,404.155 		"/>
		</g>
		<g>
			<polygon class="shape-5" points="45.653,45.652 45.653,110.217 73.847,138.412 119.502,119.502 138.411,73.852 110.213,45.652 		"/>
			<polygon class="shape-5" points="64.563,0 110.216,45.654 150.09,45.654 169.001,0 150.092,-45.65 110.214,-45.651 		"/>
			<polygon class="shape-5" points="0,64.562 -45.654,110.216 -45.654,150.09 0,169.001 45.65,150.092 45.651,110.214 		"/>
			<polygon class="shape-5" points="292.35,45.653 292.35,110.217 264.156,138.413 218.501,119.502 199.592,73.852 227.79,45.653 		"/>
			<polygon class="shape-5" points="273.44,0 227.787,45.654 187.913,45.655 169.001,0 187.911,-45.65 227.789,-45.65 		"/>
			<polygon class="shape-5" points="338.003,64.563 383.656,110.216 383.657,150.09 338.003,169.001 292.353,150.092 292.352,110.214 		
				"/>
			<polygon class="shape-5" points="45.653,432.353 45.653,367.788 73.847,339.593 119.502,358.503 138.411,404.153 110.213,432.353 		
				"/>
			<polygon class="shape-5" points="64.563,478.005 110.216,432.352 150.09,432.351 169.001,478.005 150.092,523.655 110.214,523.656 		
				"/>
			<polygon class="shape-5" points="0,413.442 -45.654,367.789 -45.654,327.915 0,309.004 45.65,327.913 45.651,367.791 		"/>
			<polygon class="shape-5" points="292.35,432.352 292.35,367.787 264.156,339.592 218.501,358.502 199.592,404.152 227.79,432.352 		
				"/>
			<polygon class="shape-5" points="273.44,478.004 227.787,432.351 187.913,432.35 169.001,478.004 187.911,523.654 227.789,523.655 		
				"/>
			<polygon class="shape-5" points="338.003,413.441 383.656,367.789 383.657,327.914 338.003,309.004 292.353,327.912 292.352,367.791 
						"/>
		</g>
		<g>
			<polygon class="shape-6" points="110.213,45.652 110.213,45.652 18.91,45.652 0,64.562 45.653,110.217 45.653,18.91 64.563,0 		"/>
			<polygon class="shape-6" points="227.79,45.653 227.79,45.653 319.093,45.653 338.003,64.563 292.35,110.217 292.35,18.911 273.44,0 
						"/>
			<polygon class="shape-6" points="110.213,432.353 110.213,432.353 18.91,432.353 0,413.442 45.653,367.788 45.653,459.095 
				64.563,478.005 		"/>
			<polygon class="shape-6" points="227.79,432.352 227.79,432.352 319.093,432.352 338.003,413.441 292.35,367.787 292.35,459.094 
				273.44,478.004 		"/>
		</g>
		<g>
			<polygon class="shape-7" points="45.653,18.91 64.562,0 45.653,-18.91 45.653,-45.653 18.91,-45.653 0,-64.562 -18.91,-45.653 
				-45.653,-45.653 -45.653,-18.91 -64.563,0 -45.653,18.911 -45.653,45.653 -18.911,45.653 -0.001,64.563 18.909,45.653 
				45.653,45.653 		"/>
			<polygon class="shape-7" points="292.35,18.91 273.44,0 292.35,-18.909 292.35,-45.652 319.094,-45.652 338.003,-64.562 
				356.912,-45.652 383.656,-45.652 383.656,-18.91 402.566,0.001 383.656,18.912 383.656,45.653 356.914,45.653 338.004,64.563 
				319.094,45.653 292.35,45.653 		"/>
			<polygon class="shape-7" points="45.653,459.096 64.562,478.005 45.653,496.914 45.653,523.658 18.91,523.658 0,542.567 
				-18.91,523.658 -45.653,523.658 -45.653,496.915 -64.563,478.004 -45.653,459.094 -45.653,432.352 -18.911,432.352 
				-0.001,413.441 18.909,432.352 45.653,432.352 		"/>
			<polygon class="shape-7" points="292.35,459.095 273.44,478.004 292.35,496.914 292.35,523.657 319.094,523.657 338.003,542.566 
				356.912,523.657 383.656,523.657 383.656,496.914 402.566,478.004 383.656,459.094 383.656,432.352 356.914,432.352 
				338.004,413.441 319.094,432.352 292.35,432.352 		"/>
		</g>
	</g>
	<g class="guides">
		<rect width="338" height="477.998"/>
		<g>
			<polyline points="338,0 169,70.003 0,0 		"/>
			<polyline points="338,0 98.998,239.002 98.999,239.002 0,0 		"/>
			<polyline points="338,0 239.002,238.999 238.908,238.906 0,0 		"/>
		</g>
		<g>
			<polyline points="338,477.998 169,407.995 0,477.998 		"/>
			<polyline points="338,477.998 98.998,238.996 98.999,238.996 0,477.998 		"/>
			<polyline points="338,477.998 239.002,238.999 238.908,239.092 0,477.998 		"/>
		</g>
		<line x1="169" y1="477.998" x2="169" y2="0"/>
		<line x1="0" y1="239.002" x2="338" y2="239.002"/>
		<line x1="0" y1="169" x2="338" y2="169"/>
		<line x1="-0.001" y1="309" x2="337.998" y2="309"/>
		<line x1="239.002" y1="0" x2="0" y2="239.002"/>
		<line x1="338" y1="239.002" x2="98.998" y2="478.004"/>
		<line x1="338" y1="239.002" x2="99.092" y2="0.096"/>
		<line x1="238.908" y1="477.908" x2="0" y2="239.002"/>
		<circle cx="169.002" cy="169" r="70.003"/>
		<circle cx="338" cy="239.002" r="70.003"/>
		<circle cx="0" cy="239.002" r="70.003"/>
		<circle cx="169.002" cy="308.999" r="70.003"/>
		<line x1="218.502" y1="218.5" x2="309" y2="0.012"/>
		<line x1="267.997" y1="239.002" x2="338" y2="69.995"/>
		<circle cx="168.672" cy="238.999" r="119.269"/>
		<circle cx="338" cy="0" r="119.269"/>
		<circle cx="0" cy="0" r="119.269"/>
		<circle cx="0" cy="477.998" r="119.269"/>
		<circle cx="338" cy="477.998" r="119.269"/>
	</g>
</svg>
