<svg version="1.1" xmlns="http://www.w3.org/2000/svg" width="338" height="816" viewBox="0 0 338 816">
  <style>
    :root {
      --black: #443430;
      --gold: #CEA600;
      --turquois: #4D9BA3;
      --blue: #262F66;
      --white: #FFFAF2;
    }
    .shape-1{fill:var(--turquois)}
    .shape-2{fill:var(--white)}
    .shape-3{fill:var(--blue)}
    .shape-4{fill:var(--turquois)}
    .shape-5{fill:var(--white)}
    .shape-6{fill:var(--gold)}
    .shape-7{fill:var(--blue)}
    .shape-8{fill:var(--white)}
    .shape-9{fill:var(--white)}
    .shape-10{fill:var(--blue)}
    .line{}
    .guides{ stroke: #4FFF4F; display: none; fill: none}
  </style>

  <g id="pattern" class="line">
		<polygon class="shape-1" points="233.554,408.004 214.649,389.101 214.647,362.354 187.9,362.354 168.994,343.45 150.086,362.354 
			123.344,362.354 123.344,389.094 104.432,408.002 123.344,426.914 123.344,453.656 150.085,453.656 168.999,472.569 
			187.91,453.656 214.652,453.656 214.651,426.91 	"/>
		<g>
			<polygon class="shape-2" points="104.432,408.002 58.772,453.655 123.344,453.656 123.344,426.914 		"/>
			<polygon class="shape-2" points="123.344,362.354 58.786,362.354 104.432,408.002 123.344,389.094 		"/>
			<polygon class="shape-2" points="168.999,472.569 214.656,518.227 214.652,453.656 187.91,453.656 		"/>
			<polygon class="shape-2" points="123.344,453.656 123.344,518.23 168.999,472.569 150.085,453.656 		"/>
			<polygon class="shape-2" points="233.554,408.004 279.198,362.354 214.647,362.354 214.649,389.101 		"/>
			<polygon class="shape-2" points="168.994,343.45 123.344,297.805 123.344,362.354 150.086,362.354 		"/>
			<polygon class="shape-2" points="214.647,362.354 214.644,297.807 168.994,343.45 187.9,362.354 		"/>
			<polygon class="shape-2" points="214.651,426.91 214.652,453.656 279.211,453.656 233.554,408.004 		"/>
		</g>
		<g>
			<polygon class="shape-3" points="233.554,408.004 279.211,453.656 319.105,453.656 338.008,408.02 319.093,362.354 279.198,362.354 		
				"/>
			<polygon class="shape-3" points="123.344,453.656 58.772,453.655 30.562,481.861 49.479,527.532 95.135,546.443 123.344,518.23 		"/>
			<polygon class="shape-3" points="168.999,472.569 123.344,518.23 123.344,558.128 168.992,577.036 214.658,558.12 214.656,518.227 		
				"/>
			<polygon class="shape-3" points="104.432,408.002 58.786,362.354 18.89,362.354 -0.025,408.019 18.878,453.655 58.772,453.655 		"/>
			<polygon class="shape-3" points="214.652,453.656 214.656,518.227 242.866,546.437 288.504,527.532 307.421,481.863 279.211,453.656 
						"/>
			<polygon class="shape-3" points="214.647,362.354 279.198,362.354 307.407,334.141 288.504,288.506 242.857,269.598 214.644,297.807 
						"/>
			<polygon class="shape-3" points="123.344,362.354 123.344,297.805 95.132,269.596 49.479,288.506 30.575,334.145 58.786,362.354 		"/>
			<polygon class="shape-3" points="168.994,343.45 214.644,297.807 214.642,257.911 168.992,239.002 123.344,257.91 123.344,297.805 		
				"/>
		</g>
		<g>
			<polygon class="shape-4" points="402.577,-0.028 383.671,-18.931 383.67,-45.677 356.922,-45.677 338.016,-64.582 319.109,-45.677 
				292.366,-45.677 292.366,-18.938 273.455,-0.03 292.366,18.882 292.366,45.625 319.108,45.625 338.022,64.538 356.932,45.625 
				383.674,45.625 383.673,18.878 		"/>
			<polygon class="shape-4" points="64.553,-0.028 45.648,-18.931 45.647,-45.677 18.899,-45.677 -0.007,-64.582 -18.915,-45.677 
				-45.657,-45.677 -45.657,-18.938 -64.569,-0.03 -45.657,18.882 -45.657,45.625 -18.916,45.625 -0.001,64.538 18.909,45.625 
				45.651,45.625 45.65,18.878 		"/>
			<polygon class="shape-4" points="402.577,816.068 383.671,834.973 383.67,861.719 356.922,861.719 338.016,880.623 319.109,861.719 
				292.367,861.719 292.367,834.979 273.455,816.07 292.367,797.158 292.367,770.416 319.108,770.416 338.022,751.504 
				356.932,770.416 383.674,770.416 383.673,797.162 		"/>
			<polygon class="shape-4" points="64.553,816.068 45.648,834.973 45.647,861.719 18.899,861.719 -0.007,880.623 -18.915,861.719 
				-45.657,861.719 -45.657,834.979 -64.569,816.07 -45.657,797.158 -45.657,770.416 -18.916,770.416 -0.001,751.504 18.909,770.416 
				45.651,770.416 45.65,797.162 		"/>
		</g>
		<g>
			<polygon class="shape-5" points="338.014,169.005 292.366,150.097 292.366,110.208 264.16,138.413 218.501,119.5 239.004,169 
				218.501,218.5 169.001,239.003 214.642,257.911 214.645,297.805 242.861,269.6 288.514,288.508 268.011,239.008 288.516,189.508 
						"/>
			<polygon class="shape-5" points="119.503,119.5 73.855,138.409 45.649,110.203 45.648,150.091 -0.01,169.004 49.489,189.508 
				69.993,239.007 49.49,288.508 95.132,269.604 123.343,297.811 123.351,257.916 169.002,239.004 119.503,218.5 99,168.999 		"/>
			<polygon class="shape-5" points="338.014,647.036 292.366,665.944 292.366,705.833 264.16,677.628 218.501,696.541 239.004,647.041 
				218.501,597.541 169.001,577.037 214.642,558.13 214.645,518.236 242.861,546.441 288.514,527.533 268.011,577.033 
				288.516,626.533 		"/>
			<polygon class="shape-5" points="119.503,696.541 73.855,677.633 45.649,705.838 45.648,665.949 -0.01,647.037 49.489,626.533 
				69.993,577.034 49.49,527.533 95.132,546.438 123.343,518.23 123.351,558.125 169.002,577.037 119.503,597.541 99,647.043 		"/>
		</g>
		<g>
			<polygon class="shape-6" points="169.001,239.003 119.501,218.5 98.999,169 119.503,119.5 169.001,98.998 218.501,119.5 239.004,169 
				218.501,218.5 		"/>
			<polygon class="shape-10" points="338.014,309.011 288.514,288.508 268.011,239.008 288.516,189.508 338.014,169.005 387.514,189.508 
				408.017,239.008 387.514,288.508 		"/>
			<polygon class="shape-10" points="-0.01,309.011 -49.51,288.508 -70.013,239.008 -49.508,189.508 -0.01,169.005 49.49,189.508 
				69.993,239.008 49.49,288.508 		"/>

			<polygon class="shape-10" points="169.001,577.037 119.501,597.541 98.999,647.041 119.503,696.541 169.001,717.043 218.501,696.541 
				239.004,647.041 218.501,597.541 		"/>
			<polygon class="shape-6" points="338.014,507.03 288.514,527.533 268.011,577.033 288.516,626.533 338.014,647.036 387.514,626.533 
				408.017,577.033 387.514,527.533 		"/>
			<polygon class="shape-6" points="-0.01,507.03 -49.51,527.533 -70.013,577.033 -49.508,626.533 -0.01,647.036 49.49,626.533 
				69.993,577.033 49.49,527.533 		"/>
		</g>
		<g>
			<polygon class="shape-7" points="292.366,45.625 227.794,45.624 199.584,73.83 218.501,119.5 264.158,138.412 292.366,110.199 		"/>
			<polygon class="shape-7" points="338.022,64.538 292.366,110.199 292.366,150.096 338.014,169.004 383.68,150.088 383.678,110.195 	"/>
			<polygon class="shape-7" points="273.455,-0.03 227.808,-45.677 187.913,-45.677 168.998,-0.013 187.901,45.624 227.794,45.624 		"/>
			<polygon class="shape-7" points="64.553,-0.028 110.209,45.625 150.104,45.625 169.007,-0.012 150.092,-45.677 110.197,-45.677 		"/>
			<polygon class="shape-7" points="-0.001,64.538 -45.657,110.199 -45.657,150.096 -0.009,169.004 45.657,150.088 45.655,110.195 		"/>
			<polygon class="shape-7" points="45.651,45.625 45.655,110.195 73.865,138.405 119.503,119.5 138.42,73.832 110.209,45.625 		"/>
			<polygon class="shape-7" points="292.367,770.416 227.794,770.418 199.584,742.211 218.501,696.541 264.158,677.629 292.367,705.842"/>
			<polygon class="shape-7" points="338.022,751.504 292.367,705.842 292.367,665.945 338.014,647.037 383.68,665.953 383.678,705.846"/>
			<polygon class="shape-7" points="273.455,816.07 227.808,861.719 187.913,861.719 168.998,816.055 187.901,770.418 227.794,770.418"/>
			<polygon class="shape-7" points="64.553,816.068 110.209,770.416 150.104,770.416 169.007,816.053 150.092,861.719 110.197,861.719"/>
			<polygon class="shape-7" points="-0.001,751.504 -45.657,705.842 -45.657,665.945 -0.009,647.037 45.657,665.953 45.655,705.846 		"/>
			<polygon class="shape-7" points="45.651,770.416 45.655,705.846 73.865,677.637 119.503,696.541 138.42,742.209 110.209,770.416 		"/>
		</g>
		<g>
			<polygon class="shape-8" points="273.455,-0.03 227.794,45.624 292.366,45.625 292.366,18.882 		"/>
			<polygon class="shape-8" points="292.366,45.625 292.366,110.199 338.022,64.538 319.108,45.625 		"/>
			<polygon class="shape-8" points="-0.001,64.538 45.655,110.195 45.651,45.625 18.909,45.625 		"/>
			<polygon class="shape-8" points="45.65,18.878 45.651,45.625 110.209,45.625 64.553,-0.028 		"/>
			<polygon class="shape-8" points="273.455,816.07 227.794,770.418 292.367,770.416 292.367,797.158 		"/>
			<polygon class="shape-8" points="292.367,770.416 292.367,705.842 338.022,751.504 319.108,770.416 		"/>
			<polygon class="shape-8" points="-0.001,751.504 45.655,705.846 45.651,770.416 18.909,770.416 		"/>
			<polygon class="shape-8" points="45.65,797.162 45.651,770.416 110.209,770.416 64.553,816.068 		"/>
		</g>
		<g>
			<polygon class="shape-9" points="227.78,45.599 187.893,45.595 169.005,-0.01 150.1,45.632 110.208,45.626 138.419,73.833 
				119.503,119.5 169.001,98.998 218.501,119.5 199.572,73.795 		"/>
			<polygon class="shape-9" points="338.014,309.011 288.514,288.508 307.417,334.165 279.198,362.354 319.093,362.354 338.008,408.021 
				387.514,288.508 		"/>
			<polygon class="shape-9" points="30.575,334.145 49.49,288.508 -0.01,309.011 -49.221,288.791 -0.024,408.019 18.89,362.354 
				58.786,362.354 		"/>
			<polygon class="shape-9" points="227.78,770.442 187.893,770.446 169.005,816.051 150.1,770.409 110.208,770.415 138.419,742.208 
				119.503,696.541 169.001,717.043 218.501,696.541 199.572,742.246 		"/>
			<polygon class="shape-9" points="338.008,408.021 319.105,453.656 279.211,453.656 307.417,481.876 288.514,527.533 338.014,507.03 
				387.514,527.533 		"/>
			<polygon class="shape-9" points="58.772,453.655 18.878,453.655 -0.024,408.022 -49.221,527.25 -0.01,507.03 49.49,527.533 
				30.562,481.861 		"/>
		</g>
	</g>
	<g class="guides">
		<rect class="st0" width="338" height="408.002"/>
		<polyline class="st0" points="338,0 169,70.003 0,0 	"/>
		<line class="st0" x1="168.992" y1="408.019" x2="0" y2="0"/>
		<polyline class="st0" points="337.999,0.005 -0.002,338.004 338,478.007 	"/>
		<line class="st0" x1="338" y1="337.998" x2="-0.002" y2="478"/>
		<line class="st0" x1="0" y1="0" x2="338.857" y2="338.854"/>
		<line class="st0" x1="338" y1="0.001" x2="168.992" y2="408.019"/>
		<line class="st0" x1="169" y1="816.004" x2="169" y2="0"/>
		<line class="st0" x1="0" y1="239.002" x2="338" y2="239.002"/>
		<line class="st0" x1="0" y1="169" x2="338" y2="169"/>
		<line class="st0" x1="239.002" y1="0" x2="0" y2="239.002"/>
		<line class="st0" x1="338" y1="239.002" x2="98.998" y2="478.004"/>
		<line class="st0" x1="338" y1="239.002" x2="99.092" y2="0.096"/>
		<line class="st0" x1="238.908" y1="477.908" x2="0" y2="239.002"/>
		<circle class="st0" cx="169.002" cy="169" r="70.003"/>
		<circle class="st0" cx="338" cy="0" r="119.27"/>
		<circle class="st0" cx="168.991" cy="408.019" r="119.27"/>
		<circle class="st0" cx="0" cy="0" r="119.269"/>
		<rect y="408.002" class="st0" width="338" height="408.002"/>
		<polyline class="st0" points="338,816.004 169,746.001 0,816.004 	"/>
		<line class="st0" x1="169.502" y1="406.794" x2="0" y2="816.004"/>
		<line class="st0" x1="337.999" y1="815.999" x2="-0.002" y2="478"/>
		<line class="st0" x1="338" y1="478.007" x2="0" y2="816.003"/>
		<line class="st0" x1="338" y1="816.003" x2="168.587" y2="407.009"/>
		<line class="st0" x1="0" y1="577.002" x2="338" y2="577.002"/>
		<line class="st0" x1="0" y1="647.004" x2="338" y2="647.004"/>
		<line class="st0" x1="239.002" y1="816.003" x2="0" y2="577.002"/>
		<line class="st0" x1="338" y1="577.002" x2="98.998" y2="338"/>
		<line class="st0" x1="338" y1="577.002" x2="99.092" y2="815.908"/>
		<line class="st0" x1="238.908" y1="338.096" x2="0" y2="577.002"/>
		<circle class="st0" cx="169.002" cy="647.003" r="70.003"/>
		<circle class="st0" cx="338" cy="816.004" r="119.27"/>
		<circle class="st0" cx="0" cy="816.004" r="119.269"/>
		<circle class="st0" cx="168.992" cy="408.019" r="169.017"/>
	</g>
</svg>
