<svg version="1.1" xmlns="http://www.w3.org/2000/svg" width="338" height="816" viewBox="0 0 338 816">
  <style>
    :root {
      --black: #443430;
      --gold: #CEA600;
      --turquois: #4D9BA3;
      --blue: #262F66;
      --white: #FFFAF2;
    }
    .shape-1{fill:var(--turquois)}
    .shape-2{fill:var(--white)}
    .shape-3{fill:var(--blue)}
    .shape-4{fill:var(--turquois)}
    .shape-5{fill:var(--white)}
    .shape-6{fill:var(--gold)}
    .shape-7{fill:var(--blue)}
    .shape-8{fill:var(--white)}
    .shape-9{fill:var(--white)}
    .shape-10{fill:var(--black)}
    .line{}
    .guides{ stroke: #4FFF4F; display: none; fill: none}
  </style>

  <g id="pattern" class="line">
    <path class="shape-1" d="M233.6 408l-19-18.9v-26.7h-26.7l-18.9-19-18.9 19h-26.8v26.7L104.4 408l18.9 18.9v26.8h26.8l18.9 18.9 18.9-18.9h26.8v-26.8z"/>
    <path class="shape-2" d="M104.4 408l-45.6 45.7h64.5v-26.8zM123.3 362.4H58.8l45.6 45.6 18.9-18.9zM169 472.6l45.7 45.6v-64.5h-26.8zM123.3 453.7v64.5l45.7-45.6-18.9-18.9zM233.6 408l45.6-45.6h-64.6v26.7zM169 343.4l-45.7-45.6v64.6h26.8zM214.6 362.4v-64.6L169 343.4l18.9 19zM214.7 426.9v26.8h64.5L233.6 408z"/>
    <g>
      <path class="shape-3" d="M233.6 408l45.6 45.7h39.9L338 408l-18.9-45.6h-39.9zM123.3 453.7H58.8l-28.2 28.2 18.9 45.6 45.6 18.9 28.2-28.2zM169 472.6l-45.7 45.6v39.9L169 577l45.7-18.9v-39.9zM104.4 408l-45.6-45.6H18.9L0 408l18.9 45.7h39.9zM214.7 453.7v64.5l28.2 28.2 45.6-18.9 18.9-45.6-28.2-28.2zM214.6 362.4h64.6l28.2-28.3-18.9-45.6-45.6-18.9-28.3 28.2zM123.3 362.4v-64.6l-28.2-28.2-45.6 18.9-18.9 45.6 28.2 28.3zM169 343.4l45.6-45.6v-39.9L169 239l-45.7 18.9v39.9z"/>
    </g>
    <g>
      <path class="shape-4" d="M402.6 0l-18.9-18.9v-26.8h-26.8L338-64.6l-18.9 18.9h-26.7v26.8L273.5 0l18.9 18.9v26.7h26.7L338 64.5l18.9-18.9h26.8V18.9zM64.6 0l-19-18.9v-26.8H18.9L0-64.6l-18.9 18.9h-26.8v26.8L-64.6 0l18.9 18.9v26.7h26.8L0 64.5l18.9-18.9h26.8l-.1-26.7zM402.6 816.1L383.7 835v26.7h-26.8L338 880.6l-18.9-18.9h-26.7V835l-18.9-18.9 18.9-18.9v-26.8h26.7l18.9-18.9 18.9 18.9h26.8v26.8zM64.6 816.1l-19 18.9v26.7H18.9L0 880.6l-18.9-18.9h-26.8V835l-18.9-18.9 18.9-18.9v-26.8h26.8L0 751.5l18.9 18.9h26.8l-.1 26.8z"/>
    </g>
    <g>
      <path class="shape-5" d="M338 169l-45.6-18.9v-39.9l-28.2 28.2-45.7-18.9L239 169l-20.5 49.5L169 239l45.6 18.9v39.9l28.3-28.2 45.6 18.9L268 239l20.5-49.5zM119.5 119.5l-45.6 18.9-28.3-28.2v39.9L0 169l49.5 20.5L70 239l-20.5 49.5 45.6-18.9 28.2 28.2.1-39.9L169 239l-49.5-20.5L99 169zM338 647l-45.6 18.9v39.9l-28.2-28.2-45.7 18.9L239 647l-20.5-49.5L169 577l45.6-18.9v-39.9l28.3 28.2 45.6-18.9L268 577l20.5 49.5zM119.5 696.5l-45.6-18.9-28.3 28.2v-39.9L0 647l49.5-20.5L70 577l-20.5-49.5 45.6 18.9 28.2-28.2.1 39.9L169 577l-49.5 20.5L99 647z"/>
    </g>
    <g>
      <path class="shape-6" d="M169 239l-49.5-20.5L99 169l20.5-49.5L169 99l49.5 20.5L239 169l-20.5 49.5z"/>
      <path class="shape-10" d="M338 309l-49.5-20.5L268 239l20.5-49.5L338 169l49.5 20.5L408 239l-20.5 49.5zM0 309l-49.5-20.5L-70 239l20.5-49.5L0 169l49.5 20.5L70 239l-20.5 49.5zM169 577l-49.5 20.5L99 647l20.5 49.5L169 717l49.5-20.5L239 647l-20.5-49.5z"/>
      <path class="shape-6" d="M338 507l-49.5 20.5L268 577l20.5 49.5L338 647l49.5-20.5L408 577l-20.5-49.5zM0 507l-49.5 20.5L-70 577l20.5 49.5L0 647l49.5-20.5L70 577l-20.5-49.5z"/>
    </g>
    <g>
      <path class="shape-7" d="M292.4 45.6h-64.6l-28.2 28.2 18.9 45.7 45.7 18.9 28.2-28.2zM338 64.5l-45.6 45.7v39.9L338 169l45.7-18.9v-39.9zM273.5 0l-45.7-45.7h-39.9L169 0l18.9 45.6h39.9zM64.6 0l45.6 45.6h39.9L169 0l-18.9-45.7h-39.9zM0 64.5l-45.7 45.7v39.9L0 169l45.7-18.9v-39.9z"/>
      <path class="shape-7" d="M45.7 45.6v64.6l28.2 28.2 45.6-18.9 18.9-45.7-28.2-28.2zM292.4 770.4h-64.6l-28.2-28.2 18.9-45.7 45.7-18.9 28.2 28.2zM338 751.5l-45.6-45.7v-39.9L338 647l45.7 19v39.8zM273.5 816.1l-45.7 45.6h-39.9L169 816.1l18.9-45.7h39.9zM64.6 816.1l45.6-45.7h39.9l18.9 45.7-18.9 45.6h-39.9zM0 751.5l-45.7-45.7v-39.9L0 647l45.7 19v39.8zM45.7 770.4v-64.6l28.2-28.2 45.6 18.9 18.9 45.7-28.2 28.2z"/>
    </g>
    <g>
      <path class="shape-8" d="M273.5 0l-45.7 45.6h64.6V18.9zM292.4 45.6v64.6L338 64.5l-18.9-18.9zM0 64.5l45.7 45.7V45.6H18.9zM45.6 18.9l.1 26.7h64.5L64.6 0zM273.5 816.1l-45.7-45.7h64.6v26.8zM292.4 770.4v-64.6l45.6 45.7-18.9 18.9zM0 751.5l45.7-45.7v64.6H18.9zM45.6 797.2l.1-26.8h64.5l-45.6 45.7z"/>
    </g>
    <g>
      <path class="shape-9" d="M227.8 45.6h-39.9L169 0l-18.9 45.6h-39.9l28.2 28.2-18.9 45.7L169 99l49.5 20.5-18.9-45.7zM338 309l-49.5-20.5 18.9 45.7-28.2 28.2h39.9L338 408l49.5-119.5zM30.6 334.1l18.9-45.6L0 309l-49.2-20.2L0 408l18.9-45.6h39.9zM227.8 770.4h-39.9L169 816.1l-18.9-45.7h-39.9l28.2-28.2-18.9-45.7L169 717l49.5-20.5-18.9 45.7zM338 408l-18.9 45.7h-39.9l28.2 28.2-18.9 45.6L338 507l49.5 20.5zM58.8 453.7H18.9L0 408l-49.2 119.3L0 507l49.5 20.5-18.9-45.6z"/>
    </g>
  </g>
  <g class="guides">
    <path class="st0" d="M0 0h338v408H0z"/>
    <path class="st0" d="M338 0L169 70 0 0M169 408L0 0M338 0L0 338l338 140M338 338L0 478M0 0l338.9 338.9M338 0L169 408M169 816V0M0 239h338M0 169h338M239 0L0 239M338 239L99 478M338 239L99.1.1M238.9 477.9L0 239"/>
    <circle class="st0" cx="169" cy="169" r="70"/>
    <circle class="st0" cx="338" r="119.3"/>
    <circle class="st0" cx="169" cy="408" r="119.3"/>
    <circle class="st0" r="119.3"/>
    <path class="st0" d="M0 408h338v408H0z"/>
    <path class="st0" d="M338 816l-169-70L0 816M169.5 406.8L0 816M338 816L0 478M338 478L0 816M338 816L168.6 407M0 577h338M0 647h338M239 816L0 577M338 577L99 338M338 577L99.1 815.9M238.9 338.1L0 577"/>
    <circle class="st0" cx="169" cy="647" r="70"/>
    <circle class="st0" cx="338" cy="816" r="119.3"/>
    <circle class="st0" cy="816" r="119.3"/>
    <circle class="st0" cx="169" cy="408" r="169"/>
  </g>
</svg>
