<svg version="1.1" xmlns="http://www.w3.org/2000/svg" width="341.6" height="824.71" viewBox="0 0 341.6 824.71">
  <style>
    :root {
      --black: #443430;
      --gold: #CEA600;
      --turquois: #4D9BA3;
      --blue: #262F66;
      --white: #FFFAF2;
    }
    .shape-1{fill:var(--turquois)}
    .shape-2{fill:var(--white)}
    .shape-3{fill:var(--blue)}
    .shape-4{fill:var(--blue)}
    .shape-5{fill:var(--white)}
    .shape-6{fill:var(--blue)}
    .shape-7{fill:var(--white)}
    .shape-8{fill:var(--turquois)}
    .line{}
    .guides{ stroke: #4FFF4F; display: none; fill: none}
  </style>

  <g id="pattern" class="line">

	<polygon class="shape-1" points="241.521,412.339 256.203,376.981 220.828,362.328 206.165,326.957 170.8,341.605 135.42,326.957 
		120.772,362.328 85.398,376.98 100.061,412.339 85.398,447.699 120.773,462.351 135.42,497.722 170.8,483.074 206.166,497.722 
		220.829,462.351 256.204,447.698 	"/>
	<g>
		<polygon class="shape-2" points="135.427,256.206 150.08,291.583 135.42,326.957 170.8,341.605 206.165,326.957 191.52,291.587 
			206.176,256.205 170.783,241.553 		"/>
		<polygon class="shape-2" points="256.203,376.981 270.866,341.581 306.239,326.928 291.607,291.533 256.211,276.898 241.534,312.332 
			206.165,326.957 220.828,362.328 		"/>
		<polygon class="shape-2" points="256.194,447.693 291.56,433.056 326.952,447.715 341.625,412.339 326.957,376.944 291.535,391.607 
			256.203,376.981 241.563,412.326 		"/>
		<polygon class="shape-2" points="85.398,376.98 70.736,341.58 35.363,326.927 49.989,291.573 85.39,276.897 100.068,312.331 
			135.42,326.957 120.736,362.356 		"/>
		<polygon class="shape-2" points="85.408,447.692 50.068,433.073 14.646,447.736 -0.022,412.338 14.646,376.943 50.067,391.606 
			85.398,376.98 100.039,412.325 		"/>
		<polygon class="shape-2" points="135.427,568.473 150.081,533.096 135.42,497.722 170.8,483.074 206.166,497.722 191.521,533.091 
			206.177,568.474 170.783,583.126 		"/>
		<polygon class="shape-2" points="256.204,447.698 270.867,483.098 306.24,497.75 291.607,533.146 256.212,547.781 241.535,512.347 
			206.166,497.722 220.829,462.351 		"/>
		<polygon class="shape-2" points="85.398,447.699 70.736,483.099 35.363,497.751 49.99,533.106 85.39,547.782 100.068,512.348 
			135.42,497.722 120.736,462.323 		"/>
	</g>
	<g>
		<polygon class="shape-3" points="220.804,120.752 256.205,135.428 270.883,99.995 306.208,85.353 320.869,120.75 306.212,156.143 
			341.604,170.803 291.562,191.52 270.86,241.553 291.566,291.605 256.195,276.924 241.544,312.302 206.165,326.957 191.52,291.587 
			206.176,256.205 170.802,241.553 220.829,220.831 241.552,170.802 		"/>
		<polygon class="shape-3" points="120.775,120.793 85.38,135.428 70.702,99.995 35.378,85.435 20.72,120.804 35.373,156.143 0,170.8 
			50.023,191.52 70.725,241.553 50.019,291.605 85.39,276.924 100.041,312.302 135.42,326.957 150.08,291.583 135.427,256.206 
			170.783,241.553 120.756,220.831 100.033,170.802 		"/>
		<polygon class="shape-3" points="220.804,703.926 256.206,689.25 270.883,724.684 306.208,739.326 320.87,703.929 306.212,668.536 
			341.605,653.875 291.562,633.16 270.861,583.126 291.566,533.074 256.195,547.754 241.544,512.376 206.166,497.722 
			191.521,533.091 206.177,568.474 170.802,583.126 220.83,603.848 241.552,653.876 		"/>
		<polygon class="shape-3" points="120.775,703.885 85.38,689.25 70.703,724.684 35.378,739.244 20.72,703.875 35.373,668.536 
			0,653.878 50.023,633.16 70.726,583.126 50.019,533.074 85.39,547.754 100.041,512.376 135.42,497.722 150.081,533.096 
			135.427,568.473 170.783,583.126 120.756,603.848 100.033,653.876 		"/>
	</g>
	<g>
		<polygon class="shape-4" points="391.635,291.574 341.632,312.275 291.607,291.533 306.239,326.928 270.866,341.581 256.203,376.981 
			291.535,391.607 326.957,376.944 341.625,412.339 		"/>
		<polygon class="shape-4" points="50.067,391.606 85.398,376.98 70.736,341.58 35.363,326.927 49.989,291.573 -0.014,312.274 
			-50.04,291.532 -0.022,412.338 14.646,376.943 		"/>
		<polygon class="shape-4" points="391.636,533.105 341.632,512.404 291.607,533.146 306.24,497.75 270.867,483.098 256.204,447.698 
			291.535,433.072 326.957,447.735 341.625,412.339 		"/>
		<polygon class="shape-4" points="50.068,433.073 85.398,447.699 70.736,483.099 35.363,497.751 49.99,533.106 -0.014,512.405 
			-50.04,533.147 -0.022,412.34 14.646,447.736 		"/>
	</g>
	<g>
		<polygon class="shape-5" points="170.801,100.051 120.775,120.793 100.033,170.802 120.756,220.831 170.802,241.553 220.829,220.831 
			241.552,170.802 220.804,120.752 		"/>
		<polygon class="shape-5" points="341.604,170.803 291.562,191.52 270.86,241.553 291.583,291.582 341.629,312.303 391.656,291.582 
			412.379,241.553 391.63,191.503 		"/>
		<polygon class="shape-5" points="-0.026,170.802 -50.052,191.544 -70.794,241.553 -50.071,291.582 -0.025,312.303 50.001,291.582 
			70.725,241.553 49.976,191.503 		"/>
		<polygon class="shape-5" points="170.801,724.627 120.775,703.885 100.033,653.876 120.756,603.848 170.802,583.126 220.83,603.848 
			241.552,653.876 220.804,703.926 		"/>
		<polygon class="shape-5" points="341.605,653.875 291.562,633.16 270.861,583.126 291.583,533.097 341.63,512.375 391.656,533.097 
			412.38,583.126 391.63,633.175 		"/>
		<polygon class="shape-5" points="-0.026,653.876 -50.051,633.134 -70.794,583.126 -50.071,533.097 -0.024,512.375 50.001,533.097 
			70.726,583.126 49.976,633.175 		"/>
	</g>
	<g>
		<polygon class="shape-6" points="220.882,20.72 256.213,35.345 241.55,70.746 206.178,85.398 220.804,120.752 170.801,100.051 
			120.775,120.793 135.407,85.398 100.035,70.746 85.434,35.38 120.703,20.72 156.125,35.382 170.792,-0.013 185.46,35.382 		"/>
		<polygon class="shape-6" points="220.882,803.958 256.214,789.333 241.55,753.933 206.178,739.281 220.804,703.926 170.801,724.627 
			120.775,703.885 135.408,739.281 100.035,753.933 85.435,789.298 120.704,803.958 156.125,789.296 170.792,824.691 
			185.46,789.296 		"/>
	</g>
	<g>
		<polygon class="shape-7" points="256.213,35.345 241.55,70.746 206.178,85.398 220.804,120.752 256.205,135.428 270.883,99.995 
			306.208,85.353 291.551,49.969 		"/>
		<polygon class="shape-7" points="256.222,-35.367 185.45,-35.354 170.792,-0.013 185.46,35.382 220.882,20.72 256.213,35.345 
			270.853,0 		"/>
		<polygon class="shape-7" points="85.434,35.38 100.035,70.746 135.407,85.398 120.775,120.793 85.38,135.428 70.702,99.995 
			35.378,85.435 50.041,50.054 		"/>
		<polygon class="shape-7" points="35.378,85.435 20.72,120.804 35.373,156.143 0,170.8 -35.17,155.987 -35.12,85.221 0,70.787 		"/>
		<polygon class="shape-7" points="376.741,85.55 376.736,156.34 341.604,170.803 306.212,156.143 320.869,120.75 306.208,85.353 
			341.603,70.682 		"/>
		<polygon class="shape-7" points="85.363,-35.367 156.135,-35.354 170.792,-0.013 156.125,35.382 120.703,20.72 85.434,35.38 70.732,0 
					"/>
		<polygon class="shape-7" points="256.214,789.333 241.55,753.933 206.178,739.281 220.804,703.926 256.206,689.25 270.883,724.684 
			306.208,739.326 291.551,774.71 		"/>
		<polygon class="shape-7" points="256.222,860.046 185.451,860.033 170.792,824.691 185.46,789.296 220.882,803.958 256.214,789.333 
			270.853,824.679 		"/>
		<polygon class="shape-7" points="85.435,789.298 100.035,753.933 135.408,739.281 120.775,703.885 85.38,689.25 70.703,724.684 
			35.378,739.244 50.042,774.625 		"/>
		<polygon class="shape-7" points="35.378,739.244 20.72,703.875 35.373,668.536 0,653.878 -35.17,668.691 -35.12,739.458 0,753.892 		
			"/>
		<polygon class="shape-7" points="376.742,739.128 376.736,668.339 341.605,653.875 306.212,668.536 320.87,703.929 306.208,739.326 
			341.603,753.997 		"/>
		<polygon class="shape-7" points="85.363,860.046 156.136,860.033 170.792,824.691 156.125,789.296 120.704,803.958 85.435,789.298 
			70.732,824.679 		"/>
	</g>
	<g>
		<polygon class="shape-8" points="256.222,-35.367 270.853,0 256.213,35.345 291.551,49.969 306.208,85.353 341.603,70.682 
			376.741,85.55 376.741,-35.367 		"/>
		<polygon class="shape-8" points="85.363,-35.367 70.732,0 85.434,35.38 50.041,50.054 35.378,85.435 0,70.787 -35.156,85.55 
			-35.156,-35.367 		"/>
		<polygon class="shape-8" points="256.222,860.046 270.853,824.679 256.214,789.333 291.551,774.71 306.208,739.326 341.603,753.997 
			376.742,739.128 376.742,860.046 		"/>
		<polygon class="shape-8" points="85.363,860.046 70.732,824.679 85.435,789.298 50.042,774.625 35.378,739.244 0,753.892 
			-35.155,739.128 -35.155,860.046 		"/>
	</g>
</g>
<g class="guides">
	<rect width="341.603" height="824.71"/>
	<line x1="-8.864" y1="267.183" x2="352.149" y2="416.724"/>
	<line x1="-5.596" y1="414.671" x2="353.117" y2="266.087"/>
	<polyline points="-11.962,441.218 170.804,0 353.565,441.218 	"/>
	<polyline points="348.471,315.148 0,170.8 348.471,26.457 	"/>
	<line x1="170.8" y1="341.605" x2="29.302" y2="0"/>
	<line x1="315.181" y1="-6.947" x2="170.801" y2="341.605"/>
	<line x1="352.225" y1="166.404" x2="-9.198" y2="316.112"/>
	<line x1="50.025" y1="50.022" x2="341.604" y2="170.803"/>
	<line x1="50.025" y1="50.022" x2="341.604" y2="170.803"/>
	<line x1="0" y1="0" x2="220.829" y2="220.831"/>
	<line x1="341.603" y1="0" x2="120.773" y2="220.829"/>
	<line x1="270.853" y1="0" x2="100.062" y2="412.341"/>
	<line x1="241.52" y1="412.341" x2="70.785" y2="0"/>
	<line x1="-8.198" y1="67.393" x2="347.802" y2="214.795"/>
	<line x1="347.761" y1="68.13" x2="-26.864" y2="223.407"/>
	<polyline points="120.772,362.328 0,70.787 170.804,0 341.603,70.682 220.828,362.328 	"/>
	<polyline points="100.05,412.355 0,170.8 70.785,0 	"/>
	<polyline points="270.853,0 341.603,170.804 241.551,412.355 	"/>
	<line x1="0" y1="241.553" x2="341.603" y2="241.553"/>
	<line x1="0" y1="412.341" x2="341.603" y2="412.341"/>
	<line x1="351.133" y1="308.355" x2="-9.531" y2="457.721"/>
	<line x1="-9.551" y1="308.34" x2="349.897" y2="457.219"/>
	<line x1="70.785" y1="0" x2="241.55" y2="70.746"/>
	<line x1="270.853" y1="0" x2="100.083" y2="70.758"/>
	<line x1="-8.864" y1="557.5" x2="352.15" y2="407.958"/>
	<line x1="-5.596" y1="410.011" x2="353.117" y2="558.595"/>
	<polyline points="-11.962,383.464 170.804,824.683 353.566,383.464 	"/>
	<polyline points="348.471,509.535 0,653.882 348.471,798.226 	"/>
	<line x1="170.8" y1="483.078" x2="29.302" y2="824.682"/>
	<line x1="315.181" y1="831.629" x2="170.801" y2="483.078"/>
	<line x1="352.225" y1="658.279" x2="-9.198" y2="508.571"/>
	<line x1="50.025" y1="774.66" x2="341.604" y2="653.879"/>
	<line x1="50.025" y1="774.66" x2="341.604" y2="653.879"/>
	<line x1="0" y1="824.683" x2="220.829" y2="603.852"/>
	<line x1="341.603" y1="824.683" x2="120.773" y2="603.853"/>
	<line x1="270.853" y1="824.683" x2="100.062" y2="412.341"/>
	<line x1="241.519" y1="412.341" x2="70.785" y2="824.683"/>
	<line x1="-8.198" y1="757.291" x2="347.802" y2="609.887"/>
	<line x1="347.761" y1="756.552" x2="-26.864" y2="601.276"/>
	<polyline points="120.772,462.355 0,753.896 170.804,824.683 341.603,754 220.828,462.355 	"/>
	<polyline points="100.05,412.328 0,653.882 70.785,824.683 	"/>
	<polyline points="270.853,824.683 341.603,653.878 241.55,412.328 	"/>
	<line x1="0" y1="583.13" x2="341.603" y2="583.13"/>
	<path d="M341.603,412.341"/>
	<path d="M0,412.341"/>
	<line x1="351.133" y1="516.328" x2="-9.531" y2="366.961"/>
	<line x1="-9.551" y1="516.342" x2="349.897" y2="367.463"/>
	<line x1="70.785" y1="824.683" x2="241.55" y2="753.937"/>
	<line x1="270.853" y1="824.683" x2="100.083" y2="753.925"/>
</g>
</svg>
