<svg version="1.1" xmlns="http://www.w3.org/2000/svg" width="341.6" height="824.71" viewBox="0 0 341.6 824.71">
  <style>
    :root {
      --black: #443430;
      --gold: #CEA600;
      --turquois: #4D9BA3;
      --blue: #262F66;
      --white: #FFFAF2;
    }
    .shape-1{fill:var(--turquois)}
    .shape-2{fill:var(--white)}
    .shape-3{fill:var(--blue)}
    .shape-4{fill:var(--blue)}
    .shape-5{fill:var(--white)}
    .shape-6{fill:var(--blue)}
    .shape-7{fill:var(--white)}
    .shape-8{fill:var(--turquois)}
    .line{}
    .guides{ stroke: #4FFF4F; display: none; fill: none}
  </style>

  <g id="pattern" class="line">
    <path class="shape-1" d="M241.5 412.3l14.7-35.3-35.4-14.7-14.6-35.3-35.4 14.6-35.4-14.6-14.6 35.3L85.4 377l14.7 35.3-14.7 35.4 35.4 14.7 14.6 35.3 35.4-14.6 35.4 14.6 14.6-35.3 35.4-14.7z"/>
    <path class="shape-2" d="M135.4 256.2l14.7 35.4-14.7 35.4 35.4 14.6 35.4-14.6-14.7-35.4 14.7-35.4-35.4-14.6zM256.2 377l14.7-35.4 35.3-14.7-14.6-35.4-35.4-14.6-14.7 35.4-35.3 14.7 14.6 35.3z"/>
    <path class="shape-2" d="M256.2 447.7l35.4-14.6 35.4 14.6 14.6-35.4-14.6-35.4-35.5 14.7-35.3-14.6-14.6 35.3zM85.4 377l-14.7-35.4-35.3-14.7L50 291.6l35.4-14.7 14.7 35.4 35.3 14.7-14.7 35.4zM85.4 447.7l-35.3-14.6-35.5 14.6L0 412.3l14.6-35.4 35.5 14.7L85.4 377l14.6 35.3zM135.4 568.5l14.7-35.4-14.7-35.4 35.4-14.6 35.4 14.6-14.7 35.4 14.7 35.4-35.4 14.6zM256.2 447.7l14.7 35.4 35.3 14.7-14.6 35.3-35.4 14.7-14.7-35.5-35.3-14.6 14.6-35.3zM85.4 447.7l-14.7 35.4-35.3 14.7L50 533.1l35.4 14.7 14.7-35.5 35.3-14.6-14.7-35.4z"/>
    <g>
      <path class="shape-3" d="M220.8 120.8l35.4 14.6 14.7-35.4 35.3-14.6 14.7 35.4-14.7 35.3 35.4 14.7-50 20.7-20.7 50.1 20.7 50-35.4-14.7-14.7 35.4-35.3 14.7-14.7-35.4 14.7-35.4-35.4-14.6 50-20.8 20.8-50z"/>
      <path class="shape-3" d="M120.8 120.8l-35.4 14.6L70.7 100 35.4 85.4l-14.7 35.4 14.7 35.3L0 170.8l50 20.7 20.7 50.1-20.7 50 35.4-14.7 14.6 35.4 35.4 14.7 14.7-35.4-14.7-35.4 35.4-14.6-50-20.8-20.8-50zM220.8 703.9l35.4-14.6 14.7 35.4 35.3 14.6 14.7-35.4-14.7-35.4 35.4-14.6-50-20.7-20.7-50.1 20.7-50-35.4 14.7-14.7-35.4-35.3-14.7-14.7 35.4 14.7 35.4-35.4 14.6 50 20.7 20.8 50.1z"/>
      <path class="shape-3" d="M120.8 703.9l-35.4-14.6-14.7 35.4-35.3 14.5-14.7-35.3 14.7-35.4L0 653.9l50-20.7 20.7-50.1-20.7-50 35.4 14.7 14.6-35.4 35.4-14.7 14.7 35.4-14.7 35.4 35.4 14.6-50 20.7-20.8 50.1z"/>
    </g>
    <g>
      <path class="shape-4" d="M391.6 291.6l-50 20.7-50-20.8 14.6 35.4-35.3 14.7-14.7 35.4 35.3 14.6 35.5-14.7 14.6 35.4zM50.1 391.6L85.4 377l-14.7-35.4-35.3-14.7L50 291.6 0 312.3l-50-20.8L0 412.3l14.6-35.4zM391.6 533.1l-50-20.7-50 20.7 14.6-35.3-35.3-14.7-14.7-35.4 35.3-14.6 35.5 14.6 14.6-35.4zM50.1 433.1l35.3 14.6-14.7 35.4-35.3 14.7L50 533.1 0 512.4l-50 20.7L0 412.3l14.6 35.4z"/>
    </g>
    <g>
      <path class="shape-5" d="M170.8 100.1l-50 20.7-20.8 50 20.8 50 50 20.8 50-20.8 20.8-50-20.8-50zM341.6 170.8l-50 20.7-20.7 50.1 20.7 50 50 20.7 50.1-20.7 20.7-50-20.8-50.1zM0 170.8l-50.1 20.7-20.7 50.1 20.7 50L0 312.3l50-20.7 20.7-50L50 191.5zM170.8 724.6l-50-20.7-20.8-50 20.8-50.1 50-20.7 50 20.7 20.8 50.1-20.8 50zM341.6 653.9l-50-20.7-20.7-50.1 20.7-50 50-20.7 50.1 20.7 20.7 50-20.8 50.1zM0 653.9l-50.1-20.8-20.7-50 20.7-50L0 512.4l50 20.7 20.7 50L50 633.2z"/>
    </g>
    <g>
      <path class="shape-6" d="M220.9 20.7l35.3 14.6-14.6 35.4-35.4 14.7 14.6 35.4-50-20.7-50 20.7 14.6-35.4L100 70.7 85.4 35.4l35.3-14.7 35.4 14.7L170.8 0l14.7 35.4zM220.9 804l35.3-14.7-14.6-35.4-35.4-14.6 14.6-35.4-50 20.7-50-20.7 14.6 35.4-35.4 14.6-14.6 35.4 35.3 14.7 35.4-14.7 14.7 35.4 14.7-35.4z"/>
    </g>
    <g>
      <path class="shape-7" d="M256.2 35.3l-14.6 35.4-35.4 14.7 14.6 35.4 35.4 14.6 14.7-35.4 35.3-14.6L291.6 50zM256.2-35.4h-70.8L170.8 0l14.7 35.4 35.4-14.7 35.3 14.6L270.9 0zM85.4 35.4L100 70.7l35.4 14.7-14.6 35.4-35.4 14.6L70.7 100 35.4 85.4 50 50.1zM35.4 85.4l-14.7 35.4 14.7 35.3L0 170.8-35.2 156l.1-70.8L0 70.8zM376.7 85.5v70.8l-35.1 14.5-35.4-14.7 14.7-35.3-14.7-35.4 35.4-14.7zM85.4-35.4h70.7L170.8 0l-14.7 35.4-35.4-14.7-35.3 14.7L70.7 0zM256.2 789.3l-14.6-35.4-35.4-14.6 14.6-35.4 35.4-14.6 14.7 35.4 35.3 14.6-14.6 35.4zM256.2 860h-70.7l-14.7-35.3 14.7-35.4 35.4 14.7 35.3-14.7 14.7 35.4zM85.4 789.3l14.6-35.4 35.4-14.6-14.6-35.4-35.4-14.6-14.7 35.4-35.3 14.5L50 774.6zM35.4 739.2l-14.7-35.3 14.7-35.4L0 653.9l-35.2 14.8.1 70.8L0 753.9zM376.7 739.1v-70.8l-35.1-14.4-35.4 14.6 14.7 35.4-14.7 35.4 35.4 14.7zM85.4 860h70.7l14.7-35.3-14.7-35.4-35.4 14.7-35.3-14.7-14.7 35.4z"/>
    </g>
    <g>
      <path class="shape-8" d="M256.2-35.4L270.9 0l-14.7 35.3L291.6 50l14.6 35.4 35.4-14.7 35.1 14.8V-35.4zM85.4-35.4L70.7 0l14.7 35.4L50 50.1 35.4 85.4 0 70.8l-35.2 14.7V-35.4zM256.2 860l14.7-35.3-14.7-35.4 35.4-14.6 14.6-35.4 35.4 14.7 35.1-14.9V860zM85.4 860l-14.7-35.3 14.7-35.4L50 774.6l-14.6-35.4L0 753.9l-35.2-14.8V860z"/>
    </g>
  </g>
  <g class="guides">
    <path d="M0 0h341.6v824.7H0zM-8.9 267.2l361 149.5M-5.6 414.7l358.7-148.6"/>
    <path d="M-12 441.2L170.8 0l182.8 441.2"/>
    <path d="M348.5 315.1L0 170.8 348.5 26.5M170.8 341.6L29.3 0M315.2-6.9L170.8 341.6M352.2 166.4L-9.2 316.1M50 50l291.6 120.8M50 50l291.6 120.8M0 0l220.8 220.8M341.6 0L120.8 220.8M270.9 0L100.1 412.3M241.5 412.3L70.8 0M-8.2 67.4l356 147.4M347.8 68.1L-26.9 223.4"/>
    <path d="M120.8 362.3L0 70.8 170.8 0l170.8 70.7-120.8 291.6"/>
    <path d="M100 412.4L0 170.8 70.8 0M270.9 0l70.7 170.8-100 241.6M0 241.6h341.6M0 412.3h341.6M351.1 308.4L-9.5 457.7M-9.6 308.3l359.5 148.9M70.8 0l170.8 70.7M270.9 0L100.1 70.8M-8.9 557.5l361-149.5M-5.6 410l358.7 148.6"/>
    <path d="M-12 383.5l182.8 441.2 182.8-441.2"/>
    <path d="M348.5 509.5L0 653.9l348.5 144.3M170.8 483.1L29.3 824.7M315.2 831.6L170.8 483.1M352.2 658.3L-9.2 508.6M50 774.7l291.6-120.8M50 774.7l291.6-120.8M0 824.7l220.8-220.8M341.6 824.7L120.8 603.9M270.9 824.7L100.1 412.3M241.5 412.3L70.8 824.7M-8.2 757.3l356-147.4M347.8 756.6L-26.9 601.3"/>
    <path d="M120.8 462.4L0 753.9l170.8 70.8L341.6 754 220.8 462.4"/>
    <path d="M100 412.3L0 653.9l70.8 170.8M270.9 824.7l70.7-170.8-100-241.6M0 583.1h341.6M351.1 516.3L-9.5 367M-9.6 516.3l359.5-148.8M70.8 824.7l170.8-70.8M270.9 824.7l-170.8-70.8"/>
  </g>
</svg>
