<svg version="1.1" xmlns="http://www.w3.org/2000/svg"  width="477" height="477" viewBox="0 0 477 477">
  <style>
    :root {
      --black: #443430;
      --gold: #CEA600;
      --turquois: #4D9BA3;
      --blue: #262F66;
      --white: #FFFAF2;
    }
    .shape-1{fill:var(--turquois)}
    .shape-2{fill:var(--white)}
    .shape-3{fill:var(--blue)}
    .shape-4{fill:var(--white)}
    .shape-5{fill:var(--black)}
    .shape-6{fill:var(--blue)}
    .shape-7{fill:var(--white)}
    .shape-8{fill:var(--blue)}
    .shape-9{fill:var(--white)}
    .shape-10{fill:var(--blue)}
    .line{}
    .guides{ stroke: #4FFF4F; display: none; fill: none}
  </style>

  <g id="pattern" class="line">
    <path class="shape-1" d="M282.2 0l-10.7-13.7-2.2-17.1-17.1-2.2-13.7-10.7L224.8-33l-17.2 2.1-2.1 17.2L194.8 0l10.7 13.7 2.1 17.2 17.2 2.1 13.7 10.7L252.2 33l17.1-2.2 2.2-17.1zM43.7 238.5L33 224.8l-2.2-17.1-17.1-2.2L0 194.8l-13.7 10.7-17.2 2.1-2.1 17.2-10.7 13.7 10.7 13.7 2.1 17.2 17.2 2.1L0 282.2l13.7-10.7 17.1-2.2 2.2-17.1zM282.2 477l-10.7-13.7-2.2-17.1-17.1-2.2-13.7-10.7-13.7 10.7-17.2 2.1-2.1 17.2-10.7 13.7 10.7 13.7 2.1 17.2 17.2 2.1 13.7 10.7 13.7-10.7 17.1-2.2 2.2-17.1zM520.7 238.5L510 224.8l-2.2-17.1-17.1-2.2-13.7-10.7-13.7 10.7-17.2 2.1-2.1 17.2-10.7 13.7 10.7 13.7 2.1 17.2 17.2 2.1 13.7 10.7 13.7-10.7 17.1-2.2 2.2-17.1z"/>
    <path class="shape-2" d="M194.8 0l-20.9 26.7 33.7 4.2-2.1-17.2zM271.5 13.7l-2.2 17.1 33.8-4.1L282.2 0zM238.5 43.7l26.7 20.8 4.1-33.7-17.1 2.2zM207.6 30.9l4.2 33.6 26.7-20.8L224.8 33zM43.7 238.5l20.9-26.7-33.8-4.1 2.2 17.1zM30.8 207.7L26.7 174 0 194.8l13.7 10.7zM33 252.2l-2.2 17.1 33.8-4.1-20.9-26.7zM0 282.2l26.7 20.9 4.1-33.8-17.1 2.2zM238.5 433.3l-26.7-20.8-4.2 33.6 17.2-2.1zM269.3 446.2l-4.1-33.7-26.7 20.8 13.7 10.7zM207.6 446.1l-33.6 4.2 20.8 26.7 10.7-13.7zM282.2 477l20.9-26.7-33.8-4.1 2.2 17.1zM446.1 207.6l-33.6 4.2 20.8 26.7 10.7-13.7zM477 194.8L450.3 174l-4.2 33.6 17.2-2.1zM446.1 269.4l4.2 33.6 26.7-20.8-13.7-10.7zM433.3 238.5l-20.8 26.7 33.6 4.2-2.1-17.2z"/>
    <g>
      <path class="shape-3" d="M207.6 30.9l-33.7-4.2-17.4 22.4 4.6 28.3 28.3 4.6 22.4-17.5zM238.5 43.7l-26.7 20.9 3.4 28.1 23.3 16.7 23.3-16.7 3.4-28.2zM269.4 30.9l-4.2 33.6L287.6 82l28.3-4.6 4.6-28.3L303 26.7zM282.2 0l20.9 26.7 28.1-3.4L347.9 0l-16.7-23.3-28.2-3.4zM194.8 0l-20.9-26.7-28.1 3.4L129.1 0l16.7 23.3 28.2 3.4zM0 282.2l-26.7 20.9 3.4 28.1L0 347.9l23.3-16.7 3.4-28.2zM30.9 269.4l-4.2 33.7 22.4 17.4 28.3-4.6 4.6-28.3-17.5-22.4zM43.7 238.5l20.9 26.7 28.1-3.4 16.7-23.3-16.7-23.3-28.2-3.4zM30.9 207.6l33.7 4.2L82 189.4l-4.6-28.3-28.3-4.6L26.7 174zM0 194.8l26.7-20.9-3.4-28.1L0 129.1l-23.3 16.7-3.4 28.2zM282.2 477l20.9 26.7 28.1-3.4 16.7-23.3-16.7-23.3-28.1-3.4zM269.4 446.1l33.7 4.2 17.4-22.4-4.6-28.3-28.3-4.6-22.4 17.5zM238.5 433.3l26.7-20.9-3.4-28.1-23.3-16.7-23.3 16.7-3.4 28.2zM207.6 446.1l4.2-33.6-22.4-17.5-28.3 4.6-4.6 28.3 17.5 22.4zM194.8 477l-20.9-26.7-28.1 3.4-16.7 23.3 16.7 23.3 28.2 3.4zM446.1 269.4l-33.6-4.2-17.5 22.4 4.6 28.3 28.3 4.6 22.4-17.5zM477 282.2l-26.7 20.9 3.4 28.1 23.3 16.7 23.3-16.7 3.4-28.2zM477 194.8l26.7-20.9-3.4-28.1-23.3-16.7-23.3 16.7-3.4 28.2zM446.1 207.6l4.2-33.7-22.4-17.4-28.3 4.6-4.6 28.3 17.5 22.4zM433.3 238.5l-20.9-26.7-28.1 3.4-16.7 23.3 16.7 23.3 28.2 3.4z"/>
    </g>
    <g>
      <path class="shape-4" d="M139 279.7l-29.6-41.2-16.7 23.3-28.1 3.4L82 287.6l-4.6 28.3 50.1-8.2-8.2-19.8zM197.3 139l41.2-29.6-23.3-16.7-3.4-28.1L189.4 82l-28.3-4.6 8.2 50 19.8-8.2z"/>
      <path class="shape-4" d="M119.3 189.1l8.2-19.8-50.1-8.2 4.6 28.3-17.4 22.4 28.1 3.4 16.7 23.3 29.6-41.2zM197.3 338l-8.2 19.8-19.8-8.2-8.2 50 28.3-4.6 22.4 17.5 3.4-28.2 23.3-16.7z"/>
      <path class="shape-4" d="M279.7 338l-41.2 29.6 23.3 16.7 3.4 28.1 22.4-17.4 28.3 4.6-8.2-50-19.8 8.2zM395 287.6l17.5-22.4-28.2-3.4-16.7-23.3-29.6 41.2 19.8 8.2-8.3 19.8 50.1 8.2zM307.7 127.4l8.2-50-28.3 4.6-22.4-17.5-3.4 28.2-23.3 16.7 41.2 29.6 8.2-19.8zM395 189.4l4.6-28.3-50 8.2 8.2 19.8-19.8 8.2 29.6 41.2 16.7-23.3 28.1-3.4z"/>
      <path class="shape-4" d="M377.5 41.2L347.9 0l-16.7 23.3-28.1 3.4 17.4 22.4-4.6 28.3 50-8.2-8.2-19.8zM435.8 99.5l-8.2 19.8-19.8-8.3-8.2 50.1 28.3-4.6 22.4 17.5 3.4-28.2 23.3-16.7zM41.2 99.5L0 129.1l23.3 16.7 3.4 28.1 22.4-17.4 28.3 4.6-8.2-50.1-19.8 8.3zM156.5 49.1l17.4-22.4-28.1-3.4L129.1 0 99.5 41.2l19.7 8.2-8.2 19.8 50.1 8.2zM69.2 365.9l8.2-50-28.3 4.6-22.4-17.4-3.4 28.1L0 347.9l41.2 29.6 8.2-19.7zM156.5 427.9l4.6-28.3-50 8.2 8.2 19.8-19.8 8.2 29.6 41.2 16.7-23.3 28.2-3.4zM435.8 377.5l41.2-29.6-23.3-16.7-3.4-28.1-22.4 17.4-28.3-4.6 8.2 50 19.8-8.1zM357.8 427.6l8.2-19.8-50.1-8.2 4.6 28.3-17.4 22.4 28.1 3.4 16.7 23.3 29.7-41.2z"/>
    </g>
    <g>
      <path class="shape-5" d="M139 279.7l-19.7 8.2 8.2 19.8 28.3-4.6zM197.3 139l-8.2-19.8-19.8 8.2 4.6 28.4zM139 197.3l16.8-23.3-28.3-4.7-8.2 19.8zM197.3 338l-23.4-16.8-4.6 28.4 19.8 8.2zM279.7 338l8.2 19.8 19.8-8.2-4.6-28.4zM338 279.7l-16.8 23.4 28.3 4.6 8.3-19.8zM307.7 127.4l-19.8-8.2-8.2 19.8 23.4 16.8zM349.6 169.3l-28.4 4.6 16.8 23.4 19.8-8.2zM377.5 41.2l-19.8 8.2 8.2 19.8 28.4-4.6zM435.8 99.5l-23.4-16.8-4.6 28.3 19.8 8.3zM41.2 99.5l8.2 19.8 19.8-8.3-4.6-28.3zM99.5 41.2L82.7 64.5l28.3 4.7 8.2-19.8zM69.2 365.9l-19.8-8.1-8.2 19.7 23.4 16.8zM111.1 407.8l-28.4 4.6 16.8 23.4 19.8-8.2zM435.8 377.5l-8.2-19.7-19.8 8.1 4.6 28.4zM377.6 435.8l16.7-23.3-28.3-4.7-8.2 19.8z"/>
    </g>
    <g>
      <path class="shape-6" d="M161.1 77.4L111 69.2 98.8 98.8 69.2 111l8.2 50.1 50.1 8.2 12.2-29.6 29.6-12.3zM399.6 161.1l-50 8.2-12.3-29.6-29.6-12.2 8.2-50.1 50.1-8.2 12.2 29.6 29.6 12.2zM161.1 399.6l-50.1 8.2-12.2-29.6L69.2 366l8.2-50.1 50.1-8.2 12.2 29.6 29.6 12.3zM399.6 315.9l-50-8.2-12.3 29.6-29.6 12.3 8.2 50 50.1 8.2 12.2-29.6 29.6-12.2z"/>
    </g>
    <g>
      <path class="shape-7" d="M211.8 173.9L197.3 139l-23.4 16.8-4.6-28.4-29.6 12.3-12.2 29.6 28.3 4.7-16.8 23.3 34.9 14.5v-37.9zM211.8 303.1h-37.9v-37.9L139 279.7l16.8 23.4-28.3 4.6 12.2 29.6 29.6 12.3 4.6-28.4 23.4 16.8zM338 279.7l-34.9-14.5v37.9h-37.9l14.5 34.9 23.4-16.8 4.6 28.4 29.6-12.3 12.2-29.6-28.3-4.6zM265.2 173.9h37.9v37.9l34.9-14.5-16.8-23.4 28.4-4.6-12.3-29.6-29.6-12.3-4.6 28.4-23.4-16.8zM450.3 64.5h-37.9V26.7l-34.9 14.5 16.8 23.4-28.4 4.6 12.3 29.6 29.6 12.2 4.6-28.3 23.4 16.8zM99.5 41.2l-35-14.5v37.8H26.7l14.5 35 23.4-16.8 4.6 28.3 29.6-12.2L111 69.2l-28.3-4.7zM26.7 412.4h37.9v37.9l34.9-14.5-16.8-23.4 28.4-4.6-12.3-29.6-29.6-12.3-4.6 28.4-23.4-16.8zM450.3 412.4l-14.5-34.9-23.4 16.8-4.6-28.4-29.6 12.3-12.2 29.6 28.3 4.7-16.7 23.3 34.9 14.5v-37.9z"/>
    </g>
    <g>
      <path class="shape-8" d="M265.2 173.9l14.5-34.9-41.2-29.6-41.2 29.6 14.5 34.9zM139 197.3l-29.6 41.2 29.6 41.2 34.9-14.5v-53.4zM197.3 338l41.2 29.6 41.2-29.6-14.5-34.9h-53.4zM338 279.7l29.6-41.2-29.6-41.2-34.9 14.5v53.4zM377.5-41.2L347.9 0l29.6 41.2 34.9-14.5v-53.4zM435.8 99.5l41.2 29.6 41.2-29.6-14.5-35h-53.4zM-41.2 99.5L0 129.1l41.2-29.6-14.5-35h-53.4zM99.5 41.2L129.1 0 99.5-41.2l-35 14.5v53.4zM26.7 412.4l14.5-34.9L0 347.9l-41.2 29.6 14.5 34.9zM99.5 518.2l29.6-41.2-29.6-41.2-34.9 14.5v53.4zM503.7 412.4l14.5-34.9-41.2-29.6-41.2 29.6 14.5 34.9zM377.6 435.8L347.9 477l29.6 41.2 35-14.5v-53.4z"/>
    </g>
    <g>
      <path class="shape-9" d="M211.8 173.9l26.7 64.6 26.7-64.6zM173.9 211.8v53.4l64.6-26.7zM211.8 303.1h53.4l-26.7-64.6zM303.1 265.2v-53.4l-64.6 26.7zM412.4-26.7v53.4L477 0zM450.3 64.5h53.4L477 0zM-26.7 64.5h53.4L0 0zM64.5 26.7v-53.4L0 0zM-26.7 412.4L0 477l26.7-64.6zM64.6 503.7v-53.4L0 477zM450.3 412.4L477 477l26.7-64.6zM412.5 450.3v53.4L477 477z"/>
    </g>
    <g>
      <path class="shape-10" d="M211.8 173.9h-37.9v37.9l64.6 26.7zM211.8 303.1l26.7-64.6-64.6 26.7v37.9zM303.1 265.2l-64.6-26.7 26.7 64.6h37.9zM265.2 173.9l-26.7 64.6 64.6-26.7v-37.9zM450.3 64.5L477 0l-64.6 26.7v37.8zM64.5 26.7L0 0l26.7 64.5h37.8zM26.7 412.4L0 477l64.6-26.7v-37.9zM450.3 412.4h-37.8v37.9L477 477z"/>
    </g>
  </g>
  <g class="guides">
    <path d="M0 0h477v477H0zM477 0L0 477M0 0l477 477M238.5 0v477M0 238.5h477"/>
    <circle cx="238.5" r="168.6"/>
    <circle cy="238.5" r="168.6"/>
    <circle cx="477" cy="238.5" r="168.6"/>
    <circle cx="238.5" cy="477" r="168.6"/>
    <path d="M0 238.5L238.7 0 477 238.5 238.6 477zM0 238.5l69.9 168.6M0 238.5l168.6 69.9M238.5 0L69.9 69.9M238.5 0l-69.9 168.6M0 238.5L69.9 69.9M0 238.5l168.6-69.9M238.5 238.5L168.6 69.9M238.5 238.5L69.9 168.6M0 0l168.6 69.9M0 0l69.9 168.6M238.5 477l168.6-69.9M238.5 477l69.9-168.6M238.5 477L69.9 407.1M238.5 477l-69.9-168.6M238.5 0l168.6 69.9M238.5 0l69.9 168.6M477 238.5L407.1 69.9M477 238.5l-168.6-69.9M477 238.5l-69.9 168.6M477 238.5l-168.6 69.9M0 0l337.3 139.7M0 0l139.7 337.3M477 477L337.3 139.7M477 477L139.7 337.3"/>
    <g>
      <path d="M0 477l139.7-337.3M0 477l337.3-139.7M477 0L139.7 139.7M477 0L337.3 337.3"/>
    </g>
    <g>
      <path d="M189.1 119.2l-69.8-69.8v-98.8l69.8-69.8h98.8l69.9 69.8-.1 98.8-69.8 69.8zM119.3 20l238.5 29.4M357.7 20L119.2 49.4M168.3 98.5L357.8-49.4M337-70.2L189.1 119.3M258.5 119.3l29.4-238.6M258.5-119.3l29.4 238.6"/>
      <g>
        <path d="M337 70.2L189.1-119.3M168.3-98.5L357.8 49.4"/>
      </g>
      <g>
        <path d="M357.7-20L119.3-49.4M119.3-20l238.5-29.4"/>
      </g>
      <g>
        <path d="M308.7-98.5L119.2 49.4M140 70.2l147.9-189.5"/>
      </g>
      <g>
        <path d="M357.8 20L119.3 49.4M119.3 20l238.5 29.4M308.7 98.5L119.3-49.4M140-70.2l147.9 189.5M218.5 119.3l-29.4-238.6M218.5-119.3l-29.4 238.6"/>
        <g>
          <path d="M140 70.2l147.9-189.5M308.7-98.5L119.2 49.4"/>
        </g>
        <g>
          <path d="M119.3-20l238.5-29.4M357.7-20L119.2-49.4"/>
        </g>
        <g>
          <path d="M168.3-98.5L357.8 49.4M337 70.2L189.1-119.3"/>
        </g>
      </g>
      <g>
        <path d="M203.6 84.3L82.7 64.6l71.5-99.5"/>
        <path d="M273.4 84.3l-99.5 71.5-19.7-120.9"/>
        <path d="M322.8 34.9l-19.7 120.9-99.5-71.5"/>
        <path d="M322.8-34.9l71.5 99.5-120.9 19.7"/>
        <path d="M273.4-84.3l120.9 19.8-71.5 99.4"/>
        <path d="M203.6-84.3l99.5-71.5 19.7 120.9"/>
        <path d="M154.2-34.9l19.7-120.9 99.5 71.5"/>
        <path d="M154.2 34.9L82.7-64.6l120.9-19.7"/>
      </g>
      <circle cx="238.5" r="91.3"/>
      <path d="M173.9-64.6H303V64.5H173.9z"/>
    </g>
    <g>
      <path d="M-49.4 357.8l-69.9-69.9.1-98.8 69.8-69.8h98.8l69.9 69.8-.1 98.8-69.8 69.9zM-119.3 258.5l238.6 29.4M119.2 258.5l-238.5 29.4M-70.2 337l189.5-147.9M98.5 168.3L-49.4 357.8M20 357.8l29.4-238.5M20 119.3l29.4 238.5"/>
      <g>
        <path d="M98.5 308.7L-49.4 119.3M-70.2 140l189.5 147.9"/>
      </g>
      <g>
        <path d="M119.2 218.5l-238.5-29.4M-119.2 218.5l238.5-29.4"/>
      </g>
      <g>
        <path d="M70.2 140l-189.5 147.9M-98.5 308.7L49.4 119.2"/>
      </g>
      <g>
        <path d="M119.3 258.5l-238.6 29.4M-119.2 258.5l238.5 29.4M70.2 337l-189.5-147.9M-98.5 168.3L49.4 357.8M-20 357.8l-29.4-238.5M-20 119.3l-29.4 238.5"/>
        <g>
          <path d="M-98.5 308.7L49.4 119.3M70.2 140l-189.5 147.9"/>
        </g>
        <g>
          <path d="M-119.2 218.5l238.5-29.4M119.2 218.5l-238.5-29.4"/>
        </g>
        <g>
          <path d="M-70.2 140l189.5 147.9M98.5 308.7L-49.4 119.2"/>
        </g>
      </g>
      <g>
        <path d="M-34.9 322.8l-120.9-19.7 71.5-99.5"/>
        <path d="M34.9 322.8l-99.5 71.5-19.7-120.9"/>
        <path d="M84.3 273.4L64.5 394.3l-99.4-71.5"/>
        <path d="M84.3 203.6l71.5 99.5-120.9 19.7"/>
        <path d="M34.9 154.2L155.8 174l-71.5 99.4"/>
        <path d="M-34.9 154.2l99.5-71.5 19.7 120.9"/>
        <path d="M-84.3 203.6l19.8-120.9 99.4 71.5"/>
        <path d="M-84.3 273.4l-71.5-99.5 120.9-19.7"/>
      </g>
      <circle cy="238.5" r="91.3"/>
      <path d="M-64.5 173.9H64.6V303H-64.5z"/>
    </g>
    <g>
      <path d="M427.6 357.8l-69.8-69.9v-98.8l69.8-69.8h98.8l69.9 69.8-.1 98.8-69.8 69.9zM357.8 258.5l238.5 29.4M596.2 258.5l-238.5 29.4M406.8 337l189.5-147.9M575.5 168.3L427.6 357.8M497 357.8l29.4-238.5M497 119.3l29.4 238.5"/>
      <g>
        <path d="M575.5 308.7L427.6 119.3M406.8 140l189.5 147.9"/>
      </g>
      <g>
        <path d="M596.2 218.5l-238.4-29.4M357.8 218.5l238.5-29.4"/>
      </g>
      <g>
        <path d="M547.2 140L357.7 287.9M378.5 308.7l147.9-189.5"/>
      </g>
      <g>
        <path d="M596.3 258.5l-238.5 29.4M357.8 258.5l238.5 29.4M547.2 337L357.8 189.1M378.5 168.3l147.9 189.5M457 357.8l-29.4-238.5M457 119.3l-29.4 238.5"/>
        <g>
          <path d="M378.5 308.7l147.9-189.4M547.2 140L357.7 287.9"/>
        </g>
        <g>
          <path d="M357.8 218.5l238.5-29.4M596.2 218.5l-238.5-29.4"/>
        </g>
        <g>
          <path d="M406.8 140l189.5 147.9M575.5 308.7L427.6 119.2"/>
        </g>
      </g>
      <g>
        <path d="M442.1 322.8l-120.9-19.7 71.5-99.5"/>
        <path d="M511.9 322.8l-99.5 71.5-19.7-120.9"/>
        <path d="M561.3 273.4l-19.8 120.9-99.4-71.5"/>
        <path d="M561.3 203.6l71.5 99.5-120.9 19.7"/>
        <path d="M511.9 154.2L632.8 174l-71.5 99.4"/>
        <path d="M442.1 154.2l99.5-71.5 19.7 120.9"/>
        <path d="M392.7 203.6l19.7-120.9 99.5 71.5"/>
        <path d="M392.7 273.4l-71.5-99.5 120.9-19.7"/>
      </g>
      <circle cx="477" cy="238.5" r="91.3"/>
      <path d="M412.4 173.9h129.1V303H412.4z"/>
    </g>
    <g>
      <path d="M189.1 596.3l-69.8-69.9v-98.8l69.8-69.8h98.8l69.9 69.8-.1 98.8-69.8 69.9zM119.3 497l238.5 29.4M357.7 497l-238.5 29.4M168.3 575.5l189.5-147.9M337 406.8L189.1 596.3M258.5 596.3l29.4-238.5M258.5 357.8l29.4 238.5"/>
      <g>
        <path d="M337 547.2L189.1 357.8M168.3 378.5l189.5 147.9"/>
      </g>
      <g>
        <path d="M357.7 457l-238.4-29.4M119.3 457l238.5-29.4"/>
      </g>
      <g>
        <path d="M308.7 378.5L119.2 526.4M140 547.2l147.9-189.5"/>
      </g>
      <g>
        <path d="M357.8 497l-238.5 29.4M119.3 497l238.5 29.4M308.7 575.5L119.3 427.6M140 406.8l147.9 189.5M218.5 596.3l-29.4-238.5M218.5 357.8l-29.4 238.5"/>
        <g>
          <path d="M140 547.2l147.9-189.4M308.7 378.5L119.2 526.4"/>
        </g>
        <g>
          <path d="M119.3 457l238.5-29.4M357.7 457l-238.5-29.4"/>
        </g>
        <g>
          <path d="M168.3 378.5l189.5 147.9M337 547.2L189.1 357.7"/>
        </g>
      </g>
      <g>
        <path d="M203.6 561.3L82.7 541.6l71.5-99.5"/>
        <path d="M273.4 561.3l-99.5 71.5-19.7-120.9"/>
        <path d="M322.8 511.9l-19.7 120.9-99.5-71.5"/>
        <path d="M322.8 442.1l71.5 99.5-120.9 19.7"/>
        <path d="M273.4 392.7l120.9 19.8-71.5 99.4"/>
        <path d="M203.6 392.7l99.5-71.5 19.7 120.9"/>
        <path d="M154.2 442.1l19.7-120.9 99.5 71.5"/>
        <path d="M154.2 511.9l-71.5-99.5 120.9-19.7"/>
      </g>
      <circle cx="238.5" cy="477" r="91.3"/>
      <path d="M173.9 412.4H303v129.1H173.9z"/>
    </g>
    <path d="M173.9 173.9H303V303H173.9zM-64.5-64.5H64.6V64.6H-64.5zM412.4-64.5h129.1V64.6H412.4zM412.4 412.4h129.1v129.1H412.4zM-64.6 412.4H64.5v129.1H-64.6z"/>
  </g>
</svg>
