<svg version="1.1" xmlns="http://www.w3.org/2000/svg"  width="477" height="477" viewBox="0 0 477 477">
  <style>
    :root {
      --black: #443430;
      --gold: #CEA600;
      --turquois: #4D9BA3;
      --blue: #262F66;
      --white: #FFFAF2;
    }
    .shape-1{fill:var(--turquois)}
    .shape-2{fill:var(--white)}
    .shape-3{fill:var(--blue)}
    .shape-4{fill:var(--white)}
    .shape-5{fill:var(--black)}
    .shape-6{fill:var(--blue)}
    .shape-7{fill:var(--white)}
    .shape-8{fill:var(--blue)}
    .shape-9{fill:var(--white)}
    .shape-10{fill:var(--blue)}
    .line{}
    .guides{ stroke: #4FFF4F; display: none; fill: none}
  </style>

  <g id="pattern" class="line">
	<g>
		<polygon class="shape-1" points="282.181,0 271.509,-13.673 269.333,-30.833 252.173,-33.009 238.5,-43.68 224.827,-33.009 
			207.613,-30.886 205.491,-13.674 194.819,0 205.491,13.673 207.613,30.887 224.828,33.009 238.5,43.681 252.173,33.009 
			269.333,30.833 271.509,13.673 		"/>
		<polygon class="shape-1" points="43.682,238.502 33.01,224.829 30.834,207.669 13.674,205.493 0.001,194.822 -13.672,205.493 
			-30.886,207.615 -33.008,224.828 -43.68,238.502 -33.008,252.174 -30.886,269.389 -13.671,271.511 0.001,282.182 13.674,271.511 
			30.834,269.335 33.01,252.174 		"/>
		<polygon class="shape-1" points="282.183,477.002 271.511,463.328 269.335,446.169 252.175,443.992 238.502,433.322 224.829,443.992 
			207.615,446.115 205.493,463.328 194.821,477.002 205.493,490.674 207.615,507.889 224.83,510.011 238.502,520.682 
			252.175,510.011 269.335,507.835 271.511,490.674 		"/>
		<polygon class="shape-1" points="520.683,238.5 510.012,224.827 507.836,207.667 490.675,205.491 477.002,194.821 463.328,205.491 
			446.115,207.614 443.993,224.827 433.321,238.5 443.993,252.172 446.115,269.387 463.33,271.51 477.002,282.18 490.675,271.51 
			507.836,269.334 510.011,252.172 		"/>
	</g>
	<g>
		<polygon class="shape-2" points="194.819,0 173.95,26.74 207.613,30.887 205.491,13.673 		"/>
		<polygon class="shape-2" points="271.509,13.673 269.333,30.833 303.05,26.737 282.181,0 		"/>
		<polygon class="shape-2" points="238.5,43.681 265.238,64.55 269.333,30.833 252.173,33.009 		"/>
		<polygon class="shape-2" points="207.613,30.887 211.763,64.548 238.5,43.681 224.828,33.009 		"/>
		<polygon class="shape-2" points="43.682,238.502 64.551,211.765 30.834,207.669 33.01,224.829 		"/>
		<polygon class="shape-2" points="30.834,207.669 26.739,173.952 0.001,194.822 13.674,205.493 		"/>
		<polygon class="shape-2" points="33.01,252.174 30.834,269.335 64.551,265.238 43.682,238.502 		"/>
		<polygon class="shape-2" points="0.001,282.182 26.739,303.052 30.834,269.335 13.674,271.511 		"/>
		<polygon class="shape-2" points="238.502,433.322 211.765,412.455 207.615,446.115 224.829,443.992 		"/>
		<polygon class="shape-2" points="269.335,446.169 265.24,412.452 238.502,433.322 252.175,443.992 		"/>
		<polygon class="shape-2" points="207.615,446.115 173.952,450.263 194.821,477.002 205.493,463.328 		"/>
		<polygon class="shape-2" points="282.183,477.002 303.052,450.266 269.335,446.169 271.511,463.328 		"/>
		<polygon class="shape-2" points="446.115,207.614 412.451,211.761 433.321,238.5 443.993,224.827 		"/>
		<polygon class="shape-2" points="477.002,194.821 450.266,173.954 446.115,207.614 463.328,205.491 		"/>
		<polygon class="shape-2" points="446.115,269.387 450.266,303.047 477.002,282.18 463.33,271.51 		"/>
		<polygon class="shape-2" points="433.321,238.5 412.451,265.24 446.115,269.387 443.993,252.172 		"/>
	</g>
	<g>
		<polygon class="shape-3" points="207.613,30.887 173.95,26.74 156.496,49.102 161.119,77.38 189.399,82.004 211.763,64.548 		"/>
		<polygon class="shape-3" points="238.5,43.681 211.764,64.552 215.234,92.705 238.499,109.432 261.767,92.705 265.236,64.548 		"/>
		<polygon class="shape-3" points="269.387,30.887 265.239,64.55 287.601,82.003 315.88,77.38 320.504,49.1 303.048,26.737 		"/>
		<polygon class="shape-3" points="282.181,0 303.052,26.736 331.204,23.266 347.932,0 331.204,-23.267 303.048,-26.736 		"/>
		<polygon class="shape-3" points="194.819,0.001 173.948,-26.735 145.795,-23.265 129.068,0 145.794,23.267 173.951,26.737 		"/>
		<polygon class="shape-3" points="0.001,282.182 -26.735,303.053 -23.265,331.207 0,347.934 23.268,331.206 26.737,303.049 		"/>
		<polygon class="shape-3" points="30.888,269.389 26.74,303.052 49.102,320.505 77.381,315.882 82.005,287.602 64.549,265.238 		"/>
		<polygon class="shape-3" points="43.682,238.501 64.553,265.238 92.705,261.768 109.433,238.502 92.705,215.235 64.549,211.765 		"/>
		<polygon class="shape-3" points="30.887,207.614 64.551,211.762 82.004,189.401 77.381,161.122 49.101,156.498 26.737,173.954 		"/>
		<polygon class="shape-3" points="0,194.821 26.736,173.95 23.266,145.797 0.001,129.07 -23.266,145.797 -26.736,173.954 		"/>
		<polygon class="shape-3" points="282.183,477.001 303.054,503.738 331.206,500.268 347.934,477.002 331.206,453.734 303.05,450.266 		
			"/>
		<polygon class="shape-3" points="269.388,446.114 303.052,450.262 320.505,427.9 315.882,399.621 287.602,394.998 265.238,412.453 		
			"/>
		<polygon class="shape-3" points="238.501,433.321 265.237,412.449 261.767,384.297 238.502,367.57 215.235,384.297 211.765,412.453 		
			"/>
		<polygon class="shape-3" points="207.614,446.115 211.762,412.451 189.4,394.998 161.122,399.621 156.497,427.901 173.953,450.266 		
			"/>
		<polygon class="shape-3" points="194.821,477.002 173.95,450.266 145.797,453.736 129.07,477.002 145.796,500.269 173.953,503.738 		
			"/>
		<polygon class="shape-3" points="446.115,269.387 412.451,265.24 394.998,287.602 399.621,315.881 427.901,320.504 450.266,303.047 		
			"/>
		<polygon class="shape-3" points="477.002,282.18 450.266,303.051 453.736,331.205 477.001,347.932 500.269,331.205 503.738,303.047 		
			"/>
		<polygon class="shape-3" points="477.001,194.82 503.737,173.948 500.267,145.795 477.002,129.069 453.735,145.795 450.265,173.952 		
			"/>
		<polygon class="shape-3" points="446.114,207.614 450.262,173.95 427.9,156.497 399.622,161.12 394.997,189.4 412.453,211.764 		"/>
		<polygon class="shape-3" points="433.321,238.5 412.45,211.764 384.297,215.235 367.57,238.5 384.296,261.768 412.453,265.236 		"/>
	</g>
	<g>
		<polygon class="shape-4" points="139.048,279.695 109.433,238.502 92.705,261.768 64.553,265.238 82.005,287.602 77.381,315.881 
			127.451,307.693 119.25,287.896 		"/>
		<polygon class="shape-4" points="197.306,139.047 238.499,109.432 215.234,92.705 211.764,64.552 189.399,82.004 161.12,77.38 
			169.307,127.449 189.105,119.249 		"/>
		<polygon class="shape-4" points="119.25,189.104 127.45,169.309 77.381,161.122 82.004,189.401 64.551,211.762 92.705,215.235 
			109.433,238.502 139.049,197.306 		"/>
		<polygon class="shape-4" points="197.306,337.953 189.105,357.751 169.309,349.551 161.122,399.621 189.4,394.998 211.762,412.451 
			215.235,384.297 238.502,367.57 		"/>
		<polygon class="shape-4" points="279.695,337.954 238.502,367.57 261.767,384.297 265.237,412.449 287.602,394.998 315.882,399.621 
			307.694,349.55 287.895,357.751 		"/>
		<polygon class="shape-4" points="394.998,287.602 412.451,265.24 384.297,261.766 367.569,238.5 337.954,279.695 357.75,287.896 
			349.549,307.692 399.621,315.881 		"/>
		<polygon class="shape-4" points="307.693,127.449 315.88,77.38 287.601,82.003 265.239,64.55 261.767,92.705 238.5,109.432 
			279.694,139.047 287.895,119.249 		"/>
		<polygon class="shape-4" points="394.997,189.4 399.622,161.12 349.55,169.308 357.75,189.104 337.953,197.305 367.57,238.5 
			384.297,215.235 412.45,211.764 		"/>
		<polygon class="shape-4" points="377.547,41.195 347.932,0.001 331.204,23.267 303.052,26.738 320.504,49.101 315.88,77.38 
			365.95,69.193 357.749,49.395 		"/>
		<polygon class="shape-4" points="435.805,99.453 427.604,119.25 407.808,111.05 399.621,161.121 427.899,156.498 450.261,173.951 
			453.734,145.796 477.001,129.07 		"/>
		<polygon class="shape-4" points="41.194,99.454 0.001,129.07 23.266,145.796 26.736,173.949 49.101,156.498 77.381,161.121 
			69.193,111.049 49.395,119.25 		"/>
		<polygon class="shape-4" points="156.497,49.101 173.95,26.74 145.796,23.265 129.068,0 99.453,41.195 119.249,49.395 111.049,69.192 
			161.12,77.38 		"/>
		<polygon class="shape-4" points="69.193,365.949 77.381,315.881 49.102,320.504 26.74,303.051 23.268,331.205 0.001,347.932 
			41.195,377.548 49.396,357.75 		"/>
		<polygon class="shape-4" points="156.498,427.9 161.123,399.62 111.051,407.809 119.251,427.605 99.454,435.805 129.071,477 
			145.798,453.735 173.951,450.265 		"/>
		<polygon class="shape-4" points="435.807,377.548 477,347.933 453.735,331.205 450.265,303.053 427.9,320.504 399.621,315.881 
			407.809,365.949 427.605,357.75 		"/>
		<polygon class="shape-4" points="357.751,427.605 365.951,407.809 315.882,399.622 320.505,427.901 303.052,450.262 331.206,453.735 
			347.934,477.002 377.551,435.807 		"/>
	</g>
	<g>
		<polygon class="shape-5" points="139.048,279.695 119.25,287.896 127.451,307.693 155.84,303.052 		"/>
		<polygon class="shape-5" points="197.306,139.047 189.105,119.249 169.307,127.449 173.949,155.839 		"/>
		<polygon class="shape-5" points="139.049,197.306 155.84,173.951 127.45,169.309 119.25,189.104 		"/>
		<polygon class="shape-5" points="197.306,337.953 173.95,321.162 169.309,349.551 189.105,357.751 		"/>
		<polygon class="shape-5" points="279.695,337.954 287.895,357.751 307.694,349.55 303.052,321.162 		"/>
		<polygon class="shape-5" points="337.954,279.695 321.163,303.051 349.549,307.692 357.75,287.896 		"/>
		<polygon class="shape-5" points="307.693,127.449 287.895,119.249 279.694,139.047 303.051,155.839 		"/>
		<polygon class="shape-5" points="349.55,169.308 321.162,173.95 337.953,197.305 357.75,189.104 		"/>
		<polygon class="shape-5" points="377.547,41.195 357.749,49.395 365.95,69.193 394.339,64.551 		"/>
		<polygon class="shape-5" points="435.805,99.453 412.449,82.662 407.808,111.05 427.604,119.25 		"/>
		<polygon class="shape-5" points="41.194,99.454 49.395,119.25 69.193,111.049 64.551,82.662 		"/>
		<polygon class="shape-5" points="99.453,41.195 82.662,64.55 111.049,69.192 119.249,49.395 		"/>
		<polygon class="shape-5" points="69.193,365.949 49.396,357.75 41.195,377.548 64.552,394.34 		"/>
		<polygon class="shape-5" points="111.051,407.809 82.663,412.45 99.454,435.805 119.251,427.605 		"/>
		<polygon class="shape-5" points="435.807,377.548 427.605,357.75 407.809,365.949 412.45,394.34 		"/>
		<polygon class="shape-5" points="377.551,435.807 394.341,412.451 365.951,407.809 357.751,427.605 		"/>
	</g>
	<g>
		<polygon class="shape-6" points="161.12,77.38 111.049,69.192 98.787,98.791 69.193,111.049 77.381,161.122 127.45,169.309 
			139.711,139.708 169.307,127.449 		"/>
		<polygon class="shape-6" points="399.621,161.119 349.55,169.308 337.288,139.709 307.694,127.45 315.882,77.378 365.951,69.191 
			378.213,98.791 407.809,111.05 		"/>
		<polygon class="shape-6" points="161.121,399.621 111.05,407.811 98.788,378.211 69.194,365.953 77.382,315.881 127.451,307.693 
			139.712,337.293 169.308,349.553 		"/>
		<polygon class="shape-6" points="399.622,315.883 349.551,307.694 337.289,337.293 307.695,349.552 315.883,399.624 365.952,407.811 
			378.214,378.211 407.81,365.951 		"/>
	</g>
	<g>
		<polygon class="shape-7" points="211.763,173.95 197.306,139.047 173.949,155.839 169.307,127.449 139.711,139.708 127.45,169.309 
			155.84,173.951 139.049,197.306 173.95,211.762 173.95,173.95 		"/>
		<polygon class="shape-7" points="211.762,303.051 173.95,303.051 173.95,265.238 139.048,279.695 155.84,303.052 127.451,307.693 
			139.711,337.291 169.309,349.551 173.95,321.162 197.306,337.953 197.307,337.951 197.306,337.951 		"/>
		<polygon class="shape-7" points="337.954,279.695 303.05,265.237 303.05,303.051 265.238,303.051 279.695,337.954 303.052,321.162 
			307.694,349.55 337.289,337.291 349.549,307.692 321.163,303.051 		"/>
		<polygon class="shape-7" points="265.237,173.95 303.05,173.95 303.05,211.762 337.953,197.305 321.162,173.95 349.55,169.308 
			337.289,139.708 307.693,127.449 303.051,155.839 279.694,139.047 279.694,139.049 279.694,139.049 		"/>
		<polygon class="shape-7" points="450.262,64.55 412.449,64.55 412.449,26.738 377.547,41.195 394.339,64.551 365.95,69.193 
			378.211,98.791 407.808,111.05 412.449,82.662 435.805,99.453 435.806,99.451 435.805,99.451 		"/>
		<polygon class="shape-7" points="99.453,41.195 64.549,26.737 64.549,64.55 26.736,64.55 41.194,99.454 64.551,82.662 69.193,111.049 
			98.787,98.791 111.049,69.192 82.662,64.55 		"/>
		<polygon class="shape-7" points="26.738,412.45 64.551,412.45 64.551,450.263 99.454,435.805 82.663,412.45 111.051,407.809 
			98.789,378.209 69.193,365.949 64.552,394.34 41.195,377.548 41.195,377.549 41.195,377.549 		"/>
		<polygon class="shape-7" points="450.264,412.45 435.807,377.548 412.45,394.34 407.809,365.949 378.213,378.209 365.951,407.809 
			394.341,412.451 377.551,435.807 412.451,450.263 412.451,412.45 		"/>
	</g>
	<g>
		<polygon class="shape-8" points="265.237,173.95 279.694,139.049 238.499,109.432 197.306,139.047 211.763,173.95 		"/>
		<polygon class="shape-8" points="139.049,197.306 109.432,238.501 139.047,279.694 173.95,265.237 173.95,211.763 		"/>
		<polygon class="shape-8" points="197.307,337.951 238.501,367.568 279.694,337.953 265.237,303.051 211.763,303.051 		"/>
		<polygon class="shape-8" points="337.952,279.694 367.569,238.499 337.953,197.306 303.05,211.763 303.05,265.237 		"/>
		<polygon class="shape-8" points="377.548,-41.194 347.931,0 377.547,41.194 412.449,26.737 412.449,-26.738 		"/>
		<polygon class="shape-8" points="435.806,99.451 477,129.068 518.193,99.453 503.736,64.55 450.262,64.55 		"/>
		<polygon class="shape-8" points="-41.194,99.451 0,129.068 41.193,99.453 26.736,64.55 -26.738,64.55 		"/>
		<polygon class="shape-8" points="99.451,41.194 129.068,-0.001 99.451,-41.195 64.549,-26.738 64.549,26.737 		"/>
		<polygon class="shape-8" points="26.738,412.45 41.195,377.549 0,347.933 -41.193,377.548 -26.736,412.45 		"/>
		<polygon class="shape-8" points="99.453,518.195 129.07,477 99.453,435.807 64.551,450.264 64.551,503.738 		"/>
		<polygon class="shape-8" points="503.738,412.45 518.195,377.549 477,347.933 435.807,377.548 450.264,412.45 		"/>
		<polygon class="shape-8" points="377.55,435.807 347.933,477.002 377.549,518.195 412.451,503.738 412.451,450.264 		"/>
	</g>
	<g>
		<polygon class="shape-9" points="211.763,173.95 238.5,238.5 265.237,173.95 		"/>
		<polygon class="shape-9" points="173.95,211.763 173.95,265.237 238.5,238.5 		"/>
		<polygon class="shape-9" points="211.763,303.051 265.237,303.051 238.5,238.5 		"/>
		<polygon class="shape-9" points="303.05,265.237 303.05,211.763 238.5,238.5 		"/>
		<polygon class="shape-9" points="412.449,-26.738 412.449,26.737 476.999,0 		"/>
		<polygon class="shape-9" points="450.262,64.55 503.736,64.55 476.999,0 		"/>
		<polygon class="shape-9" points="-26.738,64.55 26.736,64.55 -0.001,0 		"/>
		<polygon class="shape-9" points="64.549,26.737 64.549,-26.738 -0.001,0 		"/>
		<polygon class="shape-9" points="-26.736,412.45 0.001,477 26.738,412.45 		"/>
		<polygon class="shape-9" points="64.551,503.738 64.551,450.264 0.001,477 		"/>
		<polygon class="shape-9" points="450.264,412.45 477.001,477 503.738,412.45 		"/>
		<polygon class="shape-9" points="412.451,450.264 412.451,503.738 477.001,477 		"/>
	</g>
	<g>
		<polygon class="shape-10" points="211.763,173.95 173.95,173.95 173.95,211.762 238.5,238.5 		"/>
		<polygon class="shape-10" points="211.762,303.051 238.5,238.5 173.95,265.238 173.95,303.051 		"/>
		<polygon class="shape-10" points="303.05,265.237 238.5,238.5 265.238,303.051 303.05,303.051 		"/>
		<polygon class="shape-10" points="265.237,173.95 238.5,238.5 303.05,211.762 303.05,173.95 		"/>
		<polygon class="shape-10" points="450.262,64.55 476.999,0 412.449,26.738 412.449,64.55 		"/>
		<polygon class="shape-10" points="64.549,26.737 -0.001,0 26.736,64.55 64.549,64.55 		"/>
		<polygon class="shape-10" points="26.738,412.45 0.001,477 64.551,450.263 64.551,412.45 		"/>
		<polygon class="shape-10" points="450.264,412.45 412.451,412.45 412.451,450.263 477.001,477 		"/>
	</g>
</g>
<g class="guides">
	<rect width="477" height="477"/>
	<line x1="477" y1="0" x2="0" y2="477"/>
	<line x1="0" y1="0" x2="477" y2="477"/>
	<line x1="238.5" y1="0" x2="238.5" y2="477"/>
	<line x1="0" y1="238.5" x2="477" y2="238.5"/>
	<circle cx="238.5" cy="0" r="168.645"/>
	<circle cx="0" cy="238.5" r="168.645"/>
	<circle cx="477" cy="238.5" r="168.645"/>
	<circle cx="238.5" cy="477" r="168.645"/>
	
		<rect x="69.855" y="69.855" transform="matrix(0.7071 -0.7071 0.7071 0.7071 -98.7897 238.5003)" width="337.29" height="337.29"/>
	<line x1="0" y1="238.5" x2="69.854" y2="407.145"/>
	<line x1="0" y1="238.5" x2="168.645" y2="308.355"/>
	<g>
		<line x1="238.5" y1="0" x2="69.855" y2="69.854"/>
		<line x1="238.5" y1="0" x2="168.645" y2="168.645"/>
		<line x1="0" y1="238.5" x2="69.854" y2="69.855"/>
		<line x1="0" y1="238.5" x2="168.645" y2="168.645"/>
	</g>
	<g>
		<line x1="238.5" y1="238.5" x2="168.646" y2="69.855"/>
		<line x1="238.5" y1="238.5" x2="69.855" y2="168.645"/>
		<line x1="0" y1="0" x2="168.645" y2="69.854"/>
		<line x1="0" y1="0" x2="69.855" y2="168.645"/>
	</g>
	<line x1="238.5" y1="477" x2="407.145" y2="407.146"/>
	<line x1="238.5" y1="477" x2="308.355" y2="308.355"/>
	<line x1="238.5" y1="477" x2="69.855" y2="407.146"/>
	<line x1="238.5" y1="477" x2="168.645" y2="308.355"/>
	<g>
		<line x1="238.5" y1="0" x2="407.145" y2="69.854"/>
		<line x1="238.5" y1="0" x2="308.355" y2="168.645"/>
		<line x1="477" y1="238.5" x2="407.146" y2="69.855"/>
		<line x1="477" y1="238.5" x2="308.355" y2="168.645"/>
	</g>
	<line x1="477" y1="238.5" x2="407.146" y2="407.145"/>
	<line x1="477" y1="238.5" x2="308.355" y2="308.355"/>
	<g>
		<line x1="0" y1="0" x2="337.289" y2="139.709"/>
		<line x1="0" y1="0" x2="139.711" y2="337.289"/>
		<line x1="477" y1="477" x2="337.292" y2="139.711"/>
		<line x1="477" y1="477" x2="139.711" y2="337.289"/>
	</g>
	<g>
		<line x1="0" y1="477" x2="139.709" y2="139.711"/>
		<line x1="0" y1="477" x2="337.289" y2="337.289"/>
		<line x1="477" y1="0" x2="139.711" y2="139.708"/>
		<line x1="477" y1="0" x2="337.289" y2="337.289"/>
	</g>
	<g>
		<polygon points="189.105,119.249 119.25,49.395 119.251,-49.395 189.105,-119.249 287.895,-119.249 357.75,-49.395 
			357.749,49.395 287.895,119.249 		"/>
		<g>
			<g>
				<line x1="119.25" y1="19.994" x2="357.75" y2="49.396"/>
				<line x1="357.749" y1="19.994" x2="119.249" y2="49.396"/>
			</g>
			<g>
				<line x1="168.315" y1="98.46" x2="357.75" y2="-49.395"/>
				<line x1="336.96" y1="-70.184" x2="189.104" y2="119.251"/>
			</g>
			<g>
				<line x1="258.493" y1="119.25" x2="287.896" y2="-119.25"/>
				<line x1="258.493" y1="-119.25" x2="287.896" y2="119.251"/>
			</g>
			<g>
				<line x1="336.959" y1="70.185" x2="189.105" y2="-119.25"/>
				<line x1="168.315" y1="-98.459" x2="357.751" y2="49.396"/>
			</g>
			<g>
				<line x1="357.749" y1="-19.993" x2="119.25" y2="-49.396"/>
				<line x1="119.251" y1="-19.994" x2="357.751" y2="-49.396"/>
			</g>
			<g>
				<line x1="308.685" y1="-98.459" x2="119.249" y2="49.394"/>
				<line x1="140.04" y1="70.184" x2="287.896" y2="-119.251"/>
			</g>
		</g>
		<g>
			<g>
				<line x1="357.75" y1="19.994" x2="119.25" y2="49.396"/>
				<line x1="119.251" y1="19.994" x2="357.751" y2="49.396"/>
			</g>
			<g>
				<line x1="308.685" y1="98.46" x2="119.25" y2="-49.395"/>
				<line x1="140.04" y1="-70.184" x2="287.896" y2="119.251"/>
			</g>
			<g>
				<line x1="218.507" y1="119.25" x2="189.104" y2="-119.25"/>
				<line x1="218.507" y1="-119.25" x2="189.104" y2="119.251"/>
			</g>
			<g>
				<line x1="140.041" y1="70.185" x2="287.895" y2="-119.25"/>
				<line x1="308.685" y1="-98.459" x2="119.249" y2="49.396"/>
			</g>
			<g>
				<line x1="119.251" y1="-19.993" x2="357.75" y2="-49.396"/>
				<line x1="357.749" y1="-19.994" x2="119.249" y2="-49.396"/>
			</g>
			<g>
				<line x1="168.315" y1="-98.459" x2="357.751" y2="49.394"/>
				<line x1="336.96" y1="70.184" x2="189.104" y2="-119.251"/>
			</g>
		</g>
		<g>
			<polyline points="203.572,84.322 82.66,64.551 154.178,-34.929 			"/>
			<polyline points="273.427,84.322 173.948,155.839 154.177,34.926 			"/>
			<polyline points="322.821,34.928 303.05,155.84 203.571,84.322 			"/>
			<polyline points="322.821,-34.927 394.339,64.552 273.427,84.323 			"/>
			<polyline points="273.427,-84.321 394.34,-64.55 322.821,34.928 			"/>
			<polyline points="203.572,-84.321 303.052,-155.839 322.821,-34.926 			"/>
			<polyline points="154.178,-34.927 173.95,-155.84 273.427,-84.321 			"/>
			<polyline points="154.178,34.928 82.661,-64.552 203.573,-84.321 			"/>
		</g>
		<circle cx="238.5" cy="-0.001" r="91.269"/>
		<rect x="173.95" y="-64.551" width="129.1" height="129.101"/>
	</g>
	<g>
		<polygon points="-49.395,357.75 -119.25,287.895 -119.249,189.106 -49.395,119.251 49.395,119.251 119.25,189.106 
			119.249,287.895 49.395,357.75 		"/>
		<g>
			<g>
				<line x1="-119.25" y1="258.494" x2="119.25" y2="287.896"/>
				<line x1="119.249" y1="258.494" x2="-119.251" y2="287.896"/>
			</g>
			<g>
				<line x1="-70.185" y1="336.961" x2="119.25" y2="189.106"/>
				<line x1="98.46" y1="168.316" x2="-49.396" y2="357.752"/>
			</g>
			<g>
				<line x1="19.993" y1="357.75" x2="49.396" y2="119.251"/>
				<line x1="19.993" y1="119.251" x2="49.396" y2="357.752"/>
			</g>
			<g>
				<line x1="98.459" y1="308.686" x2="-49.395" y2="119.25"/>
				<line x1="-70.185" y1="140.041" x2="119.251" y2="287.896"/>
			</g>
			<g>
				<line x1="119.249" y1="218.507" x2="-119.25" y2="189.105"/>
				<line x1="-119.249" y1="218.507" x2="119.251" y2="189.105"/>
			</g>
			<g>
				<line x1="70.185" y1="140.042" x2="-119.251" y2="287.895"/>
				<line x1="-98.46" y1="308.685" x2="49.396" y2="119.249"/>
			</g>
		</g>
		<g>
			<g>
				<line x1="119.25" y1="258.494" x2="-119.25" y2="287.896"/>
				<line x1="-119.249" y1="258.494" x2="119.251" y2="287.896"/>
			</g>
			<g>
				<line x1="70.185" y1="336.961" x2="-119.25" y2="189.106"/>
				<line x1="-98.46" y1="168.316" x2="49.396" y2="357.752"/>
			</g>
			<g>
				<line x1="-19.993" y1="357.75" x2="-49.396" y2="119.251"/>
				<line x1="-19.993" y1="119.251" x2="-49.396" y2="357.752"/>
			</g>
			<g>
				<line x1="-98.459" y1="308.686" x2="49.395" y2="119.25"/>
				<line x1="70.185" y1="140.041" x2="-119.251" y2="287.896"/>
			</g>
			<g>
				<line x1="-119.249" y1="218.507" x2="119.25" y2="189.105"/>
				<line x1="119.249" y1="218.507" x2="-119.251" y2="189.105"/>
			</g>
			<g>
				<line x1="-70.185" y1="140.042" x2="119.251" y2="287.895"/>
				<line x1="98.46" y1="308.685" x2="-49.396" y2="119.249"/>
			</g>
		</g>
		<g>
			<polyline points="-34.928,322.822 -155.84,303.051 -84.322,203.572 			"/>
			<polyline points="34.927,322.822 -64.552,394.34 -84.323,273.427 			"/>
			<polyline points="84.321,273.428 64.55,394.34 -34.929,322.822 			"/>
			<polyline points="84.321,203.574 155.839,303.053 34.927,322.823 			"/>
			<polyline points="34.927,154.179 155.84,173.951 84.321,273.429 			"/>
			<polyline points="-34.928,154.179 64.552,82.662 84.321,203.574 			"/>
			<polyline points="-84.322,203.574 -64.55,82.661 34.927,154.18 			"/>
			<polyline points="-84.322,273.428 -155.839,173.949 -34.927,154.18 			"/>
		</g>
		<circle cx="0" cy="238.5" r="91.269"/>
		<rect x="-64.55" y="173.95" width="129.1" height="129.101"/>
	</g>
	<g>
		<polygon points="427.605,357.75 357.75,287.895 357.751,189.106 427.605,119.251 526.395,119.251 596.25,189.106 
			596.249,287.895 526.395,357.75 		"/>
		<g>
			<g>
				<line x1="357.75" y1="258.494" x2="596.25" y2="287.896"/>
				<line x1="596.249" y1="258.494" x2="357.749" y2="287.896"/>
			</g>
			<g>
				<line x1="406.815" y1="336.961" x2="596.25" y2="189.106"/>
				<line x1="575.46" y1="168.316" x2="427.604" y2="357.752"/>
			</g>
			<g>
				<line x1="496.993" y1="357.75" x2="526.396" y2="119.251"/>
				<line x1="496.993" y1="119.251" x2="526.396" y2="357.752"/>
			</g>
			<g>
				<line x1="575.459" y1="308.686" x2="427.605" y2="119.25"/>
				<line x1="406.815" y1="140.041" x2="596.251" y2="287.896"/>
			</g>
			<g>
				<line x1="596.249" y1="218.507" x2="357.75" y2="189.105"/>
				<line x1="357.751" y1="218.507" x2="596.251" y2="189.105"/>
			</g>
			<g>
				<line x1="547.185" y1="140.042" x2="357.749" y2="287.895"/>
				<line x1="378.54" y1="308.685" x2="526.396" y2="119.249"/>
			</g>
		</g>
		<g>
			<g>
				<line x1="596.25" y1="258.494" x2="357.75" y2="287.896"/>
				<line x1="357.751" y1="258.494" x2="596.251" y2="287.896"/>
			</g>
			<g>
				<line x1="547.185" y1="336.961" x2="357.75" y2="189.106"/>
				<line x1="378.54" y1="168.316" x2="526.396" y2="357.752"/>
			</g>
			<g>
				<line x1="457.007" y1="357.75" x2="427.604" y2="119.251"/>
				<line x1="457.007" y1="119.251" x2="427.604" y2="357.752"/>
			</g>
			<g>
				<line x1="378.541" y1="308.686" x2="526.395" y2="119.25"/>
				<line x1="547.185" y1="140.041" x2="357.749" y2="287.896"/>
			</g>
			<g>
				<line x1="357.751" y1="218.507" x2="596.25" y2="189.105"/>
				<line x1="596.249" y1="218.507" x2="357.749" y2="189.105"/>
			</g>
			<g>
				<line x1="406.815" y1="140.042" x2="596.251" y2="287.895"/>
				<line x1="575.46" y1="308.685" x2="427.604" y2="119.249"/>
			</g>
		</g>
		<g>
			<polyline points="442.072,322.822 321.16,303.051 392.678,203.572 			"/>
			<polyline points="511.927,322.822 412.448,394.34 392.677,273.427 			"/>
			<polyline points="561.321,273.428 541.55,394.34 442.071,322.822 			"/>
			<polyline points="561.321,203.574 632.839,303.053 511.927,322.823 			"/>
			<polyline points="511.927,154.179 632.84,173.951 561.321,273.429 			"/>
			<polyline points="442.072,154.179 541.552,82.662 561.321,203.574 			"/>
			<polyline points="392.678,203.574 412.45,82.661 511.927,154.18 			"/>
			<polyline points="392.678,273.428 321.161,173.949 442.073,154.18 			"/>
		</g>
		<circle cx="477" cy="238.5" r="91.27"/>
		<rect x="412.449" y="173.95" width="129.101" height="129.101"/>
	</g>
	<g>
		<polygon points="189.105,596.25 119.25,526.395 119.251,427.605 189.105,357.752 287.895,357.752 357.75,427.605 
			357.749,526.395 287.895,596.25 		"/>
		<g>
			<g>
				<line x1="119.25" y1="496.994" x2="357.75" y2="526.396"/>
				<line x1="357.749" y1="496.994" x2="119.249" y2="526.396"/>
			</g>
			<g>
				<line x1="168.315" y1="575.461" x2="357.75" y2="427.605"/>
				<line x1="336.96" y1="406.816" x2="189.104" y2="596.252"/>
			</g>
			<g>
				<line x1="258.493" y1="596.25" x2="287.896" y2="357.751"/>
				<line x1="258.493" y1="357.751" x2="287.896" y2="596.252"/>
			</g>
			<g>
				<line x1="336.959" y1="547.186" x2="189.105" y2="357.75"/>
				<line x1="168.315" y1="378.541" x2="357.751" y2="526.396"/>
			</g>
			<g>
				<line x1="357.749" y1="457.008" x2="119.25" y2="427.605"/>
				<line x1="119.251" y1="457.007" x2="357.751" y2="427.605"/>
			</g>
			<g>
				<line x1="308.685" y1="378.541" x2="119.249" y2="526.395"/>
				<line x1="140.04" y1="547.185" x2="287.896" y2="357.749"/>
			</g>
		</g>
		<g>
			<g>
				<line x1="357.75" y1="496.994" x2="119.25" y2="526.396"/>
				<line x1="119.251" y1="496.994" x2="357.751" y2="526.396"/>
			</g>
			<g>
				<line x1="308.685" y1="575.461" x2="119.25" y2="427.605"/>
				<line x1="140.04" y1="406.816" x2="287.896" y2="596.252"/>
			</g>
			<g>
				<line x1="218.507" y1="596.25" x2="189.104" y2="357.751"/>
				<line x1="218.507" y1="357.751" x2="189.104" y2="596.252"/>
			</g>
			<g>
				<line x1="140.041" y1="547.186" x2="287.895" y2="357.75"/>
				<line x1="308.685" y1="378.541" x2="119.249" y2="526.396"/>
			</g>
			<g>
				<line x1="119.251" y1="457.008" x2="357.75" y2="427.605"/>
				<line x1="357.749" y1="457.007" x2="119.249" y2="427.605"/>
			</g>
			<g>
				<line x1="168.315" y1="378.541" x2="357.751" y2="526.395"/>
				<line x1="336.96" y1="547.185" x2="189.104" y2="357.749"/>
			</g>
		</g>
		<g>
			<polyline points="203.572,561.322 82.66,541.551 154.178,442.072 			"/>
			<polyline points="273.427,561.322 173.948,632.84 154.177,511.927 			"/>
			<polyline points="322.821,511.928 303.05,632.84 203.571,561.322 			"/>
			<polyline points="322.821,442.074 394.339,541.553 273.427,561.323 			"/>
			<polyline points="273.427,392.68 394.34,412.451 322.821,511.929 			"/>
			<polyline points="203.572,392.68 303.052,321.162 322.821,442.074 			"/>
			<polyline points="154.178,442.074 173.95,321.16 273.427,392.68 			"/>
			<polyline points="154.178,511.928 82.661,412.449 203.573,392.68 			"/>
		</g>
		<circle cx="238.5" cy="477" r="91.269"/>
		<rect x="173.949" y="412.449" width="129.101" height="129.102"/>
	</g>
	<rect x="173.95" y="173.95" width="129.1" height="129.101"/>
	<rect x="-64.55" y="-64.55" width="129.1" height="129.101"/>
	<rect x="412.449" y="-64.55" width="129.101" height="129.101"/>
	<rect x="412.449" y="412.449" width="129.101" height="129.102"/>
	<rect x="-64.551" y="412.449" width="129.101" height="129.102"/>
</g>
</svg>
