<svg version="1.1" xmlns="http://www.w3.org/2000/svg"  width="246.257" height="246.257" viewBox="0 0 246.257 246.257">
  <style>
    :root {
      --black: #443430;
      --gold: #CEA600;
      --turquois: #4D9BA3;
      --blue: #262F66;
      --white: #FFFAF2;
    }
    .shape-1{fill:var(--turquois)}
    .shape-2{fill:var(--white)}
    .shape-3{fill:var(--blue)}
    .shape-4{fill:var(--white)}
    .shape-5{fill:var(--white)}
    .shape-6{fill:var(--blue)}
    .shape-7{fill:var(--black)}
    .line{}
    .guides{ stroke: #4FFF4F; display: none; fill: none}
  </style>

  <g id="pattern" class="line">
    <path class="shape-1" d="M157.4 108.9l-14.2-5.8-5.9-14.2-14.2 5.9-14.2-5.9-5.8 14.2-14.2 5.8 5.9 14.2-5.9 14.2 14.2 5.9 5.8 14.2 14.2-5.9 14.2 5.9 5.9-14.2 14.2-5.9-5.9-14.2z"/>
    <path class="shape-2" d="M157.4 108.9l14.2-34.2-34.3 14.2 5.9 14.2zM137.3 88.9l-14.2-34.3-14.2 34.3 14.2 5.9zM157.4 137.3l34.2-14.2-34.2-14.2-5.9 14.2zM157.4 137.3l-14.2 5.9-5.9 14.2 34.3 14.2zM108.9 157.4l14.2 34.2 14.2-34.2-14.2-5.9zM88.9 137.3l-14.2 34.3 34.2-14.2-5.8-14.2zM108.9 88.9L74.7 74.7l14.2 34.2 14.2-5.8zM88.9 108.9l-34.3 14.2 34.3 14.2 5.9-14.2z"/>
    <g>
      <path class="shape-3" d="M157.3 137.3l34.3-14.2 31 12.8v28.4l-20.1 20.1-30.9-12.8zM157.4 108.9l14.2-34.2 30.9-12.8 20.1 20v28.4l-31 12.8z"/>
      <path class="shape-3" d="M137.3 88.9l-14.2-34.3 12.8-30.9h28.4l20.1 20-12.8 31zM108.9 88.9L74.7 74.7l-12.8-31 20-20 28.4-.1 12.8 31z"/>
      <path class="shape-3" d="M88.9 108.9l-34.3 14.2-30.9-12.8V81.9l20-20 31 12.8zM88.9 137.3l-14.2 34.3-31 12.8-20-20.1-.1-28.3 31-12.9zM108.9 157.3l14.2 34.3-12.8 31H81.9l-20-20.1 12.8-30.9zM137.3 157.4l34.3 14.2 12.8 30.9-20.1 20.1h-28.4l-12.8-31z"/>
    </g>
    <g>
      <path class="shape-4" d="M171.6 171.6l12.8 30.9-20.1 20.1h28.4l9.8 23.7 12.8-31 31-12.8-23.7-9.8v-28.4l-20.1 20.1zM171.6 74.7l30.9-12.8 20.1 20V53.5l23.7-9.8-31-12.8L202.5 0l-9.8 23.7h-28.4l20.1 20zM74.7 74.7l-12.8-31 20-20H53.5L43.7 0 30.9 30.9 0 43.7l23.7 9.8v28.4l20-20zM74.7 171.6l-31 12.8-20-20.1v28.4L0 202.5l30.9 12.8 12.8 31 9.8-23.7h28.4l-20-20.1z"/>
    </g>
    <g>
      <path class="shape-5" d="M269.9 81.9l-23.6 23.7-23.7-23.7v28.4l-31 12.8 31 12.8v28.4l23.7-23.7 23.6 23.7zM81.9-23.7L105.6 0 81.9 23.7h28.4l12.8 30.9 12.8-30.9h28.4L140.6 0l23.7-23.7zM-23.7 164.3L0 140.6l23.7 23.7v-28.4l30.9-12.8-30.9-12.8V81.9L0 105.6l-23.7-23.7zM135.9 269.9h28.4l-23.7-23.6 23.7-23.7h-28.4l-12.8-31-12.8 31H81.9l23.7 23.7-23.7 23.6h28.4l12.8 31z"/>
    </g>
    <g>
      <path class="shape-6" d="M269.9 164.3l-23.6-23.7-23.7 23.7v28.4l23.7 9.8 23.6-9.8zM269.9 81.9l-23.6 23.7-23.7-23.7V53.5l23.7-9.8 23.6 9.8zM164.3-23.7L140.6 0l23.7 23.7h28.4L202.5 0l-9.8-23.7zM81.9-23.7L105.6 0 81.9 23.7H53.5L43.7 0l9.8-23.7zM-23.7 81.9L0 105.6l23.7-23.7V53.5L0 43.7l-23.7 9.8zM-23.7 164.3L0 140.6l23.7 23.7v28.4L0 202.5l-23.7-9.8zM81.9 269.9l23.7-23.6-23.7-23.7H53.5l-9.8 23.7 9.8 23.6zM164.3 269.9l-23.7-23.6 23.7-23.7h28.4l9.8 23.7-9.8 23.6z"/>
    </g>
    <g>
      <path class="shape-7" d="M246.3 290l-31-12.8-12.8-30.9 12.8-31 31-12.8 30.9 12.8 12.8 31-12.8 30.9zM290 0l-12.8 30.9-30.9 12.8-31-12.8L202.5 0l12.8-30.9 31-12.9 30.9 12.9zM0-43.8l30.9 12.9L43.7 0 30.9 30.9 0 43.7l-30.9-12.8L-43.8 0l12.9-30.9zM-43.8 246.3l12.9-31L0 202.5l30.9 12.8 12.8 31-12.8 30.9L0 290l-30.9-12.8z"/>
    </g>
  </g>
  <g class="guides">
    <circle cx="246.3" cy="246.3" r="105.6"/>
    <path d="M246.3 351.9l-74.7-31-30.9-74.6 30.9-74.7 74.7-31 74.6 31 31 74.7-31 74.6z"/>
    <path d="M140.7 246.3l105.5-105.6 105.6 105.6-105.6 105.5z"/>
    <path d="M351.9 246.3l-180.3-74.7 74.7 180.3 74.6-180.3-180.2 74.7 180.2 74.6-74.6-180.3-74.7 180.3z"/>
    <circle r="105.6"/>
    <path d="M0 105.6l-74.7-30.9L-105.6 0l30.9-74.7L0-105.6l74.7 30.9L105.6 0 74.7 74.7z"/>
    <path d="M-105.6 0L-.1-105.6 105.5 0-.1 105.6z"/>
    <path d="M105.6 0L-74.7-74.7 0 105.6 74.7-74.7-105.6 0 74.7 74.7 0-105.6-74.7 74.7z"/>
    <circle cx="246.3" r="105.6"/>
    <path d="M246.3 105.6l-74.7-30.9L140.7 0l30.9-74.7 74.7-30.9 74.6 30.9 31 74.7-31 74.7z"/>
    <path d="M140.6 0l105.6-105.6L351.8 0 246.2 105.5z"/>
    <path d="M351.9 0L171.6-74.7l74.7 180.3 74.6-180.3L140.7 0l180.2 74.7-74.6-180.3-74.7 180.3z"/>
    <circle cy="246.3" r="105.6"/>
    <path d="M0 351.9l-74.7-31-30.9-74.6 30.9-74.7 74.7-31 74.7 31 30.9 74.7-30.9 74.6z"/>
    <path d="M-105.6 246.3L0 140.7l105.5 105.6L0 351.9z"/>
    <path d="M105.6 246.3l-180.3-74.7L0 351.9l74.7-180.3-180.3 74.7 180.3 74.6L0 140.6l-74.7 180.3zM255 177.7L-11.2 67.5M59.5-30.4l119.9 289.3M-9.9 178.2L256.3 67.9M187.1-31.3L67.3 258"/>
    <circle cx="123.1" cy="123.1" r="68.5"/>
    <path d="M0 0h246.3v246.3H0z"/>
    <path d="M123.1 191.6l-48.4-20-20.1-48.5 20.1-48.4 48.4-20.1 48.5 20.1 20 48.4-20 48.5z"/>
  </g>
</svg>
