<svg version="1.1" xmlns="http://www.w3.org/2000/svg" width="239.5" height="239.5" viewBox="0 0 239.5 239.5">
  <style>
    :root {
      --gold: #CEA600;
      --turquois: #4D9BA3;
      --blue: #262F66;
      --white: #FFFAF2;
    }
    .shape-1{fill:var(--gold)}
    .shape-2{fill:var(--white)}
    .shape-3{fill:var(--blue)}
    .shape-4{fill:var(--white)}
    .shape-5{fill:var(--blue)}
    .shape-6{fill:var(--turquois)}
    .guides{ stroke: #4FFF4F; display: none; fill: none}
  </style>

  <g id="pattern" class="line">
    <path class="shape-1" d="M84.7 84.7h20.5l14.5 14.5 14.6-14.5h20.5v20.5l-14.5 14.5 14.5 14.6v20.5h-20.5l-14.5-14.5-14.6 14.5H84.7v-20.5l14.5-14.6-14.5-14.5z"/>
    <path class="shape-2" d="M84.7 35.1l20.5-20.6h29.1l20.5 20.6v20.5h-20.5v29.1l-14.5 14.5-14.6-14.5V55.6H84.7zM35.1 154.8l-20.6-20.5v-29.1l20.6-20.5h20.5v20.5h29.1l14.5 14.5-14.5 14.6H55.6v20.5zM154.8 204.4l-20.5 20.5h-29.1l-20.5-20.5-.1-20.6 20.6.1v-29.1l14.5-14.5 14.6 14.5v29.1h20.5zM204.4 84.7l20.6 20.5v29.1l-20.6 20.5h-20.5v-20.5h-29.1l-14.5-14.6 14.5-14.5h29.1V84.7z"/>
    <path class="shape-3" d="M35.1 55.6V35.1h20.5l14.5 14.5 14.6-14.5v20.5h20.5v29.1H84.7v20.5H55.6V84.7H35.1l14.5-14.6zM55.6 204.4H35.1v-20.5l14.5-14.5-14.5-14.6h20.5v-20.5h29.1v20.5h20.5v29.1H84.7v20.5l-14.6-14.5zM204.4 183.9l.1 20.5h-20.6l-14.5-14.5-14.5 14.5v-20.5h-20.6v-29.1h20.6l-.1-20.5h29.1v20.5h20.5l-14.5 14.6zM183.9 35.1h20.5v20.5l-14.5 14.5 14.5 14.6h-20.5v20.5h-29.1V84.7h-20.5V55.6h20.5V35.1l14.6 14.5z"/>
    <path class="shape-4" d="M49.6 0L35.1 14.5v20.6h20.5l14.5 14.5 14.6-14.5V14.5H64.1zM49.6 70.1L35.1 84.7H14.5V64.1L0 49.6l14.5-14.5h20.6v20.5zM0 189.9l14.5 14.5h20.6v-20.5l14.5-14.5-14.5-14.6H14.5v20.6zM70.1 189.9l14.6 14.5V225H64.1l-14.5 14.5L35.1 225v-20.6h20.5zM189.9 239.5l14.5-14.5v-20.6h-20.5l-14.5-14.5-14.6 14.5V225h20.6zM189.9 169.3l14.5-14.5H225v20.6l14.5 14.5-14.5 14.5h-20.6v-20.5zM239.5 49.6L225 35.1h-20.6v20.5l-14.5 14.5 14.5 14.6H225V64.1zM169.4 49.6l-14.6-14.5V14.5h20.6L189.9 0l14.5 14.5v20.6h-20.5z"/>
    <path class="shape-5" d="M175.4-14.5H64.1L49.6 0l14.5 14.5h20.6v20.6l20.5-20.6h29.1l20.5 20.6V14.5h20.6L189.9 0zM-14.6 64.1v111.3L0 189.9l14.5-14.5v-20.6h20.6l-20.6-20.5v-29.1l20.6-20.5H14.5V64.1L0 49.6zM64.2 254h111.2l14.5-14.5-14.5-14.5h-20.6v-20.6L134.3 225h-29.1l-20.5-20.6V225H64.2l-14.6 14.5zM254.1 175.4V64.1l-14.6-14.5L225 64.1v20.6h-20.6l20.6 20.5v29.1l-20.6 20.5H225v20.6l14.5 14.5z"/>
    <path class="shape-6" d="M-7.5 42.1V-8.1h49L49.6 0 35.1 14.5v20.6H14.5L0 49.6zM42.1 247H-8.1v-49l8.1-8.1 14.5 14.5h20.6V225l14.5 14.5zM247 197.4v50.2h-49l-8.1-8.1 14.5-14.5v-20.6H225l14.5-14.5zM197.4-7.5h50.2v49l-8.1 8.1L225 35.1h-20.6V14.5L189.9 0z"/>
  </g>
  <g class="guides">
    <path d="M0 0h239.5v239.5H0zM239.5 0L0 239.5M0 0l39.6 39.6 199.9 199.9M119.8 0v239.5M0 119.8h239.5"/>
    <circle cx="239.5" r="119.8"/>
    <circle r="119.8"/>
    <circle cx="239.5" cy="239.5" r="119.8"/>
    <circle cy="239.5" r="119.8"/>
    <path d="M0 84.7h239.5M0 154.8h239.5M84.7 239.5V0M154.8 239.5V0M204.4 239.5V0M35.1 239.5V0M239.5 35.1H0M239.5 204.4H0M239.5 119.8L119.7 239.5-.1 119.8 119.7 0zM197.2-7.3L0 189.9M239.5 49.6L49.6 239.5M-7.5 42.1l197.4 197.4M41.5-8.1l198 198M0 49.6L49.6 0M189.9 0l49.6 49.6M239.5 189.9l-49.6 49.6M0 189.9l49.6 49.6M13.9-6.6l232.2 232.2M-4.2 16.3l227.4 227.4M224-5L-5 224M248.5 11.5l-237 237M14.6 35.1v169.3M35.1 14.5h169.3M225 35.1v169.3M35.1 225h169.3M35.1 55.6h169.3M35.1 140.7h169.3M35.1 183.9h169.3M183.9 204.4V35.1M55.6 35.1v169.3"/>
  </g>
</svg>
