<svg xmlns="http://www.w3.org/2000/svg" width="239" height="239" viewBox="0 0 239 239">
  <style>
    :root {
      --black: #443430;
      --gold: #CEA600;
      --turquois: #4D9BA3;
      --blue: #262F66;
      --white: #FFFAF2;
    }
    .shape-1{fill:var(--gold)}
    .shape-2{fill:var(--blue)}
    .shape-3{fill:var(--white)}
    .shape-4{fill:var(--black)}
    .shape-5{fill:var(--blue)}
    .shape-6{fill:var(--white)}
    .shape-7{fill:var(--blue)}
    .shape-8{fill:var(--white)}
    .shape-9{fill:var(--blue)}
    .shape-10{fill:var(--turquois)}
    .guides{ stroke: #4FFF4F; display: none; fill: none}
  </style>
  <g id="pattern" class="line">
    <path class="shape-1" d="M119.5 84.2l25 10.3 10.3 25-10.3 25-25 10.3-25-10.3-10.3-25 10.3-25z"/>
    <path class="shape-2" d="M119.5 84.2l-24.1-10-10.3-24.9-25.3 10.5-10.5 25.3 24.9 10.3 10 24.1 10.3-25zM119.5 84.2l24.1-10 10.3-24.9 25.4 10.5 10.4 25.3-24.9 10.3-10 24.1-10.3-25zM119.5 154.8l-24.1 10-10.3 24.9-25.4-10.5-10.4-25.3 24.9-10.3 10-24.1 10.3 25zM119.5 154.8l24.1 10 10.3 24.9 25.3-10.5 10.5-25.3-24.9-10.3-10-24.1-10.3 25z"/>
    <path class="shape-3" d="M137 42.3l7-17-24.5-10.1L95 25.3l7 17-16.9 7 10.3 24.9 24.1 10 24.1-10 10.3-24.9zM153.9 189.7l-10.3-24.9-24.1-10-24.1 10-10.3 24.9 16.9 7.1-7 16.9 24.5 10.1 24.5-10.1-7-16.9zM213.7 95l-17 7-7-16.9-24.9 10.3-10 24.1 10 24.1 24.9 10.3 7-16.9 17 7 10.1-24.5zM84.2 119.5l-10-24.1-24.9-10.3-7 16.9-17-7-10.1 24.5L25.3 144l17-7 7 16.9 24.9-10.3z"/>
    <path class="shape-4" d="M95 25.3l-16.9 7 7 17 16.9-7zM49.3 85.1l-17-7-7 16.9 17 7zM144 25.3l16.9 7-7 17-16.9-7zM189.7 85.1l17-7 7 16.9-17 7zM95 213.7l-16.9-7 7-17 16.9 7.1zM49.3 153.9l-17 7-7-16.9 17-7zM144 213.7l16.9-7-7-17-16.9 7.1zM189.7 153.9l17 7 7-16.9-17-7z"/>
    <path class="shape-5" d="M144-25.3l-24.5 10.1L95-25.3 84.5 0 95 25.3l24.5-10.1L144 25.3 154.5 0zM15.2 119.5L25.3 95 0 84.5-25.3 95l10.1 24.5-10.1 24.5L0 154.5 25.3 144l-10.1-24.5zM144 213.7l-24.5 10.1L95 213.7 84.5 239 95 264.3l24.5-10.1 24.5 10.1 10.5-25.3zM254.2 119.5L264.3 95 239 84.5 213.7 95l10.1 24.5-10.1 24.5 25.3 10.5 25.3-10.5-10.1-24.5z"/>
    <g>
      <path class="shape-6" d="M78.1 32.3l16.9-7L84.5 0 75 22.9H55.2l14 14-9.4 22.9 25.3-10.5-7-17zM49.3 85.1l10.5-25.3-22.9 9.4-14-14V75L0 84.5 25.3 95l7-16.9zM160.9 32.3l-16.9-7L154.5 0l9.5 22.9h19.8l-14 14 9.5 22.9-25.4-10.5 7-17z"/>
      <path class="shape-6" d="M189.7 85.1l-10.4-25.3 22.8 9.4 14-14V75l22.9 9.5L213.7 95l-7-16.9zM78.1 206.7l16.9 7L84.5 239 75 216.1H55.2l14-14-9.5-22.9 25.4 10.5-7 17zM49.3 153.9l10.4 25.3-22.8-9.4-14 14V164L0 154.5 25.3 144l7 16.9zM160.9 206.7l-16.9 7 10.5 25.3 9.5-22.9h19.8l-14-14 9.4-22.9-25.3 10.5 7 17z"/>
      <path class="shape-6" d="M189.7 153.9l-10.5 25.3 22.9-9.4 14 14V164l22.9-9.5-25.3-10.5-7 16.9z"/>
    </g>
    <g>
      <path class="shape-7" d="M84.5 0L75-22.9H55.2L32.3 0l22.9 22.9H22.9v32.3l14 14 22.9-9.4 9.4-22.9-14-14H75zM0 32.3l-22.9 22.9V75L0 84.5 22.9 75V55.2zM154.5 0l9.5-22.9h19.8L206.7 0l-22.9 22.9h32.3v32.3l-14 14-22.8-9.4-9.5-22.9 14-14H164zM239 32.3l22.9 22.9V75L239 84.5 216.1 75V55.2zM84.5 239L75 261.9H55.2L32.3 239l22.9-22.9H22.9v-32.3l14-14 22.8 9.4 9.5 22.9-14 14H75zM0 206.7l-22.9-22.9V164L0 154.5l22.9 9.5v19.8zM154.5 239l9.5 22.9h19.8l22.9-22.9-22.9-22.9h32.3v-32.3l-14-14-22.9 9.4-9.4 22.9 14 14H164z"/>
      <path class="shape-7" d="M239 206.7l22.9-22.9V164l-22.9-9.5-22.9 9.5v19.8z"/>
    </g>
    <path class="shape-8" d="M55.2 22.9L32.3 0l-9.4 9.5v13.4zM9.5 22.9L0 32.3l22.9 22.9V22.9zM183.8 22.9L206.7 0l9.4 9.5v13.4zM229.5 22.9l9.5 9.4-22.9 22.9V22.9zM55.2 216.1L32.3 239l-9.4-9.5v-13.4zM9.5 216.1L0 206.7l22.9-22.9v32.3zM183.8 216.1l22.9 22.9 9.4-9.5v-13.4zM229.5 216.1l9.5-9.4-22.9-22.9v32.3z"/>
    <path class="shape-9" d="M22.9-9.5v19L32.3 0zM-9.5 22.9L0 32.3l9.5-9.4zM22.9 9.5L9.5 22.9h13.4zM216.1-9.5v19L206.7 0zM248.5 22.9l-9.5 9.4-9.5-9.4zM216.1 9.5l13.4 13.4h-13.4zM22.9 248.5v-19l9.4 9.5zM-9.5 216.1l9.5-9.4 9.5 9.4zM22.9 229.5L9.5 216.1h13.4zM216.1 248.5v-19l-9.4 9.5zM248.5 216.1l-9.5-9.4-9.5 9.4zM216.1 229.5l13.4-13.4h-13.4z"/>
    <path class="shape-10" d="M9.5-22.9h-19L-22.9-9.5v19l13.4 13.4h19L22.9 9.5v-19zM229.5-22.9h19l13.4 13.4v19l-13.4 13.4h-19L216.1 9.5v-19zM9.5 261.9h-19l-13.4-13.4v-19l13.4-13.4h19l13.4 13.4v19zM229.5 261.9h19l13.4-13.4v-19l-13.4-13.4h-19l-13.4 13.4v19z"/>
  </g>
  <g class="guides">
    <path d="M0 0h239v239H0zM119.5 0v239M0 119.5h239M0 0l239 239M239 0L0 239"/>
    <circle cx="119.5" cy="119.5" r="35.3"/>
    <path d="M22.9 75V0M75 22.9H0M36.9 69.2L0 32.3M69.2 36.9L32.3 0M32.3 0L0 32.3M0 0l119.5 49.5M0 0l49.5 119.5"/>
    <circle r="59.8"/>
    <circle r="84.5"/>
    <path d="M84.5 0L59.7 59.8 0 84.5M42.3 102L0 84.5M102 42.3L59.7 59.8M119.5 15.2L78.1 32.3M32.3 78.1l-17.1 41.4M59.8 59.8L42.3 102M84.5 0L102 42.3M84.2 119.5l-10-24.1-41.9-17.3M78.1 32.3l17.3 41.9 24.1 10M75 216.1H0M22.9 164v75M69.2 202.1L32.3 239M36.9 169.8L0 206.7M0 206.7L32.3 239M0 239l49.5-119.5M0 239l119.5-49.5"/>
    <circle cy="239" r="59.8"/>
    <circle cy="239" r="84.5"/>
    <path d="M0 154.5l59.8 24.8L84.5 239M102 196.7L84.5 239M42.3 137l17.5 42.3M15.2 119.5l17.1 41.4M78.1 206.7l41.4 17.1M59.8 179.3l42.2 17.4M0 154.5L42.3 137M119.5 154.8l-24.1 10-17.3 41.9M32.3 160.9l41.9-17.3 10-24.1M216.1 164v75M164 216.1h75M202.1 169.8l36.9 36.9M169.8 202.1l36.9 36.9M206.7 239l32.3-32.3M239 239l-119.5-49.5M239 239l-49.5-119.5"/>
    <circle cx="239" cy="239" r="59.8"/>
    <circle cx="239" cy="239" r="84.5"/>
    <path d="M154.5 239l24.8-59.7 59.7-24.8M196.7 137l42.3 17.5M137 196.8l42.3-17.5M119.5 223.8l41.4-17.1M206.7 160.9l17.1-41.4M179.3 179.3l17.4-42.3M154.5 239L137 196.8M154.8 119.5l10 24.1 41.9 17.3M160.9 206.7l-17.3-41.9-24.1-10M164 22.9h75M216.1 75V0M169.8 36.9L206.7 0M202.1 69.2L239 32.3M239 32.3L206.7 0M239 0l-49.5 119.5M239 0L119.5 49.5"/>
    <circle cx="239" r="59.8"/>
    <circle cx="239" r="84.5"/>
    <path d="M239 84.5l-59.7-24.8L154.5 0M137 42.3L154.5 0M196.8 102l-17.5-42.3M223.8 119.5l-17.1-41.4M160.9 32.3l-41.4-17.1M179.3 59.8L137 42.3M239 84.5L196.8 102M119.5 84.2l24.1-10 17.3-41.9M206.7 78.1l-41.9 17.3-10 24.1"/>
  </g>
</svg>
