<svg xmlns="http://www.w3.org/2000/svg" width="317.5" height="317.5" viewBox="0 0 317.5 317.5">
  <style>
    :root { --black: #443430; --gold: #CEA600; --turquois: #4D9BA3; --blue: #262F66; --white: #FFFAF2; } .shape-1{fill:var(--white)} .shape-2{fill:var(--blue)} .shape-3{fill:var(--white)} .shape-4{fill:var(--white)} .shape-5{fill:var(--blue)} .shape-6{fill:var(--blue)} .shape-7{fill:var(--gold)} .shape-8{fill:var(--blue)} .shape-9{fill:var(--white)} .shape-10{fill:var(--turquois)} .guides{ stroke: #4FFF4F; display: none; fill: none}
  </style>
  <g id="pattern" class="line">
    <path class="shape-1" d="M158.8 116.1l-30.2 12.5-12.5 30.1 12.5 30.2 30.1 12.5 30.2-12.5 12.5-30.1-12.5-30.2z"/>
    <path class="shape-2" d="M158.7 201.4l-30.1-12.5-12.5-30.2-5 12.1H98l14.3 34.4 34.4 14.3v-13.1zm.1-85.3l30.1 12.5 12.5 30.2 5-12.1h13.1l-14.3-34.4L170.8 98v13.1zm42.6 42.7l-12.5 30.1-30.2 12.5 12.1 5v13.1l34.4-14.3 14.3-34.4h-13.1zm-85.3-.1l12.5-30.1 30.2-12.5-12.1-5V98l-34.4 14.3L98 146.7h13.1z"/>
    <path class="shape-3" d="M158.8 116.1l12-5V98l-12-5-12.1 5v13.1zm-42.7 42.6l-5-12H98l-5 12.1 5 12h13.1zm42.6 42.7l-12 5v13.1l12.1 5 12-5v-13.1zm60.8-54.7h-13.1l-5 12.1 5 12h13.1l5-12z"/>
    <path class="shape-4" d="M106.9 71.4l21.3 7.9 18.5-18.5V98l-34.4 14.3 10-24.3zm-35.5 35.5L88 122.3l24.3-10L98 146.7H60.8l18.5-18.6zm0 103.7l7.9-21.3-18.5-18.5H98l14.3 34.4-24.3-10zm35.5 35.5l15.4-16.6-10-24.3 34.4 14.3v37.2l-18.6-18.5zm103.7 0l-21.3-7.9-18.5 18.5v-37.2l34.4-14.3-10 24.3zm35.5-35.5l-16.6-15.4-24.3 10 14.3-34.4h37.2l-18.5 18.6zm0-103.7l-7.9 21.3 18.5 18.5h-37.2l-14.3-34.4 24.3 10zm-35.5-35.5L195.2 88l10 24.3L170.8 98V60.8l18.6 18.5z"/>
    <path class="shape-5" d="M170.8 98V60.8l-12-12.1-12.1 12.1V98l12.1-5zM93 158.8l5-12.1H60.8l-12.1 12.1 12.1 12H98zm163.7-12.1h-37.2l5 12.1-5 12h37.2l12.1-12zm-97.9 77.8l-12.1-5v37.2l12 12.1 12.1-12.1v-37.2z"/>
    <path class="shape-6" d="M146.7 34.5l-20.6-9.4-60 2.3 40.8 44 21.3 7.9 18.5-18.5zm2-58.7l-22.6-.9L71.5 0l54.6 25.1 22.6-.9L158.8 0zM50.6 50.6l20.8 56.3L88 122.3l24.3-10 10-24.3-15.4-16.6zM27.4 66.1l-2.3 60 9.4 20.6h26.3l18.5-18.6-7.9-21.2zM0 71.5l-25.1 54.6.9 22.6L0 158.8l24.2-10.1.9-22.6zm34.5 99.3l-9.4 20.6 2.3 60 44-40.8 7.9-21.3-18.5-18.5zm-58.7-2l-.9 22.6L0 246l25.1-54.6-.9-22.6-24.2-10z"/>
    <path class="shape-6" d="M50.6 266.9l56.3-20.8 15.4-16.6-10-24.3-24.3-10-16.6 15.4zm15.5 23.2l60 2.3 20.6-9.4v-26.3l-18.6-18.5-21.2 7.9zm5.4 27.4l54.6 25.1 22.6-.9 10-24.2-10-24.2-22.6-.9zm99.3-34.5l20.6 9.4 60-2.3-40.8-44-21.3-7.9-18.5 18.5z"/>
    <path class="shape-6" d="M168.8 341.7l22.6.9 54.6-25.1-54.6-25.1-22.6.9-10.1 24.2zm98.1-74.8l-20.8-56.3-16.6-15.4-24.3 10-10 24.3 15.4 16.6zm23.2-15.5l2.3-60-9.4-20.6h-26.3l-18.5 18.6 7.9 21.2zm27.4-5.4l25.1-54.6-.9-22.6-24.2-10-24.2 10-.9 22.6zM283 146.7l9.4-20.6-2.3-60-44 40.8-7.9 21.3 18.5 18.5z"/>
    <path class="shape-6" d="M341.7 148.7l.9-22.6-25.1-54.6-25.1 54.6.9 22.6 24.2 10.1zm-74.8-98.1l-56.3 20.8L195.2 88l10 24.3 24.3 10 16.6-15.4zm-15.5-23.2l-60-2.3-20.6 9.4v26.3l18.6 18.5 21.2-7.9zM246 0l-54.6-25.1-22.6.9-10 24.2 10 24.2 22.6.9z"/>
    <path class="shape-7" d="M60.8 146.7H34.5l-9.4-20.6-.9 22.6L0 158.8l24.2 10 .9 22.6 9.4-20.6h26.3l-12.1-12zm256.7 12.1l-24.2-10.1-.9-22.6-9.4 20.6h-26.3l12.1 12.1-12.1 12H283l9.4 20.6.9-22.6zM168.8 24.2L158.8 0l-10.1 24.2-22.6.9 20.6 9.4v26.3l12.1-12.1 12 12.1V34.5l20.6-9.4zm2 258.8v-26.3l-12.1 12.1-12-12.1V283l-20.6 9.4 22.6.9 10 24.2 10.1-24.2 22.6-.9z"/>
    <g>
      <path class="shape-8" d="M71.5 0L49.9 9.9l16.2 17.5 60-2.3zM42.3 28.3l8.3 22.3 56.3 20.8-40.8-44zM0 71.5l25.1 54.6 2.3-60L9.9 49.9z"/>
      <path class="shape-8" d="M27.4 66.1l44 40.8-20.8-56.3-22.3-8.3zM0 246l9.9 21.6 17.5-16.2-2.3-60zm28.3 29.2l22.3-8.3 20.8-56.3-44 40.8zm43.2 42.3l54.6-25.1-60-2.3-16.2 17.5z"/>
      <path class="shape-8" d="M66.1 290.1l40.8-44-56.3 20.8-8.3 22.3zM246 317.5l21.6-9.9-16.2-17.5-60 2.3zm29.2-28.3l-8.3-22.3-56.3-20.8 40.8 44zm42.3-43.2l-25.1-54.6-2.3 60 17.5 16.2z"/>
      <path class="shape-8" d="M290.1 251.4l-44-40.8 20.8 56.3 22.3 8.3zm27.4-179.9l-9.9-21.6-17.5 16.2 2.3 60zm-28.3-29.2l-22.3 8.3-20.8 56.3 44-40.8zM246 0l-54.6 25.1 60 2.3 16.2-17.5z"/>
      <path class="shape-8" d="M251.4 27.4l-40.8 44 56.3-20.8 8.3-22.3z"/>
    </g>
    <g>
      <path class="shape-9" d="M66.1 27.4l60-2.3L71.5 0 49.9 9.9zM27.4 66.1l44 40.8-20.8-56.3-22.3-8.3z"/>
      <path class="shape-9" d="M0 71.5l25.1 54.6 2.3-60L9.9 49.9zm42.3-43.2l8.3 22.3 56.3 20.8-40.8-44zM27.4 251.4l-2.3-60L0 246l9.9 21.6zm38.7 38.7l40.8-44-56.3 20.8-8.3 22.3z"/>
      <path class="shape-9" d="M71.5 317.5l54.6-25.1-60-2.3-16.2 17.5zm-43.2-42.3l22.3-8.3 20.8-56.3-44 40.8zm223.1 14.9l-60 2.3 54.6 25.1 21.6-9.9zm38.7-38.7l-44-40.8 20.8 56.3 22.3 8.3zM317.5 246l-25.1-54.6-2.3 60 17.5 16.2zm-42.3 43.2l-8.3-22.3-56.3-20.8 40.8 44zm14.9-223.1l2.3 60 25.1-54.6-9.9-21.6zm-38.7-38.7l-40.8 44 56.3-20.8 8.3-22.3z"/>
      <path class="shape-9" d="M246 0l-54.6 25.1 60 2.3 16.2-17.5zm43.2 42.3l-22.3 8.3-20.8 56.3 44-40.8z"/>
    </g>
    <g>
      <path class="shape-10" d="M66.1 27.4L49.9 9.9 71.5 0l-20-9.2H-7v65.5l7 15.2 9.9-21.6 17.5 16.2.9-23.8 22.3 8.3-8.3-22.3zm-38.7 224L9.9 267.6 0 246l-9.2 20v58.5h65.5l15.2-7-21.6-9.9 16.2-17.5-23.8-.9 8.3-22.3-22.3 8.3zm224 38.7l16.2 17.5-21.6 9.9 20 9.2h58.5v-65.5l-7-15.2-9.9 21.6-17.5-16.2-.9 23.8-22.3-8.3 8.3 22.3zm38.7-224l17.5-16.2 9.9 21.6 9.2-20V-7h-65.5L246 0l21.6 9.9-16.2 17.5 23.8.9-8.3 22.3 22.3-8.3z"/>
    </g>
  </g>
  <g class="guides">
    <path d="M158.8 0v317.5m158.7-158.7H0M0 0h317.5v317.5H0zm0 0l317.5 317.5"/>
    <path d="M0 317.5l158.8-158.7L317.5 0M0 0l158.8 65.8M0 0l158.7 31.6M0 0l65.8 158.8M0 0l106.1 158.8M0 0l158.8 106.1M0 0l31.6 158.8M146.7 0v158.8M0 146.7h158.8M0 317.5l65.8-158.7M0 317.5l31.6-158.7M0 317.5l158.8-65.8M0 317.5l158.8-106.1M0 317.5l106.1-158.7M0 317.5l158.8-31.6M0 170.8h158.8m-12.1 146.7V158.8M317.5 317.5l-158.7-65.8m158.7 65.8l-158.7-31.6m158.7 31.6l-65.8-158.7m65.8 158.7L211.4 158.8m106.1 158.7L158.8 211.4m158.7 106.1l-31.6-158.7M170.8 317.5V158.8m146.7 12H158.8"/>
    <path d="M158.8 116.1l30.1 12.5 12.5 30.2-12.5 30.1-30.2 12.5-30.1-12.5-12.5-30.2 12.5-30.1zM317.5 0l-65.8 158.8M317.5 0l-31.6 158.7M317.5 0L158.8 65.8M317.5 0L158.8 106.1M317.5 0L211.4 158.8M317.5 0L158.8 31.6m158.7 115.1H158.8M170.8 0v158.8"/>
    <circle r="158.8"/>
    <circle cx="317.5" r="158.8"/>
    <circle cy="317.5" r="158.8"/>
    <circle cx="317.5" cy="317.5" r="158.8"/>
    <circle cx="158.8" cy="158.8" r="65.8"/>
    <circle r="128.6"/>
    <circle r="71.5"/>
    <circle cy="317.5" r="128.6"/>
    <circle cy="317.5" r="71.5"/>
    <circle cx="317.5" cy="317.5" r="128.6"/>
    <circle cx="317.5" cy="317.5" r="71.5"/>
    <circle cx="317.5" r="128.6"/>
    <circle cx="317.5" r="71.5"/>
  </g>
</svg>
