<svg xmlns="http://www.w3.org/2000/svg" width="509" height="509" viewBox="0 0 509 509">
  <style>
    :root { --turquois: #4D9BA3; --blue: #262F66; --white: #FFFAF2; } .shape-1{fill:var(--turquois)} .shape-2{fill:var(--white)} .shape-3{fill:var(--blue)} .shape-4{fill:var(--white)} .shape-5{fill:var(--white)} .shape-6{fill:var(--blue)} .shape-7{fill:var(--white)} .shape-8{fill:var(--blue)} .shape-9{fill:var(--blue)} .guides{ stroke: #4FFF4F; display: none; fill: none}
  </style>
  <g id="pattern" class="line">
    <path class="shape-1" d="M291.8 239.1v-21.9H270l-15.5-15.4-15.4 15.4h-21.9v21.9l-15.4 15.4 15.4 15.5v21.8h21.9l15.4 15.4 15.5-15.4h21.8V270l15.4-15.5zM291.8-15.4v-21.9H270l-15.5-15.4-15.4 15.4h-21.9v21.9L201.8 0l15.4 15.5v21.8h21.9l15.4 15.4L270 37.3h21.8V15.5L307.2 0zM37.3-15.4v-21.9H15.5L0-52.7l-15.4 15.4h-21.9v21.9L-52.7 0l15.4 15.5v21.8h21.9L0 52.7l15.5-15.4h21.8V15.5L52.7 0zM-15.4 217.2h-21.9v21.9l-15.4 15.4 15.4 15.5v21.8h21.9L0 307.2l15.5-15.4h21.8V270l15.4-15.5-15.4-15.4v-21.9H15.5L0 201.8zM-15.4 471.7h-21.9v21.9L-52.7 509l15.4 15.5v21.8h21.9L0 561.7l15.5-15.4h21.8v-21.8L52.7 509l-15.4-15.4v-21.9H15.5L0 456.3zM217.2 524.5v21.8h21.9l15.4 15.4 15.5-15.4h21.8v-21.8l15.4-15.5-15.4-15.4v-21.9H270l-15.5-15.4-15.4 15.4h-21.9v21.9L201.8 509zM471.7 524.5v21.8h21.9l15.4 15.4 15.5-15.4h21.8v-21.8l15.4-15.5-15.4-15.4v-21.9h-21.8L509 456.3l-15.4 15.4h-21.9v21.9L456.3 509zM524.5 291.8h21.8V270l15.4-15.5-15.4-15.4v-21.9h-21.8L509 201.8l-15.4 15.4h-21.9v21.9l-15.4 15.4 15.4 15.5v21.8h21.9l15.4 15.4zM524.5 37.3h21.8V15.5L561.7 0l-15.4-15.4v-21.9h-21.8L509-52.7l-15.4 15.4h-21.9v21.9L456.3 0l15.4 15.5v21.8h21.9L509 52.7z"/>
    <path class="shape-2" d="M291.8 217.2v-52.7l-37.3 37.3 15.5 15.4zM254.5 201.8l-37.3-37.3v52.7h21.9zM307.2 254.5l37.3-37.3h-52.7v21.9zM201.8 254.5l-37.3 37.3h52.7V270zM254.5 307.2l37.3 37.3v-52.7H270zM307.2 254.5L291.8 270v21.8h52.7zM217.2 291.8v52.7l37.3-37.3-15.4-15.4zM217.2 217.2h-52.7l37.3 37.3 15.4-15.4zM217.2 37.3h21.9l15.4 15.4L217.2 90zM164.5 37.3h52.7V15.4L201.8 0zM37.3 37.3H15.4L0 52.7 37.3 90zM90 37.3H37.3V15.4L52.7 0zM37.3 217.2v21.9l15.4 15.4L90 217.2zM37.3 164.5v52.7H15.4L0 201.8zM37.3 291.8v-21.9l15.4-15.4L90 291.8zM37.3 344.5v-52.7H15.4L0 307.2zM37.3 471.7v21.9L52.7 509 90 471.7zM37.3 419v52.7H15.4L0 456.3zM217.2 471.7h21.9l15.4-15.4-37.3-37.3zM164.5 471.7h52.7v21.9L201.8 509zM291.8 471.7h-21.9l-15.4-15.4 37.3-37.3zM344.5 471.7h-52.7v21.9l15.4 15.4zM471.7 471.7h21.9l15.4-15.4-37.3-37.3zM419 471.7h52.7v21.9L456.3 509zM471.7 291.8v-21.9l-15.4-15.4-37.3 37.3zM471.7 344.5v-52.7h21.9l15.4 15.4zM471.7 217.2v21.9l-15.4 15.4-37.3-37.3zM471.7 164.5v52.7h21.9l15.4-15.4zM471.7 37.3V15.4L456.3 0 419 37.3zM471.7 90V37.3h21.9L509 52.7zM291.8 37.3h-21.9l-15.4 15.4L291.8 90zM344.5 37.3h-52.7V15.4L307.2 0z"/>
    <path class="shape-3" d="M111.8 164.5l52.7 52.7h52.7v-52.7l-52.7-52.7h-52.7zM90-37.3L52.7 0 90 37.3h74.5L201.8 0l-37.3-37.3zM291.8 90l-37.3-37.3L217.2 90v74.5l37.3 37.3 37.3-37.3zM37.3 90L0 52.7-37.3 90v74.5L0 201.8l37.3-37.3zM164.5 397.2l52.7-52.7v-52.7h-52.7l-52.7 52.7v52.7zM-37.3 419L0 456.3 37.3 419v-74.5L0 307.2l-37.3 37.3zM90 217.2l-37.3 37.3L90 291.8h74.5l37.3-37.3-37.3-37.3zM90 471.7L52.7 509 90 546.3h74.5l37.3-37.3-37.3-37.3zM397.2 344.5l-52.7-52.7h-52.7v52.7l52.7 52.7h52.7zM419 546.3l37.3-37.3-37.3-37.3h-74.5L307.2 509l37.3 37.3zM217.2 419l37.3 37.3 37.3-37.3v-74.5l-37.3-37.3-37.3 37.3zM471.7 419l37.3 37.3 37.3-37.3v-74.5L509 307.2l-37.3 37.3zM344.5 111.8l-52.7 52.7v52.7h52.7l52.7-52.7v-52.7zM546.3 90L509 52.7 471.7 90v74.5l37.3 37.3 37.3-37.3zM419 291.8l37.3-37.3-37.3-37.3h-74.5l-37.3 37.3 37.3 37.3zM419 37.3L456.3 0 419-37.3h-74.5L307.2 0l37.3 37.3z"/>
    <path class="shape-4" d="M164.5 111.8h30.9L217.2 90v74.5zM111.8 164.5v30.9L90 217.2h74.5zM111.8 344.5v-30.9L90 291.8h74.5zM164.5 397.2h30.9l21.8 21.8v-74.5zM344.5 397.2h-30.9L291.8 419v-74.5zM397.2 344.5v-30.9l21.8-21.8h-74.5zM397.2 164.5v30.9l21.8 21.8h-74.5zM344.5 111.8h-30.9L291.8 90v74.5z"/>
    <path class="shape-5" d="M127.3 74.5L111.8 90v21.8h52.7zM74.5 127.3L90 111.8h21.8v52.7zM74.5 381.8L90 397.2h21.8v-52.7zM127.3 434.5L111.8 419v-21.8h52.7zM381.8 434.5l15.4-15.5v-21.8h-52.7zM434.5 381.8L419 397.2h-21.8v-52.7zM434.5 127.3L419 111.8h-21.8v52.7zM381.8 74.5L397.2 90v21.8h-52.7z"/>
    <path class="shape-6" d="M217.2 90l-21.8 21.8h-30.9l-37.2-37.3 37.2-37.2h52.7zM90 217.2l21.8-21.8v-30.9l-37.3-37.2-37.2 37.2v52.7zM90 291.8l21.8 21.8v30.9l-37.3 37.3-37.2-37.3v-52.7zM217.2 419l-21.8-21.8h-30.9l-37.2 37.3 37.2 37.2h52.7zM291.8 419l21.8-21.8h30.9l37.3 37.3-37.3 37.2h-52.7zM419 291.8l-21.8 21.8v30.9l37.3 37.3 37.2-37.3v-52.7zM419 217.2l-21.8-21.8v-30.9l37.3-37.2 37.2 37.2v52.7zM291.8 90l21.8 21.8h30.9l37.3-37.3-37.3-37.2h-52.7z"/>
    <path class="shape-7" d="M90 37.3h74.5l-37.2 37.2zM37.3 90v74.5l37.2-37.2zM37.3 419v-74.5l37.2 37.3zM90 471.7h74.5l-37.2-37.2zM419 471.7h-74.5l37.3-37.2zM471.7 419v-74.5l-37.2 37.3zM471.7 90v74.5l-37.2-37.2zM419 37.3h-74.5l37.3 37.2z"/>
    <path class="shape-8" d="M90 37.3H37.3V90l37.2 37.3L90 111.8h21.8V90l15.5-15.5zM37.3 419v52.7H90l37.3-37.2-15.5-15.5v-21.8H90l-15.5-15.4zM419 471.7h52.7V419l-37.2-37.2-15.5 15.4h-21.8V419l-15.4 15.5zM471.7 90V37.3H419l-37.2 37.2L397.2 90v21.8H419l15.5 15.5z"/>
  </g>
  <g class="guides">
    <path d="M0 0h509v509H0zM0 0l509 509M0 0l509 509M509 0L0 509M509 254.5H0M254.5 0v509"/>
    <path d="M105.4 254.5L0 0l254.5 105.4M105.4 509L0 254.5l254.5 105.4M359.9 509L254.5 254.5 509 359.9M359.9 254.5L254.5 0 509 105.4"/>
    <path d="M105.4 254.5L0 509l254.5-105.4M105.4 0L0 254.5l254.5-105.4M359.9 0L254.5 254.5 509 149.1M359.9 254.5L254.5 509 509 403.6"/>
    <path d="M403.6 254.5L509 0 254.5 105.4M403.6 509L509 254.5 254.5 359.9M149.1 509l105.4-254.5L0 359.9M149.1 254.5L254.5 0 0 105.4"/>
    <path d="M403.6 254.5L509 509 254.5 403.6M403.6 0L509 254.5 254.5 149.1M149.1 0l105.4 254.5L0 149.1M149.1 254.5L254.5 509 0 403.6M52.7 0L509 456.3M0 52.7L456.3 509M456.3 0L0 456.3M509 52.7L52.7 509M217.2.1V509M291.8.1V509M0 217.2h509M509 291.8H0"/>
  </g>
</svg>
