<svg xmlns="http://www.w3.org/2000/svg" width="455" height="455" viewBox="0 0 455 455">
  <style>
    :root { --gold: #CEA600; --turquois: #4D9BA3; --blue: #262F66; --white: #FFFAF2; } .shape-1{fill:var(--gold)} .shape-2{fill:var(--white)} .shape-3{fill:var(--blue)} .shape-4{fill:var(--white)} .shape-5{fill:var(--blue)} .shape-6{fill:var(--white)} .shape-7{fill:var(--white)} .shape-8{fill:var(--blue)} .shape-9{fill:var(--blue)} .shape-10{fill:var(--white)} .shape-11{fill:var(--white)} .shape-12{fill:var(--turquois)} .guides{ stroke: #4FFF4F; display: none; fill: none}
  </style>
  <g id="pattern" class="line">
    <path class="shape-1" d="M252.6 217.1v-14.7h-14.7L227.5 192l-10.4 10.4h-14.7v14.7L192 227.5l10.4 10.4v14.7h14.7l10.4 10.4 10.4-10.4h14.7v-14.7l10.4-10.4z"/>
    <path class="shape-2" d="M202.4 252.6V288l25.1-25-10.4-10.4zM252.6 252.6H288l-25-25.1-10.4 10.4zM192 227.5l-25 25.1h35.4v-14.7zM227.5 263l25.1 25v-35.4h-14.7zM202.4 202.4H167l25 25.1 10.4-10.4zM252.6 202.4V167l-25.1 25 10.4 10.4zM227.5 192l-25.1-25v35.4h14.7zM252.6 217.1l10.4 10.4 25-25.1h-35.4z"/>
    <path class="shape-3" d="M202.4 202.4V167l-16.5-16.5-25 10.4-10.4 25 16.5 16.5zM227.5 263l-25.1 25v23.3l25.1 10.4 25.1-10.4V288zM311.3 202.4H288l-25 25.1 25 25.1h23.3l10.4-25.1zM252.6 252.6V288l16.5 16.5 25-10.4 10.4-25-16.5-16.5zM202.4 252.6H167l-16.5 16.5 10.4 25 25 10.4 16.5-16.5zM252.6 202.4H288l16.5-16.5-10.4-25-25-10.4-16.5 16.5zM192 227.5l-25-25.1h-23.3l-10.4 25.1 10.4 25.1H167zM227.5 192l25.1-25v-23.3l-25.1-10.4-25.1 10.4V167z"/>
    <g>
      <path class="shape-4" d="M227.5 133.3l-47.1-19.6-19.5 47.2 25-10.4 16.5 16.5v-23.3z"/>
      <path class="shape-4" d="M160.9 160.9l-47.2 19.5 19.6 47.1 10.4-25.1H167l-16.5-16.5zM321.7 227.5l19.6-47.1-47.2-19.5 10.4 25-16.5 16.5h23.3zM294.1 160.9l-19.5-47.2-47.1 19.6 25.1 10.4V167l16.5-16.5zM227.5 321.7l47.1 19.6 19.5-47.2-25 10.4-16.5-16.5v23.3zM294.1 294.1l47.2-19.5-19.6-47.1-10.4 25.1H288l16.5 16.5zM133.3 227.5l-19.6 47.1 47.2 19.5-10.4-25 16.5-16.5h-23.3z"/>
      <path class="shape-4" d="M160.9 294.1l19.5 47.2 47.1-19.6-25.1-10.4V288l-16.5 16.5z"/>
    </g>
    <g>
      <path class="shape-5" d="M85.5 112.2l18.8-7.6 7.9-19.1 18.8 7.8 21.6-8.9 8.9 21.5 18.9 7.8-19.5 47.2-47.2 19.5-7.8-18.9-21.5-8.9 8.9-21.6zM208.6 45.5l18.7 7.9 19.1-7.9 7.8 18.9 21.5 8.9-8.9 21.6 7.8 18.8-47.1 19.6-47.1-19.6 7.8-18.8-8.9-21.6 21.5-8.9zM342.8 85.5l7.6 18.7 19.1 8-7.8 18.8 8.9 21.6-21.5 8.9-7.8 18.9-47.2-19.5-19.5-47.2 18.9-7.8 8.9-21.5 21.6 8.9zM409.5 208.6l-7.9 18.7 7.9 19.1-18.9 7.8-8.9 21.5-21.6-8.9-18.8 7.8-19.6-47.1 19.6-47.1 18.8 7.8 21.6-8.9 8.9 21.5zM369.5 342.8l-18.7 7.6-8 19.1-18.8-7.8-21.6 8.9-8.9-21.5-18.9-7.8 19.5-47.2 47.2-19.5 7.8 18.9 21.5 8.9-8.9 21.6zM246.4 409.5l-18.7-7.9-19.1 7.9-7.8-18.9-21.5-8.9 8.9-21.6-7.8-18.8 47.1-19.6 47.1 19.6-7.8 18.8 8.9 21.6-21.5 8.9zM112.2 369.5l-7.6-18.8-19.1-7.9 7.8-18.8-8.9-21.6 21.5-8.9 7.8-18.9 47.2 19.5 19.5 47.2-18.9 7.8-8.9 21.5-21.6-8.9z"/>
      <path class="shape-5" d="M45.5 246.4l7.9-18.7-7.9-19.1 18.9-7.8 8.9-21.5 21.6 8.9 18.8-7.8 19.6 47.1-19.6 47.1-18.8-7.8-21.6 8.9-8.9-21.5z"/>
    </g>
      <path class="shape-6" d="M208.6 45.5l-18.8-7.8-21.6 8.9-8.9-21.5-18.9-7.8-7.8 18.8 8.9 21.6-21.5 8.9-7.8 18.9 18.8 7.8 21.6-8.9 8.9 21.5 18.9 7.8 7.8-18.8-8.9-21.6 21.5-8.9zM85.5 112.2l-18.9 7.7-8.9 21.6-21.6-8.9-18.8 7.8 7.8 18.9 21.5 8.9-8.9 21.6 7.8 18.8 18.9-7.8 8.9-21.5 21.6 8.9 18.8-7.8-7.8-18.9-21.5-8.9 8.9-21.6zM409.5 208.6l7.8-18.8-8.9-21.6 21.5-8.9 7.8-18.9-18.8-7.8-21.6 8.9-8.9-21.5-18.9-7.8-7.8 18.8 8.9 21.6-21.5 8.9-7.8 18.9 18.8 7.8 21.6-8.9 8.9 21.5zM342.8 85.5l-7.7-18.9-21.6-8.9 8.9-21.6-7.8-18.8-18.9 7.8-8.9 21.5-21.6-8.9-18.8 7.8 7.8 18.9 21.5 8.9-8.9 21.6 7.8 18.8 18.9-7.8 8.9-21.5 21.6 8.9zM246.4 409.5l18.8 7.8 21.6-8.9 8.9 21.5 18.9 7.8 7.8-18.8-8.9-21.6 21.5-8.9 7.8-18.9-18.8-7.8-21.6 8.9-8.9-21.5-18.9-7.8-7.8 18.8 8.9 21.6-21.5 8.9zM369.5 342.8l18.9-7.7 8.9-21.6 21.6 8.9 18.8-7.8-7.8-18.9-21.5-8.9 8.9-21.6-7.8-18.8-18.9 7.8-8.9 21.5-21.6-8.9-18.8 7.8 7.8 18.9 21.5 8.9-8.9 21.6zM45.5 246.4l-7.8 18.8 8.9 21.6-21.5 8.9-7.8 18.9 18.8 7.8 21.6-8.9 8.9 21.5 18.9 7.8 7.8-18.8-8.9-21.6 21.5-8.9 7.8-18.9-18.8-7.8-21.6 8.9-8.9-21.5zM112.2 369.5l7.7 18.9 21.6 8.9-8.9 21.6 7.8 18.8 18.9-7.8 8.9-21.5 21.6 8.9 18.8-7.8-7.8-18.9-21.5-8.9 8.9-21.6-7.8-18.8-18.9 7.8-8.9 21.5-21.6-8.9z"/>
    <g>
      <path class="shape-7" d="M66.6 66.6l18.9 45.6 18.8-7.6 7.9-19.1zM227.5 0l-18.9 45.5 18.7 7.9 19.1-7.9zM388.4 66.6l-45.6 18.9 7.6 18.7 19.1 8zM455 227.5l-45.5-18.9-7.9 18.7 7.9 19.1zM388.4 388.4l-18.9-45.6-18.7 7.6-8 19.1zM227.5 455l18.9-45.5-18.7-7.9-19.1 7.9zM66.6 388.4l45.6-18.9-7.6-18.8-19.1-7.9zM0 227.5l45.5 18.9 7.9-18.7-7.9-19.1z"/>
    </g>
    <g>
      <path class="shape-8" d="M19.5 47.1L0 94.2l17.3 46.2 18.8-7.8 21.6 8.9 8.9-21.6 18.9-7.7-18.9-45.6zM47.1 19.5L94.2 0l46.2 17.3-7.8 18.8 8.9 21.6-21.6 8.9-7.7 18.9-45.6-18.9zM407.9 19.5L360.8 0l-46.2 17.3 7.8 18.8-8.9 21.6 21.6 8.9 7.7 18.9 45.6-18.9z"/>
      <path class="shape-8" d="M435.5 47.1L455 94.2l-17.3 46.2-18.8-7.8-21.6 8.9-8.9-21.6-18.9-7.7 18.9-45.6zM435.5 407.9l19.5-47.1-17.3-46.2-18.8 7.8-21.6-8.9-8.9 21.6-18.9 7.7 18.9 45.6z"/>
      <path class="shape-8" d="M407.9 435.5L360.8 455l-46.2-17.3 7.8-18.8-8.9-21.6 21.6-8.9 7.7-18.9 45.6 18.9zM47.1 435.5L94.2 455l46.2-17.3-7.8-18.8 8.9-21.6-21.6-8.9-7.7-18.9-45.6 18.9z"/>
      <path class="shape-8" d="M19.5 407.9L0 360.8l17.3-46.2 18.8 7.8 21.6-8.9 8.9 21.6 18.9 7.7-18.9 45.6z"/>
    </g>
    <g>
      <path class="shape-9" d="M208.6-45.5l-18.8 7.8-21.6-8.9-8.9 21.5-18.9 7.8L147.6 0l-7.2 17.3 18.9 7.8 8.9 21.5 21.6-8.9 18.8 7.8L227.5 0zM-45.5 208.6l7.8-18.8-8.9-21.6 21.5-8.9 7.8-18.9L0 147.6l17.3-7.2 7.8 18.9 21.5 8.9-8.9 21.6 7.8 18.8L0 227.5zM500.5 208.6l-7.8-18.8 8.9-21.6-21.5-8.9-7.8-18.9-17.3 7.2-17.3-7.2-7.8 18.9-21.5 8.9 8.9 21.6-7.8 18.8 45.5 18.9zM246.4-45.5l18.8 7.8 21.6-8.9 8.9 21.5 18.9 7.8L307.4 0l7.2 17.3-18.9 7.8-8.9 21.5-21.6-8.9-18.8 7.8L227.5 0zM246.4 500.5l18.8-7.8 21.6 8.9 8.9-21.5 18.9-7.8-7.2-17.3 7.2-17.3-18.9-7.8-8.9-21.5-21.6 8.9-18.8-7.8-18.9 45.5z"/>
      <path class="shape-9" d="M500.5 246.4l-7.8 18.8 8.9 21.6-21.5 8.9-7.8 18.9-17.3-7.2-17.3 7.2-7.8-18.9-21.5-8.9 8.9-21.6-7.8-18.8 45.5-18.9zM-45.5 246.4l7.8 18.8-8.9 21.6 21.5 8.9 7.8 18.9L0 307.4l17.3 7.2 7.8-18.9 21.5-8.9-8.9-21.6 7.8-18.8L0 227.5zM208.6 500.5l-18.8-7.8-21.6 8.9-8.9-21.5-18.9-7.8 7.2-17.3-7.2-17.3 18.9-7.8 8.9-21.5 21.6 8.9 18.8-7.8 18.9 45.5z"/>
    </g>
    <g>
      <path class="shape-10" d="M147.6 0l-7.2-17.3L94.2 0l46.2 17.3zM0 147.6l-17.3-7.2L0 94.2l17.3 46.2zM455 147.6l17.3-7.2L455 94.2l-17.3 46.2zM307.4 0l7.2-17.3L360.8 0l-46.2 17.3zM307.4 455l7.2 17.3 46.2-17.3-46.2-17.3zM455 307.4l17.3 7.2-17.3 46.2-17.3-46.2zM0 307.4l-17.3 7.2L0 360.8l17.3-46.2zM147.6 455l-7.2 17.3L94.2 455l46.2-17.3z"/>
    </g>
    <g>
      <path class="shape-11" d="M47.1 19.5L94.2 0 27.6-27.6l-51 .4L39 0zM27.6 27.7l-8.1 19.4L0 39l-27.2-62.4-.4 51L0 94.2l19.5-47.1 47.1 19.5-19.5-47zM435.5 47.1L455 94.2l27.6-66.6-.4-51L455 39zM427.3 27.6l-19.4-8.1L416 0l62.4-27.2-51-.4L360.8 0l47.1 19.5-19.5 47.1 47-19.5zM407.9 435.5L360.8 455l66.6 27.6 51-.4L416 455zM427.4 427.3l8.1-19.4L455 416l27.2 62.4.4-51-27.6-66.6-19.5 47.1-47.1-19.5 19.5 47zM19.5 407.9L0 360.8l-27.6 66.6.4 51L0 416zM27.7 427.4l19.4 8.1L39 455l-62.4 27.2 51 .4L94.2 455l-47.1-19.5 19.5-47.1-47 19.5z"/>
    </g>
    <g>
      <path class="shape-12" d="M47.1 19.5L39 0l-62.4-27.2-6.8-3 3 6.8L0 39l19.5 8.1 8.1-19.4 19.5-8.1zM435.5 47.1L455 39l27.2-62.4 3-6.8-6.8 3L416 0l-8.1 19.5 19.4 8.1 8.1 19.5zM407.9 435.5L416 455l62.4 27.2 6.8 3-3-6.8L455 416l-19.5-8.1-8.1 19.4-19.5 8.1zM19.5 407.9L0 416l-27.2 62.4-3 6.8 6.8-3L39 455l8.1-19.5-19.4-8.1-8.1-19.5z"/>
    </g>
  </g>
  <g class="guides">
    <path d="M0 0h455v455H0zM0 0l455 455M0 133.3l455 188.4M0 227.5h455M0 321.7l455-188.4M0 455L455 0M133.3 455L321.7 0M227.5 455V0M321.7 455L133.3 0"/>
    <circle cx="227.5" cy="227.5" r="227.5"/>
    <circle r="94.2"/>
    <circle cx="455" r="94.2"/>
    <circle cx="455" cy="455" r="94.2"/>
    <circle cy="455" r="94.2"/>
    <path d="M227.5 0L39 455M416 455L227.5 0M0 39l455 188.5M0 416l455-188.5M227.5 455L416 0M39 0l188.5 455M0 227.5L455 416M455 39L0 227.5M314.6 437.7L17.3 314.6 140.4 17.3l297.3 123.1zM98.7 0L455 147.6M455 98.7L297.3 479.4M356 454.9L0 307.4M0 356.3L147.6 0"/>
    <path d="M314.6 17.3l123.1 297.3-297.3 123.1L17.3 140.4M455 307.4L98.7 455M147.6 455L0 98.7M307.4 0L455 356.3M0 147.6L356.3 0"/>
    <circle cx="227.5" cy="227.5" r="65.5"/>
  </g>
</svg>
