<svg xmlns="http://www.w3.org/2000/svg" width="501" height="867" viewBox="0 0 501 867">
  <style>
    :root { --black: #443430; --red: #BF402B; --gold: #CEA600; --turquois: #4D9BA3; --emerald: #216554; --blue: #262F66; --white: #FFFAF2; --lightBlue: #2AAFDD; } .shape-1 { fill: var(--black); } .shape-2 { fill: var(--turquois); } .shape-3 { fill: var(--red); } .shape-4 { fill: var(--red); } .shape-5 { fill: var(--white); } .shape-6 { fill: var(--white); } .guides { stroke: #4FFF4F; display: none; }
  </style>
  <g class="shapes" id="pattern">
    <path class="shape-1" d="M450.8 751.3l72.8 42V678l-22.8-13.2-50 29v57.6zm-200-404.1l50-28.9v-57.7l-50-28.9-50 28.9v57.7l50 28.9zm0 173.2l-50 28.9V607l50 28.9 50-28.9v-57.7l-50-28.9zM50.8 174v-57.7l-82.3-47.5v115.4L.8 203l50-28.9zm0 577.3v-57.7l-50-28.9-32.3 18.7v115.4l82.3-47.5zm400-635V174l50 28.9 22.8-13.2V74.2l-72.8 42z"/>
    <path class="shape-6" d="M125.8 130.7l-75 43.3v86.6h50l25 43.3 75-43.3V174h-50zM375.8 563.7l-75 43.3v86.6h50l25 43.3 75-43.3V607h-50zM300.8 174v86.6l75 43.3 25-43.3h50V174l-75-43.3-25 43.3zM-74.2 910.1l75 43.3 75-43.3-25-43.3 25-43.3-75-43.3-75 43.3 25 43.3zM425.8 910.1l75 43.3 75-43.3-25-43.3 25-43.3-75-43.3-75 43.3 25 43.3zM-74.2 44.1l75 43.3 75-43.3L50.8.8l25-43.3-75-43.3-75 43.3 25 43.3zM175.8 477.1l75 43.3 75-43.3-25-43.3 25-43.3-75-43.3-75 43.3 25 43.3zM425.8 44.1l75 43.3 75-43.3-25-43.3 25-43.3-75-43.3-75 43.3 25 43.3zM50.8 607v86.6l75 43.3 25-43.3h50V607l-75-43.3-25 43.3z"/>
    <path class="shape-2 line" d="M550.8 462.7l50-28.9-50-28.9v-57.7l-50 28.9-50-28.9v57.7l-50 28.9 50 28.9v57.7l50-28.9 50 28.9z"/>
    <path class="shape-3 line" d="M375.8 303.9l75 43.3v-86.6h-50zM450.8 607v-86.6l-75 43.3 25 43.3zM325.8 477.1l75-43.3-75-43.3-25 43.3z"/>
    <path class="shape-4 line" d="M450.8 260.6V174l50 28.9 50-28.9v86.6zM325.8 390.5l-75-43.3 50-28.9v-57.7l75 43.3zM375.8 563.7l-75 43.3v-57.7l-50-28.9 75-43.3zM550.8 607v86.6l-50-28.9-50 28.9V607z"/>
    <path class="shape-5 line" d="M450.8 260.6h100v86.6l-50 28.9-50-28.9z"/>
    <path class="shape-5 line" d="M325.8 390.5l50-86.6 75 43.3v57.7l-50 28.9zM375.8 563.7l-50-86.6 75-43.3 50 28.9v57.7z"/>
    <path class="shape-5 line" d="M550.8 607h-100v-86.6l50-28.9 50 28.9z"/>
    <path class="shape-2 line" d="M300.8 29.7l50-28.9-50-28.9v-57.7l-50 28.9-50-28.9v57.7L150.8.8l50 28.9v57.7l50-28.9 50 28.9z"/>
    <path class="shape-3 line" d="M425.8-42.5L350.8.8l75 43.3 25-43.3zM375.8 130.7l-75-43.3V174h50zM200.8 174V87.4l-75 43.3 25 43.3zM75.8 44.1l75-43.3-75-43.3L50.8.8z"/>
    <path class="shape-4 line" d="M125.8 130.7l-75 43.3v-57.7L.8 87.4l75-43.3zM300.8 174v86.6l-50-28.9-50 28.9V174zM425.8 44.1l75 43.3-50 28.9V174l-75-43.3z"/>
    <path class="shape-5 line" d="M75.8-42.5l50-86.6 75 43.3v57.7L150.8.8z"/>
    <path class="shape-5 line" d="M125.8 130.7l-50-86.6 75-43.3 50 28.9v57.7zM300.8 174h-100V87.4l50-28.9 50 28.9zM425.8 44.1l-50 86.6-75-43.3V29.7l50-28.9zM375.8-129.1l50 86.6-75 43.3-50-28.9v-57.7z"/>
    <path class="shape-2 line" d="M50.8 462.7l50-28.9-50-28.9v-57.7l-50 28.9-50-28.9v57.7l-50 28.9 50 28.9v57.7l50-28.9 50 28.9z"/>
    <path class="shape-3 line" d="M50.8 260.6v86.6l75-43.3-25-43.3zM175.8 390.5l-75 43.3 75 43.3 25-43.3zM125.8 563.7l-75-43.3V607h50z"/>
    <path class="shape-4 line" d="M-49.2 260.6V174l50 28.9 50-28.9v86.6zM50.8 607v86.6l-50-28.9-50 28.9V607zM175.8 477.1l75 43.3-50 28.9V607l-75-43.3zM125.8 303.9l75-43.3v57.7l50 28.9-75 43.3z"/>
    <path class="shape-5 line" d="M-49.2 260.6h100v86.6l-50 28.9-50-28.9zM50.8 607h-100v-86.6l50-28.9 50 28.9zM175.8 477.1l-50 86.6-75-43.3v-57.7l50-28.9zM125.8 303.9l50 86.6-75 43.3-50-28.9v-57.7z"/>
    <path class="shape-2 line" d="M300.8 895.7l50-28.9-50-28.8v-57.8l-50 28.9-50-28.9V838l-50 28.8 50 28.9v57.7l50-28.8 50 28.8z"/>
    <path class="shape-3 line" d="M125.8 736.9l75 43.3v-86.6h-50zM300.8 693.6v86.6l75-43.3-25-43.3zM425.8 823.5l-75 43.3 75 43.3 25-43.3zM75.8 910.1l75-43.3-75-43.3-25 43.3z"/>
    <path class="shape-4 line" d="M200.8 693.6V607l50 28.9 50-28.9v86.6zM75.8 823.5l-75-43.3 50-28.9v-57.7l75 43.3zM375.8 736.9l75-43.3v57.7l50 28.9-75 43.3z"/>
    <path class="shape-5 line" d="M200.8 693.6h100v86.6l-50 28.9-50-28.9zM75.8 823.5l50-86.6 75 43.3V838l-50 28.8zM125.8 996.7l-50-86.6 75-43.3 50 28.9v57.7zM425.8 910.1l-50 86.6-75-43.3v-57.7l50-28.9zM375.8 736.9l50 86.6-75 43.3-50-28.8v-57.8z"/>
  </g>
  <g class="guides">
    <path d="M100-173.2l-700 1212.4M200-173.2l-700 1212.4M300-173.2l-700 1212.4M400-173.2l-700 1212.4M500-173.2l-700 1212.4M600-173.2l-700 1212.4M700-173.2L0 1039.2M800-173.2L100 1039.2M900-173.2L200 1039.2M1000-173.2L300 1039.2M1100-173.2L400 1039.2M1200-173.2L500 1039.2M1300-173.2L600 1039.2M1400-173.2L700 1039.2M1500-173.2L800 1039.2M1600-173.2L900 1039.2M1700-173.2l-700 1212.4M1000-173.2l700 1212.4M900-173.2l700 1212.4M800-173.2l700 1212.4M700-173.2l700 1212.4M600-173.2l700 1212.4M500-173.2l700 1212.4M400-173.2l700 1212.4M300-173.2l700 1212.4M200-173.2l700 1212.4M100-173.2l700 1212.4M0-173.2l700 1212.4M-100-173.2l700 1212.4M-200-173.2l700 1212.4M-300-173.2l700 1212.4M-400-173.2l700 1212.4M-500-173.2l700 1212.4M-600-173.2l700 1212.4M-250 433h1600M-200 346.4h1600M-150 259.8h1600M-100 173.2h1600M-50 86.6h1600M0 0h1600M50-86.6h1600M-300 519.6h1600M-350 606.2h1800M-400 692.8h1900M-450 779.4h2000M-501 866h2109.7M-550 952.6h2209"/>
  </g>
</svg>
