<?xml version="1.0" encoding="utf-8"?>
<svg version="1.1" xmlns="http://www.w3.org/2000/svg" xmlns:xlink="http://www.w3.org/1999/xlink" x="0px" y="0px"
	 width="501" height="867" viewBox="0 0 100% 100%" xml:space="preserve">
	<style>
		:root {
		  --golden: #907A58;
		  --darkBlue: #475387;
		  --beige: #DFD8CC;
		  --teal: #4A9AC4;
		  --gray: #A49DA0;
		  --smaragd: #406A72;
		  --sand: #D3BDA7;
		  --grayGreen: #A2D1D6;
		  --blueGray: #758390;
		  --lightBrown: #AA8858;
		  --blue1: #8EC5EE;
		  --blue2: #8CC6EA;
		  --blue3: #B6DAEC;
		  --rust: #D8692D;
		  --yellow: #F8C346;

      --black: #443430;
      --red: #BF402B;
      --gold: #CEA600;
      --turquois: #4D9BA3;
      --emerald: #216554;
      --blue: #262F66;
      --white: #FFFAF2;
      --lightBlue: #2AAFDD;

		}
		.shape-1 {
			fill: var(--black);
		}
		.shape-2 {
			fill: var(--turquois);
		}
		.shape-3 {
			fill: var(--red);
		}
		.shape-4 {
			fill: var(--red);
		}
		.shape-5 {
			fill: var(--white);
		}
		.shape-6 {
			fill: var(--white);
		}
<!-- 		.line {
			stroke: #fff;
			stroke-width: 15px;
		}
 -->		.guides {
			stroke: #4FFF4F;
			display: none;
		}
	</style>
			<g class="shapes" id="pattern">
				<rect x="-379.741" y="-291.802" class="shape-1" width="1505.036" height="1501.287"/>
				<polygon class="shape-6" points="125.793,130.696 50.794,174 50.794,260.603 100.794,260.604 125.794,303.902 200.794,260.601 200.794,173.999 150.795,173.997 	"/>
				<polygon class="shape-6" points="375.794,563.707 300.794,607.01 300.794,693.613 350.794,693.614 375.794,736.913 450.794,693.611 450.794,607.009 400.795,607.007 	"/>
				<polygon class="shape-6" points="300.791,173.998 300.794,260.601 375.794,303.902 400.795,260.602 450.793,260.601 450.793,173.998 375.793,130.697 350.791,173.997 	"/>
				<polygon class="shape-6" points="-74.207,910.121 0.794,953.42 75.794,910.119 50.795,866.817 75.794,823.517 0.793,780.215 -74.206,823.517 -49.208,866.819 	"/>
				<polygon class="shape-6" points="425.793,910.12 500.794,953.418 575.794,910.118 550.795,866.816 575.794,823.515 500.793,780.214 425.794,823.515 450.792,866.817 	"/>
				<polygon class="shape-6" points="-74.208,44.096 0.793,87.395 75.793,44.094 50.794,0.792 75.793,-42.509 0.792,-85.81 -74.207,-42.509 -49.209,0.793 	"/>
				<polygon class="shape-6" points="175.794,477.109 250.795,520.408 325.795,477.107 300.796,433.806 325.795,390.505 250.794,347.204 175.795,390.505 200.792,433.807 	"/>
				<polygon class="shape-6" points="425.794,44.095 500.795,87.394 575.795,44.093 550.796,0.791 575.795,-42.51 500.794,-85.811 425.795,-42.51 450.792,0.792 	"/>
				<polygon class="shape-6" points="50.792,607.011 50.795,693.614 125.795,736.915 150.796,693.614 200.794,693.613 200.794,607.01 125.794,563.709 100.792,607.009 	"/>
				<polygon class="shape-2 line" points="550.794,462.674 600.794,433.806 550.794,404.938 550.794,347.204 500.794,376.071 450.794,347.204 450.794,404.938 400.795,433.806 450.794,462.673 450.794,520.409 500.795,491.541 550.794,520.409 		"/>
				<polygon class="shape-3 line" points="375.794,303.902 450.794,347.204 450.794,260.601 400.794,260.601 		"/>
				<polygon class="shape-3 line" points="450.796,607.01 450.796,520.409 375.796,563.708 400.796,607.009 		"/>
				<polygon class="shape-3 line" points="325.796,477.107 400.794,433.806 325.796,390.504 300.796,433.805 		"/>
				<polygon class="shape-4 line" points="450.794,260.601 450.794,173.999 500.794,202.866 550.794,173.999 550.794,260.601 		"/>
				<polygon class="shape-4 line" points="325.794,390.505 250.794,347.204 300.794,318.337 300.794,260.601 375.794,303.902 		"/>
				<polygon class="shape-4 line" points="375.794,563.709 300.794,607.01 300.794,549.276 250.794,520.408 325.794,477.106 		"/>
				<polygon class="shape-4 line" points="550.795,607.011 550.795,693.614 500.795,664.747 450.795,693.614 450.795,607.011 		"/>
				<polygon class="shape-5 line" points="450.794,260.601 550.794,260.601 550.794,347.204 500.794,376.071 450.794,347.204 		"/>
				<polygon class="shape-5 line" points="325.794,390.505 375.794,303.902 450.794,347.204 450.794,404.938 400.794,433.806 		"/>
				<polygon class="shape-5 line" points="375.794,563.709 325.794,477.106 400.794,433.806 450.794,462.673 450.794,520.408 		"/>
				<polygon class="shape-5 line" points="550.795,607.011 450.795,607.011 450.796,520.409 500.795,491.541 550.796,520.409 		"/>
				<polygon class="shape-2 line" points="300.793,29.661 350.793,0.793 300.793,-28.074 300.793,-85.809 250.793,-56.941 200.793,-85.809 200.793,-28.074 150.794,0.793 200.793,29.66 200.793,87.396 250.794,58.528 300.793,87.396 		"/>
				<polygon class="shape-3 line" points="425.793,-42.511 350.793,0.791 425.793,44.092 450.792,0.791 		"/>
				<polygon class="shape-3 line" points="375.795,130.696 300.795,87.396 300.795,173.997 350.794,173.997 		"/>
				<polygon class="shape-3 line" points="200.795,173.998 200.795,87.396 125.795,130.696 150.795,173.997 		"/>
				<polygon class="shape-3 line" points="75.795,44.095 150.793,0.793 75.795,-42.509 50.795,0.792 		"/>
				<polygon class="shape-4 line" points="125.793,130.696 50.793,173.998 50.793,116.263 0.793,87.395 75.793,44.094 		"/>
				<polygon class="shape-4 line" points="300.794,173.999 300.794,260.601 250.794,231.734 200.794,260.601 200.794,173.999 		"/>
				<polygon class="shape-4 line" points="425.794,44.095 500.794,87.396 450.794,116.264 450.794,173.999 375.794,130.697 		"/>
				<polygon class="shape-5 line" points="75.793,-42.508 125.793,-129.11 200.793,-85.809 200.793,-28.074 150.793,0.793 		"/>
				<polygon class="shape-5 line" points="125.793,130.696 75.793,44.094 150.793,0.793 200.793,29.66 200.793,87.396 		"/>
				<polygon class="shape-5 line" points="300.794,173.999 200.794,173.999 200.795,87.396 250.794,58.528 300.795,87.396 		"/>
				<polygon class="shape-5 line" points="425.794,44.095 375.794,130.697 300.795,87.396 300.793,29.661 350.795,0.793 		"/>
				<polygon class="shape-5 line" points="375.793,-129.112 425.793,-42.509 350.793,0.791 300.793,-28.074 300.793,-85.812 		"/>
				<polygon class="shape-2 line" points="50.794,462.675 100.794,433.808 50.794,404.94 50.794,347.205 0.794,376.073 -49.206,347.205 -49.206,404.94 -99.205,433.807 -49.206,462.674 -49.206,520.41 0.794,491.542 50.794,520.41 		"/>
				<polygon class="shape-3 line" points="50.794,260.603 50.794,347.205 125.794,303.904 100.794,260.604 		"/>
				<polygon class="shape-3 line" points="175.794,390.503 100.794,433.805 175.793,477.106 200.793,433.805 		"/>
				<polygon class="shape-3 line" points="125.796,563.71 50.796,520.41 50.795,607.011 100.795,607.011 		"/>
				<polygon class="shape-4 line" points="-49.206,260.603 -49.206,174 0.793,202.868 50.794,174 50.794,260.603 		"/>
				<polygon class="shape-4 line" points="50.794,607.013 50.794,693.615 0.794,664.748 -49.206,693.615 -49.206,607.013 		"/>
				<polygon class="shape-4 line" points="175.795,477.109 250.795,520.41 200.795,549.278 200.795,607.013 125.795,563.711 		"/>
				<polygon class="shape-4 line" points="125.794,303.902 200.794,260.601 200.794,318.336 250.794,347.204 175.794,390.505 		"/>
				<polygon class="shape-5 line" points="-49.206,260.603 50.794,260.603 50.794,347.205 0.794,376.073 -49.206,347.205 		"/>
				<polygon class="shape-5 line" points="50.794,607.013 -49.206,607.013 -49.205,520.41 0.794,491.542 50.795,520.41 		"/>
				<polygon class="shape-5 line" points="175.795,477.109 125.795,563.711 50.796,520.41 50.794,462.675 100.796,433.807 		"/>
				<polygon class="shape-5 line" points="125.794,303.902 175.794,390.505 100.794,433.805 50.794,404.94 50.794,347.203 		"/>
				<polygon class="shape-2 line" points="300.794,895.686 350.794,866.818 300.794,837.95 300.794,780.215 250.794,809.083 200.794,780.215 200.794,837.95 150.795,866.817 200.794,895.685 200.794,953.42 250.795,924.553 300.794,953.42 		"/>
				<polygon class="shape-3 line" points="125.794,736.914 200.794,780.215 200.794,693.613 150.794,693.613 		"/>
				<polygon class="shape-3 line" points="300.794,693.613 300.794,780.215 375.794,736.915 350.794,693.614 		"/>
				<polygon class="shape-3 line" points="425.794,823.514 350.794,866.815 425.794,910.116 450.793,866.815 		"/>
				<polygon class="shape-3 line" points="75.796,910.119 150.794,866.817 75.796,823.516 50.796,866.816 		"/>
				<polygon class="shape-4 line" points="200.794,693.613 200.794,607.01 250.794,635.878 300.794,607.01 300.794,693.613 		"/>
				<polygon class="shape-4 line" points="75.794,823.517 0.794,780.215 50.794,751.349 50.794,693.613 125.794,736.914 		"/>
				<polygon class="shape-4 line" points="375.794,736.913 450.794,693.611 450.794,751.346 500.794,780.214 425.794,823.515 		"/>
				<polygon class="shape-5 line" points="200.794,693.613 300.794,693.613 300.794,780.215 250.794,809.083 200.794,780.215 		"/>
				<polygon class="shape-5 line" points="75.794,823.517 125.794,736.914 200.794,780.215 200.794,837.95 150.794,866.818 		"/>
				<polygon class="shape-5 line" points="125.794,996.721 75.794,910.118 150.794,866.817 200.794,895.685 200.794,953.42 		"/>
				<polygon class="shape-5 line" points="425.795,910.119 375.795,996.722 300.796,953.42 300.794,895.686 350.796,866.817 		"/>
				<polygon class="shape-5 line" points="375.794,736.913 425.794,823.515 350.794,866.815 300.794,837.95 300.794,780.213 		"/>
			</g>
			
			<g class="guides">
				<line x1="100" y1="-173.206" x2="-600" y2="1039.23"/>
				<line x1="200" y1="-173.206" x2="-500" y2="1039.23"/>
				<line x1="300" y1="-173.206" x2="-400" y2="1039.23"/>
				<line x1="400" y1="-173.206" x2="-300" y2="1039.23"/>
				<line x1="500" y1="-173.206" x2="-200" y2="1039.23"/>
				<line x1="600" y1="-173.206" x2="-100" y2="1039.23"/>
				<line x1="700" y1="-173.206" x2="0" y2="1039.23"/>
				<line x1="800" y1="-173.206" x2="100" y2="1039.23"/>
				<line x1="900" y1="-173.206" x2="200" y2="1039.23"/>
				<line x1="1000" y1="-173.206" x2="300" y2="1039.23"/>
				<line x1="1100" y1="-173.206" x2="400" y2="1039.23"/>
				<line x1="1200" y1="-173.206" x2="500" y2="1039.23"/>
				<line x1="1300" y1="-173.205" x2="600" y2="1039.231"/>
				<line x1="1400" y1="-173.206" x2="700" y2="1039.23"/>
				<line x1="1500" y1="-173.206" x2="800" y2="1039.23"/>
				<line x1="1600" y1="-173.206" x2="900" y2="1039.23"/>
				<line x1="1700" y1="-173.206" x2="1000" y2="1039.23"/>
				<line x1="1000" y1="-173.205" x2="1700" y2="1039.231"/>
				<line x1="900" y1="-173.205" x2="1600" y2="1039.231"/>
				<line x1="800" y1="-173.205" x2="1500" y2="1039.231"/>
				<line x1="700" y1="-173.205" x2="1400" y2="1039.231"/>
				<line x1="600" y1="-173.205" x2="1300" y2="1039.231"/>
				<line x1="500" y1="-173.205" x2="1200" y2="1039.231"/>
				<line x1="400" y1="-173.205" x2="1100" y2="1039.231"/>
				<line x1="300" y1="-173.205" x2="1000" y2="1039.231"/>
				<line x1="200" y1="-173.205" x2="900" y2="1039.231"/>
				<line x1="100" y1="-173.205" x2="800" y2="1039.231"/>
				<line x1="0" y1="-173.205" x2="700" y2="1039.231"/>
				<line x1="-100" y1="-173.205" x2="600" y2="1039.231"/>
				<line x1="-200" y1="-173.206" x2="500" y2="1039.23"/>
				<line x1="-300" y1="-173.205" x2="400" y2="1039.231"/>
				<line x1="-400" y1="-173.205" x2="300" y2="1039.231"/>
				<line x1="-500" y1="-173.205" x2="200" y2="1039.231"/>
				<line x1="-600" y1="-173.205" x2="100" y2="1039.231"/>
				<line x1="-250" y1="433.012" x2="1350" y2="433.012"/>
				<line x1="-200" y1="346.41" x2="1400" y2="346.41"/>
				<line x1="-150" y1="259.808" x2="1450" y2="259.808"/>
				<line x1="-100" y1="173.205" x2="1500" y2="173.205"/>
				<line x1="-50" y1="86.602" x2="1550" y2="86.602"/>
				<line x1="0" y1="0" x2="1600" y2="0"/>
				<line x1="50" y1="-86.603" x2="1650" y2="-86.603"/>
				<line x1="-300" y1="519.615" x2="1300" y2="519.615"/>
				<line x1="-350" y1="606.217" x2="1450" y2="606.217"/>
				<line x1="-400" y1="692.82" x2="1500" y2="692.82"/>
				<line x1="-450" y1="779.422" x2="1550" y2="779.422"/>
				<line x1="-501.006" y1="866.025" x2="1608.69" y2="866.025"/>
				<line x1="-550" y1="952.627" x2="1659" y2="952.627"/>
			</g>
</svg>