<svg xmlns="http://www.w3.org/2000/svg" width="508" height="508" viewBox="0 0 508 508">
  <style>
    :root { --black: #443430; --gold: #CEA600; --turquois: #4D9BA3; --blue: #262F66; --white: #FFFAF2; } .shape-1{fill:var(--turquois)} .shape-2{fill:var(--white)} .shape-3{fill:var(--blue)} .shape-4{fill:var(--white)} .shape-5{fill:var(--black)} .guides{ stroke: #4FFF4F; display: none; fill: none}
  </style>
  <g id="pattern" class="line">
    <path class="shape-1" d="M306.6 275.8l21.8-21.8-21.8-21.8v-30.8h-30.8L254 179.6l-21.8 21.8h-30.8v30.8L179.6 254l21.8 21.8v30.8h30.8l21.8 21.8 21.8-21.8h30.8zM-52.6 21.8v30.8h30.8L0 74.4l21.8-21.8h30.8V21.8L74.4 0 52.6-21.8v-30.8H21.8L0-74.4l-21.8 21.8h-30.8v30.8L-74.4 0zM486.2-52.6h-30.8v30.8L433.6 0l21.8 21.8v30.8h30.8L508 74.4l21.8-21.8h30.8V21.8L582.4 0l-21.8-21.8v-30.8h-30.8L508-74.4zM560.6 486.2v-30.8h-30.8L508 433.6l-21.8 21.8h-30.8v30.8L433.6 508l21.8 21.8v30.8h30.8l21.8 21.8 21.8-21.8h30.8v-30.8l21.8-21.8zM21.8 560.6h30.8v-30.8L74.4 508l-21.8-21.8v-30.8H21.8L0 433.6l-21.8 21.8h-30.8v30.8L-74.4 508l21.8 21.8v30.8h30.8L0 582.4z"/>
    <g>
      <path class="shape-2" d="M201.4 127v74.4h30.8l21.8-21.8z"/>
      <path class="shape-2" d="M306.6 127v74.4h-30.8L254 179.6zM127 201.4h74.4v30.8L179.6 254zM127 52.6L74.4 0 52.6 21.8v30.8zM52.6 127L0 74.4l21.8-21.8h30.8zM381 201.4h-74.4v30.8l21.8 21.8z"/>
      <path class="shape-2" d="M381 306.6h-74.4v-30.8l21.8-21.8zM455.4 127L508 74.4l-21.8-21.8h-30.8zM381 52.6L433.6 0l21.8 21.8v30.8zM306.6 381v-74.4h-30.8L254 328.4zM201.4 381v-74.4h30.8l21.8 21.8zM381 455.4l52.6 52.6 21.8-21.8v-30.8z"/>
      <path class="shape-2" d="M455.4 381l52.6 52.6-21.8 21.8h-30.8zM127 306.6h74.4v-30.8L179.6 254zM52.6 381L0 433.6l21.8 21.8h30.8zM127 455.4L74.4 508l-21.8-21.8v-30.8z"/>
    </g>
    <g>
      <path class="shape-3" d="M306.6 96.2h-30.8L254 74.4l-21.8 21.8h-30.8V127l52.6 52.6 52.6-52.6z"/>
      <path class="shape-3" d="M179.6 105.2L157.8 127H127v30.8l-21.8 21.8 21.8 21.8h74.4V127zM74.4 148.8L96.2 127H127V96.2l21.8-21.8L127 52.6H52.6V127zM157.8 52.6V21.8L179.6 0l-21.8-21.8v-30.8H127L74.4 0 127 52.6zM-52.6 157.8h30.8L0 179.6l21.8-21.8h30.8V127L0 74.4-52.6 127zM411.8 306.6v-30.8l21.8-21.8-21.8-21.8v-30.8H381L328.4 254l52.6 52.6z"/>
      <path class="shape-3" d="M402.8 179.6L381 157.8V127h-30.8l-21.8-21.8-21.8 21.8v74.4H381zM359.2 74.4L381 96.2V127h30.8l21.8 21.8 21.8-21.8V52.6H381z"/>
      <path class="shape-3" d="M455.4 157.8h30.8l21.8 21.8 21.8-21.8h30.8V127L508 74.4 455.4 127zM350.2-52.6v30.8L328.4 0l21.8 21.8v30.8H381L433.6 0 381-52.6zM201.4 411.8h30.8l21.8 21.8 21.8-21.8h30.8V381L254 328.4 201.4 381zM328.4 402.8l21.8-21.8H381v-30.8l21.8-21.8-21.8-21.8h-74.4V381zM433.6 359.2L411.8 381H381v30.8l-21.8 21.8 21.8 21.8h74.4V381z"/>
      <path class="shape-3" d="M350.2 455.4v30.8L328.4 508l21.8 21.8v30.8H381l52.6-52.6-52.6-52.6zM560.6 350.2h-30.8L508 328.4l-21.8 21.8h-30.8V381l52.6 52.6 52.6-52.6zM96.2 201.4v30.8L74.4 254l21.8 21.8v30.8H127l52.6-52.6-52.6-52.6zM105.2 328.4l21.8 21.8V381h30.8l21.8 21.8 21.8-21.8v-74.4H127zM148.8 433.6L127 411.8V381H96.2l-21.8-21.8L52.6 381v74.4H127zM52.6 350.2H21.8L0 328.4l-21.8 21.8h-30.8V381L0 433.6 52.6 381zM157.8 560.6v-30.8l21.8-21.8-21.8-21.8v-30.8H127L74.4 508l52.6 52.6z"/>
    </g>
    <g>
      <path class="shape-4" d="M254 74.4l-21.8 21.8h-30.8V127l-21.8-21.8-21.8 21.8H127V96.2l21.8-21.8L127 52.6h30.8V21.8L179.6 0l21.8 21.8v30.8h30.8zM0 179.6l21.8-21.8h30.8V127l21.8 21.8L96.2 127H127v30.8l-21.8 21.8 21.8 21.8H96.2v30.8L74.4 254l-21.8-21.8v-30.8H21.8zM433.6 254l-21.8-21.8v-30.8H381l21.8-21.8-21.8-21.8V127h30.8l21.8 21.8 21.8-21.8v30.8h30.8l21.8 21.8-21.8 21.8h-30.8v30.8zM328.4 0l21.8 21.8v30.8H381l-21.8 21.8L381 96.2V127h-30.8l-21.8-21.8-21.8 21.8V96.2h-30.8L254 74.4l21.8-21.8h30.8V21.8zM254 433.6l21.8-21.8h30.8V381l21.8 21.8 21.8-21.8H381v30.8l-21.8 21.8 21.8 21.8h-30.8v30.8L328.4 508l-21.8-21.8v-30.8h-30.8z"/>
      <path class="shape-4" d="M508 328.4l-21.8 21.8h-30.8V381l-21.8-21.8-21.8 21.8H381v-30.8l21.8-21.8-21.8-21.8h30.8v-30.8l21.8-21.8 21.8 21.8v30.8h30.8zM74.4 254l21.8 21.8v30.8H127l-21.8 21.8 21.8 21.8V381H96.2l-21.8-21.8L52.6 381v-30.8H21.8L0 328.4l21.8-21.8h30.8v-30.8zM179.6 508l-21.8-21.8v-30.8H127l21.8-21.8-21.8-21.8V381h30.8l21.8 21.8 21.8-21.8v30.8h30.8l21.8 21.8-21.8 21.8h-30.8v30.8z"/>
    </g>
    <g>
      <path class="shape-5" d="M306.6 21.8L328.4 0l-21.8-21.8v-30.8h-30.8L254-74.4l-21.8 21.8h-30.8v30.8L179.6 0l21.8 21.8v30.8h30.8L254 74.4l21.8-21.8h30.8zM486.2 306.6l21.8 21.8 21.8-21.8h30.8v-30.8l21.8-21.8-21.8-21.8v-30.8h-30.8L508 179.6l-21.8 21.8h-30.8v30.8L433.6 254l21.8 21.8v30.8zM201.4 486.2L179.6 508l21.8 21.8v30.8h30.8l21.8 21.8 21.8-21.8h30.8v-30.8l21.8-21.8-21.8-21.8v-30.8h-30.8L254 433.6l-21.8 21.8h-30.8zM21.8 201.4L0 179.6l-21.8 21.8h-30.8v30.8L-74.4 254l21.8 21.8v30.8h30.8L0 328.4l21.8-21.8h30.8v-30.8L74.4 254l-21.8-21.8v-30.8z"/>
    </g>
  </g>
  <g class="guides">
    <path d="M0 0h508v508H0z"/>
    <path d="M0 254L254 0l254 254-254 254zM0 0l508 508M508 0L0 508M254 0v508M0 254h508"/>
    <circle cx="254" cy="254" r="179.6"/>
    <circle r="179.6"/>
    <circle cx="508" r="179.6"/>
    <circle cy="508" r="179.6"/>
    <circle cx="508" cy="508" r="179.6"/>
    <circle cx="254" r="74.4"/>
    <circle cx="508" r="74.4"/>
    <circle cx="508" cy="254" r="74.4"/>
    <circle cx="508" cy="508" r="74.4"/>
    <circle cx="254" cy="508" r="74.4"/>
    <circle cy="508" r="74.4"/>
    <circle cx="254" cy="254" r="74.4"/>
    <circle cy="254" r="74.4"/>
    <circle r="74.4"/>
    <path d="M201.4 201.4h105.2v105.2H201.4zM201.4 508V0M306.6 0v508M508 306.6H0M0 201.4h508"/>
    <path d="M434.4 508.8L0 74.4 74.4 0 508 433.6z"/>
    <path d="M508 74.4L74.4 508 0 433.6 433.6 0z"/>
    <path d="M328.4 254L254 328.4 179.6 254l74.4-74.4zM508 52.6H0M52.6 0v508M455.4 0v508"/>
    <path d="M179.6 0L508 328.4 328.4 508 0 179.6M328.4 0L508 179.6"/>
    <path d="M328.4 0L0 328.4 179.6 508 508 179.6M0 179.6L179.6 0M508 455.4H0"/>
    <path d="M328.4 254L254 328.4 179.6 254l74.4-74.4z"/>
  </g>
</svg>
