<svg xmlns="http://www.w3.org/2000/svg" width="230" height="594.7" viewBox="0 0 230 594.7">
  <style>
    :root { --black: #443430; --gold: #CEA600; --turquois: #4D9BA3; --blue: #262F66; --white: #FFFAF2; } .shape-1{fill:var(--turquois)} .shape-2{fill:var(--white)} .shape-3{fill:var(--white)} .shape-4{fill:var(--blue)} .shape-5{fill:var(--white)} .shape-6{fill:var(--blue)} .shape-7{fill:var(--blue)} .shape-8{fill:var(--white)} .shape-9{fill:var(--blue)} .shape-10{fill:var(--blue)} .shape-11{fill:var(--white)} .shape-12{fill:var(--turquois)} .guides{ stroke: #4FFF4F; display: none; fill: none}
  </style>
  <g id="pattern" class="line">
    <path class="shape-1" d="M-33.7 263.7l33.7-14 33.7 14 13.9 33.7L33.7 331 0 345l-33.7-14-13.9-33.6zM263.7 263.7l-33.7-14-33.7 14-13.9 33.7 13.9 33.6 33.7 14 33.7-14 13.9-33.6zM81.3 81.3L115 67.4l33.7 13.9 13.9 33.7-13.9 33.7-33.7 13.9-33.7-13.9L67.4 115zM81.3 513.4l33.7 14 33.7-14 13.9-33.7-13.9-33.7-33.7-13.9L81.3 446l-13.9 33.7z"/>
    <path class="shape-2" d="M156 31.3h-28L115 0l-13 31.3H74l19.8 19.8-12.5 30.2L115 67.4l33.7 13.9-12.5-30.2zM0 115l31.3-13V74l19.8 19.8 30.2-12.5L67.4 115l13.9 33.7-23.8-9.9L31.3 165v-37z"/>
    <path class="shape-2" d="M230 115l-31.3-13V74l-19.8 19.8-30.2-12.5 13.9 33.7-13.9 33.7 23.8-9.9 26.2 26.2v-37zM156 563.5h-28l-13 31.2-13-31.2H74l19.8-19.9-12.5-30.2 33.7 14 33.7-14-12.5 30.2z"/>
    <path class="shape-2" d="M0 479.7l31.3 13v28l19.8-19.8 30.2 12.5-13.9-33.7L81.3 446l-23.8 9.9-26.2-26.2v37.1zM230 479.7l-31.3 13v28l-19.8-19.8-30.2 12.5 13.9-33.7-13.9-33.7 23.8 9.9 26.2-26.2v37.1z"/>
    <path class="shape-3" d="M131.8 189.3l16.9-40.6-33.7 13.9-33.7-13.9 16.9 40.6-40.7 16.9L83.7 217v44.3L115 230l31.3 31.3V217l26.2-10.8zM131.8 405.4l16.9 40.6-33.7-13.9L81.3 446l16.9-40.6-40.7-16.9 26.2-10.8v-44.2l31.3 31.2 31.3-31.2v44.2l26.2 10.8z"/>
    <path class="shape-4" d="M57.5 138.8L31.3 165v30.3l26.2 10.9 40.7-16.9-16.9-40.6zM172.5 138.8l26.2 26.2v30.3l-26.2 10.9-40.7-16.9 16.9-40.6zM57.5 455.9l-26.2-26.2v-30.3l26.2-10.9 40.7 16.9L81.3 446zM172.5 455.9l26.2-26.2v-30.3l-26.2-10.9-40.7 16.9 16.9 40.6z"/>
    <path class="shape-5" d="M57.5 206.2l-26.2-10.9V165L0 196.4-31.3 165v30.3l-26.2 10.9 40.7 16.8-16.9 40.7 33.7-14 33.7 14L16.8 223zM172.5 206.2l26.2-10.9V165l31.3 31.4 31.3-31.4v30.3l26.2 10.9-40.7 16.8 16.9 40.7-33.7-14-33.7 14 16.9-40.7zM57.5 388.5l-26.2 10.9v30.3L0 398.3l-31.3 31.4v-30.3l-26.2-10.9 40.7-16.8-16.9-40.7L0 345l33.7-14-16.9 40.7zM172.5 388.5l26.2 10.9v30.3l31.3-31.4 31.3 31.4v-30.3l26.2-10.9-40.7-16.8 16.9-40.7-33.7 14-33.7-14 16.9 40.7z"/>
    <path class="shape-6" d="M115 230l-31.3 31.3v23.1l31.3 13 31.3-13v-23.1zM115 364.7l-31.3-31.2v-23.2l31.3-12.9 31.3 12.9v23.2z"/>
    <path class="shape-7" d="M57.5 206.2L16.8 223l16.9 40.7 33.7 13.9 16.3-16.3V217zM172.5 206.2l40.7 16.8-16.9 40.7-33.7 13.9-16.3-16.3V217zM57.5 388.5l-40.7-16.8L33.7 331l33.7-13.9 16.3 16.4v44.2zM172.5 388.5l40.7-16.8-16.9-40.7-33.7-13.9-16.3 16.4v44.2z"/>
    <path class="shape-8" d="M83.7 284.4v-23.1l-16.3 16.3-33.7-13.9 13.9 33.7L33.7 331l33.7-13.9 16.3 16.4v-23.2l31.3-12.9zM196.3 263.7l-33.7 13.9-16.3-16.3v23.1l-31.3 13 31.3 12.9v23.2l16.3-16.4 33.7 13.9-13.9-33.6z"/>
    <path class="shape-9" d="M0 115l-31.3 13v37L0 196.4 31.3 165v-37zM230 115l31.3 13v37L230 196.4 198.7 165v-37zM0 479.7l-31.3-12.9v-37.1L0 398.3l31.3 31.4v37.1zM230 479.7l31.3-12.9v-37.1L230 398.3l-31.3 31.4v37.1z"/>
    <g>
      <path class="shape-10" d="M31.3 31.3V74l19.8 19.8 30.2-12.5 12.5-30.2L74 31.3zM0 42.8L-30.2 73v28L0 115l31.3-13V74zM102-31.3H74L42.8 0 74 31.3h28L115 0zM198.7 31.3V74l-19.8 19.8-30.2-12.5-12.5-30.2L156 31.3zM230 42.8L260.2 73v28L230 115l-31.3-13V74zM128-31.3h28L187.2 0 156 31.3h-28L115 0zM31.3 563.5v-42.8l19.8-19.8 30.2 12.5 12.5 30.2L74 563.5zM0 552l-30.2-30.3v-28l30.2-14 31.3 13v28zM102 626H74l-31.2-31.3L74 563.5h28l13 31.2zM198.7 563.5v-42.8l-19.8-19.8-30.2 12.5-12.5 30.2 19.8 19.9zM230 552l30.2-30.3v-28l-30.2-14-31.3 13v28z"/>
      <path class="shape-10" d="M128 626h28l31.2-31.3-31.2-31.2h-28l-13 31.2z"/>
    </g>
    <path class="shape-11" d="M11.5 31.3L0 42.8 31.3 74V31.3zM42.8 0L31.3 11.5v19.8H74zM218.5 31.3L230 42.8 198.7 74V31.3zM187.2 0l11.5 11.5v19.8H156zM11.5 563.5L0 552l31.3-31.3v42.8zM42.8 594.7l-11.5-11.5v-19.7H74zM218.5 563.5L230 552l-31.3-31.3v42.8zM187.2 594.7l11.5-11.5v-19.7H156z"/>
    <path class="shape-12" d="M-6.5-7.7v42L0 42.8l11.5-11.5h19.8V11.5L42.8 0l-9-8.9zM236.5-7.7v42l-6.5 8.5-11.5-11.5h-19.8V11.5L187.2 0l9-8.9zM-6.5 602.5v-42.1L0 552l11.5 11.5h19.8v19.7l11.5 11.5-9 9zM236.5 602.5v-42.1L230 552l-11.5 11.5h-19.8v19.7l-11.5 11.5 9 9z"/>
  </g>
  <g class="guides">
    <circle r="115"/>
    <circle r="80.3"/>
    <circle cx="230" r="80.3"/>
    <circle cy="594.7" r="80.3"/>
    <circle cy="594.7" r="115"/>
    <circle cx="230" cy="594.7" r="115"/>
    <circle cx="230" cy="594.7" r="80.3"/>
    <circle cx="230" r="115"/>
    <path d="M115 0v297.4M0 0l148.7 148.7M230 0L82.2 147.8M81.3 81.3L115 67.4l33.7 13.9 13.9 33.7-13.9 33.7-33.7 13.9-33.7-13.9L67.4 115zM162.6 115L115 0M162.6 115L115 230M67.4 115L115 230M115 162.6L0 115M0 115l115-47.6M115 297.4l115-47.7M115 67.4L230 115M230 115l-115 47.6M0 249.7l115 47.7M230 31.3H0M0 277.7L115 0M115 230L0 182.3M31.3 297.4V0M0 42.8l51.1 51M93.8 51.1L42.8 0M57.5 138.8L0 196.4M81.3 148.7l-23.8 57.5-23.8 57.5M115 182.4l-57.5 23.8L0 230M42.8 0L0 42.8"/>
    <path d="M47.6 297.4L0 182.4M115 230l-67.4 67.4M83.7 217v80.4M230 277.7L115 0M115 230l115-47.7M198.7 297.4V0M230 42.8l-51.1 51M136.2 51.1l51-51.1M172.5 138.8l57.5 57.6M148.7 148.7l23.8 57.5 23.8 57.5M115 182.4l57.5 23.8L230 230M187.2 0L230 42.8"/>
    <path d="M182.4 297.4l47.6-115M115 230l67.4 67.4M146.3 217v80.4"/>
    <path d="M115 594.7V297.4M0 594.7l148.7-148.6M230 594.7L82.2 446.9M81.3 513.4l33.7 14 33.7-14 13.9-33.7-13.9-33.6-33.7-14-33.7 14-13.9 33.6zM162.6 479.7l-47.6 115M162.6 479.7l-47.6-115M67.4 479.7l47.6-115M115 432.1L0 479.8M0 479.7l115 47.7M115 297.4L230 345M115 527.4l115-47.7M230 479.7l-115-47.6M0 345l115-47.6M230 563.5H0M0 317l115 277.7M115 364.7L0 412.4M31.3 297.4v297.3M0 552l51.1-51.1M93.8 543.7l-51 51M57.5 455.9L0 398.3M81.3 446.1l-23.8-57.5-23.8-57.5M115 412.4l-57.5-23.8L0 364.7M42.8 594.7L0 552"/>
    <path d="M47.6 297.4L0 412.4M115 364.7l-67.4-67.3M83.7 377.7v-80.3M230 317L115 594.7M115 364.7l115 47.7M198.7 297.4v297.3M230 552l-51.1-51.1M136.2 543.7l51 51M172.5 455.9l57.5-57.6M148.7 446.1l23.8-57.5 23.8-57.5M115 412.4l57.5-23.8 57.5-23.9M187.2 594.7L230 552"/>
    <path d="M182.4 297.4l47.6 115M115 364.7l67.4-67.3M146.3 377.7v-80.3"/>
  </g>
</svg>
