<svg xmlns="http://www.w3.org/2000/svg" width="391.6" height="778.8" viewBox="0 0 391.6 778.8">
  <style>
    :root { --turquois: #4D9BA3; --blue: #262F66; --white: #FFFAF2; } .shape-1{fill:var(--turquois)} .shape-2{fill:var(--white)} .shape-3{fill:var(--blue)} .shape-4{fill:var(--white)} .guides{ stroke: #4FFF4F; display: none; fill: none}
  </style>
  <g id="pattern" class="line">
    <path class="shape-1" d="M195.8 498.4l-77.1-31.9-31.9-77.1 31.9-77 77.1-32 77.1 32 31.9 77-31.9 77.1zM0 109l-77.1-31.9V-77.1H77.1L109 0 77.1 77.1zM391.6 109l77.1-31.9V-77.1H314.6L282.6 0l32 77.1zM0 669.8l-77.1 32v154.1H77.1l31.9-77.1-31.9-77zM391.6 669.8l77.1 32v154.1H314.6l-32-77.1 32-77z"/>
      <path class="shape-2" d="M314.6-77.1H77.1L109 0 77.1 77.1 161 42.3l34.8 84 34.8-84 84 34.8-32-77.1zM118.7 312.4l-83.9 34.7L0 263.2l-34.8 83.9v84.6l34.8 84 34.8-84 83.9 34.8-31.9-77.1zM272.9 312.4l83.9 34.7 34.8-83.9 34.8 83.9v84.6l-34.8 84-34.8-84-83.9 34.8 31.9-77.1zM314.6 855.9H77.1l31.9-77.1-31.9-77 83.9 34.8 34.8-84 34.8 84 84-34.8-32 77z"/>
    <g>
      <path class="shape-3" d="M147.1 243.8l-28.4 68.6-83.9 34.7-34.8-84 28.3-68.3H98z"/>
      <path class="shape-3" d="M48.8 145.4l28.3-68.3L161 42.3l34.8 84-28.4 68.5H98zM244.5 243.8l28.4 68.6 83.9 34.7 34.8-84-28.3-68.3h-69.7z"/>
      <path class="shape-3" d="M342.8 145.4l-28.2-68.3-84-34.8-34.8 84 28.4 68.5h69.4zM147.1 535.1l-28.4-68.6-83.9-34.8-34.8 84L28.3 584l69.7.1z"/>
      <path class="shape-3" d="M48.8 633.5l28.3 68.3 83.9 34.8 34.8-84-28.4-68.6-69.4.1zM244.5 535.1l28.4-68.6 83.9-34.8 34.8 84-28.3 68.3-69.7.1z"/>
      <path class="shape-3" d="M342.8 633.5l-28.2 68.3-84 34.8-34.8-84 28.4-68.6 69.4.1z"/>
    </g>
    <path class="shape-4" d="M48.8 145.4l28.3-68.3L0 109l-77.1-31.9L0 263.1l28.3-68.3H98zM342.8 145.4l-28.2-68.3 77 31.9 77.1-31.9-77.1 186-28.3-68.3h-69.7zM244.5 243.8l49.1-49h-69.4l-28.4-68.5-28.4 68.5H98l49.1 49-28.4 68.6 77.1-32 77.1 32zM48.8 633.5l28.3 68.3-77.1-32-77.1 32L0 515.7 28.3 584l69.7.1zM342.8 633.5l-28.2 68.3 77-32 77.1 32-77.1-186.1-28.3 68.3-69.7.1zM244.5 535.1l49.1 49-69.4-.1-28.4 68.6-28.4-68.6-69.4.1 49.1-49-28.4-68.6 77.1 31.9 77.1-31.9z"/>
  </g>
  <g class="guides">
    <circle cx="-98" cy="194.8" r="109"/>
    <circle cx="-98" cy="584.1" r="109"/>
    <circle r="109"/>
    <circle cy="778.8" r="109"/>
    <circle cx="195.8" cy="389.4" r="109"/>
    <circle cx="293.6" cy="194.8" r="109"/>
    <circle cx="293.6" cy="584.1" r="109"/>
    <circle cx="391.6" r="109"/>
    <circle cx="391.6" cy="778.8" r="109"/>
    <circle cx="489.7" cy="194.8" r="109"/>
    <circle cx="489.7" cy="584.1" r="109"/>
    <circle cx="98" cy="194.8" r="109"/>
    <circle cx="98" cy="584.1" r="109"/>
    <path d="M0 0l195.8 389.4M0 389.4h391.6M0 778.8l195.8-389.4M109 0L0 263.1M109 778.9L0 515.7M161 42.3L0 109M161 42.3l34.8 84M161 736.6L0 669.8M161 736.6l34.8-84M178.6 0L17.3 389.4M178.6 778.8L17.3 389.4M195.8 126.3L77.1 77.1M195.8 652.6L77.1 701.8M195.8 0v778.8M195.8 126.3l118.8-49.2M195.8 652.6l118.8 49.2M213.1 0l161.3 389.4M213.1 778.8l161.3-389.4M230.6 42.3l-34.8 84M230.6 42.3l161 66.7M230.6 736.6l161-66.8M230.6 736.6l-34.8-84M282.6 0l109 263.1M282.6 778.9l109-263.2M304.8 389.4l-109-263.1M304.8 389.4l-109 263.2M34.8 347.1L-109 0M34.8 347.1l161-66.7M34.8 431.7L-109 778.8M34.8 431.7l161 66.7M356.9 347.1l-161.1-66.7M356.9 347.1L500.6 0M356.9 431.7l-161.1 66.7M356.9 431.7l143.7 347.1M391.6 0L195.8 389.4M391.6 778.8L195.8 389.4M86.8 389.4l109-263.1M86.8 389.4l109 263.2M0 0h391.6v778.8H0z"/>
  </g>
</svg>
