<?xml version="1.0" encoding="utf-8"?>
<!-- Generator: Adobe Illustrator 13.0.0, SVG Export Plug-In . SVG Version: 6.00 Build 14948)  -->
<!DOCTYPE svg PUBLIC "-//W3C//DTD SVG 1.1//EN" "http://www.w3.org/Graphics/SVG/1.1/DTD/svg11.dtd">
<svg version="1.1" xmlns="http://www.w3.org/2000/svg" xmlns:xlink="http://www.w3.org/1999/xlink" x="0px" y="0px" width="339px"
	 height="578.712px" viewBox="0 0 339 578.712" style="enable-background:new 0 0 339 578.712;" xml:space="preserve">
<style type="text/css">
<![CDATA[
	.st0{display:inline;fill:none;stroke:#FF14FF;}
	.st1{fill:#EBFF00;}
	.st2{fill:#1F6D72;}
	.st3{fill:#1F6DC7;}
	.st4{fill:#1FFF72;}
	.st5{fill:#BB585B;}
	.st6{fill:#BBA25B;}
	.st7{fill:#FF005B;}
	.st8{fill:#FF8B3F;}
	.st9{fill:#FF8BE3;}
	.st10{fill:#68905B;}
	.st11{display:none;}
	#Layer_3 {
	stroke: #000; stroke-width: 10;

	}
]]>
</style>
<g id="Layer_3">
	<g>
		<polygon class="st1" points="169.5,99.29 219.146,119.854 239.71,169.5 219.146,219.146 169.5,239.71 119.854,219.146 
			99.29,169.5 119.854,119.854 		"/>
		<polygon class="st1" points="169.499,339 219.146,359.564 239.71,409.211 219.146,458.857 169.499,479.422 119.853,458.857 
			99.289,409.211 119.853,359.564 		"/>
	</g>
	<polygon class="st3" points="258.84,289.355 200.151,265.047 219.146,219.147 169.5,239.71 119.854,219.146 138.848,265.047 
		80.159,289.356 138.862,313.672 119.854,359.565 169.5,339 219.146,359.564 200.137,313.672 	"/>
	<g>
		<polygon class="st2" points="45.877,110.757 73.978,138.856 119.854,119.854 99.29,169.5 119.854,219.146 73.978,200.147 
			45.875,228.251 45.875,188.507 0,169.5 45.875,150.498 		"/>
		<polygon class="st2" points="45.877,350.468 73.978,378.567 119.853,359.564 99.289,409.211 119.853,458.857 73.978,439.858 
			45.874,467.962 45.875,428.218 -0.001,409.211 45.875,390.209 		"/>
		<polygon class="st2" points="293.122,110.757 265.021,138.856 219.146,119.854 239.709,169.5 219.146,219.147 265.021,200.147 
			293.125,228.25 293.124,188.507 339,169.5 293.124,150.498 		"/>
		<polygon class="st2" points="293.122,350.467 265.022,378.566 219.146,359.564 239.71,409.211 219.146,458.857 265.022,439.857 
			293.125,467.961 293.125,428.217 339,409.211 293.125,390.209 		"/>
	</g>
	<g>
		<polygon class="st4" points="228.246,45.875 188.502,45.875 169.5,0 150.497,45.875 110.753,45.875 138.856,73.979 
			119.854,119.854 169.5,99.29 219.146,119.854 200.143,73.979 		"/>
		<polygon class="st4" points="228.245,532.836 188.501,532.836 169.499,578.711 150.497,532.836 110.753,532.836 138.856,504.732 
			119.853,458.857 169.499,479.422 219.145,458.857 200.142,504.732 		"/>
	</g>
	<g>
		<polygon class="st10" points="73.978,200.147 45.875,228.251 45.875,275.155 80.159,289.356 138.848,265.047 119.854,219.146 		
			"/>
		<polygon class="st10" points="80.159,289.356 45.875,303.558 45.877,350.468 73.978,378.567 119.854,359.565 138.862,313.672 		
			"/>
		<polygon class="st10" points="265.021,200.147 293.125,228.25 293.124,275.154 258.84,289.355 200.151,265.047 219.146,219.147 		
			"/>
		<polygon class="st10" points="258.84,289.355 293.124,303.557 293.122,350.467 265.022,378.566 219.146,359.564 200.137,313.672 
					"/>
	</g>
	<g>
		<polygon class="st9" points="80.159,289.356 45.875,275.155 45.875,228.251 0,274.126 -45.875,228.251 -45.876,275.155 
			-80.16,289.356 -45.876,303.558 -45.878,350.468 0,304.59 45.877,350.468 45.875,303.558 		"/>
		<polygon class="st9" points="419.159,289.355 384.875,275.154 384.875,228.25 339,274.125 293.125,228.25 293.124,275.154 
			258.84,289.355 293.124,303.557 293.122,350.467 339,304.59 384.877,350.467 384.875,303.557 		"/>
	</g>
	<g>
		<polygon class="st5" points="0,169.5 -45.876,188.507 -45.875,228.251 0,274.126 45.875,228.251 45.875,188.507 		"/>
		<polygon class="st5" points="45.877,350.468 0,304.59 -45.878,350.468 -45.875,390.209 -0.001,409.211 -0.001,409.211 0,409.211 
			0,409.211 0,409.211 45.875,390.209 		"/>
		<polygon class="st5" points="339,169.5 293.124,188.507 293.125,228.25 339,274.125 384.875,228.25 384.875,188.507 		"/>
		<polygon class="st5" points="384.877,350.467 339,304.59 293.122,350.467 293.125,390.209 338.999,409.21 338.999,409.211 
			339,409.211 339,409.211 339,409.21 384.875,390.209 		"/>
	</g>
	<g>
		<polygon class="st7" points="45.875,45.875 45.877,110.757 73.978,138.856 119.854,119.854 138.856,73.979 110.753,45.875 		"/>
		<polygon class="st7" points="0,64.879 -45.878,110.757 -45.876,150.498 0,169.5 45.875,150.498 45.877,110.757 		"/>
		<polygon class="st7" points="293.124,45.875 293.122,110.757 265.021,138.856 219.146,119.854 200.143,73.979 228.246,45.875 		
			"/>
		<polygon class="st7" points="150.497,-45.875 110.753,-45.875 64.878,0 110.753,45.875 150.497,45.875 169.5,0 		"/>
		<polygon class="st7" points="228.246,-45.875 188.502,-45.875 169.5,0 188.502,45.875 228.246,45.875 274.121,0 		"/>
		<polygon class="st7" points="339,64.879 293.122,110.757 293.124,150.498 339,169.5 384.875,150.498 384.877,110.757 		"/>
		<polygon class="st7" points="45.875,532.836 45.877,467.954 73.978,439.854 119.853,458.857 138.856,504.732 110.753,532.836 		
			"/>
		<polygon class="st7" points="-0.001,513.832 -45.879,467.954 -45.876,428.213 -0.001,409.211 45.875,428.213 45.877,467.954 		"/>
		<polygon class="st7" points="293.123,532.836 293.121,467.954 265.021,439.854 219.145,458.857 200.142,504.732 228.245,532.836 
					"/>
		<polygon class="st7" points="150.497,624.586 110.753,624.586 64.878,578.711 110.753,532.836 150.497,532.836 169.499,578.711 		
			"/>
		<polygon class="st7" points="228.245,624.586 188.501,624.586 169.499,578.711 188.501,532.836 228.245,532.836 274.12,578.711 		
			"/>
		<polygon class="st7" points="338.999,513.832 293.121,467.954 293.123,428.213 338.999,409.211 384.875,428.213 384.877,467.954 
					"/>
	</g>
	<g>
		<polygon class="st6" points="19.003,45.875 0,64.879 45.877,110.757 45.875,45.875 		"/>
		<polygon class="st6" points="64.878,0 45.876,19.003 45.875,45.875 110.753,45.875 		"/>
		<polygon class="st6" points="319.997,45.875 339,64.879 293.122,110.757 293.124,45.875 		"/>
		<polygon class="st6" points="274.121,0 293.124,19.003 293.124,45.875 228.246,45.875 		"/>
		<polygon class="st6" points="19.002,532.836 -0.001,513.832 45.877,467.954 45.875,532.836 		"/>
		<polygon class="st6" points="64.878,578.711 45.875,559.708 45.875,532.836 110.753,532.836 		"/>
		<polygon class="st6" points="319.996,532.836 338.999,513.832 293.121,467.954 293.123,532.836 		"/>
		<polygon class="st6" points="274.12,578.711 293.123,559.708 293.123,532.836 228.245,532.836 		"/>
	</g>
	<g>
		<polygon class="st8" points="-21.75,65.5 -21.875,-21.875 65,-21.75 64.878,0 45.876,19.003 45.875,45.875 19.003,45.875 
			0,64.879 		"/>
		<polygon class="st8" points="372,67 360.875,-21.875 276.898,-38.898 274.121,0 293.124,19.003 293.124,45.875 319.997,45.875 
			339,64.879 		"/>
		<polygon class="st8" points="-35.362,516.361 -21.876,600.586 62.973,615.026 64.878,578.711 45.875,559.708 45.875,532.836 
			19.002,532.836 -0.001,513.832 		"/>
		<polygon class="st8" points="380,533 360.874,600.586 278,623 274.12,578.711 293.123,559.708 293.123,532.836 319.996,532.836 
			338.999,513.832 		"/>
	</g>
</g>
<g id="Layer_2" class="st11">
	<polygon class="st0" points="339,578.712 169.5,578.712 0,578.712 0,289.355 0,0 169.5,0 339,0 339,289.355 	"/>
	<line class="st0" x1="99.289" y1="409.211" x2="148.925" y2="289.379"/>
	<line class="st0" x1="190.064" y1="289.356" x2="239.71" y2="409.213"/>
	<line class="st0" x1="45.875" y1="578.712" x2="45.875" y2="0"/>
	<line class="st0" x1="293.125" y1="578.712" x2="293.125" y2="0"/>
	<line class="st0" x1="339" y1="289.356" x2="0" y2="289.356"/>
	<line class="st0" x1="73.978" y1="138.856" x2="73.978" y2="439.855"/>
	<line class="st0" x1="0" y1="0" x2="289.356" y2="289.356"/>
	<line class="st0" x1="0" y1="0" x2="169.628" y2="409.521"/>
	<line class="st0" x1="339" y1="0" x2="49.644" y2="289.356"/>
	<line class="st0" x1="339" y1="0" x2="169.497" y2="409.215"/>
	<line class="st0" x1="169.5" y1="409.212" x2="169.5" y2="0"/>
	<line class="st0" x1="0" y1="169.5" x2="339" y2="169.5"/>
	<circle class="st0" cx="0" cy="0" r="169.5"/>
	<circle class="st0" cx="339" cy="0" r="169.5"/>
	<circle class="st0" cx="169.5" cy="169.5" r="70.209"/>
	<line class="st0" x1="148.921" y1="289.324" x2="99.29" y2="169.501"/>
	<line class="st0" x1="239.71" y1="169.5" x2="190.063" y2="289.356"/>
	<line class="st0" x1="339" y1="169.5" x2="169.499" y2="239.712"/>
	<line class="st0" x1="169.497" y1="99.292" x2="339" y2="169.5"/>
	<line class="st0" x1="169.499" y1="239.713" x2="0" y2="169.5"/>
	<line class="st0" x1="0" y1="169.5" x2="169.497" y2="99.292"/>
	<line class="st0" x1="169.5" y1="0" x2="239.709" y2="169.503"/>
	<line class="st0" x1="99.29" y1="169.503" x2="169.5" y2="0"/>
	<circle class="st0" cx="339" cy="0" r="119.854"/>
	<circle class="st0" cx="0" cy="0" r="119.854"/>
	<line class="st0" x1="0" y1="45.875" x2="339" y2="45.875"/>
	<line class="st0" x1="0" y1="0" x2="110.753" y2="45.875"/>
	<line class="st0" x1="339" y1="0" x2="228.246" y2="45.875"/>
	<line class="st0" x1="73.978" y1="138.856" x2="0" y2="64.879"/>
	<line class="st0" x1="138.856" y1="73.979" x2="64.878" y2="0"/>
	<line class="st0" x1="64.878" y1="0" x2="0" y2="64.879"/>
	<line class="st0" x1="265.021" y1="138.856" x2="339" y2="64.879"/>
	<line class="st0" x1="200.143" y1="73.979" x2="274.121" y2="0"/>
	<line class="st0" x1="274.121" y1="0" x2="339" y2="64.879"/>
	<line class="st0" x1="0" y1="578.712" x2="289.356" y2="289.355"/>
	<line class="st0" x1="0" y1="578.712" x2="169.5" y2="169.503"/>
	<line class="st0" x1="339" y1="578.712" x2="49.644" y2="289.355"/>
	<line class="st0" x1="339" y1="578.712" x2="169.499" y2="169.499"/>
	<line class="st0" x1="169.5" y1="169.5" x2="169.5" y2="578.712"/>
	<line class="st0" x1="0" y1="409.212" x2="339" y2="409.212"/>
	<circle class="st0" cx="0" cy="578.712" r="169.5"/>
	<circle class="st0" cx="339" cy="578.712" r="169.5"/>
	<circle class="st0" cx="169.5" cy="409.212" r="70.209"/>
	<line class="st0" x1="148.922" y1="289.388" x2="99.29" y2="409.211"/>
	<line class="st0" x1="239.711" y1="409.212" x2="190.064" y2="289.355"/>
	<line class="st0" x1="339" y1="409.212" x2="169.5" y2="339"/>
	<line class="st0" x1="169.498" y1="479.421" x2="339" y2="409.212"/>
	<line class="st0" x1="169.499" y1="338.999" x2="0" y2="409.212"/>
	<line class="st0" x1="0" y1="409.212" x2="169.498" y2="479.421"/>
	<line class="st0" x1="169.5" y1="578.712" x2="239.71" y2="409.209"/>
	<line class="st0" x1="99.29" y1="409.209" x2="169.5" y2="578.712"/>
	<circle class="st0" cx="339" cy="578.712" r="119.855"/>
	<circle class="st0" cx="0" cy="578.712" r="119.855"/>
	<line class="st0" x1="0" y1="532.837" x2="339" y2="532.837"/>
	<line class="st0" x1="0" y1="578.712" x2="110.754" y2="532.837"/>
	<line class="st0" x1="339" y1="578.712" x2="228.246" y2="532.837"/>
	<line class="st0" x1="73.979" y1="439.855" x2="0" y2="513.833"/>
	<line class="st0" x1="138.857" y1="504.733" x2="64.878" y2="578.712"/>
	<line class="st0" x1="64.878" y1="578.712" x2="0" y2="513.833"/>
	<line class="st0" x1="265.021" y1="439.855" x2="339" y2="513.833"/>
	<line class="st0" x1="200.143" y1="504.733" x2="274.122" y2="578.712"/>
	<line class="st0" x1="274.122" y1="578.712" x2="339" y2="513.833"/>
	<line class="st0" x1="265.021" y1="138.856" x2="265.021" y2="439.855"/>
	<circle class="st0" cx="119.863" cy="219.154" r="49.665"/>
	<path class="st0" d="M138.835,265.053"/>
	<line class="st0" x1="45.875" y1="303.558" x2="138.848" y2="265.047"/>
</g>
</svg>
