<svg xmlns="http://www.w3.org/2000/svg" width="339" height="578.7" viewBox="0 0 339 578.7">
  <style>
    :root { --black: #443430; --gold: #CEA600; --turquois: #4D9BA3; --blue: #262F66; --white: #FFFAF2; } .shape-1{fill:var(--blue)} .shape-2{fill:var(--white)} .shape-3{fill:var(--white)} .shape-4{fill:var(--white)} .shape-5{fill:var(--blue)} .shape-6{fill:var(--white)} .shape-7{fill:var(--blue)} .shape-8{fill:var(--blue)} .shape-9{fill:var(--white)} .shape-10{fill:var(--turquois)} .guides{ stroke: #4FFF4F; display: none; fill: none}
  </style>
  <g id="pattern" class="line">
    <path class="shape-1" d="M169.5 99.3l49.6 20.6 20.6 49.6-20.6 49.6-49.6 20.6-49.6-20.6-20.6-49.6 20.6-49.6zm0 239.7l49.6 20.6 20.6 49.6-20.6 49.7-49.6 20.5-49.6-20.5-20.6-49.7 20.6-49.6z"/>
    <path class="shape-2" d="M258.8 289.4L200.2 265l18.9-45.9-49.6 20.6-49.6-20.6 18.9 45.9-58.6 24.4 58.7 24.3-19 45.9 49.6-20.6 49.6 20.6-19-45.9z"/>
    <path class="shape-3" d="M45.9 110.8L74 138.9l45.9-19-20.6 49.6 20.6 49.6-45.9-19-28.1 28.2v-39.8L0 169.5l45.9-19zm0 239.7L74 378.6l45.9-19-20.6 49.6 20.6 49.7-45.9-19L45.9 468v-39.8L0 409.2l45.9-19zm247.2-239.7L265 138.9l-45.9-19 20.6 49.6-20.6 49.6 45.9-19 28.1 28.2v-39.8l45.9-19-45.9-19zm0 239.7L265 378.6l-45.9-19 20.6 49.6-20.6 49.7 45.9-19 28.1 28.1v-39.8l45.9-19-45.9-19z"/>
    <path class="shape-4" d="M228.2 45.9h-39.7L169.5 0l-19 45.9h-39.7L138.9 74l-19 45.9 49.6-20.6 49.6 20.6-19-45.9zm0 486.9h-39.7l-19 45.9-19-45.9h-39.7l28.1-28.1-19-45.8 49.6 20.5 49.6-20.5-19 45.8z"/>
    <path class="shape-5" d="M74 200.1l-28.1 28.2v46.9l34.3 14.2 58.6-24.4-18.9-45.9zm6.2 89.3l-34.3 14.2v46.9L74 378.6l45.9-19 19-45.9zM265 200.1l28.1 28.2v46.9l-34.3 14.2-58.6-24.4 18.9-45.9zm-6.2 89.3l34.3 14.2v46.9L265 378.6l-45.9-19-19-45.9z"/>
    <path class="shape-6" d="M80.2 289.4l-34.3-14.2v-46.9L0 274.1l-45.9-45.8v46.9l-34.3 14.2 34.3 14.2v46.9L0 304.6l45.9 45.9v-46.9zm339 0l-34.3-14.2v-46.9L339 274.1l-45.9-45.8v46.9l-34.3 14.2 34.3 14.2v46.9l45.9-45.9 45.9 45.9v-46.9z"/>
    <path class="shape-7" d="M0 169.5l-45.9 19v39.8L0 274.1l45.9-45.8v-39.8zm45.9 181L0 304.6l-45.9 45.9v39.7l45.9 19 45.9-19zm293.1-181l-45.9 19v39.8l45.9 45.8 45.9-45.8v-39.8zm45.9 181L339 304.6l-45.9 45.9v39.7l45.9 19 45.9-19z"/>
    <path class="shape-8" d="M45.9 45.9v64.9L74 138.9l45.9-19 19-45.9-28.1-28.1zM0 64.9l-45.9 45.9v39.7l45.9 19 45.9-19v-39.7zm293.1-19v64.9L265 138.9l-45.9-19-19-45.9 28.1-28.1zM150.5-45.9h-39.7L64.9 0l45.9 45.9h39.7l19-45.9zm77.7 0h-39.7L169.5 0l19 45.9h39.7L274.1 0zM339 64.9l-45.9 45.9v39.7l45.9 19 45.9-19v-39.7zM45.9 532.8V468L74 439.9l45.9 19 19 45.8-28.1 28.1zM0 513.8L-45.9 468v-39.8l45.9-19 45.9 19V468zm293.1 19V468L265 439.9l-45.9 19-19 45.8 28.1 28.1zm-142.6 91.8h-39.7l-45.9-45.9 45.9-45.9h39.7l19 45.9zm77.7 0h-39.7l-19-45.9 19-45.9h39.7l45.9 45.9zM339 513.8L293.1 468v-39.8l45.9-19 45.9 19V468z"/>
    <path class="shape-9" d="M19 45.9l-19 19 45.9 45.9V45.9zM64.9 0l-19 19v26.9h64.9zM320 45.9l19 19-45.9 45.9V45.9zM274.1 0l19 19v26.9h-64.9zM19 532.8l-19-19L45.9 468v64.8zm45.9 45.9l-19-19v-26.9h64.9zM320 532.8l19-19-45.9-45.8v64.8zm-45.9 45.9l19-19v-26.9h-64.9z"/>
    <path class="shape-10" d="M-21.8 65.5l-.1-87.4 86.9.1L64.9 0l-19 19v26.9H19l-19 19zM372 67l-11.1-88.9-84-17L274.1 0l19 19v26.9H320l19 19zM-35.4 516.4l13.5 84.2L63 615l1.9-36.3-19-19v-26.9H19l-19-19zM380 533l-19.1 67.6L278 623l-3.9-44.3 19-19v-26.9H320l19-19z"/>
  </g>
  <g class="guides">
    <path d="M339 578.7H0V0h339v289.4zM99.3 409.2l49.6-119.8m41.2 0l49.6 119.8M45.9 578.7V0m247.2 578.7V0M339 289.4H0m74-150.5v301M0 0l289.4 289.4M0 0l169.6 409.5M339 0L49.6 289.4M339 0L169.5 409.2m0 0V0M0 169.5h339M0 45.9h339M0 0l110.8 45.9M339 0L228.2 45.9M74 138.9l-74-74M138.9 74l-74-74m0 0L0 64.9m265 74l74-74M200.1 74l74-74m0 0L339 64.9M0 578.7l289.4-289.3M0 578.7l169.5-409.2M339 578.7L49.6 289.4M339 578.7L169.5 169.5m0 0v409.2M0 409.2h339M0 532.8h339M0 578.7l110.8-45.9M339 578.7l-110.8-45.9M74 439.9L0 513.8m138.9-9.1l-74 74m0 0L0 513.8m265-73.9l74 73.9m-138.9-9.1l74 74m0 0l64.9-64.9m-74-374.9v301M45.9 303.6l92.9-38.6m10.1 24.3L99.3 169.5m140.4 0l-49.6 119.9M339 169.5l-169.5 70.2m0-140.4L339 169.5m-169.5 70.2L0 169.5m0 0l169.5-70.2m0-99.3l70.2 169.5m-140.4 0L169.5 0m-20.6 289.4L99.3 409.2m140.4 0l-49.6-119.8M339 409.2L169.5 339m0 140.4L339 409.2M169.5 339L0 409.2m0 0l169.5 70.2m0 99.3l70.2-169.5m-140.4 0l70.2 169.5"/>
    <circle r="169.5"/>
    <circle cx="339" r="169.5"/>
    <circle cx="169.5" cy="169.5" r="70.2"/>
    <circle cx="339" r="119.9"/>
    <circle r="119.9"/>
    <circle cy="578.7" r="169.5"/>
    <circle cx="339" cy="578.7" r="169.5"/>
    <circle cx="169.5" cy="409.2" r="70.2"/>
    <circle cx="339" cy="578.7" r="119.9"/>
    <circle cy="578.7" r="119.9"/>
    <circle cx="119.9" cy="219.2" r="49.7"/>
  </g>
</svg>
