<svg xmlns="http://www.w3.org/2000/svg" width="451" height="451" viewBox="0 0 451 451">
  <style>
    :root { --black: #443430; --gold: #CEA600; --turquois: #4D9BA3; --blue: #262F66; --white: #FFFAF2; } .shape-1{fill:var(--turquois)} .shape-2{fill:var(--white)} .shape-3{fill:var(--white)} .shape-4{fill:var(--blue)} .guides{ stroke: #4FFF4F; display: none; fill: none}
  </style>
  <g id="pattern" class="line">
    <path class="shape-1" d="M338.3 178.8l-46.8-19.3-19.3-46.7-46.7 19.3-46.7-19.3-19.3 46.7-46.7 19.3 19.3 46.7-19.3 46.7 46.7 19.3 19.3 46.8 46.7-19.4 46.7 19.4 19.3-46.8 46.8-19.3-19.4-46.7z"/>
    <path class="shape-2" d="M357.6 132.1l46.7-19.3L385 66l-46.8-19.3-19.3 46.7-46.7 19.4 19.3 46.7 46.8 19.3zM252.9 66l19.3-46.7L225.5 0l-46.7 19.3L198.1 66l-19.3 46.8 46.7 19.3 46.7-19.3zM451 225.5l-19.3-46.7-46.7 19.3-46.7-19.3-19.4 46.7 19.4 46.7 46.7-19.3 46.7 19.3z"/>
    <path class="shape-2" d="M132.1 93.4l-19.3-46.7L66 66l-19.3 46.8 46.7 19.3 19.4 46.7 46.7-19.3 19.3-46.7zM272.2 338.3l-46.7-19.4-46.7 19.4 19.3 46.7-19.3 46.7 46.7 19.3 46.7-19.3-19.3-46.7zM357.6 318.9l-19.3-46.7-46.8 19.3-19.3 46.8 46.7 19.3 19.3 46.7L385 385l19.3-46.7zM132.1 225.5l-19.3-46.7L66 198.1l-46.7-19.3L0 225.5l19.3 46.7L66 252.9l46.8 19.3zM178.8 338.3l-19.3-46.8-46.7-19.3-19.4 46.7-46.7 19.3L66 385l46.8 19.3 19.3-46.7z"/>
    <path class="shape-3" d="M66 66L0 93.4-66 66-93.4 0-66-66 0-93.4 66-66 93.4 0zM517 66l-66 27.4L385 66 357.6 0 385-66l66-27.4L517-66l27.4 66zM517 517l-66 27.4-66-27.4-27.4-66 27.4-66 66-27.4 66 27.4 27.4 66zM66 517L0 544.4-66 517l-27.4-66 27.4-66 66-27.4L66 385l27.4 66z"/>
    <path class="shape-4" d="M385 385l-46.8 19.3-19.3-46.7-46.7-19.3-19.3 46.7 19.3 46.7-46.7 19.3-46.7-19.3 19.3-46.7-19.3-46.7-46.7 19.3-19.3 46.7L66 385l27.4 66L66 517h319l-27.4-66zM19.3 272.2L0 225.5l19.3-46.7L66 198.1l46.8-19.3-19.4-46.7-46.7-19.3L66 66 0 93.4-66 66v319l66-27.4L66 385l-19.3-46.8 46.7-19.3 19.4-46.7L66 252.9zM451 93.4L385 66l19.3 46.8-46.7 19.3-19.3 46.7 46.7 19.3 46.7-19.3 19.3 46.7-19.3 46.7-46.7-19.3-46.7 19.3 19.3 46.7 46.7 19.4L385 385l66-27.4 66 27.4V66zM385 66L357.6 0 385-66H66L93.4 0 66 66l46.8-19.3 19.3 46.7 46.7 19.4L198.1 66l-19.3-46.7L225.5 0l46.7 19.3L252.9 66l19.3 46.8 46.7-19.4 19.3-46.7z"/>
  </g>
  <g class="guides">
    <circle cx="225.5" cy="225.5" r="225.5"/>
    <path d="M0 0h451v451H0zM451 0L0 451M0 0l451 451M225.5 0v451M0 225.5h451"/>
    <path d="M66 66l159.5 385L385 66 0 225.5 385 385 225.5 0 66 385l385-159.5z"/>
    <path d="M225.5 0L385 66l66 159.5L385 385l-159.5 66L66 385 0 225.5 66 66zM170.8 0l186.8 451M93.4 0l186.8 451M280.2 0L93.4 451M357.6 0L170.8 451M451 170.8L0 357.6M451 93.4L0 280.2M451 280.2L0 93.4M451 357.6L0 170.8"/>
  </g>
</svg>
