<svg xmlns="http://www.w3.org/2000/svg" width="726.9" height="726.9" viewBox="0 0 726.9 726.9">
  <style>
    :root { --black: #443430; --gold: #CEA600; --turquois: #4D9BA3; --blue: #262F66; --white: #FFFAF2; } .shape-1{fill:var(--turquois)} .shape-2{fill:var(--white)} .shape-3{fill:var(--blue)} .shape-4{fill:var(--white)} .shape-5{fill:var(--blue)} .shape-6{fill:var(--white)} .shape-7{fill:var(--blue)} .shape-8{fill:var(--white)} .shape-9{fill:var(--blue)} .shape-10{fill:var(--white)} .shape-11{fill:var(--gold)} .guides{ stroke: #4FFF4F; display: none; fill: none}
  </style>
  <g id="pattern" class="line">
    <path class="shape-1" d="M444.9 363.5l20.3-20.3-26.5-10.9 11-26.5h-28.6v-28.6l-26.5 11-10.9-26.5-20.2 20.3-20.3-20.2-10.9 26.4-26.5-11v28.6h-28.6l11 26.5-26.5 10.9 20.3 20.3-20.3 20.2 26.5 10.9-11 26.5h28.6v28.6l26.5-11 10.9 26.5 20.2-20.3 20.3 20.3 10.9-26.5 26.5 11v-28.6h28.6l-11-26.5 26.5-10.9zM808.4 0l20.2-20.2-26.4-11 10.9-26.4h-28.6v-28.6l-26.4 10.9-11-26.4-20.2 20.2-20.2-20.2-11 26.4-26.4-10.9v28.6h-28.6l10.9 26.4-26.4 11L645.4 0l-20.2 20.2 26.4 11-10.9 26.4h28.6v28.6l26.4-10.9 11 26.4 20.2-20.2 20.2 20.2 11-26.4 26.4 10.9V57.6h28.6l-10.9-26.4 26.4-11zM81.5 726.9l20.2-20.2-26.4-11 10.9-26.4H57.6v-28.6l-26.4 10.9-11-26.4L0 645.4l-20.2-20.2-11 26.4-26.4-10.9v28.6h-28.6l10.9 26.4-26.4 11 20.2 20.2-20.2 20.2 26.4 11-10.9 26.4h28.6v28.6l26.4-10.9 11 26.4L0 808.4l20.2 20.2 11-26.4 26.4 10.9v-28.6h28.6l-10.9-26.4 26.4-11zm726.9 0l20.2-20.2-26.4-11 10.9-26.4h-28.6v-28.6l-26.4 10.9-11-26.4-20.2 20.2-20.2-20.2-11 26.4-26.4-10.9v28.6h-28.6l10.9 26.4-26.4 11 20.2 20.2-20.2 20.2 26.4 11-10.9 26.4h28.6v28.6l26.4-10.9 11 26.4 20.2-20.2 20.2 20.2 11-26.4 26.4 10.9v-28.6h28.6l-10.9-26.4 26.4-11zM81.5 0l20.2-20.2-26.4-11 10.9-26.4H57.6v-28.6L31.2-75.3l-11-26.4L0-81.5l-20.2-20.2-11 26.4-26.4-10.9v28.6h-28.6l10.9 26.4-26.4 11L-81.5 0l-20.2 20.2 26.4 11-10.9 26.4h28.6v28.6l26.4-10.9 11 26.4L0 81.5l20.2 20.2 11-26.4 26.4 10.9V57.6h28.6L75.3 31.2l26.4-11z"/>
    <path class="shape-2" d="M465.2 383.7l48.8-20.2-48.8-20.3-20.3 20.3zm-44.1-77.9h28.6l20.2-48.8-48.8 20.2v28.6zM363.5 282l20.2-20.3-20.2-48.8-20.3 48.9 20.3 20.2zm57.6 139.1v28.6l48.8 20.2-20.2-48.8h-28.6zm-77.9 44.1l20.3 48.8 20.2-48.8-20.3-20.3zm-81.5-122l-48.8 20.3 48.8 20.2 20.3-20.2zm15.5 77.9L257 469.9l48.8-20.2v-28.6zm188-77.9l37.3-37.4h-52.8l-11 26.5zm-203.5 40.5l-37.3 37.4h52.8l11-26.5zm177 10.9l11 26.5h52.8l-37.3-37.4zm-150.5-62.3l-11-26.5h-52.8l37.3 37.4zm44.1-44.1l10.9-26.4-37.4-37.4v52.8l26.5 11zm-26.5-11L257 257l20.2 48.8h28.6zm0 172.5v52.8l37.4-37.3-10.9-26.5zm77.9 15.5l37.4 37.3v-52.8l-26.5-11zm10.9-177l26.5-11v-52.8l-37.4 37.3zm312.1-186.5l20.2 48.9 20.2-48.9-20.2-20.2zM625.2-20.2L576.4 0l48.8 20.2L645.4 0zm15.5 77.8l-20.2 48.9 48.8-20.3V57.6zm-15.5-37.4l-37.4 37.4h52.9l10.9-26.4zm44.1 66v52.9l37.4-37.4-11-26.4zM101.7 747.1l48.8-20.2-48.8-20.2-20.2 20.2zm-44.1-77.8h28.6l20.3-48.8-48.9 20.2v28.6zM0 645.4l20.2-20.2L0 576.4l-20.2 48.8L0 645.4z"/>
    <path class="shape-2" d="M101.7 706.7l37.4-37.4H86.2l-10.9 26.4zm-70.5-55.1l26.4-10.9v-52.9l-37.4 37.4zm695.7-6.2l20.2-20.2-20.2-48.8-20.2 48.8 20.2 20.2zm-101.7 61.3l-48.8 20.2 48.8 20.2 20.2-20.2zm26.4-11l-10.9-26.4h-52.9l37.4 37.4zm44.1-44.1l11-26.4-37.4-37.4v52.9l26.4 10.9zm-26.4-10.9l-48.8-20.2 20.2 48.8h28.6zM101.7 20.2L150.5 0l-48.8-20.2L81.5 0zM57.6 57.6v28.6l48.9 20.3-20.3-48.9H57.6zm-77.8 44.1L0 150.6l20.2-48.9L0 81.5zm95.5-70.5l10.9 26.4h52.9l-37.4-37.4zm-55.1 70.5l37.4 37.4V86.2L31.2 75.3z"/>
    <path class="shape-3" d="M469.9 469.9l-48.8-20.2v52.8l23.8 23.9 21.5-8.9 16.4-16.4zM514 363.5l-48.8 20.2 37.3 37.4h33.8l8.9-21.5v-23.2zM363.5 514l-20.3-48.8-37.4 37.3v33.8l21.5 8.9h23.2zm-57.7-11.5v-52.8L257 469.9l-12.9 31.2 16.4 16.4 21.5 8.9zM257 469.9l20.2-48.8h-52.8l-23.9 23.8 8.9 21.5 16.4 16.4z"/>
    <path class="shape-3" d="M421.1 502.5l-37.4-37.3-20.2 48.8 12.9 31.2h23.2l21.5-8.9zM224.4 305.8h52.8L257 257l-31.2-12.9-16.4 16.4-8.9 21.5zm-11.5 57.7l48.8-20.3-37.3-37.4h-33.8l-8.9 21.5v23.2zm11.5 57.6l37.3-37.4-48.8-20.2-31.2 12.9v23.2l8.9 21.5zM257 257l48.8 20.2v-52.8L282 200.5l-21.5 8.9-16.4 16.4zm245.5 164.1h-52.8l20.2 48.8 31.2 12.9 16.4-16.4 8.9-21.5zm-81.4-196.7v52.8l48.8-20.2 12.9-31.2-16.4-16.4-21.5-8.9zm-57.6-11.5l20.2 48.8 37.4-37.3v-33.8l-21.5-8.9h-23.2z"/>
    <path class="shape-3" d="M469.9 257l-20.2 48.8h52.8l23.9-23.8-8.9-21.5-16.4-16.4zm-164.1-32.6l37.4 37.3 20.3-48.8-13-31.2h-23.2l-21.5 8.9zm196.7 81.4l-37.3 37.4 48.8 20.3 31.2-13v-23.2l-8.9-21.5zm224.4-155.2l-20.2-48.9-37.4 37.4v33.7l21.5 8.9H714zm-57.6-11.5V86.2l-48.8 20.3-13 31.1 16.5 16.5 21.4 8.9zm-48.8-32.6l20.2-48.9h-52.9L564 81.5l8.8 21.4 16.5 16.5zm-32.7-48.9l37.4-37.4L576.4 0l-31.2 12.9v23.2l8.9 21.5zM57.6 587.8v52.9l48.9-20.2 12.9-31.2-16.5-16.5-21.4-8.8zM0 576.4l20.2 48.8 37.4-37.4v-33.7l-21.5-8.9H12.9zm106.5 44.1l-20.3 48.8h52.9l23.8-23.9-8.8-21.4-16.5-16.5zm32.6 48.8l-37.4 37.4 48.8 20.2 31.2-12.9v-23.2l-8.9-21.5zm448.7 0h52.9l-20.2-48.8-31.2-13-16.5 16.5-8.8 21.4zm-11.4 57.6l48.8-20.2-37.4-37.4h-33.7l-8.9 21.5V714zm44.1-106.4l48.8 20.2v-52.9L645.4 564l-21.4 8.8-16.5 16.5zm48.8-32.7l37.4 37.4 20.2-48.8-12.9-31.2h-23.2l-21.5 8.9zM106.5 106.5L57.6 86.2v52.9L81.5 163l21.4-8.9 16.5-16.5zM150.5 0l-48.8 20.2 37.4 37.4h33.7l8.9-21.4V12.9zM57.6 139.1l-37.4-37.4L0 150.6l12.9 31.1h23.2l21.5-8.9zm81.5-81.5H86.2l20.3 48.9 31.1 12.9 16.5-16.5 8.8-21.4z"/>
    <path class="shape-4" d="M288.2 181.7l-27.7 27.7 21.5-8.9 23.8 23.9v-33.8l21.5-8.9zm-63.8 239.4h-33.8l-8.9-21.5v39.1l27.7 27.7-8.9-21.5zm36.1-211.7l-36.1 15-15 36.1 16.4-16.4L257 257l-12.9-31.2zm257 51.1l8.9 21.5-23.9 23.8h33.8l8.9 21.5v-39.1zM305.8 536.3v-33.8L282 526.4l-21.5-8.9 27.7 27.7h39.1zm132.9-354.6h-39.1l21.5 8.9v33.8l23.8-23.9 21.5 8.9zm6.2 344.7l-23.8-23.9v33.8l-21.5 8.9h39.1l27.7-27.7zM200.5 282l8.9-21.5-27.7 27.7v39.1l8.9-21.5h33.8zm335.8 139.1h-33.8l23.9 23.8-8.9 21.5 27.7-27.7v-39.1zm-292.2 80l12.9-31.2-31.2 12.9-16.4-16.4 15 36.1 36.1 15zm119.4-334.3l-36.2 14.9h23.2l13 31.2 12.9-31.2h23.2zm12.9 378.4L363.5 514l-13 31.2h-23.2l36.2 15 36.1-15zm126.1-320.8l-36.1-15 16.4 16.4-12.9 31.2 31.2-12.9 16.4 16.4z"/>
    <path class="shape-4" d="M501.1 482.8l-31.2-12.9 12.9 31.2-16.4 16.4 36.1-15 15-36.1zM181.7 350.5v-23.2l-14.9 36.2 14.9 36.1v-23.2l31.2-12.9zm378.5 13l-15-36.2v23.2l-31.2 13 31.2 12.9v23.2zm27.6-305.9h-33.7l-8.9-21.5v39.2l27.6 27.6-8.8-21.4zm81.5 115.2v-33.7L645.4 163l-21.4-8.9 27.6 27.6h39.2zm-61.8-35.2l13-31.1-31.2 12.9-16.5-16.5 15 36.2 36.2 15z"/>
    <path class="shape-4" d="M739.8 181.7l-12.9-31.1-12.9 31.1h-23.2l36.1 15 36.2-15zM545.2-12.9v-23.2L530.2 0l15 36.1V12.9L576.4 0zM154.1 624l8.8 21.4-23.8 23.9h33.7l8.9 21.5v-39.2zm-78.8-78.8H36.1l21.5 8.9v33.7L81.5 564l21.4 8.8zM0 530.2l-36.1 15h23.2L0 576.4l12.9-31.2h23.2z"/>
    <path class="shape-4" d="M139.1 587.8l-36.2-15 16.5 16.5-12.9 31.2 31.1-13 16.5 16.5zm57.6 139.1l-15-36.1V714l-31.2 12.9 31.2 12.9v23.3zm454.9-181.7L624 572.8l21.4-8.8 23.9 23.8v-33.7l21.5-8.9zM624 572.8l-36.2 15-15 36.2 16.5-16.5 31.2 13-13-31.2zm-60 72.6l8.8-21.4-27.6 27.6v39.2l8.9-21.5h33.7zm162.9-115.2l-36.1 15H714l12.9 31.2 12.9-31.2h23.3z"/>
    <path class="shape-4" d="M545.2 714v-23.2l-15 36.1 15 36.2v-23.3l31.2-12.9zM81.5 163l-23.9-23.9v33.7l-21.5 8.9h39.2l27.6-27.6zm91.3-105.4h-33.7l23.8 23.9-8.8 21.4 27.6-27.6V36.2zM12.9 181.7L0 150.6l-12.9 31.1h-23.2l36.1 15 36.1-15z"/>
    <path class="shape-4" d="M137.6 119.4l-31.1-12.9 12.9 31.1-16.5 16.5 36.2-15 15-36.2zM196.7 0l-15-36.1v23.2L150.5 0l31.2 12.9v23.3z"/>
    <path class="shape-5" d="M260.5 517.5l-36.1-15 17.6 42.7h46.2zm-51.1-257l15-36.1-42.7 17.6v46.2zm257-51.1l36.1 15-17.6-42.7h-46.2zm51.1 257l-15 36.1 42.7-17.6v-46.2zM399.6 181.7h39.1l-32.6-32.6-42.6 17.7zm145.6 217.9v39.1l32.6-32.6-17.6-42.6zM327.3 545.2h-39.1l32.6 32.6 42.7-17.6zM181.7 327.3v-39.1l-32.6 32.6 17.7 42.7zm78.8-117.9l27.7-27.7H242l-17.6 42.7zm205.9 308.1l-27.7 27.7h46.2l17.6-42.7zm-257-51.1l-27.7-27.7v46.2l42.7 17.6zm308.1-205.9l27.7 27.7V242l-42.7-17.6zM181.7 399.6l-14.9-36.1-17.7 42.6 32.6 32.6zm363.5-72.3l15 36.2 17.6-42.7-32.6-32.6zM399.6 545.2l-36.1 15 42.6 17.6 32.6-32.6zm-72.3-363.5l36.2-14.9-42.7-17.7-32.6 32.6zM624 154.1l-36.2-15 17.7 42.6h46.1zm66.8 27.6h-39.2l32.7 32.7 42.6-17.7zm-118-78.8l-27.6-27.6v46.1l42.6 17.7zm-27.6-66.8L530.2 0l-17.7 42.6 32.7 32.7zM102.9 572.8l36.2 15-17.7-42.6H75.3zm-66.8-27.6h39.2l-32.7-32.7L0 530.2zm118 78.8l27.6 27.6v-46.1l-42.6-17.7zm27.6 66.8l15 36.1 17.7-42.6-32.7-32.7zM572.8 624l15-36.2-42.6 17.7v46.1z"/>
    <path class="shape-5" d="M545.2 690.8v-39.2l-32.7 32.7 17.7 42.6zm78.8-118l27.6-27.6h-46.1l-17.7 42.6z"/>
    <path class="shape-5" d="M690.8 545.2l36.1-15-42.6-17.7-32.7 32.7zM154.1 102.9l-15 36.2 42.6-17.7V75.3zm27.6-66.7v39.1l32.7-32.7L196.7 0zm-78.8 117.9l-27.6 27.6h46.1l17.7-42.6zm-66.8 27.6L0 196.7l42.6 17.7 32.7-32.7z"/>
    <path class="shape-6" d="M242 181.7h-60.3V242l42.7-17.6zm-60.3 303.2v60.3H242l-17.6-42.7zM545.2 242v-60.3h-60.3l17.6 42.7zm-60.3 303.2h60.3v-60.3l-42.7 17.6zm92.9-139.1l42.7-42.6-42.7-42.7-17.6 42.7zm-428.7-85.3l-42.6 42.7 42.6 42.6 17.7-42.6zm257-171.7l-42.6-42.6-42.7 42.6 42.7 17.7zm-85.3 428.7l42.7 42.7 42.6-42.7-42.6-17.6zm164.1-396.1L461.8 126l-55.7 23.1 32.6 32.6zm92.9 224.4l-32.6 32.6v46.2l55.7-23.1zM181.7 242L126 265.1l23.1 55.7 32.6-32.6zM242 545.2l23.1 55.7 55.7-23.1-32.6-32.6zm-92.9-139.1L126 461.8l55.7 23.1v-46.2zm428.7-85.3l23.1-55.7-55.7-23.1v46.2z"/>
    <path class="shape-6" d="M406.1 577.8l55.7 23.1 23.1-55.7h-46.2zm-85.3-428.7L265.1 126 242 181.7h46.2zm224.4-27.7v60.3h60.3l-17.7-42.6zm-32.7-164L469.9 0l42.6 42.6L530.2 0zm171.8 257l42.6 42.6 42.6-42.6-42.6-17.7z"/>
    <path class="shape-6" d="M605.5 181.7l23.1 55.7 55.7-23-32.7-32.7zm-93-139.1l-23 55.8 55.7 23V75.3zM181.7 605.5v-60.3h-60.3l17.7 42.6zm32.7 164l42.6-42.6-42.6-42.6-17.7 42.6zm-171.8-257L0 469.9l-42.6 42.6L0 530.2zm78.8 32.7l-23.1-55.7-55.7 23 32.7 32.7zm93 139.1l23-55.7-55.7-23.1v46.1zm391.1-139.1h-60.3v60.3l42.6-17.7zm-93 139.1l-42.6 42.6 42.6 42.6 17.7-42.6zm257-171.8l-42.6-42.6-42.6 42.6 42.6 17.7z"/>
    <path class="shape-6" d="M545.2 605.5l-55.7 23.1 23 55.7 32.7-32.7zm139.1-93l-55.7-23-23.1 55.7h46.1zM121.4 181.7h60.3v-60.3l-42.6 17.7zm93-139.1L257 0l-42.6-42.6L196.7 0zm-257 171.8L0 257l42.6-42.6L0 196.7zm257-171.8l-32.7 32.7v46.1l55.7-23zM42.6 214.4l55.7 23 23.1-55.7H75.3z"/>
    <g>
      <path class="shape-7" d="M545.2 181.7V242l55.7 23.1 8.1-19.6 19.6-8.1-23.1-55.7zm0 363.5h60.3l23.1-55.7-19.6-8.1-8.1-19.6-55.7 23.1zM181.7 181.7H242l23.1-55.7-19.6-8.1-8.1-19.5-55.7 23zm363.5 0v-60.3l-55.7-23-8.1 19.5-19.6 8.1 23.1 55.7zM181.7 545.2v-60.3L126 461.8l-8.1 19.6-19.6 8.1 23.1 55.7zm0-363.5h-60.3l-23.1 55.7 19.6 8.1 8.1 19.6 55.7-23.1zm363.5 363.5h-60.3l-23.1 55.7 19.6 8.1 8.1 19.6 55.7-23.1zm-363.5 0v60.3l55.7 23.1 8.1-19.6 19.6-8.1-23.1-55.7z"/>
    </g>
    <g>
      <path class="shape-8" d="M628.6 237.4l-19.6 8.1-8.1 19.6 47.2 19.6zm-27.7 224.4l8.1 19.6 19.6 8.1 19.5-47.3zM237.4 98.4l8.1 19.5 19.6 8.1 19.6-47.2zM461.8 126l19.6-8.1 8.1-19.5-47.3-19.6zM98.3 489.5l19.6-8.1 8.1-19.6-47.2-19.6zM126 265.1l-8.1-19.6-19.6-8.1-19.5 47.3zm363.5 363.5l-8.1-19.6-19.6-8.1-19.6 47.2zm-224.4-27.7l-19.6 8.1-8.1 19.6 47.3 19.5z"/>
    </g>
    <g>
      <path class="shape-9" d="M600.9 265.1l-23.1 55.7 42.7 42.7-42.7 42.6 23.1 55.7 47.2-19.6 32.7-78.7-32.7-78.8zm27.7 224.4l55.7 23 42.6-42.6 42.6 42.6 55.8-23-19.6-47.3-78.8-32.6-78.8 32.6z"/>
      <path class="shape-9" d="M825.3 237.4l-55.8-23-42.6 42.6-42.6-42.6-55.7 23 19.5 47.3 78.8 32.6 78.8-32.6zM265.1 126l55.7 23.1 42.7-42.6 42.6 42.6 55.7-23.1-19.6-47.2-78.7-32.6-78.8 32.6zm224.4-27.6l23-55.8L469.9 0l42.6-42.6-23-55.7-47.3 19.5L409.6 0l32.6 78.8z"/>
      <path class="shape-9" d="M237.4-98.3l-23 55.7L257 0l-42.6 42.6 23 55.8 47.3-19.6L317.3 0l-32.6-78.8zM126 461.8l23.1-55.7-42.6-42.6 42.6-42.7-23.1-55.7-47.2 19.6-32.6 78.8 32.6 78.7zM98.3 237.4l-55.7-23L0 257l-42.6-42.6-55.8 23 19.6 47.3L0 317.3l78.8-32.6z"/>
      <path class="shape-9" d="M-98.4 489.5l55.8 23L0 469.9l42.6 42.6 55.7-23-19.5-47.3L0 409.6l-78.8 32.6zm560.2 111.4l-55.7-23.1-42.6 42.7-42.7-42.7-55.7 23.1 19.6 47.2 78.8 32.7 78.7-32.7zm-224.4 27.7l-23 55.7 42.6 42.6-42.6 42.6 23 55.8 47.3-19.6 32.6-78.8-32.6-78.8z"/>
      <path class="shape-9" d="M489.5 825.3l23-55.8-42.6-42.6 42.6-42.6-23-55.7-47.3 19.5-32.6 78.8 32.6 78.8z"/>
    </g>
    <g>
      <path class="shape-10" d="M680.8 363.5l-32.7 78.7 78.8-32.6-32.6-13.5zm-32.7-78.8l32.7 78.8 13.5-32.7 32.6-13.5zM363.5 46.2l78.7 32.6L409.6 0l-13.5 32.6zm-78.8 32.6l78.8-32.6-32.7-13.6L317.3 0zM46.2 363.5l32.6-78.8L0 317.3l32.6 13.5zm32.6 78.7l-32.6-78.7-13.6 32.6L0 409.6zm284.7 238.6l-78.8-32.7 32.6 78.8 13.5-32.6zm78.7-32.7l-78.7 32.7 32.6 13.5 13.5 32.6z"/>
    </g>
    <g>
      <path class="shape-11" d="M726.9 317.3l32.6 13.5 13.6 32.7-13.6 32.6-32.6 13.5-32.6-13.5-13.5-32.6 13.5-32.7zM317.3 0l13.5-32.6 32.7-13.5 32.6 13.5L409.6 0l-13.5 32.6-32.6 13.6-32.7-13.6zM0 409.6l-32.6-13.5-13.6-32.6 13.6-32.7L0 317.3l32.6 13.5 13.6 32.7-13.6 32.6zm409.6 317.3l-13.5 32.6-32.6 13.6-32.7-13.6-13.5-32.6 13.5-32.6 32.7-13.5 32.6 13.5z"/>
    </g>
  </g>
  <g class="guides">
    <circle cx="363.4" cy="363.5" r="257"/>
    <circle cx="726.9" cy="726.9" r="257"/>
    <circle cx="726.9" r="257"/>
    <circle cy="726.9" r="257"/>
    <circle r="257"/>
    <path d="M-119.4 589.3l44.1 106.4 44.1 106.5 44.1 106.4m106.5-44.1L75.3 758.1 31.2 651.6l-44.1-106.4M-119.4-137.6l44.1 106.4 44.1 106.5 44.1 106.4m106.5-44.1L75.3 31.2 31.2-75.3l-44.1-106.4"/>
    <path d="M-181.7 545.2h363.5v363.5h-363.5z"/>
    <path d="M-181.7 714l106.4 44.1 106.5 44.1 106.4 44.1m44.1-106.5L75.3 695.7l-106.5-44.1-106.4-44.1M-181.7-12.9l106.4 44.1L31.2 75.3l106.4 44.1m44.1-106.5L75.3-31.2-31.2-75.3l-106.4-44.1"/>
    <path d="M-181.7-181.7h363.5v363.5h-363.5zM-237.4 628.6L98.4 489.5l139.1 335.8-335.8 139z"/>
    <path d="M-237.4 825.2l139.1-335.8 335.8 139.1-139 335.8zm0 .1l474.8-196.7M98.3 964.3L-98.4 489.5m-139 139.1l474.8 196.7m-335.8 139L98.3 489.5M-237.4 98.3l139.1-335.8L237.5-98.4l-139 335.8zm0 .1L237.4-98.3M98.3 237.4L-98.4-237.4m-139 139.1L237.4 98.4m-335.8 139L98.3-237.4"/>
    <path d="M-237.4-98.3L98.4-237.4 237.5 98.4l-335.8 139z"/>
    <path d="M-257 0L0-257 257.2 0 .1 257zm75.3-181.7l363.4 363.4m-363.4 0l363.4-363.4M-257 727L0 469.8l257 257L0 984zm75.3-181.8l363.4 363.4m-363.4 0l363.4-363.4"/>
    <path d="M-57.6 554.1H57.6v115.2H-57.6z"/>
    <path d="M-57.6 669.3H57.6v115.2H-57.6zm0 115.2H57.6v115.2H-57.6zM-57.6-172.8H57.6v115.2H-57.6zm0 115.2H57.6V57.6H-57.6zm0 115.2H57.6v115.2H-57.6z"/>
    <path d="M0 0h726.9v726.9H0z"/>
    <path d="M106.4 363.4l257-257 257 257-257 257zm257.1 363.5V0M0 363.5h726.9M181.7 181.7l363.5 363.5m-363.5 0l363.5-363.5M12.9 545.2l-44.1 106.4-44.1 106.5-44.1 106.4m106.5 44.1l44.1-106.4 44.1-106.5 44.1-106.4M12.9-181.7L-31.2-75.3-75.3 31.2l-44.1 106.4m106.5 44.1L31.2 75.3 75.3-31.2l44.1-106.4"/>
    <path d="M126 265l335.8-139L601 461.8l-335.8 139z"/>
    <path d="M126 461.7L265.1 126l335.8 139L462 600.8zm0 .1l474.9-196.7M461.8 600.9L265.1 126M126 265.1l474.9 196.7M265.1 600.9L461.8 126M137.6 607.5L31.2 651.6l-106.5 44.1-106.4 44.1m44.1 106.5l106.4-44.1 106.5-44.1L181.7 714M137.6-119.4L31.2-75.3-75.3-31.2l-106.4 44.1m44.1 106.5l106.4-44.1L75.3 31.2l106.4-44.1"/>
    <path d="M163 808.4l-81.5-81.5L0 645.4-81.5 564M163 81.5L81.5 0 0-81.5l-81.5-81.4"/>
    <path d="M172.8 669.3h-345.6m0 115.2h345.6M-57.6 554.1v345.6m115.2 0V554.1m23.9 9.9L0 645.4l-81.5 81.5-81.5 81.5m81.5 81.5L0 808.4l81.5-81.5 81.5-81.5m-326 0l81.5 81.5L0 808.4l81.5 81.5M172.8-57.6h-345.6m0 115.2h345.6M-57.6-172.8v345.6m115.2 0v-345.6m23.9 9.9L0-81.5-81.5 0-163 81.5m81.5 81.5L0 81.5 81.5 0 163-81.5m-326 0L-81.5 0 0 81.5 81.5 163M181.7 181.7h363.5v363.5H181.7z"/>
    <path d="M181.7 350.5l106.5 44.1 106.4 44.1 106.5 44.1m44.1-106.4l-106.5-44.1-106.4-44.1-106.5-44.1"/>
    <path d="M200.5 282l81.5 81.5 81.5 81.4 81.4 81.5m81.5-81.5l-81.5-81.4-81.4-81.5-81.5-81.5"/>
    <path d="M244.1 225.8l44.1 106.5 44.1 106.4 44.1 106.5m106.4-44.1l-44.1-106.5-44.1-106.4-44.1-106.5"/>
    <path d="M305.8 190.6H421v115.2H305.8zm0 115.2H421V421H305.8zm0 115.3H421v115.2H305.8z"/>
    <path d="M376.4 181.7l-44.1 106.5-44.1 106.4-44.1 106.5m106.4 44.1l44.1-106.5 44.1-106.4 44.1-106.5M469.9 727l257-257.1 257 257-257 257zm75.3-181.8l363.4 363.4m-363.4 0l363.4-363.4M470 0l257-257L984 0 727 257.2zm75.2-181.7l363.4 363.4m-363.4 0l363.4-363.4"/>
    <path d="M489.5 628.6l335.8-139.1 139.1 335.8-335.8 139z"/>
    <path d="M489.5 825.2l139.1-335.8 335.8 139.1-139 335.8zm0 .1l474.8-196.7m-139 335.7L628.6 489.5M489.5 628.6l474.8 196.7m-335.7 139l196.7-474.8M489.5 98.3l139.1-335.8L964.4-98.4l-139 335.8zm0 .1L964.3-98.3m-139 335.7L628.6-237.4M489.5-98.3L964.3 98.4m-335.7 139l196.7-474.8"/>
    <path d="M489.5-98.3l335.8-139.1L964.4 98.4l-335.8 139zM501.1 244.1l-106.5 44.1-106.4 44.1-106.5 44.1m44.1 106.4l106.5-44.1 106.4-44.1 106.5-44.1"/>
    <path d="M536.3 305.8H190.6m0 115.3h345.7M305.8 190.6v345.7m115.3 0V190.6m23.8 9.9L363.5 282 282 363.5l-81.5 81.4m81.5 81.5l81.5-81.5 81.4-81.4 81.5-81.5M545.2 545.2h363.5v363.5H545.2z"/>
    <path d="M545.2 714l106.4 44.1 106.5 44.1 106.4 44.1m44.1-106.5l-106.4-44.1-106.5-44.1-106.4-44.1m137.6-290.2l32.6 13.5 13.6 32.7-13.6 32.6-32.6 13.5-32.6-13.5-13.5-32.6 13.5-32.7zm-98.3-79.9l52.2 126.1m0 0l-52.2 126m98.3-172.2l-126-52.2m0 196.7l126-52.2m-126-144.4l8.1-19.7 19.6-8.1m0 252.1l-19.6-8.1-8.1-19.6M317.3 0l13.5-32.6 32.7-13.6 32.6 13.6L409.6 0l-13.5 32.6-32.6 13.6-32.7-13.6zm-79.9 98.4l126.1-52.2m0 0l126 52.1M317.3 0l-52.2 126m196.7 0L409.6 0M265.2 126l-19.7-8.1-8.1-19.5m252.1-.1l-8.1 19.6-19.6 8.1M0 409.6l-32.6-13.5-13.6-32.6 13.6-32.7L0 317.3l32.6 13.5 13.6 32.7-13.6 32.6zm98.3 79.9l-52.2-126m.1 0l52.1-126.1M0 409.6l126 52.2m0-196.7L0 317.3m126 144.4l-8.1 19.7-19.6 8.1m0-252.1l19.6 8.1 8.1 19.6m283.6 461.8l-13.5 32.6-32.6 13.6-32.7-13.6-13.5-32.6 13.5-32.6 32.7-13.5 32.6 13.5zm79.9-98.3l-126.1 52.2m0 0l-126-52.2m172.2 98.3l52.2-126m-196.7 0l52.2 126m144.4-126l19.7 8.1 8.1 19.6m-252.1 0l8.1-19.6 19.6-8.1M545.2-12.9l106.4 44.1 106.5 44.1 106.4 44.1m44.1-106.5L802.2-31.2 695.7-75.3l-106.4-44.1"/>
    <path d="M545.2-181.7h363.5v363.5H545.2zM564 645.4l81.4 81.5 81.5 81.5 81.5 81.5m81.5-81.5l-81.5-81.5-81.5-81.5-81.5-81.4"/>
    <path d="M564-81.5L645.4 0l81.5 81.5 81.5 81.5m81.5-81.5L808.4 0l-81.5-81.5-81.5-81.4M607.5 589.3l44.1 106.4 44.1 106.5 44.1 106.4m106.5-44.1l-44.1-106.4-44.1-106.5L714 545.2"/>
    <path d="M607.5-137.6l44.1 106.4 44.1 106.5 44.1 106.4m106.5-44.1L802.2 31.2 758.1-75.3 714-181.7M669.3 554.1h115.2v115.2H669.3z"/>
    <path d="M669.3 669.3h115.2v115.2H669.3zm0 115.2h115.2v115.2H669.3zM669.3-172.8h115.2v115.2H669.3zm0 115.2h115.2V57.6H669.3zm0 115.2h115.2v115.2H669.3z"/>
    <path d="M739.8 545.2l-44.1 106.4-44.1 106.5-44.1 106.4M714 908.6l44.1-106.4 44.1-106.5 44.1-106.4M739.8-181.7L695.7-75.3 651.6 31.2l-44.1 106.4M714 181.7l44.1-106.4 44.1-106.5 44.1-106.4"/>
    <path d="M864.5 607.5l-106.4 44.1-106.5 44.1-106.4 44.1m44.1 106.5l106.4-44.1 106.5-44.1L908.6 714M864.5-119.4L758.1-75.3 651.6-31.2 545.2 12.9m44.1 106.5l106.4-44.1 106.5-44.1 106.4-44.1"/>
    <path d="M899.7 669.3H554.1m0 115.2h345.6M669.3 554.1v345.6m115.2 0V554.1m23.9 9.9l-81.5 81.4-81.5 81.5-81.4 81.5m81.4 81.5l81.5-81.5 81.5-81.5 81.5-81.5M899.7-57.6H554.1m0 115.2h345.6M669.3-172.8v345.6m115.2 0v-345.6m23.9 9.9l-81.5 81.4L645.4 0 564 81.5m81.4 81.5l81.5-81.5L808.4 0l81.5-81.5"/>
  </g>
</svg>
