<?xml version="1.0" encoding="utf-8"?>
<!-- Generator: Adobe Illustrator 13.0.0, SVG Export Plug-In . SVG Version: 6.00 Build 14948)  -->
<!DOCTYPE svg PUBLIC "-//W3C//DTD SVG 1.1//EN" "http://www.w3.org/Graphics/SVG/1.1/DTD/svg11.dtd">
<svg version="1.1" xmlns="http://www.w3.org/2000/svg" xmlns:xlink="http://www.w3.org/1999/xlink" x="0px" y="0px"
	 width="726.904px" height="726.912px" viewBox="0 0 726.904 726.912" style="enable-background:new 0 0 726.904 726.912;"
	 xml:space="preserve">
<style type="text/css">
<![CDATA[
	.st0{fill:#477F00;}
	.st1{fill:none;stroke:#FF17FF;}
	.st2{display:inline;fill:none;stroke:#FF17FF;}
	.st3{fill:#EB5100;}
	.st4{fill:#EBFF00;}
	.st5{fill:#1FD2FF;}
	.st6{fill:#8D5100;}
	.st7{fill:#8D8B00;}
	.st8{fill:#FF571F;}
	.st9{fill:#FF57CA;}
	.st10{fill:#FFB11F;}
	.st11{display:inline;}
	.st12{fill:#001ADF;}
	.st13{fill:#3F571F;}
	.st14{display:none;}
]]>
</style>
<g id="Layer_3">
	<g>
		<polygon class="st8" points="444.927,363.457 465.159,343.225 438.726,332.277 449.675,305.843 421.064,305.843 421.063,305.843 
			421.063,277.233 421.063,277.232 394.63,288.181 383.682,261.749 383.681,261.749 363.451,281.979 363.451,281.98 343.22,261.75 
			332.271,288.181 332.271,288.182 305.837,277.233 305.837,305.843 277.227,305.843 288.176,332.276 261.743,343.225 
			261.742,343.226 261.742,343.226 281.973,363.458 261.743,383.687 261.743,383.688 288.176,394.637 277.228,421.069 
			277.229,421.069 305.837,421.069 305.837,449.679 332.271,438.731 343.22,465.164 363.45,444.934 383.681,465.166 
			383.682,465.165 394.63,438.732 421.063,449.681 421.063,449.679 421.063,421.069 421.064,421.069 449.674,421.069 
			438.725,394.636 465.158,383.687 		"/>
		<polygon class="st8" points="808.38,0.003 828.612,-20.228 802.179,-31.176 813.128,-57.61 784.517,-57.61 784.516,-57.61 
			784.516,-86.22 784.516,-86.221 758.083,-75.272 747.135,-101.705 747.134,-101.705 726.904,-81.474 726.904,-81.473 
			706.673,-101.704 695.724,-75.272 695.724,-75.271 669.291,-86.22 669.291,-57.61 640.68,-57.61 651.628,-31.177 625.196,-20.228 
			625.195,-20.227 625.195,-20.227 645.426,0.004 625.197,20.234 625.196,20.235 651.629,31.184 640.681,57.616 640.681,57.616 
			669.291,57.616 669.291,86.226 695.724,75.278 706.673,101.71 726.903,81.481 747.134,101.712 747.135,101.711 758.083,75.279 
			784.516,86.228 784.516,86.226 784.516,57.616 784.517,57.616 813.127,57.616 802.178,31.183 828.611,20.234 		"/>
		<polygon class="st8" points="81.474,726.91 101.706,706.678 75.273,695.73 86.222,669.296 57.611,669.296 57.61,669.296 
			57.61,640.686 57.61,640.685 31.177,651.634 20.229,625.202 20.228,625.202 -0.002,645.433 -0.002,645.433 -20.233,625.203 
			-31.182,651.634 -31.182,651.634 -57.616,640.686 -57.616,669.296 -86.226,669.296 -75.278,695.729 -101.71,706.678 
			-101.711,706.679 -101.711,706.679 -81.48,726.911 -101.709,747.14 -101.71,747.141 -75.277,758.09 -86.225,784.522 
			-86.225,784.522 -57.616,784.522 -57.616,813.132 -31.182,802.184 -20.233,828.617 -0.003,808.387 20.228,828.619 20.229,828.618 
			31.177,802.185 57.61,813.134 57.61,813.132 57.61,784.522 57.611,784.522 86.221,784.522 75.272,758.089 101.705,747.14 		"/>
		<polygon class="st8" points="808.38,726.91 828.612,706.678 802.179,695.73 813.128,669.296 784.517,669.296 784.516,669.296 
			784.516,640.686 784.516,640.685 758.083,651.634 747.135,625.202 747.134,625.202 726.904,645.433 726.904,645.433 
			706.673,625.203 695.724,651.634 695.724,651.634 669.291,640.686 669.291,669.296 640.68,669.296 651.628,695.729 
			625.196,706.678 625.195,706.679 625.195,706.679 645.426,726.911 625.197,747.14 625.196,747.141 651.629,758.09 
			640.681,784.522 640.681,784.522 669.291,784.522 669.291,813.132 695.724,802.184 706.673,828.617 726.903,808.387 
			747.134,828.619 747.135,828.618 758.083,802.185 784.516,813.134 784.516,813.132 784.516,784.522 784.517,784.522 
			813.127,784.522 802.178,758.089 828.611,747.14 		"/>
		<polygon class="st8" points="81.474,0.003 101.706,-20.228 75.273,-31.176 86.222,-57.61 57.611,-57.61 57.61,-57.61 
			57.61,-86.22 57.61,-86.221 31.177,-75.272 20.229,-101.705 20.228,-101.705 -0.002,-81.473 -0.002,-81.473 -20.233,-101.704 
			-31.182,-75.272 -31.182,-75.272 -57.616,-86.22 -57.616,-57.61 -86.226,-57.61 -75.278,-31.177 -101.71,-20.228 
			-101.711,-20.227 -101.711,-20.227 -81.48,0.004 -101.709,20.234 -101.71,20.235 -75.277,31.184 -86.225,57.616 -86.225,57.616 
			-57.616,57.616 -57.616,86.226 -31.182,75.278 -20.233,101.71 -0.003,81.481 20.228,101.712 20.229,101.711 31.177,75.279 
			57.61,86.228 57.61,86.226 57.61,57.616 57.611,57.616 86.221,57.616 75.272,31.183 101.705,20.234 		"/>
	</g>
	<g>
		<polygon class="st12" points="465.158,383.687 514,363.457 465.159,343.225 444.927,363.457 		"/>
		<polygon class="st12" points="421.064,305.843 449.675,305.843 469.906,257.001 421.063,277.233 421.063,305.843 		"/>
		<polygon class="st12" points="363.451,281.979 383.681,261.749 363.451,212.908 343.22,261.75 363.451,281.98 		"/>
		<polygon class="st12" points="421.063,421.069 421.063,449.679 469.906,469.912 449.674,421.069 421.064,421.069 		"/>
		<polygon class="st12" points="343.22,465.164 363.451,514.005 383.681,465.166 363.45,444.934 		"/>
		<polygon class="st12" points="261.742,343.226 212.901,363.457 261.743,383.687 281.973,363.458 		"/>
		<polygon class="st12" points="277.229,421.069 256.998,469.91 305.837,449.679 305.837,421.069 		"/>
		<polygon class="st12" points="465.159,343.225 502.541,305.843 449.675,305.843 438.726,332.277 		"/>
		<polygon class="st12" points="261.743,383.688 224.362,421.069 277.228,421.069 288.176,394.637 		"/>
		<polygon class="st12" points="438.725,394.636 449.674,421.069 502.54,421.069 465.158,383.687 		"/>
		<polygon class="st12" points="288.176,332.276 277.227,305.843 224.36,305.843 261.743,343.225 		"/>
		<polygon class="st12" points="332.271,288.181 343.22,261.75 305.837,224.367 305.837,277.233 332.271,288.182 		"/>
		<polygon class="st12" points="305.837,277.233 256.997,257.002 277.227,305.843 305.837,305.843 		"/>
		<polygon class="st12" points="305.837,449.679 305.837,502.546 343.22,465.164 332.271,438.731 		"/>
		<polygon class="st12" points="383.682,465.165 421.063,502.546 421.063,449.681 394.63,438.732 		"/>
		<polygon class="st12" points="394.63,288.181 421.063,277.232 421.063,224.368 383.682,261.749 		"/>
		<polygon class="st12" points="706.673,101.71 726.904,150.552 747.134,101.712 726.903,81.481 		"/>
		<polygon class="st12" points="625.195,-20.227 576.354,0.003 625.197,20.234 645.426,0.004 		"/>
		<polygon class="st12" points="640.681,57.616 620.451,106.457 669.291,86.226 669.291,57.616 		"/>
		<polygon class="st12" points="625.196,20.235 587.815,57.616 640.681,57.616 651.629,31.184 		"/>
		<polygon class="st12" points="669.291,86.226 669.291,139.093 706.673,101.71 695.724,75.278 		"/>
		<polygon class="st12" points="101.705,747.14 150.546,726.91 101.706,706.678 81.474,726.91 		"/>
		<polygon class="st12" points="57.611,669.296 86.222,669.296 106.453,620.455 57.61,640.686 57.61,669.296 		"/>
		<polygon class="st12" points="-0.002,645.433 20.228,625.202 -0.002,576.361 -20.233,625.203 -0.002,645.433 		"/>
		<polygon class="st12" points="101.706,706.678 139.087,669.296 86.222,669.296 75.273,695.73 		"/>
		<polygon class="st12" points="31.177,651.634 57.61,640.685 57.61,587.821 20.229,625.202 		"/>
		<polygon class="st12" points="726.904,645.433 747.134,625.202 726.904,576.361 706.673,625.203 726.904,645.433 		"/>
		<polygon class="st12" points="625.195,706.679 576.354,726.91 625.197,747.14 645.426,726.911 		"/>
		<polygon class="st12" points="651.628,695.729 640.68,669.296 587.813,669.296 625.196,706.678 		"/>
		<polygon class="st12" points="695.724,651.634 706.673,625.203 669.291,587.82 669.291,640.686 695.724,651.634 		"/>
		<polygon class="st12" points="669.291,640.686 620.45,620.456 640.68,669.296 669.291,669.296 		"/>
		<polygon class="st12" points="101.705,20.234 150.546,0.003 101.706,-20.228 81.474,0.003 		"/>
		<polygon class="st12" points="57.61,57.616 57.61,86.226 106.453,106.458 86.221,57.616 57.611,57.616 		"/>
		<polygon class="st12" points="-20.233,101.71 -0.002,150.552 20.228,101.712 -0.003,81.481 		"/>
		<polygon class="st12" points="75.272,31.183 86.221,57.616 139.086,57.616 101.705,20.234 		"/>
		<polygon class="st12" points="20.229,101.711 57.61,139.093 57.61,86.228 31.177,75.279 		"/>
	</g>
	<g>
		<polygon class="st5" points="469.906,469.912 421.063,449.681 421.063,502.546 444.924,526.409 466.39,517.517 482.82,501.088 		
			"/>
		<polygon class="st5" points="514,363.457 465.158,383.687 502.54,421.069 536.287,421.069 545.177,399.605 545.177,376.37 		"/>
		<polygon class="st5" points="363.451,514.005 343.22,465.164 305.837,502.546 305.837,536.292 327.304,545.183 350.537,545.183 		
			"/>
		<polygon class="st5" points="305.837,502.546 305.837,449.679 256.998,469.91 244.083,501.089 260.51,517.516 281.976,526.408 		
			"/>
		<polygon class="st5" points="256.998,469.91 277.228,421.069 224.362,421.069 200.5,444.931 209.392,466.398 225.819,482.825 		
			"/>
		<polygon class="st5" points="421.063,502.547 383.681,465.166 363.451,514.005 376.365,545.183 399.599,545.183 421.063,536.292 
					"/>
		<polygon class="st5" points="224.36,305.843 277.227,305.843 256.997,257.002 225.819,244.088 209.391,260.516 200.499,281.982 		
			"/>
		<polygon class="st5" points="212.901,363.457 261.742,343.226 224.36,305.843 190.616,305.843 181.724,327.31 181.724,350.542 		
			"/>
		<polygon class="st5" points="224.362,421.069 261.743,383.688 212.9,363.457 181.724,376.371 181.724,399.602 190.616,421.069 		
			"/>
		<polygon class="st5" points="256.997,257.002 305.837,277.233 305.837,224.367 281.976,200.505 260.511,209.396 244.083,225.825 
					"/>
		<polygon class="st5" points="502.54,421.069 449.674,421.069 469.906,469.912 501.082,482.826 517.511,466.397 526.402,444.931 		
			"/>
		<polygon class="st5" points="421.063,224.368 421.063,277.232 469.906,257.001 482.82,225.825 466.39,209.395 444.926,200.504 		
			"/>
		<polygon class="st5" points="363.451,212.908 383.681,261.749 421.063,224.368 421.063,190.62 399.6,181.73 376.366,181.73 		"/>
		<polygon class="st5" points="469.906,257.001 449.675,305.843 502.541,305.843 526.403,281.981 517.512,260.517 501.083,244.087 
					"/>
		<polygon class="st5" points="305.837,224.367 343.22,261.749 363.451,212.908 350.537,181.73 327.303,181.73 305.837,190.622 		
			"/>
		<polygon class="st5" points="502.541,305.843 465.159,343.225 514,363.456 545.177,350.542 545.177,327.307 536.287,305.843 		"/>
		<polygon class="st5" points="726.904,150.552 706.673,101.71 669.291,139.093 669.291,172.838 690.757,181.73 713.99,181.73 		"/>
		<polygon class="st5" points="669.291,139.093 669.291,86.226 620.451,106.457 607.537,137.636 623.963,154.063 645.429,162.955 		
			"/>
		<polygon class="st5" points="620.451,106.457 640.681,57.616 587.815,57.616 563.953,81.478 572.845,102.945 589.272,119.372 		
			"/>
		<polygon class="st5" points="587.815,57.616 625.196,20.235 576.353,0.003 545.177,12.917 545.177,36.149 554.069,57.616 		"/>
		<polygon class="st5" points="57.61,587.821 57.61,640.685 106.453,620.455 119.367,589.278 102.937,572.848 81.473,563.958 		"/>
		<polygon class="st5" points="-0.002,576.361 20.228,625.202 57.61,587.821 57.61,554.074 36.147,545.183 12.913,545.183 		"/>
		<polygon class="st5" points="106.453,620.455 86.222,669.296 139.087,669.296 162.95,645.434 154.059,623.97 137.629,607.541 		
			"/>
		<polygon class="st5" points="139.087,669.296 101.706,706.678 150.546,726.909 181.724,713.995 181.724,690.76 172.833,669.296 		
			"/>
		<polygon class="st5" points="587.813,669.296 640.68,669.296 620.45,620.456 589.272,607.542 572.843,623.969 563.953,645.435 		
			"/>
		<polygon class="st5" points="576.354,726.91 625.195,706.679 587.813,669.296 554.069,669.296 545.177,690.763 545.177,713.996 		
			"/>
		<polygon class="st5" points="620.45,620.456 669.291,640.686 669.291,587.82 645.429,563.958 623.964,572.849 607.536,589.278 		
			"/>
		<polygon class="st5" points="669.291,587.82 706.673,625.203 726.904,576.361 713.99,545.183 690.756,545.183 669.291,554.075 		
			"/>
		<polygon class="st5" points="106.453,106.458 57.61,86.228 57.61,139.093 81.471,162.956 102.937,154.064 119.367,137.635 		"/>
		<polygon class="st5" points="150.546,0.003 101.705,20.234 139.086,57.616 172.833,57.616 181.724,36.152 181.724,12.917 		"/>
		<polygon class="st5" points="57.61,139.094 20.228,101.712 -0.002,150.552 12.912,181.73 36.146,181.73 57.61,172.839 		"/>
		<polygon class="st5" points="139.086,57.616 86.221,57.616 106.453,106.458 137.628,119.373 154.058,102.944 162.949,81.478 		"/>
	</g>
	<g>
		<polygon class="st9" points="288.177,181.73 260.511,209.396 281.976,200.505 305.837,224.367 305.837,190.622 327.303,181.73 		
			"/>
		<polygon class="st9" points="224.362,421.069 190.616,421.069 181.724,399.602 181.724,438.73 209.392,466.398 200.5,444.931 		
			"/>
		<polygon class="st9" points="260.511,209.396 224.363,224.369 209.391,260.516 225.819,244.088 256.997,257.002 244.083,225.825 
					"/>
		<polygon class="st9" points="517.512,260.517 526.403,281.981 502.541,305.843 536.287,305.843 545.177,327.307 545.177,288.182 
					"/>
		<polygon class="st9" points="305.837,536.292 305.837,502.546 281.976,526.408 260.51,517.516 288.177,545.183 327.304,545.183 		
			"/>
		<polygon class="st9" points="438.725,181.73 399.6,181.73 421.063,190.62 421.063,224.368 444.926,200.504 466.39,209.395 		"/>
		<polygon class="st9" points="444.924,526.409 421.063,502.546 421.063,502.547 421.063,536.292 399.599,545.183 438.724,545.183 
			466.39,517.517 		"/>
		<polygon class="st9" points="200.499,281.982 209.391,260.516 181.724,288.183 181.724,327.31 190.616,305.843 224.36,305.843 		
			"/>
		<polygon class="st9" points="536.287,421.069 502.54,421.069 526.402,444.931 517.511,466.397 545.177,438.731 545.177,399.605 		
			"/>
		<polygon class="st9" points="244.083,501.089 256.998,469.91 256.998,469.91 225.819,482.825 209.392,466.398 224.364,502.544 
			260.51,517.516 		"/>
		<polygon class="st9" points="363.452,166.757 327.303,181.73 350.537,181.73 363.451,212.908 376.366,181.73 399.6,181.73 		"/>
		<polygon class="st9" points="376.365,545.183 363.451,514.005 350.537,545.183 327.304,545.183 363.452,560.156 399.599,545.183 
					"/>
		<polygon class="st9" points="502.539,224.368 466.39,209.395 482.82,225.825 469.906,257.001 501.083,244.087 517.512,260.517 		
			"/>
		<polygon class="st9" points="501.082,482.826 469.906,469.912 482.82,501.088 466.39,517.517 502.539,502.544 517.511,466.397 		
			"/>
		<polygon class="st9" points="181.724,350.542 181.724,327.31 166.752,363.457 181.724,399.602 181.724,376.371 212.9,363.457 
			212.901,363.457 		"/>
		<polygon class="st9" points="560.151,363.457 545.177,327.307 545.177,350.542 514,363.456 514,363.457 545.177,376.37 
			545.177,399.605 		"/>
		<polygon class="st9" points="587.815,57.616 554.069,57.616 545.177,36.149 545.177,75.277 572.845,102.945 563.953,81.478 		"/>
		<polygon class="st9" points="669.291,172.838 669.291,139.093 645.429,162.955 623.963,154.063 651.63,181.73 690.757,181.73 		
			"/>
		<polygon class="st9" points="607.537,137.636 620.451,106.457 620.451,106.457 589.272,119.372 572.845,102.945 587.817,139.091 
			623.963,154.063 		"/>
		<polygon class="st9" points="739.818,181.73 726.904,150.552 713.99,181.73 690.757,181.73 726.905,196.703 763.052,181.73 		"/>
		<polygon class="st9" points="545.177,-12.911 545.177,-36.143 530.205,0.003 545.177,36.149 545.177,12.917 576.353,0.003 
			576.354,0.003 		"/>
		<polygon class="st9" points="154.059,623.97 162.95,645.434 139.087,669.296 172.833,669.296 181.724,690.76 181.724,651.635 		
			"/>
		<polygon class="st9" points="75.272,545.183 36.147,545.183 57.61,554.074 57.61,587.821 81.473,563.958 102.937,572.848 		"/>
		<polygon class="st9" points="-0.001,530.21 -36.15,545.183 -12.917,545.183 -0.002,576.361 12.913,545.183 36.147,545.183 		"/>
		<polygon class="st9" points="139.085,587.822 102.937,572.848 119.367,589.278 106.453,620.455 137.629,607.541 154.059,623.97 		
			"/>
		<polygon class="st9" points="196.698,726.91 181.724,690.76 181.724,713.995 150.546,726.909 150.546,726.91 181.724,739.823 
			181.724,763.058 		"/>
		<polygon class="st9" points="651.63,545.183 623.964,572.849 645.429,563.958 669.291,587.82 669.291,554.075 690.756,545.183 		
			"/>
		<polygon class="st9" points="623.964,572.849 587.816,587.822 572.843,623.969 589.272,607.542 620.45,620.456 607.536,589.278 		
			"/>
		<polygon class="st9" points="563.953,645.435 572.843,623.969 545.177,651.636 545.177,690.763 554.069,669.296 587.813,669.296 
					"/>
		<polygon class="st9" points="726.905,530.21 690.756,545.183 713.99,545.183 726.904,576.361 739.819,545.183 763.053,545.183 		
			"/>
		<polygon class="st9" points="545.177,713.996 545.177,690.763 530.205,726.91 545.177,763.055 545.177,739.824 576.353,726.91 
			576.354,726.91 		"/>
		<polygon class="st9" points="81.471,162.956 57.61,139.093 57.61,139.094 57.61,172.839 36.146,181.73 75.271,181.73 
			102.937,154.064 		"/>
		<polygon class="st9" points="172.833,57.616 139.086,57.616 162.949,81.478 154.058,102.944 181.724,75.278 181.724,36.152 		"/>
		<polygon class="st9" points="12.912,181.73 -0.002,150.552 -12.917,181.73 -36.149,181.73 -0.001,196.703 36.146,181.73 		"/>
		<polygon class="st9" points="137.628,119.373 106.453,106.458 119.367,137.635 102.937,154.064 139.085,139.091 154.058,102.944 
					"/>
		<polygon class="st9" points="196.698,0.003 181.724,-36.146 181.724,-12.912 150.546,0.002 150.546,0.003 181.724,12.917 
			181.724,36.152 		"/>
	</g>
	<g>
		<polygon class="st10" points="260.51,517.516 224.364,502.544 242.026,545.183 288.177,545.183 		"/>
		<polygon class="st10" points="209.391,260.516 224.363,224.369 181.724,242.031 181.724,288.183 		"/>
		<polygon class="st10" points="466.39,209.395 502.539,224.368 484.877,181.73 438.725,181.73 		"/>
		<polygon class="st10" points="517.511,466.397 502.539,502.544 545.177,484.882 545.177,438.731 		"/>
		<polygon class="st10" points="399.6,181.73 438.725,181.73 406.09,149.095 363.452,166.757 		"/>
		<polygon class="st10" points="545.177,399.605 545.177,438.731 577.812,406.095 560.151,363.457 		"/>
		<polygon class="st10" points="327.304,545.183 288.177,545.183 320.812,577.818 363.452,560.156 		"/>
		<polygon class="st10" points="181.724,327.31 181.724,288.183 149.09,320.817 166.752,363.457 		"/>
		<polygon class="st10" points="260.511,209.396 288.177,181.73 242.025,181.73 224.363,224.369 		"/>
		<polygon class="st10" points="466.39,517.517 438.724,545.183 484.876,545.183 502.539,502.544 		"/>
		<polygon class="st10" points="209.392,466.398 181.724,438.73 181.724,484.882 224.364,502.544 		"/>
		<polygon class="st10" points="517.512,260.517 545.177,288.182 545.177,242.03 502.539,224.368 		"/>
		<polygon class="st10" points="181.724,399.602 166.752,363.457 149.09,406.096 181.724,438.73 		"/>
		<polygon class="st10" points="545.177,327.307 560.151,363.457 577.812,320.818 545.177,288.182 		"/>
		<polygon class="st10" points="399.599,545.183 363.452,560.156 406.09,577.817 438.724,545.183 		"/>
		<polygon class="st10" points="327.303,181.73 363.452,166.757 320.812,149.095 288.177,181.73 		"/>
		<polygon class="st10" points="623.963,154.063 587.817,139.091 605.479,181.73 651.63,181.73 		"/>
		<polygon class="st10" points="690.757,181.73 651.63,181.73 684.265,214.365 726.905,196.703 		"/>
		<polygon class="st10" points="572.845,102.945 545.177,75.277 545.177,121.429 587.817,139.091 		"/>
		<polygon class="st10" points="545.177,36.149 530.205,0.003 512.543,42.643 545.177,75.277 		"/>
		<polygon class="st10" points="102.937,572.848 139.085,587.822 121.424,545.183 75.272,545.183 		"/>
		<polygon class="st10" points="36.147,545.183 75.272,545.183 42.637,512.548 -0.001,530.21 		"/>
		<polygon class="st10" points="154.059,623.97 181.724,651.635 181.724,605.483 139.085,587.822 		"/>
		<polygon class="st10" points="181.724,690.76 196.698,726.91 214.359,684.271 181.724,651.635 		"/>
		<polygon class="st10" points="572.843,623.969 587.816,587.822 545.177,605.484 545.177,651.636 		"/>
		<polygon class="st10" points="545.177,690.763 545.177,651.636 512.543,684.27 530.205,726.91 		"/>
		<polygon class="st10" points="623.964,572.849 651.63,545.183 605.478,545.183 587.816,587.822 		"/>
		<polygon class="st10" points="690.756,545.183 726.905,530.21 684.265,512.548 651.63,545.183 		"/>
		<polygon class="st10" points="154.058,102.944 139.085,139.091 181.724,121.429 181.724,75.278 		"/>
		<polygon class="st10" points="181.724,36.152 181.724,75.278 214.359,42.642 196.698,0.003 		"/>
		<polygon class="st10" points="102.937,154.064 75.271,181.73 121.423,181.73 139.085,139.091 		"/>
		<polygon class="st10" points="36.146,181.73 -0.001,196.703 42.637,214.364 75.271,181.73 		"/>
	</g>
	<g>
		<polygon class="st13" points="242.025,181.73 181.724,181.73 181.724,242.031 224.363,224.369 		"/>
		<polygon class="st13" points="181.724,484.882 181.724,545.183 242.026,545.183 224.364,502.544 		"/>
		<polygon class="st13" points="545.177,242.03 545.177,181.73 484.877,181.73 502.539,224.368 		"/>
		<polygon class="st13" points="484.876,545.183 545.177,545.183 545.177,484.882 502.539,502.544 		"/>
		<polygon class="st13" points="577.812,406.095 620.452,363.457 577.812,320.818 560.151,363.457 		"/>
		<polygon class="st13" points="149.09,320.817 106.451,363.457 149.09,406.096 166.752,363.457 		"/>
		<polygon class="st13" points="406.09,149.095 363.451,106.456 320.812,149.095 363.452,166.757 		"/>
		<polygon class="st13" points="320.812,577.818 363.451,620.457 406.09,577.817 363.452,560.156 		"/>
		<polygon class="st13" points="484.877,181.73 461.801,126.019 406.09,149.095 438.725,181.73 		"/>
		<polygon class="st13" points="577.812,406.095 545.177,438.731 545.177,484.882 600.888,461.806 		"/>
		<polygon class="st13" points="181.724,242.031 126.014,265.106 149.09,320.817 181.724,288.183 		"/>
		<polygon class="st13" points="242.026,545.183 265.102,600.894 320.812,577.818 288.177,545.183 		"/>
		<polygon class="st13" points="149.09,406.096 126.014,461.806 181.724,484.882 181.724,438.73 		"/>
		<polygon class="st13" points="577.812,320.818 600.889,265.106 545.177,242.03 545.177,288.182 		"/>
		<polygon class="st13" points="406.09,577.817 461.8,600.893 484.876,545.183 438.724,545.183 		"/>
		<polygon class="st13" points="320.812,149.095 265.101,126.019 242.025,181.73 288.177,181.73 		"/>
		<polygon class="st13" points="545.177,121.429 545.177,181.73 605.479,181.73 587.817,139.091 		"/>
		<polygon class="st13" points="512.543,-42.636 469.904,0.003 512.543,42.643 530.205,0.003 		"/>
		<polygon class="st13" points="684.265,214.365 726.904,257.003 769.543,214.364 726.905,196.703 		"/>
		<polygon class="st13" points="605.479,181.73 628.555,237.441 684.265,214.365 651.63,181.73 		"/>
		<polygon class="st13" points="512.543,42.643 489.467,98.353 545.177,121.429 545.177,75.277 		"/>
		<polygon class="st13" points="181.724,605.483 181.724,545.183 121.424,545.183 139.085,587.822 		"/>
		<polygon class="st13" points="214.359,769.548 256.999,726.91 214.359,684.271 196.698,726.91 		"/>
		<polygon class="st13" points="42.637,512.548 -0.002,469.91 -42.641,512.548 -0.001,530.21 		"/>
		<polygon class="st13" points="121.424,545.183 98.348,489.472 42.637,512.548 75.272,545.183 		"/>
		<polygon class="st13" points="214.359,684.271 237.436,628.559 181.724,605.483 181.724,651.635 		"/>
		<polygon class="st13" points="605.478,545.183 545.177,545.183 545.177,605.484 587.816,587.822 		"/>
		<polygon class="st13" points="512.543,684.27 469.904,726.91 512.543,769.549 530.205,726.91 		"/>
		<polygon class="st13" points="769.543,512.548 726.904,469.91 684.265,512.548 726.905,530.21 		"/>
		<polygon class="st13" points="545.177,605.484 489.467,628.56 512.543,684.27 545.177,651.636 		"/>
		<polygon class="st13" points="684.265,512.548 628.554,489.472 605.478,545.183 651.63,545.183 		"/>
		<polygon class="st13" points="121.423,181.73 181.724,181.73 181.724,121.429 139.085,139.091 		"/>
		<polygon class="st13" points="214.359,42.642 256.999,0.003 214.359,-42.635 196.698,0.003 		"/>
		<polygon class="st13" points="-42.641,214.365 -0.002,257.003 42.637,214.364 -0.001,196.703 		"/>
		<polygon class="st13" points="214.359,42.642 181.724,75.278 181.724,121.429 237.435,98.353 		"/>
		<polygon class="st13" points="42.637,214.364 98.347,237.44 121.423,181.73 75.271,181.73 		"/>
	</g>
	<g>
		<polygon class="st7" points="545.177,181.73 545.177,242.03 600.889,265.106 608.993,245.543 628.555,237.441 605.479,181.73 		
			"/>
		<polygon class="st7" points="545.177,545.183 605.477,545.183 628.553,489.471 608.991,481.368 600.888,461.805 545.177,484.881 
					"/>
		<polygon class="st7" points="181.724,181.73 242.024,181.73 265.1,126.019 245.538,117.915 237.435,98.353 181.724,121.429 		"/>
		<polygon class="st7" points="545.177,181.73 545.177,121.431 489.465,98.354 481.362,117.917 461.799,126.02 484.875,181.73 		"/>
		<polygon class="st7" points="181.726,545.183 181.726,484.883 126.013,461.807 117.91,481.37 98.347,489.472 121.423,545.183 		
			"/>
		<polygon class="st7" points="181.726,181.73 121.425,181.73 98.349,237.442 117.912,245.545 126.015,265.108 181.726,242.032 		
			"/>
		<polygon class="st7" points="545.177,545.181 484.877,545.181 461.801,600.894 481.364,608.998 489.466,628.56 545.177,605.484 		
			"/>
		<polygon class="st7" points="181.724,545.181 181.724,605.482 237.436,628.558 245.54,608.996 265.102,600.892 242.026,545.181 		
			"/>
	</g>
	<g>
		<polygon class="st6" points="628.555,237.441 608.993,245.543 600.889,265.106 648.119,284.668 		"/>
		<polygon class="st6" points="600.888,461.805 608.991,481.368 628.553,489.471 648.116,442.242 		"/>
		<polygon class="st6" points="237.435,98.353 245.538,117.915 265.1,126.019 284.663,78.789 		"/>
		<polygon class="st6" points="461.799,126.02 481.362,117.917 489.465,98.354 442.236,78.792 		"/>
		<polygon class="st6" points="98.347,489.472 117.91,481.37 126.013,461.807 78.785,442.245 		"/>
		<polygon class="st6" points="126.015,265.108 117.912,245.545 98.349,237.442 78.787,284.671 		"/>
		<polygon class="st6" points="489.466,628.56 481.364,608.998 461.801,600.894 442.239,648.123 		"/>
		<polygon class="st6" points="265.102,600.892 245.54,608.996 237.436,628.558 284.666,648.121 		"/>
	</g>
	<g>
		<polygon class="st3" points="600.889,265.106 577.812,320.818 620.452,363.457 577.812,406.095 600.888,461.806 648.117,442.245 
			680.75,363.457 648.119,284.668 		"/>
		<polygon class="st3" points="628.553,489.471 684.265,512.548 726.904,469.909 769.542,512.548 825.253,489.472 805.692,442.244 
			726.904,409.611 648.116,442.242 		"/>
		<polygon class="st3" points="825.254,237.442 769.542,214.365 726.904,257.004 684.265,214.365 628.554,237.441 648.116,284.669 
			726.904,317.302 805.692,284.671 		"/>
		<polygon class="st3" points="265.1,126.019 320.812,149.096 363.451,106.456 406.089,149.096 461.8,126.02 442.239,78.791 
			363.451,46.158 284.663,78.789 		"/>
		<polygon class="st3" points="489.465,98.354 512.542,42.643 469.903,0.004 512.542,-42.635 489.466,-98.346 442.238,-78.784 
			409.605,0.004 442.236,78.792 		"/>
		<polygon class="st3" points="237.436,-98.347 214.359,-42.635 256.999,0.004 214.359,42.643 237.435,98.354 284.664,78.792 
			317.296,0.004 284.666,-78.784 		"/>
		<polygon class="st3" points="126.013,461.807 149.091,406.095 106.451,363.457 149.091,320.818 126.015,265.107 78.787,284.668 
			46.154,363.457 78.785,442.245 		"/>
		<polygon class="st3" points="98.349,237.442 42.638,214.365 -0.001,257.004 -42.64,214.365 -98.351,237.441 -78.789,284.669 
			-0.001,317.302 78.787,284.671 		"/>
		<polygon class="st3" points="-98.352,489.471 -42.64,512.548 -0.001,469.909 42.638,512.548 98.349,489.472 78.787,442.244 
			-0.001,409.611 -78.789,442.242 		"/>
		<polygon class="st3" points="461.801,600.894 406.089,577.816 363.451,620.457 320.812,577.816 265.101,600.892 284.663,648.121 
			363.451,680.753 442.239,648.123 		"/>
		<polygon class="st3" points="237.436,628.558 214.359,684.269 256.999,726.908 214.359,769.546 237.435,825.257 284.664,805.697 
			317.296,726.908 284.666,648.121 		"/>
		<polygon class="st3" points="489.465,825.259 512.542,769.546 469.903,726.908 512.542,684.269 489.466,628.558 442.238,648.121 
			409.605,726.908 442.236,805.697 		"/>
	</g>
	<g>
		<polygon class="st4" points="680.75,363.457 648.117,442.245 726.904,409.611 694.268,396.092 		"/>
		<polygon class="st4" points="648.119,284.668 680.75,363.457 694.268,330.821 726.904,317.302 		"/>
		<polygon class="st4" points="363.451,46.158 442.239,78.791 409.605,0.004 396.086,32.64 		"/>
		<polygon class="st4" points="284.663,78.789 363.451,46.158 330.815,32.64 317.296,0.004 		"/>
		<polygon class="st4" points="46.154,363.457 78.787,284.668 -0.001,317.302 32.634,330.821 		"/>
		<polygon class="st4" points="78.785,442.245 46.154,363.457 32.634,396.092 -0.001,409.611 		"/>
		<polygon class="st4" points="363.451,680.753 284.663,648.121 317.296,726.908 330.815,694.273 		"/>
		<polygon class="st4" points="442.239,648.123 363.451,680.753 396.086,694.273 409.605,726.908 		"/>
	</g>
	<g>
		<polygon class="st0" points="726.904,317.302 759.54,330.821 773.058,363.457 759.54,396.092 726.904,409.611 694.268,396.092 
			680.75,363.457 694.268,330.821 		"/>
		<polygon class="st0" points="317.296,0.004 330.815,-32.632 363.451,-46.15 396.086,-32.632 409.605,0.004 396.086,32.64 
			363.451,46.158 330.815,32.64 		"/>
		<polygon class="st0" points="-0.001,409.611 -32.637,396.092 -46.155,363.457 -32.637,330.821 -0.001,317.302 32.634,330.821 
			46.154,363.457 32.634,396.092 		"/>
		<polygon class="st0" points="409.605,726.908 396.086,759.544 363.451,773.062 330.815,759.544 317.296,726.908 330.815,694.273 
			363.451,680.753 396.086,694.273 		"/>
	</g>
</g>
<g id="Layer_1" class="st14">
	<rect class="st2" width="726.904" height="726.912"/>
	<g class="st11">
		<circle class="st1" cx="363.45" cy="363.457" r="257"/>
		<g>
			<rect x="181.724" y="181.73" class="st1" width="363.453" height="363.453"/>
			
				<rect x="181.724" y="181.73" transform="matrix(0.7071 -0.7071 0.7071 0.7071 -150.5502 363.4528)" class="st1" width="363.453" height="363.453"/>
			<line class="st1" x1="363.451" y1="726.913" x2="363.451" y2="0"/>
			<line class="st1" x1="-0.005" y1="363.457" x2="726.908" y2="363.457"/>
			<line class="st1" x1="181.724" y1="181.73" x2="545.177" y2="545.183"/>
			<line class="st1" x1="181.724" y1="545.183" x2="545.177" y2="181.73"/>
		</g>
		<g>
			
				<rect x="181.725" y="181.73" transform="matrix(0.9239 -0.3827 0.3827 0.9239 -111.4226 166.7532)" class="st1" width="363.453" height="363.454"/>
			
				<rect x="181.724" y="181.73" transform="matrix(0.3827 -0.9239 0.9239 0.3827 -111.4251 560.1529)" class="st1" width="363.453" height="363.452"/>
			<line class="st1" x1="126.014" y1="461.806" x2="600.889" y2="265.106"/>
			<line class="st1" x1="461.8" y1="600.893" x2="265.101" y2="126.019"/>
			<line class="st1" x1="126.014" y1="265.106" x2="600.888" y2="461.806"/>
			<line class="st1" x1="265.102" y1="600.894" x2="461.801" y2="126.019"/>
		</g>
		<g class="st14">
			<rect x="305.838" y="190.618" class="st2" width="115.226" height="115.227"/>
			<rect x="305.838" y="305.844" class="st2" width="115.226" height="115.226"/>
			<rect x="305.838" y="421.07" class="st2" width="115.226" height="115.225"/>
		</g>
		<g>
			<polyline class="st1" points="536.289,305.843 421.064,305.843 305.838,305.843 190.612,305.843 			"/>
			<polyline class="st1" points="190.612,421.069 305.838,421.069 421.064,421.069 536.289,421.069 			"/>
			<polyline class="st1" points="305.837,190.619 305.837,305.843 305.837,421.069 305.837,536.295 			"/>
			<polyline class="st1" points="421.063,536.295 421.063,421.069 421.063,305.843 421.063,190.619 			"/>
			<polyline class="st1" points="444.927,200.503 363.451,281.979 281.974,363.457 200.498,444.933 			"/>
			<polyline class="st1" points="281.974,526.41 363.451,444.933 444.927,363.457 526.404,281.98 			"/>
			<polyline class="st1" points="200.498,281.981 281.974,363.457 363.451,444.933 444.927,526.412 			"/>
			<polyline class="st1" points="526.405,444.934 444.927,363.457 363.451,281.98 281.974,200.504 			"/>
		</g>
		<g>
			<polyline class="st1" points="501.084,244.086 394.631,288.181 288.176,332.276 181.721,376.372 			"/>
			<polyline class="st1" points="225.816,482.826 332.272,438.73 438.726,394.635 545.18,350.541 			"/>
			<polyline class="st1" points="244.082,225.822 288.176,332.277 332.271,438.73 376.366,545.186 			"/>
			<polyline class="st1" points="482.821,501.091 438.725,394.635 394.63,288.181 350.536,181.727 			"/>
			<polyline class="st1" points="376.367,181.727 332.271,288.181 288.176,394.636 244.083,501.09 			"/>
			<polyline class="st1" points="350.536,545.185 394.631,438.731 438.726,332.277 482.821,225.822 			"/>
			<polyline class="st1" points="181.723,350.542 288.176,394.636 394.631,438.731 501.086,482.828 			"/>
			<polyline class="st1" points="545.181,376.372 438.726,332.277 332.271,288.182 225.817,244.087 			"/>
		</g>
	</g>
	<g class="st11">
		<circle class="st1" cx="726.904" cy="0.003" r="257"/>
		<g>
			<rect x="545.177" y="-181.723" class="st1" width="363.453" height="363.453"/>
			
				<rect x="545.177" y="-181.723" transform="matrix(0.7071 -0.7071 0.7071 0.7071 212.9034 514.0001)" class="st1" width="363.453" height="363.453"/>
			<line class="st1" x1="545.177" y1="-181.723" x2="908.63" y2="181.73"/>
			<line class="st1" x1="545.177" y1="181.73" x2="908.63" y2="-181.723"/>
		</g>
		<g>
			
				<rect x="545.178" y="-181.724" transform="matrix(0.9239 -0.3827 0.3827 0.9239 55.3309 278.1744)" class="st1" width="363.453" height="363.454"/>
			
				<rect x="545.177" y="-181.723" transform="matrix(0.3827 -0.9239 0.9239 0.3827 448.7282 671.5739)" class="st1" width="363.453" height="363.452"/>
			<line class="st1" x1="489.467" y1="98.353" x2="964.342" y2="-98.347"/>
			<line class="st1" x1="825.253" y1="237.44" x2="628.554" y2="-237.434"/>
			<line class="st1" x1="489.467" y1="-98.347" x2="964.341" y2="98.353"/>
			<line class="st1" x1="628.555" y1="237.441" x2="825.254" y2="-237.434"/>
		</g>
		<g class="st14">
			<rect x="669.292" y="-172.835" class="st2" width="115.226" height="115.227"/>
			<rect x="669.292" y="-57.609" class="st2" width="115.226" height="115.226"/>
			<rect x="669.292" y="57.617" class="st2" width="115.226" height="115.225"/>
		</g>
		<g>
			<polyline class="st1" points="899.742,-57.61 784.517,-57.61 669.292,-57.61 554.065,-57.61 			"/>
			<polyline class="st1" points="554.065,57.616 669.292,57.616 784.517,57.616 899.742,57.616 			"/>
			<polyline class="st1" points="669.291,-172.834 669.291,-57.61 669.291,57.616 669.291,172.842 			"/>
			<polyline class="st1" points="784.516,172.842 784.516,57.616 784.516,-57.61 784.516,-172.834 			"/>
			<polyline class="st1" points="808.38,-162.95 726.904,-81.474 645.427,0.003 563.951,81.48 			"/>
			<polyline class="st1" points="645.427,162.957 726.904,81.48 808.38,0.003 889.857,-81.473 			"/>
			<polyline class="st1" points="563.951,-81.472 645.427,0.003 726.904,81.48 808.38,162.958 			"/>
			<polyline class="st1" points="889.858,81.481 808.38,0.003 726.904,-81.473 645.427,-162.949 			"/>
		</g>
		<g>
			<polyline class="st1" points="864.538,-119.367 758.084,-75.272 651.629,-31.177 545.174,12.918 			"/>
			<polyline class="st1" points="589.269,119.373 695.725,75.277 802.179,31.182 908.633,-12.913 			"/>
			<polyline class="st1" points="607.535,-137.631 651.629,-31.176 695.724,75.277 739.819,181.733 			"/>
			<polyline class="st1" points="846.274,137.638 802.178,31.182 758.083,-75.272 713.989,-181.726 			"/>
			<polyline class="st1" points="739.82,-181.726 695.724,-75.272 651.629,31.183 607.536,137.637 			"/>
			<polyline class="st1" points="713.989,181.732 758.084,75.278 802.179,-31.176 846.274,-137.631 			"/>
			<polyline class="st1" points="545.176,-12.911 651.629,31.183 758.084,75.278 864.54,119.375 			"/>
			<polyline class="st1" points="908.634,12.918 802.179,-31.176 695.724,-75.271 589.27,-119.366 			"/>
		</g>
	</g>
	<g class="st11">
		<circle class="st1" cx="-0.002" cy="0.003" r="257"/>
		<g>
			<rect x="-181.729" y="-181.723" class="st1" width="363.453" height="363.453"/>
			
				<rect x="-181.729" y="-181.723" transform="matrix(0.7071 -0.7071 0.7071 0.7071 -0.003 -7.967418e-04)" class="st1" width="363.453" height="363.453"/>
			<line class="st1" x1="-181.729" y1="-181.723" x2="181.724" y2="181.73"/>
			<line class="st1" x1="-181.729" y1="181.73" x2="181.724" y2="-181.723"/>
		</g>
		<g>
			
				<rect x="-181.728" y="-181.724" transform="matrix(0.9239 -0.3827 0.3827 0.9239 -0.0014 -3.003939e-04)" class="st1" width="363.453" height="363.454"/>
			
				<rect x="-181.729" y="-181.723" transform="matrix(0.3827 -0.9239 0.9239 0.3827 -0.0042 -4.470176e-04)" class="st1" width="363.453" height="363.452"/>
			<line class="st1" x1="-237.439" y1="98.353" x2="237.436" y2="-98.347"/>
			<line class="st1" x1="98.347" y1="237.44" x2="-98.352" y2="-237.434"/>
			<line class="st1" x1="-237.439" y1="-98.347" x2="237.435" y2="98.353"/>
			<line class="st1" x1="-98.351" y1="237.441" x2="98.348" y2="-237.434"/>
		</g>
		<g class="st14">
			<rect x="-57.615" y="-172.835" class="st2" width="115.226" height="115.227"/>
			<rect x="-57.615" y="-57.609" class="st2" width="115.226" height="115.226"/>
			<rect x="-57.615" y="57.617" class="st2" width="115.226" height="115.225"/>
		</g>
		<g>
			<polyline class="st1" points="172.835,-57.61 57.611,-57.61 -57.615,-57.61 -172.841,-57.61 			"/>
			<polyline class="st1" points="-172.841,57.616 -57.615,57.616 57.611,57.616 172.835,57.616 			"/>
			<polyline class="st1" points="-57.616,-172.834 -57.616,-57.61 -57.616,57.616 -57.616,172.842 			"/>
			<polyline class="st1" points="57.61,172.842 57.61,57.616 57.61,-57.61 57.61,-172.834 			"/>
			<polyline class="st1" points="81.474,-162.95 -0.002,-81.474 -81.479,0.003 -162.956,81.48 			"/>
			<polyline class="st1" points="-81.479,162.957 -0.002,81.48 81.474,0.003 162.951,-81.473 			"/>
			<polyline class="st1" points="-162.956,-81.472 -81.479,0.003 -0.002,81.48 81.474,162.958 			"/>
			<polyline class="st1" points="162.952,81.481 81.474,0.003 -0.002,-81.473 -81.479,-162.949 			"/>
		</g>
		<g>
			<polyline class="st1" points="137.631,-119.367 31.178,-75.272 -75.277,-31.177 -181.732,12.918 			"/>
			<polyline class="st1" points="-137.637,119.373 -31.181,75.277 75.273,31.182 181.727,-12.913 			"/>
			<polyline class="st1" points="-119.372,-137.631 -75.277,-31.176 -31.182,75.277 12.913,181.733 			"/>
			<polyline class="st1" points="119.368,137.638 75.272,31.182 31.177,-75.272 -12.917,-181.726 			"/>
			<polyline class="st1" points="12.914,-181.726 -31.182,-75.272 -75.277,31.183 -119.371,137.637 			"/>
			<polyline class="st1" points="-12.917,181.732 31.178,75.278 75.273,-31.176 119.368,-137.631 			"/>
			<polyline class="st1" points="-181.73,-12.911 -75.277,31.183 31.178,75.278 137.633,119.375 			"/>
			<polyline class="st1" points="181.728,12.918 75.273,-31.176 -31.182,-75.271 -137.636,-119.366 			"/>
		</g>
	</g>
	<g class="st11">
		<circle class="st1" cx="-0.002" cy="726.91" r="257"/>
		<g>
			<rect x="-181.729" y="545.183" class="st1" width="363.453" height="363.453"/>
			
				<rect x="-181.729" y="545.183" transform="matrix(0.7071 -0.7071 0.7071 0.7071 -514.0035 212.9052)" class="st1" width="363.453" height="363.453"/>
			<line class="st1" x1="-181.729" y1="545.183" x2="181.724" y2="908.636"/>
			<line class="st1" x1="-181.729" y1="908.636" x2="181.724" y2="545.183"/>
		</g>
		<g>
			
				<rect x="-181.728" y="545.183" transform="matrix(0.9239 -0.3827 0.3827 0.9239 -278.1769 55.3324)" class="st1" width="363.453" height="363.453"/>
			
				<rect x="-181.729" y="545.183" transform="matrix(0.3827 -0.9239 0.9239 0.3827 -671.5785 448.732)" class="st1" width="363.453" height="363.452"/>
			<line class="st1" x1="-237.439" y1="825.259" x2="237.436" y2="628.559"/>
			<line class="st1" x1="98.347" y1="964.346" x2="-98.352" y2="489.472"/>
			<line class="st1" x1="-237.439" y1="628.56" x2="237.435" y2="825.259"/>
			<line class="st1" x1="-98.351" y1="964.347" x2="98.348" y2="489.472"/>
		</g>
		<g class="st14">
			<rect x="-57.615" y="554.071" class="st2" width="115.226" height="115.227"/>
			<rect x="-57.615" y="669.297" class="st2" width="115.226" height="115.226"/>
			<rect x="-57.615" y="784.523" class="st2" width="115.226" height="115.225"/>
		</g>
		<g>
			<polyline class="st1" points="172.835,669.296 57.611,669.296 -57.615,669.296 -172.841,669.296 			"/>
			<polyline class="st1" points="-172.841,784.522 -57.615,784.522 57.611,784.522 172.835,784.522 			"/>
			<polyline class="st1" points="-57.616,554.072 -57.616,669.296 -57.616,784.522 -57.616,899.749 			"/>
			<polyline class="st1" points="57.61,899.749 57.61,784.522 57.61,669.296 57.61,554.072 			"/>
			<polyline class="st1" points="81.474,563.957 -0.002,645.433 -81.479,726.91 -162.956,808.386 			"/>
			<polyline class="st1" points="-81.479,889.863 -0.002,808.386 81.474,726.91 162.951,645.433 			"/>
			<polyline class="st1" points="-162.956,645.434 -81.479,726.91 -0.002,808.386 81.474,889.865 			"/>
			<polyline class="st1" points="162.952,808.387 81.474,726.91 -0.002,645.433 -81.479,563.957 			"/>
		</g>
		<g>
			<polyline class="st1" points="137.631,607.54 31.178,651.634 -75.277,695.729 -181.732,739.825 			"/>
			<polyline class="st1" points="-137.637,846.279 -31.181,802.183 75.273,758.088 181.727,713.994 			"/>
			<polyline class="st1" points="-119.372,589.275 -75.277,695.73 -31.182,802.183 12.913,908.639 			"/>
			<polyline class="st1" points="119.368,864.544 75.272,758.088 31.177,651.634 -12.917,545.18 			"/>
			<polyline class="st1" points="12.914,545.18 -31.182,651.634 -75.277,758.089 -119.371,864.543 			"/>
			<polyline class="st1" points="-12.917,908.638 31.178,802.184 75.273,695.73 119.368,589.275 			"/>
			<polyline class="st1" points="-181.73,713.996 -75.277,758.089 31.178,802.184 137.633,846.281 			"/>
			<polyline class="st1" points="181.728,739.825 75.273,695.73 -31.182,651.635 -137.636,607.541 			"/>
		</g>
	</g>
	<g class="st11">
		<circle class="st1" cx="726.904" cy="726.91" r="257"/>
		<g>
			<rect x="545.177" y="545.183" class="st1" width="363.453" height="363.453"/>
			
				<rect x="545.177" y="545.183" transform="matrix(0.7071 -0.7071 0.7071 0.7071 -301.0975 726.9055)" class="st1" width="363.453" height="363.453"/>
			<line class="st1" x1="545.177" y1="545.183" x2="908.63" y2="908.636"/>
			<line class="st1" x1="545.177" y1="908.636" x2="908.63" y2="545.183"/>
		</g>
		<g>
			
				<rect x="545.178" y="545.183" transform="matrix(0.9239 -0.3827 0.3827 0.9239 -222.8442 333.5079)" class="st1" width="363.453" height="363.453"/>
			
				<rect x="545.177" y="545.183" transform="matrix(0.3827 -0.9239 0.9239 0.3827 -222.8461 1120.3063)" class="st1" width="363.453" height="363.452"/>
			<line class="st1" x1="489.467" y1="825.259" x2="964.342" y2="628.559"/>
			<line class="st1" x1="825.253" y1="964.346" x2="628.554" y2="489.472"/>
			<line class="st1" x1="489.467" y1="628.56" x2="964.341" y2="825.259"/>
			<line class="st1" x1="628.555" y1="964.347" x2="825.254" y2="489.472"/>
		</g>
		<g class="st14">
			<rect x="669.292" y="554.071" class="st2" width="115.226" height="115.227"/>
			<rect x="669.292" y="669.297" class="st2" width="115.226" height="115.226"/>
			<rect x="669.292" y="784.523" class="st2" width="115.226" height="115.225"/>
		</g>
		<g>
			<polyline class="st1" points="899.742,669.296 784.517,669.296 669.292,669.296 554.065,669.296 			"/>
			<polyline class="st1" points="554.065,784.522 669.292,784.522 784.517,784.522 899.742,784.522 			"/>
			<polyline class="st1" points="669.291,554.072 669.291,669.296 669.291,784.522 669.291,899.749 			"/>
			<polyline class="st1" points="784.516,899.749 784.516,784.522 784.516,669.296 784.516,554.072 			"/>
			<polyline class="st1" points="808.38,563.957 726.904,645.433 645.427,726.91 563.951,808.386 			"/>
			<polyline class="st1" points="645.427,889.863 726.904,808.386 808.38,726.91 889.857,645.433 			"/>
			<polyline class="st1" points="563.951,645.434 645.427,726.91 726.904,808.386 808.38,889.865 			"/>
			<polyline class="st1" points="889.858,808.387 808.38,726.91 726.904,645.433 645.427,563.957 			"/>
		</g>
		<g>
			<polyline class="st1" points="864.538,607.54 758.084,651.634 651.629,695.729 545.174,739.825 			"/>
			<polyline class="st1" points="589.269,846.279 695.725,802.183 802.179,758.088 908.633,713.994 			"/>
			<polyline class="st1" points="607.535,589.275 651.629,695.73 695.724,802.183 739.819,908.639 			"/>
			<polyline class="st1" points="846.274,864.544 802.178,758.088 758.083,651.634 713.989,545.18 			"/>
			<polyline class="st1" points="739.82,545.18 695.724,651.634 651.629,758.089 607.536,864.543 			"/>
			<polyline class="st1" points="713.989,908.638 758.084,802.184 802.179,695.73 846.274,589.275 			"/>
			<polyline class="st1" points="545.176,713.996 651.629,758.089 758.084,802.184 864.54,846.281 			"/>
			<polyline class="st1" points="908.634,739.825 802.179,695.73 695.724,651.635 589.27,607.541 			"/>
		</g>
	</g>
	<g class="st11">
		<polygon class="st1" points="726.904,317.302 759.54,330.821 773.058,363.457 759.54,396.092 726.904,409.611 694.268,396.092 
			680.75,363.457 694.268,330.821 		"/>
		<line class="st1" x1="628.555" y1="237.44" x2="680.753" y2="363.458"/>
		<line class="st1" x1="680.75" y1="363.458" x2="628.634" y2="489.505"/>
		<line class="st1" x1="726.904" y1="317.302" x2="600.888" y2="265.106"/>
		<line class="st1" x1="600.888" y1="461.807" x2="726.9" y2="409.611"/>
		<polyline class="st1" points="600.857,265.186 608.993,245.543 628.555,237.44 		"/>
		<polyline class="st1" points="628.634,489.505 608.992,481.37 600.888,461.807 		"/>
	</g>
	<g class="st11">
		<polygon class="st1" points="317.296,0.003 330.815,-32.632 363.451,-46.151 396.086,-32.632 409.605,0.003 396.086,32.639 
			363.451,46.158 330.815,32.639 		"/>
		<line class="st1" x1="237.434" y1="98.352" x2="363.452" y2="46.154"/>
		<line class="st1" x1="363.453" y1="46.157" x2="489.5" y2="98.273"/>
		<line class="st1" x1="317.296" y1="0.003" x2="265.1" y2="126.019"/>
		<line class="st1" x1="461.801" y1="126.019" x2="409.605" y2="0.007"/>
		<polyline class="st1" points="265.18,126.05 245.538,117.915 237.434,98.352 		"/>
		<polyline class="st1" points="489.5,98.273 481.364,117.916 461.801,126.019 		"/>
	</g>
	<g class="st11">
		<polygon class="st1" points="-0.002,409.611 -32.638,396.092 -46.157,363.457 -32.638,330.821 -0.002,317.302 32.633,330.821 
			46.152,363.457 32.633,396.092 		"/>
		<line class="st1" x1="98.346" y1="489.473" x2="46.148" y2="363.456"/>
		<line class="st1" x1="46.151" y1="363.455" x2="98.267" y2="237.408"/>
		<line class="st1" x1="-0.002" y1="409.611" x2="126.013" y2="461.807"/>
		<line class="st1" x1="126.013" y1="265.106" x2="0.001" y2="317.302"/>
		<polyline class="st1" points="126.044,461.727 117.909,481.37 98.346,489.473 		"/>
		<polyline class="st1" points="98.267,237.408 117.91,245.543 126.013,265.106 		"/>
	</g>
	<g class="st11">
		<polygon class="st1" points="409.605,726.91 396.086,759.545 363.451,773.064 330.815,759.545 317.296,726.91 330.815,694.274 
			363.451,680.755 396.086,694.274 		"/>
		<line class="st1" x1="489.467" y1="628.561" x2="363.45" y2="680.759"/>
		<line class="st1" x1="363.449" y1="680.756" x2="237.402" y2="628.64"/>
		<line class="st1" x1="409.605" y1="726.91" x2="461.801" y2="600.894"/>
		<line class="st1" x1="265.1" y1="600.894" x2="317.296" y2="726.906"/>
		<polyline class="st1" points="461.721,600.863 481.364,608.999 489.467,628.561 		"/>
		<polyline class="st1" points="237.402,628.64 245.538,608.998 265.1,600.894 		"/>
	</g>
</g>
</svg>
