<svg xmlns="http://www.w3.org/2000/svg" width="450" height="450" viewBox="0 0 450 450">
  <style>
    :root { --black: #443430; --gold: #CEA600; --turquois: #4D9BA3; --blue: #262F66; --white: #FFFAF2; } .shape-1{fill:var(--blue)} .shape-2{fill:var(--white)} .shape-3{fill:var(--blue)} .shape-4{fill:var(--gold)} .shape-5{fill:var(--turquois)} .shape-6{fill:var(--blue)} .shape-7{fill:var(--white)} .shape-8{fill:var(--gold)} .shape-9{fill:var(--white)} .shape-10{fill:var(--blue)} .shape-11{fill:var(--white)} .guides{ stroke: #4FFF4F; display: none; fill: none}
  </style>
  <g id="pattern" class="line">
    <path class="shape-1" d="M278 247l22-22-22-22v-31h-31l-22-22-22 22h-31v31l-22 22 22 22v31h31l22 22 22-22h31z"/>
    <path class="shape-2" d="M204.9 129.9H150l-11-19-17.8 10.3-10.3 17.8 19 11v54.9L150 225l22-22v-31h31l22-22zM320.1 204.9V150l19-11-10.3-17.8-17.8-10.3-11 19h-54.9L225 150l22 22h31v31l22 22zM245.1 320.1H300l11 19 17.8-10.3 10.3-17.8-19-11v-54.9L300 225l-22 22v31h-31l-22 22zM129.9 245.1V300l-19 11 10.3 17.8 17.8 10.3 11-19h54.9L225 300l-22-22h-31v-31l-22-22z"/>
    <path class="shape-3" d="M225 61.2l-53 30.7v38h32.9L225 150l20.1-20.1H278v-38zM388.8 225l-30.7-53h-38v32.9L300 225l20.1 20.1V278h38zM225 388.8l53-30.7v-38h-32.9L225 300l-20.1 20.1H172v38zM61.2 225l30.7 53h38v-32.9L150 225l-20.1-20.1V172h-38z"/>
    <path class="shape-4" d="M139 110.9l33-19v38h-22zM311 110.9l-33-19v38h22zM339.1 139l19 33h-38v-22zM339.1 311l19-33h-38v22zM311 339.1l-33 19v-38h22zM139 339.1l33 19v-38h-22zM110.9 311l-19-33h38v22zM110.9 139l-19 33h38v-22z"/>
    <path class="shape-5" d="M43.5 43.5L86 19l53 91.9-17.8 10.3-10.3 17.8L19 86zM406.5 43.5L431 86l-91.9 53-10.3-17.8-17.8-10.3L364 19zM406.5 406.5L364 431l-53-91.9 17.8-10.3 10.3-17.8 91.9 53zM43.5 406.5L19 364l91.9-53 10.3 17.8 17.8 10.3L86 431z"/>
    <path class="shape-6" d="M118.9 0L86 19l53 91.9 33-19V30.6zM331.1 0L364 19l-53 91.9-33-19V30.6zM450 118.9L431 86l-91.9 53 19 33h61.3zM450 331.1L431 364l-91.9-53 19-33h61.3zM331.1 450l32.9-19-53-91.9-33 19v61.3zM118.9 450L86 431l53-91.9 33 19v61.3zM0 331.1L19 364l91.9-53-19-33H30.6zM0 118.9L19 86l91.9 53-19 33H30.6z"/>
    <path class="shape-7" d="M118.9 0L172 30.6v61.3l53-30.7 53 30.7V30.6L331.1 0 278-91.9H172zM450 118.9L419.4 172h-61.3l30.7 53-30.7 53h61.3l30.6 53.1 91.9-53.1V172zM331.1 450L278 419.4v-61.3l-53 30.7-53-30.7v61.3L118.9 450l53.1 91.9h106zM0 331.1L30.6 278h61.3l-30.7-53 30.7-53H30.6L0 118.9-91.9 172v106z"/>
    <path class="shape-8" d="M86-19L75 0l11 19 32.9-19zM364-19l11 19-11 19-32.9-19zM469 86l-19-11-19 11 19 32.9zM469 364l-19 11-19-11 19-32.9zM364 469l11-19-11-19-32.9 19zM86 469l-11-19 11-19 32.9 19zM-19 364l19 11 19-11-19-32.9zM-19 86L0 75l19 11-19 32.9z"/>
    <path class="shape-9" d="M19 19v45L0 75l19 11 24.5-42.5L86 19 75 0 64 19zM431 19h-45L375 0l-11 19 42.5 24.5L431 86l19-11-19-11zM431 431v-45l19-11-19-11-24.5 42.5L364 431l11 19 11-19zM19 431h45l11 19 11-19-42.5-24.5L19 364 0 375l19 11z"/>
    <path class="shape-10" d="M64-19H19v38h45L75 0zM-19 19v45L0 75l19-11V19zM469 64V19h-38v45l19 11zM431-19h-45L375 0l11 19h45zM386 469h45v-38h-45l-11 19zM469 431v-45l-19-11-19 11v45zM-19 386v45h38v-45L0 375zM19 469h45l11-19-11-19H19z"/>
    <path class="shape-11" d="M-19-19h38v38h-38zM431-19h38v38h-38zM431 431h38v38h-38zM-19 431h38v38h-38z"/>
  </g>
  <g class="guides">
    <circle r="75"/>
    <circle cx="450" r="75"/>
    <circle cx="225" cy="225" r="75"/>
    <circle cy="450" r="75"/>
    <circle cx="450" cy="450" r="75"/>
    <circle cx="225" r="150"/>
    <circle cy="225" r="150"/>
    <circle cx="225" cy="450" r="150"/>
    <circle cx="450" cy="225" r="150"/>
    <circle cx="225" r="106.1"/>
    <circle cy="225" r="106.1"/>
    <circle cx="450" cy="225" r="106.1"/>
    <circle cx="225" cy="450" r="106.1"/>
    <path d="M0 0h450v450H0zM450 0L0 450M0 0l450 450M225 450V0M450 225H0"/>
    <path d="M172 172h106.1v106.1H172z"/>
    <path d="M225 300l-75-75 75-75 75 75zM172 91.9L118.9 0 172-91.9h106L331.1 0 278 91.9zM64 19L75 0M121.2 121.2L331.1 0M118.9 0l209.9 121.2M172 172V0M225 150l20.4-20.4M204.9 129.9L225 150M278 0v172M43.5 43.5L118.9 0M86 19H0M19 64L0 75M43.5 43.5L0 118.9M19 86V0"/>
    <path d="M150 129.9L75 0l75-129.9h150L375 0l-75 129.9zM172 278V91.9M358.1 172l91.9-53.1 91.9 53.1v106L450 331.1 358.1 278zM431 64l19 11M328.8 121.2L450 331.1M450 118.9L328.8 328.8M278 172h172M300 225l20.4 20.4M320.1 204.9L300 225M450 278H278M406.5 43.5l43.5 75.4M431 86V0M386 19L375 0M331.1 0l75.4 43.5M364 19h86"/>
    <path d="M320.1 150L450 75l129.9 75v150L450 375l-129.9-75zM172 172h186.1M278 358.1l53.1 91.9-53.1 91.9H172L118.9 450l53.1-91.9zM386 431l-11 19M328.8 328.8L118.9 450M331.1 450L121.2 328.8M278 278v172M225 300l-20.4 20.4M245.1 320.1L225 300M172 450V278M406.5 406.5L331.1 450M364 431h86M431 386l19-11M406.5 406.5l43.5-75.4M431 364v86"/>
    <path d="M300 320.1L375 450l-75 129.9H150L75 450l75-129.9zM278 172v186.1M91.9 278L0 331.1-91.9 278V172L0 118.9 91.9 172zM19 386L0 375M121.2 328.8L0 118.9M121.2 121.2L0 331.1M172 278H0M150 225l-20.4-20.4M129.9 245.1L150 225M0 172h172M43.5 406.5L0 331.1M19 364v86M64 431l11 19M43.5 406.5l75.4 43.5M86 431H0"/>
    <path d="M129.9 300L0 375l-129.9-75V150L0 75l129.9 75zM278 278H91.9"/>
  </g>
</svg>
