<svg xmlns="http://www.w3.org/2000/svg" width="450" height="450" viewBox="0 0 450 450">
  <style>
    :root { --black: #443430; --gold: #CEA600; --turquois: #4D9BA3; --blue: #262F66; --white: #FFFAF2; }
    .shape-1{fill:var(--white)}
    .shape-2{fill:var(--blue)}
    .shape-3{fill:var(--white)}
    .shape-4{fill:var(--blue)}
    .shape-5{fill:var(--white)}
    .shape-6{fill:var(--turquois)}
    .shape-7{fill:var(--white)}
    .shape-8{fill:var(--blue)}
    .shape-9{fill:var(--white)}
    .shape-10{fill:var(--white)}
    .shape-11{fill:var(--blue)}
    .guides{ stroke: #4FFF4F; display: none; fill: none}
  </style>
  <g id="pattern" class="line">
    <path class="shape-1" d="M270.9 225l23-39.8H248l-23-39.8-23 39.8h-45.9l23 39.8-23 39.8H202l23 39.8 23-39.8h45.9zM39.8-23v-45.9L0-45.9l-39.8-23V-23L-79.6 0l39.8 23v45.9L0 45.9l39.8 23V23L79.5 0zM410.2-23v-45.9l39.8 23 39.8-23V-23l39.8 23-39.8 23v45.9l-39.8-23-39.8 23V23L370.5 0zM39.8 473v45.9L0 495.9l-39.8 23V473l-39.8-23 39.8-23v-45.9l39.8 23 39.8-23V427l39.7 23zM410.2 473v45.9l39.8-23 39.8 23V473l39.8-23-39.8-23v-45.9l-39.8 23-39.8-23V427l-39.7 23z"/>
    <path class="shape-2" d="M79.5 185.2h76.6l23 39.8-23 39.8H79.5v-16.5L56.3 225l23.2-23.3zM370.5 185.2h-76.6l-23 39.8 23 39.8h76.6v-16.5l23.3-23.3-23.3-23.3z"/>
    <path class="shape-2" d="M79.5 264.8h76.6l23-39.8-23-39.8H79.5v16.5L56.3 225l23.2 23.3z"/>
    <path class="shape-3" d="M39.8 68.9l73.7 42.6 42.6 73.7H79.5v-39.7H39.8zM410.2 68.9l-73.7 42.6-42.6 73.7h76.6v-39.7h39.7zM39.8 381.1l73.7-42.6 42.6-73.7H79.5v39.7H39.8zM410.2 381.1l-73.7-42.6-42.6-73.7h76.6v39.7h39.7z"/>
    <path class="shape-4" d="M39.8 23L79.5 0l72.1 41.5L168.8 0l16.4 39.8L225 56.2l-41.5 17.2 41.5 72-23 39.8h-45.9l-42.6-73.7-73.7-42.6zM410.2 23L370.5 0l-72.1 41.5L281.2 0l-16.4 39.8L225 56.2l41.5 17.2-41.5 72 23 39.8h45.9l42.6-73.7 73.7-42.6zM39.8 427l39.7 23 72.1-41.5 17.2 41.5 16.4-39.8 39.8-16.4-41.5-17.2 41.5-72-23-39.8h-45.9l-42.6 73.7-73.7 42.6zM410.2 427l-39.7 23-72.1-41.5-17.2 41.5-16.4-39.8-39.8-16.4 41.5-17.2-41.5-72 23-39.8h45.9l42.6 73.7 73.7 42.6z"/>
    <path class="shape-5" d="M225 56.2l-41.5 17.2 41.5 72 41.5-72zM225 393.8l-41.5-17.2 41.5-72 41.5 72z"/>
    <path class="shape-6" d="M39.8 241.5L56.3 225l-16.5-16.5v-23.3H16.5L0 168.8l-16.5 16.4h-23.3v23.3L-56.2 225l16.4 16.5v23.3h23.3L0 281.2l16.5-16.4h23.3zM410.2 241.5L393.8 225l16.4-16.5v-23.3h23.3l16.5-16.4 16.5 16.4h23.3v23.3l16.4 16.5-16.4 16.5v23.3h-23.3L450 281.2l-16.5-16.4h-23.3z"/>
    <path class="shape-7" d="M39.8 145.5H23.3L0 168.8l16.5 16.4h23.3zM39.8 185.2h39.7v16.5L56.3 225l-16.5-16.5zM410.2 145.5h16.5l23.3 23.3-16.5 16.4h-23.3zM410.2 185.2h-39.7v16.5l23.3 23.3 16.4-16.5zM39.8 304.5H23.3L0 281.2l16.5-16.4h23.3zM39.8 264.8h39.7v-16.5L56.3 225l-16.5 16.5zM410.2 304.5h16.5l23.3-23.3-16.5-16.4h-23.3zM410.2 264.8h-39.7v-16.5l23.3-23.3 16.4 16.5z"/>
    <path class="shape-8" d="M39.8 145.5h39.8v39.8H39.8zM370.5 145.5h39.8v39.8h-39.8zM39.8 264.8h39.8v39.8H39.8zM370.5 264.8h39.8v39.8h-39.8z"/>
    <path class="shape-9" d="M225-56.2l-39.8 16.4L168.8 0l16.4 39.8L225 56.2l39.8-16.4L281.2 0l-16.4-39.8zM225 506.2l39.8-16.4 16.4-39.8-16.4-39.8-39.8-16.4-39.8 16.4-16.4 39.8 16.4 39.8z"/>
    <path class="shape-10" d="M151.6-41.5L79.5 0l72.1 41.5L168.8 0zM298.4-41.5L370.5 0l-72.1 41.5L281.2 0zM151.6 491.5L79.5 450l72.1-41.5 17.2 41.5zM298.4 491.5l72.1-41.5-72.1-41.5-17.2 41.5z"/>
    <path class="shape-11" d="M39.8 68.9L0 45.9l-39.8 23v76.6h16.5L0 168.8l23.3-23.3h16.5zM410.2 68.9l39.8-23 39.8 23v76.6h-16.5L450 168.8l-23.3-23.3h-16.5zM39.8 381.1L0 404.1l-39.8-23v-76.6h16.5L0 281.2l23.3 23.3h16.5zM410.2 381.1l39.8 23 39.8-23v-76.6h-16.5L450 281.2l-23.3 23.3h-16.5z"/>
  </g>
  <g class="guides">
    <circle r="79.5"/>
    <circle cx="225" cy="225" r="79.5"/>
    <circle cy="450" r="79.5"/>
    <circle cx="450" cy="450" r="79.5"/>
    <circle cx="450" r="79.5"/>
    <circle cy="225" r="56.2"/>
    <circle cx="450" cy="225" r="56.2"/>
    <circle cx="225" r="56.2"/>
    <circle cx="225" cy="450" r="56.2"/>
    <path d="M0 0h450v450H0z"/>
    <path d="M0 225L225 0l225 225-225 225zM225 0v450M0 225h450"/>
    <path d="M225 145.4l68.9 39.8v79.6L225 304.6l-68.9-39.8v-79.6z"/>
    <path d="M156.1 185.2h137.8L225 304.6z"/>
    <path d="M225 304.6l-68.9-119.4h137.8M39.8 185.2h370.4"/>
    <path d="M225 145.4l-68.9 119.4h137.8zM40.1 264.8h370.1"/>
    <path d="M225-56.2l39.8 16.4L281.2 0l-16.4 39.8L225 56.2l-39.8-16.4L168.8 0l16.4-39.8zM156.1 185.2l-42.6-73.7M225 145.4l-53.2-92.2M-39.8-68.9h79.6L79.5 0 39.8 68.9h-79.6L-79.5 0zM39.8-68.9V186M113.5 111.5L-79.5 0M-39.8 68.9L79.5 0M171.8 53.2L-39.8-68.9M151.6 41.5L168.8 0M225 56.2l-41.5 17.2M79.5 0v225M-39.8 185.2h79.5v79.5h-79.5z"/>
    <path d="M-56.3 225L0 168.8 56.1 225 0 281.2zM0 281.2l79.5-79.5M79.5 145.5H0M0 168.8l23.3-23.3M293.9 185.2l42.6-73.7M225 145.4l53.2-92.2M489.8-68.9h-79.6L370.4 0l39.8 68.9h79.6L529.5 0zM410.2-68.9V186M336.5 111.5L529.5 0M489.8 68.9L370.4 0M278.2 53.2L489.8-68.9M298.4 41.5L281.2 0M225 56.2l41.5 17.2M370.5 0v225M410.2 185.2h79.5v79.5h-79.5z"/>
    <path d="M450 281.3L393.8 225l56.2-56.2 56.2 56.2zM450 281.2l-79.5-79.5M370.5 145.5H450M450 168.8l-23.3-23.3M156.1 264.8l-42.6 73.7M225 304.6l-53.2 92.2M-39.8 518.9h79.6L79.5 450l-39.7-68.9h-79.6L-79.5 450zM39.8 518.9V264M113.5 338.5L-79.5 450M-39.8 381.1L79.5 450M171.8 396.8L-39.8 518.9M151.6 408.5l17.2 41.5M225 393.8l-41.5-17.2M79.5 450V225M-39.8 185.2h79.5v79.5h-79.5z"/>
    <path d="M0 168.7L56.2 225 0 281.1-56.2 225zM0 168.8l79.5 79.5M79.5 304.5H0M0 281.2l23.3 23.3M293.9 264.8l42.6 73.7M225 304.6l53.2 92.2M489.8 518.9h-79.6L370.4 450l39.8-68.9h79.6l39.7 68.9zM410.2 518.9V264M336.5 338.5l193 111.5M489.8 381.1L370.4 450M278.2 396.8l211.6 122.1M298.4 408.5L281.2 450M225 393.8l41.5-17.2M370.5 450V225M410.2 185.2h79.5v79.5h-79.5z"/>
    <path d="M506.3 225L450 281.2 393.9 225l56.2-56.2zM450 168.8l-79.5 79.5M370.5 304.5H450M450 281.2l-23.3 23.3"/>
  </g>
</svg>
