<svg xmlns="http://www.w3.org/2000/svg" width="338" height="338" viewBox="0 0 338 338">
  <style>
    :root { --black: #443430; --gold: #CEA600; --turquois: #4D9BA3; --blue: #262F66; --white: #FFFAF2; } .shape-1{fill:var(--turquois)} .shape-2{fill:var(--white)} .shape-3{fill:var(--blue)} .shape-4{fill:var(--white)} .shape-5{fill:var(--blue)} .shape-6{fill:var(--white)} .shape-7{fill:var(--white)} .guides{ stroke: #4FFF4F; display: none; fill: none}
  </style>
  <g id="pattern" class="line">
    <path class="shape-1" d="M59.8 24.8L84.5 0 59.8-24.8v-35h-35L0-84.5l-24.8 24.7h-35v35L-84.5 0l24.7 24.8v35h35L0 84.5l24.8-24.7h35zM313.3 59.8L338 84.5l24.8-24.7h35v-35L422.5 0l-24.7-24.7v-35.1h-35L338-84.5l-24.7 24.7h-35v35.1L253.5 0l24.8 24.8v35zM278.3 313.3L253.5 338l24.8 24.8v35h35l24.7 24.7 24.8-24.7h35v-35l24.7-24.8-24.7-24.7v-35h-35L338 253.5l-24.7 24.8h-35zM24.7 278.3L0 253.5l-24.8 24.8h-35v35L-84.5 338l24.7 24.8v35h35L0 422.5l24.7-24.7h35v-35L84.5 338l-24.8-24.7v-35z"/>
    <path class="shape-2" d="M144.3 144.3h49.5v49.5h-49.5zM84.5 0L59.8 24.8v35h35l24.7 24.7 24.8-24.7v-35h-35zM59.8 59.8h-35L0 84.5l24.7 24.7v35.1h35.1l24.7-24.8-24.7-24.7z"/>
    <path class="shape-2" d="M144.3 144.3h49.5v49.5h-49.5zM338 84.5l-24.7-24.7h-35v35l-24.8 24.7 24.8 24.8h35v-35zM278.3 59.8v-35L253.5 0l-24.7 24.8h-35.1l.1 35 24.7 24.7 24.7-24.7z"/>
    <path class="shape-2" d="M144.3 144.3h49.5v49.5h-49.5zM253.5 338l24.8-24.7v-35h-35l-24.8-24.8-24.8 24.8v35h35.1zM278.3 278.3h35l24.7-24.8-24.7-24.7v-35h-35.1l-24.7 24.7 24.7 24.8zM0 253.5l24.7 24.8h35v-35l24.8-24.8-24.8-24.7h-35v35zM59.7 278.3v35L84.5 338l24.7-24.7h35.1v-35l-24.8-24.8-24.7 24.8z"/>
    <path class="shape-3" d="M59.8 59.8v35l24.7 24.7 35-35-24.7-24.7zM0 84.5l-24.8 24.8.1 35h49.4v-35.1zM84.5 0l24.7 24.8 35.1-.1v-49.4h-35.1zM278.3 59.8h-35l-24.8 24.7 35 35 24.8-24.7zM253.5 0l-24.7-24.7h-35.1v49.5h35.1zM338 84.5l-24.7 24.8v35h49.5v-35.1zM278.3 278.3v-35l-24.8-24.8-35 35 24.8 24.8zM338 253.5l24.8-24.7-.1-35h-49.4v35zM253.5 338l-24.7-24.7h-35.1v49.5h35.1zM59.7 278.3h35.1l24.7-24.8-35-35-24.8 24.8zM84.5 338l24.7 24.8h35.1v-49.5h-35.1zM0 253.5l24.7-24.7v-35.1h-49.5v35.1z"/>
    <path class="shape-4" d="M144.3 144.3v-35l-24.8-24.8-35 35 24.8 24.8zM193.7 144.3h35l24.8-24.8-35-35-24.8 24.8zM193.7 193.7v35.1l24.8 24.7 35-35-24.8-24.8zM144.3 193.7h-35l-24.8 24.8 35 35 24.8-24.8z"/>
    <path class="shape-5" d="M144.3 144.3h-35l-24.8-24.8-24.7 24.8H24.7v49.4l35.1.1 24.7 24.7 24.8-24.8h35zM193.7 144.3v-35l24.8-24.8-24.7-24.7-.1-35h-49.4v35l-24.8 24.7 24.8 24.8v35zM193.7 193.7h35l24.8 24.8 24.7-24.7h35.1v-49.5h-35.1l-24.7-24.8-24.8 24.8h-35z"/>
    <path class="shape-5" d="M144.3 193.7v35l-24.8 24.8 24.8 24.8v35h49.4v-35l24.8-24.8-24.8-24.8v-35z"/>
    <path class="shape-6" d="M-24.7 144.3h49.5v49.5h-49.5zM144.3-24.7h49.5v49.5h-49.5zM313.3 144.3h49.5v49.5h-49.5zM144.3 313.3h49.5v49.5h-49.5z"/>
    <path class="shape-7" d="M144.3 144.3h49.5v49.5h-49.5z"/>
  </g>
  <g class="guides">
    <circle cx="338" r="84.5"/>
    <circle cx="338" cy="338" r="84.5"/>
    <circle cy="338" r="84.5"/>
    <circle r="84.5"/>
    <path d="M0 0h338v338H0zM0 0l338 338M338 0L0 338M338 169H0M169 0v338M397.8 59.8H-59.8M59.8-59.8v457.6M84.5 0L0 84.5M338 422.5L-84.5 0M0-84.5L422.5 338M338 24.8H0M24.8 0v338M-59.8 278.3h457.6M278.3 397.8V-59.8M0 313.3h338M313.3 338V0M59.8 24.8L338 303M24.8 59.8L303 338M338 0L0 338M-84.5 338L338-84.5M422.5 0L0 422.5M313.3 59.7L35 338M278.3 24.7L0 303M144.3 338V0M193.7 0v338M338 193.7H0M0 144.3h338M144.3 59.8l-84.5 84.5M338 84.5L253.5 0M278.3 144.3l-84.6-84.5M253.5 338l84.5-84.5M193.7 278.3l84.5-84.6M0 253.5L84.5 338M59.8 193.7l84.5 84.5"/>
  </g>
</svg>
