<svg xmlns="http://www.w3.org/2000/svg" width="454.5" height="787.1" viewBox="0 0 454.5 787.1">
  <style>
    :root {
	    --gold: #CEA600;
	    --emerald: #216554;
	    --white: #FFFAF2;
	    --lightBlue: #2295CE;
    }
    .shape-1{fill:var(--lightBlue)}
    .shape-2{fill:var(--white)}
    .shape-3{fill:var(--emerald)}
    .shape-4{fill:var(--white)}
    .shape-5{fill:var(--gold)}
    .guides{ stroke: #4FFF4F; display: none; fill: none}
  </style>
  <g id="pattern" class="line">
    <path class="shape-1" d="M-71.6 412.8l-14 30.2 33.2 3 3 33.1 30.2-13.9L0 492.4l19.2-27.2 30.2 13.9 3.1-33.1 33.1-3-13.9-30.3 27.1-19.2-27.1-19.2 13.9-30.2-33.1-3-3.1-33.2-30.2 14L0 294.7l-19.2 27.2-30.2-14-3 33.2-33.2 3 14 30.2-27.2 19.2zM382.8 412.7l-13.9 30.2L402 446l3.1 33.1 30.2-13.9 19.2 27.2 19.2-27.2 30.2 13.9 3-33.1 33.2-3.1-14-30.2 27.2-19.2-27.2-19.2 14-30.2-33.2-3-3-33.2-30.2 14-19.2-27.2-19.2 27.2-30.3-14-3 33.2-33.1 3 13.9 30.2-27.2 19.2zM155.6 19.2l-14 30.2 33.2 3 3 33.2 30.2-14 19.2 27.2 19.2-27.2 30.3 14 3-33.2 33.1-3-13.9-30.2L326.1 0l-27.2-19.2 13.9-30.2-33.1-3.1-3.1-33.1-30.2 13.9-19.2-27.2L208-71.7l-30.2-13.9-3 33.1-33.2 3.1 14 30.2L128.4 0zM155.6 806.3l-13.9 30.2 33.1 3.1 3 33.1 30.2-14 19.3 27.2 19.2-27.2 30.2 14 3-33.2 33.1-3-13.9-30.2 27.2-19.2-27.2-19.2 13.9-30.2-33.1-3.1-3-33.1-30.3 13.9-19.2-27.1-19.2 27.1-30.2-13.9-3 33.1-33.2 3.1 14 30.2-27.2 19.2z"/>
    <g>
	    <path class="shape-2" d="M52.5 446l-3.1 33.1 67.2 31-31-67.1zM19.2 465.2L0 492.4l42.7 60.3 6.7-73.6zM71.7 412.7L85.6 443l73.6-6.8-60.4-42.7zM52.5 341.1l33.1 3 31-67.1-67.2 30.9z"/>
	    <path class="shape-2" d="M71.7 374.3l27.1 19.2 60.4-42.6-73.6-6.8zM19.2 321.9l30.2-14-6.7-73.6L0 294.7zM402 341.1l3-33.2-67.1-30.9 31 67.1zM435.3 321.9l19.2-27.2-42.7-60.4-6.8 73.6zM382.8 374.3l-13.9-30.2-73.6 6.8 60.3 42.6zM402 446l-33.1-3.1-31 67.2 67.2-31z"/>
	    <path class="shape-2" d="M382.8 412.7l-27.2-19.2-60.3 42.7 73.6 6.7zM435.3 465.2l-30.2 13.9 6.7 73.6 42.7-60.3zM279.7 52.4l-3 33.2 67.1 30.9-31-67.1z"/>
	    <path class="shape-2" d="M246.4 71.6l-19.2 27.2 42.7 60.4 6.8-73.6zM298.9 19.2l13.9 30.2 73.6-6.8L326.1 0zM174.8 52.4l-33.2-3-30.9 67.1 67.1-30.9zM155.6 19.2L128.4 0 68 42.7l73.6 6.7zM208 71.6l-30.2 14 6.8 73.6 42.6-60.4zM279.7 734.6l33.1 3.1 31-67.2-67.1 31z"/>
	    <path class="shape-2" d="M298.9 767.9l27.2 19.2 60.3-42.7-73.6-6.7zM246.4 715.4l30.3-13.9-6.8-73.6-42.7 60.4zM174.8 734.6l3-33.1-67.1-30.9 30.9 67.1z"/>
	    <path class="shape-2" d="M208 715.4l19.2-27.1-42.6-60.4-6.8 73.6zM155.6 767.9l-14-30.2-73.6 6.7 60.4 42.7z"/>
	  </g>
    <g>
      <path class="shape-3" d="M49.4 479.1l-6.7 73.6 26.5 37.6h44.4l22.2-38.4-19.2-41.8zM0 492.4l-42.6 60.3 4.2 45.9L0 620.8l38.5-22.2 4.2-45.9zM85.6 443l31 67.1 41.8 19.3 38.4-22.3v-44.3l-37.6-26.6z"/>
      <path class="shape-3" d="M98.8 393.5l60.4 42.7L205 432l22.2-38.5-22.2-38.4-45.8-4.2zM85.6 344.1l73.6 6.8 37.6-26.6v-44.4l-38.5-22.2-41.7 19.3zM49.4 307.9l67.2-30.9 19.2-41.8-22.2-38.4-44.4-.1-26.5 37.6z"/>
      <path class="shape-3" d="M0 294.7l42.7-60.4-4.2-45.8L0 166.3l-38.4 22.2-4.3 45.8zM454.5 492.4l-42.7 60.3 4.2 45.8 38.5 22.2 38.4-22.2 4.2-45.8zM405.1 479.1l-67.2 31-19.2 41.8 22.2 38.4h44.4l26.5-37.6zM368.9 442.9l-73.6-6.7-37.6 26.5v44.4l38.4 22.2 41.8-19.2zM355.6 393.5l-60.3-42.6-45.9 4.2-22.2 38.4 22.2 38.5 45.9 4.2zM368.9 344.1l-31-67.1-41.8-19.3-38.4 22.2v44.4l37.6 26.6zM405 307.9l6.8-73.6-26.6-37.6h-44.4l-22.2 38.5 19.3 41.8zM454.5 294.7l42.6-60.4-4.2-45.8-38.4-22.2-38.5 22.2-4.2 45.8z"/>
      <path class="shape-3" d="M276.7 85.6l-6.8 73.6 26.6 37.6h44.4l22.1-38.5-19.2-41.8zM227.2 98.8l-42.6 60.4 4.2 45.8 38.4 22.2 38.5-22.2 4.2-45.8zM177.8 85.6l-67.1 30.9-19.3 41.8 22.2 38.5H158l26.6-37.6zM141.6 49.4L68 42.6 30.4 69.2v44.4l38.5 22.2 41.8-19.3z"/>
      <path class="shape-3" d="M128.4 0L68-42.7l-45.8 4.2L0 0l22.2 38.4L68 42.7zM312.8 49.4l31 67.1 41.8 19.3 38.4-22.2V69.2l-37.6-26.6zM326.1 0l60.3 42.6 45.9-4.2L454.5 0l-22.2-38.5-45.9-4.2zM128.4 787.1L68 744.5l-45.8 4.2L0 787.1l22.2 38.5 45.8 4.2zM141.6 737.7l-30.9-67.1-41.8-19.3-38.4 22.2v44.4L68 744.4zM177.8 701.5l6.8-73.6-26.6-37.6h-44.4l-22.2 38.5 19.3 41.8zM326.1 787.1l60.3 42.7 45.9-4.2 22.2-38.5-22.2-38.5-45.9-4.2z"/>
      <path class="shape-3" d="M312.8 737.7l73.6 6.7 37.6-26.5v-44.4l-38.4-22.2-41.8 19.2zM276.7 701.5l67.1-31 19.3-41.7-22.2-38.5h-44.4l-26.6 37.6zM227.2 688.3l42.7-60.4-4.2-45.8-38.5-22.2-38.4 22.2-4.2 45.8z"/>
    </g>
    <g>
      <path class="shape-4" d="M257.7 542.3v-35.2l38.4 22.2 41.8-19.2-19.2 41.8 22.2 38.4h-44.4l-26.6 37.6-4.2-45.8-38.5-22.2z"/>
      <path class="shape-4" d="M227.2 393.5l22.2 38.5 45.9 4.2-37.6 26.5v44.5l-30.5-17.6-30.4 17.5v-44.3l-37.6-26.6L205 432l22.2-38.5z"/>
      <path class="shape-4" d="M196.8 542.5l30.4 17.4-38.4 22.2-4.2 45.8-26.6-37.6h-44.4l22.2-38.4-19.2-41.8 41.8 19.2 38.4-22.2zM454.5 0l22.1 38.4 45.9 4.2-37.6 26.6v44.4L454.5 96 424 113.6V69.2l-37.6-26.6 45.9-4.2L454.5 0zM424 148.9l30.4 17.4-38.4 22.2-4.2 45.8-26.6-37.6h-44.4l22.2-38.4-19.2-41.8 41.8 19.3 38.4-22.2zM30.4 148.7v-35.1l38.5 22.2 41.8-19.3-19.3 41.8 22.2 38.5H69.2l-26.5 37.5-4.2-45.8L0 166.3zM0 0l22.2 38.4L68 42.6 30.4 69.2v44.4L0 96l-30.4 17.6V69.2L-68 42.6l45.8-4.2L0 0zM257.7 244.8v35.1l38.4-22.2 41.8 19.3-19.2-41.8 22.2-38.4h-44.4l-26.6-37.6-4.2 45.8-38.5 22.2zM227.2 393.5l22.2-38.4 45.9-4.2-37.6-26.6v-44.4l-30.5 17.6-30.4-17.6v44.4l-37.6 26.6 45.8 4.2 22.2 38.4z"/>
      <path class="shape-4" d="M196.8 244.6l30.4-17.4-38.4-22.2-4.2-45.8-26.6 37.6h-44.4l22.2 38.4-19.2 41.8 41.8-19.3 38.4 22.2zM454.5 787.1l22.2-38.5 45.8-4.2-37.6-26.5v-44.4l-30.4 17.6-30.5-17.6v44.4l-37.6 26.5 45.9 4.2 22.2 38.5z"/>
      <path class="shape-4" d="M424 638.1l30.4-17.3-38.4-22.2-4.2-45.9-26.6 37.6h-44.4.1l22.2 38.5-19.3 41.8 41.8-19.3 38.4 22.2zM30.5 638.4v35.1l38.4-22.2 41.8 19.3-19.3-41.8 22.2-38.5H69.2l-26.5-37.5-4.2 45.8L0 620.8zM0 787.1l22.2-38.4 45.8-4.2-37.5-26.6v-44.4L0 691.1l-30.4-17.6v44.4L-68 744.5l45.8 4.2L0 787.1z"/>
    </g>
    <g>
      <path class="shape-5" d="M227.2 489.6l-30.4 17.5v35.4l30.4 17.4 30.5-17.6v-35.2zM454.5 96L424 113.6v35.3l30.4 17.4 30.5-17.6v-35.1zM0 96l-30.4 17.6V149L0 166.3l30.4-17.6v-35.1zM227.2 297.5l-30.4-17.6v-35.3l30.4-17.4 30.5 17.6v35.1zM454.5 691.1L424 673.5v-35.4l30.4-17.3 30.5 17.6v35.1zM0 691.1l-30.4-17.6v-35.4L0 620.8l30.5 17.6v35.1z"/>
    </g>
  </g>
  <g class="guides">
    <circle cx="227.2" r="164.8"/>
    <circle cx="227.2" r="98.8"/>
    <circle cx="227.3" cy="787.1" r="164.8"/>
    <circle cx="227.3" cy="787.1" r="227.2"/>
    <circle cx="227.3" cy="787.1" r="98.8"/>
    <circle cx="227.3" r="227.2"/>
    <circle cx="454.5" cy="393.5" r="164.8"/>
    <circle cx="454.5" cy="393.5" r="227.2"/>
    <circle cx="454.5" cy="393.5" r="98.8"/>
    <circle cy="393.5" r="164.8"/>
    <circle cy="393.5" r="227.2"/>
    <circle cy="393.5" r="98.8"/>
    <path d="M-113.6 590.3l-113.6-196.8 113.6-196.7h227.2l113.7 196.7-113.7 196.8z"/>
    <path d="M-196.8 279.9L0 166.3l196.8 113.6v227.2L0 620.8l-196.8-113.7z"/>
    <path d="M-219.5 334.7l160.7-160.6 219.5 58.8 58.8 219.4L58.8 613l-219.4-58.8zM-227.2 393.5h454.5M-219.5 452.3l439-117.6M-196.8 507.1l393.6-227.2M-160.6 554.2l321.3-321.3M-113.6 590.3l227.2-393.5M-58.8 613L58.8 174.1M0 620.8V166.3M58.8 613L-58.8 174.1M113.6 590.3l-227.2-393.5M160.7 554.2l-321.3-321.3M196.8 507.2l-393.6-227.3M219.5 452.4l-438.9-117.7"/>
    <path d="M-58.8 613l-160.7-160.7 58.9-219.4 219.4-58.8 160.7 160.6-58.8 219.5z"/>
    <path d="M113.6 196.8L0 0l113.6-196.8h227.3L454.5 0 340.9 196.8z"/>
    <path d="M113.6 983.9L0 787.1l113.6-196.8h227.3l113.6 196.8-113.6 196.8z"/>
    <path d="M168.4 1006.6L7.8 845.9l58.8-219.5 219.5-58.8 160.6 160.7-58.8 219.5z"/>
    <path d="M168.4 219.5L7.8 58.8l58.8-219.5 219.5-58.8L446.7-58.8l-58.8 219.4z"/>
    <path d="M227.3 559.9l-30.5-17.6v-35.1l30.4-17.6 30.5 17.5v35.2zM227.3 297.5l-30.5-17.6v-35.1l30.5-17.6 30.4 17.6v35.1zM0 691.1l-30.4-17.6v-35.2L0 620.8l30.5 17.5v35.2zM0 166.3l-30.4-17.6v-35.1L0 96l30.5 17.6v35.1zM454.5 166.3L424 148.7v-35.1L454.5 96l30.4 17.6v35.1z"/>
    <path d="M235 334.7l160.7-160.6 219.5 58.8L674 452.3 513.3 613l-219.5-58.8zM227.3 393.5h454.4M235 452.3l439-117.6M257.7 507.1l393.6-227.2M293.8 554.2l321.4-321.3M340.9 590.3l227.2-393.5M395.7 613l117.6-438.9M454.5 620.8V166.3M513.3 613L395.7 174.1M568.1 590.3L340.9 196.8M615.2 554.2L293.8 232.9M651.3 507.2L257.7 279.9M674 452.4L235 334.7"/>
    <path d="M257.7 279.9l196.8-113.6 196.8 113.6v227.2L454.5 620.8 257.7 507.1z"/>
    <path d="M30.5 673.5l196.8-113.6L424 673.5v227.2l-196.7 113.6L30.5 900.7z"/>
    <path d="M30.5-113.6l196.8-113.7L424-113.6v227.2L227.3 227.2 30.5 113.6z"/>
    <path d="M340.9 590.3L227.3 393.5l113.6-196.7h227.2l113.6 196.7-113.6 196.8z"/>
    <path d="M395.7 613L235 452.3l58.8-219.4 219.5-58.8L674 334.7l-58.8 219.5z"/>
    <path d="M7.8 728.3l160.6-160.7 219.5 58.8 58.8 219.5-160.6 160.7-219.5-58.8zM0 787.1h454.5M7.8 845.9l438.9-117.6M30.5 900.7L424 673.5M66.6 947.8l321.3-321.4M113.6 983.9l227.3-393.6M168.4 1006.6l117.7-439M227.3 1014.3V559.9M286.1 1006.6l-117.7-439M340.9 983.9L113.6 590.3M387.9 947.8L66.6 626.4M424 900.7L30.5 673.5M446.7 845.9L7.8 728.3"/>
    <path d="M7.8-58.8l160.6-160.7 219.5 58.8 58.8 219.5-160.6 160.7-219.5-58.9zM0 0h454.5M7.8 58.8L446.7-58.8M30.5 113.6L424-113.6M66.6 160.6l321.3-321.3M113.6 196.8l227.3-393.6M168.4 219.5l117.7-439M227.3 227.2v-454.5M286.1 219.5l-117.7-439M340.9 196.8L113.6-196.8M387.9 160.7L66.6-160.7M424 113.6L30.5-113.6M446.7 58.8L7.8-58.8"/>
  </g>
</svg>
