<svg xmlns="http://www.w3.org/2000/svg" width="337.8" height="585.1" viewBox="0 0 337.8 585.1">
  <style>
		:root {
	    --emerald: #216554;
	    --white: #FFFAF2;
	    --lightBlue: #2295CE;
    }
    .shape-1{fill:var(--lightBlue)}
    .shape-2{fill:var(--white)}
    .shape-3{fill:var(--emerald)}
    .shape-4{fill:var(--emerald)}
    .shape-5{fill:var(--white)}
    .shape-6{fill:var(--white)}
    .guides{ stroke: #4FFF4F; display: none; fill: none}
  </style>
  <g id="pattern" class="line">
    <path class="shape-1" d="M383.9 304.9l21.4-12.4-21.4-12.3 12.4-21.4h-24.7V234l-21.4 12.4-12.4-21.4-12.4 21.4L304 234v24.8h-24.7l12.3 21.4-21.4 12.3 21.4 12.4-12.3 21.4H304V351l21.4-12.3 12.4 21.4 12.4-21.4 21.4 12.3v-24.7h24.7zM215 12.4L236.5 0 215-12.4l12.4-21.4h-24.7v-24.7l-21.4 12.4-12.4-21.5-12.4 21.5-21.4-12.4v24.7h-24.7l12.4 21.4L101.3 0l21.5 12.4-12.4 21.4h24.7v24.7l21.4-12.4 12.4 21.5 12.4-21.5 21.4 12.4V33.8h24.7zM46.1 304.9l21.5-12.4-21.5-12.3 12.4-21.4H33.8V234l-21.4 12.4L0 225l-12.4 21.4-21.4-12.4v24.8h-24.7l12.4 21.4-21.5 12.3 21.5 12.4-12.4 21.4h24.7V351l21.4-12.3L0 360.1l12.4-21.4L33.8 351v-24.7h24.7zM215 597.4l21.5-12.3-21.5-12.4 12.4-21.4h-24.7v-24.7l-21.4 12.3-12.4-21.4-12.4 21.4-21.4-12.3v24.7h-24.7l12.4 21.4-21.5 12.4 21.5 12.3-12.4 21.5h24.7v24.7l21.4-12.4 12.4 21.4 12.4-21.4 21.4 12.4v-24.7h24.7z"/>
    <path class="shape-2" d="M33.8 166.5L0 225l12.4 21.4L33.8 234zm58.5 33.7L33.8 234v24.8h24.7zm33.8 58.6H58.5l-12.4 21.4 21.5 12.3zM33.8 418.6L0 360.1l12.4-21.4L33.8 351zm58.5-33.8L33.8 351v-24.7h24.7zm33.8-58.5H58.5l-12.4-21.4 21.5-12.4zM304 166.5l33.8 58.5-12.4 21.4L304 234zm-58.5 33.7L304 234v24.8h-24.7zm-33.8 58.6h67.6l12.3 21.4-21.4 12.3zM304 418.6l33.8-58.5-12.4-21.4L304 351zm-58.5-33.8L304 351v-24.7h-24.7zm-33.8-58.5h67.6l12.3-21.4-21.4-12.4zM76.6 92.3l33.8-58.5h24.7v24.7zm58.5 33.8V58.5l21.4-12.4 12.4 21.5z"/>
    <path class="shape-2" d="M202.7 126.1l-33.8-58.5 12.4-21.5 21.4 12.4zM295-33.8h-67.6L215-12.4 236.5 0zm0 67.6L236.5 0 215 12.4l12.4 21.4zm-33.8 58.5l-33.8-58.5h-24.7v24.7zM42.8-33.8h67.6l12.4 21.4L101.3 0zm0 67.6L101.3 0l21.5 12.4-12.4 21.4zm33.8 459l33.8 58.5h24.7v-24.7zm58.5-33.8v67.6l21.4 12.3 12.4-21.4z"/>
    <path class="shape-2" d="M202.7 459l-33.8 58.5 12.4 21.4 21.4-12.3zM295 618.9h-67.6L215 597.4l21.5-12.3zm0-67.6l-58.5 33.8-21.5-12.4 12.4-21.4zm-33.8-58.5l-33.8 58.5h-24.7v-24.7zM42.8 618.9l67.6-.1 12.4-21.4-21.5-12.3zm0-67.6l58.5 33.8 21.5-12.4-12.4-21.4z"/>
    <path class="shape-3" d="M50.7 137.2l33.7 9.1 24.8 24.7-16.9 29.2L33.8 234v-67.5zm109.1 121.6l9.1 33.7-9.1 33.8h-33.7l-58.5-33.8 58.5-33.7zm-50.6 155.3l-24.8 24.7-33.7 9-16.9-29.2V351l58.5 33.8zm177.9-276.9l-33.8 9.1-24.7 24.7 16.9 29.2L304 234v-67.5zM177.9 258.8l-9 33.7 9 33.8h33.8l58.5-33.8-58.5-33.7zm50.7 155.3l24.7 24.7 33.8 9 16.9-29.2V351l-58.5 33.8zM59.7 121.5l24.8 24.8 33.7 9 16.9-29.2V58.5L76.6 92.3z"/>
    <path class="shape-3" d="M219.6 155.3l33.7-9 24.8-24.8-16.9-29.2-58.5-33.8v67.6zM328.7 33.8L337.8 0l-9.1-33.8H295L236.5 0 295 33.8zm-319.6 0L0 0l9.1-33.8h33.7L101.3 0 42.8 33.8zm50.6 429.7l24.8-24.7 33.7-9 16.9 29.2v67.6l-58.5-33.8zm159.9-33.7l33.7 9 24.8 24.7-16.9 29.3-58.5 33.8V459zm109.1 121.5l9.1 33.8-9.1 33.8H295l-58.5-33.8 58.5-33.8zm-319.6 0L0 585.1l9.1 33.8h33.7l58.5-33.8-58.5-33.8z"/>
    <path class="shape-4" d="M135.1 175.5l-42.8 24.7-33.8 58.6h67.6l42.8-24.8-33.8-19.5zM-33.8 117v49.5L0 225l33.8-58.5V117L0 136.5zm202.7 234l-42.8-24.7H58.5l33.8 58.5 42.8 24.7v-39zM33.8 468.1v-49.5L0 360.1l-33.8 58.5V468L0 448.5zm168.9-292.6l42.8 24.7 33.8 58.6h-67.6L168.9 234l33.8-19.5zM371.6 117v49.5L337.8 225 304 166.5V117l33.8 19.5zM168.9 351l42.8-24.7h67.6l-33.8 58.5-42.8 24.7v-39zM304 468.1v-49.5l33.8-58.5 33.8 58.5V468l-33.8-19.5zM135.1 175.5v-49.4l33.8-58.5 33.8 58.5v49.4L168.9 156zM0 58.5l42.8-24.7h67.6L76.6 92.3 33.8 117V78zM304 117l-42.8-24.7-33.8-58.5H295l42.8 24.7L304 78zM135.1 409.6V459l33.8 58.5 33.8-58.5v-49.4l-33.8 19.5zM0 526.6l42.8 24.7h67.6l-33.8-58.5-42.8-24.7v39zm304-58.5l-42.8 24.7-33.8 58.5H295l42.8-24.7-33.8-19.5z"/>
    <path class="shape-5" d="M168.9 234l-42.8 24.8h33.7l9.1 33.7 9-33.7h33.8zm0 117l42.8-24.7h-33.8l-9-33.8-9.1 33.8h-33.7zM304 117l-42.8-24.7 16.9 29.2-24.8 24.8 33.8-9.1 16.9 29.2z"/>
    <path class="shape-5" d="M202.7 175.5l42.8 24.7-16.9-29.2 24.7-24.7-33.7 9-16.9-29.2zM33.8 117v49.4l16.9-29.2 33.8 9.1-24.8-24.8 16.9-29.2z"/>
    <path class="shape-5" d="M135.1 175.5v-49.4l-16.9 29.2-33.7-9 24.7 24.7-16.9 29.2zM304 468.1l-42.8 24.7 16.9-29.3-24.8-24.7 33.8 9.1 16.9-29.3z"/>
    <path class="shape-5" d="M202.7 409.6l42.8-24.8-16.9 29.3 24.7 24.7-33.7-9-16.9 29.2zM33.8 468.1v-49.5l16.9 29.3 33.8-9.1-24.8 24.7 16.9 29.3z"/>
    <path class="shape-5" d="M135.1 409.6V459l-16.9-29.2-33.7 9 24.7-24.7-16.9-29.3zM337.8 58.5l42.8-24.7h-33.8l-9-33.8-9.1 33.8H295zM0 58.5l42.8-24.7H9.1L0 0l-9.1 33.8h-33.7zm337.8 468.1l42.8 24.7h-33.8l-9 33.8-9.1-33.8H295zM0 526.6l42.8 24.7H9.1L0 585.1l-9.1-33.8h-33.7z"/>
    <path class="shape-6" d="M135.1 175.5l33.8-19.5 33.8 19.5v39L168.9 234l-33.8-19.5zM304 78l33.8-19.5L371.6 78v39l-33.8 19.5L304 117zm-337.8 0L0 58.5 33.8 78v39L0 136.5-33.8 117zM304 507.1l33.8 19.5 33.8-19.5v-39l-33.8-19.5-33.8 19.5zm-337.8 0L0 526.6l33.8-19.5v-39L0 448.6l-33.8 19.5zm168.9-97.5l33.8 19.5 33.8-19.5v-39.1L168.9 351l-33.8 19.5z"/>
  </g>
  <g class="guides">
    <circle cx="168.9" cy="585.1" r="168.9"/>
    <circle cx="168.9" cy="585.1" r="67.6"/>
    <circle cx="168.9" r="168.9"/>
    <circle cx="168.9" r="67.6"/>
    <circle cx="337.8" cy="292.5" r="168.9"/>
    <circle cx="337.8" cy="292.5" r="67.6"/>
    <circle cy="292.5" r="168.9"/>
    <circle cy="292.5" r="67.6"/>
    <path d="M-168.9 0L0 292.5 168.9 0zM0 292.5V0m-168.9 0L84.4 146.3m-219.5-87.8l202.6 117M-101.3 0l202.6 117M33.8 234V0m-67.6 234V0m135.1 0l-202.6 117m236.4-58.5l-202.7 117M168.9 0L-84.4 146.3M-129.9 0L19.5 258.8M129.9 0L-19.5 258.8M-168.9 0L0 292.5M-149.4 33.8h298.8M-168.9 585.1L0 292.5l168.9 292.6zM0 292.5v292.6m-168.9 0L84.4 438.8m-219.5 87.8l202.6-117m-168.8 175.5l202.6-117m-67.5-117V585m-67.6-234v234.1m135.1 0l-202.6-117m236.4 58.5L-67.6 409.5m236.5 175.6L-84.4 438.8m-45.5 146.3L19.5 326.3m110.4 258.8L-19.5 326.3m-149.4 258.8L0 292.5m-149.4 258.8h298.8M0 292.5L168.9 0l168.9 292.5zM168.9 0v292.5M0 292.5l253.3-146.2M33.8 234l202.6-117M67.6 292.5l202.6-117m-67.5-117v234m-67.6-234v234m135.1 0l-202.6-117M304 234L101.3 117m236.5 175.5L84.4 146.3M39 292.5L188.4 33.8m110.4 258.7L149.4 33.8M0 292.5L168.9 0M19.5 258.8h298.8"/>
    <path d="M0 292.5l168.9 292.6 168.9-292.6zm168.9 292.6V292.5M0 292.5l253.3 146.3M33.8 351.1l202.6 117M67.6 292.5l202.6 117m-67.5 117.1v-234m-67.6 234V292.5m135.1 0l-202.6 117M304 351L101.3 468.1m236.5-175.6L84.4 438.8M39 292.5l149.4 258.8m110.4-258.8L149.4 551.3M0 292.5l168.9 292.6M19.5 326.3h298.8"/>
    <path d="M0 461.4l-84.4-22.6-61.9-61.8-22.6-84.5 22.6-84.4 61.9-61.8L0 123.6l84.4 22.7 61.9 61.8 22.6 84.4-22.6 84.5-61.9 61.8zM168.9 0l168.9 292.5L506.7 0zm168.9 292.5V0M168.9 0l253.3 146.3M202.7 58.5l202.6 117M236.5 0l202.6 117m-67.5 117V0M304 234V0m135.1 0L236.5 117m236.4-58.5l-202.7 117M506.7 0L253.3 146.3M207.9 0l149.4 258.8M467.7 0L318.3 258.8M168.9 0l168.9 292.5M188.4 33.8h298.8"/>
    <path d="M168.9 168.9l-84.5-22.6-61.8-61.8L0 0l22.6-84.4 61.8-61.9 84.5-22.6 84.4 22.6 61.9 61.9L337.8 0l-22.6 84.5-61.9 61.8zM168.9 585.1l168.9-292.6 168.9 292.6zm168.9-292.6v292.6m-168.9 0l253.3-146.3m-219.5 87.8l202.6-117M236.5 585.1l202.6-117m-67.5-117V585M304 351v234.1m135.1 0l-202.6-117m236.4 58.5L270.2 409.5m236.5 175.6L253.3 438.8m-45.4 146.3l149.4-258.8m110.4 258.8L318.3 326.3M168.9 585.1l168.9-292.6M188.4 551.3h298.8"/>
    <path d="M168.9 754l-84.5-22.7-61.8-61.8L0 585.1l22.6-84.5 61.8-61.8 84.5-22.6 84.4 22.6 61.9 61.8 22.6 84.5-22.6 84.4-61.9 61.8zM337.8 461.4l-84.5-22.6-61.8-61.8-22.6-84.5 22.6-84.4 61.8-61.8 84.5-22.7 84.4 22.7 61.9 61.8 22.6 84.4-22.6 84.5-61.9 61.8z"/>
  </g>
</svg>
