<?xml version="1.0" encoding="utf-8"?>
<svg version="1.1" xmlns="http://www.w3.org/2000/svg" xmlns:xlink="http://www.w3.org/1999/xlink" x="0px" y="0px"
	  width="900" height="1569" viewBox="0 0 100% 100%" xml:space="preserve">
	<style>
		.shape-1 {
			fill: #907A58;
		}
		.shape-2 {
			fill: #475387;
		}
		.shape-3 {
			fill: #406A72;
		}
		.shape-4 {
			fill: #AA8858;
		}
		.shape-5 {
			fill: red;
		}
		.shape-6 {
			fill: green;
		}
		.line {
			stroke: #eee;
			stroke-width: 15px;
		}
		.guides {
			stroke: #4FFF4F;
			display: none;
		}
	</style>
			<g class="line shapes" id="pattern">
				<polygon class="line shape-1" points="705.581,438.437 455.616,438.406 505.616,525.008 455.581,611.61 330.588,395.12 455.581,178.628 505.581,265.231 455.58,351.835 705.563,351.834 830.588,135.344 730.588,135.344 680.571,48.709 930.588,48.71 1055.599,265.231 955.6,265.231 905.58,178.599 780.57,395.121 905.581,611.642 955.581,525.039 1055.581,525.039 930.588,741.531 680.572,741.53 730.572,654.927 830.581,654.942 		"/>
				<polygon class="line shape-1" points="-194.383,438.435 -444.348,438.404 -394.348,525.006 -444.383,611.608 -569.375,395.118 -444.383,178.626 
					-394.383,265.229 -444.384,351.833 -194.401,351.833 -69.376,135.342 -169.376,135.342 -219.393,48.708 30.624,48.708 
					155.635,265.229 55.636,265.229 5.616,178.597 -119.394,395.119 5.617,611.64 55.617,525.037 155.617,525.037 30.624,741.529 
					-219.392,741.528 -169.392,654.925 -69.383,654.94 		"/>
				<polygon class="line shape-2" points="255.599,438.436 5.634,438.405 55.634,525.007 5.599,611.609 -119.394,395.119 5.599,178.627 
					55.599,265.23 5.598,351.834 255.581,351.833 380.606,135.343 280.606,135.343 230.589,48.708 480.606,48.709 605.617,265.23 
					505.618,265.23 455.598,178.598 330.588,395.12 455.599,611.641 505.599,525.038 605.599,525.038 480.606,741.53 230.59,741.529 
					280.59,654.926 380.599,654.941 		"/>
				<polygon class="line shape-2" points="1155.562,438.438 905.598,438.407 955.598,525.009 905.562,611.611 780.57,395.121 905.562,178.629 
					955.562,265.232 905.562,351.836 1155.545,351.835 1280.57,135.345 1180.57,135.345 1130.553,48.71 1380.57,48.711 
					1505.58,265.232 1405.582,265.232 1355.562,178.6 1230.553,395.122 1355.562,611.643 1405.562,525.04 1505.562,525.04 
					1380.57,741.532 1130.555,741.531 1180.555,654.928 1280.562,654.943 		"/>
				<polygon class="line shape-2" points="705.549,1217.891 455.583,1217.86 505.583,1304.462 455.549,1391.064 330.556,1174.574 
					455.549,958.083 505.549,1044.685 455.547,1131.289 705.531,1131.289 830.556,914.798 730.556,914.798 680.539,828.164 
					930.556,828.164 1055.566,1044.686 955.567,1044.686 905.548,958.053 780.538,1174.575 905.549,1391.096 955.549,1304.493 
					1055.549,1304.493 930.556,1520.986 680.54,1520.984 730.54,1434.381 830.549,1434.396 		"/>
				<polygon class="line shape-2" points="-194.415,1217.889 -444.38,1217.858 -394.38,1304.46 -444.415,1391.062 -569.408,1174.572 
					-444.415,958.081 -394.415,1044.683 -444.417,1131.287 -194.433,1131.287 -69.408,914.796 -169.408,914.796 -219.425,828.162 
					30.592,828.162 155.603,1044.684 55.604,1044.684 5.584,958.051 -119.426,1174.573 5.585,1391.094 55.585,1304.491 
					155.585,1304.491 30.592,1520.984 -219.424,1520.982 -169.424,1434.379 -69.415,1434.394 		"/>
				<polygon class="line shape-1" points="255.567,1217.89 5.602,1217.859 55.602,1304.461 5.567,1391.063 -119.426,1174.573 5.567,958.082 
					55.567,1044.684 5.565,1131.288 255.549,1131.288 380.574,914.797 280.574,914.797 230.557,828.163 480.574,828.163 
					605.584,1044.685 505.585,1044.685 455.566,958.052 330.556,1174.574 455.567,1391.095 505.567,1304.492 605.567,1304.492 
					480.574,1520.984 230.558,1520.984 280.558,1434.38 380.567,1434.396 		"/>
				<polygon class="line shape-1" points="1155.53,1217.892 905.565,1217.861 955.565,1304.463 905.53,1391.065 780.538,1174.575 905.53,958.083 
					955.53,1044.686 905.529,1131.29 1155.513,1131.29 1280.538,914.799 1180.538,914.799 1130.521,828.165 1380.538,828.165 
					1505.548,1044.687 1405.55,1044.687 1355.53,958.054 1230.521,1174.576 1355.53,1391.097 1405.53,1304.494 1505.53,1304.494 
					1380.538,1520.986 1130.522,1520.986 1180.522,1434.382 1280.53,1434.398 		"/>
				<polygon class="line shape-3" points="480.574,828.163 230.609,828.132 280.609,914.735 230.574,1001.337 105.582,784.847 
					230.574,568.355 280.574,654.958 230.573,741.562 480.556,741.561 605.581,525.07 505.581,525.07 455.564,438.436 
					705.581,438.437 830.592,654.958 730.593,654.958 680.573,568.326 555.563,784.848 680.574,1001.368 730.574,914.765 
					830.574,914.765 705.581,1131.258 455.565,1131.256 505.565,1044.654 605.574,1044.669 		"/>
				<polygon class="line shape-4" points="30.592,828.162 -219.373,828.131 -169.373,914.734 -219.408,1001.336 -344.4,784.846 
					-219.408,568.354 -169.408,654.957 -219.409,741.561 30.574,741.56 155.599,525.069 55.599,525.069 5.583,438.435 
					255.599,438.436 380.61,654.957 280.611,654.957 230.591,568.325 105.582,784.847 230.592,1001.367 280.592,914.764 
					380.592,914.764 255.599,1131.257 5.583,1131.255 55.583,1044.653 155.592,1044.668 		"/>
				<polygon class="line shape-4" points="930.556,828.164 680.591,828.133 730.591,914.736 680.556,1001.338 555.563,784.848 680.556,568.356 
					730.556,654.958 680.555,741.562 930.538,741.562 1055.563,525.071 955.563,525.071 905.546,438.437 1155.563,438.438 
					1280.573,654.959 1180.575,654.959 1130.556,568.327 1005.546,784.849 1130.556,1001.369 1180.556,914.766 1280.556,914.766 
					1155.563,1131.259 905.548,1131.257 955.548,1044.655 1055.556,1044.67 		"/>
				<polygon class="line shape-3" points="30.574,48.739 -219.391,48.708 -169.391,135.311 -219.426,221.913 -344.418,5.422 
					-219.426,-211.069 -169.426,-124.467 -219.427,-37.863 30.556,-37.863 155.581,-254.354 55.581,-254.354 5.564,-340.988 
					255.581,-340.988 380.592,-124.466 280.593,-124.466 230.573,-211.099 105.563,5.423 230.574,221.944 280.574,135.341 
					380.574,135.341 255.581,351.833 5.565,351.832 55.565,265.229 155.574,265.245 		"/>
				<polygon class="line shape-3" points="930.539,48.741 680.573,48.71 730.573,135.312 680.539,221.915 555.546,5.424 680.539,-211.067 
					730.539,-124.465 680.537,-37.861 930.521,-37.861 1055.545,-254.352 955.545,-254.352 905.529,-340.986 1155.545,-340.986 
					1280.557,-124.464 1180.557,-124.464 1130.537,-211.097 1005.527,5.425 1130.539,221.946 1180.539,135.343 1280.539,135.343 
					1155.545,351.835 905.529,351.834 955.529,265.231 1055.539,265.247 		"/>
				<polygon class="line shape-4" points="480.556,48.74 230.591,48.709 280.591,135.312 230.556,221.914 105.563,5.423 230.556,-211.068 
					280.556,-124.466 230.555,-37.862 480.538,-37.862 605.563,-254.353 505.563,-254.353 455.546,-340.987 705.563,-340.987 
					830.573,-124.465 730.575,-124.465 680.556,-211.098 555.546,5.424 680.556,221.945 730.556,135.342 830.556,135.342 
					705.563,351.834 455.548,351.833 505.548,265.23 605.556,265.246 		"/>
				<polygon class="line shape-3" points="30.56,1607.617 -219.406,1607.585 -169.406,1694.189 -219.44,1780.791 -344.433,1564.3 
					-219.44,1347.808 -169.44,1434.411 -219.442,1521.015 30.542,1521.015 155.566,1304.523 55.566,1304.523 5.55,1217.889 
					255.566,1217.89 380.577,1434.412 280.578,1434.412 230.559,1347.779 105.549,1564.3 230.56,1780.822 280.56,1694.218 
					380.56,1694.218 255.566,1910.71 5.551,1910.71 55.551,1824.107 155.56,1824.123 		"/>
				<polygon class="line shape-3" points="930.524,1607.619 680.559,1607.587 730.559,1694.191 680.524,1780.792 555.531,1564.302 
					680.524,1347.81 730.524,1434.413 680.522,1521.017 930.507,1521.017 1055.53,1304.525 955.53,1304.525 905.515,1217.891 
					1155.53,1217.892 1280.542,1434.414 1180.542,1434.414 1130.522,1347.781 1005.513,1564.302 1130.524,1780.824 1180.524,1694.22 
					1280.524,1694.22 1155.53,1910.712 905.515,1910.712 955.515,1824.109 1055.524,1824.125 		"/>
				<polygon class="line shape-4" points="480.541,1607.617 230.576,1607.587 280.576,1694.189 230.541,1780.791 105.549,1564.3 
					230.541,1347.809 280.541,1434.412 230.54,1521.015 480.523,1521.015 605.549,1304.524 505.549,1304.524 455.531,1217.89 
					705.549,1217.891 830.559,1434.412 730.561,1434.412 680.541,1347.78 555.531,1564.302 680.541,1780.822 730.541,1694.22 
					830.541,1694.22 705.549,1910.712 455.533,1910.71 505.533,1824.109 605.541,1824.123 		"/>
			</g>

			<g class="guides">
				<line class="st3" x1="55.564" y1="-81.179" x2="-644.436" y2="1131.257"/>
				<line class="st3" x1="155.564" y1="-81.179" x2="-544.436" y2="1131.257"/>
				<line class="st3" x1="255.564" y1="-81.179" x2="-444.436" y2="1131.257"/>
				<line class="st3" x1="355.564" y1="-81.179" x2="-344.436" y2="1131.257"/>
				<line class="st3" x1="455.564" y1="-81.179" x2="-244.436" y2="1131.257"/>
				<line class="st3" x1="555.564" y1="-81.179" x2="-144.436" y2="1131.257"/>
				<line class="st3" x1="655.564" y1="-81.179" x2="-44.436" y2="1131.257"/>
				<line class="st3" x1="755.564" y1="-81.179" x2="55.564" y2="1131.257"/>
				<line class="st3" x1="855.563" y1="-81.179" x2="155.564" y2="1131.257"/>
				<line class="st3" x1="955.563" y1="-81.179" x2="255.564" y2="1131.257"/>
				<line class="st3" x1="1055.563" y1="-81.179" x2="355.564" y2="1131.257"/>
				<line class="st3" x1="1155.563" y1="-81.179" x2="455.564" y2="1131.257"/>
				<line class="st3" x1="1255.563" y1="-81.178" x2="555.564" y2="1131.258"/>
				<line class="st3" x1="1355.563" y1="-81.179" x2="655.564" y2="1131.257"/>
				<line class="st3" x1="1455.563" y1="-81.179" x2="755.564" y2="1131.257"/>
				<line class="st3" x1="1555.563" y1="-81.179" x2="855.563" y2="1131.257"/>
				<line class="st3" x1="1655.563" y1="-81.179" x2="955.563" y2="1131.257"/>
				<line class="st3" x1="955.563" y1="-81.178" x2="1655.563" y2="1131.258"/>
				<line class="st3" x1="855.563" y1="-81.178" x2="1555.563" y2="1131.258"/>
				<line class="st3" x1="755.564" y1="-81.178" x2="1455.563" y2="1131.258"/>
				<line class="st3" x1="655.564" y1="-81.178" x2="1355.563" y2="1131.258"/>
				<line class="st3" x1="555.564" y1="-81.178" x2="1255.563" y2="1131.258"/>
				<line class="st3" x1="455.564" y1="-81.178" x2="1155.563" y2="1131.258"/>
				<line class="st3" x1="1055.563" y1="1131.258" x2="355.564" y2="-81.178"/>
				<line class="st3" x1="255.564" y1="-81.178" x2="955.563" y2="1131.258"/>
				<line class="st3" x1="155.564" y1="-81.178" x2="855.563" y2="1131.258"/>
				<line class="st3" x1="55.564" y1="-81.178" x2="755.564" y2="1131.258"/>
				<line class="st3" x1="-44.436" y1="-81.178" x2="655.564" y2="1131.258"/>
				<line class="st3" x1="-144.436" y1="-81.178" x2="555.564" y2="1131.258"/>
				<line class="st3" x1="-244.436" y1="-81.179" x2="455.564" y2="1131.257"/>
				<line class="st3" x1="-344.436" y1="-81.178" x2="355.564" y2="1131.258"/>
				<line class="st3" x1="-444.436" y1="-81.178" x2="255.564" y2="1131.258"/>
				<line class="st3" x1="-544.436" y1="-81.178" x2="155.564" y2="1131.258"/>
				<line class="st3" x1="-644.436" y1="-81.178" x2="55.564" y2="1131.258"/>
				<line class="st3" x1="-294.436" y1="525.039" x2="1305.563" y2="525.039"/>
				<line class="st3" x1="-244.437" y1="438.437" x2="1355.563" y2="438.437"/>
				<line class="st3" x1="-194.437" y1="351.834" x2="1405.563" y2="351.834"/>
				<line class="st3" x1="-144.437" y1="265.232" x2="1455.563" y2="265.232"/>
				<line class="st3" x1="-94.436" y1="178.629" x2="1505.563" y2="178.629"/>
				<line class="st3" x1="-44.437" y1="92.027" x2="1555.563" y2="92.027"/>
				<line class="st3" x1="5.563" y1="5.424" x2="1605.563" y2="5.424"/>
				<line class="st3" x1="-344.436" y1="611.642" x2="1255.563" y2="611.642"/>
				<line class="st3" x1="-394.436" y1="698.244" x2="1405.563" y2="698.244"/>
				<line class="st3" x1="-444.436" y1="784.847" x2="1455.563" y2="784.847"/>
				<line class="st3" x1="-494.436" y1="871.449" x2="1505.563" y2="871.449"/>
				<line class="st3" x1="-545.442" y1="958.052" x2="1564.253" y2="958.052"/>
				<line class="st3" x1="-594.436" y1="1044.654" x2="1614.563" y2="1044.654"/>
				<line class="st3" x1="5.546" y1="-81.178" x2="-694.454" y2="1131.257"/>
				<line class="st3" x1="105.546" y1="-81.178" x2="-594.454" y2="1131.257"/>
				<line class="st3" x1="205.546" y1="-81.178" x2="-494.454" y2="1131.257"/>
				<line class="st3" x1="305.546" y1="-81.178" x2="-394.454" y2="1131.257"/>
				<line class="st3" x1="405.546" y1="-81.178" x2="-294.454" y2="1131.257"/>
				<line class="st3" x1="505.546" y1="-81.178" x2="-194.454" y2="1131.257"/>
				<line class="st3" x1="605.546" y1="-81.178" x2="-94.454" y2="1131.257"/>
				<line class="st3" x1="705.546" y1="-81.178" x2="5.546" y2="1131.257"/>
				<line class="st3" x1="805.546" y1="-81.178" x2="105.546" y2="1131.257"/>
				<line class="st3" x1="905.546" y1="-81.178" x2="205.546" y2="1131.257"/>
				<line class="st3" x1="1005.546" y1="-81.178" x2="305.546" y2="1131.257"/>
				<line class="st3" x1="1105.546" y1="-81.178" x2="405.546" y2="1131.257"/>
				<line class="st3" x1="1205.546" y1="-81.177" x2="505.546" y2="1131.258"/>
				<line class="st3" x1="1305.546" y1="-81.178" x2="605.546" y2="1131.257"/>
				<line class="st3" x1="1405.546" y1="-81.178" x2="705.546" y2="1131.257"/>
				<line class="st3" x1="1505.546" y1="-81.178" x2="805.546" y2="1131.257"/>
				<line class="st3" x1="1605.546" y1="-81.178" x2="905.546" y2="1131.257"/>
				<line class="st3" x1="905.546" y1="-81.177" x2="1605.546" y2="1131.258"/>
				<line class="st3" x1="805.546" y1="-81.177" x2="1505.546" y2="1131.258"/>
				<line class="st3" x1="705.546" y1="-81.177" x2="1405.546" y2="1131.258"/>
				<line class="st3" x1="605.546" y1="-81.177" x2="1305.546" y2="1131.258"/>
				<line class="st3" x1="505.546" y1="-81.177" x2="1205.546" y2="1131.258"/>
				<line class="st3" x1="405.546" y1="-81.177" x2="1105.546" y2="1131.258"/>
				<line class="st3" x1="1005.546" y1="1131.258" x2="305.546" y2="-81.177"/>
				<line class="st3" x1="205.546" y1="-81.177" x2="905.546" y2="1131.258"/>
				<line class="st3" x1="105.546" y1="-81.177" x2="805.546" y2="1131.258"/>
				<line class="st3" x1="5.546" y1="-81.177" x2="705.546" y2="1131.258"/>
				<line class="st3" x1="-94.454" y1="-81.177" x2="605.546" y2="1131.258"/>
				<line class="st3" x1="-194.454" y1="-81.177" x2="505.546" y2="1131.258"/>
				<line class="st3" x1="-294.454" y1="-81.178" x2="405.546" y2="1131.257"/>
				<line class="st3" x1="-394.454" y1="-81.177" x2="305.546" y2="1131.258"/>
				<line class="st3" x1="-494.454" y1="-81.177" x2="205.546" y2="1131.258"/>
				<line class="st3" x1="-594.454" y1="-81.177" x2="105.546" y2="1131.258"/>
				<line class="st3" x1="-694.454" y1="-81.177" x2="5.546" y2="1131.258"/>
				<line class="st3" x1="-148.715" y1="135.344" x2="1451.284" y2="135.344"/>
				<line class="st3" x1="-347.821" y1="481.754" x2="1252.179" y2="481.754"/>
				<line class="st3" x1="-297.822" y1="395.152" x2="1302.179" y2="395.152"/>
				<line class="st3" x1="-247.822" y1="308.549" x2="1352.179" y2="308.549"/>
				<line class="st3" x1="-197.822" y1="221.947" x2="1402.179" y2="221.947"/>
				<line class="st3" x1="-97.822" y1="48.742" x2="1502.179" y2="48.742"/>
				<line class="st3" x1="-47.822" y1="-37.861" x2="1552.179" y2="-37.861"/>
				<line class="st3" x1="-397.821" y1="568.356" x2="1202.179" y2="568.356"/>
				<line class="st3" x1="-447.821" y1="654.959" x2="1352.179" y2="654.959"/>
				<line class="st3" x1="-497.821" y1="741.562" x2="1402.179" y2="741.562"/>
				<line class="st3" x1="-547.821" y1="828.164" x2="1452.179" y2="828.164"/>
				<line class="st3" x1="-598.828" y1="914.767" x2="1510.868" y2="914.767"/>
				<line class="st3" x1="-647.821" y1="1001.369" x2="1561.179" y2="1001.369"/>
				<line class="st3" x1="-582.52" y1="1087.972" x2="1626.479" y2="1087.972"/>
				<line class="st3" x1="-591.722" y1="1174.575" x2="1617.277" y2="1174.575"/>
				<line class="st3" x1="-577.672" y1="1131.259" x2="1631.327" y2="1131.259"/>
				<line class="st3" x1="105.582" y1="2343.695" x2="-594.418" y2="1131.259"/>
				<line class="st3" x1="205.582" y1="2343.695" x2="-494.418" y2="1131.259"/>
				<line class="st3" x1="305.582" y1="2343.695" x2="-394.418" y2="1131.259"/>
				<line class="st3" x1="405.582" y1="2343.695" x2="-294.418" y2="1131.259"/>
				<line class="st3" x1="505.582" y1="2343.695" x2="-194.418" y2="1131.259"/>
				<line class="st3" x1="605.582" y1="2343.695" x2="-94.418" y2="1131.259"/>
				<line class="st3" x1="705.582" y1="2343.695" x2="5.582" y2="1131.259"/>
				<line class="st3" x1="805.582" y1="2343.695" x2="105.582" y2="1131.259"/>
				<line class="st3" x1="905.581" y1="2343.695" x2="205.582" y2="1131.259"/>
				<line class="st3" x1="1005.581" y1="2343.695" x2="305.582" y2="1131.259"/>
				<line class="st3" x1="1105.581" y1="2343.695" x2="405.582" y2="1131.259"/>
				<line class="st3" x1="1205.581" y1="2343.695" x2="505.582" y2="1131.259"/>
				<line class="st3" x1="1305.581" y1="2343.694" x2="605.582" y2="1131.258"/>
				<line class="st3" x1="1405.581" y1="2343.695" x2="705.582" y2="1131.259"/>
				<line class="st3" x1="1505.581" y1="2343.695" x2="805.582" y2="1131.259"/>
				<line class="st3" x1="1605.581" y1="2343.695" x2="905.581" y2="1131.259"/>
				<line class="st3" x1="1705.581" y1="2343.695" x2="1005.581" y2="1131.259"/>
				<line class="st3" x1="1005.581" y1="2343.694" x2="1705.581" y2="1131.258"/>
				<line class="st3" x1="905.581" y1="2343.694" x2="1605.581" y2="1131.258"/>
				<line class="st3" x1="805.582" y1="2343.694" x2="1505.581" y2="1131.258"/>
				<line class="st3" x1="705.582" y1="2343.694" x2="1405.581" y2="1131.258"/>
				<line class="st3" x1="605.582" y1="2343.694" x2="1305.581" y2="1131.258"/>
				<line class="st3" x1="505.582" y1="2343.694" x2="1205.581" y2="1131.258"/>
				<line class="st3" x1="1105.581" y1="1131.258" x2="405.582" y2="2343.694"/>
				<line class="st3" x1="305.582" y1="2343.694" x2="1005.581" y2="1131.258"/>
				<line class="st3" x1="205.582" y1="2343.694" x2="905.581" y2="1131.258"/>
				<line class="st3" x1="105.582" y1="2343.694" x2="805.582" y2="1131.258"/>
				<line class="st3" x1="5.582" y1="2343.694" x2="705.582" y2="1131.258"/>
				<line class="st3" x1="-94.418" y1="2343.694" x2="605.582" y2="1131.258"/>
				<line class="st3" x1="-194.418" y1="2343.695" x2="505.582" y2="1131.259"/>
				<line class="st3" x1="-294.418" y1="2343.694" x2="405.582" y2="1131.258"/>
				<line class="st3" x1="-394.418" y1="2343.694" x2="305.582" y2="1131.258"/>
				<line class="st3" x1="-494.418" y1="2343.694" x2="205.582" y2="1131.258"/>
				<line class="st3" x1="-594.418" y1="2343.694" x2="105.582" y2="1131.258"/>
				<line class="st3" x1="-244.418" y1="1737.477" x2="1355.581" y2="1737.477"/>
				<line class="st3" x1="-194.419" y1="1824.079" x2="1405.581" y2="1824.079"/>
				<line class="st3" x1="-144.419" y1="1910.682" x2="1455.581" y2="1910.682"/>
				<line class="st3" x1="-94.419" y1="1997.284" x2="1505.581" y2="1997.284"/>
				<line class="st3" x1="-44.418" y1="2083.887" x2="1555.581" y2="2083.887"/>
				<line class="st3" x1="5.581" y1="2170.489" x2="1605.581" y2="2170.489"/>
				<line class="st3" x1="55.581" y1="2257.092" x2="1655.581" y2="2257.092"/>
				<line class="st3" x1="-294.418" y1="1650.875" x2="1305.581" y2="1650.875"/>
				<line class="st3" x1="-344.418" y1="1564.272" x2="1455.581" y2="1564.272"/>
				<line class="st3" x1="-394.418" y1="1477.669" x2="1505.581" y2="1477.669"/>
				<line class="st3" x1="-444.418" y1="1391.067" x2="1555.581" y2="1391.067"/>
				<line class="st3" x1="-495.425" y1="1304.464" x2="1614.271" y2="1304.464"/>
				<line class="st3" x1="-544.418" y1="1217.862" x2="1664.581" y2="1217.862"/>
				<line class="st3" x1="55.564" y1="2343.694" x2="-644.436" y2="1131.259"/>
				<line class="st3" x1="155.564" y1="2343.694" x2="-544.436" y2="1131.259"/>
				<line class="st3" x1="255.564" y1="2343.694" x2="-444.436" y2="1131.259"/>
				<line class="st3" x1="355.564" y1="2343.694" x2="-344.436" y2="1131.259"/>
				<line class="st3" x1="455.564" y1="2343.694" x2="-244.436" y2="1131.259"/>
				<line class="st3" x1="555.564" y1="2343.694" x2="-144.436" y2="1131.259"/>
				<line class="st3" x1="655.564" y1="2343.694" x2="-44.436" y2="1131.259"/>
				<line class="st3" x1="755.564" y1="2343.694" x2="55.564" y2="1131.259"/>
				<line class="st3" x1="855.563" y1="2343.694" x2="155.564" y2="1131.259"/>
				<line class="st3" x1="955.563" y1="2343.694" x2="255.564" y2="1131.259"/>
				<line class="st3" x1="1055.563" y1="2343.694" x2="355.564" y2="1131.259"/>
				<line class="st3" x1="1155.563" y1="2343.694" x2="455.564" y2="1131.259"/>
				<line class="st3" x1="1255.563" y1="2343.694" x2="555.564" y2="1131.258"/>
				<line class="st3" x1="1355.563" y1="2343.694" x2="655.564" y2="1131.259"/>
				<line class="st3" x1="1455.563" y1="2343.694" x2="755.564" y2="1131.259"/>
				<line class="st3" x1="1555.563" y1="2343.694" x2="855.563" y2="1131.259"/>
				<line class="st3" x1="1655.563" y1="2343.694" x2="955.563" y2="1131.259"/>
				<line class="st3" x1="955.563" y1="2343.694" x2="1655.563" y2="1131.258"/>
				<line class="st3" x1="855.563" y1="2343.694" x2="1555.563" y2="1131.258"/>
				<line class="st3" x1="755.564" y1="2343.694" x2="1455.563" y2="1131.258"/>
				<line class="st3" x1="655.564" y1="2343.694" x2="1355.563" y2="1131.258"/>
				<line class="st3" x1="555.564" y1="2343.694" x2="1255.563" y2="1131.258"/>
				<line class="st3" x1="455.564" y1="2343.694" x2="1155.563" y2="1131.258"/>
				<line class="st3" x1="1055.563" y1="1131.258" x2="355.564" y2="2343.694"/>
				<line class="st3" x1="255.564" y1="2343.694" x2="955.563" y2="1131.258"/>
				<line class="st3" x1="155.564" y1="2343.694" x2="855.563" y2="1131.258"/>
				<line class="st3" x1="55.564" y1="2343.694" x2="755.564" y2="1131.258"/>
				<line class="st3" x1="-44.436" y1="2343.694" x2="655.564" y2="1131.258"/>
				<line class="st3" x1="-144.436" y1="2343.694" x2="555.564" y2="1131.258"/>
				<line class="st3" x1="-244.436" y1="2343.694" x2="455.564" y2="1131.259"/>
				<line class="st3" x1="-344.436" y1="2343.694" x2="355.564" y2="1131.258"/>
				<line class="st3" x1="-444.436" y1="2343.694" x2="255.564" y2="1131.258"/>
				<line class="st3" x1="-544.436" y1="2343.694" x2="155.564" y2="1131.258"/>
				<line class="st3" x1="-644.436" y1="2343.694" x2="55.564" y2="1131.258"/>
				<line class="st3" x1="-98.697" y1="2127.172" x2="1501.302" y2="2127.172"/>
				<line class="st3" x1="-297.804" y1="1780.762" x2="1302.196" y2="1780.762"/>
				<line class="st3" x1="-247.804" y1="1867.364" x2="1352.196" y2="1867.364"/>
				<line class="st3" x1="-197.804" y1="1953.967" x2="1402.196" y2="1953.967"/>
				<line class="st3" x1="-147.804" y1="2040.569" x2="1452.196" y2="2040.569"/>
				<line class="st3" x1="-47.804" y1="2213.774" x2="1552.196" y2="2213.774"/>
				<line class="st3" x1="2.196" y1="2300.377" x2="1602.196" y2="2300.377"/>
				<line class="st3" x1="-347.804" y1="1694.16" x2="1252.196" y2="1694.16"/>
				<line class="st3" x1="-397.804" y1="1607.557" x2="1402.196" y2="1607.557"/>
				<line class="st3" x1="-447.804" y1="1520.955" x2="1452.196" y2="1520.955"/>
				<line class="st3" x1="-497.804" y1="1434.352" x2="1502.196" y2="1434.352"/>
				<line class="st3" x1="-548.81" y1="1347.75" x2="1560.886" y2="1347.75"/>
				<line class="st3" x1="-597.804" y1="1261.147" x2="1611.196" y2="1261.147"/>
			</g>
</svg>