<svg xmlns="http://www.w3.org/2000/svg" width="900" height="1569" viewBox="0 0 900 1569">
  <style>
    :root { --black: #443430; --red: #BF402B; --gold: #CEA600; --turquois: #4D9BA3; --emerald: #216554; --blue: #262F66; --white: #FFFAF2; --lightBlue: #2AAFDD; } .shape-1 { fill: var(--red); } .shape-2 { fill: var(--black); } .shape-3 { fill: var(--white); } .shape-4 { fill: var(--turquois); } .shape-5 { fill: red; } .shape-6 { fill: green; }
    .guides { stroke: #4FFF4F; display: none; }
  </style>
  <g class="line shapes" id="pattern">
    <path class="line shape-1" d="M705.6 438.4h-250l50 86.6-50 86.6-125-216.5 125-216.5 50 86.6-50 86.6h250l125-216.5h-100l-50-86.6h250l125 216.5h-100l-50-86.6-125 216.5 125 216.5 50-86.6h100l-125 216.5h-250l50-86.6h100zM-194.4 438.4h-249.9l50 86.6-50.1 86.6-125-216.5 125-216.5 50 86.6-50 86.6h250l125-216.5h-100l-50-86.6h250l125 216.5h-100l-50-86.6-125 216.5 125 216.5 50-86.6h100l-125 216.5h-250l50-86.6h100z"/>
    <path class="line shape-2" d="M255.6 438.4H5.6l50 86.6-50 86.6-125-216.5 125-216.5 50 86.6-50 86.6h250l125-216.5h-100l-50-86.6h250l125 216.5h-100l-50-86.6-125 216.5 125 216.5 50-86.6h100l-125 216.5h-250l50-86.6h100zM1155.6 438.4h-250l50 86.6-50 86.6-125-216.5 125-216.5 50 86.6-50 86.6h249.9l125.1-216.5h-100l-50-86.6h250l125 216.5h-100l-50-86.6-125 216.5 125 216.5 50-86.6h100l-125 216.5h-250l50-86.6h100zM705.5 1217.9H455.6l50 86.6-50.1 86.6-124.9-216.5 124.9-216.5 50 86.6-50 86.6h250l125.1-216.5h-100l-50.1-86.6h250.1l125 216.5h-100l-50.1-86.6-125 216.5 125 216.5 50-86.6h100L930.6 1521H680.5l50-86.6h100zM-194.4 1217.9h-250l50 86.6-50 86.6-125-216.5 125-216.5 50 86.6-50 86.6h250l125-216.5h-100l-50-86.6h250l125 216.5h-100l-50-86.6-125 216.5 125 216.5 50-86.6h100L30.6 1521h-250l50-86.6h100z"/>
    <path class="line shape-1" d="M255.6 1217.9H5.6l50 86.6-50 86.6-125-216.5 125-216.5 50 86.6-50 86.6h249.9l125.1-216.5h-100l-50-86.6h250l125 216.5h-100l-50-86.6-125 216.5 125 216.5 50-86.6h100l-125 216.5h-250l50-86.6h100zM1155.5 1217.9H905.6l50 86.6-50.1 86.6-125-216.5 125-216.5 50 86.6-50 86.6h250l125-216.5h-100l-50-86.6h250l125 216.5h-100l-50-86.6-125 216.5 125 216.5 50-86.6h100l-125 216.5h-250l50-86.6h100z"/>
    <path class="line shape-3" d="M480.6 828.2l-250-.1 50 86.6-50 86.6-125-216.5 125-216.4 50 86.6-50 86.6h250l125-216.5h-100l-50-86.7h250l125 216.6h-100l-50-86.7-125 216.5 125 216.6 50-86.6h100l-125 216.5h-250l50-86.6h100z"/>
    <path class="line shape-4" d="M30.6 828.2l-250-.1 50 86.6-50 86.6-125-216.5 125-216.4 50 86.6-50 86.6h250l125-216.5h-100l-50-86.7h250l125 216.6h-100l-50-86.7-125 216.5 125 216.6 50-86.6h100l-125 216.5H5.6l50-86.6h100zM930.6 828.2l-250-.1 50 86.6-50 86.6-125-216.5 125-216.4 50 86.6-50 86.6h249.9l125.1-216.5h-100l-50.1-86.7h250.1l125 216.6h-100l-50-86.7-125.1 216.5 125.1 216.6 50-86.6h100l-125 216.5H905.5l50-86.6h100.1z"/>
    <path class="line shape-3" d="M30.6 48.7h-250l50 86.6-50 86.6-125-216.5 125-216.5 50 86.6-50 86.6h250l125-216.5h-100L5.6-341h250l125 216.5h-100l-50-86.6-125 216.5 125 216.5 50-86.6h100l-125 216.5H5.6l50-86.6h100zM930.5 48.7H680.6l50 86.6-50.1 86.6-125-216.5 125-216.5 50 86.6-50 86.6h250l125-216.5h-100l-50-86.6h250l125.1 216.5h-100l-50.1-86.6-125 216.5 125 216.5 50-86.6h100l-125 216.5h-250l50-86.6h100z"/>
    <path class="line shape-4" d="M480.6 48.7h-250l50 86.6-50 86.6-125-216.5 125-216.5 50 86.6-50 86.6h249.9l125.1-216.5h-100L455.5-341h250.1l125 216.5h-100l-50-86.6L555.5 5.4l125.1 216.5 50-86.6h100l-125 216.5H455.5l50-86.6h100.1z"/>
    <path class="line shape-3" d="M30.6 1607.6h-250l50 86.6-50 86.6-125-216.5 125-216.5 50 86.6-50 86.6H30.5l125.1-216.5h-100l-50.1-86.6h250.1l125 216.5h-100l-50-86.6-125.1 216.5 125.1 216.5 50-86.6h100l-125 216.5H5.6l50-86.6h100zM930.5 1607.6H680.6l50 86.6-50.1 86.6-125-216.5 125-216.5 50 86.6-50 86.6h250l125-216.5h-100l-50-86.6h250l125 216.5h-100l-50-86.6-125 216.5 125 216.5 50-86.6h100l-125 216.5h-250l50-86.6h100z"/>
    <path class="line shape-4" d="M480.5 1607.6H230.6l50 86.6-50.1 86.6-125-216.5 125-216.5 50 86.6-50 86.6h250l125-216.5h-100l-50-86.6h250l125.1 216.5h-100l-50.1-86.6-125 216.5 125 216.5 50-86.6h100l-125 216.5h-250l50-86.6h100z"/>
  </g>
  <g class="guides">
    <path class="st3" d="M55.6-81.2l-700 1212.5M155.6-81.2l-700 1212.5M255.6-81.2l-700 1212.5M355.6-81.2l-700 1212.5M455.6-81.2l-700 1212.5M555.6-81.2l-700 1212.5M655.6-81.2l-700 1212.5M755.6-81.2l-700 1212.5M855.6-81.2l-700 1212.5M955.6-81.2l-700 1212.5M1055.6-81.2l-700 1212.5M1155.6-81.2l-700 1212.5M1255.6-81.2l-700 1212.5M1355.6-81.2l-700 1212.5M1455.6-81.2l-700 1212.5M1555.6-81.2l-700 1212.5M1655.6-81.2l-700 1212.5M955.6-81.2l700 1212.5M855.6-81.2l700 1212.5M755.6-81.2l700 1212.5M655.6-81.2l700 1212.5M555.6-81.2l700 1212.5M455.6-81.2l700 1212.5M1055.6 1131.3L355.6-81.2M255.6-81.2l700 1212.5M155.6-81.2l700 1212.5M55.6-81.2l700 1212.5M-44.4-81.2l700 1212.5M-144.4-81.2l700 1212.5M-244.4-81.2l700 1212.5M-344.4-81.2l700 1212.5M-444.4-81.2l700 1212.5M-544.4-81.2l700 1212.5M-644.4-81.2l700 1212.5M-294.4 525h1600M-244.4 438.4h1600M-194.4 351.8h1600M-144.4 265.2h1600M-94.4 178.6h1600M-44.4 92h1600M5.6 5.4h1600M-344.4 611.6h1600M-394.4 698.2h1800M-444.4 784.8h1900M-494.4 871.4h2000M-545.4 958.1h2109.7M-594.4 1044.7h2209M5.5-81.2l-700 1212.5M105.5-81.2l-700 1212.5M205.5-81.2l-700 1212.5M305.5-81.2l-700 1212.5M405.5-81.2l-700 1212.5M505.5-81.2l-700 1212.5M605.5-81.2l-700 1212.5M705.5-81.2L5.5 1131.3M805.5-81.2l-700 1212.5M905.5-81.2l-700 1212.5M1005.5-81.2l-700 1212.5M1105.5-81.2l-700 1212.5M1205.5-81.2l-700 1212.5M1305.5-81.2l-700 1212.5M1405.5-81.2l-700 1212.5M1505.5-81.2l-700 1212.5M1605.5-81.2l-700 1212.5M905.5-81.2l700 1212.5M805.5-81.2l700 1212.5M705.5-81.2l700 1212.5M605.5-81.2l700 1212.5M505.5-81.2l700 1212.5M405.5-81.2l700 1212.5M1005.5 1131.3L305.5-81.2M205.5-81.2l700 1212.5M105.5-81.2l700 1212.5M5.5-81.2l700 1212.5M-94.5-81.2l700 1212.5M-194.5-81.2l700 1212.5M-294.5-81.2l700 1212.5M-394.5-81.2l700 1212.5M-494.5-81.2l700 1212.5M-594.5-81.2l700 1212.5M-694.5-81.2l700 1212.5M-148.7 135.3h1600M-347.8 481.8h1600M-297.8 395.2h1600M-247.8 308.5h1600M-197.8 221.9h1600M-97.8 48.7h1600M-47.8-37.9h1600M-397.8 568.4h1600M-447.8 655h1800M-497.8 741.6h1900M-547.8 828.2h2000M-598.8 914.8h2109.7M-647.8 1001.4h2209M-582.5 1088h2209M-591.7 1174.6h2209M-577.7 1131.3h2209M105.6 2343.7l-700-1212.4M205.6 2343.7l-700-1212.4M305.6 2343.7l-700-1212.4M405.6 2343.7l-700-1212.4M505.6 2343.7l-700-1212.4M605.6 2343.7l-700-1212.4M705.6 2343.7L5.6 1131.3M805.6 2343.7l-700-1212.4M905.6 2343.7l-700-1212.4M1005.6 2343.7l-700-1212.4M1105.6 2343.7l-700-1212.4M1205.6 2343.7l-700-1212.4M1305.6 2343.7l-700-1212.4M1405.6 2343.7l-700-1212.4M1505.6 2343.7l-700-1212.4M1605.6 2343.7l-700-1212.4M1705.6 2343.7l-700-1212.4M1005.6 2343.7l700-1212.4M905.6 2343.7l700-1212.4M805.6 2343.7l700-1212.4M705.6 2343.7l700-1212.4M605.6 2343.7l700-1212.4M505.6 2343.7l700-1212.4M1105.6 1131.3l-700 1212.4M305.6 2343.7l700-1212.4M205.6 2343.7l700-1212.4M105.6 2343.7l700-1212.4M5.6 2343.7l700-1212.4M-94.4 2343.7l700-1212.4M-194.4 2343.7l700-1212.4M-294.4 2343.7l700-1212.4M-394.4 2343.7l700-1212.4M-494.4 2343.7l700-1212.4M-594.4 2343.7l700-1212.4M-244.4 1737.5h1600M-194.4 1824.1h1600M-144.4 1910.7h1600M-94.4 1997.3h1600M-44.4 2083.9h1600M5.6 2170.5h1600M55.6 2257.1h1600M-294.4 1650.9h1600M-344.4 1564.3h1800M-394.4 1477.7h1900M-444.4 1391.1h2000M-495.4 1304.5h2109.7M-544.4 1217.9h2209M55.6 2343.7l-700-1212.4M155.6 2343.7l-700-1212.4M255.6 2343.7l-700-1212.4M355.6 2343.7l-700-1212.4M455.6 2343.7l-700-1212.4M555.6 2343.7l-700-1212.4M655.6 2343.7l-700-1212.4M755.6 2343.7l-700-1212.4M855.6 2343.7l-700-1212.4M955.6 2343.7l-700-1212.4M1055.6 2343.7l-700-1212.4M1155.6 2343.7l-700-1212.4M1255.6 2343.7l-700-1212.4M1355.6 2343.7l-700-1212.4M1455.6 2343.7l-700-1212.4M1555.6 2343.7l-700-1212.4M1655.6 2343.7l-700-1212.4M955.6 2343.7l700-1212.4M855.6 2343.7l700-1212.4M755.6 2343.7l700-1212.4M655.6 2343.7l700-1212.4M555.6 2343.7l700-1212.4M455.6 2343.7l700-1212.4M1055.6 1131.3l-700 1212.4M255.6 2343.7l700-1212.4M155.6 2343.7l700-1212.4M55.6 2343.7l700-1212.4M-44.4 2343.7l700-1212.4M-144.4 2343.7l700-1212.4M-244.4 2343.7l700-1212.4M-344.4 2343.7l700-1212.4M-444.4 2343.7l700-1212.4M-544.4 2343.7l700-1212.4M-644.4 2343.7l700-1212.4M-98.7 2127.2h1600M-297.8 1780.8h1600M-247.8 1867.4h1600M-197.8 1954h1600M-147.8 2040.6h1600M-47.8 2213.8h1600M2.2 2300.4h1600M-347.8 1694.2h1600M-397.8 1607.6h1800M-447.8 1521h1900M-497.8 1434.4h2000M-548.8 1347.8h2109.7M-597.8 1261.1h2209"/>
  </g>
</svg>
