<svg xmlns="http://www.w3.org/2000/svg" width="508" height="508" viewBox="0 0 508 508">
  <style>
		:root {
      --black: #443430;
      --gold: #CEA600;
	    --emerald: #216554;
	    --white: #FFFAF2;
	    --lightBlue: #2295CE;
    }
    .shape-1{fill:var(--black)}
    .shape-2{fill:var(--white)}
    .shape-3{fill:var(--white)}
    .shape-4{fill:var(--emerald)}
    .shape-5{fill:var(--white)}
    .shape-6{fill:var(--emerald)}
    .shape-7{fill:var(--white)}
    .shape-8{fill:var(--lightBlue)}
    .guides{ stroke: #4FFF4F; display: none; fill: none}
  </style>
  <g id="pattern" class="line">
    <path class="shape-1" d="M175.9 203.1h27.2v-27.2l50.9 29.4 50.9-29.4v27.2h27.2L302.8 254l29.3 50.9h-27.2v27.2L254 302.7l-50.9 29.4v-27.2h-27.2l29.3-50.9z"/>
    <path class="shape-2" d="M138.7 138.7l64.4 37.2v27.2h-27.2zM369.3 138.7l-37.2 64.4h-27.2v-27.2zM369.3 369.3l-64.4-37.2v-27.2h27.2zM138.7 369.3l37.2-64.4h27.2v27.2z"/>
    <path class="shape-3" d="M254 87.9l-50.9 29.4v58.6l50.9 29.4 50.9-29.4v-58.6zM420.1 253.9l-29.4-50.8h-58.6L302.8 254l29.3 50.8h58.6zM254 420.1l51-29.5-.1-58.6-50.9-29.3-50.9 29.4v58.6zM87.9 254.1l29.4 50.9 58.6-.1 29.3-50.9-29.3-50.9h-58.6z"/>
    <g>
      <path class="shape-4" d="M88 50.8h101.6L254 87.9l-50.9 29.4v58.6l-64.4-37.2zM50.8 88l88 50.8 37.1 64.3h-58.6L88 253.9l-37.2-64.3zM457.2 87.9v101.6l-37.1 64.4-29.4-50.8h-58.6l37.2-64.4z"/>
      <path class="shape-4" d="M420 50.7l-50.7 88-64.4 37.2v-58.6l-50.8-29.4 64.3-37.1zM420.1 457.1l-101.7.1-64.4-37.1 51-29.5-.1-58.6 64.4 37.2zM457.3 419.9l-88-50.7-37.2-64.4h58.6l29.4-50.8 37.1 64.4zM50.8 420.1V318.5l37.1-64.4 29.4 50.9 58.6-.1-37.2 64.4zM88 457.3l50.7-88 64.4-37.2v58.6l50.9 29.4-64.3 37.1z"/>
    </g>
      <path class="shape-5" d="M254 0l-14.7 50.8h-49.7L254 87.9l64.4-37.1h-49.7zM508 254l-50.8-14.8v-49.7l-37.1 64.4 37.1 64.5v-49.8zM254 508l14.7-50.8h49.7L254 420.1l-64.3 37.1h49.6zM0 254l50.8 14.7v49.8l37.1-64.4-37.1-64.5v49.7z"/>
    <g>
      <path class="shape-6" d="M254 0l-14.7-50.8h-49.7L101.6 0l88 50.8h49.7L254 0zM-50.8 239.3v-49.7l50.8-88 50.8 88v49.7L0 254zM508 254l50.8-14.8v-49.7l-50.8-88-50.8 88v49.7L508 254zM254 0l14.7-50.9h49.7l88 50.8-88 50.9h-49.7zM268.8 558.7h49.7l87.9-50.7-88-50.8h-49.7L254 508zM508 254l50.9 14.6v49.7L508 406.4l-50.8-88v-49.8zM0 254l-50.8 14.7v49.7l50.8 88 50.8-88v-49.7L0 254zM254 508l-14.7 50.9h-49.7l-88-50.8 88.1-50.9h49.6z"/>
    </g>
    <g>
      <path class="shape-7" d="M101.6 0L69.4 18.6 88 50.8h101.6zM88 50.8H50.8V88l88 50.8zM50.8 88L18.6 69.4 0 101.6l50.8 88zM508 101.5l-18.6-32.2-32.2 18.6v101.6zM457.2 87.9V50.7H420l-50.7 88zM420 50.7l18.6-32.1L406.4-.1l-88 50.9zM406.4 508l32.2-18.6-18.5-32.3-101.7.1zM420.1 457.1h37.2v-37.2l-88-50.7zM457.3 419.9l32.1 18.6 18.6-32.1-50.8-88zM0 406.5l18.6 32.2 32.2-18.6V318.5zM50.8 420.1v37.2H88l50.7-88zM88 457.3l-18.5 32.1 32.1 18.7 88.1-50.9z"/>
    </g>
    <g>
      <path class="shape-8" d="M-19.4-19.4h121V0L69.4 18.6 88 50.8H50.8V88L18.6 69.4 0 101.6h-19.4zM527.4-19.5v121H508l-18.6-32.2-32.2 18.6V50.7H420l18.6-32.1L406.4-.1v-19.4zM527.5 527.3h-121l-.1-19.3 32.2-18.6-18.5-32.3h37.2v-37.2l32.1 18.6 18.6-32.1 19.5-.1zM-19.4 527.5v-121H0l18.6 32.2 32.2-18.6v37.2H88l-18.6 32.1 32.2 18.7v19.4z"/>
    </g>
  </g>
  <g class="guides">
    <circle r="71.8"/>
    <circle cy="508" r="71.8"/>
    <circle cx="508" r="71.8"/>
    <circle cx="508" cy="508" r="71.8"/>
    <path d="M0 0l254 68.1M0 0l146.6 254M0 0l254 146.6M0 0h508M0 0l508 508M0 0l68.1 254M0 508l146.6-254M0 508l254-146.6M0 508l68.1-254M0 508l254-68.1M0 101.6l117.3 203.3M0 406.4l117.3-203.3M101.6 0l203.3 117.3M101.6 508l203.3-117.3M117.3 203.1h273.4M18.6 438.6L0 406.4M18.6 438.6L254 302.7M18.6 69.4L0 101.6M18.6 69.4L254 205.3M203.1 390.7V117.3M254 508V0M304.9 117.3v273.4M390.7 304.9H117.3M406.4 0L203.1 117.3M406.4 508L203.1 390.7M438.6 18.6L302.8 254M438.6 18.6L406.4 0M438.6 489.4L406.4 508M438.6 489.4L302.8 254M489.4 438.6L254 302.7M489.4 438.6l18.6-32.2M489.4 69.4L254 205.3M489.4 69.4l18.6 32.2M508 101.6L390.7 304.9M508 406.4L390.7 203.1M508 0L254 68.1M508 0L0 508M508 0L254 146.6M508 0L361.4 254M508 0l-68.1 254M508 254H0M508 508L254 361.4M508 508L361.4 254M508 508l-68.1-254M508 508l-254-68.1M69.4 18.6L205.2 254M69.4 18.6L101.6 0M69.4 489.4l32.2 18.6M69.4 489.4L205.2 254M175.9 203.1L0 254l175.9 50.9M203.1 332.1L254 508l50.9-175.9M304.9 175.9L254 0l-50.9 175.9M332.1 304.9L508 254l-175.9-50.9"/>
    <path d="M0 0h508v508H0z"/>
    <path d="M50.8 50.8h406.4v406.4H50.8z"/>
  </g>
</svg>
