<svg xmlns="http://www.w3.org/2000/svg" width="450" height="450" viewBox="0 0 450 450">
  <style>
		:root {
	    --emerald: #216554;
	    --white: #FFFAF2;
	    --lightBlue: #2295CE;
    }
    .shape-2{fill:var(--lightBlue)}
    .shape-1{fill:var(--white)}
    .shape-3{fill:var(--emerald)}
    .shape-4{fill:var(--white)}
    .shape-5{fill:var(--emerald)}
    .shape-6{fill:var(--white)}
    .shape-7{fill:var(--white)}
    .shape-8{fill:var(--white)}
    .shape-9{fill:var(--emerald)}
    .shape-10{fill:var(--emerald)}
    .shape-11{fill:var(--white)}
    .shape-12{fill:var(--white)}
    .guides{ stroke: #4FFF4F; display: none; fill: none}
  </style>
  <g id="pattern" class="line">
    <path class="shape-1" d="M39.5 39.5l-1.7 25.9 54.5 26.9-26.9-54.5zm14.4-25.1l11.5 23.4 60.7-4L75.5 0zM14.5 53.9L0 75.5l33.8 50.6 4-60.7zm396.1-14.4l1.7 25.9-54.6 26.9 26.9-54.5zm-14.5-25.1l-11.5 23.4-60.7-4L374.5 0zm39.5 39.5L450 75.5l-33.8 50.6-3.9-60.7zM39.5 410.5l-1.7-25.9 54.5-26.9-26.9 54.5zm14.4 25.1l11.5-23.4 60.7 4L75.5 450zm-39.4-39.5L0 374.5l33.8-50.6 4 60.7zm396.1 14.4l1.7-25.9-54.6-26.9 26.9 54.5zm-14.5 25.1l-11.5-23.4-60.7 4 50.6 33.8zm39.5-39.5l14.4-21.6-33.8-50.6-3.9 60.7z"/>
    <path class="shape-2" d="M-14.9-14.9h88.8L75.5 0 53.9 14.4l11.5 23.4-25.9 1.7-1.7 25.9-23.3-11.5L0 75.5l-14.9-1.6zm479.8 0h-88.8L374.5 0l21.6 14.4-11.5 23.4 26 1.7 1.7 25.9 23.3-11.5L450 75.5l14.9-1.6zM-14.9 464.9h88.8l1.6-14.9-21.6-14.4 11.5-23.4-25.9-1.7-1.7-25.9-23.3 11.5L0 374.5l-14.9 1.6zm479.8 0h-88.8l-1.6-14.9 21.6-14.4-11.5-23.4 26-1.7 1.7-25.9 23.3 11.5 14.4-21.6 14.9 1.6z"/>
    <path class="shape-3" d="M37.8 65.4l-4 60.7 11.4 17.1 34.9-4.5 21.3-28-9.1-18.4zm27.6-27.6l26.9 54.5 18.5 9.1L138.6 80l4.6-34.8-17.1-11.4zM75.5 0l50.6 33.8 20.5-1.3L160 0l-13.4-32.5-20.5-1.3zM0 75.5l-33.8 50.6 1.4 20.6L0 160l32.5-13.4 1.3-20.5zm412.3-10.1l3.9 60.7-11.4 17.1-34.8-4.5-21.4-28 9.1-18.4zm-27.7-27.6l-26.9 54.5-18.5 9.1L311.4 80l-4.6-34.8 17.1-11.4zM374.5 0l-50.6 33.8-20.5-1.3L290 0l13.4-32.5 20.5-1.3zM450 75.5l33.8 50.6-1.4 20.6L450 160l-32.5-13.4-1.3-20.5zM37.8 384.6l-4-60.7 11.4-17.1 34.9 4.5 21.3 28-9.1 18.4zm27.6 27.6l26.9-54.5 18.5-9.1 27.8 21.4 4.6 34.8-17.1 11.4zM75.5 450l50.6-33.8 20.5 1.3L160 450l-13.4 32.5-20.5 1.3zM0 374.5l-33.8-50.6 1.4-20.6L0 290l32.5 13.4 1.3 20.5zm412.3 10.1l3.9-60.7-11.4-17.1-34.8 4.5-21.4 28 9.1 18.4zm-27.7 27.6l-26.9-54.5-18.5-9.1-27.8 21.4-4.6 34.8 17.1 11.4zM374.5 450l-50.6-33.8-20.5 1.3L290 450l13.4 32.5 20.5 1.3zm75.5-75.5l33.8-50.6-1.4-20.6L450 290l-32.5 13.4-1.3 20.5z"/>
    <path class="shape-4" d="M126.1 33.8l20.5-1.3L160 0l20 48.2L138.6 80l4.6-34.8zM92.3 92.3l18.5 9.1L138.6 80l-6.8 51.8-51.7 6.9 21.3-28z"/>
    <path class="shape-4" d="M33.8 126.1l11.4 17.1 34.9-4.5L48.2 180 0 160l32.5-13.4zm290.1-92.3l-20.5-1.3L290 0l-20 48.2L311.4 80l-4.6-34.8zm33.8 58.5l-18.5 9.1L311.4 80l6.8 51.8 51.8 6.9-21.4-28zm58.5 33.8l-11.4 17.1-34.8-4.5 31.8 41.3 48.2-20-32.5-13.4zM126.1 416.2l20.5 1.3L160 450l20-48.2-41.4-31.8 4.6 34.8zm-33.8-58.5l18.5-9.1 27.8 21.4-6.8-51.8-51.7-6.9 21.3 28z"/>
    <path class="shape-4" d="M33.8 323.9l11.4-17.1 34.9 4.5L48.2 270 0 290l32.5 13.4zm290.1 92.3l-20.5 1.3L290 450l-20-48.2 41.4-31.8-4.6 34.8zm33.8-58.5l-18.5-9.1-27.8 21.4 6.8-51.8 51.8-6.9-21.4 28zm58.5-33.8l-11.4-17.1-34.8 4.5 31.8-41.3 48.2 20-32.5 13.4z"/>
    <path class="shape-5" d="M180 48.2L138.6 80l-6.8 51.8 56.2-7.4-13.7-23.8h27.4zm0-96.4L160 0l20 48.2 45-34.5L207.2 0 225-13.7zm-48.2 180l-51.7 6.9L48.2 180l52.5 21.8v-27.4l23.7 13.7zM48.2 180L0 160l-48.3 20.1 34.6 44.9L0 207.2 13.7 225zM270 48.2L311.4 80l6.8 51.8-56.2-7.4 13.7-23.8h-27.4zm0-96.4L290 0l-20 48.2-45-34.5L242.9 0 225-13.7zm48.2 180l51.8 6.9 31.8 41.3-52.5 21.8v-27.4l-23.7 13.7zm83.6 48.2l48.2-20 48.3 20.1-34.6 44.9-13.7-17.8-13.7 17.8zM180 401.8L138.6 370l-6.8-51.8 56.2 7.4-13.7 23.8h27.4zm0 96.4L160 450l20-48.2 45 34.5-17.8 13.7 17.8 13.7zm-48.2-180l-51.7-6.9L48.2 270l52.5-21.8v27.4l23.7-13.7z"/>
    <path class="shape-5" d="M48.2 270L0 290l-48.3-20.1 34.6-44.9L0 242.8 13.7 225zM270 401.8l41.4-31.8 6.8-51.8-56.2 7.4 13.7 23.8h-27.4zm0 96.4l20-48.2-20-48.2-45 34.5 17.9 13.7-17.9 13.7zm48.2-180l51.8-6.9 31.8-41.3-52.5-21.8v27.4l-23.7-13.7zm83.6-48.2l48.2 20 48.3-20.1-34.6-44.9-13.7 17.8-13.7-17.8z"/>
    <path class="shape-6" d="M174.3 100.6h27.4l8.6 20.8-22.3 3zm-73.6 73.8l23.7 13.7-2.9 22.2-20.8-8.5zm175-73.8h-27.4l-8.6 20.8 22.3 3zM242.9 0L225-13.7 207.2 0 225 13.7zm106.4 174.4l-23.7 13.7 2.9 22.2 20.8-8.5zm-175 175h27.4l8.6-20.8-22.3-3zm-73.6-73.8l23.7-13.7-2.9-22.2-20.8 8.5zm-87-50.6L0 207.2-13.6 225h-.1.1L0 242.8 13.7 225zm262 124.4h-27.4l-8.6-20.8 22.3-3zM242.9 450L225 463.7 207.2 450l17.8-13.7zm106.4-174.4l-23.7-13.7 2.9-22.2 20.8 8.5zM463.7 225h-.1L450 207.2 436.3 225l13.7 17.8 13.6-17.8h.1z"/>
    <path class="shape-7" d="M225 13.7l-45 34.5 21.7 52.4h46.6L270 48.2zM48.2 180l-34.4 45h-.1.1l34.4 45 52.5-21.8v-46.4zM225 436.3l-45-34.5 21.7-52.4h46.6l21.7 52.4zM436.3 225l-34.5-45-52.5 21.8v46.4l52.5 21.8 34.5-45z"/>
    <path class="shape-8" d="M131.8 131.8l-7.4 56.3 40.3 23.2 46.6-46.6-23.3-40.3zm186.4 0l7.4 56.3-40.3 23.2-46.6-46.6 23.3-40.3zM131.8 318.2l-7.4-56.3 40.3-23.2 46.6 46.6-23.3 40.3zm186.4 0l7.4-56.3-40.3-23.2-46.6 46.6 23.3 40.3z"/>
    <path class="shape-9" d="M211.3 164.7l13.7 23.7-13.4 23.2-23.2 13.4-23.7-13.7zm27.4 0L225 188.4l13.4 23.2 23.2 13.4 23.7-13.7zm-27.4 120.6l13.7-23.7-13.4-23.2-23.2-13.4-23.7 13.7zm27.4 0L225 261.6l13.4-23.2 23.2-13.4 23.7 13.7z"/>
    <path class="shape-10" d="M239.7 121.4l8.6-20.8h-46.6l8.6 20.8-22.3 3 23.3 40.3L225 151l13.7 13.7 23.3-40.3zm-74.9 90l-40.4-23.3-3 22.3-20.7-8.6v46.4l20.7-8.6 3 22.3 40.4-23.3-13.7-13.6zm163.8-1l-3-22.3-40.3 23.3 13.6 13.6-13.6 13.6 40.3 23.3 3-22.3 20.7 8.6v-46.4zm-88.9 118.2l8.6 20.8h-46.6l8.6-20.8-22.3-3 23.3-40.3L225 299l13.7-13.7 23.3 40.3z"/>
    <path class="shape-11" d="M238.4 211.6L225 188.4l-13.4 23.2-23.2 13.4 23.2 13.4 13.4 23.2 13.4-23.2 23.2-13.4z"/>
    <path class="shape-12" d="M238.7 164.7L225 151l-13.7 13.7 13.7 23.7zM188.4 225l-23.7-13.7L151 225l13.7 13.7 23.7-13.7zm50.3 60.3L225 299l-13.7-13.7 13.7-23.7zM299 225l-13.7-13.7-23.7 13.7 23.7 13.7L299 225z"/>
  </g>
  <g class="guides">
    <circle r="130.6"/>
    <circle cx="450" r="130.6"/>
    <circle cy="450" r="130.6"/>
    <circle cx="450" cy="450" r="130.6"/>
    <circle r="186.3"/>
    <circle cx="450" r="186.3"/>
    <circle cx="450" cy="450" r="186.3"/>
    <circle cy="450" r="186.3"/>
    <circle cx="225" cy="60.3" r="46.6"/>
    <circle cx="164.7" cy="164.7" r="46.6"/>
    <circle cx="60.3" cy="225" r="46.6"/>
    <circle cx="164.7" cy="285.3" r="46.6"/>
    <circle cx="225" cy="389.7" r="46.6"/>
    <circle cx="285.3" cy="285.3" r="46.6"/>
    <circle cx="285.3" cy="164.7" r="46.6"/>
    <circle cx="389.7" cy="225" r="46.6"/>
    <circle r="75.5"/>
    <path d="M0 0l45 12.1m0 0l45 12m0 0l45 12.1m0 0l45 12m0 0l45 12.1M0 0h450v450H0zm0 0l450 450m0-450L0 450m225 0V0m225 225H0"/>
    <path d="M0 0l112.5 30.1L225 60.3M0 0l112.5 194.9L225 389.7M0 0l389.7 225M0 0l30.1 112.5L60.3 225M450 0l-60.3 225M450 0L225 389.7M450 0L60.3 225M450 0L225 60.3M450 450l-225-60.3M450 450L60.3 225M450 450L225 60.3M450 450l-60.3-225M0 450l60.3-225M0 450L225 60.3M0 450l389.7-225M0 450l225-60.3"/>
    <path d="M0 242.8L186.4 0M0 149.3l210.6-27.9M242.8 0L-.6 186.9m122 23.4L149.1 0M93.2 161.4L160 0m50.3 121.4L160 0m-38.6 210.3L0 160l161.4-66.8M100.6 225v-50.7m73.7-73.7L246.1 225M225 151l-74 74m74-124.4h-50.7M207.2 0L450 186.4M300.7 0l27.9 210.6M450 242.8L263.1-.6m-23.4 122L450 149.1M288.6 93.2L450 160m-121.4 50.3L450 160m-210.3-38.6L290 0l66.8 161.4M225 100.6h50.7m0 0L203.9 225m71.8 124.4L203.9 225m-29.6 124.4L246.1 225m-145.5 50.7L225 203.9m-124.4-29.6L225 246.1m124.4-71.8L225 246.1m124.4 29.6L225 203.9m74 21.1l-74-74m124.4 74v-50.7M450 207.2L263.6 450M450 300.7l-210.6 27.9M207.2 450l243.4-186.9m-122-23.4L300.9 450m55.9-161.4L290 450m-50.3-121.4L290 450m38.6-210.3L450 290l-161.4 66.8M349.4 225v50.7M225 299l74-74m-74 124.4h50.7M242.8 450L0 263.6M149.3 450l-27.9-210.6M0 207.2l186.9 243.4m23.4-122L0 300.9m161.4 55.9L0 290m121.4-50.3L0 290m210.3 38.6L160 450 93.2 288.6M225 349.4h-50.7M151 225l74 74m-124.4-74v50.7"/>
  </g>
</svg>
