<svg xmlns="http://www.w3.org/2000/svg" width="446.9" height="774" viewBox="0 0 446.9 774">
  <style>
		:root {
	    --emerald: #216554;
	    --white: #FFFAF2;
	    --lightBlue: #2295CE;
    }
    .shape-1{fill:var(--lightBlue)}
    .shape-2{fill:var(--white)}
    .shape-3{fill:var(--emerald)}
    .shape-4{fill:var(--white)}
    .shape-5{fill:var(--emerald)}
    .shape-6{fill:var(--white)}
    .shape-7{fill:var(--white)}
    .shape-8{fill:var(--white)}
    .shape-9{fill:var(--emerald)}
    .shape-10{fill:var(--emerald)}
    .shape-11{fill:var(--white)}
    .shape-12{fill:var(--white)}
    .guides{ stroke: #4FFF4F; display: none; fill: none}
  </style>
  <g id="pattern" class="line">
    <path class="shape-1" d="M16.7 62.1l.5-1.6 3.3-9.8 3.2-9.6 21.8 4.4L41 23.7l21-7L47.5 0 62-16.7h-78.7v78.8L0 47.5l16.7 14.7zM430.2 62.1l-.5-1.6-3.3-9.8-3.2-9.6-21.8 4.4 4.4-21.8-21-7L399.3 0l-14.7-16.7h78.8v78.8L447 47.5l-16.7 14.7zM16.7 711.9l.5 1.6 3.3 9.9 3.2 9.5 21.8-4.4-4.4 21.8 21 7L47.6 774l14.7 16.7h-78.8v-78.8L0 726.6l16.7-14.7zM430.2 711.9l-.5 1.6-3.3 9.9-3.2 9.5-21.8-4.4 4.4 21.8-21 7 14.6 16.7-14.7 16.7h78.8v-78.8L447 726.6l-16.7-14.7zM279.1 377.7l6.5-7.3-1.7-.6-9.8-3.3-9.6-3.2 4.4-21.8-21.7 4.4-7.1-21-16.7 14.7-16.6-14.7-7 21-21.9-4.4 4.5 21.8-9.6 3.2-9.9 3.3-1.6.6L176 387l-8.2 9.3-6.5 7.4 1.6.5 9.9 3.3 9.6 3.2-4.4 21.8 21.7-4.4 7 21 16.7-14.6 16.7 14.7 7-21.1 21.8 4.4-4.4-21.8 9.6-3.2 9.8-3.3 1.7-.5-14.7-16.7 8.2-9.3z"/>
    <path class="shape-2" d="M96.8 55.9L62.2 16.7l-21.1 7 4.4 21.8zM62.2 16.7L111.8 0 62.2-16.7 47.5 0l14.7 16.7zM16.7 62.1l39.2 34.7-10.4-51.3L23.7 41l-3.2 9.6-3.3 9.8-.5 1.6zM0 47.4l-16.6 14.7L0 111.7l16.7-49.6zM350.1 55.9l34.6-39.2 21.1 7-4.4 21.8zM384.7 16.7L335.1 0l49.6-16.7L399.4 0l-14.7 16.7z"/>
    <path class="shape-2" d="M430.2 62.1L391 96.8l10.4-51.3 21.8-4.4 3.2 9.6 3.3 9.8.5 1.6zM446.9 47.4l16.6 14.7-16.6 49.6-16.7-49.6zM279.3 290.2l-39.2 34.7 7.1 21 21.7-4.4zM240 324.9l-16.6-49.7-16.6 49.7 16.6 14.7 16.7-14.7z"/>
    <path class="shape-2" d="M285.6 370.4l34.6-39.3-51.3 10.4-4.4 21.8 9.6 3.2 9.9 3.3 1.6.6zM270.9 387l14.7 16.7 49.6-16.7-49.6-16.6zM167.6 290.2l39.2 34.7-7.1 21-21.7-4.4z"/>
    <path class="shape-2" d="M161.3 370.4L126.7 331l51.3 10.4 4.4 21.8-9.6 3.2-9.9 3.3-1.6.6zM176 387l-14.7 16.7-49.6-16.7 49.6-16.6zM96.8 718.1l-34.6 39.3-21.1-7.1 4.4-21.8zM62.2 757.4l49.6 16.6-49.6 16.7L47.5 774l14.7-16.6zM16.7 711.9l39.2-34.7-10.4 51.3-21.8 4.4-3.2-9.6-3.3-9.8-.5-1.6zM0 726.6l-16.6-14.7L0 662.3l16.7 49.6zM350.1 718.1l34.6 39.3 21.1-7.1-4.4-21.8zM384.7 757.4L335.1 774l49.6 16.7 14.7-16.7-14.7-16.6z"/>
    <path class="shape-2" d="M430.2 711.9L391 677.2l10.4 51.3 21.8 4.4 3.2-9.6 3.3-9.8.5-1.6zM446.9 726.6l16.6-14.7-16.6-49.6-16.7 49.6zM279.3 483.8l-39.2-34.6 7.1-21.1 21.7 4.4zM240.1 449.2l-16.7 49.6-16.6-49.6 16.6-14.7 16.7 14.7z"/>
    <path class="shape-2" d="M285.6 403.7l34.6 39.2-51.3-10.4-4.4-21.8 9.6-3.2 9.9-3.3 1.6-.5zM167.6 483.8l39.2-34.6-7.1-21.1-21.7 4.4zM161.3 403.7l-34.6 39.2 51.3-10.4 4.4-21.8-9.6-3.2-9.9-3.3-1.6-.5z"/>
    <g>
      <path class="shape-3" d="M111.8 0L62.2 16.7l34.6 39.2 22.9 4.6 17.2-23.8-3-29.3zM96.8 55.9L45.5 45.5l10.4 51.3 17.5 15.4 26.8-11.9 12-27zM16.7 62.1L0 111.7l7.4 22.2 29.3 3.1 23.8-17.4-4.6-22.8zM335.1 0l49.6 16.7-34.6 39.2-22.9 4.6-17.3-23.8L313 7.4z"/>
      <path class="shape-3" d="M350.1 55.9l51.3-10.4L391 96.8l-17.5 15.4-26.8-11.9-12-27zM430.2 62.1l16.7 49.6-7.5 22.2-29.2 3.1-23.8-17.4 4.6-22.8zM223.4 275.2l16.7 49.7 39.2-34.7 4.6-22.9-23.7-17.2-29.3 3zM279.3 290.2l-10.4 51.3 51.3-10.4 15.5-17.4-12-26.9-26.9-12zM285.6 370.4l49.6 16.6 21.7-7.3 3.1-29.8-16.9-23.4-22.9 4.6zM223.4 275.2l-16.6 49.7-39.2-34.7-4.7-22.9 23.8-17.2 29.3 3zM167.6 290.2l10.4 51.3-51.3-10.4-15.5-17.4 12-26.9 26.9-12zM161.3 370.4L111.7 387l-22.1-7.4-3.1-29.3 17.3-23.8 22.9 4.6zM111.8 774l-49.6-16.6 34.6-39.3 22.9-4.6 17.2 23.8-3 29.3zM96.8 718.1l-51.3 10.4 10.4-51.3 17.5-15.4 26.8 12 12 26.9zM16.7 711.9L0 662.3l7.4-22.2 29.3-3 23.8 17.3-4.6 22.8zM335.1 774l49.6-16.6-34.6-39.3-22.9-4.6-17.3 23.8 3.1 29.3zM350.1 718.1l51.3 10.4-10.4-51.3-17.5-15.4-26.8 12-12 26.9zM430.2 711.9l16.7-49.6-7.5-22.2-29.2-3-23.8 17.3 4.6 22.8zM223.4 498.8l16.7-49.6 39.2 34.6 4.6 22.9-23.7 17.2-29.3-3zM279.3 483.8l-10.4-51.3 51.3 10.4 15.5 17.5-12 26.8-26.9 12zM285.6 403.7l49.6-16.7 21.7 7.3 3.1 29.8-16.9 23.4-22.9-4.6zM223.4 498.8l-16.6-49.6-39.2 34.6-4.7 22.9 23.8 17.2 29.3-3zM167.6 483.8l10.4-51.3-51.3 10.4-15.5 17.5 12 26.8 26.9 12zM161.3 403.7L111.7 387l-22.1 7.4-3.1 29.3 17.3 23.8 22.9-4.6z"/>
    </g>
    <g>
      <path class="shape-4" d="M119.7 60.5l-22.9-4.6 15.4 17.4-12 27 41.5-18.5-4.8-45.1z"/>
      <path class="shape-4" d="M133.9-7.4L111.8 0l22.1 7.4 3 29.3L163.6 0 137-36.7zM73.4 112.2L55.9 96.8l4.6 22.8-23.8 17.3 45.1 4.8 18.4-41.4zM7.4 133.9L0 111.7l-7.4 22.1-29.3 3.1L0 163.6 36.7 137zM327.2 60.5l22.9-4.6-15.4 17.4 12 27-41.5-18.5 4.7-45.1z"/>
      <path class="shape-4" d="M313-7.4L335.1 0 313 7.4l-3.1 29.3L283.3 0l26.6-36.7zM373.5 112.2L391 96.8l-4.6 22.8 23.8 17.3-45.1 4.8-18.4-41.4zM439.4 133.9l7.5-22.2 7.4 22.1 29.3 3.1-36.7 26.7-36.7-26.6zM283.9 267.3l-4.6 22.9 17.5-15.4 26.9 12-18.5-41.5-45 4.8z"/>
      <path class="shape-4" d="M216 253.1l7.4 22.1 7.5-22.1 29.3-3-36.8-26.7-36.6 26.6zM335.7 313.6l-15.5 17.5 22.9-4.6 17.3 23.9 4.7-45.2-41.4-18.4z"/>
      <path class="shape-4" d="M357.3 379.6l-22.1 7.4 22.1 7.4 3.1 29.3L387 387l-26.6-36.7zM162.9 267.3l4.7 22.9-17.5-15.4-26.9 12 18.4-41.5 45.1 4.8z"/>
      <path class="shape-4" d="M111.2 313.6l15.5 17.5-22.9-4.6-17.3 23.9-4.7-45.2 41.4-18.4z"/>
      <path class="shape-4" d="M89.6 379.6l22.1 7.4-22.1 7.4-3.1 29.3L59.8 387l26.7-36.7zM119.7 713.5l-22.9 4.6 15.4-17.4-12-26.9 41.5 18.4-4.8 45.1zM133.9 781.5l-22.1-7.5 22.1-7.4 3-29.3 26.7 36.7-26.6 36.7zM73.4 661.8l-17.5 15.4 4.6-22.8-23.8-17.3 45.1-4.8 18.4 41.4zM7.4 640.1L0 662.3l-7.4-22.1-29.3-3.1L0 610.4l36.7 26.7zM327.2 713.5l22.9 4.6-15.4-17.4 12-26.9-41.5 18.4 4.7 45.1zM313 781.5l22.1-7.5-22.1-7.4-3.1-29.3-26.6 36.7 26.6 36.7zM373.5 661.8l17.5 15.4-4.6-22.8 23.8-17.3-45.1-4.8-18.4 41.4zM439.4 640.1l7.5 22.2 7.4-22.1 29.3-3.1-36.7-26.7-36.7 26.7zM283.9 506.7l-4.6-22.9 17.5 15.4 26.9-12-18.5 41.5-45-4.8zM216 520.9l7.4-22.1 7.5 22.1 29.3 3.1-36.8 26.6-36.6-26.6zM335.7 460.4l-15.5-17.5 22.9 4.6 17.3-23.8 4.7 45.1-41.4 18.4zM162.9 506.7l4.7-22.9-17.5 15.4-26.9-12 18.4 41.5 45.1-4.8z"/>
      <path class="shape-4" d="M111.2 460.4l15.5-17.5-22.9 4.6-17.3-23.8-4.7 45.1 41.4 18.4z"/>
    </g>
    <g>
      <path class="shape-5" d="M45.7 170.7l16.5 14.9 19.6-43.9-45.1-4.8L0 163.6l38.9 28.2z"/>
      <path class="shape-5" d="M125 125l21.7 4.6-5-47.8-41.5 18.5-18.4 41.4 47.8 5zM170.8 45.8l21.1-6.9L163.6 0l-26.7 36.7 4.8 45.1 43.9-19.6zM401.1 170.7l-16.5 14.9-19.5-43.9 45.1-4.8 36.7 26.7-38.9 28.2zM321.9 125l-21.7 4.6 5-47.8 41.5 18.5 18.4 41.4-47.8 5zM276.1 45.8L255 38.9 283.3 0l26.6 36.7-4.7 45.1-43.9-19.6zM394.2 341.3l14.8-16.5-43.9-19.6-4.7 45.1L387 387l28.3-38.9zM348.4 262l4.6-21.7-47.8 5 18.5 41.5 41.4 18.4 5-47.8zM269.2 216.3l-6.9-21.2-38.8 28.3 36.7 26.7 45-4.8-19.5-43.9zM52.7 341.3l-14.9-16.5 44-19.6 4.7 45.1L59.9 387l-28.3-38.9zM98.5 262l-4.7-21.7 47.8 5-18.4 41.5-41.4 18.4-5-47.8zM177.7 216.3l6.8-21.2 38.9 28.3-36.7 26.7-45.1-4.8 19.6-43.9zM45.7 603.3l16.5-14.9 19.6 43.9-45.1 4.8L0 610.4l38.9-28.2zM125 649l21.7-4.6-5 47.8-41.5-18.4-18.4-41.4 47.8-5.1zM170.8 728.2l21.1 6.9-28.3 38.9-26.7-36.7 4.8-45.1 43.9 19.6zM401.1 603.3l-16.5-14.9-19.5 43.9 45.1 4.8 36.7-26.7-38.9-28.2zM321.9 649l-21.7-4.6 5 47.8 41.5-18.4 18.4-41.4-47.8-5.1zM276.1 728.2l-21.1 6.9 28.3 38.9 26.6-36.7-4.7-45.1-43.9 19.6zM394.2 432.7l14.8 16.5-43.9 19.6-4.7-45.1L387 387l28.3 38.9zM348.4 512l4.7 21.7-47.9-5 18.5-41.5 41.4-18.4 5 47.8zM269.2 557.8l-6.9 21.1-38.8-28.3 36.7-26.7 45 4.8-19.5 43.9zM52.7 432.7l-14.9 16.5 44 19.6 4.7-45.1L59.9 387l-28.3 38.9zM98.5 512l-4.7 21.7 47.8-5-18.4-41.5-41.4-18.4-5 47.8zM177.7 557.8l6.8 21.1 38.9-28.3-36.7-26.7-45.1 4.8 19.6 43.9z"/>
    </g>
    <g>
      <path class="shape-6" d="M223.4 88.1l-5.6 9.9 5.6 6.3 5.7-6.3zM188 149.4h11.4l2.6-8-8.3-1.8zM258.8 149.4l-5.6-9.8-8.3 1.8 2.6 8zM0 298.9l-5.7-9.9 5.7-6.3 5.7 6.3zM35.4 237.5l-5.7 9.9-8.3-1.8 2.6-8.1zM446.9 298.9l-5.7-9.9 5.7-6.3 5.7 6.3zM411.5 237.5h11.3l2.7 8.1-8.3 1.8zM223.4 685.9l-5.6-9.9 5.6-6.3 5.7 6.3zM188 624.6h11.4l2.6 8-8.3 1.8zM258.8 624.6l-5.6 9.8-8.3-1.8 2.6-8zM0 475.2l-5.7 9.8 5.7 6.3 5.7-6.3zM35.4 536.5l-5.7-9.9-8.3 1.8 2.6 8.1zM446.9 475.2l-5.7 9.8 5.7 6.3 5.7-6.3zM411.5 536.5h11.3l2.7-8.1-8.3-1.8z"/>
    </g>
    <g>
      <path class="shape-7" d="M45.7 170.7l-6.8 21.1 15.5 11.3 7.8-17.5zM125 125l4.6 21.7 19.1 2-2-19.1zM170.8 45.8l14.8 16.4 17.5-7.8-11.2-15.5zM401.1 170.7l6.9 21.1-15.6 11.3-7.8-17.5zM321.9 125l-4.6 21.7-19.1 2 2-19.1zM276.1 45.8l-14.8 16.4-17.6-7.8L255 38.9zM394.2 341.3l21.1 6.8 11.3-15.5-17.6-7.8zM348.5 262l21.6-4.6 2.1-19.1-19.1 2zM269.2 216.3l16.5-14.9-7.8-17.5-15.6 11.2zM52.7 341.3l-21.1 6.8-11.3-15.5 17.5-7.8zM98.4 262l-21.7-4.6-2-19.1 19.1 2zM177.7 216.3l-16.5-14.9 7.8-17.5 15.5 11.2zM45.7 603.3l-6.8-21.1 15.5-11.3 7.8 17.5zM125 649l4.6-21.7 19.1-2-2 19.1zM170.8 728.2l14.8-16.4 17.6 7.8-11.3 15.5zM401.1 603.3l6.9-21.1-15.6-11.3-7.8 17.5zM321.9 649l-4.6-21.7-19.1-2 2 19.1zM276.1 728.2l-14.8-16.4-17.6 7.8 11.3 15.5zM394.2 432.7l21.1-6.8 11.3 15.5-17.6 7.8zM348.5 512l21.6 4.6 2.1 19.1-19.1-2zM269.2 557.8l16.5 14.8-7.8 17.6-15.6-11.3zM52.7 432.7l-21.1-6.8-11.3 15.5 17.5 7.8zM98.4 512l-21.7 4.6-2 19.1 19.1-2zM177.7 557.8l-16.5 14.8 7.8 17.6 15.5-11.3z"/>
    </g>
    <g>
      <path class="shape-8" d="M193.7 139.6l-47-10-5-47.8 43.9-19.6L217.8 98zM-24 237.5l-14.9-45.7L0 163.6l38.9 28.2L24 237.5zM98 217.8l-35.8-32.2 19.6-43.9 47.8 5 10 47zM253.2 139.6l47-10 5-47.8-43.9-19.6L229.1 98zM283.3 0l-28.2-38.9-31.7 10.3-31.6-10.3L163.6 0l28.2 38.9 31.6-10.3 31.7 10.3zM470.9 237.5l14.9-45.7-38.9-28.2-38.9 28.2 14.8 45.7zM348.9 217.8l35.7-32.2-19.5-43.9-47.8 5-10 47z"/>
      <path class="shape-8" d="M384.6 185.6l-19.5-43.9-47.8 5-6.9 32.5-24.7 22.2 19.5 43.9 47.8-5 7-32.5zM247.5 149.5l14.8 45.7-38.9 28.2-38.9-28.3 14.9-45.6zM461 411l-45.7 14.9L387 387l28.3-38.9L461 363zM441.2 289L409 324.8l-43.9-19.6 5-47.8 47.1-10z"/>
      <path class="shape-8" d="M441.2 289L409 324.8l-43.9-19.6 5-47.8 47.1-10zM136.5 179.2l-6.9-32.5-47.8-5-19.6 43.9 24.7 22.2 6.9 32.5 47.8 5 19.6-43.9zM-14.1 411l45.7 14.9L59.9 387l-28.3-38.9-45.7 14.9zM5.7 289l32.1 35.8 44-19.6-5.1-47.8-47-10z"/>
      <path class="shape-8" d="M5.7 289l32.1 35.8 44-19.6-5.1-47.8-47-10zM193.7 634.4l-47 10-5 47.8 43.9 19.6 32.2-35.8zM-24 536.5l-14.9 45.7L0 610.4l38.9-28.2L24 536.5zM98 556.3l-35.8 32.1 19.6 43.9 47.8-5 10-47zM253.2 634.4l47 10 5 47.8-43.9 19.6-32.2-35.8zM283.3 774l-28.2 38.9-31.7-10.3-31.6 10.3-28.2-38.9 28.2-38.9 31.6 10.3 31.7-10.3zM470.9 536.5l14.9 45.7-38.9 28.2-38.9-28.2 14.8-45.7zM348.9 556.3l35.7 32.1-19.5 43.9-47.8-5-10-47z"/>
      <path class="shape-8" d="M384.6 588.4l-19.5 43.9-47.8-5-6.9-32.5-24.7-22.2 19.5-43.9 47.8 5 7 32.5zM247.5 624.6l14.8-45.8-38.9-28.2-38.9 28.3 14.9 45.7zM441.2 485L409 449.2l-43.9 19.6 5 47.8 47.1 10z"/>
      <path class="shape-8" d="M441.2 485L409 449.2l-43.9 19.6 5 47.8 47.1 10zM136.5 594.8l-6.9 32.5-47.8 5-19.6-43.9 24.7-22.2 6.9-32.5 47.8-5 19.6 43.9zM5.7 485l32.1-35.8 44 19.6-5.1 47.8-47 10z"/>
      <path class="shape-8" d="M5.7 485l32.1-35.8 44 19.6-5.1 47.8-47 10z"/>
    </g>
    <g>
      <path class="shape-9" d="M193.7 139.6l-47-10 2 19.1-19.1-2 6.9 32.5 24.7 22.2 7.8-17.5 15.5 11.2 14.9-45.6-11.4-.1zM247.5 149.4l14.8 45.7 15.6-11.2 7.8 17.5 24.7-22.2 6.9-32.5-19.1 2 2-19.1-47 10 5.6 9.8zM229.1 98l32.2-35.8-17.6-7.8L255 38.9l-31.6-10.3-31.5 10.3 11.2 15.5-17.5 7.8L217.7 98l5.7-9.9zM417.2 247.4l-47 10 2-19.1-19.2 2 7-32.5 24.6-22.2 7.9 17.5 15.5-11.2 14.8 45.6-11.3.1zM452.6 289l32.1 35.8-17.5 7.8 11.3 15.5-31.6 10.3-31.6-10.3 11.3-15.5-17.5-7.8 32.1-35.7 5.7 9.8zM24 237.6l14.9-45.7 15.5 11.3 7.8-17.6 24.7 22.2 6.9 32.5-19.1-2 2 19.1-47-10 5.7-9.8zM5.7 289l32.1 35.8-17.5 7.8 11.3 15.5L0 358.4l-31.6-10.3 11.3-15.5-17.5-7.8 32.1-35.7 5.7 9.8zM193.7 634.4l-47 10 2-19.1-19.1 2 6.9-32.5 24.7-22.2 7.8 17.6 15.5-11.3 14.9 45.7H188zM247.5 624.6l14.8-45.7 15.6 11.3 7.8-17.6 24.7 22.2 6.9 32.5-19.1-2 2 19.1-47-10 5.6-9.8zM229.1 676l32.2 35.8-17.6 7.8 11.3 15.5-31.6 10.3-31.5-10.3 11.2-15.5-17.5-7.8 32.1-35.7 5.7 9.8zM417.2 526.6l-47-10 2 19.1-19.2-2 7 32.5 24.6 22.2 7.9-17.5 15.5 11.2 14.8-45.6-11.3-.1zM452.6 485l32.1-35.8-17.5-7.8 11.3-15.5-31.6-10.3-31.6 10.3 11.3 15.5-17.5 7.9 32.1 35.7 5.7-9.9zM24 536.4l14.9 45.7 15.5-11.2 7.8 17.5 24.7-22.2 6.9-32.5-19.1 2 2-19.1-47 10 5.7 9.8zM5.7 485l32.1-35.8-17.5-7.8 11.3-15.5L0 415.6l-31.6 10.3 11.3 15.5-17.5 7.8L-5.7 485l5.7-9.9z"/>
    </g>
    <g>
      <path class="shape-10" d="M217.8 98l-24.1 41.6 8.3 1.8-2.6 8.1h48.1l-2.6-8.1 8.3-1.8L229.1 98l-5.7 6.3zM441.2 289l-24-41.6 8.3-1.8-2.7-8.1h48.1l-2.6 8.1 8.3 1.8-24 41.6-5.7-6.3zM-5.7 289l-24-41.6 8.3-1.8-2.6-8h48l-2.6 8 8.3 1.8-24 41.6-5.7-6.3zM217.8 676l-24.1-41.6 8.3-1.8-2.6-8h48.1l-2.6 8 8.3 1.8-24.1 41.6-5.7-6.3zM441.2 485l-24 41.6 8.3 1.8-2.7 8.1h48.1l-2.6-8.1 8.3-1.8-24-41.6-5.7 6.3zM-5.7 485l-24 41.6 8.3 1.8-2.6 8.1h48l-2.6-8.1 8.3-1.8-24-41.6-5.7 6.3z"/>
    </g>
  </g>
  <g class="guides">
    <circle cx="-19" cy="387" r="40.9"/>
    <circle cx="102.2" cy="177.1" r="40.9"/>
    <circle cx="102.2" cy="596.9" r="40.9"/>
    <circle cx="121.2" cy="209.9" r="40.9"/>
    <circle cx="121.2" cy="564.1" r="40.9"/>
    <circle cx="177.1" cy="102.2" r="40.9"/>
    <circle cx="177.1" cy="671.8" r="40.9"/>
    <circle cx="19" cy="387" r="40.9"/>
    <circle cx="204.5" cy="774" r="40.9"/>
    <circle cx="204.5" r="40.9"/>
    <circle cx="223.4" cy="182.5" r="40.9"/>
    <circle cx="223.4" cy="387" r="111.7"/>
    <circle cx="223.4" cy="387" r="163.6"/>
    <circle cx="223.4" cy="387" r="64.3"/>
    <circle cx="223.4" cy="591.5" r="40.9"/>
    <circle cx="242.4" cy="774" r="40.9"/>
    <circle cx="242.4" r="40.9"/>
    <circle cx="269.8" cy="102.2" r="40.9"/>
    <circle cx="269.8" cy="671.8" r="40.9"/>
    <circle cx="325.7" cy="209.9" r="40.9"/>
    <circle cx="325.7" cy="564.1" r="40.9"/>
    <circle cx="344.6" cy="177.1" r="40.9"/>
    <circle cx="344.6" cy="596.9" r="40.9"/>
    <circle cx="400.5" cy="284.8" r="40.9"/>
    <circle cx="400.5" cy="489.3" r="40.9"/>
    <circle cx="427.9" cy="387" r="40.9"/>
    <circle cx="446.9" cy="204.5" r="40.9"/>
    <circle cx="446.9" cy="569.6" r="40.9"/>
    <circle cx="446.9" cy="774" r="111.7"/>
    <circle cx="446.9" cy="774" r="163.6"/>
    <circle cx="446.9" cy="774" r="64.3"/>
    <circle cx="446.9" r="111.7"/>
    <circle cx="446.9" r="163.6"/>
    <circle cx="446.9" r="64.3"/>
    <circle cx="46.4" cy="284.8" r="40.9"/>
    <circle cx="46.4" cy="489.3" r="40.9"/>
    <circle cx="465.9" cy="387" r="40.9"/>
    <circle cy="204.5" r="40.9"/>
    <circle cy="569.6" r="40.9"/>
    <circle cy="774" r="111.7"/>
    <circle cy="774" r="163.6"/>
    <circle cy="774" r="64.3"/>
    <circle r="111.7"/>
    <circle r="163.6"/>
    <circle r="64.3"/>
    <path d="M-14.1 363l45.7-14.9L59.9 387l-28.3 38.9-45.7-14.9zM-24 237.5l-14.9-45.7L0 163.6l38.9 28.2L24 237.5zM-24 536.5l-14.9 45.7L0 610.5l38.9-28.3L24 536.5zM125.5 169.2l35.7 32.2-19.6 43.9-47.8-5-10-47zM363 193.3l-10 47-47.8 5-19.5-43.9 35.7-32.1zM125.5 604.8l35.7-32.2-19.6-43.9-47.8 5-10 47zM363 580.7l-10-47-47.8-5-19.5 43.9 35.7 32.2z"/>
    <path d="M14.1 363l-45.7-14.9-28.3 38.9 28.3 38.9L14.1 411zM193.7 139.6l-47-10-5-47.8 43.9-19.6L217.8 98zM209.3 24l45.8 14.9L283.3 0l-28.2-38.9L209.3-24zM209.3 750l45.8-14.9 28.2 38.9-28.2 38.9-45.8-14.8z"/>
    <path d="M223.4 387h223.4v387H223.4zm223.5 387L387 550.6M446.9 774l-387-387m387 387L0 516m446.9 258l-223.5-59.8m0-327.2L0 446.9M223.4 387L0 516m223.4-129L59.9 550.6M223.4 387l-59.8 223.5M223.4 387l223.5 59.9M223.4 387l223.5 129M223.4 387L387 550.6"/>
    <path d="M223.4 387l59.9-223.4M0 0h223.4v387H0zm0 0l59.9 223.4M0 0l223.4 387M0 0l387 387M0 0l446.4 257.8M0 0l223.4 59.9M446.9 0L223.4 387m0-387h223.4v387H223.4zm223.5 0L387 223.4M446.9 0l-387 387m387-387L0 258M446.9 0L223.4 59.9m0 327.1L0 327.1M223.4 387L0 258m223.4 129L59.9 223.4M223.4 387l-59.8-223.4M223.4 387l223.5-59.9M223.4 387l223.5-129M223.4 387L387 223.4M223.4 387l59.9 223.5M0 387h223.4v387H0zm0 387l59.9-223.4M0 774l223.4-387M0 774l387-387M0 774l446.4-257.7M0 774l223.4-59.8M446.9 774L223.4 387"/>
    <path d="M237.5 24l-45.7 14.9L163.6 0l28.2-38.9L237.5-24zM237.5 750l-45.7-14.9-28.2 38.9 28.2 38.9 45.7-14.8zM247.5 149.5l14.8 45.7-38.9 28.2-38.8-28.2 14.8-45.7zM247.5 624.6l14.8-45.8-38.9-28.2-38.8 28.2 14.8 45.8zM348.9 217.8l35.7-32.2-19.5-43.9-47.8 5-10 47zM29.7 247.4l47 10 5.1 47.8-44 19.6L5.7 289zM348.9 556.3l35.7 32.1-19.5 43.9-47.8-5-10-47zm-155.2 78.1l-47 10-5 47.8 43.9 19.6 32.2-35.7zM432.8 411l45.7 14.9 28.3-38.9-28.3-38.9-45.7 14.9zM441.2 289L409 324.8l-43.9-19.6 5-47.8 47.1-10zM29.7 526.6l47-10 5.1-47.8-44-19.5L5.7 485zM441.2 485L409 449.3l-43.9 19.5 5 47.8 47.1 10zm-188 149.4l47 10 5 47.8-43.9 19.6-32.2-35.7z"/>
    <path d="M461 411l-45.7 14.9L387 387l28.3-38.9L461 363zM470.9 237.5l14.9-45.7-38.9-28.2-38.9 28.2 14.8 45.7zM470.9 536.5l14.9 45.7-38.9 28.3-38.9-28.3 14.8-45.7zM98 217.8l-35.8-32.2 19.6-43.9 47.8 5 10 47zm155.2-78.2l47-10 5-47.8-43.9-19.6L229.1 98zM98 556.3l-35.8 32.1 19.6 43.9 47.8-5 10-47z"/>
  </g>
</svg>
