<svg xmlns="http://www.w3.org/2000/svg" width="674.3" height="389.3" viewBox="0 0 674.3 389.3">
  <style>
		:root {
	    --emerald: #216554;
	    --white: #FFFAF2;
	    --lightBlue: #2295CE;
	    --gold: #CEA600;
    }
    .shape-1{fill:var(--lightBlue)}
    .shape-2{fill:var(--white)}
    .shape-3{fill:var(--emerald)}
    .shape-4{fill:var(--white)}
    .shape-5{fill:var(--emerald)}
    .shape-6{fill:var(--gold)}
    .guides{ stroke: #4FFF4F; display: none; fill: none}
  </style>
  <g id="pattern" class="line">
    <path class="shape-1" d="M45.2 12.1L64.9 0 45.2-12.1l2.3-4.2 8.7-16.1-23.1-.7-.7-23-16.1 8.7-4.2 2.2L0-64.8l-12.1 19.6-4.2-2.2-16.2-8.7-.7 23-23 .7h-.1l8.7 16.1 2.3 4.2L-65 0l19.7 12.1-2.3 4.3-8.7 16.1h.1l23 .6.7 23.1 16.2-8.7 4.2-2.3L0 64.9l12.1-19.7 4.2 2.3 16.1 8.7.7-23.1 23.1-.6-8.7-16.1zm337.2 194.7l19.7-12.2-19.7-12.1 2.3-4.2 8.7-16.1-23.1-.7-.7-23-16.2 8.7-4.1 2.2-12.2-19.6-12.1 19.6-4.2-2.2-16.2-8.8-.6 23.1-23.1.7 8.7 16.1 2.3 4.2-19.7 12.1 19.7 12.2-2.3 4.2-8.7 16.1 23.1.6.7 23.1 16.1-8.7 4.2-2.3 12.1 19.7 12.2-19.7 4.1 2.3 16.2 8.7.7-23.1 23.1-.6-8.7-16.1zM45.3 401.3l19.6-12.1-19.6-12.1 2.2-4.2 8.7-16.1-23.1-.7-.6-23.1-.1.1-16.1 8.7-4.2 2.2L0 324.3-12.1 344l-4.2-2.2-16.1-8.7-.1-.1-.6 23.1-23.1.7 8.7 16.1 2.2 4.2-19.6 12.1 19.6 12.1-2.2 4.2-8.7 16.1 23.1.7.6 23.1h.1l16.1-8.7 4.2-2.3L0 454.1l12.1-19.7 4.2 2.3 16.1 8.7h.1l.6-23.1 23.1-.7-8.7-16.1zM629 12.1L609.4 0 629-12.1l-2.2-4.2-8.7-16.1 23.1-.7.7-23 16.1 8.7 4.2 2.2 12.1-19.6 12.1 19.6 4.2-2.2 16.2-8.7.6 23 23.1.7-8.6 16.1-2.3 4.2L739.2 0l-19.6 12.1 2.3 4.3 8.6 16.1-23.1.6-.6 23.1-16.2-8.7-4.2-2.3-12.1 19.7-12.1-19.7-4.2 2.3-16.1 8.7-.7-23.1-23.1-.6 8.7-16.1zm0 389.2l-19.6-12.1 19.6-12.1-2.3-4.2-8.6-16.1 23.1-.7.6-23.1v.1l16.2 8.7 4.2 2.2 12.1-19.7 12.1 19.7 4.2-2.2 16.1-8.7.1-.1.6 23.1 23.1.7-8.7 16.1-2.2 4.2 19.6 12.1-19.6 12.1 2.2 4.2 8.7 16.1-23.1.7-.6 23.1h-.1l-16.1-8.7-4.2-2.3-12.1 19.7-12.1-19.7-4.2 2.3-16.2 8.7-.6-23.1-23.1-.7 8.6-16.1z"/>
    <path class="shape-2" d="M12.1 45.2L0 64.9l30.7 49.8 1.7-58.5zm21-12.1l-.6 23.1L84 84 56.2 32.5zm12.2-21l10.9 20.4 58.6-1.7L64.9 0zM12.1 344L0 324.4l30.7-49.9 1.7 58.6zm21 12.1l-.6-23.1L84 305.3l-27.8 51.5zm12.2 21l10.9-20.3 58.6 1.7-49.9 30.7zm246.6-170.3l-11 20.3-58.5-1.7 49.9-30.8zm0-24.3l-19.7 12.1-49.8-30.7 58.5-1.7zm12.1-21l-23.1.7-27.8-51.6 51.5 27.8zm21-12.1l-20.4-11 1.8-58.5 30.7 49.9zm-21 78.4l-23.1-.7-27.8 51.5 51.6-27.7z"/>
    <path class="shape-2" d="M325 239.8l-20.4 11 1.8 58.5 30.7-49.8zM662.2 45.2l12.1 19.7-30.8 49.8-1.7-58.5zm-21-12.1l.6 23.1L590.3 84l27.8-51.5zm-12.2-21l-11 20.4-58.5-1.7L609.4 0zM662.2 344l12.1-19.6-30.8-49.9-1.7 58.6zm-21 12.1l.6-23.1-51.5-27.7 27.8 51.5zm-12.2 21l-11-20.3-58.5 1.7 49.9 30.7zM382.4 206.8l10.9 20.3 58.6-1.7-49.9-30.8zm0-24.3l19.7 12.1 49.8-30.7-58.5-1.7zm-12.1-21l23.1.7 27.8-51.6-51.6 27.8zm-21-12.1l20.3-11-1.7-58.5-30.8 49.9zm21 78.4l23.1-.7 27.8 51.5-51.6-27.7zm-21 12l20.3 11-1.7 58.5-30.8-49.8z"/>
    <path class="shape-3" d="M84 84L32.4 56.2l-1.7 58.5 18.1 29.2 31.1-5.5 20.4-24.2zm30.8-53.2l-58.6 1.7L84 84l30.2 16.3L138.5 80l5.5-31.2zm0-61.5L64.9 0l49.9 30.8 34.3-1L159.9 0l-10.8-29.7zM30.7 114.7L0 64.9l-30.7 49.8 1 34.4L0 159.9 29.8 149zM84 305.3l-51.6 27.8-1.7-58.6 18.1-29.2 31.1 5.5 20.4 24.3zm30.8 53.2l-58.6-1.7L84 305.3l30.2-16.3 24.3 20.3 5.5 31.2zm0 61.5l-49.9-30.8 49.9-30.7 34.3 1 10.8 29.7-10.8 29.8zM30.7 274.5L0 324.4l-30.7-49.9 1-34.3L0 229.4l29.8 10.8zm191.7-110.6l49.9 30.7-49.9 30.8-34.3-1-10.8-29.8 10.8-29.7zm30.7-53.3l27.8 51.6-58.5 1.7-29.2-18 5.5-31.2 24.2-20.3zm53.2-30.7l-1.7 58.5-51.5-27.8-16.3-30.2 20.4-24.2 31.1-5.5zm-83.9 145.5l58.5 1.7-27.8 51.5-30.2 16.3-24.2-20.3-5.5-31.2zM367.9 79.9l-30.8 49.9-30.7-49.9 1-34.3 29.8-10.7 29.7 10.7z"/>
    <path class="shape-3" d="M306.4 309.4l-1.7-58.5-51.6 27.7-16.3 30.3 20.5 24.2 31.1 5.5zm61.5 0l-30.8-49.9-30.7 49.8 1 34.3 29.8 10.8 29.7-10.8zM590.3 84l51.5-27.8 1.7 58.5-18 29.2-31.1-5.5-20.4-24.2zm-30.8-53.2l58.6 1.7L590.3 84l-30.2 16.3L535.8 80l-5.5-31.2zm0-61.5L609.4 0l-49.9 30.8-34.3-1L514.4 0l10.8-29.7zm84 145.4l30.8-49.8 30.7 49.8-1 34.4-29.7 10.8-29.8-10.9zm-53.2 190.6l51.5 27.8 1.7-58.6-18-29.2-31.1 5.5-20.4 24.3z"/>
    <path class="shape-3" d="M559.5 358.5l58.6-1.7-27.8-51.5-30.2-16.3-24.3 20.3-5.5 31.2zm0 61.5l49.9-30.8-49.9-30.7-34.3 1-10.8 29.7 10.8 29.8zm84-145.5l30.8 49.9 30.7-49.9-1-34.3-29.7-10.8-29.8 10.8zM451.9 163.9L402 194.6l49.9 30.8 34.3-1 10.8-29.8-10.8-29.7zm-30.7-53.3l-27.8 51.6 58.5 1.7 29.2-18-5.5-31.2-24.2-20.3zM367.9 79.9l1.7 58.5 51.6-27.8 16.3-30.2L417 56.2l-31.1-5.5zm84 145.5l-58.6 1.7 27.8 51.5 30.3 16.3 24.2-20.3 5.5-31.2z"/>
    <path class="shape-3" d="M367.9 309.4l1.7-58.5 51.6 27.7 16.3 30.3-20.5 24.2-31.1 5.5z"/>
    <g>
      <path class="shape-4" d="M51.2 173l28.7-34.6-31.1 5.5-18.1-29.2-.9 34.3L0 159.9l29.7 10.8v47.9L0 229.4l29.8 10.8.9 34.3 18.1-29.2 31.1 5.5-28.5-34zm206-116.8l-43.7 7.7L192.8 52l-17.7-10.3L159.9 0l-10.8 29.8-34.3 1 29.2 18-5.5 31.2 24.2-20.4 20.7 12 .1-.1-.1.1 20.8 11.9-5.5 31.2 24.2-20.3 30.2 16.2-16.3-30.2zm.1 276.9l-43.7-7.7-20.7 11.9-17.8 10.2-15.2 41.8-10.8-29.8-34.3-1 29.2-18-5.5-31.2 24.2 20.4 20.7-12h.1l20.7-12-5.5-31.1 24.2 20.3 30.2-16.3-16.3 30.3z"/>
      <path class="shape-4" d="M174.4 135.1l24.3-20.4-5.5 31.2 29.2 18-34.3 1-10.8 29.7-15.2-41.7-38.5-22.2-43.7 7.7 20.4-24.2L84 84l30.2 16.3L138.5 80l-5.5 31.1zM133 278.2l5.5 31.1-24.3-20.3L84 305.3l16.3-30.2-20.4-24.3 43.7 7.7 38.5-22.1 15.2-41.8 10.8 29.8 34.3 1-29.2 18 5.5 31.2-24.3-20.4zM307.4 24.1l29.8 10.8-29.8 10.7-.9 34.4-18.2-29.3-31.1 5.5 28.6-33.9v-44.4l-28.5-34 31.2 5.5 18-29.2 1 34.3 29.7 10.9-29.8 10.8zm0 341.1l29.8-10.8-29.8-10.8-.9-34.4-18.2 29.4-31.1-5.6 28.6 34.1v44.2l-28.5 34 31.2-5.5 18 29.2 1-34.3 29.7-10.8-29.8-10.8zM623.1 173l-28.7-34.6 31.1 5.5 18-29.2 1 34.3 29.8 10.9-29.8 10.8v47.9l29.8 10.8-29.8 10.8-1 34.3-18-29.2-31.1 5.5 28.5-34zM417 56.2l43.8 7.7L481.4 52l17.8-10.3L514.4 0l10.8 29.8 34.3 1-29.2 18 5.5 31.2-24.2-20.4-20.7 12-.1-.1.1.1-20.8 11.9 5.5 31.2-24.2-20.3-30.2 16.2 16.3-30.2zm0 276.9l43.7-7.7 20.7 11.9 17.8 10.2 15.2 41.8 10.8-29.8 34.3-1-29.2-18 5.5-31.2-24.2 20.4-20.8-12-20.7-12 5.5-31.1-24.2 20.3-30.2-16.3 16.3 30.3zm82.9-198l-24.3-20.4 5.5 31.2-29.2 18 34.3 1 10.8 29.7 15.2-41.7 38.4-22.2 43.8 7.7-20.4-24.2L590.3 84l-30.2 16.3L535.8 80l5.5 31.1z"/>
      <path class="shape-4" d="M541.3 278.2l-5.5 31.1 24.3-20.3 30.2 16.3-16.3-30.2 20.4-24.3-43.8 7.7-38.4-22.1-15.2-41.8-10.8 29.8-34.3 1 29.2 18-5.5 31.2 24.3-20.4zM366.8 24.1l-29.7 10.8 29.8 10.7.9 34.4 18.1-29.3 31.1 5.5-28.5-33.9v-44.4l28.5-34-31.2 5.5-18-29.2-1 34.3-29.7 10.9 29.7 10.8zm0 341.1l-29.7-10.8 29.8-10.8.9-34.4 18.1 29.4L417 333l-28.5 34.1v44.2l28.5 34-31.2-5.5-18 29.2-1-34.3-29.7-10.8 29.7-10.8z"/>
    </g>
    <g>
      <path class="shape-5" d="M79.9 250.8l-28.5-34-.2-43.8 28.7-34.6 43.7-7.7 38.5 22.2 15.2 41.7-15.2 41.8-38.5 22.1zm177.3-307l28.6 34v44.4l-28.6 34-43.7 7.7-38.4-22.2L159.9 0l15.2-41.7 38.4-22.2zm.1 501.7l28.5-34v-44.4l-28.5-34-43.7-7.7-38.5 22.1-15.2 41.8 15.2 41.7 38.5 22.2zm337.1-194.7l28.5-34 .2-43.8-28.7-34.6-43.8-7.7-38.4 22.2-15.2 41.7 15.2 41.8 38.4 22.1zM417-56.2l-28.5 34v44.4l28.5 34 43.8 7.7 38.4-22.2L514.4 0l-15.2-41.7-38.4-22.2zm0 501.7l-28.5-34v-44.4l28.5-34 43.7-7.7 38.5 22.1 15.2 41.8-15.2 41.7-38.5 22.2z"/>
    </g>
    <g>
      <path class="shape-6" d="M162.7 59.6L138.5 80l-5.5 31.1 41.4 24 24.3-20.4 5.5-31.2zm204.2-83.4l-29.7-10.8-29.8 10.8v47.9l29.8 10.8 29.7-10.8zm0 436.9l-29.7 10.8-29.8-10.8v-47.9l29.8-10.8 29.7 10.8zM29.7 170.7L0 159.9l-29.8 10.8v47.9L0 229.4l29.7-10.8v-24zm174.5 135.1l-5.5-31.2-24.3-20.4-41.4 23.9 5.5 31.2 24.2 20.3zM511.6 59.6L535.8 80l5.5 31.1-41.4 24-24.3-20.4-5.5-31.2zm132.9 111.1l29.8-10.8 29.7 10.8v47.9l-29.7 10.8-29.8-10.8v-24zM470.1 305.8l5.5-31.2 24.3-20.4 41.4 23.9-5.5 31.2-24.2 20.3z"/>
    </g>
  </g>
  <g class="guides">
    <circle cx="112.4" cy="194.6" r="64.9"/>
    <circle cx="337.1" cy="194.6" r="118.8"/>
    <circle cx="337.1" cy="194.6" r="64.9"/>
    <circle cx="674.3" cy="389.3" r="118.8"/>
    <circle cx="674.3" cy="389.3" r="159.9"/>
    <circle cx="674.3" cy="389.3" r="64.9"/>
    <circle cx="674.3" r="118.8"/>
    <circle cx="674.3" r="159.9"/>
    <circle cx="674.3" r="64.9"/>
    <circle cy="389.3" r="118.8"/>
    <circle cy="389.3" r="64.9"/>
    <circle r="118.8"/>
    <circle r="64.9"/>
    <path d="M0 0h674.3v389.3H0zm0 0l674.3 389.3m0-389.3L0 389.3M0 0l224.8 389.3m0-389.3l224.7 389.3m0-389.3l224.8 389.3m0-389.3L449.5 389.3m0-389.3L224.8 389.3m0-389.3L0 389.3m0-194.7h674.3M337.1 389.3V0"/>
    <path d="M417 333A159.9 159.9 0 11257.3 56.3a159.9 159.9 0 01159.9 276.9z"/>
    <path d="M79.9 250.8l-28.5-34v-44.4l28.5-34 43.7-7.7 38.5 22.2 15.2 41.7-15.2 41.8-38.5 22.1z"/>
    <path d="M80 138.4A159.9 159.9 0 11-80-138.4 159.9 159.9 0 0180 138.4zM80 527.7A159.9 159.9 0 11-80 250.8a159.9 159.9 0 01160 277z"/>
  </g>
</svg>
