<svg xmlns="http://www.w3.org/2000/svg" width="675.2" height="389.8" viewBox="0 0 675.2 389.8">
  <style>
		:root {
	    --emerald: #216554;
	    --white: #FFFAF2;
	    --lightBlue: #2295CE;
	    --gold: #CEA600;
    }
    .shape-1{fill:var(--lightBlue)}
    .shape-2{fill:var(--white)}
    .shape-3{fill:var(--emerald)}
    .shape-4{fill:var(--white)}
    .shape-5{fill:var(--emerald)}
    .shape-6{fill:var(--white)}
    .shape-7{fill:var(--emerald)}
    .guides{ stroke: #4FFF4F; display: none; fill: none}
  </style>
  <g id="pattern" class="line">
    <path class="shape-1" d="M369.8 139.2l-19.9 10-12.3-18.6-12.2 18.6-19.9-10-1.3 22.3-22.3 1.2 10 20-18.6 12.2 18.6 12.3-10 19.9 22.2 1.3 1.3 22.2 19.9-10 12.3 18.7 12.2-18.7 20 10.1 1.2-22.3 22.3-1.3-10-19.9 18.6-12.2-18.6-12.3 10-19.9-22.2-1.3zM32.2-55.7L12.3-45.6.1-64.3l-12.3 18.6-19.9-10-1.3 22.3-22.3 1.3 10 19.9L-64.3 0l18.6 12.3-10 19.9 22.3 1.3 1.2 22.2 20-10L0 64.4l12.2-18.7 20 10.1 1.3-22.3 22.2-1.3-10-19.9L64.4.1 45.7-12.2l10.1-19.9-22.3-1.3zM32.2 334.1l-19.9 10L.1 325.5l-12.3 18.6-19.9-10-1.3 22.3-22.3 1.2 10 20-18.6 12.2 18.6 12.2-10 20 22.3 1.3 1.2 22.2 20-10L0 454.2l12.2-18.7 20 10.1 1.3-22.3 22.2-1.3-10-19.9 18.7-12.2-18.7-12.3 10.1-19.9-22.3-1.3zM707.4-55.7l-20 10.1-12.2-18.7-12.3 18.6-19.9-10-1.3 22.3-22.2 1.3 10 19.9L610.8 0l18.7 12.3-10.1 19.9 22.3 1.3 1.3 22.3 19.9-10.1 12.2 18.7 12.3-18.6 19.9 10 1.3-22.3 22.3-1.3-10-19.9L739.5.1l-18.6-12.3 10-19.9-22.3-1.3zM707.4 334.1l-19.9 10-12.3-18.6-12.2 18.6-20-10-1.3 22.3-22.2 1.2 10 20-18.7 12.2 18.7 12.3-10 19.9 22.2 1.3 1.3 22.2 19.9-10 12.3 18.7 12.2-18.7 19.9 10.1 1.3-22.3 22.3-1.3-10-19.9 18.6-12.2-18.6-12.3 10-19.9-22.2-1.3z"/>
    <path class="shape-2" d="M383.3 207.2l10 19.9 53-3-44.4-29.1zM305.4 250.6l3.1 53 29.1-44.3-12.3-18.7zM369.8 250.7l47.3 23.8-23.8-47.4-22.3 1.3z"/>
    <path class="shape-2" d="M337.6 259.3l29.1 44.3 3.1-52.9-20-10.1zM393.3 162.8l23.9-47.4-47.4 23.8 1.3 22.3zM281.9 227.1L258 274.5l47.4-23.9-1.3-22.2zM401.9 195l44.4-29.2-53-3-10 19.9zM337.6 130.6l-29.1-44.3-3 52.9 19.9 10z"/>
    <path class="shape-2" d="M369.8 139.2l-3.1-52.9-29.1 44.3 12.3 18.6zM305.5 139.2l-47.4-23.8 23.8 47.3 22.3-1.2zM273.3 194.9L228.9 224l53 3.1 10-19.9zM281.9 162.7l-52.9 3.1 44.3 29.1 18.6-12.2zM45.7 12.3l10 19.9 53-3L64.4.1z"/>
    <path class="shape-2" d="M32.2 55.8l47.4 23.8-23.9-47.4-22.2 1.3zM0 64.4l29.1 44.3 3.1-52.9-20-10.1zM55.8 357.7l23.8-47.4-47.4 23.8 1.3 22.3zM64.4 389.9l44.3-29.2-52.9-3-10.1 19.9z"/>
    <path class="shape-2" d="M32.2 334.1l-3-52.9L.1 325.5l12.2 18.6zM643 55.8l3 52.9 29.1-44.3-12.2-18.7zM619.4 32.2l-23.8 47.4L643 55.8l-1.3-22.3zM610.8 0l-44.3 29.1 52.9 3.1 10.1-19.9zM675.2 325.5l-29.1-44.3-3.1 52.9 20 10zM643 334.1l-47.3-23.8 23.8 47.3 22.2-1.2zM619.5 357.6l-53 3.1 44.3 29.1 18.7-12.2z"/>
    <g>
      <path class="shape-3" d="M393.3 162.8l53 3 26.5-17.4-7.3-27.3-19.9-20-28.4 14.3zM369.8 139.2l47.4-23.8L431.4 87l-20-20-27.2-7.3-17.5 26.6z"/>
      <path class="shape-3" d="M446.3 165.8l31.7 1.9-5.2-19.3"/>
      <path class="shape-3" d="M401.9 195l44.4 29.1 31.7-1.9 7.3-27.3-7.3-27.2-31.7-1.9zM337.6 259.3l-29.1 44.3 1.8 31.7 27.3 7.3 27.3-7.3 1.8-31.7zM305.4 250.6L258 274.5l-14.2 28.3 19.9 20 27.3 7.3 17.5-26.5z"/>
      <path class="shape-3" d="M369.8 250.7l-3.1 52.9 17.4 26.5 27.3-7.3 20-19.9-14.3-28.4zM281.9 227.1l-53-3.1-26.5 17.5 7.3 27.3 20 19.9 28.3-14.2zM393.3 227.1l23.8 47.4 28.4 14.3 20-20 7.3-27.3-26.5-17.4zM305.5 139.2l3-52.9L291 59.7 263.7 67l-19.9 19.9 14.3 28.5zM337.6 130.6l29.1-44.3-1.8-31.8-27.3-7.3-27.3 7.3-1.8 31.8z"/>
      <path class="shape-3" d="M273.3 194.9L229 165.8l-31.8 1.8-7.3 27.3 7.3 27.3 31.7 1.8zM281.9 162.7l-23.8-47.3-28.5-14.3-19.9 20-7.3 27.2 26.6 17.5zM108.7-29.1l31.7 1.9-5.1-19.3M64.4.1l44.3 29.1 31.7-1.9L147.7 0l-7.3-27.2-31.7-1.9zM0 64.4l-29.1 44.3 1.8 31.7L0 147.7l27.3-7.3 1.8-31.7zM32.2 55.8l-3.1 52.9 17.5 26.5 27.3-7.3L93.8 108 79.6 79.6zM55.7 32.2l23.9 47.4 28.3 14.3 20-20 7.3-27.3-26.5-17.4zM55.8 357.7l52.9 3 26.6-17.4-7.4-27.4L108 296l-28.4 14.3zM32.2 334.1l47.4-23.8 14.3-28.4-20-20-27.3-7.3-17.4 26.6z"/>
      <path class="shape-3" d="M108.7 360.7l31.7 1.9-5.1-19.3M64.4 389.9l44.3 29.1 31.7-1.9 7.3-27.3-7.3-27.2-31.7-1.9zM.1 325.5l29.1-44.3-1.9-31.8L0 242.1l-27.2 7.3-1.9 31.8zM675.1 64.4L646 108.7l1.9 31.7 27.2 7.3 27.3-7.3 1.9-31.7zM643 55.8l-47.4 23.8-14.3 28.4 20 19.9 27.3 7.3 17.4-26.5zM619.4 32.2l-52.9-3.1-26.6 17.5 7.3 27.3 20 20 28.4-14.3zM610.8 0l-44.3-29.1-31.7 1.8L527.4 0l7.4 27.3 31.7 1.8zM643 334.1l3.1-52.9-17.5-26.6-27.3 7.3-19.9 19.9 14.3 28.5zM675.2 325.5l29.1-44.3-1.8-31.8-27.3-7.3-27.3 7.3-1.8 31.8zM610.8 389.8l-44.3-29.1-31.7 1.8-7.3 27.3 7.3 27.3 31.7 1.8zM619.5 357.6l-23.8-47.3-28.5-14.3-19.9 20-7.4 27.2 26.6 17.5z"/>
    </g>
    <g>
      <path class="shape-4" d="M496.7 152.3l-31.2-31.2 7.3 27.3-26.5 17.4 31.7 1.9 7.3 27.2zM445.6 101.1l19.9 20-11.4-42.7L411.4 67l20 20-14.2 28.4zM384.2 59.7l27.2 7.3-31.2-31.2-42.6 11.4 27.3 7.3 1.8 31.8zM384.1 330.1l-17.4-26.5-1.8 31.7-27.3 7.3 42.6 11.4 31.2-31.2zM310.3 335.3l-1.8-31.7-17.5 26.5-27.3-7.3 31.2 31.2 42.7-11.4zM445.5 288.8l-28.4-14.3 14.3 28.4-20 19.9 42.7-11.4 11.4-42.6zM243.8 302.8l14.2-28.3-28.3 14.2-20-19.9 11.4 42.6 42.6 11.4z"/>
      <path class="shape-4" d="M496.7 237.5l-11.4-42.6-7.3 27.3-31.7 1.9 26.5 17.4-7.3 27.3zM243.8 86.9L263.7 67l-42.6 11.4-11.4 42.7 19.9-20 28.5 14.3zM310.3 54.5l27.3-7.3-42.7-11.4L263.7 67l27.3-7.3 17.5 26.6zM229 165.8l-26.6-17.5 7.3-27.2-31.2 31.2 11.4 42.6 7.3-27.3z"/>
      <path class="shape-4" d="M228.9 224l-31.7-1.8-7.3-27.3-11.4 42.6 31.2 31.3-7.3-27.3zM46.6 135.2l-17.5-26.5-1.8 31.7L0 147.7l42.6 11.4 31.3-31.2zM107.9 93.9L79.6 79.6 93.8 108l-19.9 19.9 42.6-11.4 11.4-42.6zM159.1 42.6L147.7 0l-7.3 27.3-31.7 1.9 26.5 17.4-7.3 27.3zM159.1 347.2l-31.2-31.3 7.4 27.4-26.6 17.4 31.7 1.9 7.3 27.2zM108 296l19.9 19.9-11.4-42.6-42.6-11.4 20 20-14.3 28.4zM46.6 254.6l27.3 7.3-31.2-31.2L0 242.1l27.3 7.3 1.9 31.8zM647.9 140.4l-1.9-31.7-17.4 26.5-27.3-7.3 31.2 31.2 42.6-11.4zM581.3 108l14.3-28.4-28.4 14.3-20-20 11.5 42.6 42.6 11.4z"/>
      <path class="shape-4" d="M566.5 29.1l-31.7-1.8L527.4 0 516 42.7l31.2 31.2-7.3-27.3zM581.4 281.8l19.9-19.9-42.6 11.4-11.4 42.7 19.9-20 28.5 14.3zM647.9 249.4l27.3-7.3-42.7-11.4-31.2 31.2 27.3-7.3 17.5 26.6zM566.5 360.7l-26.6-17.5 7.4-27.2-31.3 31.2 11.5 42.6 7.3-27.3z"/>
    </g>
    <g>
      <path class="shape-5" d="M178.5 152.3l-21.7 23.3-31.7-2.4-18-26.3 9.4-30.4-42.6 11.4-31.3 31.2 31.1 7.1 13.8 28.7-13.8 28.7-31.1 7.1 31.2 31.2 42.7 11.4-9.4-30.4 18-26.3 31.7-2.4 21.7 23.3 11.4-42.6zM116.5 116.5l-42.6 11.4M496.7 152.3l21.7 23.3 31.7-2.4 18-26.3-9.4-30.4 42.6 11.4 31.2 31.2-31 7.1-13.8 28.7 13.8 28.7 31 7.1h.1l-31.3 31.2-42.6 11.4 9.4-30.4-18-26.3-31.7-2.4-21.7 23.3-11.4-42.6zM221.1 311.4l9.4 30.4-18 26.3-31.7 2.4-21.7-23.3-11.4 42.6 11.4 42.6 21.7-23.3 31.7 2.4 18 26.3-9.4 30.4 42.6-11.4 31.2-31.2-31-7.1-13.8-28.7 13.8-28.7 31-7.1-31.2-31.2zM380.2 35.8l31.1-7.1L425.1 0l-13.8-28.7-31.1-7.1L411.4-67l42.7-11.4-9.4 30.4 17.9 26.3 31.8 2.4L516-42.6v-.1L527.5 0 516 42.6l-21.6-23.3-31.8 2.4L444.7 48l9.4 30.4L411.4 67zM380.2 354l31.1 7.1 13.8 28.7-13.8 28.7-31.1 7.1 31.2 31.2 42.7 11.4-9.4-30.4 17.9-26.3 31.8-2.4 21.6 23.3v.1l11.5-42.7-11.5-42.6-21.6 23.3-31.8-2.4-17.9-26.3 9.4-30.4-42.7 11.4zM221.1 78.4l9.4-30.4-18-26.3-31.7-2.4-21.7 23.3L147.7 0l11.4-42.6 21.7 23.3 31.7-2.4 18-26.3-9.4-30.4L263.7-67l31.2 31.2-31 7.1L250.1 0l13.8 28.7 31 7.1L263.7 67z"/>
    </g>
    <g>
      <path class="shape-6" d="M173.7 120.8l4.8 31.5-21.7 23.3-31.7-2.4-18-26.3 9.4-30.4 29.6-11.6zM17.8 179l24.8-19.9 31.1 7.1 13.8 28.7-13.8 28.7-31.1 7.1-24.8-19.9zM146.1 284.9l-29.6-11.6-9.4-30.4 18-26.3 31.7-2.4 21.7 23.3-4.8 31.5zM501.5 120.8l-4.8 31.5 21.7 23.3 31.7-2.4 18-26.3-9.4-30.4-29.7-11.6zM657.4 179l-24.9-19.9-31 7.1-13.8 28.7 13.8 28.7 31 7.1 24.9-19.9zM529 284.9l29.7-11.6 9.4-30.4-18-26.3-31.7-2.4-21.7 23.3 4.8 31.5zM191.5 299.8l29.6 11.6 9.4 30.4-18 26.3-31.7 2.4-21.7-23.3 4.8-31.5zM319.8 405.7l-24.9 19.9-31-7.1-13.8-28.7 13.8-28.7 31-7.1 24.9 19.9zM355.3 15.9l24.9 19.9 31.1-7.1L425.1 0l-13.8-28.7-31.1-7.1-24.9 19.9zM511.3 74.1l4.7-31.5-21.6-23.3-31.8 2.4L444.7 48l9.4 30.4L483.7 90zM355.3 373.9l24.9-19.9 31.1 7.1 13.8 28.7-13.8 28.7-31.1 7.1-24.9-19.9zM511.3 315.7l4.7 31.5-21.6 23.3-31.8-2.4-17.9-26.3 9.4-30.4 29.6-11.6zM191.5 90l29.6-11.6 9.4-30.4-18-26.3-31.7-2.4-21.7 23.3 4.8 31.5zM319.8-15.9l-24.9-19.9-31 7.1L250.1 0l13.8 28.7 31 7.1 24.9-19.9z"/>
    </g>
    <g>
      <path class="shape-7" d="M159.1 42.6l-31.2 31.3-11.4 42.6 29.6-11.6 27.6 15.9 4.8 31.5 31.2-31.2 11.4-42.7L191.5 90l-27.6-15.9zM496.7 237.5l-31.2 31.3-11.4 42.6 29.6-11.6 27.6 15.9 4.7 31.5 31.2-31.3 11.5-42.6-29.7 11.6-27.5-15.9zM116.5 273.3l11.4 42.7 31.2 31.2 4.8-31.5 27.6-15.9 29.6 11.6-11.4-42.6-31.2-31.3-4.8 31.5-27.6 15.9zM454.1 78.4l11.4 42.7 31.2 31.2 4.8-31.5 27.5-15.9 29.7 11.6-11.5-42.6L516 42.6l-4.7 31.5L483.7 90zM294.9 425.6l42.7 11.4 42.6-11.4-24.9-19.9v-31.8l24.9-19.9-42.6-11.4-42.7 11.4 24.9 19.9v31.8zM294.9 35.8l42.7 11.4 42.6-11.4-24.9-19.9v-31.8l24.9-19.9-42.6-11.4-42.7 11.4 24.9 19.9v31.8zM-42.6 230.7L0 242.1l42.6-11.4-24.8-19.9V179l24.8-19.9L0 147.7l-42.6 11.4 24.9 19.9v31.8zM632.5 230.7l42.7 11.4 42.6-11.4-24.9-19.9V179l24.9-19.9-42.6-11.4-42.7 11.4 24.9 19.9v31.8z"/>
    </g>
  </g>
  <g class="guides">
    <circle cx="337.6" cy="194.9" r="112.5"/>
    <circle cx="337.6" cy="194.9" r="164.7"/>
    <circle cx="337.6" cy="194.9" r="225.1"/>
    <circle cx="337.6" cy="194.9" r="64.4"/>
    <circle cx="675.2" cy="389.8" r="112.5"/>
    <circle cx="675.2" cy="389.8" r="164.7"/>
    <circle cx="675.2" cy="389.8" r="225.1"/>
    <circle cx="675.2" r="112.5"/>
    <circle cx="675.2" r="164.7"/>
    <circle cx="675.2" r="225.1"/>
    <circle cy="389.8" r="112.5"/>
    <circle cy="389.8" r="164.7"/>
    <circle cy="389.8" r="225.1"/>
    <circle r="112.5"/>
    <circle r="164.7"/>
    <circle r="225.1"/>
    <path d="M0 0h675.2v389.8H0zm450.1 389.8L225.1 0m0 389.8L0 0m225.1 389.8L450.1 0M0 389.8L225 0m450.2 389.8L450.1 0m0 389.8L675.2 0M0 194.9h675.2"/>
    <path d="M0 0l337.6 194.9L0 389.8zm675.2 0L337.6 194.9l337.6 194.9zM0 194.9h112.5m0 0h112.6m0 0h112.5M337.6 389.8V0M389.8 389.8L285.4 0m194.9 337.6L194.9 52.2m336.7 194.7L142.7 142.7m390.3-.2L142.2 247.3M480.3 52.2L194.9 337.6M389.7.4l-104.2 389M52.2 194.9L-52.2-194.9m194.9 337.6l-285.4-285.4M194 52L-195.4-52.4m390.8 0L-195.4 52.4m338.1-195.1l-285.4 285.4M52.1-194.5l-104.2 389M52.3 584.7L-52.2 194.8m194.9 337.6l-285.4-285.3M194 441.7l-389.4-104.3m390.8 0l-390.8 104.7m338.1-195l-285.4 285.3M52.1 195.3L-52.1 584.2M727.4 194.9L622.9-194.9m195 337.6L532.5-142.7M869.2 52L479.8-52.4m390.8 0L479.7 52.4m338.1-195.1L532.5 142.7m194.8-337.2l-104.2 389M727.4 584.8L622.9 194.9m195 337.6L532.5 247.1m336.7 194.7L479.8 337.4m390.8 0L479.7 442.2m338.1-195.1L532.5 532.5m194.8-337.2l-104.2 389"/>
  </g>
</svg>
