<svg xmlns="http://www.w3.org/2000/svg" width="675.2" height="389.8" viewBox="0 0 675.2 389.8">
  <style>
		:root {
	    --emerald: #216554;
	    --white: #FFFAF2;
	    --lightBlue: #2295CE;
	    --gold: #CEA600;
    }
    .shape-1{fill:var(--lightBlue)}
    .shape-2{fill:var(--white)}
    .shape-3{fill:var(--emerald)}
    .shape-4{fill:var(--white)}
    .shape-5{fill:var(--emerald)}
    .shape-6{fill:var(--white)}
    .shape-7{fill:var(--emerald)}
    .shape-8{fill:var(--white)}
    .guides{ stroke: #4FFF4F; display: none; fill: none}
  </style>
  <g id="pattern" class="line">
    <path class="shape-1" d="M391.3 225.9l-10.8-19.6 19.2-11.6-19.2-11.6 10.8-19.6-22.4-.5-.5-22.4-19.6 10.9-11.6-19.3-11.6 19.3-19.6-10.9-.4 22.4-22.5.5 10.9 19.6-19.2 11.6 19.2 11.6-10.9 19.6 22.5.4.4 22.5 19.6-10.9 11.6 19.3 11.6-19.3 19.7 10.9.4-22.5zM54.1 31.2L43.2 11.6 62.4 0 43.2-11.6l10.9-19.7-22.5-.4-.4-22.4-19.6 10.8L0-62.5l-11.6 19.2-19.7-10.8-.4 22.4-22.4.4 10.8 19.7L-62.5 0l19.2 11.6-10.8 19.6 22.4.4.4 22.5 19.7-10.9L0 62.4l11.6-19.2 19.6 10.9.4-22.5zm674.5 0l-10.9-19.6L736.9 0l-19.2-11.6 10.9-19.7-22.5-.4-.4-22.4-19.6 10.8-11.6-19.2-11.6 19.2-19.7-10.8-.4 22.4-22.4.4 10.8 19.7L612 0l19.2 11.6-10.8 19.6 22.4.4.4 22.5 19.7-10.9 11.6 19.2 11.6-19.2 19.6 10.9.4-22.5zm0 389.4L717.7 401l19.2-11.6-19.2-11.6 10.9-19.6-22.5-.5-.4-22.4-19.6 10.8-11.6-19.2-11.6 19.2-19.7-10.8-.4 22.4-22.4.5 10.8 19.6-19.2 11.6 19.2 11.6-10.8 19.6 22.4.4.5 22.5 19.6-10.9 11.6 19.2 11.6-19.2 19.6 10.9.4-22.5zm-674.5 0L43.2 401l19.2-11.6-19.2-11.6 10.9-19.6-22.5-.4-.4-22.5-19.6 10.9L0 327l-11.6 19.2-19.7-10.9-.4 22.5-22.4.4 10.8 19.6-19.2 11.6 19.2 11.6-10.8 19.7 22.4.4.4 22.4 19.7-10.8L0 451.9l11.6-19.2 19.6 10.8.4-22.4z"/>
    <path class="shape-2" d="M283.1 163.5l-58.3 1.1 50 30.1 19.2-11.6zm85.3-22.9l-1.1-58.4-30.1 50 11.6 19.3zm31.3 54.1l50-30.1-58.4-1.1-10.8 19.6zm-8.4-31.2l28.2-51.1-51.1 28.2.5 22.4zm0 62.4l58.4-1.1-50-30.1-19.2 11.6zM337.2 132.2l-30.1-49.9-1.1 58.3 19.6 10.9z"/>
    <path class="shape-2" d="M306 140.6l-51.1-28.2 28.2 51.1 22.5-.5zm-31.2 54.1l-50 30.1 58.3 1.1 10.9-19.6zm62.4 62.5l30.2 49.9 1.1-58.3-19.7-10.9zm-54.1-31.3L254.9 277l51.1-28.2-.4-22.5z"/>
    <path class="shape-2" d="M306 248.8l1.1 58.3 30.1-49.9-11.6-19.3zm62.9-22.5l-.4 22.5 51 28.2-28.2-51.1zM54.1 31.2l58.3-1.1L62.4 0 43.2 11.6zM0 62.4l30.1 50 1.1-58.3-19.6-10.9z"/>
    <path class="shape-2" d="M31.6 31.6l-.4 22.5 51.1 28.2-28.2-51.1zM612 0l-50 30.1 58.4 1.1 10.8-19.6z"/>
    <path class="shape-2" d="M620.4 31.2l-28.2 51.1 51-28.2-.4-22.5zm22.8 22.9l1.2 58.3 30.1-50-11.6-19.2zm-22.8 304.1l-58.4 1.1 50 30.1 19.2-11.6zm54.1-31.3l-30.2-50-1.1 58.4 19.7 10.8z"/>
    <path class="shape-2" d="M643.2 335.3l-51-28.2 28.2 51.1 22.4-.5zm-612 0L30.1 277 0 327l11.6 19.2zm31.2 54.1l50-30.1-58.3-1.1-10.9 19.6z"/>
    <path class="shape-2" d="M54.1 358.2l28.2-51.1-51.1 28.2.4 22.5z"/>
    <path class="shape-3" d="M224.8 164.6l58.3-1.1-28.2-51.1-29.2-16.2-21.6 21.6-7.9 29.5zm0 60.2l50-30.1-50-30.1-33.4.6-7.9 29.5 7.9 29.5zM367.3 82.2l1.1 58.4 51.1-28.2 16.2-29.3-21.6-21.6-29.5-7.9z"/>
    <path class="shape-3" d="M307.1 82.3l30.1 49.9 30.1-50-.6-33.4-29.5-7.9-29.5 8zm-52.2 30.1l51.1 28.2 1.1-58.3-17.3-28.7-29.5 7.9-21.6 21.7zM419.5 277l-51-28.2-1.1 58.3 17.2 28.6 29.5-7.9 21.6-21.6zm-52.1 30.1l-30.2-49.9-30.1 49.9.6 33.4 29.5 7.9 29.5-7.9zM254.9 277l28.2-51.1-58.3-1.1-28.6 17.3 7.9 29.5 21.6 21.6z"/>
    <path class="shape-3" d="M307.1 307.1l-1.1-58.3-51.1 28.2-16.1 29.3 21.5 21.5 29.6 8zm112.4-194.7l-28.2 51.1 58.4 1.1 28.6-17.3-7.9-29.5-21.6-21.6zm30.2 52.2l-50 30.1 50 30.1 33.4-.6 7.9-29.5-7.9-29.5zm0 60.2l-58.4 1.1 28.2 51.1 29.3 16.1 21.6-21.5 7.9-29.5zM82.3 82.3L31.2 54.1l-1.1 58.3L47.4 141l29.4-7.9 21.6-21.6z"/>
    <path class="shape-3" d="M30.1 112.4L0 62.4l-30.2 50 .7 33.4L0 153.7l29.5-7.9zm82.3-142.6L62.4 0l50 30.1 33.4-.7L153.7 0l-7.9-29.5zm0 60.3l-58.3 1.1 28.2 51.1 29.2 16.1 21.6-21.6 7.9-29.5zm449.6 0L612 0l-50-30.1-33.4.6L520.7 0l7.9 29.5zm142.6 82.3l-30.1-50-30.1 50 .6 33.4 29.5 7.9 29.5-7.9zM592.2 82.3l28.2-51.1-58.4-1.1-28.6 17.3 7.9 29.5 21.6 21.6z"/>
    <path class="shape-3" d="M644.4 112.4l-1.2-58.3-51 28.2-16.2 29.2 21.6 21.6 29.5 7.9zM562 359.3l58.4-1.1-28.2-51.1-29.3-16.2-21.6 21.6-7.9 29.5z"/>
    <path class="shape-3" d="M562 419.5l50-30.1-50-30.1-33.4.6-7.9 29.5 7.9 29.5zm82.3-142.6l30.2 50 30.1-50-.6-33.4-29.5-7.9-29.5 7.9z"/>
    <path class="shape-3" d="M592.2 307.1l51 28.2 1.1-58.4-17.2-28.6-29.5 7.9-21.6 21.6zM30.1 277l1.1 58.3 51.1-28.2 16.1-29.2-21.6-21.6-29.5-7.9zm-60.3 0L0 327l30.1-50-.7-33.4L0 235.7l-29.5 7.9z"/>
    <path class="shape-3" d="M82.3 307.1l-28.2 51.1 58.3 1.1L141 342l-7.9-29.4-21.6-21.7z"/>
    <path class="shape-3" d="M112.4 359.3l-50 30.1 50 30.1 33.4-.6 7.9-29.5-7.9-29.5z"/>
    <path class="shape-4" d="M491 194.7l-7.9 29.5-33.4.6 28.6 17.3-7.9 29.5 32.5-32.5zm-41.3-30.1l33.4.6 7.9 29.5 11.9-44.4-32.5-32.5 7.9 29.5z"/>
    <path class="shape-4" d="M419.5 112.4l29.3-16.2 21.6 21.6-11.9-44.4-44.4-11.9 21.6 21.6zm-52.2-30.2l17.3-28.6 29.5 7.9-32.5-32.4-44.4 11.8 29.5 7.9zm-60.2 224.9l-17.2 28.7-29.6-8 32.5 32.5 44.4-11.9-29.5-7.9zm60.3 0l-.7 33.4-29.5 7.9 44.4 11.9 32.5-32.5-29.5 7.9zm52.1-30.1l16.2 29.2-21.6 21.6 44.4-11.8 11.9-44.4-21.6 21.5zm-164.6 0l-29.2 16.2-21.6-21.6 11.9 44.3 44.3 11.9-21.5-21.5zm-30.1-52.2l-33.4-.6-7.9-29.5-11.9 44.4 32.5 32.5-7.9-29.5zm82.3-142.5l.6-33.4 29.5-8-44.4-11.8-32.5 32.4 29.5-7.9zm-52.2 30.1l-16.2-29.2 21.6-21.7L216 73.4l-11.9 44.4 21.6-21.6z"/>
    <path class="shape-4" d="M224.8 164.6l-28.6-17.3 7.9-29.5-32.5 32.5 11.9 44.4 7.9-29.5zM153.7 0l-7.9 29.4-33.4.7L141 47.3l-7.9 29.5 32.5-32.4zM30.1 112.4l-.6 33.4L0 153.7l44.4 11.9 32.4-32.5-29.4 7.9z"/>
    <path class="shape-4" d="M82.3 82.3l16.1 29.2-21.6 21.6 44.4-11.9 11.9-44.4-21.6 21.6zm562.1 30.1L627.1 141l-29.5-7.9 32.5 32.5 44.4-11.9-29.5-7.9zm-52.2-30.1l-29.3 16.2-21.6-21.6 11.9 44.3 44.4 11.9-21.6-21.6zM562 30.1l-33.4-.6L520.7 0l-11.9 44.4 32.5 32.5-7.9-29.5zm82.3 246.8l.7-33.4 29.5-7.9-44.4-11.9-32.5 32.5 29.5-7.9zm-52.1 30.2L576 277.8l21.6-21.6-44.4 11.9-11.9 44.4 21.6-21.6zM562 359.3L533.4 342l7.9-29.5-32.5 32.5 11.9 44.4 7.9-29.5zm-449.6 0l33.4.6 7.9 29.5 11.9-44.4-32.5-32.4L141 342zm-30.1-52.2l29.2-16.2 21.6 21.7-11.9-44.4-44.4-11.9 21.6 21.6zM30.1 277l17.2-28.6 29.5 7.9-32.4-32.5L0 235.7l29.4 7.9z"/>
    <path class="shape-5" d="M165.6 44.3l-32.5 32.5-11.9 44.4 23.6-8.7 22.6 13.1 4.2 24.7 32.5-32.5L216 73.4l-23.6 8.7-22.6-13zm-44.4 223.9l11.9 44.3 32.5 32.5 4.2-24.7 22.6-13.1 23.6 8.7-11.9-44.3-32.5-32.6-4.2 24.8-22.7 13.1zm171.6 150.3l44.4 11.9 44.4-11.9-19.3-16v-26.2l19.3-16-44.4-11.9-44.4 11.9 19.3 16.1v26.1zM508.9 345l32.4-32.5 11.9-44.3-23.5 8.7-22.7-13.1-4.1-24.7-32.5 32.5-11.9 44.4 23.5-8.8 22.6 13.1zm44.3-223.8l-11.9-44.3-32.5-32.5-4.2 24.7L482 82.2l-23.5-8.8 11.9 44.4 32.5 32.5 4.2-24.7 22.6-13.1zM381.6-29.1L337.2-41l-44.4 11.9 19.4 16v26.2l-19.4 16 44.4 11.8 44.4-11.8L362.3 13v-26.1zM44.4 165.6L0 153.7l-44.4 11.9 19.3 16v26.2l-19.3 16L0 235.6l44.4-11.8L25 207.7v-26.1zm674.5 0l-44.4-11.9-44.4 11.9 19.3 16v26.2l-19.3 16 44.4 11.9 44.4-11.9-19.4-16.1v-26.1z"/>
    <path class="shape-6" d="M167.4 125.6l4.2 24.7-18.1 20.3-26-2-14.8-21.6 8.5-25.8 23.6-8.7zM25 181.6l19.4-16 26.6 5.5 11.3 23.6L71 218.2l-26.6 5.6-19.4-16zm119.8 95.3l-23.6-8.7-8.5-25.8 14.8-21.6 26-2 18.1 20.3-4.2 24.7zm25-207.8l-4.2-24.8 18.1-20.2 26 1.9 14.8 21.6-8.5 25.8-23.6 8.7zM312.2 13l-19.4 16-26.5-5.5L254.9 0l11.4-23.6 26.5-5.5 19.4 16zm50.1-26.1l19.3-16 26.6 5.5L419.5 0l-11.3 23.5-26.6 5.6L362.3 13zM482 82.1l-23.5-8.7-8.5-25.8L464.7 26l26.1-1.9 18.1 20.2-4.3 24.8zm25 181.7l-4.1-24.7 18-20.3 26.1 2 14.7 21.6-8.5 25.8-23.5 8.7zm142.4-56l-19.3 16-26.6-5.6-11.4-23.5 11.4-23.6 26.6-5.5 19.3 16zm-119.7-95.3l23.5 8.7 8.5 25.8-14.7 21.6-26.1 2-18-20.3 4.1-24.7zm-25.1 207.8l4.3 24.7-18.1 20.3-26.1-1.9-14.7-21.6 8.5-25.8 23.5-8.8zm-142.3 56.1l19.3-16.1 26.6 5.6 11.3 23.5-11.3 23.6-26.6 5.5-19.3-16zm-50.1 26.1l-19.4 16-26.5-5.5-11.4-23.6 11.4-23.5 26.5-5.6 19.4 16.1zm-119.8-95.3l23.6 8.7 8.5 25.9-14.8 21.6-26 1.9-18.1-20.2 4.2-24.8z"/>
    <path class="shape-7" d="M76.8 133.1l-32.4 32.5 26.6 5.5 11.3 23.6 15-26.1h30.2L112.7 147l8.5-25.8zm5.5 61.6L71 218.2l-26.6 5.6 32.4 32.5 44.4 11.9-8.5-25.8 14.8-21.6H97.3zm45.2-26.1l26 2 18.1-20.3 11.9 44.4-11.9 44.4-18.1-20.3-26 2 15-26.1zM153.7 0l11.9 44.3 18.1-20.2 26 1.9-15-26 15-26.1-26 1.9-18.1-20.2zm56 26l14.8 21.6-8.5 25.8 44.3-11.9L292.8 29l-26.5-5.5L254.9 0l-15 26zm204.4 35.5l44.4 11.9-8.5-25.8L464.7 26h-30.1L419.5 0l-11.3 23.5-26.6 5.6zM464.7 26l26.1-1.9 18.1 20.2L520.7 0l-11.8-44.4-18.1 20.2-26.1-1.9L479.8 0zm132.9 230.3l32.5-32.5-26.6-5.6-11.4-23.5-15 26.1H547l14.7 21.6-8.5 25.8zm-5.5-61.6l11.4-23.6 26.6-5.5-32.5-32.5-44.4-11.9 8.5 25.8-14.7 21.6h30.1zM547 220.8l-26.1-2-18 20.3-11.9-44.4 11.9-44.4 18 20.3 26.1-2-15.1 26.1zm-26.3 168.6L508.9 345l-18.1 20.3-26.1-1.9 15.1 26-15.1 26.1 26.1-1.9 18.1 20.2zm-56-26L450 341.8l8.5-25.8-44.4 11.8-32.5 32.5 26.6 5.6 11.3 23.5 15.1-26.1zm-204.4-35.6L216 315.9l8.5 25.9-14.8 21.6 30.2-.1 15 26.1 11.4-23.5 26.5-5.6zm-50.6 35.6l-26 1.9-18.1-20.2-11.9 44.3 11.9 44.4 18.1-20.2 26 1.9-15-26.1z"/>
    <path class="shape-8" d="M97.3 168.6h30.2l15 26.1-15 26.1H97.3l-15-26.1zM194.7 0l15-26.1h30.2l15 26.1-15 26h-30.2zm239.9 26L419.5 0l15.1-26.1h30.1L479.8 0l-15.1 26zm142.5 194.8H547l-15.1-26.1 15.1-26.1h30.1l15 26.1zm-97.3 168.6l-15.1 26.1h-30.1l-15.1-26.1 15.1-26.1 30.1.1zm-239.9-26.1l15 26.1-15 26.1h-30.2l-15-26.1 15-26z"/>
  </g>
  <g class="guides">
    <circle cx="112.4" cy="194.7" r="30.1"/>
    <circle cx="142.5" cy="142.5" r="30.1"/>
    <circle cx="142.5" cy="246.9" r="30.1"/>
    <circle cx="194.7" cy="337.2" r="30.1"/>
    <circle cx="194.7" cy="52.2" r="30.1"/>
    <circle cx="224.8" cy="389.4" r="30.1"/>
    <circle cx="224.8" r="30.1"/>
    <circle cx="285.1" cy="389.4" r="30.1"/>
    <circle cx="337.2" cy="194.7" r="116.4"/>
    <circle cx="337.2" cy="194.7" r="44.8"/>
    <circle cx="389.4" cy="389.4" r="30.1"/>
    <circle cx="389.4" r="30.1"/>
    <circle cx="449.6" cy="389.4" r="30.1"/>
    <circle cx="449.6" r="30.1"/>
    <circle cx="479.7" cy="337.2" r="30.1"/>
    <circle cx="52.2" cy="194.7" r="30.1"/>
    <circle cx="531.9" cy="142.5" r="30.1"/>
    <circle cx="531.9" cy="246.9" r="30.1"/>
    <circle cx="562" cy="194.7" r="30.1"/>
    <circle cx="622.3" cy="194.7" r="30.1"/>
    <circle cx="674.4" cy="389.4" r="116.4"/>
    <circle cx="674.4" cy="389.4" r="44.8"/>
    <circle cx="674.4" r="116.4"/>
    <circle cx="674.4" r="44.8"/>
    <circle cy="389.4" r="116.4"/>
    <circle cy="389.4" r="44.8"/>
    <circle r="116.4"/>
    <circle r="44.8"/>
    <path d="M-165.6 345a171.4 171.4 0 11331.2 88.7A171.4 171.4 0 01-165.6 345zM-165.6-44.4a171.4 171.4 0 11331.2 88.7 171.4 171.4 0 01-331.2-88.7z"/>
    <path d="M0 0h674.4v389.4H0zm337.2 194.7L0 389.4M0 0l246.9 246.9M0 0l90.4 337.2M0 389.4L90.4 52.2M0 389.4l246.9-246.9m90.3 52.2L0 285.1m337.2-90.4L0 104.3M0 0l168.6 292m0-194.6L0 389.4m0-194.7h337.2"/>
    <path d="M0 0l337.2 194.7L0 389.4zm0 194.7h337.2m0-389.4v389.4M0 0l337.2-90.4M0 0l337.2 90.4m0 104.3L90.4-52.2m246.8 246.9l-90.3-337.2m90.3-52.2l-90.3 337.2m90.3-337.2L90.4 52.2M0 0h337.2M168.6-97.3l168.6 292M168.6 97.3l168.6-292"/>
    <path d="M0 0l337.2-194.7v389.4zm168.6 97.3l168.6-292"/>
    <path d="M171.6 150.3A171.4 171.4 0 11502.8 239a171.4 171.4 0 01-331.2-88.7z"/>
    <path d="M311.1 15A30.1 30.1 0 11259-15a30.1 30.1 0 0152 30zM337.2 194.7L674.4 0m0 389.4L427.6 142.5m246.8 246.9L584.1 52.2M674.4 0l-90.3 337.2M674.4 0L427.6 246.9m-90.4-52.2l337.2-90.4m-337.2 90.4L674.4 285m0 104.4L505.8 97.3m.1 194.7L674.4 0m0 194.7H337.2m337.2 194.7L337.2 194.7 674.4 0zm0-194.7H337.2M337.2 584.1L0 389.4m337.2-194.7l-90.3 337.2m90.3-337.2L90.4 441.5M0 389.4L337.2 299M0 389.4l337.2 90.3m0 104.4L90.4 337.2m246.8 246.9l-90.3-337.2m90.3-52.2l-168.6 292m168.6-97.3H0m168.6-97.3l168.6 292m0-389.4v389.4L0 389.4zM168.6 292l168.6 292.1M337.2 584.1V194.7m337.2 194.7l-337.2 90.3m337.2-90.3L337.2 299m0-104.3l246.9 246.9M337.2 194.7l90.4 337.2m-90.4 52.2l90.4-337.2m-90.4 337.2l246.9-246.9m90.3 52.2H337.2m168.6 97.3l-168.6-292m168.6 97.4l-168.6 292m337.2-194.7L337.2 584.1V194.7zM505.8 292L337.2 584.1"/>
    <path d="M337.2-194.7L674.4 0M337.2 194.7l90.4-337.2m-90.4 337.2L584.1-52.2M674.4 0L337.2 90.4M674.4 0L337.2-90.4m0-104.3L584.1 52.2M337.2-194.7l90.4 337.2m-90.4 52.2l168.6-292M337.3 0h337.1M505.8 97.3l-168.6-292m0 389.4v-389.4L674.4 0zm168.6-97.4l-168.6-292"/>
    <path d="M479.7 82.3a30.1 30.1 0 110-60.3 30.1 30.1 0 010 60.3zM508.8 345A171.4 171.4 0 11840 433.7 171.4 171.4 0 01508.8 345z"/>
    <path d="M508.8-44.4A171.4 171.4 0 11840 44.3a171.4 171.4 0 01-331.2-88.7z"/>
  </g>
</svg>
