<svg xmlns="http://www.w3.org/2000/svg" width="339.7" height="588.4" viewBox="0 0 339.7 588.4">
  <style>
		:root {
	    --emerald: #216554;
	    --white: #FFFAF2;
	    --lightBlue: #2295CE;
	    --gold: #CEA600;
    }
    .shape-1{fill:var(--lightBlue)}
    .shape-2{fill:var(--white)}
    .shape-3{fill:var(--emerald)}
    .shape-4{fill:var(--white)}
    .shape-5{fill:var(--gold)}
    .shape-6{fill:var(--white)}
    .guides{ stroke: #4FFF4F; display: none; fill: none}
  </style>
  <g id="pattern" class="line">
    <path class="shape-1" d="M213.8 294.2l16.1-16.1-22-5.9 5.9-22-21.1 5.7-.9.2-5.9-22-16.1 16.1-16-16.1-5.9 22-22-5.9 5.9 22-22 5.9 16.1 16.1-16.1 16.1 22 5.9-5.9 21.9 22-5.8 5.9 21.9 16-16.1 16.1 16.1 5.9-21.9 22 5.8-5.9-21.9 22-5.9zM44 0l16.1-16.1-22-5.9L44-44l-21.2 5.7-.8.2-5.9-22L0-44l-16.1-16.1-5.9 22-22-5.9 5.9 22-22 5.9L-44 0l-16.1 16.1 22 5.9-5.9 22 22-5.9 5.9 22L0 44l16.1 16.1 5.9-22L44 44l-5.9-22 22-5.9zm339.6 0l16.1-16.1-21.9-5.9 5.8-22-21.1 5.7-.8.2-5.9-22L339.7-44l-16.1-16.1-5.9 22-22-5.9 5.9 22-22 5.9L295.7 0l-16.1 16.1 22 5.9-5.9 22 22-5.9 5.9 22L339.7 44l16.1 16.1 5.9-22 21.9 5.9-5.8-22 21.9-5.9zM44 588.4l16.1-16.1-22-5.9 5.9-22-21.2 5.7-.8.2-5.9-22L0 544.4l-16.1-16.1-5.9 22-22-5.9 5.9 22-22 5.9 16.1 16.1-16.1 16 22 5.9-5.9 22 22-5.9 5.9 22L0 632.3l16.1 16.1 5.9-22 22 5.9-5.9-22 22-5.9zm339.6 0l16.1-16.1-21.9-5.9 5.8-22-21.1 5.7-.8.2-5.9-22-16.1 16.1-16.1-16.1-5.9 22-22-5.9 5.9 22-22 5.9 16.1 16.1-16.1 16.1 22 5.8-5.9 22 22-5.9 5.9 22 16.1-16.1 16.1 16.1 5.9-22 21.9 5.9-5.8-22 21.9-5.8v-.1z"/>
    <path class="shape-2" d="M153.8 234.1l-44-43.9 16.1 60 22 5.9zm-27.9 16.1l-60.1-16.1 44 44 22-5.9zm-16.1 27.9l-60.1 16.1 60.1 16.1 16.1-16.1zm104 16.1l16.1 16.1 60-16.1-60-16.1zm-21.1-38.3l21.1-5.7 16.1-60-44 43.9 5.9 22zm21.1 82.2l60.1 16.1-44-43.9-22 5.9z"/>
    <path class="shape-2" d="M207.9 272.2l22 5.9 44-44-60.1 16.1zm-22 82l44 44-16.1-60.1-22-5.8zm-54.1-38l-22-5.9-44 43.9 60.1-16.1zm22 38l16 60.1 16.1-60.1-16.1-16.1zm-27.9-16.1l-16.1 60.1 44-44-5.9-21.9zm60-104l-16.1-60-16 60 16 16.1zM44 0l16.1 16.1 60-16.1-60-16.1zm0 44l60 16-43.9-43.9-22 5.9zM16.1 60.1L60 104 44 44l-22-5.9zm-32.2 0l16.1 60 16.1-60L0 44zm295.7-76.2L219.6 0l60 16.1L295.7 0zm22 38.1l-22-5.9-43.9 44 60-16.1zm22 38.1l16.1 60 16.1-60L339.7 44zM295.7 44l-16.1 60 44-43.9-5.9-22zM44 588.4l16.1 16 60-16-60-16.1zm-21.2-38.3l21.2-5.7 16-60.1-43.9 44 5.9 22zm15.3 16.3l22 5.9 43.9-44-60 16.1zm-22-38.1L0 468.2l-16.1 60.1L0 544.4zm307.5 0l-44-43.9 16.1 60 22 5.9zm-27.9 16.1l-60-16.1 43.9 44 22-5.9zm-16.1 27.9l-60 16.1 60 16 16.1-16z"/>
    <path class="shape-2" d="M355.8 528.3l-16.1-60.1-16.1 60.1 16.1 16.1z"/>
    <path class="shape-3" d="M153.8 234.1l16-60-7.2-27h-32.2l-27.8 16.1 7.2 27z"/>
    <path class="shape-3" d="M185.9 234.1l44-43.9 7.2-27-27.8-16.1h-32.2l-7.3 27z"/>
    <path class="shape-3" d="M213.8 250.2l60.1-16.1 19.7-19.7-16.1-27.9-27.8-16.1-19.8 19.8zm16.1 27.9l60 16.1 27-7.3v-32.1l-16.1-27.9-26.9 7.2zm-104-27.9l-16.1-60L90 170.4l-27.8 16.1-16.1 27.9 19.7 19.7zm87.9 87.9l16.1 60.1 19.8 19.7 27.8-16 16.1-27.9-19.7-19.8z"/>
    <path class="shape-3" d="M185.9 354.2l-16.1 60.1 7.3 27h32.2l27.8-16.1-7.2-27zm-76.1-43.9l-60.1-16.1-26.9 7.2v32.2l16 27.9 27-7.3z"/>
    <path class="shape-3" d="M109.8 278.1l-44-44-27-7.2-16 27.9v32.1l26.9 7.3zm44 76.1l-44 44-7.2 27 27.8 16.1h32.2l7.2-27zm-27.9-16.1l-60.1 16.1L46.1 374l16.1 27.9 27.8 16 19.8-19.7zm104-27.8l44 43.9 26.9 7.3 16.1-27.9v-32.2l-26.9-7.2zM44 44l16.1 60 19.7 19.8 27.9-16.1 16.1-27.9L104 60.1zM16.1 60.1L0 120.1l7.2 27h32.2L67.3 131l-7.2-27zm44-44l43.9 44 27 7.2 16.1-27.9V7.2l-27-7.2zm219.5 0L219.6 0l-27 7.2v32.2l16.1 27.9 27-7.2zm44 44l-44 43.9-7.2 27 27.9 16.1h32.2l7.2-27z"/>
    <path class="shape-3" d="M295.7 44l-60 16.1-19.8 19.7 16.1 27.9 27.9 16.1 19.7-19.8zM16.1 528.3l43.9-44 7.3-26.9-27.9-16.1H7.2L0 468.2zM44 544.4l60-16.1 19.8-19.7-16.1-27.9-27.9-16.1L60 484.3zm16.1 27.9l60 16.1 27-7.3v-32.2L131 521.1l-27 7.2zm263.5-44l16.1-60.1-7.2-26.9h-32.2l-27.9 16.1 7.2 26.9zm-27.9 16.1l-16.1-60.1-19.7-19.7-27.9 16.1-16.1 27.8 19.8 19.8zM279.6 572.3l-43.9-44-27-7.2-16.1 27.8v32.2l27 7.3z"/>
    <g>
      <path class="shape-4" d="M316.9 254.8V287l-26.9 7.2 26.9 7.2v32.2l22.8-39.4zM65.8 234.1l-19.7-19.7 16.1-27.9-39.4 22.8v45.5l16-27.9zm164.1-43.9l19.8-19.8 27.8 16.1-22.7-39.4h-45.5l27.8 16.1zm44 43.9l26.9-7.2 16.1 27.9v-45.5l-39.4-22.8 16.1 27.9zm-164.1-43.9l-7.2-27 27.8-16.1H84.9l-22.7 39.4L90 170.4zm60-16.1l7.3-27h32.2l-39.5-22.8-39.4 22.8h32.2zm60.1 224.1l7.2 27-27.8 16.1h45.5l22.7-39.4-27.9 16zm44-44l19.7 19.8-16.1 27.9 39.4-22.8v-45.5l-16.1 27.9zm-164.1 44L90 417.9l-27.8-16 22.7 39.4h45.5l-27.8-16.1zm-60.1-104L22.8 287v-32.2L0 294.2l22.8 39.4v-32.2z"/>
      <path class="shape-4" d="M169.8 414.3l-7.2 27h-32.2l39.4 22.7 39.5-22.7h-32.2zm-104-60.1l-27 7.3-16-27.9v45.5l39.4 22.8L46.1 374zm81.3-393.6v32.2l-27 7.2 27 7.2v32.2L169.8 0zM60.1 104l7.2 27-27.9 16.1h45.5l22.8-39.4-27.9 16.1z"/>
      <path class="shape-4" d="M104 60.1l19.8 19.7-16.1 27.9 39.4-22.8V39.4L131 67.3zm-104 60l-7.2 27h-32.2L0 169.8l39.4-22.7H7.2zM279.6 104l-19.7 19.8-27.9-16.1 22.8 39.4h45.5L272.4 131zm-60-104l-27-7.2v-32.2L169.8 0l22.8 39.4V7.2z"/>
      <path class="shape-4" d="M339.7 120.1l-7.2 27h-32.2l39.4 22.7 39.4-22.7h-32.2zm-104-60l-27 7.2-16.1-27.9v45.5l39.4 22.8-16.1-27.9zm-88.6 488.8v32.2l-27 7.3 27 7.2v32.2l22.7-39.4zM60 484.3l19.8-19.7 27.9 16.1-22.8-39.4H39.4l27.9 16.1z"/>
      <path class="shape-4" d="M104 528.3l27-7.2 16.1 27.8v-45.5l-39.4-22.7 16.1 27.9zM0 468.2l7.2-26.9h32.2L0 418.5l-39.4 22.8h32.2zm235.7 60.1l-19.8-19.7 16.1-27.9-39.4 22.7v45.5l16.1-27.8zm43.9-44l-7.2-26.9 27.9-16.1h-45.5L232 480.7l27.9-16.1zm60.1-16.1l7.2-26.9h32.2l-39.4-22.8-39.4 22.8h32.2zM219.6 588.4l-27-7.3v-32.2l-22.8 39.5 22.8 39.4v-32.2z"/>
    </g>
    <g>
      <path class="shape-5" d="M169.8 0l-22.7 39.4v45.5l22.7-13.1 22.8 13.1V39.4zM84.9 147.1h45.5l39.4-22.8-22.7-13.1V84.9l-39.4 22.8z"/>
      <path class="shape-5" d="M254.8 147.1L232 107.7l-39.4-22.8v26.3l-22.8 13.1 39.5 22.8zM0 294.2l22.8-39.4v-45.5L0 222.4l-22.8-13.1v45.5z"/>
      <path class="shape-5" d="M84.9 147.1H39.4L0 169.8 22.8 183v26.3l39.4-22.8zm0 294.2l-22.7-39.4-39.4-22.8v26.3L0 418.5l39.4 22.8zM0 294.2l-22.8 39.4v45.5L0 366l22.8 13.1v-45.5zm169.8 294.2l22.8-39.5v-45.5l-22.8 13.2-22.7-13.2v45.5zm85-147.1h-45.5L169.8 464l22.8 13.2v26.2l39.4-22.7zm-169.9 0l22.8 39.4 39.4 22.7v-26.2l22.7-13.2-39.4-22.7zm254.8-147.1l-22.8 39.4v45.5l22.8-13.1 22.7 13.1v-45.5zm-84.9 147.1h45.5l39.4-22.8-22.8-13.1v-26.3l-39.4 22.8zm0-294.2l22.7 39.4 39.4 22.8V183l22.8-13.2-39.4-22.7z"/>
      <path class="shape-5" d="M339.7 294.2l22.7-39.4v-45.5l-22.7 13.1-22.8-13.1v45.5z"/>
    </g>
    <g>
      <path class="shape-6" d="M192.6 84.9v26.3l-22.8 13.1-22.7-13.1V84.9l22.7-13.1zM0 169.8L22.8 183v26.3L0 222.4l-22.8-13.1V183zm-22.8 209.3L0 366l22.8 13.1v26.3L0 418.5l-22.8-13.1zm169.9 124.3v-26.2l22.7-13.2 22.8 13.2v26.2l-22.8 13.2zm192.6-84.9l-22.8-13.1v-26.3l22.8-13.1 22.7 13.1v26.3zm22.7-209.2l-22.7 13.1-22.8-13.1V183l22.8-13.2 22.7 13.2z"/>
    </g>
  </g>
  <g class="guides">
    <circle cx="169.8" cy="294.2" r="120.1"/>
    <circle cx="169.8" cy="294.2" r="169.8"/>
    <circle cx="339.7" cy="588.4" r="120.1"/>
    <circle cx="339.7" cy="588.4" r="169.8"/>
    <circle cx="339.7" r="120.1"/>
    <circle cx="339.7" r="169.8"/>
    <circle cy="588.4" r="120.1"/>
    <circle cy="588.4" r="169.8"/>
    <circle r="120.1"/>
    <circle r="169.8"/>
    <path d="M-147.1 673.3L0 418.5l147.1 254.8zm0-588.4L0-169.9 147.1 84.9z"/>
    <path d="M-84.9 441.3H84.9l84.9 147.1-84.9 147H-84.9l-84.9-147zm0-588.4H84.9L169.8 0 84.9 147.1H-84.9L-169.8 0z"/>
    <path d="M0 0h339.7v588.4H0zm169.8 588.4V0M0 0l339.7 196.1m0-196.1L0 196.1m0 392.3l339.7-196.2m0 196.2L0 392.2"/>
    <path d="M0 0l84.9 147.1 84.9 147.1 85-147.1L339.7 0H169.8zm0 588.4l169.8-294.2 169.9 294.2zm0-294.2h339.7"/>
    <path d="M0 418.5l147.1 84.9v169.9L0 758.2l-147.1-84.9V503.4zm0-588.3l147.1 84.9V84.9L0 169.8l-147.1-84.9V-84.9zm169.8 294.1l147.1 85v169.8L169.8 464l-147-84.9V209.3zm22.8 549l147.1-254.8 147.1 254.8zm0-588.4l147.1-254.7L486.8 84.9z"/>
    <path d="M215.4 124.3l-91.1 339.9m0-339.9l91 339.7M45.5 169.8l248.7 248.7M.2 248.7l339.3 90.9m-339.4.1l339.5-91M45.5 418.5l248.7-248.7M.1 392.2l339.5-196M0 196.1l339.7 196.1M169.8 174.1l-60 224.1 164.1-164.1-224.2 60.1 224.2 60-164.1-164 60 224.1 60.1-224.1-164.1 164 224.2-60-224.2-60.1 164.1 164.1z"/>
    <path d="M22.8 379.1l147-254.8L317 379.1zm232 62.2h169.8l84.9 147.1-84.9 147H254.8l-85-147zm0-588.4h169.8L509.5 0l-84.9 147.1H254.8L169.8 0z"/>
    <path d="M339.7 418.5l147.1 84.9v169.9l-147.1 84.9-147.1-84.9V503.4zm0-588.3l147.1 84.9V84.9l-147.1 84.9-147.1-84.9V-84.9z"/>
    <path d="M385.2 418.5l-91.1 339.8m.1-339.8l91 339.7M215.4 464L464 712.7M170 542.9l339.4 90.9m-339.5.1l339.6-91M215.4 712.7L464 464M170 686.3l339.4-195.9m-339.6-.1l339.7 196.1M339.7 468.2l-60.1 224.2 164.1-164.1-224.1 60.1 224.1 60-164.1-164.1 60.1 224.2 60-224.2-164 164.1 224.1-60-224.1-60.1 164 164.1zm45.5-638L294.1 170m-1.4-345.5l92.5 345.3M215.4-124.3L464 124.3M170-45.5l339.4 91m-339.5 0l339.6-91M215.4 124.3L464-124.3M170 98L509.4-98m-339.6-.1L509.5 98.1M339.7-120.1L279.6 104 443.7-60.1 219.6 0l224.1 60-164.1-164 60.1 224.1 60-224.1-164 164L459.8 0 235.7-60l164.1 164zM45.5 418.5l-91 339.8M-47 412.9l92.5 345.3M-124.3 464l248.6 248.7m-294-169.8l339.4 90.9m-339.5.1l339.6-91m-294.1 169.8L124.3 464m-294 222.3l339.4-195.9m-339.5-.1l339.6 196.1M0 468.2l-60 224.2 164-164.1-224.1 60.1 224.1 60-164.1-164.1L0 708.5l60-224.2-164 164.1 224.1-60-224.1-60.1L60.1 692.4zm45.5-638.1L-45.6 170M-47-175.5l92.5 345.3m-169.9-294.1l248.7 248.6m-294-169.8l339.4 91m-339.5 0l339.6-91m-294.2 169.8l248.7-248.6M-169.7 98L169.7-98m-339.6-.1L169.8 98M0-120.1L-60.1 104 104-60.1-120.1 0 104 60-60.1-104 0 120.1 60-104-104 60 120.1 0-104-60.1 60 104zm84.9 267.2h169.9l84.9 147.1-84.9 147.1H84.9L0 294.2z"/>
  </g>
</svg>
