<svg xmlns="http://www.w3.org/2000/svg" width="449" height="449" viewBox="0 0 449 449">
  <style>
    :root {
      --emerald: #216554;
      --white: #FFFAF2;
      --lightBlue: #2295CE;
      --gold: #CEA600;
    }
    .shape-1{fill:var(--lightBlue)}
    .shape-2{fill:var(--white)}
    .shape-3{fill:var(--emerald)}
    .shape-4{fill:var(--white)}
    .shape-5{fill:var(--gold)}
    .shape-6{fill:var(--emerald)}
    .shape-7{fill:var(--gold)}
    .shape-8{fill:var(--lightBlue)}
    .guides{ stroke: #4FFF4F; display: none; fill: none}
  </style>
  <g id="pattern" class="line">
    <path class="shape-1" d="M264.2 235.1l18.4-10.6-18.4-10.6 10.6-18.4h-21.2v-21.3l-18.5 10.6-10.6-18.4-10.6 18.4-18.5-10.6v21.3h-21.2l10.6 18.4-18.4 10.6 18.4 10.6-10.6 18.5h21.2v21.2l18.5-10.6 10.6 18.4 10.6-18.4 18.5 10.6v-21.2h21.2zM39.7 10.6L58.1 0 39.7-10.6 50.3-29H29.1v-21.3L10.6-39.7 0-58.1l-10.6 18.4-18.5-10.6V-29h-21.2l10.6 18.4L-58.1 0l18.4 10.6-10.6 18.5h21.2v21.2l18.5-10.6L0 58.1l10.6-18.4 18.5 10.6V29.1h21.2zm449 0L507.1 0l-18.4-10.6L499.3-29h-21.2v-21.3l-18.5 10.6L449-58.1l-10.6 18.4-18.5-10.6V-29h-21.2l10.6 18.4L390.9 0l18.4 10.6-10.6 18.5h21.2v21.2l18.5-10.6L449 58.1l10.6-18.4 18.5 10.6V29.1h21.2zm-449 449L58.1 449l-18.4-10.6L50.3 420H29.1v-21.3l-18.5 10.6L0 390.9l-10.6 18.4-18.5-10.6V420h-21.2l10.6 18.4-18.4 10.6 18.4 10.6-10.6 18.5h21.2v21.2l18.5-10.6L0 507.1l10.6-18.4 18.5 10.6v-21.2h21.2zm449 0l18.4-10.6-18.4-10.6 10.6-18.4h-21.2v-21.3l-18.5 10.6-10.6-18.4-10.6 18.4-18.5-10.6V420h-21.2l10.6 18.4-18.4 10.6 18.4 10.6-10.6 18.5h21.2v21.2l18.5-10.6 10.6 18.4 10.6-18.4 18.5 10.6v-21.2h21.2z"/>
    <path class="shape-2" d="M224.5 166.4l-29.1-50.3v58.1l18.5 10.6zm-29.1 7.8l-50.3-29.1 29.1 50.4h21.2zm58.2 0v-58.1l-29.1 50.3 10.6 18.4zm21.2 21.3l29.1-50.4-50.3 29.1v21.3zm7.8 29l50.3-29h-58.1l-10.6 18.4zm-108.4 29.1l-29.1 50.3 50.3-29.1v-21.2zm0-58.1h-58.1l50.3 29 18.4-10.6zm21.2 79.3v58.1l29.1-50.3-10.6-18.4z"/>
    <path class="shape-2" d="M166.4 224.5l-50.3 29.1h58.1l10.6-18.5zm58.1 58.1l29.1 50.3v-58.1l-18.5-10.6zm39.7-47.5l10.6 18.5h58.1l-50.3-29.1zm-10.6 39.7l50.3 29.1-29.1-50.3h-21.2zM0 58.1l29.1 50.4V50.3L10.6 39.7zm39.7-47.5l10.6 18.5h58.1L58.1 0zM29.1 50.3l50.3 29.1-29.1-50.3H29.1zm369.6-21.2l-29.1 50.3 50.3-29.1V29.1zm21.2 21.2v58.1L449 58.1l-10.6-18.4zM390.9 0l-50.3 29.1h58.1l10.6-18.5zM29.1 398.7v-58.1L0 390.9l10.6 18.4zM50.3 420l29.1-50.4-50.3 29.1V420zm7.8 29l50.3-29H50.3l-10.6 18.4zM449 390.9l-29.1-50.3v58.1l18.5 10.6zm-29.1 7.8l-50.3-29.1 29.1 50.4h21.2zM398.7 420h-58.1l50.3 29 18.4-10.6z"/>
    <path class="shape-3" d="M195.4 174.2v-58.1l-13-22.6-29.1 7.7-21.2 21.3 13 22.6zm-29 50.3l-50.3-29H90l-7.8 29 7.8 29.1h26.1zm7.8 29.1h-58.1l-22.6 13 7.7 29.1 21.3 21.2 22.6-13zm0-58.1l-29.1-50.4-22.6-13-21.3 21.2-7.7 29.1 22.6 13.1zm50.3-29.1l29.1-50.3V90l-29.1-7.8-29.1 7.8v26.1zm29.1 108.4v58.1l13 22.6 29.1-7.7 21.2-21.3-13-22.6zm-58.2 0l-50.3 29.1-13 22.6 21.2 21.3 29.1 7.7 13-22.6zm79.4-21.2l29.1 50.3 22.6 13 21.3-21.2 7.7-29.1-22.6-13zm-50.3 29l-29.1 50.3V359l29.1 7.8 29.1-7.8v-26.1zm50.3-87.1h58.1l22.6-13.1-7.7-29.1-21.3-21.2-22.6 13z"/>
    <path class="shape-3" d="M282.6 224.5l50.3 29.1H359l7.8-29.1-7.8-29h-26.1zm-29-50.3l50.3-29.1 13-22.6-21.2-21.3-29.1-7.7-13 22.6zM29.1 50.3v58.2l13 22.5 29.1-7.7L92.4 102l-13-22.6zm21.2-21.2l29.1 50.3 22.6 13 21.3-21.2 7.7-29.1-22.6-13zM0 58.1l-29.1 50.3v26.1L0 142.3l29.1-7.8v-26zM58.1 0l50.3 29.1h26.1L142.3 0l-7.8-29h-26.1zm332.8 0l-50.3-29h-26.1l-7.8 29 7.8 29.1h26.1zm7.8 29.1h-58.1l-22.6 13 7.7 29.1L347 92.4l22.6-13z"/>
    <path class="shape-3" d="M419.9 50.3l-50.3 29.1-13 22.6 21.2 21.3 29.1 7.7 13-22.6zm29.1 7.8l-29.1 50.3v26.1l29.1 7.8 29.1-7.8v-26.1zM0 390.9l29.1-50.3v-26.1L0 306.7l-29.1 7.8v26.1zM50.3 420h58.1l22.6-13.1-7.7-29.1-21.3-21.2-22.6 13zm7.8 29l50.3 29.1h26.1l7.8-29.1-7.8-29h-26.1zm-29-50.3l50.3-29.1 13-22.6-21.2-21.3-29.1-7.7-13 22.6zm390.8 0v-58.1l-13-22.6-29.1 7.7-21.2 21.3 13 22.6zm-29 50.3l-50.3-29h-26.1l-7.8 29 7.8 29.1h26.1z"/>
    <path class="shape-3" d="M398.7 420l-29.1-50.4-22.6-13-21.3 21.2-7.7 29.1 22.6 13.1zm50.3-29.1l29.1-50.3v-26.1l-29.1-7.8-29.1 7.8v26.1z"/>
    <path class="shape-4" d="M116.1 253.6H90l-7.8-29.1-11 41.1 30 30.1-7.7-29.1zm0-58.1l-22.6-13.1 7.7-29.1-30 30.1 11 41.1 7.8-29z"/>
    <path class="shape-4" d="M145.1 303.9l-22.6 13-21.3-21.2 11.1 41.1 41 11-21.2-21.3zm50.3-187.8V90l29.1-7.8-41.1-11-30.1 30 29.1-7.7zm-50.3 29l-13-22.6 21.2-21.3-41 11.1-11.1 41 21.3-21.2zm158.8 158.8l13 22.6-21.2 21.3 41.1-11 11-41.1-21.3 21.2z"/>
    <path class="shape-4" d="M253.6 332.9V359l-29.1 7.8 41.1 11 30.1-30-29.1 7.7zm-58.2 0l-13 22.6-29.1-7.7 30.1 30 41.1-11-29.1-7.8zm58.2-216.8l13-22.6 29.1 7.7-30.1-30-41.1 11 29.1 7.8zm79.3 79.4H359l7.8 29 11-41.1-30-30.1 7.7 29.1zM303.9 145.1l22.6-13 21.3 21.2-11-41-41.1-11.1 21.2 21.3zM359 253.6h-26.1l22.6 13-7.7 29.1 30-30.1-11-41.1zM79.4 79.4l13 22.6-21.2 21.3 41.1-11 11-41.1L102 92.4zm-50.3 29.1v26L0 142.3l41.1 11 30.1-30-29.1 7.7z"/>
    <path class="shape-4" d="M134.5 29.1h-26.1l22.6 13-7.7 29.1 30-30.1-11-41.1zm206.1 0h-26.1L306.7 0l-11 41.1 30 30.1-7.7-29.1zm29 50.3l-22.6 13-21.3-21.2 11.1 41.1 41 11-21.2-21.3z"/>
    <path class="shape-4" d="M419.9 108.4l-13 22.6-29.1-7.7 30.1 30 41.1-11-29.1-7.8zM29.1 340.6l13-22.6 29.1 7.7-30.1-30-41.1 11 29.1 7.8zm79.3 79.4h26.1l7.8 29 11-41.1-30-30.1 7.7 29.1z"/>
    <path class="shape-4" d="M79.4 369.6l22.6-13 21.3 21.2-11-41-41.1-11.1L92.4 347zM340.6 420L318 406.9l7.7-29.1-30 30.1 11 41.1 7.8-29zm79.3-79.4v-26.1l29.1-7.8-41.1-11-30.1 30 29.1-7.7z"/>
    <path class="shape-4" d="M369.6 369.6l-13-22.6 21.2-21.3-41 11.1-11.1 41 21.3-21.2z"/>
    <path class="shape-5" d="M153.3 41.1l-30 30.1-11 41.1 41-11.1 30.1-30-23.7-6.4zm142.4 0l30 30.1 11.1 41.1-41.1-11.1-30.1-30 23.7-6.4zm112.2 112.2l-30.1-30-41.1-11 11.1 41 30 30.1 6.4-23.7zm0 142.4l-30.1 30-41.1 11.1 11.1-41.1 30-30.1 6.4 23.7zM295.7 407.9l30-30.1 11-41-41 11-30.1 30 23.7 6.4zm-142.4 0l-30-30.1-11.1-41 41.1 11 30.1 30-23.7 6.4zM41.1 295.7l30.1 30 41.1 11.1-11.1-41.1-30-30.1-6.4 23.7zm0-142.4l30.1-30 41.1-11-11.1 41-30 30.1-6.4-23.7z"/>
    <path class="shape-6" d="M153.3 41.1l6.4 23.7 23.7 6.4 17.4-17.4-6.4-23.7-23.7-6.4zm125-17.4l-23.7 6.4-6.4 23.7 17.4 17.4 23.7-6.4 6.4-23.7zm129.6 129.6l-23.7 6.4-6.4 23.7 17.4 17.4 23.7-6.4 6.4-23.7zm17.4 125l-6.4-23.7-23.7-6.4-17.4 17.4 6.4 23.7 23.7 6.4zM295.7 407.9l-6.4-23.7-23.7-6.4-17.4 17.4 6.4 23.7 23.7 6.4zm-125 17.4l23.7-6.4 6.4-23.7-17.4-17.4-23.7 6.4-6.4 23.7zM41.1 295.7l23.7-6.4 6.4-23.7-17.4-17.4-23.7 6.4-6.4 23.7zm-17.4-125l6.4 23.7 23.7 6.4 17.4-17.4-6.4-23.7-23.7-6.4z"/>
    <path class="shape-7" d="M194.4 30.1l30.1 8 30.1-8-6.4 23.7 17.4 17.4-41.1 11-41.1-11 17.4-17.4zm0-60.2l-8 30.1 8 30.1-23.7-6.4-17.4 17.4-11-41.1 11-41.1 17.4 17.4zm60.2 60.2l8-30.1-8-30.1 23.7 6.4 17.4-17.4 11 41.1-11 41.1-17.4-17.4zm164.3 164.3l-8 30.1 8 30.1-23.7-6.4-17.4 17.4-11-41.1 11-41.1 17.4 17.4zm60.2 0l-30.1-8-30.1 8 6.4-23.7-17.4-17.4 41.1-11 41.1 11-17.4 17.4zm-60.2 60.2l30.1 8 30.1-8-6.4 23.7 17.4 17.4-41.1 11-41.1-11 17.4-17.4zM254.6 418.9l-30.1-8-30.1 8 6.4-23.7-17.4-17.4 41.1-11 41.1 11-17.4 17.4zm0 60.2l8-30.1-8-30.1 23.7 6.4 17.4-17.4 11 41.1-11 41.1-17.4-17.4zm-60.2-60.2l-8 30.1 8 30.1-23.7-6.4-17.4 17.4-11-41.1 11-41.1 17.4 17.4zM30.1 254.6l8-30.1-8-30.1 23.7 6.4 17.4-17.4 11 41.1-11 41.1-17.4-17.4zm-60.2 0l30.1 8 30.1-8-6.4 23.7 17.4 17.4-41.1 11-41.1-11 17.4-17.4zm60.2-60.2l-30.1-8-30.1 8 6.4-23.7-17.4-17.4 41.1-11 41.1 11-17.4 17.4z"/>
    <path class="shape-8" d="M254.6-30.1l-30.1-8-30.1 8-8 30.1 8 30.1 30.1 8 30.1-8 8-30.1zm224.5 284.7l8-30.1-8-30.1-30.1-8-30.1 8-8 30.1 8 30.1 30.1 8zM194.4 479.1l30.1 8 30.1-8 8-30.1-8-30.1-30.1-8-30.1 8-8 30.1zM-30.1 194.4l-8 30.1 8 30.1 30.1 8 30.1-8 8-30.1-8-30.1-30.1-8z"/>
  </g>
  <g class="guides">
    <circle cx="224.5" cy="224.5" r="112.3"/>
    <circle cx="224.5" cy="224.5" r="158.7"/>
    <circle cx="449" cy="449" r="112.3"/>
    <circle cx="449" cy="449" r="158.7"/>
    <circle cx="449" r="112.3"/>
    <circle cx="449" r="158.7"/>
    <circle cy="449" r="112.3"/>
    <circle cy="449" r="158.7"/>
    <circle r="112.3"/>
    <circle r="158.7"/>
    <path d="M-41.1 153.3L-153.3 41.1l41.1-153.4 153.3-41L153.3-41.1l-41 153.4zm-12.7-354.1L53.8 200.8m0-401.6L-53.8 200.8M200.8-53.8L-200.8 53.8m401.6 0L-200.8-53.8m118.6-88.5L82.2 142.3M-142.3-82.2L142.3 82.2m0-164.4L-142.3 82.2M82.2-142.3L-82.2 142.3M-41.1 602.3l-112.2-112.2 41-153.3 153.4-41.1 112.2 112.2-41 153.4zm-12.7-354.1L53.8 649.8m0-401.6L-53.8 649.8m254.6-254.6l-401.6 107.6m401.6 0l-401.6-107.6m118.6-88.5L82.2 591.3m-224.5-224.5l284.6 164.4m0-164.4l-284.6 164.4M82.2 306.7L-82.2 591.3"/>
    <path d="M0 0h449v449H0z"/>
    <path d="M0 224.5L224.7 0 449 224.5 224.6 449zM0 0l449 449m0-449L0 449M224.5 0v449M0 224.5h449M0 290.3l-137.5 238.1h275zM0-158.7L-137.5 79.4h275z"/>
    <path d="M183.4 377.8L71.2 265.6l41.1-153.3 153.3-41.1 112.2 112.2-41 153.4zM170.7 23.7l107.6 401.6m0-401.6L170.7 425.3m254.6-254.6L23.7 278.3m401.6 0L23.7 170.7m118.6-88.5l164.4 284.6M82.2 142.3l284.6 164.4m0-164.4L82.2 306.7M306.7 82.2L142.3 366.8"/>
    <path d="M224.5 65.8L87 303.9h275z"/>
    <path d="M253.6 332.9L145.1 145.1l187.8 108.5-216.8-.1 187.8-108.4-108.5 187.8V116.1l108.5 187.8-187.8-108.5h216.8L145.1 303.9l108.5-187.8z"/>
    <path d="M265.6 377.8l-153.3-41-41.1-153.4L183.4 71.2l153.4 41.1 41 153.3zM29.1 340.6L-79.4 528.4l187.8-108.5h-216.8L79.4 528.4-29.1 340.6v216.8L79.4 369.6-108.4 478l216.8.1-187.8-108.5L29.1 557.4zM29.1-108.4L-79.4 79.4 108.4-29.1h-216.8L79.4 79.4-29.1-108.4v216.8L79.4-79.4-108.4 29l216.8.1L-79.4-79.4 29.1 108.4zM407.9 153.3L295.7 41.1l41.1-153.3 153.3-41.1L602.3-41.1l-41 153.4zm-12.7-354.1l107.6 401.6m0-401.6L395.2 200.8M649.8-53.8L248.2 53.8m401.6 0L248.2-53.8m118.6-88.5l164.4 284.6M306.7-82.2L591.3 82.2m0-164.4L306.7 82.2m224.5-224.5L366.8 142.3M407.9 602.3L295.7 490.1l41.1-153.3 153.3-41.1 112.2 112.2-41 153.4zm-12.7-354.1l107.6 401.6m0-401.6L395.2 649.8m254.6-254.6L248.2 502.8m401.6 0L248.2 395.2m118.6-88.5l164.4 284.6M306.7 366.8l284.6 164.4m0-164.4L306.7 531.2m224.5-224.5L366.8 591.3"/>
    <path d="M41.1 153.3l-153.3-41-41.1-153.4 112.2-112.2 153.4 41 41 153.4zM41.1 602.3l-153.4-41-41-153.4 112.2-112.2 153.4 41.1 41 153.3zM449 290.3L311.5 528.4h275zM449-158.7L311.5 79.4h275z"/>
    <path d="M478.1 340.6L369.6 528.4l187.8-108.5H340.6l187.8 108.5-108.5-187.8v216.8l108.5-187.8L340.6 478l216.8.1-187.8-108.5 108.5 187.8zM478.1-108.4L369.6 79.4 557.4-29.1H340.6L528.4 79.4 419.9-108.4v216.8L528.4-79.4 340.6 29l216.8.1L369.6-79.4l108.5 187.8z"/>
    <path d="M490.1 153.3l-153.3-41-41.1-153.4 112.2-112.2 153.4 41 41 153.4zM490.1 602.3l-153.3-41-41.1-153.4 112.2-112.2 153.4 41.1 41 153.3z"/>
  </g>
</svg>
