<svg xmlns="http://www.w3.org/2000/svg" width="507.2" height="878.5" viewBox="0 0 507.2 878.5">
  <style>
		:root {
	    --emerald: #216554;
	    --white: #FFFAF2;
	    --lightBlue: #2295CE;
	    --gold: #CEA600;
    }
    .shape-1{fill:var(--lightBlue)}
    .shape-2{fill:var(--white)}
    .shape-3{fill:var(--emerald)}
    .shape-4{fill:var(--gold)}
    .shape-5{fill:var(--gold)}
    .shape-6{fill:var(--white)}
    .shape-7{fill:var(--lightBlue)}
    .guides{ stroke: #4FFF4F; display: none; fill: none}
  </style>
  <g id="pattern" class="line">
    <path class="shape-1" d="M359.9 411l-32.8-13.8 4.5-35.5-35.7 4.5-13.8-32.8-28.3 21.6-28.6-21.8-13.9 33-35.3-4.5 4.5 35.5-32.9 13.8 21.7 28.5-21.6 28.4 33 13.9-4.4 35.3 35.1-4.5 13.9 33 28.5-21.6 28.2 21.4 13.8-32.8 35.5 4.5-4.5-35.3 33-13.9-21.5-28.4zM613.5-28.2L580.7-42l4.5-35.5-35.7 4.5-13.8-32.8-28.3 21.5-28.7-21.7-13.8 33-35.3-4.5L434-42l-32.8 13.8L422.9.3l-21.6 28.4 33 13.8-4.5 35.4 35.2-4.5 13.9 33 28.5-21.6 28.2 21.4 13.8-32.8 35.5 4.5-4.5-35.4 33-13.8L591.9.3zM106.4-28.2L73.5-42 78-77.5 42.4-73l-13.8-32.8L.2-84.3-28.4-106l-13.9 33-35.3-4.5 4.5 35.5-32.8 13.8L-84.3.3l-21.5 28.4 32.9 13.8-4.4 35.4 35.1-4.5 13.9 33L.2 84.8l28.2 21.4 13.8-32.8 35.5 4.5-4.4-35.4 32.9-13.8L84.7.3zM613.5 906.7l-32.8 13.8 4.5 35.5-35.7-4.5-13.8 32.8-28.3-21.5-28.7 21.7-13.8-33-35.3 4.5 4.4-35.5-32.8-13.8 21.7-28.5-21.6-28.4 33-13.8-4.5-35.3 35.2 4.4 13.9-33 28.5 21.7 28.2-21.5 13.8 32.8 35.5-4.4-4.5 35.3 33 13.8-21.5 28.4zM106.4 906.7l-32.9 13.8L78 956l-35.6-4.5-13.8 32.8L.2 962.8l-28.6 21.7-13.9-33-35.3 4.5 4.5-35.5-32.8-13.8 21.6-28.5-21.5-28.3 32.9-13.9-4.4-35.3 35.1 4.4 13.9-33L.2 793.8l28.2-21.5 13.8 32.9 35.5-4.5-4.4 35.3 32.9 13.9-21.5 28.3z"/>
    <path class="shape-2" d="M225.2 333.2l-58.4-44.3 9.2 72.8 35.3 4.5zM282.1 333.4l-28.5-67.9-28.4 67.7 28.6 21.8z"/>
    <path class="shape-2" d="M176 361.7l-72.8-9.1 44.4 58.4 32.9-13.8zM359.8 467.9l67.7-28.5-67.6-28.4-21.6 28.5zM359.9 411l44.4-58.4-72.7 9.1-4.5 35.5zM331.6 361.7l9.2-72.8-58.7 44.5 13.8 32.8zM147.6 411l-67.5 28.4 67.6 28.5 21.6-28.4zM147.7 467.9l-44.3 58.4 72.9-9.2 4.4-35.3zM326.8 481.8l4.5 35.3 72.8 9.2-44.3-58.4zM176.3 517.1l-9.2 72.7 58.2-44.2-13.9-33zM225.3 545.6l28.3 67.4 28.4-67.6-28.2-21.4z"/>
    <path class="shape-2" d="M282 545.4l58.5 44.4-9.2-72.7-35.5-4.5zM401.2-28.2L333.6.2l67.7 28.5L422.9.3zM401.3 28.7L357 87.1l72.8-9.2 4.5-35.4zM429.8 77.9l-9.1 72.7 58.2-44.2-13.9-33zM478.9 106.4l28.3 67.4 28.4-67.6-28.2-21.4zM106.2 28.7L173.9.2l-67.5-28.4L84.7.3zM73.3 42.5l4.4 35.4 72.9 9.2-44.4-58.4zM-28.3 106.4L0 173.8l28.4-67.6L.2 84.8z"/>
    <path class="shape-2" d="M28.4 106.2l58.5 44.4-9.2-72.7-35.5-4.5zM401.2 906.7l-67.6-28.4 67.7-28.5 21.6 28.4zM401.3 849.8L357 791.5l72.8 9.2 4.5 35.3zM429.8 800.7l-9.1-72.8 58.2 44.2-13.9 33zM478.9 772.1l28.3-67.4 28.4 67.6-28.2 21.5zM106.2 849.9l67.7 28.4-67.5 28.4-21.7-28.5zM73.3 836l4.4-35.3 72.9-9.2-44.4 58.4zM-28.3 772.1L0 704.8l28.4 67.5L.2 793.8zM28.4 772.3l58.5-44.4-9.2 72.8-35.5 4.5z"/>
    <g>
      <path class="shape-3" d="M359.9 411l67.6 28.4 33.7-14.1 4.6-42.9-25.1-34.4-36.4 4.6zM253.6 265.5l-14.3-33.9-42.5-4.5-34.7 25.2 4.7 36.6 58.4 44.3zM282.1 333.4l58.7-44.5 4.6-36.4-34.9-25.4-42.6 4.5-14.3 33.9zM404.3 352.6l22.2-29.2-17.6-39.5-38.8-17.2-29.3 22.2-9.2 72.8z"/>
      <path class="shape-3" d="M176 361.7l-9.2-72.8-29.5-22.3-39 17.3-17.4 39.2 22.3 29.5zM427.5 439.4l-67.7 28.5 44.3 58.4 36.4 4.6 25.3-34.8-4.5-42.5zM331.3 517.1l9.2 72.7 29.2 22.2 39.3-17.4 17.3-39.1-22.2-29.2zM103.4 526.3L81 555.8l17.3 38.8 39.4 17.5 29.4-22.3 9.2-72.7zM147.7 467.9l-67.6-28.5-34.2 14.4-4.5 42.3 25.4 34.8 36.6-4.6z"/>
      <path class="shape-3" d="M103.2 352.6l-36.7-4.7-25.1 34.5 4.5 42.7 34.2 14.3 67.5-28.4zM253.6 613l14.3 33.9 42.6 4.6 34.6-25.3-4.6-36.4-58.5-44.4z"/>
      <path class="shape-3" d="M225.3 545.6l-58.2 44.2-4.7 36.7 34.4 25 42.5-4.6 14.3-33.9zM357 87.1l-22.4 29.5 17.3 38.8 39.4 17.5 29.4-22.3 9.1-72.7zM401.3 28.7L333.6.2l-34.1 14.4-4.5 42.3 25.3 34.8 36.7-4.6zM478.9 106.4l-58.2 44.2-4.7 36.7 34.3 25 42.6-4.6 14.3-33.9zM173.9.2l-67.7 28.5 44.4 58.4 36.3 4.6 25.3-34.8-4.5-42.5zM77.7 77.9l9.2 72.7 29.2 22.2 39.3-17.4 17.3-39.1-22.1-29.2z"/>
      <path class="shape-3" d="M0 173.8l14.3 33.9 42.6 4.5L91.5 187l-4.6-36.4-58.5-44.4zM357 791.5L334.6 762l17.3-38.9 39.4-17.5 29.4 22.3 9.1 72.8zM401.3 849.8l-67.7 28.5-34.1-14.4-4.5-42.3 25.3-34.8 36.7 4.7zM478.9 772.1l-58.2-44.2-4.7-36.6 34.3-25 42.6 4.5 14.3 33.9zM173.9 878.3l-67.7-28.4 44.4-58.4 36.3-4.6 25.3 34.7-4.5 42.5z"/>
      <path class="shape-3" d="M77.7 800.7l9.2-72.8 29.2-22.2 39.3 17.5 17.3 39.1-22.1 29.2zM0 704.8l14.3-34 42.6-4.5 34.6 25.2-4.6 36.4-58.5 44.4z"/>
    </g>
    <g>
      <path class="shape-4" d="M427.5 439.4l33.8 14.2 4.5 42.5 22.6-31 18.8-25.8-18.6-25.5-22.8-31.4-4.6 42.9zM340.8 288.9l29.3-22.2 38.8 17.2-15.5-34.9-13-29.4-69.9 7.5 34.9 25.4zM340.5 589.8l4.6 36.4-34.6 25.3 38.3 4 31.6 3.4 12.9-29 15.7-35.3-39.3 17.4zM167.1 589.8l-29.4 22.3-39.4-17.5 28.5 64.3 32-3.4 38-4-34.4-25zM166.8 288.9l-4.7-36.6 34.7-25.2-70-7.5-28.5 64.3 39-17.3zM80.1 439.4l-34.2-14.3-4.5-42.7L0 439.3l41.4 56.8 4.5-42.3z"/>
      <path class="shape-4" d="M420.7 150.6l-29.4 22.3-39.4-17.5 28.5 64.2 32-3.3 37.9-4-34.3-25zM333.6.2l-34.1-14.3-4.5-42.7L253.6 0 295 56.9l4.5-42.3zM173.9.2l33.8 14.2 4.5 42.5 22.7-31.1L253.6 0l-19-25.9-22.4-30.9-4.5 42.8zM86.9 150.6l4.6 36.4-34.6 25.2 38.3 4.1 31.6 3.3 12.9-28.9 15.7-35.3-39.3 17.4zM420.7 727.9l-29.4-22.3-39.4 17.5 28.5-64.2 32 3.3 37.9 4.1-34.3 25zM333.6 878.3l-34.1 14.3-4.5 42.7-41.4-56.8 41.4-56.9 4.5 42.3zM173.9 878.3l33.8-14.2 4.5-42.5 22.7 31.1 18.7 25.8-19 26-22.4 30.9-4.5-42.9zM86.9 727.9l4.6-36.4-34.6-25.2 38.3-4.1 31.6-3.3 12.9 29 15.7 35.3-39.3-17.5z"/>
    </g>
    <g>
      <path class="shape-5" d="M404.3 352.6l36.4-4.6 25.1 34.4 4.1-38.1v-.2l37.3-16.6-34-15 4-37-33 24.1-35.3-15.7 17.6 39.5zM253.6 265.5l14.3-33.9 42.6-4.5-31.2-22.7 4.3-40.6-30 21.9-30-21.9 4.3 40.6-31.1 22.7 42.5 4.5zM103.2 352.6l-22.3-29.5 17.4-39.2L63 299.6l-32.9-24.1 3.9 37-34 15 37.3 16.6 4.1 38.3 25.1-34.5zM103.4 526.3l-36.6 4.6-25.4-34.8-4.1 38.3L0 551l34 15.1-4 36.9 33-24 .3.1 35 15.5L81 555.8zM253.6 613l-14.3 33.9-42.5 4.6 31.1 22.6-4.3 40.6 30-21.8 30 21.8-4.3-40.5 31.2-22.7-42.6-4.6zM469.9 534.4l-4.1-38.3-25.3 34.8-36.4-4.6 22.2 29.2-17.3 39.1 35.1-15.6h.1l33 24-4-36.9 34-15.1zM357 87.1l-36.7 4.6L295 56.9l-4.1 38.3-37.3 16.6 34 15.1-4 36.9 33-24 .3.1 35 15.5-17.3-38.8z"/>
      <path class="shape-5" d="M507.2 173.8l-14.3 33.9-42.6 4.6 31.2 22.6-4.3 40.6 30-21.8 30 21.8-4.3-40.6 31.2-22.6-42.6-4.6zM0 173.8l-14.3 33.9-42.5 4.5 31.1 22.7-4.3 40.6 30-21.8 30 21.8-4.3-40.6 31.2-22.7-42.6-4.5zM216.3 95.2l-4.1-38.3-25.3 34.8-36.3-4.6 22.1 29.2-17.3 39.1 35.2-15.6v-.1.1l33 24-3.9-37 33.9-15zM357 791.5l-36.7-4.7-25.3 34.8-4.1-38.3-37.3-16.6 34-15-4-37 33 24.1.3-.2 35-15.5-17.3 38.9zM507.2 704.7l-14.3-33.9-42.6-4.5 31.2-22.7-4.3-40.6 30 21.9 30-21.9-4.3 40.6 31.2 22.7-42.6 4.5zM0 704.8l-14.3-34-42.5-4.5 31.1-22.7L-30 603l30 21.9L30 603l-4.3 40.6 31.2 22.7-42.6 4.5zM216.3 783.3l-4.1 38.3-25.3-34.7-36.3 4.6 22.1-29.2-17.3-39.1 35.2 15.6 33-24.1-3.9 37 33.9 15.1z"/>
    </g>
    <g>
      <path class="shape-6" d="M190.6 139.8l33 24 4.3 40.6-31.1 22.7-70-7.5 28.6-64.2zM279.3 204.4l4.3-40.6 33-24 35.2 15.6 28.6 64.2-70 7.5zM290.9 95.2l-37.3 16.6-37.3-16.6-4.1-38.3L253.6 0 295 56.9zM544.5 344.1l-37.3-16.6-37.3 16.6-4.1 38.3 41.4 56.9 41.4-56.9z"/>
      <path class="shape-6" d="M380.4 219.6l69.9-7.3 31.2 22.6-4.3 40.6-33 24.1-35.3-15.7zM-37.3 344.1L0 327.5l37.4 16.6 4 38.3L0 439.3l-41.4-56.9zM126.8 219.6l-69.9-7.4-31.2 22.7 4.4 40.6 33 24 35.2-15.6zM190.6 738.8l33-24.1 4.3-40.6-31.1-22.6-70 7.4 28.6 64.3zM279.3 674.1l4.3 40.6 33 24.1 35.2-15.7 28.6-64.2-70-7.4zM290.9 783.4l-37.3-16.6-37.3 16.5-4.1 38.3 41.4 56.9 41.4-56.9zM544.5 534.4L507.2 551l-37.3-16.6-4.1-38.2 41.4-56.9 41.4 56.8z"/>
      <path class="shape-6" d="M380.4 658.9l69.9 7.4 31.2-22.7-4.3-40.6-33-24-35.3 15.6zM-37.3 534.4L0 551l37.4-16.6 4-38.2L0 439.3l-41.4 56.8zM126.8 658.9l-69.9 7.4-31.2-22.7 4.4-40.6 33-24 35.2 15.6z"/>
    </g>
    <g>
      <path class="shape-7" d="M287.6 126.8l-34-15-33.9 15 3.9 37 30 21.9 30-21.9zM541.1 312.5l-33.9 15.1-34-15.1 4-37 30-21.8 30 21.8zM-33.9 312.5L0 327.6l34-15.1-3.9-37L0 253.7l-30 21.8zM287.6 751.7l-34 15.1-33.9-15.1 3.9-37 30-21.8 30 21.8zM541.1 566l-33.9-15-34 15 4 37 30 21.9 30-21.9zM-33.9 566L0 551l34 15-3.9 37L0 624.9-30 603z"/>
    </g>
  </g>
  <g class="guides">
    <circle r="219.6"/>
    <circle r="253.6"/>
    <circle cy="878.5" r="219.6"/>
    <circle cy="878.5" r="253.6"/>
    <circle cx="253.6" cy="439.3" r="109.8"/>
    <circle cx="253.6" cy="439.3" r="219.6"/>
    <circle cx="253.6" cy="439.3" r="253.6"/>
    <circle cx="507.2" r="219.6"/>
    <circle cx="507.2" r="253.6"/>
    <circle cx="507.2" cy="878.5" r="219.6"/>
    <circle cx="507.2" cy="878.5" r="253.6"/>
    <path d="M0 0l185.7 185.7M0 0l254.1 68.1M0 0l507.2 292.8M0 0l68 253.6M0 878.5l185.7-185.6M0 878.5l254.1-68.1M0 878.5l508.2-293.4M0 878.5l68-253.6M253.6 439.3L-.5 292.6M253.6 439.3L-.5 586M253.6 439.3L0 371.3M253.6 439.3L0 507.2M253.6 439.3l-67.9-253.6M253.6 439.3l-67.9 253.6M253.6 439.3l68-253.6M253.6 439.3l68 253.6M253.6 439.3l185.7-185.7M253.6 439.3l185.7 185.6M253.6 439.3l253.6-68M253.6 439.3l253.6 67.9M253.6 439.3l253.6-146.5M253.6 439.3l253.6 146.4M253.6 439.3L68 253.6M253.6 439.3L68 624.9M507.2 0L-.9 293.4M507.2 0L253.6 68M507.2 0L321.6 185.7M507.2 0l-67.9 253.6M507.2 878.5L-.9 585.1M507.2 878.5l-253.6-67.9M507.2 878.5L321.6 692.9M507.2 878.5l-67.9-253.6M0 0l253.6 439.3L507.2 0zM0 878.5l253.6-439.2 253.6 439.2zM253.6 439.3V0M253.6 439.3v439.2"/>
    <path d="M0 0h507.2v439.3H0zM0 439.3h507.2v439.3H0z"/>
  </g>
</svg>
