<svg xmlns="http://www.w3.org/2000/svg" width="507.2" height="878.5" viewBox="0 0 507.2 878.5">
  <style>
		:root {
	    --emerald: #216554;
	    --white: #FFFAF2;
	    --lightBlue: #2295CE;
	    --gold: #CEA600;
    }
    .shape-1{fill:var(--lightBlue)}
    .shape-2{fill:var(--white)}
    .shape-3{fill:var(--emerald)}
    .shape-4{fill:var(--white)}
    .shape-5{fill:var(--white)}
    .shape-6{fill:var(--emerald)}
    .shape-7{fill:var(--lightBlue)}
    .guides{ stroke: #4FFF4F; display: none; fill: none}
  </style>
  <g id="pattern" class="line">
    <path class="shape-1" d="M326.5 481.2a31 31 0 0132-14 31 31 0 01-20.7-28c0-11 8-24.2 20.7-28.2a31 31 0 01-32-14 31 31 0 014.3-35 31 31 0 01-35.1 4.2 31 31 0 01-14-32 31 31 0 01-28 20.8c-11 0-24.2-8.1-28.2-20.7a31 31 0 01-14 32 31 31 0 01-35-4.3 31 31 0 014.2 35 31 31 0 01-32 14 31 31 0 0120.7 28.1c0 11-8 24.1-20.7 28.1a31 31 0 0132 14 31 31 0 01-4.2 35 31 31 0 0135-4.2 31 31 0 0114 32 31 31 0 0128.1-20.7 31 31 0 0128.1 20.7 31 31 0 0114-32 31 31 0 0135 4.3 31 31 0 01-4.2-35zM580 42.1a31 31 0 0132-14 31 31 0 01-20.7-28c0-11 8-24.1 20.7-28.1a31 31 0 01-32-14 31 31 0 014.2-35 31 31 0 01-35 4.2 31 31 0 01-14-32 31 31 0 01-28.1 20.7c-11 0-24-8.1-28.1-20.7a31 31 0 01-14 32 31 31 0 01-35-4.3 31 31 0 014.2 35 31 31 0 01-32 14A31 31 0 01423 .2c0 11-8 24-20.7 28a31 31 0 0132 14 31 31 0 01-4.3 35.1 31 31 0 0135-4.3 31 31 0 0114 32 31 31 0 0128.1-20.8c11 0 24 8.1 28.1 20.7a31 31 0 0114-32 31 31 0 0135 4.3 31 31 0 01-4.2-35zm-507 0a31 31 0 0132-14A31 31 0 0184.3.2c0-11 8-24.1 20.7-28.1a31 31 0 01-32-14 31 31 0 014.3-35 31 31 0 01-35.1 4.2 31 31 0 01-14-32A31 31 0 01.1-84.1c-11 0-24-8-28-20.7a31 31 0 01-14 32A31 31 0 01-77-77.1a31 31 0 014.2 35 31 31 0 01-32 14A31 31 0 01-84 .2c0 11-8 24-20.7 28a31 31 0 0132 14A31 31 0 01-77 77.3 31 31 0 01-42 73a31 31 0 0114 32A31 31 0 01.1 84.2a31 31 0 0128.1 20.7 31 31 0 0114-32 31 31 0 0135 4.3 31 31 0 01-4.2-35zM584.3 801a31 31 0 01-35.1 4.3 31 31 0 01-14-32 31 31 0 01-28 20.7 31 31 0 01-28.2-20.7 31 31 0 01-14 32 31 31 0 01-35-4.3 31 31 0 014.2 35.1 31 31 0 01-32 14 31 31 0 0120.7 28.1c0 11-8 24-20.6 28a31 31 0 0132 14h-.1a31 31 0 01-4.2 35.1 31 31 0 0135-4.2 31 31 0 0114 32 31 31 0 0128.1-20.7c11 0 24.1 8 28.1 20.7a31 31 0 0114-32 31 31 0 0135 4.3 31 31 0 01-4.2-35.1 31 31 0 0132-14 31 31 0 01-20.7-28.1c0-11 8-24 20.7-28.1a31 31 0 01-32-14 31 31 0 014.3-35zm-507 0a31 31 0 01-35 4.3 31 31 0 01-14-32A31 31 0 010 794c-11 0-24-8-28-20.7a31 31 0 01-14 32 31 31 0 01-35-4.3 31 31 0 014.2 35.1 31 31 0 01-32 14A31 31 0 01-84 878c0 11-8 24.2-20.6 28.2a31 31 0 0132 14 31 31 0 01-4.3 35 31 31 0 0135-4.2 31 31 0 0114 32 31 31 0 0128-20.7c11 0 24.1 8 28.1 20.7a31 31 0 0114-32 31 31 0 0135 4.2 31 31 0 01-4.2-35 31 31 0 0132-14 31 31 0 01-20.7-28.1c0-11 8-24 20.7-28.1a31 31 0 01-32-14 31 31 0 014.3-35z"/>
    <path class="shape-2" d="M253.6 355a31 31 0 01-28.4-21.8c-6.8-25.2 15-56.6 28.4-67.7 13.4 11.1 35.3 42.5 28.4 67.7a31 31 0 01-28.4 21.8zm0 168.3a31 31 0 0128.4 21.8c6.9 25.2-15 56.5-28.4 67.6-13.3-11-35.2-42.4-28.4-67.6a31 31 0 0128.4-21.8z"/>
    <path class="shape-2" d="M211.5 366.2a31 31 0 01-35.5-4.6c-18.5-18.4-15.2-56.5-9.2-72.8 17.1 3 51.8 19.1 58.4 44.4a31 31 0 01-13.7 33zM295.7 512a31 31 0 0135.5 4.7c18.5 18.4 15.2 56.5 9.2 72.8-17.1-3-51.7-19.2-58.4-44.4a31 31 0 0113.7-33z"/>
    <path class="shape-2" d="M180.7 397a31 31 0 01-33 13.8c-25.3-6.7-41.5-41.3-44.4-58.5 16.3-6 54.3-9.3 72.8 9.2a31 31 0 014.6 35.5zm145.8 84.2a31 31 0 0133-13.7c25.3 6.7 41.5 41.3 44.4 58.4-16.2 6-54.3 9.3-72.7-9.2a31 31 0 01-4.7-35.5z"/>
    <path class="shape-2" d="M169.4 439.1a31 31 0 01-21.8 28.5c-25.2 6.8-56.5-15.1-67.6-28.5 11.1-13.3 42.4-35.2 67.6-28.4a31 31 0 0121.8 28.4zm168.4 0a31 31 0 0121.8-28.4c25.2-6.8 56.5 15 67.6 28.4-11 13.4-42.4 35.3-67.6 28.5a31 31 0 01-21.8-28.5z"/>
    <path class="shape-2" d="M180.7 481.2a31 31 0 01-4.6 35.5c-18.5 18.5-56.5 15.3-72.8 9.2 2.9-17 19-51.7 44.3-58.4a31 31 0 0133.1 13.7zM326.5 397a31 31 0 014.7-35.5c18.4-18.5 56.5-15.2 72.7-9.2-2.9 17.1-19 51.8-44.3 58.5a31 31 0 01-33-13.8z"/>
    <path class="shape-2" d="M211.5 512a31 31 0 0113.7 33.1c-6.6 25.2-41.3 41.4-58.4 44.4-6-16.3-9.3-54.4 9.2-72.8a31 31 0 0135.5-4.7zm84.2-145.8a31 31 0 01-13.7-33c6.7-25.3 41.3-41.5 58.4-44.4 6 16.3 9.3 54.4-9.2 72.8a31 31 0 01-35.5 4.6zm211.4-282a31 31 0 0128.4 21.8c6.9 25.2-15 56.6-28.4 67.7-13.4-11.1-35.2-42.5-28.4-67.7A31 31 0 01507 84.2zM423 0a31 31 0 01-22 28.6c-25.2 6.8-56.5-15-67.6-28.4 11.1-13.4 42.4-35.3 67.6-28.5A31 31 0 01423 .1z"/>
    <path class="shape-2" d="M434.2 42.1a31 31 0 01-4.7 35.6c-18.4 18.5-56.4 15.2-72.7 9.2 2.9-17.2 19-51.8 44.3-58.5a31 31 0 0133.1 13.8z"/>
    <path class="shape-2" d="M465 73a31 31 0 0113.7 33c-6.7 25.3-41.3 41.5-58.4 44.4-6-16.3-9.3-54.4 9.2-72.8A31 31 0 01465 73zM.1 84.2A31 31 0 0128.5 106c6.9 25.2-15 56.6-28.4 67.7-13.4-11.1-35.2-42.5-28.4-67.7A31 31 0 010 84.2z"/>
    <path class="shape-2" d="M42.2 73a31 31 0 0135.5 4.6C96.2 96 93 134.1 87 150.4c-17.1-3-51.7-19.1-58.4-44.4a31 31 0 0113.7-33z"/>
    <path class="shape-2" d="M73 42.2a31 31 0 0133-13.8c25.3 6.7 41.5 41.3 44.4 58.5-16.2 6-54.3 9.3-72.7-9.2A31 31 0 0173 42z"/>
    <path class="shape-2" d="M84.3 0A31 31 0 01106-28.3c25.2-6.8 56.5 15.1 67.6 28.5-11 13.3-42.4 35.2-67.6 28.4A31 31 0 0184.3 0zm422.8 794a31 31 0 0028.4-21.8c6.9-25.2-15-56.5-28.4-67.6-13.4 11.1-35.2 42.4-28.4 67.6A31 31 0 00507 794zM423 878.2a31 31 0 00-21.9-28.4c-25.2-6.9-56.5 15-67.6 28.4 11.1 13.4 42.4 35.3 67.6 28.4a31 31 0 0021.8-28.4z"/>
    <path class="shape-2" d="M434.2 836.1a31 31 0 00-4.6-35.5c-18.5-18.5-56.5-15.2-72.8-9.2 2.9 17.1 19 51.7 44.3 58.4a31 31 0 0033.1-13.7z"/>
    <path class="shape-2" d="M465 805.3a31 31 0 0013.7-33c-6.6-25.3-41.3-41.5-58.4-44.4-6 16.3-9.3 54.3 9.2 72.7a31 31 0 0035.5 4.7zM.1 794a31 31 0 0028.4-21.8c6.9-25.2-15-56.5-28.4-67.6-13.3 11.1-35.2 42.4-28.4 67.6A31 31 0 000 794zm42.1 11.3a31 31 0 0035.5-4.7C96.2 782.2 93 744.1 87 728c-17.1 2.9-51.7 19-58.4 44.3a31 31 0 0013.7 33.1z"/>
    <path class="shape-2" d="M73 836.1a31 31 0 0033.1 13.7c25.2-6.7 41.4-41.3 44.4-58.4-16.3-6-54.4-9.3-72.8 9.2a31 31 0 00-4.7 35.5z"/>
    <path class="shape-2" d="M84.3 878.2a31 31 0 0021.8 28.4c25.2 6.8 56.5-15 67.6-28.4-11-13.4-42.4-35.3-67.6-28.4a31 31 0 00-21.8 28.4z"/>
    <path class="shape-3" d="M404 352.3c-3 17-18.8 50.9-43.5 58.2 25-6 55.7 15.4 66.7 28.6 14.1-17 26.5-14.4 34-14.4a50.5 50.5 0 014.4-42.4 50.5 50.5 0 01-25-34.5c-6.5 3.7-16 12.2-36.7 4.5zm57.2 101.2c-7.5 0-19.9 2.6-34-14.4-11 13.2-41.6 34.7-66.7 28.7 24.7 7.3 40.6 41.2 43.4 58.1 20.8-7.7 30.2.8 36.7 4.6a51 51 0 0125-34.6 51 51 0 01-4.4-42.4zm-129.3-92.6c18.6-17.8 56-14.5 72-8.6 3.8-21.8 15.8-25.7 22.3-29.5a50.5 50.5 0 01-17.4-38.9 50.5 50.5 0 01-39-17.4c-3.7 6.5-7.6 18.6-29.4 22.3 6 16 9.2 53.4-8.5 72zM282.3 546c6 25-15.5 55.8-28.7 66.7 17 14.1 14.4 26.6 14.4 34a50.5 50.5 0 0142.4 4.5 50.5 50.5 0 0134.6-25c-3.8-6.6-12.3-16-4.6-36.7-16.9-3-50.9-18.8-58.1-43.5zm-57.3 0c-7.3 24.7-41.3 40.6-58.2 43.5-6-16.1-9.2-53.4 8.5-72.1-18.6 17.7-56 14.5-72 8.5 2.9-16.9 18.7-50.8 43.4-58.1-25 6-55.7-15.5-66.7-28.7 11-13.2 41.6-34.6 66.7-28.6-24.7-7.3-40.5-41.3-43.4-58.2 16-6 53.4-9.2 72 8.6-17.7-18.7-14.4-56-8.5-72.1 17 2.9 50.9 18.7 58.2 43.4-6-25 15.4-55.7 28.6-66.7-17-14-14.4-26.5-14.4-34a50.5 50.5 0 01-42.4-4.4 50.5 50.5 0 01-34.5 25c3.7 6.5 12.2 16 4.5 36.7-21.8-3.7-25.7-15.8-29.5-22.3a50.5 50.5 0 01-39 17.4A50.5 50.5 0 0181 323c6.5 3.7 18.5 7.6 22.3 29.4-20.8 7.7-30.2-.8-36.7-4.5-3.3 16-13 28-25 34.5a51 51 0 014.4 42.4c7.5 0 19.9-2.6 34 14.4-14.1 17-26.5 14.4-34 14.4a50.5 50.5 0 01-4.4 42.4 50.5 50.5 0 0125 34.6c6.5-3.8 16-12.2 36.7-4.6-3.7 21.8-15.8 25.8-22.3 29.5a50.5 50.5 0 0117.4 39 50.5 50.5 0 0139 17.3c3.7-6.4 7.6-18.5 29.4-22.2 7.7 20.7-.8 30.1-4.5 36.6 16 3.3 28 13.1 34.5 25 11.6-7 27-9.5 42.4-4.3 0-7.5-2.6-20 14.4-34-13.2-11-34.7-41.7-28.6-66.8zm179-20c-16.1 5.9-53.5 9.1-72.1-8.6 17.7 18.7 14.5 56 8.5 72 21.8 3.8 25.7 15.8 29.5 22.3a50.5 50.5 0 0139-17.4 50.5 50.5 0 0117.3-38.9c-6.5-3.7-18.5-7.7-22.3-29.5zM282.3 332.2c7.2-24.7 41.2-40.5 58.1-43.4-7.7-20.7.8-30.2 4.6-36.7-16-3.3-28-13-34.6-25-11.6 7-27 9.6-42.4 4.4 0 7.5 2.6 20-14.4 34 13.2 11 34.7 41.7 28.7 66.7zM333.5 0c-14.1 17-26.5 14.5-34 14.5a50.5 50.5 0 01-4.4 42.4 50.5 50.5 0 0125 34.5c6.5-3.7 16-12.2 36.7-4.5-3.8 21.8-15.8 25.7-22.3 29.4a50.5 50.5 0 0117.4 39 50.5 50.5 0 0139 17.4c3.7-6.5 7.6-18.6 29.4-22.3 7.7 20.7-.8 30.2-4.5 36.7a50 50 0 0134.5 25c11.6-7 27-9.6 42.4-4.4 0-7.5-2.6-20 14.4-34-13.2-11-34.7-41.7-28.6-66.7-7.3 24.7-41.3 40.5-58.2 43.4-6-16-9.2-53.4 8.5-72-18.6 17.7-56 14.4-72 8.5 2.9-17 18.7-50.9 43.4-58.2-25 6-55.7-15.4-66.7-28.6M207.7 14.5c-7.5 0-19.9 2.6-34-14.4-11 13.2-41.6 34.6-66.7 28.6C131.7 36 147.6 70 150.4 87c20.8-7.7 30.2.8 36.7 4.5 3.3-16 13.1-28 25-34.5a51 51 0 01-4.4-42.4zM28.8 107c6 25-15.5 55.7-28.7 66.7 17 14 14.4 26.5 14.4 34a50.5 50.5 0 0142.4 4.4 50.5 50.5 0 0134.6-25c-3.8-6.5-12.3-16-4.6-36.7C70 147.5 36 131.7 28.8 107z"/>
    <path class="shape-3" d="M150.4 86.9c-16 6-53.4 9.2-72-8.6 17.7 18.7 14.5 56 8.5 72.1 21.8 3.7 25.7 15.8 29.5 22.3a50.5 50.5 0 0139-17.4 50.5 50.5 0 0117.3-39c-6.5-3.7-18.5-7.6-22.3-29.4zm183.1 791.3c-14.1-17-26.5-14.4-34-14.4a50.5 50.5 0 00-4.4-42.4 50.5 50.5 0 0025-34.6c6.5 3.8 16 12.3 36.7 4.6-3.8-21.8-15.8-25.7-22.3-29.5a50.5 50.5 0 0017.4-39c13.6.4 28.1-5.1 39-17.3 3.7 6.5 7.6 18.5 29.4 22.3 7.7-20.8-.8-30.2-4.5-36.7 16-3.3 28-13 34.5-25a51 51 0 0042.4 4.4c0 7.5-2.6 19.9 14.4 34-13.2 11-34.7 41.7-28.6 66.7-7.3-24.7-41.3-40.5-58.2-43.4-6 16-9.2 53.4 8.5 72-18.6-17.7-56-14.4-72-8.5 2.9 17 18.7 50.9 43.4 58.2-25-6-55.7 15.4-66.7 28.6zm-125.8-14.4c-7.5 0-19.9-2.6-34 14.4-11-13.2-41.6-34.7-66.7-28.6 24.7-7.3 40.6-41.3 43.5-58.2 20.7 7.7 30.1-.8 36.6-4.6a51 51 0 0025 34.6 51 51 0 00-4.4 42.4zM28.8 771.3c6-25-15.5-55.7-28.7-66.7 17-14.1 14.4-26.5 14.4-34a50.5 50.5 0 0042.4-4.4 50.5 50.5 0 0034.6 25c-3.8 6.5-12.3 16-4.6 36.7-16.9 2.8-50.8 18.7-58.1 43.4z"/>
    <path class="shape-3" d="M150.5 791.4c-16.1-6-53.5-9.2-72.1 8.5 17.7-18.6 14.5-56 8.5-72 21.8-3.8 25.8-15.8 29.5-22.3a50.5 50.5 0 0039 17.4 50.5 50.5 0 0017.3 39c-6.5 3.7-18.5 7.6-22.2 29.4z"/>
    <path class="shape-4" d="M253.6 265.5c17-14 14.4-26.5 14.4-34a50.5 50.5 0 0042.5-4.4 40.8 40.8 0 00-31.2-22.7c7.6-7.6 10-29.3 4.3-40.6a42.2 42.2 0 00-30 21.9 42.2 42.2 0 00-30-22c-5.8 11.4-3.3 33 4.3 40.7-11.3 1-25.7 10-31.2 22.7 11.7 7 27 9.6 42.5 4.4 0 7.5-2.6 20 14.4 34m0 347.2c17 14.1 14.4 26.6 14.4 34a50.5 50.5 0 0142.5 4.5 40.8 40.8 0 01-31.2 22.7c7.6 7.6 10 29.2 4.3 40.6a42.2 42.2 0 01-30-21.9 42.2 42.2 0 01-30 22c-5.8-11.5-3.3-33.1 4.3-40.7-11.3-1-25.7-10-31.1-22.7 11.6-7.1 27-9.6 42.4-4.4 0-7.5-2.6-20 14.4-34M404 352.3c20.7 7.7 30.1-.8 36.6-4.5 3.3 16 13.1 28 25 34.5 8.3-11 9-28 4.2-38.3 10.3 2.8 30.4-5.9 37.4-16.6-7-8-19-16-34-15a42.2 42.2 0 003.9-37c-12.7.7-30.3 13.7-33 24a40.8 40.8 0 00-35.3-15.6 50.5 50.5 0 0017.4 39c-6.5 3.8-18.5 7.7-22.3 29.5M103.3 526c-3.7 21.7-15.8 25.7-22.3 29.4a50.5 50.5 0 0117.4 39 40.8 40.8 0 01-35.2-15.6c-2.8 10.3-20.3 23.3-33 24a42.2 42.2 0 013.9-37c-15 1-27-7-34-15 7-10.6 27-19.3 37.4-16.6a40.8 40.8 0 014-38.3 50.5 50.5 0 0125.1 34.6c6.5-3.8 16-12.2 36.7-4.6m300.7.1c3.7 21.7 15.7 25.7 22.2 29.4a50.5 50.5 0 00-17.4 39 40.8 40.8 0 0035.3-15.6c2.7 10.3 20.3 23.3 33 24 3.4-10 4.3-24.4-4-37 15 1 27-7 34-15-7-10.6-27-19.3-37.3-16.6a40.8 40.8 0 00-4.1-38.3 50.5 50.5 0 00-25 34.6c-6.6-3.8-16-12.3-36.8-4.6M103.3 352.3c-20.8 7.7-30.2-.8-36.7-4.5-3.3 16-13.1 28-25 34.5a40.8 40.8 0 01-4.2-38.3C27.1 346.8 7 338.1 0 327.4c7-8 19.1-16 34-15a42.2 42.2 0 01-3.9-37c12.8.8 30.3 13.7 33 24A40.8 40.8 0 0198.5 284a50.5 50.5 0 01-17.4 39c6.5 3.7 18.5 7.6 22.3 29.4m403.7-178.7c17 14 14.4 26.5 14.4 34A50.5 50.5 0 01564 212a40.8 40.8 0 01-31.2 22.7c7.6 7.6 10 29.3 4.3 40.6a42.2 42.2 0 01-30-21.9 42.2 42.2 0 01-30 22c-5.8-11.4-3.3-33 4.3-40.7-11.3-1-25.7-10-31.2-22.7 11.7-7 27-9.6 42.5-4.4 0-7.5-2.6-20 14.4-34M356.8 86.9c-3.8 21.8-15.8 25.7-22.3 29.4a50.5 50.5 0 0117.4 39 40.8 40.8 0 01-35.2-15.6c-2.8 10.4-20.3 23.3-33 24a42.2 42.2 0 013.9-36.9c-15 1-27-7-34-15 7-10.7 27-19.4 37.3-16.6a40.8 40.8 0 014.1-38.4 50.5 50.5 0 0125 34.6c6.6-3.7 16-12.2 36.8-4.5M.1 173.7c17 14 14.4 26.5 14.4 34a50.5 50.5 0 0142.5 4.4 40.8 40.8 0 01-31.2 22.7c7.6 7.6 10 29.3 4.3 40.6A42.3 42.3 0 010 253.6a41.9 41.9 0 01-30 21.8c-5.7-11.3-3.2-33 4.4-40.6-11.3-1-25.7-10-31.2-22.7 11.7-7 27-9.6 42.5-4.4 0-7.5-2.6-20 14.4-34"/>
    <path class="shape-4" d="M150.4 86.9c3.8 21.8 15.8 25.7 22.3 29.4a50.5 50.5 0 00-17.4 39 40.8 40.8 0 0035.3-15.6c2.7 10.4 20.3 23.3 33 24 3.4-10 4.3-24.4-4-36.9 15 1 27-7 34-15-7-10.7-27-19.4-37.3-16.6a40.8 40.8 0 00-4.1-38.4 50.5 50.5 0 00-25 34.6c-6.6-3.7-16-12.2-36.8-4.5m356.7 617.7c17-14.1 14.4-26.5 14.4-34A50.5 50.5 0 00564 666a40.8 40.8 0 00-31.2-22.7c7.6-7.5 10-29.2 4.3-40.6a42.2 42.2 0 00-30 22 42.2 42.2 0 00-30-22c-5.8 11.4-3.3 33 4.3 40.6-11.3 1-25.7 10-31.2 22.7 11.7 7.1 27 9.6 42.5 4.5 0 7.5-2.6 19.9 14.4 34m-150.3 86.9c-3.8-21.8-15.8-25.7-22.3-29.5a50.5 50.5 0 0017.4-39 40.8 40.8 0 00-35.2 15.7c-2.8-10.4-20.3-23.4-33-24a42.2 42.2 0 003.9 36.9c-15-1-27 7-34 15 7 10.7 27 19.4 37.4 16.6a40.8 40.8 0 004 38.3 50.5 50.5 0 0025.1-34.6c6.5 3.8 16 12.3 36.7 4.6M.1 704.6c17-14.1 14.4-26.5 14.4-34A50.5 50.5 0 0057 666a40.8 40.8 0 00-31.2-22.7c7.6-7.6 10-29.2 4.3-40.6a42.3 42.3 0 00-30 21.9H0a41.9 41.9 0 00-29.9-21.9c-5.7 11.4-3.3 33 4.3 40.6-11.3 1-25.6 10-31.1 22.7 11.6 7.1 27 9.6 42.4 4.5 0 7.5-2.6 19.9 14.4 34m150.4 86.9c3.7-21.8 15.7-25.7 22.2-29.5a50.5 50.5 0 01-17.4-39 40.8 40.8 0 0135.3 15.7c2.7-10.4 20.3-23.4 33-24a42 42 0 01-4 36.9c15-1 27 7 34 15-7 10.7-27 19.4-37.3 16.6a40.8 40.8 0 01-4.1 38.3 50.5 50.5 0 01-25-34.6c-6.6 3.8-16 12.3-36.7 4.6"/>
    <g>
      <path class="shape-5" d="M409 284c.5-23.4-11-51-28.6-64.4-20.4-8.6-50-4.7-70 7.5a50.5 50.5 0 0034.6 25c-3.8 6.5-12.3 16-4.6 36.7 21.8-3.7 25.7-15.8 29.5-22.3a50.5 50.5 0 0039 17.4zm-212.1-57c-20-12.1-49.6-16-70-7.4-17.7 13.3-29 41-28.5 64.3a51 51 0 0039-17.4c3.7 6.5 7.6 18.6 29.4 22.3 7.7-20.7-.8-30.2-4.5-36.7 16-3.3 28-13 34.5-25v-.1zM41.5 382.2c-20.4 11.2-38.8 35-41.5 57 2.7 22 21 45.6 41.5 56.7v.1c7.1-11.6 9.6-27 4.5-42.5 7.5 0 19.9 2.7 34-14.4-14.1-17-26.5-14.4-34-14.4a50.5 50.5 0 00-4.5-42.4zm56.8 212.1c-.6 23.3 10.8 51 28.5 64.3 20.4 8.7 50 4.7 70-7.4a50.5 50.5 0 00-34.5-25c3.7-6.6 12.2-16 4.5-36.7-21.8 3.7-25.7 15.8-29.5 22.2a50.5 50.5 0 00-39-17.3zm212.1 57c19.9 12.1 49.5 16 69.9 7.4 17.7-13.4 29.1-41 28.5-64.3a50.5 50.5 0 00-38.9 17.3c-3.8-6.4-7.7-18.5-29.5-22.2-7.7 20.7.8 30.1 4.6 36.6-16 3.3-28 13.1-34.6 25.1zM465.7 496c20.5-11.1 38.8-34.7 41.5-56.7-2.7-22-21-45.8-41.5-57a50.5 50.5 0 00-4.5 42.4c-7.5 0-19.9-2.6-34 14.4 14.1 17 26.5 14.4 34 14.4a50.5 50.5 0 004.5 42.5zM295-56.9C274.5-45.7 256.3-22 253.6 0c2.7 22 21 45.7 41.4 56.8v.1c7.1-11.6 9.6-27 4.5-42.4 7.5 0 19.9 2.6 34-14.4-14.1-17-26.5-14.4-34-14.4a50.5 50.5 0 00-4.5-42.5z"/>
      <path class="shape-5" d="M351.8 155.3c-.6 23.3 10.8 50.9 28.5 64.3 20.4 8.6 50 4.7 70-7.5a50.5 50.5 0 00-34.5-25c3.7-6.5 12.2-16 4.5-36.7-21.8 3.7-25.7 15.8-29.5 22.3a50.5 50.5 0 00-39-17.4zM56.9 212.2c19.9 12.1 49.5 16 69.9 7.4 17.7-13.3 29.1-41 28.5-64.3a50.5 50.5 0 00-39 17.4c-3.7-6.5-7.6-18.6-29.4-22.3-7.7 20.7.8 30.2 4.6 36.7-16 3.3-28 13-34.6 25v.1zM212.2 57c20.5-11.2 38.7-35 41.4-57-2.7-22-21-45.7-41.4-56.8v-.1a50.5 50.5 0 00-4.5 42.5c-7.5 0-19.9-2.7-34 14.4 14.1 17 26.5 14.4 34 14.4a50.5 50.5 0 004.5 42.4zM295 935.1c-20.4-11.1-38.7-34.8-41.4-56.8 2.7-22 21-45.7 41.4-56.9 7.1 11.6 9.6 27 4.5 42.4 7.5 0 19.9-2.6 34 14.4-14.1 17-26.5 14.4-34 14.4A50.5 50.5 0 01295 935zM351.8 723c-.6-23.3 10.8-51 28.5-64.3 20.4-8.6 50-4.7 70 7.4a50.5 50.5 0 01-34.5 25c3.7 6.6 12.2 16 4.5 36.8-21.8-3.8-25.7-15.8-29.5-22.3a50.5 50.5 0 01-39 17.4zM56.9 666c19.9-12 49.5-16 69.9-7.4 17.7 13.4 29.1 41 28.5 64.3h.1a50.5 50.5 0 01-39-17.3c-3.8 6.5-7.7 18.5-29.5 22.3-7.7-20.8.8-30.2 4.6-36.7a51 51 0 01-34.6-25v-.1zm155.3 155.3c20.5 11.1 38.7 34.8 41.4 56.8-2.7 22-21 45.7-41.4 56.9a50.5 50.5 0 01-4.5-42.4c-7.5 0-19.9 2.6-34-14.4 14.1-17 26.5-14.4 34-14.4a50.5 50.5 0 014.5-42.5z"/>
    </g>
    <g>
      <path class="shape-6" d="M216.3 95.2a40.8 40.8 0 00-4.1-38.3c20.5-11 38.7-34.8 41.4-56.8V0c2.7 22 21 45.7 41.4 56.8a40.8 40.8 0 00-4 38.4c-10.4-2.8-30.4 5.9-37.4 16.6-7-10.7-27-19.4-37.3-16.6zm11.6 109.2c-11.3 1-25.7 10-31.2 22.7l.2-.1c-20-12.1-49.6-16-70-7.4h-.1c17.7-13.3 29.1-41 28.5-64.3a40.8 40.8 0 0035.3-15.6c2.7 10.4 20.3 23.3 33 24-5.8 11.4-3.3 33 4.3 40.7zm55.7-40.6c12.8-.8 30.3-13.7 33-24.1a40.8 40.8 0 0035.3 15.6h-.1c-.6 23.3 10.8 50.9 28.5 64.3h.1c-20.4-8.6-50-4.7-70 7.5a40.8 40.8 0 00-31-22.7c7.5-7.6 10-29.3 4.2-40.6z"/>
      <path class="shape-6" d="M477 275.4c-12.6.7-30.2 13.7-33 24a40.8 40.8 0 00-35.2-15.6l.1.1c.6-23.3-10.8-51-28.5-64.3h-.1c20.4 8.6 50 4.7 70-7.5a40.8 40.8 0 0031.1 22.7c-7.6 7.6-10 29.3-4.3 40.6zm30.2 163.9c2.7-22 21-45.8 41.5-57a40.8 40.8 0 01-4-38.3c-10.4 2.8-30.5-5.9-37.5-16.6-7 10.7-27 19.4-37.4 16.6a40.8 40.8 0 01-4.1 38.3c20.5 11.2 38.8 35 41.5 57zm-444-139.8c-2.8-10.4-20.3-23.3-33-24 5.7-11.4 3.2-33-4.4-40.7 11.3-1 25.7-10 31.2-22.7l-.1.1c19.9 12.1 49.5 16 69.9 7.4h.1c-17.7 13.3-29 41-28.5 64.3a40.8 40.8 0 00-35.2 15.6zM37.4 344C27.1 346.8 7 338.1 0 327.4c-7 10.7-27 19.4-37.4 16.6a40.8 40.8 0 01-4.1 38.3c20.4 11 38.8 35 41.5 57 2.7-22 21-46 41.5-57a40.8 40.8 0 01-4-38.3zm178.9 439a40.8 40.8 0 01-4.1 38.4v-.1c20.5 11.1 38.7 34.8 41.4 56.8v.2c2.7-22 21-45.7 41.4-56.9a40.8 40.8 0 01-4-38.3c-10.4 2.8-30.4-6-37.4-16.6-7 10.7-27 19.4-37.3 16.6zM228 673.9c-11.4-1-25.8-10-31.2-22.7-19.8 12.2-49.5 16.1-69.9 7.5h-.1c17.7 13.3 29.1 41 28.5 64.2a40.8 40.8 0 0135.3 15.7c2.7-10.4 20.3-23.4 33-24-5.8-11.5-3.3-33.1 4.3-40.7zm55.6 40.6c12.8.7 30.3 13.7 33 24A40.8 40.8 0 01352 723l-.1.1c-.6-23.3 10.8-51 28.5-64.3h.1c-20.4 8.6-50 4.6-70-7.5a40.8 40.8 0 01-31 22.7c7.5 7.6 10 29.2 4.2 40.6zM477 602.8c-12.6-.7-30.2-13.7-33-24a40.8 40.8 0 01-35.2 15.6h.2c.5 23.2-10.9 50.9-28.6 64.2l-.1.1c20.4-8.6 50-4.7 70 7.4a40.8 40.8 0 0131.1-22.7c-7.6-7.5-10-29.2-4.3-40.6z"/>
      <path class="shape-6" d="M507.2 439c2.8 22 21 45.8 41.6 57a40.8 40.8 0 00-4.1 38.2c-10.4-2.7-30.5 6-37.5 16.6-7-10.6-27-19.3-37.4-16.5a40.8 40.8 0 00-4.1-38.4c20.5-11.1 38.8-35 41.5-56.9zm-444 139.8c-2.8 10.3-20.3 23.3-33 24 5.7 11.4 3.2 33-4.4 40.6 11.3 1 25.7 10 31.2 22.7h-.1c19.9-12.2 49.5-16.1 69.9-7.5l.1.1c-17.7-13.4-29-41-28.5-64.3a40.8 40.8 0 01-35.2-15.6zm-25.7-44.6C27 531.5 7 540.2 0 550.8c-7-10.6-27-19.3-37.4-16.6a40.8 40.8 0 00-4.1-38.3v.2C-21 484.9-2.7 461 0 439c2.7 22 21 45.9 41.5 57a40.8 40.8 0 00-4 38.2z"/>
    </g>
    <g>
      <path class="shape-7" d="M219.6 126.8c15 1 27-7 34-15 7 8 19 16 34 15a42.2 42.2 0 00-4 37 42.2 42.2 0 00-30 21.9 42.2 42.2 0 00-30-22c3.4-10 4.3-24.4-4-36.9zm287.6 200.6c7-8 19.1-16 34.1-15a42.2 42.2 0 01-4-37 42.2 42.2 0 01-30-21.9h-.2a42.2 42.2 0 01-30 22c3.4 10 4.3 24.4-4 36.9 15-1 27.1 7 34.1 15zm-537.3-52A42 42 0 000 253.6a42.3 42.3 0 0030.1 21.8 42.2 42.2 0 004 37c-15-1-27.1 7-34.1 15-7-8-19.1-16-34-15a42.2 42.2 0 003.9-37zm249.7 476.1c15-1 27 7 34 15 7-8 19-16 34-15a42.2 42.2 0 01-4-37 42.2 42.2 0 01-30-21.9 42.2 42.2 0 01-30 22 42 42 0 01-4 36.9zm287.6-200.7c7 8 19.1 16 34.1 15a42.2 42.2 0 00-4 37 42.2 42.2 0 00-30 22h-.2a42.2 42.2 0 00-30-22c3.5-10 4.3-24.4-4-37 15 1 27.1-7 34.1-15zm-537.3 52c10.4 2 23.4 8.4 30.1 21.9a42.3 42.3 0 0130.1-21.9 42.2 42.2 0 014-37 42 42 0 01-34-15c-7 8-19.2 16-34.2 15a42.2 42.2 0 014 37z"/>
    </g>
  </g>
  <g class="guides">
    <circle cx="253.6" cy="439.3" r="109.8"/>
    <circle cx="253.6" cy="439.3" r="219.6"/>
    <circle cx="253.6" cy="439.3" r="253.6"/>
    <circle cx="507.2" cy="878.5" r="219.6"/>
    <circle cx="507.2" cy="878.5" r="253.6"/>
    <circle cx="507.2" r="219.6"/>
    <circle cx="507.2" r="253.6"/>
    <circle cy="878.5" r="219.6"/>
    <circle cy="878.5" r="253.6"/>
    <circle r="219.6"/>
    <circle r="253.6"/>
    <path d="M0 0h507.2v439.3H0zm253.6 439.3V0"/>
    <path d="M0 0l253.6 439.3L507.2 0zM0 0l254.1 68.1M0 0l507.2 292.8M0 0l185.7 185.7M0 0l68 253.6M507.2 0L253.6 68M507.2 0L-.9 293.4M507.2 0L321.6 185.7M507.2 0l-67.9 253.6M253.6 439.3L0 371.3m253.6 68L-.5 292.6m254.1 146.7l253.6-146.5M253.6 439.3L68 253.6m185.6 185.7l-67.9-253.6m67.9 253.6l253.6-68m-253.6 68l185.7-185.7M253.6 439.3l68-253.6M0 439.3h507.2v439.3H0zm253.6 0v439.2"/>
    <path d="M0 878.5l253.6-439.2 253.6 439.2zM0 878.5l254.1-68.1M0 878.5l508.2-293.4M0 878.5l185.7-185.6M0 878.5l68-253.6m439.2 253.6l-253.6-67.9m253.6 67.9L-.9 585.1m508.1 293.4L321.6 692.9m185.6 185.6l-67.9-253.6M253.6 439.3L0 507.2m253.6-67.9L-.5 586m254.1-146.7l253.6 146.4M253.6 439.3L68 624.9m185.6-185.6l-67.9 253.6m67.9-253.6l253.6 67.9m-253.6-67.9l185.7 185.6M253.6 439.3l68 253.6"/>
  </g>
</svg>
