<svg xmlns="http://www.w3.org/2000/svg" width="500" height="866.2" viewBox="0 0 100% 100%">
  <style>
    :root {
      --golden: #907A58;
      --darkBlue: #475387;
      --smaragd: #406A72;
    }
    .shape-1{fill:var(--darkBlue)}
    .shape-2{fill:var(--golden)}
    .shape-3{fill:var(--smaragd)}
    .line{stroke:#fff;stroke-width:20px}
    .guides{ stroke: #4FFF4F;  display: none}
  </style>
      <g class="line" id="pattern">
        <path class="shape-1" d="M450.5 260.3l-50 86.6h-100l50 86.6-50 86.6h100l50 86.6 50-86.6h100l-50-86.6 50-86.6h-100zM200.5-172.7l-50 86.6h-100l50 86.6-50 86.6h100l50 86.6 50-86.6h100L300.5.5l50-86.6h-100zM200.5 693.3l-50 86.6h-100l50 86.6-50 86.6h100l50 86.6 50-86.6h100l-50-86.6 50-86.6h-100zM-49.5 260.3l-50 86.6h-100l50 86.6-50 86.6h100l50 86.6 50-86.6h100l-50-86.6 50-86.6H.5z"/>
        <path class="shape-2" d="M450.5 260.3l-50-86.6h-100l50 86.6h-100l-100-173.2h-100l-50 86.6 50 86.6 50-86.6 50 86.6-100 173.2 50 86.6h100l50-86.6h-100l50-86.6h200zM700.5 693.3l-50-86.6h-100l50 86.6h-100l-100-173.2h-100l-50 86.6 50 86.6 50-86.6 50 86.6-100 173.2 50 86.6h100l50-86.6h-100l50-86.6h200zM200.5 693.3l-50-86.6h-100l50 86.6H.5l-100-173.2h-100l-50 86.6 50 86.6 50-86.6 50 86.6-100 173.2 50 86.6h100l50-86.6h-100l50-86.6h200zM700.5-172.7l-50-86.6h-100l50 86.6h-100l-100-173.2h-100l-50 86.6 50 86.6 50-86.6 50 86.6L300.5.5l50 86.6h100l50-86.6h-100l50-86.6h200z"/>
        <path class="shape-3" d="M300.5 346.9h-100l-50 86.6h100l-50 86.6H.5l-50 86.6 50 86.6h100l-50-86.6h100l100 173.2h100l50-86.6-50-86.6-50 86.6-50-86.6 100-173.2zM800.5 346.9h-100l-50 86.6h100l-50 86.6h-200l-50 86.6 50 86.6h100l-50-86.6h100l100 173.2h100l50-86.6-50-86.6-50 86.6-50-86.6 100-173.2zM550.5 779.9h-100l-50 86.6h100l-50 86.6h-200l-50 86.6 50 86.6h100l-50-86.6h100l100 173.2h100l50-86.6-50-86.6-50 86.6-50-86.6 100-173.2zM50.5 779.9h-100l-50 86.6H.5l-50 86.6h-200l-50 86.6 50 86.6h100l-50-86.6h100l100 173.2h100l50-86.6-50-86.6-50 86.6-50-86.6 100-173.2zM550.5-86.1h-100L400.5.5h100l-50 86.6h-200l-50 86.6 50 86.6h100l-50-86.6h100l100 173.2h100l50-86.6-50-86.6-50 86.6-50-86.6L600.5.5zM50.5-86.1h-100L-99.5.5H.5l-50 86.6h-200l-50 86.6 50 86.6h100l-50-86.6h100L.5 346.9h100l50-86.6-50-86.6-50 86.6-50-86.6L100.5.5z"/>
      </g>
      <g class="guides">
        <path d="M-349.5-259.3l-700 1212.4M-249.5-259.3l-700 1212.4M-149.5-259.3l-700 1212.4M-49.5-259.3l-700 1212.4M50.5-259.3l-700 1212.4M150.5-259.3l-700 1212.4M250.5-259.3l-700 1212.4M350.5-259.3l-700 1212.4M450.5-259.3l-700 1212.4M550.5-259.3l-700 1212.4M650.5-259.3l-700 1212.4M750.5-259.3L50.5 953.1M850.5-259.3l-700 1212.4M950.5-259.3l-700 1212.4M1050.5-259.3l-700 1212.4M1150.5-259.3l-700 1212.4M1250.5-259.3l-700 1212.4M550.5-259.3l700 1212.4M450.5-259.3l700 1212.4M350.5-259.3l700 1212.4M250.5-259.3l700 1212.4M150.5-259.3l700 1212.4M50.5-259.3l700 1212.4M650.5 953.1l-700-1212.4M-149.5-259.3l700 1212.4M-249.5-259.3l700 1212.4M-349.5-259.3l700 1212.4M-449.5-259.3l700 1212.4M-549.5-259.3l700 1212.4M-649.5-259.3l700 1212.4M-749.5-259.3l700 1212.4M-849.5-259.3l700 1212.4M-949.5-259.3l700 1212.4M-1049.5-259.3l700 1212.4M-699.5 346.9h1600M-649.5 260.3h1600M-599.5 173.7h1600M-549.5 87.1h1600M-499.5.5h1600M-449.5-86.1h1600M-399.5-172.7h1600M-749.5 433.5h1600M-799.5 520.1h1800M-849.5 606.7h1900M-899.5 693.3h2000M-950.5 779.9h2109.7M-999.5 866.5h2209"/>
      </g>
</svg>
