<svg xmlns="http://www.w3.org/2000/svg" width="504.3" height="873.4" viewBox="0 0 504.3 873.4">
  <style>
		:root {
	    --emerald: #216554;
	    --white: #FFFAF2;
	    --lightBlue: #2295CE;
	    --gold: #CEA600;
    }
    .shape-1{fill:var(--lightBlue)}
    .shape-2{fill:var(--white)}
    .shape-3{fill:var(--emerald)}
    .shape-4{fill:var(--white)}
    .shape-5{fill:var(--lightBlue)}
    .shape-6{fill:var(--emerald)}
    .shape-7{fill:var(--white)}
    .shape-8{fill:var(--white)}
    .shape-9{fill:var(--white)}
    .guides{ stroke: #4FFF4F; display: none; fill: none}
  </style>
  <g id="pattern" class="line">
    <path class="shape-1" d="M330.2 436.7l-24.8-14.3 14.3-24.7h-28.6v-28.5l-24.7 14.2-14.3-24.7-14.2 24.7-24.8-14.3v28.6h-28.5l14.2 24.7-24.7 14.3 24.8 14.3-14.3 24.7h28.5v28.6l24.8-14.3 14.2 24.7 14.3-24.7 24.7 14.3v-28.6h28.6L305.4 451zM78 0L53.2-14.3 67.5-39H39v-28.6L14.2-53.3-.1-78l-14.2 24.7-24.8-14.3V-39h-28.5l14.3 24.7L-78.1 0l24.8 14.3L-67.6 39h28.5v28.6l24.8-14.3L-.1 78l14.3-24.7L39 67.6V39h28.5L53.2 14.3zM582.4 0l-24.8-14.3L571.9-39h-28.6v-28.6l-24.7 14.3L504.3-78l-14.2 24.7-24.8-14.3V-39h-28.5L451-14.3 426.3 0 451 14.3 436.8 39h28.5v28.6L490 53.3 504.3 78l14.3-24.7 24.7 14.3V39h28.6l-14.3-24.7zM78 873.4l-24.8 14.3 14.3 24.7H39V941l-24.8-14.3-14.3 24.8-14.2-24.8-24.8 14.3v-28.6h-28.5l14.3-24.7-24.8-14.3 24.8-14.2-14.3-24.8h28.5v-28.5l24.8 14.2 14.2-24.7 14.3 24.7L39 805.9v28.5h28.5l-14.3 24.8zM582.3 873.4l-24.7 14.3 14.3 24.7h-28.6V941l-24.7-14.3-14.3 24.8-14.2-24.8-24.8 14.3v-28.6h-28.5l14.2-24.7-24.7-14.3 24.7-14.2-14.2-24.8h28.5v-28.5l24.7 14.2 14.3-24.7 14.3 24.7 24.7-14.2v28.5h28.6l-14.3 24.8z"/>
    <path class="shape-2" d="M213.1 369.1l-67.5-39 39 67.6h28.5z"/>
    <path class="shape-2" d="M184.6 397.7h-78l67.5 39 24.7-14.3zM291.1 369.2v-78.1l-39 67.6 14.3 24.7zM252.1 358.7l-39-67.6v78l24.8 14.3zM319.7 397.7l39-67.6-67.6 39.1v28.5zM174.1 436.7l-67.6 39h78.1l14.3-24.7zM213.1 504.3v78l39-67.6-14.2-24.7zM252.1 514.7l39 67.6v-78L266.4 490zM291.1 504.3l67.6 39-39-67.6h-28.6zM184.6 475.7l-39 67.6 67.5-39v-28.6z"/>
    <path class="shape-2" d="M319.7 475.7h78l-67.5-39-24.8 14.3zM305.4 422.4l24.8 14.3 67.5-39h-78zM-.1 78L39 145.6v-78L14.2 53.3zM39 67.6l67.5 39-39-67.6H39zM67.5 39h78.1L78 0 53.2 14.3zM426.3 0l-67.6 39h78.1L451 14.3zM465.3 67.6v78l39-67.6L490 53.3zM436.8 39l-39 67.6 67.5-39V39zM-.1 795.4L39 727.8v78.1l-24.8 14.2zM39 805.9l67.5-39-39 67.5H39zM67.5 834.4h78.1l-67.6 39-24.8-14.2zM426.3 873.4l-67.6-39h78.1l14.2 24.8zM465.3 805.9v-78.1l39 67.6-14.3 24.7zM436.8 834.4l-39-67.5 67.5 39v28.5z"/>
    <g>
      <path class="shape-3" d="M184.6 475.7h-78.1l-36.9 21.4 10.4 39 28.6 28.5 37-21.3zM174.1 436.7l-67.5-39H63.8l-10.4 39 10.4 39h42.7zM184.6 397.7l-39-67.6-37-21.3L80 337.3l-10.4 39 37 21.4zM213.1 369.1v-78l-21.3-37-39 10.5-28.6 28.5 21.4 37zM213.1 504.3l-67.5 39-21.4 37 28.6 28.5 39 10.5 21.3-37zM252.1 514.7l-39 67.6V625l39 10.5 39-10.5v-42.7zM319.7 475.7l39 67.6 37 21.3 28.6-28.5 10.4-39-37-21.4z"/>
      <path class="shape-3" d="M440.4 397.7h-42.7l-67.5 39 67.5 39h42.7l10.5-39zM291.1 504.3v78l21.4 37 39-10.5 28.6-28.5-21.4-37zM291.1 369.2l67.6-39.1 21.4-37-28.6-28.5-39-10.5-21.4 37zM319.7 397.7h78l37-21.4-10.4-39-28.6-28.5-37 21.3zM252.1 358.7l39-67.6v-42.7l-39-10.4-39 10.4v42.7zM-.1 78l-39 67.6v42.7l39 10.5L39 188.3v-42.7zM67.5 39l39 67.6 37 21.3 28.6-28.5 10.4-39L145.6 39zM188.3-39h-42.8L78 0l67.6 39h42.6l10.5-39zM39 67.6v78l21.3 37 39-10.5 28.6-28.5-21.4-37zM436.8 39h-78.1l-37 21.4 10.5 39 28.6 28.5 37-21.3zM426.3 0l-67.5-39H316L305.6 0 316 39h42.7z"/>
      <path class="shape-3" d="M465.3 67.6l-67.5 39-21.4 37 28.5 28.5 39.1 10.5 21.3-37z"/>
      <path class="shape-3" d="M504.3 78l-39 67.6v42.7l39 10.5 39-10.5v-42.7zM-.1 795.4l-39-67.6v-42.7l39-10.4L39 685.1v42.7zM67.5 834.4l39-67.5 37-21.4 28.6 28.6 10.4 39-36.9 21.3zM188.2 912.4h-42.7l-67.5-39 67.6-39h42.6l10.5 39z"/>
      <path class="shape-3" d="M39 805.9v-78.1l21.3-36.9 39 10.4 28.6 28.6-21.4 37zM436.8 834.4h-78.1l-37-21.3 10.5-39 28.6-28.6 37 21.4zM426.3 873.4l-67.5 39H316l-10.4-39 10.4-39h42.7z"/>
      <path class="shape-3" d="M465.3 805.9l-67.5-39-21.4-37 28.5-28.6 39.1-10.4 21.3 36.9z"/>
      <path class="shape-3" d="M504.3 795.4l-39-67.6v-42.7l39-10.4 39 10.4v42.7z"/>
    </g>
    <g>
      <path class="shape-4" d="M440.4 475.7h-42.7l37 21.4-10.4 39 42-42-15.4-57.4zM291.1 291.1l21.4-37 39 10.5-42-42-57.4 15.4 39 10.4zM145.6 543.3l-37 21.3L80 536.1l15.4 57.4 57.4 15.3-28.6-28.5zM106.5 475.7H63.8l-10.4-39L38 494.1l42 42-10.4-39zM106.6 397.7l-37-21.4 10.4-39-42 42 15.4 57.4 10.4-39zM213.1 291.1v-42.7l39-10.4-57.3-15.4-42 42 39-10.5zM358.7 543.3l21.4 37-28.6 28.5 57.4-15.3 15.4-57.4-28.6 28.5z"/>
      <path class="shape-4" d="M213.1 582.3l-21.3 37-39-10.5 42 42 57.3-15.3-39-10.5zM291.1 582.3V625l-39 10.5 57.4 15.3 42-42-39 10.5zM145.6 330.1l-21.4-37 28.6-28.5L95.4 280 80 337.3l28.6-28.5zM397.7 397.7h42.7l10.5 39 15.4-57.4-42-42 10.4 39zM358.7 330.1l37-21.3 28.6 28.5-15.4-57.3-57.4-15.4 28.6 28.5zM188.2 39h-42.6l36.9 21.4-10.4 39 42-42L198.7 0z"/>
      <path class="shape-4" d="M106.5 106.6l21.4 37-28.6 28.5 57.4-15.3 15.4-57.4-28.6 28.5zM39 145.6v42.7L-.1 198.8l57.4 15.3 42-42-39 10.5zM397.8 106.6l-37 21.3-28.6-28.5 15.4 57.4 57.3 15.3-28.5-28.5z"/>
      <path class="shape-4" d="M358.7 39H316L305.6 0l-15.4 57.4 42 42-10.5-39zM465.3 145.6l-21.3 37-39.1-10.5 42.1 42 57.3-15.3-39-10.5zM188.2 834.4h-42.6l36.9-21.3-10.4-39 42 42-15.4 57.3zM106.5 766.9l21.4-37-28.6-28.6 57.4 15.4 15.4 57.4-28.6-28.6zM39 727.8v-42.7L-.1 674.7l57.4-15.4 42 42-39-10.4zM397.8 766.9l-37-21.4-28.6 28.6 15.4-57.4 57.3-15.4-28.5 28.6zM358.7 834.4H316l-10.4 39-15.4-57.3 42-42-10.5 39zM465.3 727.8L444 690.9l-39.1 10.4 42-42 57.4 15.4-39 10.4z"/>
    </g>
    <g>
      <path class="shape-5" d="M309.5 222.6l-18.4-18.4v-36.1l-39 22.5-39-22.5v36.1l-18.3 18.4 57.3 15.4zM252.1 100.5l-31.3-18.1-6.7-25-42 42-15.4 57.4 25.1-6.8 31.3 18.1V123zM290.2 57.4l-6.7 25-31.4 18.1 39 22.5v45.1l31.3-18.1 25.2 6.8-15.4-57.4zM57.3 214.1L39 232.5v36.1L-.1 246.1l-39 22.5v-36.1l-18.3-18.4 57.3-15.3z"/>
      <path class="shape-5" d="M38 379.3l-6.7-25-31.4-18.1L39 313.7v-45.1l31.2 18.1 25.2-6.7L80 337.3zM561.7 214.1l-18.4 18.4v36.1l-39-22.5-39 22.5v-36.1L447 214.1l57.3-15.3z"/>
      <path class="shape-5" d="M504.3 336.2L473 354.3l-6.7 25-42-42-15.4-57.3 25.1 6.7 31.3-18.1v45.1zM309.5 650.8l-18.4 18.4v36.1l-39-22.5-39 22.5v-36.1l-18.3-18.4 57.3-15.3zM252.1 772.9L220.8 791l-6.7 25.1-42-42-15.4-57.4 25.1 6.7 31.3-18.1v45.1zM290.2 816.1l-6.7-25.1-31.4-18.1 39-22.5v-45.1l31.3 18.1 25.2-6.7-15.4 57.4zM57.3 659.3l-18.4-18.4v-36.1l-39 22.5-39-22.5v36.1l-18.3 18.4 57.3 15.4z"/>
      <path class="shape-5" d="M38 494.1l-6.7 25-31.4 18.1 39 22.6v45l31.3-18.1 25.2 6.8L80 536.1zM561.7 659.3l-18.4-18.4v-36.1l-39 22.5-39-22.5v36.1l-18.4 18.4 57.4 15.4z"/>
      <path class="shape-5" d="M504.3 537.2L473 519.1l-6.7-25-42 42-15.4 57.4 25.1-6.8 31.3 18.1v-45z"/>
    </g>
    <g>
      <path class="shape-6" d="M142.8 208.7l-7.1 26.4-26.4-7L95.4 280l57.4-15.4 42-42z"/>
      <path class="shape-6" d="M142.8 208.7l13.9-51.9-57.4 15.3-42 42 52 14 7.1-26.5zM252.1-19.3l-38-38.1L198.7 0l15.4 57.4 38-38.1L232.8 0zM305.6 0l-15.4-57.4-38.1 38.1L271.5 0l-19.4 19.3 38.1 38.1zM368.6 235.1l-7.1-26.4-52 13.9 42 42 57.4 15.4-13.9-51.9z"/>
      <path class="shape-6" d="M395 228.1l52-14-42.1-42-57.3-15.3 13.9 51.9 26.4-7.1zM53.4 436.7L38 494.1-.1 456l19.4-19.3-19.4-19.3L38 379.3zM504.3 456l-38 38.1-15.4-57.4 15.4-57.4 38 38.1-19.3 19.3z"/>
      <path class="shape-6" d="M557.8 436.7l-15.4 57.4-38.1-38.1 19.3-19.3-19.3-19.3 38.1-38.1zM142.8 664.8l-7.1-26.5-26.4 7.1-13.9-51.9 57.4 15.3 42 42z"/>
      <path class="shape-6" d="M142.8 664.8l13.9 51.9-57.4-15.4-42-42 52-13.9 7.1 26.5zM252.1 892.7l-38 38.1-15.4-57.4 15.4-57.3 38 38-19.3 19.3zM305.6 873.4l-15.4 57.4-38.1-38.1 19.4-19.3-19.4-19.3 38.1-38zM368.6 638.3l-7.1 26.5-52-14 42-42 57.4-15.3-13.9 51.9z"/>
      <path class="shape-6" d="M395 645.4l51.9 13.9-42 42-57.3 15.4 13.9-51.9 26.4 7z"/>
    </g>
    <g>
      <path transform="rotate(15 126 218.4)" class="shape-7" d="M112.4 204.7h27.3v27.4h-27.3z"/>
      <path transform="rotate(-45 252.1 0)" class="shape-7" d="M238.5-13.7h27.3v27.3h-27.3z"/>
      <path transform="rotate(75 378.2 218.4)" class="shape-7" d="M364.5 204.7h27.4V232h-27.4z"/>
      <path transform="rotate(45 0 436.7)" class="shape-7" d="M-13.7 423.1h27.3v27.3h-27.3z"/>
      <path transform="rotate(45 504.3 436.7)" class="shape-7" d="M490.7 423.1H518v27.3h-27.3z"/>
      <path transform="rotate(-15 126 655.1)" class="shape-7" d="M112.4 641.4h27.3v27.4h-27.3z"/>
      <path transform="rotate(45 252.1 873.4)" class="shape-7" d="M238.5 859.8h27.3v27.3h-27.3z"/>
      <path transform="rotate(-75 378.2 655)" class="shape-7" d="M364.5 641.4h27.4v27.3h-27.4z"/>
    </g>
    <g>
      <path class="shape-8" d="M252.1 100.5l39 22.5v45.1l-39 22.5-39-22.5V123zM-.1 336.2L39 313.7v-45.1L-.1 246.1l-39 22.5v45.1zM504.3 336.2l39-22.5v-45.1l-39-22.5-39 22.5v45.1zM252.1 772.9l39-22.5v-45.1l-39-22.5-39 22.5v45.1zM-.1 537.2l39 22.6v45l-39 22.5-39-22.5v-45zM504.3 537.2l39 22.6v45l-39 22.5-39-22.5v-45z"/>
    </g>
    <g>
      <path class="shape-9" d="M252.1 19.3l-38 38.1 6.7 25 31.3 18.1 31.4-18.1 6.7-25zM142.8 208.7l13.9-51.9 25.1-6.8 31.3 18.1v36.1l-18.3 18.4zM322.4 150l-31.3 18.1v36.1l18.4 18.4 52-13.9-13.9-51.9zM-.1 417.4l-38-38.1 6.7-25 31.3-18.1 31.4 18.1 6.7 25zM70.2 286.7L39 268.6v-36.1l18.3-18.4 52 14L95.4 280zM504.3 417.4l-38-38.1 6.7-25 31.3-18.1 31.4 18.1 6.7 25zM395 228.1l13.9 51.9 25.1 6.7 31.3-18.1v-36.1L447 214.1zM252.1 854.1l-38-38 6.7-25.1 31.3-18.1 31.4 18.1 6.7 25.1zM142.8 664.8l13.9 51.9 25.1 6.7 31.3-18.1v-36.1l-18.3-18.4zM322.4 723.4l-31.3-18.1v-36.1l18.4-18.4 52 14-13.9 51.9zM-.1 456l-38 38.1 6.7 25 31.3 18.1 31.4-18.1 6.7-25zM70.2 586.7l-31.3 18.1v36.1l18.4 18.4 52-13.9-13.9-51.9zM504.3 456l-38 38.1 6.7 25 31.3 18.1 31.4-18.1 6.7-25zM395 645.4l13.9-51.9 25.1-6.8 31.3 18.1v36.1l-18.4 18.4z"/>
    </g>
  </g>
  <g class="guides">
    <circle cx="252.1" cy="436.7" r="150.7"/>
    <circle cx="504.3" cy="873.4" r="150.7"/>
    <circle cx="504.3" r="150.7"/>
    <circle cy="873.4" r="150.7"/>
    <circle r="150.7"/>
    <path d="M0 436.7h504.3v436.7H0zM0 0l252.1 436.7L504.3 0z"/>
    <path d="M0 873.4l252.1-436.7 252.2 436.7zM0 0h504.3v436.7H0zm0 0l212.2 56.9M0 0l504.3 291.1M0 0l184.6 184.6M0 0l67.6 252.1M504.3 0L292.1 56.9M504.3 0L0 291.1M504.3 0L319.7 184.6M504.3 0l-67.6 252.1m-369.1 0l184.5 184.6M0 291.1l252.1 145.6M0 369.2l252.1 67.5m184.6-184.6L252.1 436.7m252.2-145.6L252.1 436.7m0 0L369.2 0M252.1 436.7L135.1 0m117 0v436.7M67.6 621.3l184.5-184.6M0 582.3l252.1-145.6M0 504.3l252.1-67.6m252.2-67.5l-252.2 67.5m252.2 67.6l-252.2-67.6m184.6 184.6L252.1 436.7m252.2 145.6L252.1 436.7m0 0l117.1 436.7M252.1 436.7l-117 436.8m117-.1V436.7"/>
    <path d="M213.1 436.7V0m78 436.7V0M0 873.4l212.2-56.8M0 873.4l504.3-291.1M0 873.4l184.6-184.5M0 873.4l67.6-252.1m436.7 252.1l-212.2-56.8m212.2 56.8L0 582.3m504.3 291.1L319.7 688.9m184.6 184.5l-67.6-252.1M213.1 436.7v436.7m78-436.7v436.7M39 436.7V0m0 436.7v436.7m426.3-436.7V0m0 436.7v436.7M213.1 168.1A271.4 271.4 0 11-213-168.1a271.4 271.4 0 01426 336.2zM213.1 705.3A271.4 271.4 0 10-213 1041.5a271.4 271.4 0 00426-336.2z"/>
    <path d="M291.1 168.1a271.4 271.4 0 10426.3-336.2 271.4 271.4 0 00-426.3 336.2zM-39 604.8a271.4 271.4 0 11-426.3-336.2A271.4 271.4 0 01-39 604.8zM291.1 705.3a271.4 271.4 0 11426.3 336.2 271.4 271.4 0 01-426.3-336.2zM0 39h504.3M0 834.4h504.3M0 397.7h504.3M0 476.3h504.3"/>
    <path d="M465.3 604.8A271.4 271.4 0 1139 268.6a271.4 271.4 0 01426.3 336.2z"/>
    <path d="M969.5 604.8a271.4 271.4 0 11-426.2-336.2 271.4 271.4 0 01426.2 336.2z"/>
  </g>
</svg>
