<svg xmlns="http://www.w3.org/2000/svg" width="677.4" height="391.1" viewBox="0 0 677.4 391.1">
  <style>
		:root {
	    --emerald: #216554;
	    --white: #FFFAF2;
	    --lightBlue: #2295CE;
	    --gold: #CEA600;
    }
    .shape-1{fill:var(--lightBlue)}
    .shape-2{fill:var(--white)}
    .shape-3{fill:var(--emerald)}
    .shape-4{fill:var(--white)}
    .shape-5{fill:var(--emerald)}
    .shape-6{fill:var(--gold)}
    .shape-7{fill:var(--white)}
    .shape-8{fill:var(--white)}
    .shape-9{fill:var(--lightBlue)}
    .shape-10{fill:var(--lightBlue)}
    .shape-11{fill:var(--emerald)}
    .shape-12{fill:var(--white)}
    .guides{ stroke: #4FFF4F; display: none; fill: none}
  </style>
  <g id="pattern" class="line">
    <path class="shape-1" d="M391.4 195.5l-16.7-9.6 9.7-16.7h-19.3v-19.3l-16.8 9.6-9.6-16.7-9.7 16.7-16.7-9.6v19.3H293l9.7 16.7-16.8 9.6 16.8 9.7-9.7 16.7h19.3v19.3l16.7-9.6 9.7 16.7 9.6-16.7 16.8 9.6v-19.3h19.3l-9.7-16.7zM52.7 0L36-9.7l9.7-16.7H26.4v-19.3L9.7-36 0-52.7-9.7-36l-16.7-9.7v19.3h-19.3L-36-9.7-52.7 0-36 9.7l-9.7 16.7h19.3v19.3L-9.7 36 0 52.7 9.7 36l16.7 9.7V26.4h19.3L36 9.7zM52.7 391.1L36 381.4l9.7-16.7H26.4v-19.3l-16.7 9.7L0 338.3l-9.7 16.8-16.7-9.7v19.3h-19.3l9.7 16.7-16.7 9.7 16.7 9.6-9.7 16.7h19.3v19.4l16.7-9.7L0 443.8l9.7-16.7 16.7 9.7v-19.4h19.3L36 400.7zM624.6 0l16.8-9.7-9.7-16.7H651v-19.3l16.7 9.7 9.7-16.7L687-36l16.7-9.7v19.3h19.4l-9.7 16.7L730.1 0l-16.7 9.7 9.7 16.7h-19.4v19.3L687 36l-9.6 16.7-9.7-16.7-16.7 9.7V26.4h-19.3l9.7-16.7zM624.6 391.1l16.8-9.7-9.7-16.7H651v-19.3l16.7 9.7 9.7-16.8 9.6 16.8 16.7-9.7v19.3h19.4l-9.7 16.7 16.7 9.7-16.7 9.6 9.7 16.7h-19.4v19.4l-16.7-9.7-9.6 16.7-9.7-16.7-16.7 9.7v-19.4h-19.3l9.7-16.7z"/>
    <path class="shape-2" d="M391.4 195.5l45.7-26.3h-52.7l-9.7 16.7zM312.3 149.9l-45.7-26.4 26.4 45.7h19.3zM384.4 169.2l26.3-45.7-45.6 26.4v19.3zM293 169.2h-52.7l45.6 26.3 16.8-9.6z"/>
    <path class="shape-2" d="M365.1 149.9V97.1l-26.4 45.7 9.6 16.7zM338.7 142.8l-26.4-45.7v52.8l16.7 9.6zM338.7 248.3l26.4 45.7v-52.8l-16.8-9.6zM312.3 241.2V294l26.4-45.7-9.7-16.7zM285.9 195.5l-45.6 26.4H293l9.7-16.7zM293 221.9l-26.4 45.7 45.7-26.4v-19.3zM365.1 241.2l45.6 26.4-26.3-45.7h-19.3zM374.7 205.2l9.7 16.7h52.7l-45.7-26.4zM0 52.7l26.4 45.7V45.7L9.7 36zM26.4 45.7L72 72 45.7 26.4H26.4zM36 9.7l9.7 16.7h52.7L52.7 0zM52.7 391.1l45.7-26.4H45.7L36 381.4zM45.7 364.7L72 319l-45.6 26.4v19.3zM26.4 345.4v-52.7L0 338.3l9.7 16.8zM677.4 52.7L651 98.4V45.7l16.7-9.7zM651 45.7L605.3 72l26.4-45.6H651zM641.4 9.7l-9.7 16.7H579L624.6 0zM624.6 391.1L579 364.7h52.7l9.7 16.7zM631.7 364.7L605.3 319l45.7 26.4v19.3zM651 345.4v-52.7l26.4 45.6-9.7 16.8z"/>
    <g>
      <path class="shape-3" d="M293 221.9h-52.7l-32.6 18.8 7 26.4 19.3 19.3 32.6-18.8zM285.9 195.5l-45.6-26.3h-37.7l-7.1 26.3 7.1 26.4h37.7zM338.7 142.8l26.4-45.7V59.5l-26.4-7.1-26.4 7.1v37.6zM312.3 149.9V97.1l-18.8-32.6-26.4 7.1-19.3 19.3 18.8 32.6z"/>
      <path class="shape-3" d="M293 169.2l-26.4-45.7-32.6-18.8-19.3 19.3-7 26.3 32.6 18.9zM365.1 241.2V294l18.8 32.6 26.4-7.1 19.3-19.3-18.9-32.6z"/>
      <path class="shape-3" d="M384.4 221.9l26.3 45.7 32.6 18.8 19.4-19.3 7-26.4-32.6-18.8zM312.3 241.2l-45.7 26.4-18.8 32.6 19.3 19.3 26.4 7.1 18.8-32.6zM338.7 248.3L312.3 294v37.6l26.4 7.1 26.4-7.1V294zM384.4 169.2h52.7l32.6-18.9-7-26.3-19.4-19.3-32.6 18.8z"/>
      <path class="shape-3" d="M365.1 149.9l45.6-26.4 18.9-32.6-19.3-19.3-26.4-7.1-18.8 32.6zM391.4 195.5l45.7 26.4h37.7l7-26.4-7-26.3h-37.7zM26.4 45.7v52.7L45.2 131l26.4-7 19.3-19.3L72 72zM45.7 26.4L72 72l32.7 18.9L124 71.6l7-26.4-32.6-18.8zM0 52.7l-26.4 45.7v37.7l26.4 7 26.4-7V98.4z"/>
      <path class="shape-3" d="M52.7 0l45.7 26.4h37.7l7-26.4-7-26.4H98.4zM0 338.3l26.4-45.6V255L0 247.9l-26.4 7.1v37.7zM45.7 364.7h52.7l32.6-18.8-7-26.4-19.3-19.3L72 319zM26.4 345.4L72 319l18.9-32.6-19.3-19.3-26.4-7.1-18.8 32.7zM52.7 391.1l45.7 26.3h37.7l7-26.3-7-26.4H98.4zM651 45.7v52.7L632.2 131l-26.4-7-19.3-19.3L605.3 72zM631.7 26.4L605.3 72l-32.6 18.9-19.3-19.3-7.1-26.4L579 26.4zM677.4 52.7l26.3 45.7v37.7l-26.3 7-26.4-7V98.4zM624.6 0L579 26.4h-37.7L534.2 0l7.1-26.4H579zM677.4 338.3L651 292.7V255l26.4-7.1 26.3 7.1v37.7zM631.7 364.7H579l-32.7-18.8 7.1-26.4 19.3-19.3 32.6 18.8zM651 345.4L605.3 319l-18.8-32.6 19.3-19.3 26.4-7.1 18.8 32.7zM624.6 391.1L579 417.4h-37.7l-7.1-26.3 7.1-26.4H579z"/>
    </g>
    <g>
      <path class="shape-4" d="M481.8 195.5l-7 26.4H437l32.6 18.8-7 26.4 30.2-30.2-11-41.4zm-215.2-72l-18.8-32.6 19.3-19.3-41.3 11-11 41.4 19.2-19.3 32.6 18.8zM312.3 97V59.5l26.4-7.1-41.3-11L267 71.5l26.4-7L312.3 97zm124.8 72h37.7l7 26.4 11.1-41.3-30.2-30.2 7 26.3-32.6 18.9zm-72-72l18.8-32.6 26.4 7L380 41.4l-41.3 11.1 26.4 7v37.7zm45.6 26.4l32.6-18.8 19.4 19.3-11.1-41.4-41.3-11 19.3 19.3-18.9 32.6zm-170.4 98.4h-37.7l-7-26.4-11.1 41.4 30.2 30.2-7-26.4 32.6-18.8zM365 294v37.7l-26.4 7 41.3 11.2 30.3-30.3-26.4 7L365 294zm45.6-26.3l18.9 32.6-19.3 19.3 41.3-11 11-41.4-19.3 19.3-32.6-18.8zm-170.4-98.4l-32.6-18.9 7-26.3-30.2 30.2 11 41.3 7.1-26.3h37.7zm72 124.8l-18.8 32.6-26.4-7 30.3 30.2 41.3-11.1-26.4-7V294zm-45.7-26.4L234 286.4l-19.3-19.3 11 41.3 41.4 11.1-19.3-19.3 18.8-32.6zM143.1 0l-7 26.4H98.4L131 45.2l-7 26.4 30.2-30.3-11-41.3zM26.4 98.4v37.7L0 143l41.3 11.1L71.6 124l-26.4 7-18.8-32.6zM72 72L91 104.7 71.6 124l41.3-11.1 11-41.3-19.2 19.3L72 72zM98.4 364.7h37.7l7 26.4 11.1-41.3-30.2-30.3 7 26.4zM26.4 292.7L45.2 260l26.4 7.1-30.3-30.2-41.3 11 26.4 7.1z"/>
      <path class="shape-4" d="M72 319l32.7-18.8 19.3 19.3-11.1-41.3-41.3-11.1 19.3 19.3zM523.2 41.3l30.2 30.3-7-26.4L579 26.4h-37.7l-7-26.4-11.1 41.3zm109 89.7l-26.4-7 30.3 30.2 41.3-11L651 136V98.4L632.2 131zM572.7 91l-19.3-19.3 11 41.3 41.4 11-19.3-19.2L605.3 72 572.7 91zM546.3 345.9l7.1-26.4-30.2 30.3 11 41.3 7.1-26.4H579zM651 255l26.4-7.1-41.3-11-30.3 30.2 26.4-7.1 18.8 32.7zM586.5 286.4l19.3-19.3-41.3 11.1-11.1 41.3 19.3-19.3 32.6 18.8z"/>
    </g>
    <g>
      <path class="shape-5" d="M190 92.2l5.5 20.7-20.6 5.5 9.6 35.8 30.2-30.2 11.1-41.4zM163.8 77.1l-9.6-35.8L124 71.6l-11.1 41.3 35.8-9.6-5.6-20.7zM-15.1 180.4L0 165.3l15.1 15.1 26.2-26.2L0 143.1l-41.3 11.1zM-15.1 210.7l-26.2 26.2 41.3 11 41.3-11-26.2-26.2L0 225.8zM163.8 314l-20.7-5.6 5.6-20.6-35.8-9.6 11.1 41.3 30.2 30.3zM190 298.8l35.8 9.6-11.1-41.3-30.2-30.2-9.6 35.7 20.6 5.6zM103.3 148.7l9.6-35.8L71.6 124l-30.3 30.2 35.8 9.6 5.5-20.7zM195.5 195.5l-11-41.3-26.2 26.2 15.1 15.1-15.1 15.2 26.2 26.2zM82.6 247.9l-5.5-20.6-35.8 9.6 30.3 30.2 41.3 11.1-9.6-35.8zM353.8 376l-15.1-15.2-15.1 15.2-26.2-26.2 41.3-11.1 41.3 11.1z"/>
      <path class="shape-5" d="M235.4 344.2l-9.6-35.8 41.3 11.1 30.3 30.3-35.8 9.5-5.6-20.6zM143.1 391.1l11.1-41.3 26.2 26.2-15.1 15.1 15.1 15.1-26.2 26.2zM353.8 15.1L380 41.3l-41.3 11.1-41.3-11.1 26.2-26.2 15.1 15.2zM143.1 0l11.1-41.3 26.2 26.2L165.3 0l15.1 15.1-26.2 26.2z"/>
      <path class="shape-5" d="M256 52.4l5.6-20.7 35.8 9.6-30.3 30.3-41.3 11 9.6-35.7zM487.4 92.2l-5.6 20.7 20.7 5.5-9.6 35.8-30.2-30.2-11.1-41.4zM513.6 77.1l9.6-35.8 30.2 30.3 11.1 41.3-35.8-9.6 5.5-20.7zM692.5 180.4l-15.1-15.1-15.1 15.1-26.2-26.2 41.3-11.1 41.3 11.1zM692.5 210.7l26.2 26.2-41.3 11-41.3-11 26.2-26.2 15.1 15.1zM513.6 314l20.6-5.6-5.5-20.6 35.8-9.6-11.1 41.3-30.2 30.3zM487.4 298.8l-35.8 9.6 11.1-41.3 30.2-30.2 9.6 35.7-20.7 5.6zM574.1 148.7l-9.6-35.8 41.3 11.1 30.3 30.2-35.8 9.6-5.6-20.7zM481.8 195.5l11.1-41.3 26.2 26.2-15.1 15.1 15.1 15.2-26.2 26.2zM594.7 247.9l5.6-20.6 35.8 9.6-30.3 30.2-41.3 11.1 9.6-35.8z"/>
      <path class="shape-5" d="M442 344.2l9.6-35.8-41.3 11.1-30.3 30.3 35.8 9.5 5.5-20.6zM534.2 391.1l-11-41.3L497 376l15.1 15.1-15.1 15.1 26.2 26.2zM534.2 0l-11-41.3L497-15.1 512.1 0 497 15.1l26.2 26.2zM421.3 52.4l-5.5-20.7-35.8 9.6 30.3 30.3 41.3 11-9.6-35.7z"/>
    </g>
    <g>
      <path class="shape-6" d="M148.7 103.3l-35.8 9.6-9.6 35.8 20.7 5.5 6.4-23.8 23.8-6.4zM174.9 118.4l-20.7 5.6 6.4 23.8-17.5 17.5 15.2 15.1 26.2-26.2zM15.1 210.7l26.2 26.2 35.8-9.6-5.5-20.7-23.9 6.4-17.5-17.5zM15.1 180.4l15.1 15.1 17.5-17.4 23.9 6.4 5.5-20.7-35.8-9.6zM174.9 272.6l9.6-35.7-26.2-26.2-15.2 15.1 17.5 17.5-6.4 23.8zM148.7 287.8l5.5-20.7-23.8-6.4-6.4-23.8-20.7 5.5 9.6 35.8zM190 298.8l35.8 9.6 9.6 35.8-20.7 5.6-6.4-23.9-23.8-6.4z"/>
      <path class="shape-6" d="M163.8 314l20.7 5.5-6.4 23.9 17.4 17.4-15.1 15.2-26.2-26.2zM323.6 376l-15.2 15.1-17.4-17.5-23.9 6.4-5.5-20.7 35.8-9.5zM323.6 15.1l-26.2 26.2-35.8-9.6 5.5-20.6 23.9 6.4L308.4 0zM163.8 77.1l-9.6-35.8 26.2-26.2 15.1 15.1-17.4 17.5 6.4 23.9zM190 92.2l-5.5-20.6 23.8-6.4 6.4-23.9 20.7 5.6-9.6 35.7zM528.7 103.3l35.8 9.6 9.6 35.8-20.7 5.5-6.4-23.8-23.8-6.4zM502.5 118.4l20.7 5.6-6.4 23.8 17.4 17.5-15.1 15.1-26.2-26.2zM662.3 210.7l-26.2 26.2-35.8-9.6 5.5-20.7 23.9 6.4 17.4-17.5zM662.3 180.4l-15.2 15.1-17.4-17.4-23.9 6.4-5.5-20.7 35.8-9.6zM502.5 272.6l-9.6-35.7 26.2-26.2 15.1 15.1-17.4 17.5 6.4 23.8zM528.7 287.8l-5.5-20.7 23.8-6.4 6.4-23.8 20.7 5.5-9.6 35.8zM487.4 298.8l-35.8 9.6-9.6 35.8 20.7 5.6 6.4-23.9 23.8-6.4zM513.6 314l-20.7 5.5 6.4 23.9-17.5 17.4L497 376l26.2-26.2zM353.8 376l15.1 15.1 17.5-17.5 23.9 6.4 5.5-20.7-35.8-9.5zM353.8 15.1L380 41.3l35.8-9.6-5.5-20.6-23.9 6.4L368.9 0zM513.6 77.1l9.6-35.8L497 15.1l-15.2 15.1 17.5 17.5-6.4 23.9zM487.4 92.2l5.5-20.6-23.8-6.4-6.4-23.9-20.7 5.6 9.6 35.7z"/>
    </g>
    <g>
      <path transform="rotate(-15 182.4 105.3)" class="shape-7" d="M171.7 94.6h21.4V116h-21.4z"/>
      <path transform="rotate(-15 156.3 90.2)" class="shape-7" d="M145.6 79.5H167v21.4h-21.4z"/>
      <path transform="rotate(-135 0 180.4)" class="shape-7" d="M-10.7 169.7h21.4v21.4h-21.4z"/>
      <path transform="rotate(-135 0 210.7)" class="shape-7" d="M-10.7 200h21.4v21.4h-21.4z"/>
      <path transform="scale(-1) rotate(-75 -392.1 203.6)" class="shape-7" d="M145.6 290.2H167v21.4h-21.4z"/>
      <path transform="rotate(105 182.4 285.7)" class="shape-7" d="M171.7 275.1h21.4v21.4h-21.4z"/>
      <path transform="rotate(-45 338.7 376)" class="shape-7" d="M328 365.3h21.4v21.4H328z"/>
      <path transform="rotate(-45 338.7 15.1)" class="shape-7" d="M328 4.4h21.4v21.4H328z"/>
      <path transform="scale(-1) rotate(15 800.1 -3759.7)" class="shape-7" d="M484.2 94.6h21.4V116h-21.4z"/>
      <path transform="scale(-1) rotate(15 685.3 -3958.7)" class="shape-7" d="M510.4 79.5h21.4v21.4h-21.4z"/>
      <path transform="rotate(-45 677.4 180.4)" class="shape-7" d="M666.7 169.7h21.4v21.4h-21.4z"/>
      <path transform="rotate(-45 677.4 210.7)" class="shape-7" d="M666.7 200h21.4v21.4h-21.4z"/>
      <path transform="rotate(75 521.1 300.9)" class="shape-7" d="M510.4 290.2h21.4v21.4h-21.4z"/>
      <path transform="rotate(75 495 285.8)" class="shape-7" d="M484.2 275.1h21.4v21.4h-21.4z"/>
    </g>
    <g>
      <path transform="rotate(15 90.2 156.3)" class="shape-8" d="M79.5 145.6h21.4V167H79.5z"/>
      <path transform="rotate(-45 158.3 195.5)" class="shape-8" d="M147.6 184.8H169v21.4h-21.4z"/>
      <path transform="rotate(75 90.2 234.8)" class="shape-8" d="M79.5 224.1h21.4v21.4H79.5z"/>
      <path transform="rotate(165 248.5 351.8)" class="shape-8" d="M237.8 341.1h21.4v21.4h-21.4z"/>
      <path transform="rotate(-135 180.4 391)" class="shape-8" d="M169.7 380.4h21.4v21.4h-21.4z"/>
      <path transform="rotate(-135 180.4 0)" class="shape-8" d="M169.7-10.7h21.4v21.4h-21.4z"/>
      <path transform="scale(-1) rotate(-75 -51.2 323.8)" class="shape-8" d="M237.8 28.6h21.4V50h-21.4z"/>
      <path transform="scale(-1) rotate(-15 -1186.9 4460.3)" class="shape-8" d="M576.5 145.6h21.4V167h-21.4z"/>
      <path transform="rotate(-135 519.1 195.5)" class="shape-8" d="M508.4 184.8h21.4v21.4h-21.4z"/>
      <path transform="scale(-1) rotate(-75 -306 765.2)" class="shape-8" d="M576.5 224.1h21.4v21.4h-21.4z"/>
      <path transform="rotate(15 428.8 351.7)" class="shape-8" d="M418.2 341.1h21.4v21.4h-21.4z"/>
      <path transform="rotate(-45 497 391)" class="shape-8" d="M486.3 380.4h21.4v21.4h-21.4z"/>
      <path transform="rotate(-45 497 0)" class="shape-8" d="M486.3-10.7h21.4v21.4h-21.4z"/>
      <path transform="rotate(75 429 39.3)" class="shape-8" d="M418.2 28.6h21.4V50h-21.4z"/>
    </g>
    <g>
      <path class="shape-9" d="M103.3 148.7l-5.5 20.6-20.7-5.5-5.5 20.7 41.3 11 11.1-41.3zM158.3 180.4l-15.2-15.1-30.2 30.2 30.2 30.3 15.2-15.1-15.2-15.2zM103.3 242.4l20.7-5.5-11.1-41.4-41.3 11.1 5.5 20.7 20.7-5.6zM235.4 344.2l5.5 20.7 20.7-5.6 5.5 20.7-41.3 11.1-11.1-41.3zM180.4 376l15.1-15.2 30.3 30.3-30.3 30.2-15.1-15.1 15.1-15.1zM180.4-15.1l15.1-15.1L225.8 0l-30.3 30.3-15.1-15.2L195.5 0zM235.4 46.9l-20.7-5.6L225.8 0l41.3 11.1-5.5 20.6-20.7-5.5zM574.1 148.7l5.5 20.6 20.7-5.5 5.5 20.7-41.3 11-11.1-41.3zM519.1 180.4l15.1-15.1 30.3 30.2-30.3 30.3-15.1-15.1 15.1-15.2zM574.1 242.4l-20.7-5.5 11.1-41.4 41.3 11.1-5.5 20.7-20.7-5.6zM442 344.2l-5.5 20.7-20.7-5.6-5.5 20.7 41.3 11.1 11.1-41.3zM497 376l-15.2-15.2-30.2 30.3 30.2 30.2 15.2-15.1-15.2-15.1zM497-15.1l-15.2-15.1L451.6 0l30.2 30.3L497 15.1 481.8 0zM442 46.9l20.7-5.6L451.6 0l-41.3 11.1 5.5 20.6 20.7-5.5z"/>
    </g>
    <g>
      <path transform="rotate(75 177 84.7)" class="shape-10" d="M166.2 74h21.4v21.4h-21.4z"/>
      <path transform="scale(-1) rotate(75 144.5 -210.8)" class="shape-10" d="M151.1 100.2h21.4v21.4h-21.4z"/>
      <path transform="rotate(135 15.1 195.5)" class="shape-10" d="M4.4 184.8h21.4v21.4H4.4z"/>
      <path transform="rotate(-165 177 306.4)" class="shape-10" d="M166.2 295.7h21.4v21.4h-21.4z"/>
      <path transform="rotate(15 161.8 280.2)" class="shape-10" d="M151.1 269.5h21.4v21.4h-21.4z"/>
      <path transform="rotate(-135 353.8 391)" class="shape-10" d="M343.1 380.4h21.4v21.4h-21.4z"/>
      <path transform="rotate(45 323.6 391)" class="shape-10" d="M312.9 380.4h21.4v21.4h-21.4z"/>
      <path transform="rotate(-135 353.8 0)" class="shape-10" d="M343.1-10.7h21.4v21.4h-21.4z"/>
      <path transform="rotate(45 323.6 0)" class="shape-10" d="M312.9-10.7h21.4v21.4h-21.4z"/>
      <path transform="scale(-1) rotate(-75 -110.4 652.2)" class="shape-10" d="M489.8 74h21.4v21.4h-21.4z"/>
      <path transform="rotate(-75 515.6 110.9)" class="shape-10" d="M504.9 100.2h21.4v21.4h-21.4z"/>
      <path transform="rotate(45 662.3 195.5)" class="shape-10" d="M651.6 184.8H673v21.4h-21.4z"/>
      <path transform="rotate(-15 500.4 306.4)" class="shape-10" d="M489.8 295.7h21.4v21.4h-21.4z"/>
      <path transform="rotate(165 515.6 280.2)" class="shape-10" d="M504.9 269.5h21.4v21.4h-21.4z"/>
    </g>
    <g>
      <path class="shape-11" d="M143.1 165.3l17.5-17.5-6.4-23.8-23.8 6.4-6.4 23.8 11 3zM71.6 184.5l-23.9-6.4-17.5 17.4L47.7 213l23.9-6.4-3-11.1zM124 236.9l6.4 23.8 23.8 6.4 6.4-23.8-17.5-17.5-8.1 8.1zM195.5 360.8l-17.4-17.4 6.4-23.9 23.8 6.4 6.4 23.9-11.1 2.9zM267.1 380l23.9-6.4 17.4 17.5-17.4 17.4-23.9-6.4 3-11zM267.1-11.1l23.9-6.4L308.4 0 291 17.5l-23.9-6.4 3-11.1zM214.7 41.3l-6.4 23.9-23.8 6.4-6.4-23.9 17.4-17.5 8.1 8.2zM534.2 165.3l-17.4-17.5 6.4-23.8 23.8 6.4 6.4 23.8-11.1 3zM605.8 184.5l23.9-6.4 17.4 17.4-17.4 17.5-23.9-6.4 3-11.1zM553.4 236.9l-6.4 23.8-23.8 6.4-6.4-23.8 17.4-17.5 8.1 8.1zM481.8 360.8l17.5-17.4-6.4-23.9-23.8 6.4-6.4 23.9 11 2.9zM410.3 380l-23.9-6.4-17.5 17.5 17.5 17.4 23.9-6.4-3-11zM410.3-11.1l-23.9-6.4L368.9 0l17.5 17.5 23.9-6.4-3-11.1zM462.7 41.3l6.4 23.9 23.8 6.4 6.4-23.9-17.5-17.5-8.1 8.2z"/>
    </g>
    <g>
      <path class="shape-12" d="M143.1 165.3l-8.1-8.1-11-3-11.1 41.3zM71.6 184.5l-3 11 3 11.1 41.3-11.1zM124 236.9l11-3 8.1-8.1-30.2-30.3zM195.5 360.8l8.1-8.1 11.1-2.9 11.1 41.3zM267.1 380l3 11.1-3 11-41.3-11zM267.1-11.1l3 11.1-3 11.1L225.8 0zM214.7 41.3l-11-2.9-8.2-8.1L225.8 0zM534.2 165.3l8.1-8.1 11.1-3 11.1 41.3z"/>
      <path class="shape-12" d="M605.8 184.5l3 11-3 11.1-41.3-11.1zM553.4 236.9l-11.1-3-8.1-8.1 30.3-30.3zM481.8 360.8l-8.1-8.1-11-2.9-11.1 41.3z"/>
      <path class="shape-12" d="M410.3 380l-3 11.1 3 11 41.3-11zM410.3-11.1l-3 11.1 3 11.1L451.6 0zM462.7 41.3l11-2.9 8.1-8.1L451.6 0z"/>
    </g>
  </g>
  <g class="guides">
    <circle cx="338.7" cy="195.5" r="195.5"/>
    <path d="M0 0h338.7v391.1H0zM338.7 195.5H0"/>
    <circle cy="391.1" r="195.5"/>
    <circle r="195.5"/>
    <path d="M0 0l338.7 195.5L0 391.1zM0 0l143.5 143.5M0 0l195.5 52.4M0 0l225.8 391.1M0 0l52.4 195.5M0 391.1l143.1-143.2M0 391.1l195.5-52.4M0 391.1L225.8 0M0 391.1l52.4-195.6M338.7 195.5L286.3 0M338.7 195.5L225.8 0M338.7 195.5L195.5 52.4M338.7 195.5l-196.6-52.6M338.7 195.5l-195.6 52.4M338.7 195.5L195.5 338.7M338.7 195.5L226.5 389.8M338.7 195.5l-52.4 195.6M338.7 0h338.7v391.1H338.7zM338.7 195.5h338.7"/>
    <circle cx="677.4" cy="391.1" r="195.5"/>
    <circle cx="677.4" r="195.5"/>
    <path d="M677.4 0L338.7 195.5l338.7 195.6zM677.4 0L534.2 143.1M677.4 0L481.8 52.4M677.4 0L451.6 391.1M677.4 0L625 195.5M677.4 391.1L534.3 248M677.4 391.1l-196.3-52.6M677.4 391.1L451.6 0M677.4 391.1L625 195.5M338.7 195.5L391.1 0M338.7 195.5L451.6 0M338.7 195.5L481.8 52.4M338.7 195.5l195.5-52.4M338.7 195.5l195.5 52.4M338.7 195.5l143.1 143.2M338.7 195.5l112.1 194.3M338.7 195.5l52.4 195.6"/>
  </g>
</svg>
