<svg xmlns="http://www.w3.org/2000/svg" width="680.1" height="392.6" viewBox="0 0 680.1 392.6">
  <style>
		:root {
	    --emerald: #216554;
	    --white: #FFFAF2;
	    --lightBlue: #2295CE;
	    --gold: #CEA600;
    }
    .shape-1{fill:var(--lightBlue)}
    .shape-2{fill:var(--white)}
    .shape-3{fill:var(--emerald)}
    .shape-4{fill:var(--white)}
    .shape-5{fill:var(--emerald)}
    .shape-6{fill:var(--white)}
    .shape-7{fill:var(--emerald)}
    .shape-8{fill:var(--lightBlue)}
    .shape-9{fill:var(--emerald)}
    .shape-10{fill:var(--white)}
    .guides{ stroke: #4FFF4F; display: none; fill: none}
  </style>
  <g id="pattern" class="line">
    <path class="shape-1" d="M380.1 207l10.8 18.7h-21.5V247l-18.6-10.7L340 255l-10.7-18.6-18.6 10.7v-21.4h-21.5L300 207l-18.6-10.8 18.6-10.7-10.8-18.6h21.5v-21.5l18.6 10.7 10.7-18.6 10.8 18.6 18.6-10.7V167h21.5L380 185.6l18.6 10.7-18.6 10.8zM58.7 0L40-10.7l10.7-18.6H29.3v-21.5L10.7-40.1 0-58.7-10.7-40l-18.6-10.7v21.5h-21.5l10.7 18.6L-58.7 0-40 10.7l-10.7 18.6h21.5v21.5l18.6-10.7L0 58.7 10.7 40l18.6 10.7V29.3h21.5L40.1 10.7 58.7 0zm0 392.6L40 382l10.7-18.6H29.3v-21.5l-18.6 10.8L0 334l-10.7 18.6-18.6-10.8v21.5h-21.5l10.7 18.6-18.6 10.7 18.6 10.8-10.7 18.6h21.5v21.5l18.6-10.8L0 451.3l10.7-18.6 18.6 10.8V422h21.5l-10.7-18.6 18.6-10.8zM640 10.7l-10.7 18.6h21.4v21.5l18.6-10.7 10.8 18.6L690.8 40l18.6 10.7V29.3H731l-10.7-18.6L738.8 0l-18.6-10.7 10.7-18.6h-21.5v-21.5l-18.6 10.7-10.7-18.6L669.3-40l-18.6-10.7v21.5h-21.4L640-10.7 621.4 0 640 10.7zm0 392.7L629.3 422h21.4v21.5l18.6-10.8 10.8 18.6 10.7-18.6 18.6 10.8V422H731l-10.7-18.6 18.6-10.8-18.6-10.7 10.7-18.6h-21.5v-21.5l-18.6 10.8-10.7-18.6-10.8 18.6-18.6-10.8v21.5h-21.4L640 382l-18.6 10.7 18.6 10.8z"/>
    <path class="shape-2" d="M380.1 185.6L391 167h58.6l-50.8 29.3-18.6-10.7zm-69.4-40.1l-50.8-29.3 29.3 50.8h21.5v-21.5zm29.3-7.9l-29.3-50.8v58.7l18.6 10.7 10.7-18.6zm51 29.4l29.3-50.8-50.8 29.3V167H391zm-21.5-21.5V86.8L340 137.6l10.8 18.6 18.6-10.7zM289.2 167h-58.7l50.9 29.3 18.6-10.7-10.8-18.6zm21.5 80.1v58.7L340 255l-10.7-18.6-18.6 10.7zm29.3 8l29.4 50.7v-58.7l-18.6-10.7L340 255zm-50.8-29.4L260 276.5l50.8-29.4v-21.4h-21.5zm-7.8-29.4l-50.9 29.4h58.7L300 207l-18.6-10.8zm98.7 10.8l10.8 18.6h58.6l-50.8-29.4-18.6 10.8zm-10.7 40l50.8 29.4-29.3-50.8h-21.5V247zM58.7 0l50.8-29.3H50.8L40.1-10.7 58.7 0zm-88-50.8l-50.9-29.4 29.4 50.9h21.5v-21.5zM0-58.7l-29.3-50.8v58.7l18.6 10.7L0-58.7zm50.8 29.4l29.4-50.9-50.9 29.4v21.5h21.5zM29.3-50.8v-58.7L0-58.7 10.7-40l18.6-10.7zm-80.1 21.5h-58.7L-58.7 0-40-10.7l-10.7-18.6zm21.5 80.1v58.7L0 58.7-10.7 40l-18.6 10.7zM0 58.7l29.3 50.8V50.8L10.7 40.1 0 58.7zm-50.8-29.4l-29.4 50.9 50.9-29.4V29.3h-21.5zM-58.7 0l-50.8 29.3h58.7l10.7-18.6L-58.7 0zm98.8 10.7l10.7 18.6h58.7L58.7 0 40 10.7zM29.3 50.8l50.9 29.4-29.4-50.9H29.3v21.5zm29.4 341.8l50.8-29.3H50.8L40.1 382l18.6 10.7zm-88-50.8l-50.9-29.3 29.4 50.8h21.5v-21.5zM0 334l-29.3-51v58.7l18.6 10.8L0 334zm50.8 29.3l29.4-50.8-50.9 29.3v21.5h21.5zm-21.5-21.5v-58.7L0 334l10.7 18.6 18.6-10.8zm-80.1 21.5h-58.7l50.8 29.3L-40 382l-10.7-18.6zm21.5 80.2v58.7L0 451.3l-10.7-18.6-18.6 10.8zM0 451.3l29.3 50.9v-58.7l-18.6-10.8L0 451.3zM-50.8 422l-29.4 50.8 50.9-29.3V422h-21.5zm-7.9-29.4l-50.8 29.4h58.7l10.7-18.6-18.6-10.8zm98.8 10.8L50.8 422h58.7l-50.8-29.4L40 403.4zm-10.8 40l50.9 29.4L50.8 422H29.3v21.5zM640-10.6l-10.7-18.6h-58.7L621.4 0 640-10.7zm69.4-18.6H731l29.3-50.9-50.8 29.4v21.5zM690.8-40l18.6-10.7v-58.7l-29.3 50.8L690.8-40zm-40 10.8v-21.5l-50.9-29.4 29.4 50.9h21.4zM669.3-40l10.8-18.6-29.4-50.8v58.7L669.3-40zm50.9 29.4L738.8 0l50.8-29.3h-58.7l-10.7 18.6zM690.8 40l-10.7 18.6 29.3 50.8V50.8l-18.6-10.7zm-21.5 0l-18.6 10.7v58.7l29.4-50.8L669.3 40zm40.1-10.8v21.5l50.8 29.4L731 29.3h-21.5zm10.8-18.6l10.7 18.6h58.7L738.8 0l-18.6 10.7zM621.4 0l-50.8 29.3h58.7L640 10.7 621.4 0zm29.3 29.3h-21.4l-29.4 50.9 50.8-29.4V29.3zM640 382l-10.7-18.6h-58.7l50.8 29.3L640 382zm69.4-18.6H731l29.3-50.8-50.8 29.3v21.5zm-18.6-10.7l18.6-10.8v-58.7L680.1 334l10.7 18.6zm-40 10.7v-21.5l-50.9-29.3 29.4 50.8h21.4zm18.5-10.7l10.8-18.6-29.4-50.9v58.7l18.6 10.8zm50.9 29.3l18.6 10.7 50.8-29.3h-58.7L720.2 382zm-29.4 50.8l-10.7 18.6 29.3 50.9v-58.7l-18.6-10.8zm-21.5 0l-18.6 10.8v58.7l29.4-50.9-10.8-18.6zm40.1-10.7v21.5l50.8 29.3L731 422h-21.5zm10.8-18.6l10.7 18.6h58.7l-50.8-29.4-18.6 10.8zm-98.8-10.8L570.6 422h58.7l10.7-18.6-18.6-10.8zm29.3 29.4h-21.4l-29.4 50.8 50.8-29.3V422z"/>
    <path class="shape-3" d="M230.5 225.7h-37.4l-7.9-29.4 7.9-29.3h37.4l50.9 29.3-50.9 29.4zm58.7 0h-58.7l-32.4 18.7 7.9 29.3 21.4 21.5 32.5-18.7 29.3-50.8zm21.5-80.2V86.8L292 54.4l-29.4 7.8-21.5 21.5 18.8 32.5 50.8 29.3zm29.3-7.9l29.4-50.8V49.4l-29.4-8-29.3 8v37.4l29.3 50.8zM289.2 167L260 116.2l-32.5-18.8L206 119l-8 29.4 32.5 18.7h58.7zm80.2 80.1v58.7l18.7 32.5 29.4-7.9 21.4-21.5-18.7-32.4-50.8-29.4zm21.5-21.4l29.3 50.8 32.4 18.7 21.5-21.5 7.9-29.3-32.5-18.7H391zM310.7 247l-50.8 29.4-18.8 32.4 21.5 21.5 29.4 7.9 18.7-32.5V247zm29.3 8l-29.3 50.7v37.5l29.3 7.9 29.4-8v-37.4L340 255zm51-88h58.6l32.5-18.8L474 119l-21.4-21.5-32.5 18.8L391 167zm-21.5-21.5l50.8-29.3L439 83.7l-21.4-21.5-29.4-7.8-18.7 32.4v58.7zm29.3 50.8l50.8 29.4H487l7.9-29.4L487 167h-37.5l-50.8 29.3zM-58.7 0l-50.8-29.3H-147L-154.8 0l7.8 29.3h37.5L-58.7 0zm7.9 29.3h-58.7L-142 48.1l8 29.3 21.4 21.5 32.4-18.7 29.4-50.9zm21.5-80.1v-58.7l-18.8-32.4-29.3 7.8-21.5 21.5 18.7 32.4 50.9 29.4zM0-58.7l29.3-50.8V-147L0-154.8l-29.3 7.8v37.5L0-58.7zm-50.8 29.4l-29.4-50.9-32.4-18.7-21.5 21.5-7.9 29.3 32.5 18.8h58.7zm80.1 80.1v58.7L48.1 142l29.3-8L99 112.7 80.2 80.2 29.3 50.8zm21.5-21.5l29.4 50.9 32.4 18.7 21.5-21.5 7.9-29.3-32.5-18.8H50.8zm-80.1 21.5l-50.9 29.4-18.7 32.4 21.5 21.5 29.3 7.9 18.8-32.5V50.8zM0 58.7l-29.3 50.8V147L0 154.8l29.3-7.8v-37.5L0 58.7zm50.8-88h58.7L142-48.1l-8-29.3L112.7-99 80.2-80.2 50.8-29.3zM29.3-50.8l50.9-29.4 18.7-32.4-21.5-21.5-29.3-7.8-18.8 32.4v58.7zM58.7 0l50.8 29.3H147L154.8 0 147-29.3h-37.5L58.7 0zM-58.7 392.6l-50.8-29.3H-147l-7.8 29.3 7.8 29.4h37.5l50.8-29.4zm7.9 29.4h-58.7l-32.5 18.7 8 29.4 21.4 21.4 32.4-18.7 29.4-50.8zm21.5-80.2v-58.7l-18.8-32.4-29.3 7.9L-99 280l18.7 32.5 50.9 29.3zM0 334l29.3-51v-37.4L0 237.8l-29.3 7.9V283L0 334zm-50.8 29.3l-29.4-50.8-32.4-18.7-21.5 21.4-7.9 29.4 32.5 18.7h58.7zm80.1 80.2v58.7l18.8 32.4 29.3-7.9L99 505.3l-18.7-32.5-50.9-29.3zM50.8 422l29.4 50.8 32.4 18.7 21.5-21.4 7.9-29.4-32.5-18.7H50.8zm-80.1 21.5l-50.9 29.3-18.7 32.5 21.5 21.4 29.3 7.9 18.8-32.4v-58.7zM0 451.3l-29.3 50.9v37.4L0 547.5l29.3-7.9v-37.4L0 451.3zm50.8-88h58.7l32.5-18.7-8-29.4-21.4-21.5-32.4 18.8-29.4 50.8zm-21.5-21.5l50.9-29.3L98.9 280l-21.5-21.4-29.3-7.9-18.8 32.4v58.7zm29.4 50.8l50.8 29.4H147l7.8-29.4-7.8-29.3h-37.5l-50.8 29.3zM789.6 29.3H827L835 0l-8-29.3h-37.4L738.8 0l50.8 29.3zm-29.4 50.9l32.5 18.7 21.5-21.5 7.8-29.3-32.4-18.8h-58.7l29.3 50.9zm0-160.4l18.8-32.4-21.5-21.5-29.3-7.8-18.8 32.4v58.7l50.8-29.4zm-50.8-29.3V-147l-29.3-7.8-29.4 7.8v37.5l29.4 50.8 29.3-50.8zm80.2 80.2L822-48.1l-7.8-29.3L792.7-99l-32.5 18.7-29.2 51h58.7zM599.9 80.2l-18.7 32.4 21.5 21.5L632 142l18.7-32.5V50.8L600 80.2zm-29.3-50.9L538 48.1l7.9 29.3L567.5 99l32.4-18.7 29.4-50.9h-58.7zm138.8 80.2l18.8 32.5 29.3-8 21.5-21.4-18.8-32.4-50.8-29.4v58.7zm-58.7 0V147l29.4 7.8 29.3-7.8v-37.5l-29.3-50.8-29.4 50.8zM600-80.2l-32.4-18.7L546-77.4l-8 29.3 32.5 18.8h58.7l-29.4-50.9zm50.8-29.3L632-142l-29.3 8-21.5 21.4 18.7 32.4 50.8 29.4v-58.7zm-80.1 80.2H533L525.2 0l8 29.3h37.4L621.4 0l-50.8-29.3zm219 451.3H827l7.8-29.4-7.8-29.3h-37.5l-50.8 29.3 50.8 29.4zm-29.4 50.8l32.5 18.7 21.5-21.4 7.8-29.4-32.4-18.7H731l29.3 50.8zm0-160.3L779 280l-21.5-21.4-29.3-7.9-18.8 32.4v58.7l50.8-29.3zM709.4 283v-37.4l-29.3-7.9-29.4 7.9V283l29.4 50.9 29.3-50.9zm80.2 80.2l32.4-18.7-7.8-29.4-21.5-21.4-32.5 18.7-29.3 50.8h58.7zM599.9 472.8l-18.7 32.5 21.5 21.4 29.3 7.9 18.7-32.4v-58.7L600 472.8zM570.6 422L538 440.7l7.9 29.4 21.5 21.4 32.4-18.7 29.4-50.8h-58.7zm138.8 80.2l18.8 32.4 29.3-7.9 21.5-21.4-18.8-32.5-50.8-29.3v58.7zm-58.7 0v37.4l29.4 7.9 29.3-7.9v-37.4l-29.3-50.9-29.4 50.9zM600 312.5l-32.4-18.8-21.5 21.5-7.9 29.4 32.5 18.7h58.7L600 312.5zm50.8-29.4L632 250.7l-29.3 7.9-21.5 21.4 18.7 32.5 50.8 29.3v-58.7zm-80.1 80.2H533l-7.9 29.3 8 29.4h37.4l50.8-29.4-50.8-29.3z"/>
    <path class="shape-4" d="M193 167l-7.8 29.3-12-44.7L206 119l-8 29.4 32.5 18.7h-37.4zm66.9-50.8L241 83.7l21.5-21.5-44.7 12-12 44.7 21.5-21.5 32.5 18.8zm50.8-29.4V49.4l29.3-8-44.7-11.9-32.7 32.7 29.4-7.8 18.7 32.4zm-50.8 189.7l-32.5 18.7-21.4-21.5 12 44.7 44.6 12-21.5-21.5 18.8-32.4zm-29.4-50.8h-37.4l-7.9-29.4-12 44.7 32.8 32.7-8-29.3 32.5-18.7zm189.7 50.8l18.7 32.4-21.4 21.5 44.7-12 12-44.7-21.5 21.5-32.5-18.7zm-109.5 29.3L292 338.3l-29.4-7.9 32.7 32.7 44.7-12-29.3-7.8v-37.5zm58.7 0v37.5l-29.4 7.9 44.7 12 32.8-32.8-29.4 7.9-18.7-32.5zM449.5 167H487l7.9 29.3 12-44.7L474 119l7.9 29.4-32.5 18.7zm-29.3-50.8l32.5-18.8L474 119l-12-44.7-44.6-12 21.4 21.5-18.7 32.5zm-50.8-29.4L388 54.4l29.4 7.8-32.8-32.7-44.7 12 29.4 7.9v37.4zM487 225.7h-37.5l32.5 18.7-7.9 29.3L507 241l-12-44.7-7.9 29.4zm-596.5-255L-142-48.1l8-29.3-32.8 32.7 12 44.7 7.8-29.3h37.5zm29.3-50.9l-18.7-32.4 21.5-21.5-44.7 12-12 44.7 21.5-21.5 32.4 18.7zm50.9-29.3V-147L0-154.8l-44.7-12-32.7 32.7 29.3-7.8 18.8 32.4zM-80.2 80.2l-32.4 18.7-21.5-21.5 12 44.7 44.7 12-21.5-21.5 18.7-32.4zm-29.3-50.9H-147L-154.8 0l-12 44.7 32.7 32.7-7.9-29.3 32.5-18.8zM80.2 80.2l18.7 32.4-21.5 21.5 44.7-12 12-44.7L112.6 99 80.2 80.2zm-109.5 29.3L-48.1 142l-29.3-8 32.7 32.8 44.7-12-29.3-7.8v-37.5zm58.6 0V147L0 154.8l44.7 12 32.7-32.7-29.3 7.9-18.8-32.5zm80.2-138.8H147L154.8 0l12-44.7-32.7-32.7 7.9 29.3-32.5 18.8zM80.2-80.2l32.4-18.7 21.5 21.5-12-44.7-44.7-12L99-112.6 80.2-80.2zm-50.9-29.3L48.1-142l29.3 8-32.7-32.8-44.7 12 29.3 7.8v37.5zM147 29.3h-37.5L142 48.1l-8 29.3 32.8-32.7-12-44.7-7.8 29.3zm-256.5 334l-32.5-18.7 8-29.4-32.8 32.8 12 44.6 7.8-29.3h37.5zm29.3-50.8L-98.9 280l21.5-21.4-44.7 12-12 44.6 21.5-21.4 32.4 18.7zm50.9-29.4v-37.4L0 237.8l-44.7-12-32.7 32.8 29.3-8 18.8 32.5zm-50.9 189.7l-32.4 18.7-21.5-21.4 12 44.7 44.7 12-21.5-21.5 18.7-32.5zm-29.3-50.8H-147l-7.8-29.4-12 44.7 32.7 32.8-7.9-29.4 32.5-18.7zm189.7 50.8l18.7 32.5-21.5 21.4 44.7-12 12-44.6-21.5 21.4-32.4-18.7zm-109.5 29.4l-18.8 32.4-29.3-7.9 32.7 32.8 44.7-12-29.3-7.9v-37.4zm58.6 0v37.4L0 547.5l44.7 12 32.7-32.8-29.3 7.9-18.8-32.4zm80.2-138.9H147l7.8 29.3 12-44.7-32.7-32.7 7.9 29.4-32.5 18.7zm-29.3-50.8l32.4-18.7 21.5 21.4-12-44.7-44.7-12L99 280l-18.7 32.5zM29.3 283l18.8-32.4 29.3 7.9-32.7-32.8-44.7 12 29.3 7.9V283zM147 422h-37.5l32.5 18.7-8 29.4 32.8-32.8-12-44.7L147 422zM827-29.3L835 0l11.9-44.7-32.7-32.7 7.8 29.3-32.4 18.8H827zM792.8-99l21.5 21.5-12-44.7-44.7-12 21.5 21.5-18.8 32.4L792.8-99zm-64.5-43l29.3 7.8-32.7-32.7-44.7 12 29.3 7.8v37.5l18.8-32.4zM779 112.6l-21.5 21.5 44.7-12 12-44.7L792.7 99l-32.5-18.7 18.8 32.4zm43-64.5l-7.8 29.3 32.7-32.7-12-44.7-7.8 29.3h-37.5L822 48.1zM567.5 98.9L546 77.4l12 44.7 44.7 12-21.5-21.5 18.7-32.4-32.4 18.7zm142 48l-29.4 8 44.7 12 32.7-32.8-29.3 7.9-18.8-32.5V147zm-77.5-5l-29.3-7.8 32.7 32.7 44.7-12-29.4-7.8v-37.5L632 142zM538.1-48l7.9-29.3-32.7 32.7 12 44.7 7.8-29.3h37.5L538-48.1zm43-64.5l21.6-21.5-44.7 12-12 44.7L567.5-99l32.4 18.7-18.7-32.4zm69.6-34.4l29.4-7.8-44.7-12-32.7 32.7 29.3-7.8 18.7 32.4V-147zM525.2 0l-12 44.7L546 77.4l-8-29.3 32.5-18.8H533L525.2 0zm301.9 363.3l7.8 29.3 12-44.6-32.7-32.8 7.8 29.4-32.4 18.7H827zm-34.4-69.5l21.5 21.4-12-44.7-44.7-12L779 280l-18.8 32.5 32.5-18.7zm-64.5-43.1l29.3 7.9-32.7-32.8-44.7 12 29.3 7.9V283l18.8-32.4zM779 505.3l-21.5 21.4 44.7-12 12-44.6-21.5 21.4-32.5-18.7 18.8 32.5zm43-64.6l-7.8 29.4 32.7-32.8-12-44.7-7.8 29.4h-37.5l32.4 18.7zm-254.5 50.8L546 470.1l12 44.7 44.7 12-21.5-21.5 18.7-32.5-32.4 18.7zm142 48.1l-29.4 7.9 44.7 12 32.7-32.8-29.3 7.9-18.8-32.4v37.4zm-77.5-5l-29.3-7.9 32.7 32.8 44.7-12-29.4-7.9v-37.4L632 534.6zm-93.9-190l7.9-29.4-32.7 32.7 12 44.7 7.8-29.3h37.5L538 344.6zm43-64.6l21.6-21.4-44.7 12-12 44.6 21.5-21.5 32.4 18.8-18.7-32.5zm69.6-34.3l29.4-7.9-44.7-12-32.7 32.8 29.3-7.9 18.7 32.4v-37.4zm-125.5 147l-12 44.6 32.8 32.8-7.9-29.4 32.5-18.7H533l-7.9-29.4z"/>
    <path class="shape-5" d="M218 74.2L206 119l-32.8 32.7-10.8-40.3 20.8-5.5-5.6-20.8L218 74.2zM177.5 85l-10.8-40.3L134 77.4l-12 44.7 40.3-10.8-5.5-20.7 20.7-5.6zM355.2 0L340 15.2 325 0l-29.6 29.5 44.7 12 44.7-12L355.2 0zm29.5 363.1l-44.7-12-44.7 12 29.6 29.5 15.1-15.1 15.2 15.1 29.5-29.5zM15.2 196.3l29.5-29.5-44.7-12-44.7 12 29.5 29.5L0 181.1l15.2 15.2zM0 211.5l-15.2-15.2-29.5 29.5 44.7 12 44.7-12-29.5-29.5L0 211.5zm177.6 96.1l40.3 10.8-12-44.7-32.7-32.7-10.8 40.3 20.8 5.6-5.6 20.7zm-20.7-5.5l5.5-20.8-40.3-10.8 12 44.7 32.7 32.7 10.8-40.3-20.7-5.5zM462.2 74.2l12 44.7 32.7 32.7 10.8-40.3-20.8-5.5 5.6-20.8-40.3-10.8zm61 16.4l-5.5 20.7 40.3 10.8-12-44.7-32.7-32.7L502.5 85l20.7 5.6zM680.1 181l15.2 15.2 29.5-29.5-44.7-12-44.7 12 29.5 29.5 15.2-15.2zm-15.2 15.2l-29.5 29.5 44.7 12 44.7-12-29.5-29.5-15.2 15.2-15.2-15.2zm-168 90.6l20.8-5.6-10.8-40.3-32.8 32.7-12 44.7 40.4-10.8-5.6-20.7zm5.6 20.7l10.8 40.3 32.7-32.7 12-44.7-40.3 10.8 5.5 20.8-20.7 5.5z"/>
    <path class="shape-6" d="M183.2 105.8l-20.8 5.5-5.5-20.7 20.7-5.6 5.6 20.8zM355.2 0L340-15.2 325 0l15 15.2L355.2 0zM340 377.5l-15 15.1 15.1 15.2 15.2-15.2-15.2-15.1zM15.2 196.3L0 181.1l-15.2 15.2L0 211.5l15.2-15.2zm162.4 111.3l5.6-20.7-20.8-5.6-5.5 20.8 20.7 5.5zM497 105.8l20.8 5.5 5.5-20.7-20.7-5.6-5.6 20.8zm183.2 105.7l15.2-15.2-15.2-15.2-15.2 15.2 15.2 15.2zm-156.9 90.6l-5.5-20.8-20.8 5.6 5.6 20.7 20.7-5.5z"/>
    <path class="shape-7" d="M0-154.8l-44.7-12L0-211.5l44.7 44.7-44.7 12zM-166.8-44.7L-211.5 0l44.7 44.7 12-44.7-12-44.7zm289-77.4l-16.4-61-61.1 16.3 32.7 32.7 44.7 12zM-122.2 122l16.3 61 61.1-16.3-32.7-32.7-44.7-12zm0-244.2l-61 16.3 16.3 61.1 32.7-32.7 12-44.7zm77.4-44.7l-61-16.4-16.4 61 44.7-11.9 32.7-32.7zM166.8-44.7l16.4-61-61-16.4L134-77.4l32.7 32.7zm-333.6 89.4l-16.4 61 61 16.4-11.9-44.7-32.7-32.7zm0 303.3l-44.7 44.6 44.7 44.7 12-44.7-12-44.7zm122.1 211.5L0 604.2l44.7-44.7-44.7-12-44.7 12zm-77.4-44.7l16.3 61 61.1-16.3-32.7-32.8-44.7-12zm289-77.5L134 470.1l-12 44.7 61-16.4-16.3-61zm-289-166.8l-61 16.4 16.3 61 32.7-32.7 12-44.7zm77.4-44.7l-61-16.3-16.4 61 44.7-12 32.7-32.7zm89.4 333.7l61 16.3 16.4-61-44.7 12-32.7 32.7zm-211.5-122.2l-16.4 61.1 61 16.4L-134 470l-32.7-32.8zm352-241l-12-44.7-29.5 29.5 15.2 15.2-15.2 15.2 29.5 29.5 12-44.7zm-73.9-33.9l10.8-40.3-44.7 12-32.7 32.7L85 177.6l5.6-20.7 20.7 5.5zM85 215l-40.3 10.8 32.7 32.8 44.7 12-10.8-40.4-20.7 5.6L85 215zm81.8-170.3l29.5-29.5L181.1 0l15.2-15.2-29.5-29.5-12 44.7 12 44.7zm82.7-84.2l5.5 20.8 40.3-10.8-32.7-32.7-44.7-12L228.7-34l20.8-5.6zm0 79l-20.8-5.6L218 74.2l44.7-12 32.7-32.7L255 18.7l-5.5 20.8zm-82.7 397.8l29.5-29.5-15.2-15.2 15.2-15.1-29.5-29.6-12 44.7 12 44.7zm82.7-84.1l5.5 20.7 40.3-10.8-32.7-32.7-44.7-12 10.8 40.4 20.8-5.6zm0 78.9l-20.8-5.6L218 467l44.7-12 32.7-32.7-40.3-10.8-5.5 20.7zm430.6-587l44.7-12-44.7-44.6-44.7 44.7 44.7 12zM834.9 0l12 44.7L891.6 0l-44.7-44.7-12 44.7zM602.7-134l32.7-32.8-61-16.4-16.4 61 44.7-11.9zm154.8 268l-32.7 32.8 61 16.4 16.4-61-44.7 11.9zm56.7-211.4l32.7 32.7 16.3-61-61-16.4 12 44.7zm-56.7-56.7l44.7 12-16.4-61-61 16.3 32.7 32.7zM546-77.4l12-44.7-61 16.3 16.3 61.1L546-77.4zM814.2 77.4l-12 44.7 61-16.3L847 44.7l-32.7 32.7zm20.7 315.2l12 44.7 44.7-44.7-44.7-44.6-12 44.6zM680.1 547.5l-44.7 12 44.7 44.7 44.7-44.7-44.7-12zm77.4-20.8l-32.7 32.8 61 16.3 16.4-61-44.7 12zm-260.6-28.3l61 16.4-12-44.7-32.6-32.8-16.4 61.1zm317.3-183.2l32.7 32.8 16.3-61.1-61-16.4 12 44.7zm-56.7-56.6l44.7 12-16.4-61.1-61 16.3 32.7 32.8zM602.7 526.7l-44.7-12 16.3 61.1 61-16.3-32.6-32.8zm211.5-56.6l-12 44.7 61-16.4-16.3-61-32.7 32.7zM506.9 241l29.5-29.6-15.2-15.2 15.2-15.2-29.5-29.5-12 44.7 12 44.7zm82.6-84.2l5.6 20.7 40.3-10.8-32.7-32.7-44.7-12 10.8 40.3 20.7-5.5zm0 78.9l-20.7-5.6-10.8 40.3 44.7-12 32.7-32.7L595 215l-5.6 20.8zM525.2 0l-12-44.7-29.4 29.5L498.9 0l-15.1 15.2 29.5 29.5 12-44.7zm-73.8-33.9l10.8-40.3-44.7 12-32.8 32.7L425-18.7l5.6-20.8 20.8 5.6zM425 18.7l-40.4 10.8 32.8 32.7 44.7 12L451.4 34l-20.8 5.6-5.5-20.8zm100.1 374l-12-44.8-29.4 29.6 15.1 15.1-15.1 15.2 29.5 29.5 12-44.7zm-73.8-34l10.8-40.3-44.7 12-32.8 32.7 40.4 10.8 5.5-20.7 20.8 5.6zM425 411.5l-40.4 10.8 32.8 32.7 44.7 12-10.8-40.4-20.8 5.6-5.5-20.7z"/>
    <path class="shape-8" d="M173.2 151.6l-29.5 29.5-13.7-13.7-18.7-5 10.8-40.3 40.3-10.8 10.8 40.3zM44.7 166.8l-29.5 29.5 29.5 29.5L85 215l-5-18.7 5-18.7-40.3-10.8zm99 44.7L130 225.2l-18.7 5 10.8 40.3 40.3 10.8 10.8-40.3-29.5-29.5zm23.1-256.2l29.5 29.5L210-28.9l18.7-5L218-74.2 177.6-85l-10.8 40.3zm88.2 26L260 0l-5 18.7 40.3 10.8L325 0l-29.6-29.5L255-18.7zm-88.2 63.4L177.6 85 218 74.2 228.7 34 210 29l-13.7-13.7-29.5 29.5zm0 303.2l29.5 29.6 13.7-13.7 18.7-5-10.8-40.4-40.3-10.8-10.8 40.3zm88.2 26l5 18.7-5 18.8 40.3 10.8 29.6-29.6-29.6-29.5L255 374zm-88.2 63.4l10.8 40.4 40.3-10.8 10.8-40.4-18.7-5-13.7-13.7-29.5 29.5zm340-285.7l29.6 29.5 13.7-13.7 18.7-5-10.8-40.3-40.3-10.8-10.9 40.3zm88.3 26l5 18.7-5 18.7 40.3 10.8 29.5-29.5-29.5-29.5-40.3 10.8zM506.9 241l10.8 40.3 40.3-10.8 10.8-40.3-18.7-5-13.7-13.7-29.5 29.5zm-4.4-326l-40.3 10.8L451.4-34l18.7 5 13.7 13.7 29.5-29.5L502.5-85zM384.7-29.5L355.2 0l29.5 29.5 40.4-10.8L420 0l5-18.7-40.4-10.8zm99 44.7l-13.6 13.7-18.7 5 10.8 40.3L502.5 85l10.8-40.3-29.5-29.5zm18.8 292.4l-40.3 10.8-10.8 40.4 18.7 5 13.7 13.7 29.5-29.6-10.8-40.3zm-117.8 55.5l-29.5 29.5 29.5 29.6 40.4-10.8-5-18.8 5-18.7-40.4-10.8zm99 44.7l-13.6 13.7-18.7 5 10.8 40.4 40.3 10.8 10.8-40.4-29.5-29.5z"/>
    <path class="shape-9" d="M128.5 196.3l15.2 15.2-13.7 13.7-18.7 5-5.5-20.7L85 215l-5-18.7 5-18.7 20.8 5.6 5.5-20.8 18.7 5 13.7 13.7-15.2 15.2zM211.5 0l-15.2 15.2L210 28.9l18.7 5 5.6-20.7 20.7 5.5L260 0l-5-18.7-20.7 5.5-5.6-20.7-18.7 5-13.7 13.7L211.5 0zm0 392.6l-15.2 15.2 13.7 13.7 18.7 5 5.6-20.7 20.7 5.6 5-18.8-5-18.7-20.7 5.6-5.6-20.7-18.7 5-13.7 13.7 15.2 15.1zm340-196.3l-15.1 15.2 13.7 13.7 18.7 5 5.5-20.7 20.8 5.5 5-18.7-5-18.7-20.8 5.6-5.5-20.8-18.7 5-13.7 13.7 15.1 15.2zM483.8-15.2L470-28.9l-18.7-5-5.6 20.7-20.8-5.5L420 0l5 18.7 20.8-5.5 5.6 20.7 18.7-5 13.7-13.7L468.6 0l15.2-15.2zm0 392.7L470 363.8l-18.7-5-5.6 20.7-20.8-5.6-5 18.7 5 18.8 20.8-5.6 5.6 20.7 18.7-5 13.7-13.7-15.2-15.2 15.2-15.1z"/>
    <path class="shape-10" d="M158.9 196.3l-15.2 15.2-15.2-15.2 15.2-15.2 15.2 15.2zm-47.6-33.9L90.6 157 85 177.6l20.8 5.6 5.5-20.8zM85 215l5.6 20.8 20.7-5.6-5.5-20.7L85 215zM181.1 0l15.2 15.2L211.5 0l-15.2-15.2L181.1 0zm53.2-13.2l20.7-5.5-5.5-20.8-20.8 5.6 5.6 20.7zm0 26.4l-5.6 20.7 20.8 5.6 5.5-20.8-20.7-5.5zM181 392.6l15.2 15.2 15.2-15.2-15.2-15.1-15.2 15.1zm53.2-13.1l20.7-5.6-5.5-20.7-20.8 5.6 5.6 20.7zm0 26.3l-5.6 20.7 20.8 5.6 5.5-20.7-20.7-5.6zm286.9-209.5l15.2 15.2 15.1-15.2-15.1-15.2-15.2 15.2zm53.1-13.1l20.8-5.6-5.6-20.7-20.7 5.5 5.5 20.8zm0 26.3l-5.5 20.7 20.7 5.6L595 215l-20.8-5.5zM483.8-15.2L468.6 0l15.2 15.2L498.9 0l-15.1-15.2zm-32.4-18.7l-20.8-5.6-5.6 20.8 20.8 5.5 5.6-20.7zM425 18.7l5.5 20.8 20.8-5.6-5.6-20.7-20.7 5.5zm58.7 358.8l-15.2 15.1 15.2 15.2 15.1-15.2-15.1-15.1zm-32.4-18.7l-20.8-5.6-5.6 20.7 20.8 5.6 5.6-20.7zM425 411.4l5.5 20.7 20.8-5.6-5.6-20.7-20.7 5.6z"/>
  </g>
  <g class="guides">
    <circle cx="340" cy="196.3" r="113.3"/>
    <circle cx="340" cy="196.3" r="211.5"/>
    <circle cx="680.1" cy="392.6" r="113.3"/>
    <circle cx="680.1" cy="392.6" r="211.5"/>
    <circle cx="680.1" r="113.3"/>
    <circle cx="680.1" r="211.5"/>
    <circle cy="392.6" r="113.3"/>
    <circle cy="392.6" r="211.5"/>
    <circle r="113.3"/>
    <circle r="211.5"/>
    <path d="M-105.7 575.9l-77.4-289 288.9-77.4 77.4 289zM-105.8 183.2l-77.4-288.9 289-77.4L183 106zM-113.3 0h-98.2M-113.3 392.6h-98.2"/>
    <path d="M-183.2 105.8l77.4-289L183-105.6l-77.4 288.9zM0-211.5v423m44.7-378.3l-89.4 333.6m151.6-352l-213.8 370.4m229-307.3l-244.2 244.2m307.3-229l-370.4 213.8m352-151.6l-333.6 89.4M213.9 0h-427.7m380.6 44.7l-333.6-89.4m352 151.6l-370.4-213.8m307.3 229l-244.2-244.2m348.8 514.7l-333.6-577.8m151.6 352l-89.4-333.6M-183.2 498.4l77.4-288.9 289 77.4-77.5 289zM0 181.1v423.1"/>
    <path d="M0 0h340v392.6H0zm680.1 0L340 196.3l340.1 196.3z"/>
    <path d="M0 0l340 196.3L0 392.6z"/>
    <path d="M0 211.6L-211.5 0 0-211.4 211.5 0z"/>
    <path d="M0 604.2l-211.5-211.5L0 181.2l211.5 211.5zM156.9 302l77.4-288.8 289 77.4-77.5 288.9zM340-15.2v423m44.7-378.3l-89.4 333.7m150.5-350L226.7 392.6M462.2 74.2L217.9 318.5M525.2 89.4L154.8 303.3m352.1-151.7L173.2 241m378.3-44.7h-423M506.9 241l-333.7-89.4m352 151.7L154.8 89.4m307.4 229.1L217.9 74.2m227.9 305.3L226.7 0m158 363.2L295.3 29.5M340 15.2L128.5-196.3 340-407.8l211.5 211.5zm0 785.3L128.5 589 340 377.5 551.5 589z"/>
    <path d="M234.3 379.5L157 90.5l289-77.3L523.1 302z"/>
    <path d="M340 407.8L128.7 196.3 340-15.2l211.4 211.5z"/>
    <path d="M340.1 0h340v392.6h-340zM44.7 225.8l-89.4 333.7M226.7 0l-333.6 577.8m229-307.3l-244.2 244.3m307.3-229.1l-370.4 213.9m352-151.7l-333.6 89.4m380.7-44.7h-427.7m380.6 44.7l-333.6-89.4m352 151.7l-370.4-213.9m307.3 229.1l-244.2-244.3m229 307.3l-213.8-370.4M44.7 559.5l-89.4-333.7"/>
    <path d="M468.5 0L680-211.5 891.5 0 680 211.5z"/>
    <path d="M468.6 392.7L680 181.2l211.4 211.5L680 604.2zM496.9 105.8l77.4-289 288.9 77.5-77.4 288.9z"/>
    <path d="M496.9 498.4l77.4-288.9 289 77.4-77.5 289zM574.3 183.2l-77.4-288.9L785.8-183l77.4 289zm105.8-394.7v423"/>
    <path d="M574.3 575.9l-77.4-289 289-77.4 77.3 289zm105.8-394.8v423.1M635.4 225.8l89.4 333.7M453.4 0L787 577.8M558 270.5l244.2 244.3M494.9 285.7l370.4 213.9m-352-151.7l333.6 89.4m-380.7-44.7h427.7m-380.6 44.7l333.6-89.4m-352 151.7l370.4-213.9M558 514.8l244.2-244.3m-229 307.3L787 207.4M635.4 559.5l89.4-333.7M635.4-166.8l89.4 333.6m-151.6-352L787 185.2M558-122.1l244.2 244.2m-307.3-229l370.4 213.8m-352-151.6l333.6 89.4M466.2 0h427.7M513.3 44.7l333.6-89.4m-352 151.6l370.4-213.8M558 122.1l244.2-244.2M453.4 392.6L787-185.2m-151.6 352l89.4-333.6M793.4 0h98.2M793.4 392.6h98.2"/>
  </g>
</svg>
