<svg xmlns="http://www.w3.org/2000/svg" width="510" height="510" viewBox="0 0 510 510">
  <style>
    :root {
      --emerald: #216554;
      --white: #FFFAF2;
      --lightBlue: #2295CE;
      --gold: #CEA600;
    }
    .shape-1{fill:var(--lightBlue)}
    .shape-2{fill:var(--white)}
    .shape-3{fill:var(--emerald)}
    .shape-4{fill:var(--white)}
    .shape-5{fill:var(--emerald)}
    .shape-6{fill:var(--lightBlue)}
    .shape-7{fill:var(--emerald)}
    .shape-8{fill:var(--lightBlue)}
    .shape-9{fill:var(--gold)}
    .shape-10{fill:var(--white)}
    .shape-11{fill:var(--gold)}
    .shape-12{fill:var(--lightBlue)}
    .guides{ stroke: #4FFF4F; display: none; fill: none}
  </style>
  <g id="pattern" class="line">
    <path class="shape-1" d="M292.5 255l13.8 13.7-18.8 5 5 18.8-18.7-5-5 18.8-13.8-13.8-13.7 13.8-5-18.8-18.8 5 5-18.7-18.8-5 13.8-13.8-13.8-13.7 18.8-5-5-18.8 18.7 5 5-18.8 13.8 13.8 13.7-13.8 5 18.8 18.8-5-5 18.7 18.8 5-13.8 13.8zM37.5 0l13.8 13.7-18.8 5 5 18.8-18.7-5-5 18.8L0 37.5l-13.7 13.8-5-18.8-18.8 5 5-18.7-18.8-5L-37.5 0l-13.8-13.7 18.8-5-5-18.8 18.7 5 5-18.8L0-37.5l13.7-13.8 5 18.8 18.8-5-5 18.7 18.8 5L37.5 0zm0 510l13.8 13.7-18.8 5 5 18.8-18.7-5-5 18.8L0 547.5l-13.7 13.8-5-18.8-18.8 5 5-18.7-18.8-5 13.8-13.8-13.8-13.7 18.8-5-5-18.8 18.7 5 5-18.8L0 472.5l13.7-13.8 5 18.8 18.8-5-5 18.7 18.8 5L37.5 510zm510 0l13.8 13.7-18.8 5 5 18.8-18.7-5-5 18.8-13.8-13.8-13.7 13.8-5-18.8-18.8 5 5-18.7-18.8-5 13.8-13.8-13.8-13.7 18.8-5-5-18.8 18.7 5 5-18.8 13.8 13.8 13.7-13.8 5 18.8 18.8-5-5 18.7 18.8 5-13.8 13.8zm0-510l13.8 13.7-18.8 5 5 18.8-18.7-5-5 18.8L510 37.5l-13.7 13.8-5-18.8-18.8 5 5-18.7-18.8-5L472.5 0l-13.8-13.7 18.8-5-5-18.8 18.7 5 5-18.8L510-37.5l13.7-13.8 5 18.8 18.8-5-5 18.7 18.8 5L547.5 0z"/>
    <path class="shape-2" d="M287.5 236.2l5-18.7 51.3-13.8-37.5 37.6-18.8-5zm-70-18.7l-51.3-13.8 37.5 37.6 18.8-5-5-18.8zm23.8-13.8l-37.6-37.5 13.8 51.3 18.7 5 5-18.8zm51.2 13.8l13.8-51.3-37.6 37.5 5 18.8 18.8-5zm-23.8-13.8L255 152.5l-13.7 51.2 13.7 13.8 13.7-13.8zm-65 37.6L152.5 255l51.2 13.7 13.8-13.7-13.8-13.7zm37.6 65l13.7 51.2 13.7-51.2-13.7-13.8-13.7 13.8zm27.4 0l37.6 37.5-13.8-51.3-18.7-5-5 18.8zm-51.2-13.8l-13.8 51.3 37.6-37.5-5-18.8-18.8 5zm-13.8-23.8l-37.5 37.6 51.3-13.8 5-18.7-18.8-5zm88.8-13.7l13.8 13.7 51.2-13.7-51.2-13.7-13.8 13.7zm0 37.5l51.3 13.8-37.5-37.6-18.8 5 5 18.8zM-13.7 51.3L0 102.5l13.7-51.2L0 37.5l-13.7 13.8zm27.4 0l37.6 37.5-13.8-51.3-18.7-5-5 18.8zM37.5 0l13.8 13.7L102.5 0 51.3-13.7 37.5 0zm0 37.5l51.3 13.8-37.5-37.6-18.8 5 5 18.8zm-5 453.7l5-18.7 51.3-13.8-37.5 37.6-18.8-5zm5-18.7l13.8-51.3-37.6 37.5 5 18.8 18.8-5zm-23.8-13.8L0 407.5l-13.7 51.2L0 472.5l13.7-13.8zM37.5 510l13.8 13.7 51.2-13.7-51.2-13.7L37.5 510zm435-37.5l-51.3-13.8 37.5 37.6 18.8-5-5-18.8zm23.8-13.8l-37.6-37.5 13.8 51.3 18.7 5 5-18.8zm27.4 0L510 407.5l-13.7 51.2 13.7 13.8 13.7-13.8zm-65 37.6L407.5 510l51.2 13.7 13.8-13.7-13.8-13.7zm0-510L407.5 0l51.2 13.7L472.5 0l-13.8-13.7zm37.6 65l13.7 51.2 13.7-51.2L510 37.5l-13.7 13.8zm-23.8-13.8l-13.8 51.3 37.6-37.5-5-18.8-18.8 5zm-13.8-23.8l-37.5 37.6 51.3-13.8 5-18.7-18.8-5z"/>
    <path class="shape-3" d="M166.2 306.3l-32.7 8.7-13.7-23.8v-27.4l32.7-8.8 51.2 13.7-37.5 37.6zm51.3-13.8l-51.3 13.8-24 24L156 354l23.8 13.7 24-24 13.7-51.2zm0-75l-13.8-51.3-24-24L156 156l-13.7 23.8 24 24 51.2 13.7zm23.8-13.8l13.7-51.2-8.8-32.7h-27.4L195 133.5l8.7 32.7 37.6 37.5zm-37.6 37.6l-37.5-37.6-32.7-8.7-13.7 23.8v27.4l32.7 8.8 51.2-13.7zm88.8 51.2l13.8 51.3 24 24L354 354l13.7-23.8-24-24-51.2-13.7zm13.8-23.8l37.5 37.6 32.7 8.7 13.7-23.8v-27.4l-32.7-8.8-51.2 13.7zm-65 37.6l-37.6 37.5-8.7 32.7 23.8 13.7h27.4l8.8-32.7-13.7-51.2zm27.4 0L255 357.5l8.8 32.7h27.4l23.8-13.7-8.7-32.7-37.6-37.5zm23.8-88.8l51.3-13.8 24-24L354 156l-23.8-13.7-24 24-13.7 51.2zm-23.8-13.8l37.6-37.5 8.7-32.7-23.8-13.7h-27.4l-8.8 32.7 13.7 51.2zm37.6 37.6l51.2 13.7 32.7-8.8v-27.4L376.5 195l-32.7 8.7-37.5 37.6zM37.5 37.5l13.8 51.3 24 24L99 99l13.7-23.8-24-24-51.2-13.7zm13.8-23.8l37.5 37.6 32.7 8.7 13.7-23.8V8.8L102.5 0 51.3 13.7zM13.7 51.3L0 102.5l8.8 32.7h27.4L60 121.5l-8.7-32.7-37.6-37.5zm23.8 421.2l51.3-13.8 24-24L99 411l-23.8-13.7-24 24-13.7 51.2zm-23.8-13.8l37.6-37.5 8.7-32.7-23.8-13.7H8.8L0 407.5l13.7 51.2zm37.6 37.6l51.2 13.7 32.7-8.8v-27.4L121.5 450l-32.7 8.7-37.5 37.6zm421.2-23.8l-13.8-51.3-24-24L411 411l-13.7 23.8 24 24 51.2 13.7zm23.8-13.8l13.7-51.2-8.8-32.7h-27.4L450 388.5l8.7 32.7 37.6 37.5zm-37.6 37.6l-37.5-37.6-32.7-8.7-13.7 23.8v27.4l32.7 8.8 51.2-13.7zm-37.5-445L388.5 60l-13.7-23.8V8.8L407.5 0l51.2 13.7-37.5 37.6zm51.3-13.8l-51.3 13.8-24 24L411 99l23.8 13.7 24-24 13.7-51.2zm23.8 13.8l-37.6 37.5-8.7 32.7 23.8 13.7h27.4l8.8-32.7-13.7-51.2z"/>
    <path class="shape-4" d="M119.8 263.8v27.4l-21-36.2 21-36.2v27.4l32.7 8.8-32.7 8.8zm46.4-60l-24-24L156 156l-36.2 21v41.8l13.7-23.8 32.7 8.7zm37.5-37.6l-8.7-32.7 23.8-13.7h-41.9L156 156l23.9-13.7 24 24zm0 177.6l-24 24L156 354l21 36.2h41.8L195 376.5l8.7-32.7zm-37.5-37.5l-32.7 8.7-13.7-23.8v41.9l36.2 21-13.7-23.9 24-24zm177.6 0l24 24L354 354l36.2-21v-41.8L376.6 315l-32.7-8.7zM255 357.5l-8.8 32.7h-27.4l36.2 21 36.2-21h-27.4l-8.8-32.7zm51.3-13.7l8.7 32.7-23.8 13.7h41.9l21-36.2-23.9 13.7-24-24zm37.5-140l32.7-8.8 13.7 23.8v-41.9L354 156l13.7 23.9-24 24zm-37.5-37.6l24-24L354 156l-21-36.2h-41.8l23.8 13.7-8.7 32.7zM255 152.5l8.8-32.7h27.4l-36.2-21-36.2 21h27.4l8.8 32.7zm135.3 93.7l-32.8 8.8 32.7 8.8v27.4l21-36.2-21-36.2v27.4zM88.8 51.2l24 24L99 99l36.2-21V36.3L121.5 60l-32.7-8.7zM0 102.6l-8.8 32.7h-27.4l36.2 21 36.2-21H8.8L0 102.5zm51.3-13.7l8.7 32.7-23.8 13.7h41.9L99 99l-23.9 13.7-24-24zm84-97.6L102.5 0l32.7 8.8v27.4l21-36.2-21-36.2v27.4zM88.8 458.7l32.7-8.7 13.7 23.8v-41.9L99 411l13.7 23.9-24 24zm-37.5-37.5l24-24L99 411l-21-36.2H36.3L60 388.5l-8.7 32.7zM0 407.5l8.8-32.7h27.4L0 353.8l-36.2 21h27.4L0 407.5zm135.3 93.7l-32.8 8.8 32.7 8.8v27.4l21-36.2-21-36.2v27.4zm239.5 17.6v27.4l-21-36.2 21-36.2v27.4l32.7 8.8-32.7 8.8zm46.4-60l-24-24L411 411l-36.2 21v41.8l13.7-23.8 32.7 8.7zm37.5-37.6l-8.7-32.7 23.8-13.7h-41.9L411 411l23.9-13.7 24 24zm51.3-13.7l8.8-32.7h27.4l-36.2-21-36.2 21h27.4l8.8 32.7zM374.8 8.8v27.4L353.8 0l21-36.2v27.4L407.5 0l-32.7 8.8zm84 80l-24 24L411 99l21 36.2h41.8L450 121.5l8.7-32.7zm-37.6-37.5L388.5 60l-13.7-23.8v41.9L411 99l-13.7-23.9 24-24zm88.8 51.2l-8.8 32.7h-27.4l36.2 21 36.2-21h-27.4l-8.8-32.7z"/>
    <path class="shape-5" d="M177 390.2h-41.8v-15.4h-15.4V333l36.2 21 21 36.2zm-41.8-270.4V78L99 99l-21 36.2h41.8v-15.4h15.4zm0 0v15.4h-15.4V177l36.2-21 21-36.2h-41.8zm255 255V333L354 354l-21 36.2h41.8v-15.4h15.4zM354 156l36.2 21v-41.8h-15.4v-15.4H333l21 36.2zM119.8 374.8H78L99 411l36.2 21v-41.8h-15.4v-15.4zm270.4 15.4h-15.4V432l36.2-21 21-36.2h-41.8v15.4zm0-255H432L411 99l-36.2-21v41.8h15.4v15.4z"/>
    <path class="shape-6" d="M135.2 135.2h-15.4v-15.4h15.4v15.4zm-15.4 239.6v15.4h15.4v-15.4h-15.4zm270.4 0h-15.4v15.4h15.4v-15.4zm0-239.6v-15.4h-15.4v15.4h15.4z"/>
    <path class="shape-7" d="M163.6 43.8l7.8 13.4-36.2 20.9V36.2l21-36.2L177 36.1l-13.4 7.7zM219 78l-7.7 13.4-13.4-7.8-20.9 36.2h41.9l36.2-21L218.9 78zM354 0l-21 36.1 13.5 7.7-7.8 13.4 36.2 20.9V36.2L353.8 0zm-63 78l-36 20.8 36.1 21H333l-20.9-36.1-13.4 7.7L291 78zM43.8 163.6l13.4 7.7 20.9-36H36.2L0 156.1 36.1 177l7.7-13.4zm55 91.4l21-36.2v-41.9l-36.2 20.9 7.8 13.4-13.4 7.7 20.8 36zM36.2 374.7h41.9l-20.9-36-13.4 7.7-7.7-13.4L0 353.8l36.2 21zm55.2-75.9l-7.8 13.4 36.1 20.9v-41.9L98.8 255 78 291.1l13.4 7.7zM333 474l20.8 36.1 21-36.2V432l-36.1 20.9 7.7 13.4L333 474zm-42-42l7.7-13.4 13.4 7.8 20.9-36.1h-41.9L255 411.2l36.1 20.8zm-135 78l21-36.1-13.5-7.7 7.8-13.4-36.1-20.9v41.9l20.9 36.2zm62.8-78l36.1-20.8-36.2-21h-41.9l20.9 36.2 13.4-7.8 7.7 13.4zm255-255l36.1-20.8-36.2-21h-41.9l20.9 36.1 13.4-7.7 7.7 13.4zM432 219l-13.4-7.7 7.8-13.4-36.1-20.9v41.9l20.9 36.2L432 219zm78 135l-36.1-21-7.7 13.5-13.4-7.8-20.9 36.1h41.9l36.2-20.9zm-78-63l-20.8-36-21 36.2v41.9l36.2-20.9-7.8-13.4 13.4-7.7z"/>
    <path class="shape-8" d="M184.8 49.5l-13.4 7.7-7.8-13.4 13.4-7.7 7.8 13.4zm34 28.5l-13.4-7.7-7.7 13.3 13.4 7.8 7.7-13.4zm114-41.9l-7.6 13.4 13.3 7.7 7.8-13.4-13.4-7.7zM291.2 78l7.7 13.4 13.4-7.8-7.7-13.3-13.4 7.7zM49.5 184.7l7.7-13.4-13.4-7.7-7.7 13.4 13.4 7.7zm41.9 26.5l-7.8-13.4-13.3 7.7 7.7 13.4 13.4-7.7zM43.8 346.4l13.4-7.8-7.7-13.4-13.4 7.8 7.7 13.4zm26.5-41.9l13.3 7.7 7.8-13.4-13.4-7.7-7.7 13.4zM333 473.9l13.4-7.7-7.7-13.4-13.4 7.7 7.7 13.4zM291 432l13.4 7.8 7.7-13.4-13.4-7.8L291 432zm-114 41.9l7.7-13.4-13.4-7.7-7.8 13.4 13.4 7.7zm41.8-41.9l-7.7-13.4-13.4 7.8 7.7 13.4 13.4-7.8zm255-255l-7.7-13.4-13.4 7.7 7.7 13.4 13.4-7.7zM432 219l7.8-13.4-13.4-7.7-7.8 13.4L432 219zm41.9 114l-13.4-7.7-7.7 13.4 13.4 7.8 7.7-13.4zM432 291.2l-13.4 7.7 7.8 13.4 13.4-7.7-7.8-13.4z"/>
    <path class="shape-9" d="M181 74l16.8 9.6-20.9 36.2h-41.7V78l36.2-20.9L181 74zm148 0l-16.8 9.6 20.9 36.2h41.7V78l-36.2-20.9L329 74zM74 181l9.6 16.8 36.2-20.9v-41.7H78l-20.9 36.1L74 181zM57.2 338.6l20.9 36.1h41.7v-41.6l-36.2-20.9L74 329l-16.8 9.6zm281.5 114.2l36-20.9v-41.7h-41.6l-20.9 36.2L329 436l9.7 16.8zM181 436l16.8-9.6-20.9-36.1h-41.7v41.6l36.2 20.9L181 436zm271.8-264.7l-20.9-36h-41.7v41.6l36.2 20.9L436 181l16.8-9.7zM436 329l-9.6-16.8-36.1 20.9v41.7h41.6l20.9-36.2L436 329z"/>
    <path class="shape-10" d="M197.8 83.6L181 74l-9.6-16.8 13.3-7.7-7.7-13.4 12-7L215.1 40l10.8 26-7 12-13.4-7.7-7.7 13.3zM333 36.1l-12-7L294.9 40l-10.8 26 7 12 13.4-7.7 7.7 13.3L329 74l9.6-16.8-13.3-7.7 7.7-13.4zM83.6 197.8L74 181l-16.8-9.7-7.7 13.4-13.4-7.7-7 12L40 215l26 10.8 12-7-7.7-13.3 13.3-7.7zM49.5 325.2l7.7 13.4L74 329l9.6-16.8-13.3-7.7 7.7-13.4-12-7L40 295l-10.8 26 6.9 12 13.4-7.7zm255 114.6l-13.4-7.8-7 12 10.8 26 26 10.8 12-6.9-7.6-13.4 13.4-7.7L329 436l-16.8-9.6-7.7 13.4zM177 473.9l12 7 26.1-10.9 10.8-26-7-12-13.4 7.8-7.7-13.4L181 436l-9.6 16.8 13.4 7.7-7.8 13.4zm262.8-268.4l-7.8 13.4 12 7 26-10.8 10.8-26-6.9-12-13.4 7.6-7.7-13.4L436 181l-9.6 16.8 13.4 7.7zM473.9 333l7-12-10.9-26.1-26-10.8-12 7 7.8 13.4-13.4 7.7L436 329l16.8 9.6 7.7-13.4 13.4 7.8z"/>
    <path class="shape-11" d="M215.1 40L255 56.5 294.9 40l-10.8 26 7 12-36 20.8L218.8 78l7-12L215 40zm0-80l-26 10.8-12-6.9L156 0l21 36.1 12-7L215 40 198.5 0l16.6-40zm96.4 40l-16.6 40 26-10.8 12 7L354 0l-21-36.1-12 7L295-40l16.6 40zM40 215l16.5 40L40 294.9 66 284l12 7 20.8-36L78 218.9l-12 7L40 215zM0 198.6l40 16.6-10.8-26 6.9-12L0 156l-36.1 21 7 12-10.9 26 40-16.6zM-40 295l10.8 26-7 12L0 354l36.1-21-7-12L40 295 0 311.4-40 295zm324.2 149l7-12-36.2-21-36.1 21 7 12-10.8 26 40-16.6 39.8 16.5-10.7-26zm10.7 106l26-10.8 12 7 21-36.2-21-36.1-12 7-26-10.9 16.6 40-16.6 40zm-96.3-40l16.5-40-26 10.8-12-6.9-21 36.1 21 36.1 12-7 26 10.9-16.5-40zM444 225.8l-12-7-21 36.2 21 36.1 12-7 26 10.8-16.6-40 16.5-39.8-26 10.7zm106-10.7l-10.8-26 7-12-36.2-21-36.1 21 7 12-10.9 26 40-16.6 40 16.6zm-40 96.3L470 295l10.8 26-6.9 12 36.1 21 36.1-21-7-12 10.9-26-40 16.5z"/>
    <path class="shape-12" d="M311.5 0l-16.6 40L255 56.5 215.1 40 198.5 0l16.6-40L255-56.5 294.9-40l16.6 40zM0 311.4L40 295l16.5-40L40 215.2 0 198.5l-40 16.6-16.5 39.9 16.5 39.9 40 16.5zM215.1 550l40 16.5 39.8-16.5 16.6-40-16.6-40-39.9-16.5-39.9 16.5-16.5 40 16.5 40zM550 294.9l16.5-40-16.5-39.8-40-16.6-40 16.6-16.5 39.9 16.5 39.9 40 16.5 40-16.5z"/>
  </g>
  <g class="guides">
    <circle cx="255" cy="255" r="102.5"/>
    <circle cx="255" cy="255" r="191.3"/>
    <circle cx="510" cy="510" r="102.5"/>
    <circle cx="510" cy="510" r="191.3"/>
    <circle cx="510" r="102.5"/>
    <circle cx="510" r="191.3"/>
    <circle cy="510" r="102.5"/>
    <circle cy="510" r="191.3"/>
    <circle r="102.5"/>
    <circle r="191.3"/>
    <path d="M-135.2 374.8h270.5v270.5h-270.5zM-135.2-135.2h270.5v270.5h-270.5z"/>
    <path d="M-184.7 49.5l135.3-234.3L184.8-49.5 49.6 184.7zM49.5-184.7l-99 369.4M78.1-135.2L-78.1 135.2m223-280.1l-289.8 289.8m280.1-223L-135.2 78.1M186.8-50L-186.8 50m343-50h-312.4m340.9 49.5l-369.4-99M135.2 78.1L-135.3-78.1m272 214.8l-273.4-273.4m214.8 272L-78.1-135.2M49.5 184.7l-99-369.5M0 156.2v-312.4M-184.7 559.5l135.3-234.3 234.2 135.3L49.6 694.7zM49.5 325.3l-99 369.4M78.1 374.8L-78.1 645.2m223-280.1l-289.8 289.8m280.1-223l-270.4 156.2m319.9-127.6L-186.8 560m343-50h-312.4m340.9 49.5l-369.4-99m319.9 127.6l-270.5-156.2m272 214.8l-273.4-273.4m214.8 272L-78.1 374.8M49.5 694.7l-99-369.5M0 666.2V353.8"/>
    <path d="M-49.5 184.7L-184.7-49.6 49.5-184.8 184.8 49.4zM-49.5 694.7l-135.2-234.3L49.5 325.2l135.3 234.2z"/>
    <path d="M0 0h510v510H0zm0 0l510 510m0-510L0 510m255 0V0M0 255h510"/>
    <path d="M0 255L255 0l255 255-255 255z"/>
    <path d="M119.8 119.8h270.5v270.5H119.8z"/>
    <path d="M205.5 439.7L70.3 205.4 304.5 70.2l135.3 234.2zM325.3 49.5l135.3-234.3L694.8-49.5 559.6 184.7zm234.2-234.2l-99 369.4m127.6-319.9L431.9 135.2m223-280.1L365.1 144.9m280.1-223L374.8 78.1M696.8-50L325.3 49.5M666.2 0H353.8m340.9 49.5l-369.4-99M645.2 78.1L374.8-78.1m271.9 214.8L373.3-136.7m214.8 272L431.9-135.2m127.6 319.9l-99-369.5m49.5 341v-312.4M325.3 559.5l135.3-234.3 234.2 135.3-135.2 234.3zm234.2-234.2l-99 369.4m127.6-319.9L431.9 645.2m223-280.1L365.1 654.9m280.1-223L374.8 588.1m322-128.1L323.2 560m343-50H353.8m340.9 49.5l-369.4-99m319.9 127.6L374.8 431.9m271.9 214.8L373.3 373.3m214.8 272L431.9 374.8m127.6 319.9l-99-369.5m49.5 341V353.8"/>
    <path d="M374.8 374.8h270.5v270.5H374.8zM374.8-135.2h270.5v270.5H374.8z"/>
    <path d="M460.5 184.7L325.3-49.6l234.2-135.2L694.8 49.4zM460.5 694.7L325.3 460.4l234.2-135.2 135.3 234.2zM70.3 304.5L205.6 70.2l234.2 135.3-135.2 234.2zM304.5 70.3l-99 369.4m127.6-319.9L176.9 390.2m223-280.1L110.1 399.9m280.1-223L119.8 333.1m319.9-127.6l-369.4 99M411.2 255H98.8m340.9 49.5l-369.4-99m319.9 127.6L119.8 176.9m271.9 214.8L118.3 118.3m214.8 272L176.9 119.8m127.6 319.9l-99-369.5m49.5 341V98.8"/>
  </g>
</svg>
