<svg xmlns="http://www.w3.org/2000/svg" width="668.9" height="386.2" viewBox="0 0 668.9 386.2">
  <style>
    :root {
      --emerald: #216554;
      --white: #FFFAF2;
      --lightBlue: #2295CE;
    }
    .shape-1{fill:var(--lightBlue)}
    .shape-2{fill:var(--white)}
    .shape-3{fill:var(--emerald)}
    .shape-4{fill:var(--emerald)}
    .shape-5{fill:var(--white)}
    .shape-6{fill:var(--emerald)}
    .shape-7{fill:var(--emerald)}
    .shape-8{fill:var(--white)}
    .shape-9{fill:var(--lightBlue)}
    .guides{ stroke: #4FFF4F; display: none; fill: none}
  </style>
  <g id="pattern" class="line">
    <path class="shape-1" d="M364.3 175.9h-19.9l-9.9-17.3-10 17.3h-19.9l10 17.2-10 17.3h19.9l10 17.2 9.9-17.2h19.9l-9.9-17.3zM29.9-17.3H10L0-34.5l-10 17.2h-19.9l10 17.3-10 17.3H-10L0 34.5l10-17.2h19.9L19.9 0zm0 386.3H10L0 351.7-10 369h-19.9l10 17.2-10 17.3H-10l10 17.2 10-17.2h19.9l-10-17.3zM639.1-17.2H659l9.9-17.3 10 17.3h19.9L688.9 0l9.9 17.3h-19.9l-10 17.2-9.9-17.2h-19.9L649 0zm0 386.2H659l9.9-17.3 10 17.3h19.9l-9.9 17.2 9.9 17.3h-19.9l-10 17.2-9.9-17.2h-19.9l9.9-17.3z"/>
    <path class="shape-2" d="M304.6 175.9h-34.5v-20l-23.6 13.6 13.6 23.6-13.6 23.6 23.6 13.6v-19.9h34.5l10-17.3zm12.6 81.6l17.3-29.9-10-17.2h-19.9l-17.3 29.8-17.2-9.9v27.2h27.2l13.6 23.5 23.6-13.6zm54.4-128.8L358 105.2l-23.5 13.6 17.2 9.9-17.2 29.9 9.9 17.3h19.9l17.3-29.9 17.2 9.9v-27.2z"/>
    <path class="shape-2" d="M317.2 128.7l17.3-9.9-23.6-13.6-13.6 23.5h-27.2v27.2l17.2-9.9 17.3 29.9h19.9l10-17.3zm105.2 88l-13.6-23.6 13.6-23.6-23.6-13.6v20h-34.5l-9.9 17.2 9.9 17.3h34.5v19.9z"/>
    <path class="shape-2" d="M381.6 240.2l-17.3-29.8h-19.9l-9.9 17.2 17.2 29.9-17.2 9.9L358 281l13.6-23.5h27.2v-27.2zM87.9 23.6L74.3 0l13.6-23.6-23.5-13.6v20l-34.5-.1L19.9 0l10 17.3h34.5v19.9z"/>
    <path class="shape-2" d="M47.1 47.1L29.9 17.3H10L0 34.5l17.3 29.9L0 74.3l23.6 13.6 13.6-23.5h27.2V37.2zm-9.9 274.7l-13.6-23.5L0 311.9l17.2 9.9L0 351.7 10 369h19.9l17.2-29.9 17.3 9.9v-27.2zm50.7 88l-13.6-23.6 13.6-23.5L64.4 349v20H29.9l-10 17.2 10 17.3h34.5v19.9zM581 23.6L594.6 0 581-23.6l23.6-13.6v20h34.5L649 0l-9.9 17.3h-34.5v19.9z"/>
    <path class="shape-2" d="M621.8 47.1l17.3-29.8H659l9.9 17.2-17.2 29.9 17.2 9.9-23.5 13.6-13.6-23.5h-27.2V37.2zm10 274.7l13.6-23.5 23.5 13.6-17.2 9.9 17.2 29.9L659 369h-19.9l-17.3-29.9-17.2 10v-27.3z"/>
    <path class="shape-2" d="M581 409.8l13.6-23.6-13.6-23.5 23.6-13.6V369h34.5l9.9 17.2-9.9 17.3h-34.5v19.9z"/>
    <path class="shape-3" d="M381.6 146l-17.3 29.9h34.5v-20zm-111.5 9.9v20h34.5L287.3 146zm81.6-27.2l-17.2-9.9-17.3 9.9 17.3 29.9zm-34.5 128.8l17.3 9.9 17.2-9.9-17.2-29.9zm64.4-17.3l17.2-9.9v-19.9h-34.5zm-111.5-9.9l17.2 9.9 17.3-29.8h-34.5zM-17.2 64.4L0 74.3l17.3-9.9L0 34.5zm64.3-17.3l17.3-9.9V17.3H29.9zm0 292L29.9 369h34.5v-20zm-29.9-17.3L0 311.9l-17.2 9.9L0 351.7zm669-257.4l-17.3 9.9-17.2-9.9 17.2-29.9zm-64.4-17.3l-17.2-9.9V17.3h34.5zm0 292l17.3 29.9h-34.5v-19.9zm29.9-17.3l17.2-9.9 17.3 9.9-17.3 29.9z"/>
    <path class="shape-4" d="M270.1 128.7H223l23.5 40.8 23.6-13.6zM310.9 281l23.6 40.8L358 281l-23.5-13.6zm111.5-111.5l23.6-40.8h-47.2v27.2zM358 105.2l-23.5-40.8-23.6 40.8 23.6 13.6zm64.4 111.5l-23.6 13.6v27.2H446zm-175.9 0L223 257.5h47.1v-27.2zm0-47.2l-40.8 23.6 40.8 23.6 13.6-23.6zm152.3-40.8V81.6L358 105.2l13.6 23.5zM358 281l40.8 23.6v-47.1h-27.2zm64.4-64.3l40.8-23.6-40.8-23.6-13.6 23.6zM310.9 105.2l-40.8-23.6v47.1h27.2z"/>
    <path class="shape-4" d="M270.1 257.5v47.1l40.8-23.6-13.6-23.5zM-23.6 87.9L0 128.7l23.6-40.8L0 74.3zM87.9 23.6L64.4 37.2v27.2h47.1zM23.6 87.9l40.8 23.6V64.4H37.2zm64.3-64.3L128.8 0 87.9-23.6 74.3 0zm0 339.1l23.6-40.9H64.4V349zm-64.3-64.4L0 257.5l-23.6 40.8L0 311.9zm40.8 23.5v-47.1l-40.8 23.6 13.6 23.5zm23.5 88l40.9-23.6-40.9-23.5-13.6 23.5zM692.5 87.9l-23.6 40.8-23.5-40.8 23.5-13.6zM581 23.6l23.6 13.6v27.2h-47.2zm64.4 64.3l-40.8 23.6V64.4h27.2zM581 23.6L540.2 0 581-23.6 594.6 0zm0 339.1l-23.6-40.9h47.2v27.3zm64.4-64.4l23.5-40.8 23.6 40.8-23.6 13.6zm-40.8 23.5v-47.1l40.8 23.6-13.6 23.5zm-23.6 88l-40.8-23.6 40.8-23.5 13.6 23.5z"/>
    <path class="shape-5" d="M128.8 0L87.9 23.6l23.6 40.8h37.2l22.8-39.7z"/>
    <path class="shape-5" d="M64.4 64.4v47.1l42.8 24.7 22.9-39.6-18.6-32.2zm162.9-7.5l42.8 24.7v47.1H223l-18.6-32.2zm-41.5 71.8l-22.9 39.7 42.8 24.7 40.8-23.6-23.5-40.8zm-121.4 146v47.1h47.1l18.6-32.1-22.9-39.7zm23.5 88l40.8 23.5 42.9-24.7-22.9-39.7h-37.2zm75-144.9l42.8-24.7 40.8 23.6-23.5 40.8h-37.2zm41.5 71.9l22.9 39.6 42.8-24.7v-47.1H223zm-140-178.2L23.6 87.9 0 128.7l18.6 32.2h45.8zm0 113.8v49.4l-40.8 23.6L0 257.4l18.6-32.1zm334.4 79.3L358 281l-23.5 40.9L353 354h45.8z"/>
    <path class="shape-5" d="M310.9 281l-40.8 23.6V354h45.8l18.6-32.1zm87.9-248.8v49.4L358 105.2l-23.5-40.9L353 32.2zm-82.9 0h-45.8v49.4l40.8 23.6 23.6-40.9zM540.2 0L581 23.6l-23.6 40.8h-37.1l-22.9-39.7zm64.4 64.4v47.1l-42.9 24.7-22.8-39.6 18.5-32.2zm-162.9-7.5l-42.9 24.7v47.1H446l18.6-32.1zm41.4 71.8l22.9 39.7-42.8 24.7-40.8-23.6 23.6-40.8zm121.5 146v47.1h-47.2l-18.5-32.1 22.9-39.7zm-23.6 88l-40.8 23.5-42.8-24.7 22.9-39.7h37.1zm-75-144.9l-42.8-24.7-40.8 23.6 23.6 40.8h37.1zm-41.5 71.9l-22.9 39.6-42.8-24.7v-47.1H446zm140.1-178.2l40.8-23.6 23.5 40.8-18.5 32.2h-45.8zm0 113.8v49.4l40.8 23.6 23.5-40.9-18.5-32.1z"/>
    <path class="shape-6" d="M171.5 24.7l-22.8 39.7h-37.2l18.6 32.2-22.9 39.6 55.7 32.2 22.9-39.7H223l-18.6-32.2 22.9-39.6zM107.2 250l22.9 39.7-18.6 32.1h37.2l22.9 39.7 55.7-32.2-22.9-39.6 18.6-32.2h-37.2l-22.9-39.7zm-42.8-89.1H18.6L0 128.7l-18.6 32.2h-45.8v64.4h45.8L0 257.4l18.6-32.1h45.8zM398.8 354H353l-18.5-32.1-18.6 32.1h-45.8v64.4h45.8l18.6 32.2 18.5-32.2h45.8zm0-386.2H353l-18.5-32.2-18.6 32.2h-45.8v64.4h45.8l18.6 32.1L353 32.2h45.8zm98.6 56.9l22.9 39.7h37.1l-18.5 32.2 22.8 39.6-55.7 32.2-22.9-39.7H446l18.6-32.1-22.9-39.7zM561.8 250l-22.9 39.7 18.5 32.1h-37.1l-22.9 39.7-55.8-32.2 22.9-39.6-18.5-32.2h37.1l22.9-39.7zm42.8-89.1h45.8l18.5-32.2 18.6 32.2h45.8v64.4h-45.8l-18.6 32.1-18.5-32.1h-45.8z"/>
    <path class="shape-7" d="M64.4 111.5l42.8 24.7-14.3 24.7H64.4zm84.2 81.6l14.3-24.7 42.8 24.7-42.8 24.7zm-55.7 32.2l14.3 24.7-42.8 24.7v-49.4zM185.8 0l-14.2-24.7L128.8 0l42.8 24.7zm55.8 32.2l-14.3 24.7 42.8 24.7V32.2zm28.5 272.4l-42.8 24.7 14.3 24.7h28.5zm-84.3 81.6l-14.2-24.7-42.9 24.7 42.9 24.7zm418.8-274.7l-42.9 24.7 14.3 24.7h28.6zm-84.3 81.6L506 168.4l-42.8 24.7 42.8 24.7zm55.7 32.2L561.8 250l42.8 24.7v-49.4zM483.1 0l14.3-24.7L540.2 0l-42.8 24.7zm-55.7 32.2l14.2 24.7-42.8 24.7V32.2zm-28.6 272.4l42.9 24.7-14.3 24.7h-28.6zm84.3 81.6l14.3-24.7 42.8 24.7-42.8 24.7z"/>
    <path class="shape-8" d="M107.2 136.2l-14.3 24.7h37.2l18.5 32.2 14.3-24.7zm-14.3 24.7H64.4v64.4h28.5l-18.6-32.2zm55.7 32.2l14.3 24.7-55.7 32.2-14.3-24.7h37.2zm93-225.3h28.5v64.4h-28.5L260.1 0zM185.8 0l-14.2 24.7 55.7 32.2 14.3-24.7h-37.2zm41.5 329.3l14.3 24.7h-37.2l-18.6 32.2-14.2-24.7z"/>
    <path class="shape-8" d="M241.6 354h28.5v64.4h-28.5l18.5-32.2zm320.1-217.8l14.3 24.7h-37.1l-18.6 32.2-14.3-24.7zm14.3 24.7h28.6v64.4H576l18.6-32.2zm-55.7 32.2L506 217.8l55.8 32.2 14.2-24.7h-37.1zM427.4-32.2h-28.6v64.4h28.6L408.8 0zM483.1 0l14.3 24.7-55.8 32.2-14.2-24.7h37.1zm-41.4 329.3L427.4 354h37.1l18.6 32.2 14.3-24.7zM427.4 354h-28.6v64.4h28.6l-18.6-32.2z"/>
    <path class="shape-9" d="M130.1 160.9l18.5 32.2-18.5 32.2H92.9l-18.6-32.2 18.6-32.2zm74.3-193.1L185.8 0l18.6 32.2h37.2L260.1 0l-18.5-32.2zm0 386.2l-18.6 32.2 18.6 32.2h37.2l18.5-32.2-18.5-32.2zm334.5-193.1l-18.6 32.2 18.6 32.2H576l18.6-32.2-18.6-32.2zM464.5-32.2L483.1 0l-18.6 32.2h-37.1L408.8 0l18.6-32.2zm0 386.2l18.6 32.2-18.6 32.2h-37.1l-18.6-32.2 18.6-32.2z"/>
  </g>
  <g class="guides">
    <circle cx="334.5" cy="193.1" r="128.7"/>
    <circle r="128.7"/>
    <circle cy="386.2" r="128.7"/>
    <circle cx="668.9" r="128.7"/>
    <circle cx="668.9" cy="386.2" r="128.7"/>
    <path d="M0 0l334.5 193.1L0 386.2zm668.9 0L334.5 193.1l334.4 193.1z"/>
    <path d="M0 0h668.9v386.2H0zm334.5 386.2V0M446 386.2L223 0m0 386.2L0 0m668.9 193.1H0M445.9.1L223 386.1m-.1-386L0 386.2m669 0L445.9 0m223 .1L446 386.2"/>
    <path d="M64.4 386.2V0m270.1 118.8L0 311.9M0 74.3l334.3 193m.2-148.5L128.7 0m-.1 386.3l205.9-118.9M270.1 0v386.2M185.8 64.4h-74.3l37.2 64.3H223zm-92.9 96.5L186.1-.5m74 .6l-111.4 193M37.1 193.1L0 128.7l-37.2 64.4L0 257.4zM0 160.9h93.4m-.5 64.3l-92.9.1M185.8 321.8h-74.3l37.2-64.3H223zm-92.9-96.5l93.2 161.4m74-.6l-111.4-193M604.6 386.2V0M334.5 118.8l334.4 193.1m0-237.6l-334.3 193m-.1-148.5L540.2 0m.1 386.3L334.5 267.4M398.8 0v386.2m84.3-321.8h74.3l-37.1 64.3H446zm92.9 96.5L482.9-.5m-74 .6l111.4 193M631.8 193.1l37.1-64.4 37.2 64.4-37.2 64.3zm37.1-32.2h-93.4m.5 64.3l92.9.1M483.1 321.8h74.3l-37.1-64.3H446zm92.9-96.5l-93.1 161.4m-74-.6l111.4-193"/>
  </g>
</svg>
