<svg xmlns="http://www.w3.org/2000/svg" width="254.4" height="440.6" viewBox="0 0 254.4 440.6">
  <style>
    :root {
      --emerald: #216554;
      --white: #FFFAF2;
      --lightBlue: #2295CE;
      --gold: #CEA600;
      --black: #443430;
    }
    .shape-1{fill:var(--emerald)}
    .shape-2{fill:var(--white)}
    .shape-3{fill:var(--lightBlue)}
    .shape-4{fill:var(--gold)}
    .shape-5{fill:var(--white)}
    .shape-6{fill:var(--emerald)}
    .shape-7{fill:var(--black)}
    .guides{ stroke: #4FFF4F; display: none; fill: none}
  </style>
  <g id="pattern" class="line">
    <path class="shape-1" d="M190.8 257v27H164l-13.4 23.3-23.3-13.5-23.3 13.5L90.6 284h-27v-27h.1l-23.3-13.4 13.5-23.3L40.2 197l23.3-13.4v-26.9h26.9l13.4-23.3 23.3 13.5 23.3-13.5 13.4 23.3h26.9v26.9L214 197l-13.5 23.3 13.5 23.3-23.3 13.4zM318 36.7l23.3-13.4L327.8 0l13.5-23.3L318-36.7v-26.9h-26.9L277.7-87l-23.3 13.5L231-87l-13.4 23.3h-27v26.9l-23.2 13.4L180.9 0l-13.4 23.3 23.3 13.4v26.9h26.9L231 87l23.3-13.5L277.7 87 291 63.6h27V36.7h-.1zM63.6 477.3L87 464l-13.4-23.3L87 417.4 63.6 404v-27H36.7l-13.4-23.3L0 367.2l-23.3-13.5-13.4 23.3h-26.9v27l-23.3 13.4 13.5 23.3L-87 464l23.3 13.4v27h26.9l13.4 23.2L0 514l23.3 13.5 13.4-23.3h27v-26.9h-.1zm0-440.6L87 23.3 73.5 0l13.4-23.3-23.3-13.4v-26.9H36.7L23.3-87 0-73.4-23.3-87l-13.4 23.3h-26.9v26.9l-23.3 13.4L-73.4 0-87 23.3l23.3 13.4v26.9h26.9L-23.3 87 0 73.4 23.3 87l13.4-23.3h27v-27h-.1zM318 477.3l23.3-13.4-13.5-23.3 13.5-23.3L318 404v-27h-26.9l-13.4-23.3-23.3 13.5-23.3-13.5-13.4 23.3h-27v27l-23.2 13.4 13.4 23.3-13.4 23.3 23.3 13.4v27h26.9l13.4 23.2 23.3-13.5 23.3 13.5 13.4-23.3h27v-26.9h-.1z"/>
    <path class="shape-2" d="M164 283.9h26.8v46.5l-40.3-23.2 13.4-23.3zm0-127.2h26.8v-46.5l-40.3 23.2 13.4 23.3zM53.6 220.3L40.3 197 0 220.3l40.3 23.3 13.5-23.3zm147 0l13.4 23.3 40.3-23.3L214 197l-13.5 23.3zM90.5 156.7l13.4-23.3-40.3-23.3v46.6h26.9zm0 127.2H63.6v46.6l40.3-23.3-13.4-23.3zm-27-26.9l-23.2-13.4L17 283.9h46.6V257zm127.3 0v27h46.5l-23.2-40.3-23.3 13.4zm-63.6-110l23.3-13.5-23.3-40.3-23.3 40.3 23.3 13.5zm63.6 36.7l23.3 13.4 23.2-40.3h-46.5v26.9zm-127.2 0v-26.9H17L40.3 197l23.3-13.4zm63.6 110.1l-23.3 13.5 23.3 40.3 23.3-40.3-23.3-13.5zM180.9 0l-13.4-23.3L127.2 0l40.3 23.3L181 0zm36.8 63.6h-27v46.6l40.4-23.3-13.4-23.3zm-27-26.9l-23.2-13.4-23.3 40.3h46.6V36.7zm63.7 36.7L231 87l23.3 40.3L277.7 87l-23.3-13.5zM36.7 377h27v-46.5h-.1l-40.3 23.2L36.7 377zm36.8 63.6L86.9 464l40.3-23.3-40.3-23.3-13.5 23.3zM0 367.2l23.3-13.5L0 313.4l-23.3 40.3L0 367.2zm63.6 36.7L87 417.3l23.3-40.3H63.6v27zM36.7 63.6L23.3 86.9 63.6 110V63.6H36.7zM73.5 0l13.4 23.3L127.2 0 86.9-23.3 73.4 0zm-9.9 36.7v26.9h46.5L87 23.3 63.6 36.7zM0 73.4L-23.3 87 0 127.2 23.3 87 0 73.4zm181 367.2l-13.5-23.3-40.3 23.3 40.3 23.3 13.4-23.3zm36.7-63.6l13.4-23.3-40.3-23.2V377h26.9zm36.7-9.8l23.3-13.5-23.3-40.3-23.3 40.3 23.3 13.5zm-63.6 36.7V377h-46.6l23.3 40.3 23.3-13.4z"/>
    <path class="shape-3" d="M17 156.7L8.5 142l55-31.8v46.5H17zm220.4 127.2h-46.6v46.5l55-31.8-8.4-14.7zm-87-150.5l40.4-23.3-55-31.8-8.6 14.8 23.3 40.3zm-86.8 197l55 31.9 8.6-14.8-23.3-40.3-40.3 23.3zM0 220.5l-40.3 23.2L-17 284h34l23.3-40.3L0 220.3zm271.4-63.7h-34L214 197l40.3 23.3 40.3-23.3-23.3-40.3zM144.2 63.6l23.3-40.3L127.2 0v63.6h17zm46.6 46.6l55 31.8 8.6-14.8L231 87l-40.3 23.3zm-104 307.1l40.4 23.3V377h-17l-23.3 40.3zm-63.5-63.6l40.3-23.2-55-31.8L0 313.4l23.3 40.3zm86.9-290v-.1H63.5V110l55.1-31.8-8.5-14.7zM190.8 377v-46.5l-55 31.8 8.4 14.7h46.6z"/>
    <path class="shape-4" d="M190.8 156.7v-46.5l55 31.8-8.5 14.7h-46.5zM63.6 284H17l-8.5 14.8 55.1 31.8V284zm63.6-190.8l-8.5-14.8-55 31.8 40.2 23.3 23.3-40.3zm23.3 214l-23.3 40.4 8.5 14.8 55-31.8-40.2-23.3zM17 156.8h-34L-40.3 197 0 220.3 40.3 197 17 156.7zm237.4 63.6L214 243.6l23.3 40.3h34l23.3-40.3-40.3-23.3zM190.8 63.6h-46.6l-8.5 14.8 55 31.8V63.6zM110.2 377l8.5-14.7-55-31.8V377h46.5zm0-313.4h17V0L86.9 23.3l23.3 40.3zm-87 23.3L0 127.2 8.5 142l55.1-31.8-40.3-23.3zm121 290.1h-17v63.6l40.3-23.3-23.3-40.3zm110.2-63.6l-8.5-14.7-55.1 31.8 40.3 23.2 23.3-40.3z"/>
    <path class="shape-5" d="M17 283.9l-8.5 14.8-8.5-5-8.5 5-8.5-14.8h34zm246-142l-8.6 5-8.5-5-8.6 14.8h34.1L263 142zM127.1 63.7v9.8l8.5 5 8.5-14.8h-17zm-8.5 298.7l-8.5 14.7h17v-9.8l-8.5-5z"/>
    <path class="shape-6" d="M17 156.7h-34l8.5-14.7 8.5 4.9 8.5-5 8.5 14.8zm237.4 127.2h-17l8.5 14.7 8.5-4.9 8.5 5 8.5-14.8h-17zM110.2 63.6l8.5 14.7 8.5-4.9v-9.8h-17zm34 313.4l-8.5-14.7-8.5 4.9v9.8h17z"/>
    <path class="shape-7" d="M127.2 93l-8.5-14.7 8.5-4.9 8.5 5-8.5 14.7zm-8.5 269.3l8.5 4.9 8.5-5-8.5-14.7-8.5 14.8zM245.9 142l8.5 4.9 8.5-5-8.5-14.7-8.5 14.8zM8.5 298.7l-8.5-5-8.5 5L0 313.4l8.5-14.7zM-8.5 142l8.5 4.9 8.5-5L0 127.3-8.5 142zm271.4 156.7l-8.5-5-8.5 5 8.5 14.7 8.5-14.7z"/>
  </g>
  <g class="guides">
    <circle cx="127.2" cy="220.3" r="127.2"/>
    <circle cx="254.4" cy="440.6" r="127.2"/>
    <circle cx="254.4" r="127.2"/>
    <circle cy="440.6" r="127.2"/>
    <circle r="127.2"/>
    <path d="M-110.2 377L0 567.8 110.2 377zm-17-9.8L127.2 514m0-146.8L-127.2 514"/>
    <path d="M-110.2 504.2L0 313.4l110.2 190.8zM-110.2 63.6L0-127.2 110.2 63.6z"/>
    <path d="M-110.2-63.6L0 127.2 110.2-63.6zm-17-9.8L127.2 73.4m0-146.8L-127.2 73.4"/>
    <path d="M-127.2 0L63.6-110.2v220.4zM-127.2 440.6L63.6 330.4v220.4z"/>
    <path d="M-63.6 330.4v220.4l190.8-110.2zM-63.6-110.2v220.4L127.2 0z"/>
    <path d="M0 0h254.4v440.6H0zm127.2 440.6V0M0 220.3h254.4"/>
    <path d="M0 0l127.2 220.3L254.4 0zm0 440.6l127.2-220.3 127.2 220.3z"/>
    <path d="M0 220.3l190.8-110.2v220.4zM0 293.7l127.2 73.5V514L0 587.5-127.2 514V367.2zM0-146.9l127.2 73.5V73.4L0 146.9l-127.2-73.5V-73.4z"/>
    <path d="M127.2 0L318-110.2v220.4zM127.2 440.6L318 330.4v220.4zM127.2 73.4l127.2 73.5v146.8l-127.2 73.5L0 293.7V146.9z"/>
    <path d="M144.2 377l110.2 190.8L364.5 377zm-17-9.8L381.6 514m0-146.8L127.2 514"/>
    <path d="M144.2 504.2l110.2-190.8 110.2 190.8zM144.2 63.6l110.2-190.8L364.6 63.6z"/>
    <path d="M144.2-63.6l110.2 190.8L364.5-63.6zm-17-9.8L381.6 73.4m0-146.8L127.2 73.4M17 156.7l110.2 190.8 110.1-190.8zm-17-9.8l254.4 146.8m0-146.8L0 293.7"/>
    <path d="M17 283.9L127.2 93.1l110.2 190.8zM190.8 330.4v220.4l190.8-110.2zM190.8-110.2v220.4L381.6 0z"/>
    <path d="M254.4 293.7l127.2 73.5V514l-127.2 73.5L127.2 514V367.2zM254.4-146.9l127.2 73.5V73.4l-127.2 73.5-127.2-73.5V-73.4zM63.6 110.1v220.4l190.8-110.2z"/>
  </g>
</svg>
