<svg xmlns="http://www.w3.org/2000/svg" width="675.6" height="390.1" viewBox="0 0 675.6 390.1">
  <style>
    :root {
      --emerald: #216554;
      --white: #FFFAF2;
      --lightBlue: #2295CE;
      --gold: #CEA600;
      --black: #443430;
    }
    .shape-1{fill:var(--lightBlue)}
    .shape-2{fill:var(--white)}
    .shape-3{fill:var(--emerald)}
    .shape-4{fill:var(--gold)}
    .shape-5{fill:var(--emerald)}
    .shape-6{fill:var(--white)}
    .shape-7{fill:var(--emerald)}
    .shape-8{fill:var(--lightBlue)}
    .guides{ stroke: #4FFF4F; display: none; fill: none}
  </style>
  <g id="pattern" class="line">
    <path class="shape-1" d="M387.3 195l-13.7-9.6 7.1-15.1-16.7-1.5-1.5-16.6-15.1 7-9.6-13.7-9.6 13.7-15.2-7-1.4 16.6-16.7 1.5 7.1 15.1-13.7 9.6 13.7 9.6-7.1 15.2 16.7 1.5 1.4 16.6 15.2-7.1 9.6 13.7 9.6-13.7 15.1 7.1 1.5-16.6 16.7-1.5-7.1-15.2zM-24.8-42.9l-1.4 16.7-16.7 1.4 7.1 15.2L-49.5 0l13.7 9.6-7.1 15.1 16.7 1.5 1.4 16.7 15.2-7.1L0 49.5l9.6-13.7 15.1 7.1 1.5-16.7 16.7-1.5-7.1-15.1L49.5 0 35.8-9.6l7.1-15.2-16.7-1.4-1.5-16.7-15.1 7.1L0-49.5l-9.6 13.7zm0 475.8l-1.4-16.6-16.7-1.5 7.1-15.1-13.7-9.6 13.7-9.6-7.1-15.2 16.7-1.5 1.4-16.6 15.2 7L0 340.6l9.6 13.6 15.1-7 1.5 16.6 16.7 1.5-7.1 15.2 13.7 9.6-13.7 9.6 7.1 15.1-16.7 1.5-1.5 16.6-15.1-7L0 439.6l-9.6-13.7zM700.3-42.9l1.5 16.7 16.7 1.4-7.1 15.2L725.1 0l-13.7 9.6 7.1 15.2-16.7 1.4-1.5 16.7-15.1-7.1-9.6 13.7-9.6-13.7-15.2 7.1-1.4-16.7-16.7-1.4 7.1-15.2L626.1 0l13.7-9.6-7.1-15.2 16.7-1.4 1.4-16.7 15.2 7.1 9.6-13.7 9.6 13.7zm0 475.8l1.5-16.6 16.7-1.5-7.1-15.1 13.7-9.6-13.7-9.6 7.1-15.2-16.7-1.5-1.5-16.6-15.1 7-9.6-13.6-9.6 13.6-15.2-7-1.4 16.6-16.7 1.5 7.1 15.2-13.7 9.6 13.7 9.6-7.1 15.1 16.7 1.5 1.4 16.6 15.2-7 9.6 13.7 9.6-13.7z"/>
    <path class="shape-2" d="M313 237.9l3.3 37.2 21.5-30.6-9.6-13.7zm49.5 0l33.9 15.7-15.7-33.8-16.7 1.5zm-24.7 6.6l21.5 30.6 3.2-37.2-15.1-7.1zm0-99L316.3 115l-3.3 37.2 15.2 7zm49.5 49.5l-13.7 9.6 7.1 15.2 37.2-3.3zm-24.8-42.8l-3.2-37.2-21.5 30.5 9.6 13.7zm24.8 42.8l30.6-21.4-37.2-3.3-7.1 15.1zm-6.6-24.7l15.7-33.9-33.9 15.8 1.5 16.6zM288.3 195l-30.6 21.5 37.2 3.3 7.1-15.2zm6.6 24.8l-15.7 33.8 33.8-15.7-1.4-16.6zm18.1-67.6l-33.8-15.8 15.7 33.9 16.7-1.5z"/>
    <path class="shape-2" d="M294.9 170.3l-37.2 3.3 30.6 21.4 13.7-9.6zM24.7 42.9l33.9 15.7-15.7-33.9-16.7 1.5zm18.2-18.2l37.2-3.2L49.5 0 35.8 9.6zm-67.7 18.2l3.3 37.2L0 49.5l-9.6-13.7zM0 49.5l21.5 30.6 3.2-37.2-15.1-7.1zm24.7 297.7l33.9-15.8-15.7 33.9-16.7-1.5zm18.2 18.1l37.2 3.3-30.6 21.5-13.7-9.6zM0 340.6L21.5 310l3.2 37.2-15.1 7zM650.8 42.9L617 58.6l15.7-33.8 16.7 1.4zm-18.1-18.1l-37.2-3.3L626.1 0l13.7 9.6zm42.9 24.7l-21.5 30.6-3.3-37.2 15.2-7.1zm-24.8 297.7L617 331.4l15.7 33.9 16.7-1.5zm-18.1 18.1l-37.2 3.3 30.6 21.5 13.7-9.6zm42.9-24.7L654.1 310l-3.3 37.2 15.2 7z"/>
    <path class="shape-3" d="M439 214.6l11.3-19.6-11.3-19.6-3.8-.3-17.3-1.5-30.6 21.4 30.6 21.5 17.3-1.6zm-42.6 39l15.8 7.4 3.4 1.6 19.6-11.3v-22.7l-3.1-2.1-14.2-10-37.2 3.3zm-80.1 21.5l1.6 17.3.3 3.8 19.6 11.3 19.6-11.3.3-3.8 1.6-17.3-21.5-30.6z"/>
    <path class="shape-3" d="M359.3 275.1l9.9 14.2 2.2 3.1H394l11.3-19.6-1.6-3.4-7.3-15.8-33.9-15.7zm-80.1-21.5l-7.4 15.8-1.5 3.4 11.3 19.6h22.6l2.1-3.1 10-14.2-3.3-37.2zm117.2-117.2l7.3-15.8 1.6-3.4L394 97.6h-22.6l-2.2 3.1-9.9 14.3 3.2 37.2zM359.3 115l-1.6-17.4-.3-3.7-19.6-11.3-19.6 11.3-.3 3.7-1.6 17.4 21.5 30.5zm58.6 58.6l14.2-10 3.1-2.2v-22.6l-19.6-11.3-3.4 1.6-15.8 7.3-15.7 33.9zm-160.2 0l-17.3 1.5-3.8.3-11.3 19.6 11.3 19.6 3.8.3 17.3 1.6 30.6-21.5zm0 42.9l-14.2 10-3.1 2.1v22.7l19.6 11.3 3.4-1.6 15.8-7.4 15.7-33.8z"/>
    <path class="shape-3" d="M316.3 115l-10-14.3-2.1-3.1h-22.6l-11.3 19.6 1.5 3.4 7.4 15.8 33.8 15.8z"/>
    <path class="shape-3" d="M279.2 136.4l-15.8-7.3-3.4-1.6-19.6 11.3v22.6l3.1 2.2 14.2 10 37.2-3.3zM80.1 21.5l17.3-1.6 3.8-.3L112.5 0l-11.3-19.6-3.8-.3-17.3-1.6L49.5 0zM21.5 80.1l9.9 14.2 2.2 3.1h22.6l11.3-19.6-1.5-3.4-7.4-15.8-33.9-15.7z"/>
    <path class="shape-3" d="M58.6 58.6L74.4 66l3.4 1.5 19.6-11.3V33.6l-3.1-2.2-14.2-9.9-37.2 3.2zm-80.1 21.5l1.6 17.3.3 3.8L0 112.5l19.6-11.3.3-3.8 1.6-17.3L0 49.5zM80.1 368.6l17.3 1.5 3.8.4 11.3 19.6-11.3 19.5-3.8.4-17.3 1.5-30.6-21.4zM21.5 310l9.9-14.3 2.2-3.1h22.6l11.3 19.6-1.5 3.5-7.4 15.7-33.9 15.8zm37.1 21.4l15.8-7.3 3.4-1.6 19.6 11.3v22.6l-3.1 2.2-14.2 10-37.2-3.3z"/>
    <path class="shape-3" d="M-21.5 310l1.6-17.4.3-3.7L0 277.6l19.6 11.3.3 3.7 1.6 17.4L0 340.6zm617-288.5l-17.3-1.6-3.8-.3L563.1 0l11.3-19.6 3.8-.3 17.3-1.6L626.1 0zm58.6 58.6l-10 14.2-2.1 3.1h-22.6L608 77.8l1.6-3.4 7.4-15.8 33.8-15.7z"/>
    <path class="shape-3" d="M617 58.6L601.2 66l-3.4 1.5-19.6-11.3V33.6l3.1-2.2 14.2-9.9 37.2 3.3zm80 21.5l-1.5 17.3-.3 3.8-19.6 11.3-19.6-11.3-.3-3.8-1.6-17.3 21.5-30.6zM595.5 368.6l-17.3 1.5-3.8.4-11.3 19.6 11.3 19.5 3.8.4 17.3 1.5 30.6-21.4zm58.6-58.6l-10-14.3-2.1-3.1h-22.6L608 312.2l1.6 3.5 7.4 15.7 33.8 15.8zM617 331.4l-15.8-7.3-3.4-1.6-19.6 11.3v22.6l3.1 2.2 14.2 10 37.2-3.3zm80-21.4l-1.5-17.4-.3-3.7-19.6-11.3-19.6 11.3-.3 3.7-1.6 17.4 21.5 30.6z"/>
    <g>
      <path class="shape-4" d="M270.3 117.2l11.3-19.6h-56.4V73.8L206 62.7l-8.3 27-2.5 7.9-26.3-.1 13.2 22.8-5.6 6-19.3 20.7 19.3 11.1 20.6-11.9 28.2 48.8 11.3-19.6 3.8-.3 17.3-1.5-14.2-10-3.1-2.2v-22.6l-16 9.2-16.1-27.7h32.1v18.5l19.6-11.3 3.4 1.6 15.8 7.3-7.4-15.8zm-33.7 97.4L225.3 195l-28.2 48.8-20.6-11.9-19.2 11.1 24.9 26.6-13.3 22.9 26.3-.1 2.5 8 8.3 27 19.2-11.1v-23.9h56.4l-11.3-19.6 1.5-3.4 7.4-15.8-15.8 7.4-3.4 1.6-19.6-11.3v18.5h-32.1l16.1-27.8 16 9.3v-22.7l3.1-2.1 14.2-10-17.3-1.6zM-33.6 97.4h-22.6l28.1 48.8-20.6 11.9v22.2l27.5-6.3 8.1-1.8L0 195l13.1-22.8 8.1 1.8 27.5 6.4v-22.3l-20.6-11.9 28.1-48.8H33.6l-2.2-3.1-9.9-14.2-1.6 17.3-.3 3.8L0 112.5l16 9.2-16 27.8-16-27.8 16-9.2-19.6-11.3-.3-3.8-1.6-17.3-10 14.2z"/>
      <path class="shape-4" d="M67.5 77.8L56.2 97.4h56.4v23.9l19.2 11.1 10.6-35 26.5.1-13.3-22.7 5.7-6.1L180.5 48l-19.2-11.1-20.6 11.9L112.5 0l-11.3 19.6-3.8.3-17.3 1.6 14.2 9.9 3.1 2.2v22.6l16-9.2 16.1 27.8-32.1-.1V56.2L77.8 67.5 74.4 66l-15.8-7.4L66 74.4zM-33.6 292.6h-22.6l28.1-48.8-20.6-11.9v-22.2l27.5 6.3 8.1 1.9L0 195l13.1 22.9 8.1-1.9 27.5-6.3v22.2l-20.6 11.9 28.1 48.8H33.6l-2.2 3.1-9.9 14.3-1.6-17.4-.3-3.7L0 277.6l16-9.3-16-27.7-16 27.7 16 9.3-19.6 11.3-.3 3.7-1.6 17.4-10-14.3zm101.1 19.6l-11.3-19.6h56.4v-23.8l19.2-11.1 10.8 34.9 26.3-.1-13.3 22.8 5.7 6.1 19.2 20.7-19.2 11.1-20.6-12-28.2 48.9-11.3-19.6-3.8-.4-17.3-1.5 14.2-10 3.1-2.2v-22.6l16 9.3 16.1-27.8H97.4v18.5l-19.6-11.3-3.4 1.6-15.8 7.3 7.4-15.7zm337.8-195L394 97.6h56.4V73.8l19.2-11.1 8.3 27 2.4 7.9 26.4-.1-13.3 22.8 5.7 6 19.2 20.7-19.2 11.1-20.6-11.9-28.2 48.8-11.3-19.6-3.8-.3-17.3-1.5 14.2-10 3.1-2.2v-22.6l16 9.2 16.1-27.7h-32.1v18.5l-19.6-11.3-3.4 1.6-15.8 7.3 7.3-15.8zM304.2 97.6h-22.6l28.1-48.8-20.6-11.9V14.7l35.6 8.1L337.8 0l13.1 22.8 35.6-8.1v22.2l-20.6 11.9L394 97.6h-22.6l-2.2 3.1-9.9 14.3-1.6-17.4-.3-3.7-19.6-11.3 16-9.3-16-27.8-16 27.8 16 9.3-19.6 11.3-.3 3.7-1.6 17.4-10-14.3zm0 194.8h-22.6l28.1 48.8-20.6 12v22.2l35.5-8.3 13.2 23 13.2-23 35.5 8.3v-22.2l-20.6-12 28.1-48.8h-22.6l-2.2-3.1-9.9-14.2-1.6 17.3-.3 3.8-19.6 11.3 16 9.2-16 27.8-16-27.7 16-9.3-19.6-11.3-.3-3.8-1.6-17.3-10 14.2zM439 214.6l11.3-19.6 28.2 48.8 20.6-11.9 19.2 11.1-24.9 26.6 13.3 22.9-26.3-.1-2.5 8-8.3 27-19.2-11.1v-23.9H394l11.3-19.6-1.5-3.4-7.4-15.8 15.8 7.4 3.4 1.6 19.6-11.3v18.5h32.1L451.2 242l-16 9.3v-22.7l-3.1-2.1-14.2-10 17.3-1.6zM709.2 97.4h22.6l-28.1 48.8 20.6 11.9v22.2l-27.5-6.3-8.1-1.8-13.1 22.8-13.1-22.8-8.1 1.8-27.5 6.4v-22.3l20.6-11.9-28.1-48.8H642l2.1-3.1 10-14.2 1.6 17.3.3 3.8 19.6 11.3-16 9.2 16 27.8 16-27.8-16-9.2 19.6-11.3.3-3.8 1.5-17.3 10 14.2zM608 77.8l11.4 19.6H563v23.9l-19.2 11.1-10.6-35-26.5.1 13.2-22.7-5.6-6.1L495 48l19.3-11.1 20.6 11.9L563.1 0l11.3 19.6 3.8.3 17.3 1.6-14.2 10-3.1 2.1v22.6l-16-9.2-16.1 27.8 32.1-.1V56.2l19.6 11.3 3.4-1.5 15.8-7.4-7.4 15.8zm101.2 214.8h22.6l-28.1-48.8 20.6-11.9v-22.2l-27.5 6.3-8.1 1.9-13.1-22.9-13.1 22.9-8.1-1.9-27.5-6.3v22.2l20.6 11.9-28.1 48.8H642l2.1 3.1 10 14.3 1.6-17.4.3-3.7 19.6-11.3-16-9.3 16-27.7 16 27.7-16 9.3 19.6 11.3.3 3.7L697 310l10-14.3z"/>
      <path class="shape-4" d="M608 312.2l11.4-19.6H563v-23.8l-19.2-11.1-10.8 34.9-26.3-.1 13.2 22.8-5.6 6.1-19.3 20.7 19.3 11.1 20.6-12 28.2 48.9 11.3-19.6 3.8-.4 17.3-1.5-14.2-10-3.1-2.2v-22.6l-16 9.3-16.1-27.8h32.1v18.5l19.6-11.3 3.4 1.6 15.8 7.3-7.4-15.7z"/>
    </g>
    <g>
      <path class="shape-5" d="M208.3 120.3h32.1v18.5l-16 9.2zm0 149.5l16.1-27.8 16 9.3v18.5zM0 149.5l-16-27.8 16-9.2 16 9.2zm129.5-74.7l-32.1-.1V56.2l16-9.2zM0 240.6l-16 27.7 16 9.3 16-9.3zm129.5 74.7H97.4v18.5l16 9.3zm337.8-195h-32.1v18.5l16 9.2zM337.8 45.5l-16 27.8 16 9.3 16-9.3zm0 299l-16-27.7 16-9.3 16 9.2zm129.5-74.7L451.2 242l-16 9.3v18.5zm208.3-120.3l16-27.8-16-9.2-16 9.2zM546.1 74.8l32.1-.1V56.2l-16-9.2zm129.5 165.8l16 27.7-16 9.3-16-9.3zm-129.5 74.7h32.1v18.5l-16 9.3z"/>
    </g>
    <g>
      <path class="shape-6" d="M176.5 263.5L157.3 243l19.2-11.1v-22.2l-9.2 2.1L149 216l-13.8 3.2-7.6 1.8-5.3 5.6-9.7 10.4-12.8 13.8-6.4 6.9 10.3 6 8.9 5.1 19.3-11.1 8.3 27 2.4 7.9 26.3-.1 13.3-22.9zm-96.1-75.9L76.2 174l-5.5-18-2.8-9-10.3 6-8.9 5.1v22.2L21.2 174l-8.1-1.8L0 195l13.1 22.9 8.1-1.9 27.5-6.3v22.2l8.9 5.1 10.3 6 2.8-9 5.5-18 4.2-13.6 2.3-7.4zm101.7-67.3l-13.2-22.8-26.4-.1-2.5 8-8.2 26.9-10.3-5.9-8.9-5.1v-.1l-8.9 5.2-10.3 5.9 6.4 6.9 12.8 13.8 9.7 10.4 5.3 5.7 7.5 1.7L149 174l18.3 4.2 9.2 2.1v-22.2L157.2 147l19.3-20.7zM316.4-21.1l-27.3 6.4v-22.2l-8.9-5.1-10.3-6-2.8 9-5.5 18-4.2 13.5-2.3 7.5 2.3 7.4 4.2 13.6 5.5 18 2.8 9 10.3-6 8.9-5.1V14.6l27.6 6.4 8 1.8L337.8 0l-13.2-23zM202.7 24.2L188.8 21l-18.3-4.2-9.2-2.1v22.2L180.5 48l-19.2 20.7-5.7 6 13.3 22.8 26.3.1 2.5-7.9 8.3-27 19.2 11.1 8.9-5.2 10.3-5.9-6.4-6.9L225.2 42l-9.7-10.4-5.3-5.7zM316.4 369l-27.3 6.4v-22.2l-8.9-5.2-10.3-5.9-2.8 8.9-5.5 18-4.2 13.6-2.3 7.5 2.3 7.3 4.2 13.7 5.5 18 2.8 8.9 10.3-5.9 8.9-5.2v-22.2l27.6 6.3 8 1.9 13.1-22.8-13.2-23zm-121.2-76.6l-26.3.1-13.3 22.9 5.7 6.1 19.2 20.6-10.3 5.9-8.9 5.2v22.2l9.2-2.1 18.3-4.3 13.8-3.1 7.6-1.8 5.3-5.6v-.1l9.7-10.4 12.8-13.7 6.4-6.9-10.3-6-8.9-5.1-19.2 11.1-8.3-27zm303.9-28.9l19.2-20.5-19.2-11.1v-22.2l9.2 2.1 18.3 4.2 13.8 3.2 7.6 1.8 5.3 5.6L563 237l12.8 13.8 6.4 6.9-10.3 6-8.9 5.1-19.3-11.1-8.3 27-2.4 7.9-26.3-.1-13.3-22.9zm96.1-75.9l4.2-13.6 5.5-18 2.8-9 10.3 6 8.9 5.1v22.2l27.5-6.3 8.1-1.8 13.1 22.8-13.1 22.9-8.1-1.9-27.5-6.3v22.2L618 237l-10.3 6-2.8-9-5.5-18-4.2-13.6-2.3-7.4zm-101.8-67.3l13.3-22.8 26.4-.1 2.5 8 8.2 26.9 10.3-5.9 8.9-5.1v-.1l8.9 5.2 10.3 5.9-6.4 6.9L563 153l-9.7 10.4-5.3 5.7-7.5 1.7-13.9 3.2-18.3 4.2-9.2 2.1v-22.2l19.2-11.1-19.2-20.7zM359.2-21.1l27.3 6.4v-22.2l8.9-5.1 10.3-6 2.8 9 5.5 18 4.2 13.5 2.3 7.5-2.3 7.4L414 21l-5.5 18-2.8 9-10.3-6-8.9-5.1V14.6L358.9 21l-8 1.8L337.8 0 351-23z"/>
      <path class="shape-6" d="M472.9 24.2l13.9-3.2 18.3-4.2 9.2-2.1v22.2L495.1 48l19.2 20.7 5.7 6-13.3 22.8-26.4.1-2.4-7.9-8.3-27-19.2 11.1-8.9-5.2-10.3-5.9 6.4-6.9L450.4 42l9.7-10.4 5.3-5.7zM359.2 369l27.3 6.4v-22.2l8.9-5.2 10.3-5.9 2.8 8.9 5.5 18 4.2 13.6 2.3 7.5-2.3 7.3-4.2 13.7-5.5 18-2.8 8.9-10.3-5.9-8.9-5.2v-22.2l-27.6 6.3-8 1.9-13.1-22.8 13.2-23zm121.2-76.6l26.3.1 13.3 22.9-5.7 6.1-19.2 20.6 10.3 5.9 8.9 5.2v22.2l-9.2-2.1-18.3-4.3-13.8-3.1-7.6-1.8-5.3-5.6v-.1.1l-9.7-10.5-12.8-13.7-6.4-6.9 10.3-6 8.9-5.1 19.2 11.1 8.3-27z"/>
    </g>
    <g>
      <path class="shape-7" d="M223 191l-5.2-9-20.7-35.8-20.6 11.9v22.2l-9.2-2.1L149 174l-13.9-3.2-7.5-1.7 4.5 4.9 5.9 6.3 6.8 7.3 6.9 7.4-6.9 7.4-6.8 7.3-5.8 6.3-4.6 5 7.6-1.8L149 216l18.3-4.2 9.2-2.1v22.2l20.6 11.9 20.7-35.7 5.2-9.1 2.3-4zm-102 31.5l-8.4 1.9-9.7 2.2-9.9 2.3-2.9-9.7-2.9-9.5-2.6-8.2-1.9-6.5-2.3 7.4-4.2 13.6-5.5 18-2.8 9-10.3-6-8.9-5.1-20.6 11.9 20.6 35.8 5.2 9 2.3 4h56.4v-23.8l-8.9-5.1-10.3-6 6.4-6.9 12.8-13.8 9.7-10.4 5.3-5.6zm1.3-59.1l-9.7-10.4-12.8-13.8-6.4-6.9 10.3-5.9 8.9-5.2V97.4H56.2l-2.3 4-5.2 9.1-20.6 35.7 20.6 11.9 8.9-5.1 10.3-6 2.8 9 5.5 18 4.2 13.6 2.3 7.4 1.9-6.4 2.6-8.3 2.9-9.5 2.9-9.6 9.9 2.2 9.7 2.3 8.4 1.9 6.6 1.5zm130.9-157l-2.6 8.3-2.9 9.5-2.9 9.7-9.9-2.3-9.7-2.2-8.4-2-6.6-1.5 5.3 5.7 9.7 10.4L238 55.8l6.4 6.9-10.3 5.9-8.9 5.2v23.8h56.4l2.3-4 5.2-9 20.6-35.8-20.6-11.9-8.9 5.1-10.3 6-2.8-9-5.5-18-4.2-13.6-2.3-7.4zm-50.6-30.6L188.8-21l-18.3 4.2-9.2 2.1v-22.2l-20.6-11.9L120-13.1 114.8-4l-2.3 4 2.3 4 5.2 9.1 20.7 35.7 20.6-11.9V14.7l9.2 2.1 18.3 4.2 13.9 3.2 7.5 1.7-4.6-4.9-5.8-6.3-6.8-7.3-6.9-7.4 6.9-7.4 6.8-7.3 5.8-6.3 4.6-4.9zm74.3 316.6h-51.7v23.9l8.9 5.1 10.3 6-6.4 6.9-12.8 13.7-9.7 10.4v.1l-5.3 5.6 6.6-1.5 8.4-1.9 9.7-2.3 9.8-2.2 3 9.7 2.9 9.5 2.5 8.2 2 6.5 2.3-7.5 4.2-13.6 5.5-18 2.8-8.9 10.3 5.9 8.9 5.2 20.6-12-20.6-35.7-5.2-9.1-2.3-4zm-74.3 73.5l-13.8 3.1-18.3 4.3-9.2 2.1v-22.2l-20.6-12L120 377l-5.2 9.1-2.3 4 2.3 3.9 5.2 9.1 20.7 35.8 20.6-12v-22.2l9.2 2.1 18.3 4.3 13.9 3.2 7.5 1.7-4.6-4.9-5.8-6.4-6.8-7.3-6.9-7.3 6.9-7.5 6.8-7.2 5.8-6.3 4.6-5zm250-174.9l5.2-9 20.7-35.8 20.6 11.9v22.2l9.2-2.1 18.3-4.2 13.9-3.2 7.5-1.7-4.6 4.9-5.8 6.3-6.8 7.3-6.9 7.4 6.9 7.4 6.8 7.3 5.8 6.3 4.6 5-7.6-1.8-13.8-3.2-18.3-4.2-9.2-2.1v22.2l-20.6 11.9-20.7-35.7-5.2-9.1-2.3-4zm101.9 31.5l8.5 1.9 9.7 2.2 9.8 2.3 3-9.7 2.9-9.5 2.6-8.2 1.9-6.5 2.3 7.4 4.2 13.6 5.5 18 2.8 9 10.3-6 8.9-5.1 20.6 11.9-20.6 35.8-5.2 9-2.4 4H563v-23.8l8.9-5.1 10.3-6-6.4-6.9L563 237l-9.7-10.4-5.3-5.6zm-1.2-59.1L563 153l12.8-13.8 6.4-6.9-10.3-5.9-8.9-5.2V97.4h56.3l2.4 4 5.2 9.1 20.6 35.7-20.6 11.9-8.9-5.1-10.3-6-2.8 9-5.5 18-4.2 13.6-2.3 7.4-1.9-6.4-2.6-8.3-2.9-9.5-3-9.6-9.8 2.2-9.7 2.3-8.4 1.9-6.6 1.5zM422.4 6.4l2.6 8.3 2.9 9.5 2.9 9.7 9.9-2.3 9.7-2.2 8.4-2 6.6-1.5-5.3 5.7-9.7 10.4-12.8 13.8-6.4 6.9 10.3 5.9 8.9 5.2v23.8H394l-2.3-4-5.2-9-20.6-35.8 20.6-11.9 8.9 5.1 10.3 6 2.8-9 5.5-18 4.2-13.6 2.3-7.4zM473-24.2l13.8 3.2 18.3 4.2 9.2 2.1v-22.2l20.6-11.9L555.6-13l5.2 9 2.3 4-2.3 4-5.2 9.1-20.7 35.7-20.6-11.9V14.7l-9.2 2.1-18.3 4.2-13.9 3.2-7.5 1.7 4.5-4.9 5.9-6.3 6.8-7.3 6.9-7.4-6.9-7.4-6.8-7.3L470-21l-4.6-4.9zm-74.3 316.6h51.7v23.9l-8.9 5.1-10.3 6 6.4 6.9 12.8 13.7 9.7 10.5 5.3 5.6-6.6-1.5-8.4-1.9-9.7-2.2-9.9-2.3-2.9 9.7-2.9 9.5-2.6 8.2-1.9 6.5-2.3-7.5L414 369l-5.5-18-2.8-8.9-10.3 5.9-8.9 5.2-20.6-12 20.6-35.7 5.2-9.1 2.3-4zm74.3 73.5l13.8 3.1 18.3 4.3 9.2 2.1v-22.2l20.6-12 20.7 35.8 5.2 9.1 2.3 4-2.3 3.9-5.2 9.1-20.7 35.8-20.6-12v-22.2l-9.2 2.1-18.3 4.3-13.9 3.2-7.5 1.7 4.5-4.9 5.9-6.4 6.8-7.3 6.9-7.3-6.9-7.5-6.8-7.2-5.8-6.3-4.6-5z"/>
    </g>
    <g>
      <path class="shape-8" d="M144.8 187.6l-6.8-7.3-5.9-6.3-4.5-5-6.6-1.4-8.4-2-9.7-2.2-9.9-2.2-3 9.6-2.8 9.5-2.6 8.3-2 6.4 2 6.5 2.6 8.2 2.9 9.5 3 9.7 9.8-2.3 9.7-2.2 8.4-2 6.6-1.4 4.6-5 5.8-6.3 6.8-7.3 7-7.4-7-7.4zm-32 7.5h-.2v-.1l.1.1zM234.9-31.6l-9.7 2.2-8.4 2-6.6 1.5-4.6 5-5.8 6.2-6.8 7.3-7 7.4 7 7.4 6.8 7.3 5.8 6.3 4.6 5 6.6 1.4 8.4 2 9.7 2.2 9.9 2.3 3-9.7 2.8-9.5 2.6-8.3 2-6.4-2-6.5-2.6-8.2-2.9-9.5-3-9.7-9.8 2.3zM225.3-.1h-.1V0h.1zm9.6 358.5l-9.7 2.3-8.4 2-6.6 1.4-4.6 5-5.8 6.3-6.8 7.2-7 7.5 7 7.3 6.8 7.3 5.8 6.4 4.6 4.9 6.6 1.5 8.4 2 9.7 2.2 9.8 2.2 3-9.6 3-9.6 2.5-8.2 2-6.4-2-6.5-2.6-8.2-2.9-9.5-3-9.7-9.8 2.3zm-9.6 31.6h-.1.1zm298.6-195l6.9 7.4 6.8 7.3 5.8 6.3 4.6 5 6.5 1.5 8.5 1.9 9.7 2.2 9.8 2.3 3-9.7 3-9.5 2.5-8.2 2-6.5-2-6.4-2.6-8.3-2.9-9.5-3-9.6-9.8 2.2-9.7 2.3-8.4 1.9-6.6 1.5-4.6 5-5.8 6.2-6.8 7.3-7 7.4zm39 0h.1l-.2.1h.1zM430.8-33.9l-3 9.7-2.8 9.5-2.6 8.2-2 6.5 2 6.4 2.6 8.3 2.9 9.5 3 9.7 9.8-2.3 9.7-2.2 8.4-2 6.6-1.5 4.5-4.9 6-6.3 6.7-7.3 6.9-7.4-6.9-7.4-6.8-7.3L470-21l-4.6-5-6.6-1.4-8.4-2-9.7-2.2-9.9-2.3zM450.3 0h.1-.2.1zm-19.5 356.2l-3 9.7-2.8 9.5-2.6 8.2-2 6.5 2 6.4 2.6 8.2 2.9 9.6 3 9.6 9.8-2.2 9.7-2.3 8.4-2 6.6-1.4 4.5-5 6-6.3 6.7-7.3 6.9-7.3-6.9-7.5-6.8-7.2-5.8-6.3-4.6-5-6.6-1.5-8.4-2-9.7-2.1-9.9-2.3zm19.5 33.8h.1-.2.1z"/>
    </g>
  </g>
  <g class="guides">
    <circle cx="337.8" cy="195" r="112.5"/>
    <circle cx="675.6" cy="390.1" r="112.5"/>
    <circle cx="675.6" r="112.5"/>
    <circle cy="390.1" r="112.5"/>
    <circle r="112.5"/>
    <path d="M-15.2 195L176.5 84.3v221.4z"/>
    <path d="M-97.4 446.3V333.8L0 277.6l97.4 56.2v112.5L0 502.5zM56.2 292.6L-.1 195l56.3-97.6H169l56.3 97.6-56.3 97.6zm56.4 0V97.4M28.1 243.8l169-97.6m-169 0l169 97.6M-97.4 56.2V-56.2L0-112.5l97.4 56.3V56.2L0 112.5z"/>
    <path d="M0 0h675.6v390.1H0zm337.8 390.1V0M225.2 390.1L450.4 0M0 390.1L225.2 0m225.2 390.1L675.6 0M450.4 390.1L225.2 0m0 390.1L0 0m675.6 390.1L450.4 0m225.2 195H0"/>
    <path d="M0 0l337.8 195L0 390.1zm675.6 0L337.8 195l337.8 195.1z"/>
    <path d="M112.6 292.6L48.7 84.4l148.4 159.4"/>
    <path d="M112.6 97.4L48.7 305.7l148.4-159.5M140.6 438.8L353 390l-212.4-48.8m148.5 34.2l-163.4 37.5m163.4-8.2l-163.4-37.5m80.2 85.5l49.2-160.3m-74.6 145.7l114.2-122.8M180.5 342l114.2 122.8m-88.8-137.4l49.2 160.2M140.7 48.8L353 0 140.7-48.8m148.4 34.1L125.7 22.9m163.4-8.2L125.7-22.9M206 62.7l49.2-160.3M180.5 48L294.8-74.7M180.5-48L294.8 74.8M206-62.7l49.2 160.3"/>
    <path d="M161.3 279.4L353 390 161.3 500.7zM161.3-110.6L353 0 161.3 110.7z"/>
    <path d="M168.8 487.7L112.5 390l56.3-97.6h112.7l56.4 97.6-56.4 97.7zm56.4 0V292.4m-84.6 146.4l169.1-97.6m-169.1 0l169.1 97.6M168.8 97.6L112.5 0l56.3-97.6h112.8L337.9 0l-56.3 97.6zm56.4 0V-97.6M140.7 48.8l169-97.6m-169 0l169 97.6"/>
    <path d="M225.2 292.4l-63.9 208.3 148.4-159.5"/>
    <path d="M225.2 487.7l-63.9-208.3 148.4 159.4M225.2 97.6l-63.9-208.2L309.7 48.8"/>
    <path d="M225.2-97.6l-63.9 208.3L309.7-48.8M240.4 251.3V138.8l97.4-56.2 97.4 56.2v112.5l-97.4 56.2zM-56.2 97.4L-112.5 0l56.3-97.4H56.2L112.5 0 56.2 97.4z"/>
    <path d="M28.1 243.8L240.4 195 28.1 146.2m148.4 34.1L13.1 217.9m163.4-8.2L13.1 172.2m80.3 85.5l49.2-160.3M67.9 243l114.3-122.7M67.9 147l114.3 122.8M93.4 132.3l49.2 160.3"/>
    <path d="M281.6 292.4L225.3 195l56.3-97.4H394l56.3 97.4-56.3 97.4zM322.6 0l191.7-110.7v221.4zM322.6 390l191.7-110.6v221.3z"/>
    <path d="M365.9 438.8L578.2 390l-212.3-48.8m148.4 34.2l-163.4 37.5m163.4-8.2l-163.4-37.5m80.3 85.5l49.1-160.3m-74.6 145.7L520 315.3M405.7 342L520 464.8m-88.8-137.4l49.1 160.2M365.9 48.8L578.2 0 365.9-48.8m148.4 34.1L350.9 22.9m163.4-8.2L350.9-22.9m80.3 85.6l49.1-160.3M405.7 48L520-74.7M405.7-48L520 74.7M431.2-62.7l49.1 160.3"/>
    <path d="M386.5 279.4L578.2 390 386.5 500.7zM386.5-110.7L578.2 0 386.5 110.7z"/>
    <path d="M394 487.7L337.7 390l56.3-97.6h112.7l56.4 97.6-56.4 97.7zm56.4 0V292.4m-84.5 146.4l169-97.6m-169 0l169 97.6M394 97.6L337.7 0 394-97.6h112.7L563.1 0l-56.4 97.6zm56.4 0V-97.6M365.9 48.8l169-97.6m-169 0l169 97.6M435.2 195L626.9 84.4v221.3z"/>
    <path d="M450.4 292.4l-63.9 208.3 148.4-159.5"/>
    <path d="M450.4 487.7l-63.9-208.3 148.4 159.4M450.4 97.6l-63.9-208.3L534.9 48.8"/>
    <path d="M450.4-97.6l-63.9 208.3L534.9-48.8M478.4 243.8L690.8 195l-212.4-48.8m148.5 34.1l-163.4 37.6m163.4-8.2l-163.4-37.5m80.3 85.5l49.1-160.3M518.3 243l114.2-122.7M518.3 147l114.2 122.8m-88.7-137.5l49.1 160.3M48.7 84.4L240.4 195 48.7 305.7z"/>
    <path d="M499.1 84.4L690.8 195 499.1 305.7z"/>
    <path d="M506.6 292.6L450.3 195l56.3-97.6h112.7l56.4 97.6-56.4 97.6zm56.4 0V97.4m-84.6 146.4l169.1-97.6m-169.1 0l169.1 97.6"/>
    <path d="M563 292.6L499.1 84.4l148.4 159.4"/>
    <path d="M563 97.4l-63.9 208.3 148.4-159.5M578.2 446.3V333.8l97.4-56.2 97.4 56.2v112.5l-97.4 56.2zm-634.4 41.1l-56.3-97.4 56.3-97.4H56.2l56.3 97.4-56.3 97.4zM578.2 56.2V-56.2l97.4-56.3L773-56.2V56.2l-97.4 56.3z"/>
    <path d="M619.4 487.5l-56.3-97.4 56.3-97.4h112.4l56.3 97.4-56.3 97.4zM619.4 97.4L563.1 0l56.3-97.4h112.4L788.1 0l-56.3 97.4zM97.4 0l191.7-110.7v221.4zM97.4 390l191.7-110.6v221.3z"/>
  </g>
</svg>
