<svg xmlns="http://www.w3.org/2000/svg" width="338.2" height="585.8" viewBox="0 0 338.2 585.8">
  <style>
    :root {
      --emerald: #216554;
      --white: #FFFAF2;
      --lightBlue: #2295CE;
      --gold: #CEA600;
      --black: #443430;
    }
    .shape-1{fill:var(--lightBlue)}
    .shape-2{fill:var(--white)}
    .shape-3{fill:var(--emerald)}
    .shape-4{fill:var(--white)}
    .shape-5{fill:var(--gold)}
    .shape-6{fill:var(--lightBlue)}
    .shape-7{fill:var(--white)}
    .shape-8{fill:var(--lightBlue)}
    .shape-9{fill:var(--emerald)}
    .guides{ stroke: #4FFF4F; display: none; fill: none}
  </style>
  <g id="pattern" class="line">
    <path class="shape-1" d="M192.9 292.9l8.7-8.7-11.9-3.2 3.2-11.9-11.9 3.2-3.2-12-8.7 8.8-8.7-8.8-3.2 12-11.9-3.2 3.2 11.9-11.9 3.2 8.7 8.7-8.7 8.7 11.9 3.2-3.2 11.9 11.9-3.2 3.2 11.9 8.7-8.7 8.7 8.7 3.2-11.9 11.9 3.2-3.2-11.9 11.9-3.2zM23.8 0l8.7-8.7-11.9-3.2 3.2-11.9-11.9 3.2-3.2-11.9L0-23.8l-8.7-8.7-3.2 11.9-11.9-3.2 3.2 11.9-11.9 3.2 8.7 8.7-8.7 8.7 11.9 3.2-3.2 11.9 11.9-3.2 3.2 11.9L0 23.8l8.7 8.7 3.2-11.9 11.9 3.2-3.2-11.9 11.9-3.2zM362 0l8.7-8.7-11.9-3.2 3.2-11.9-11.9 3.2-3.2-11.9-8.7 8.7-8.7-8.7-3.2 11.9-11.9-3.2 3.2 11.9-11.9 3.2 8.7 8.7-8.7 8.7 11.9 3.2-3.2 11.9 11.9-3.2 3.2 11.9 8.7-8.7 8.7 8.7 3.2-11.9 11.9 3.2-3.2-11.9 11.9-3.2zM23.8 585.8l8.7 8.7-11.9 3.2 3.2 11.9-11.9-3.2-3.2 11.9-8.7-8.7-8.7 8.7-3.2-11.9-11.9 3.2 3.2-11.9-11.9-3.2 8.7-8.7-8.7-8.7 11.9-3.2-3.2-11.9 11.9 3.1 3.2-11.9L0 562l8.7-8.8 3.2 11.9 11.9-3.1-3.2 11.9 11.9 3.2zm338.2 0l8.7 8.7-11.9 3.2 3.2 11.9-11.9-3.2-3.2 11.9-8.7-8.7-8.7 8.7-3.2-11.9-11.9 3.2 3.2-11.9-11.9-3.2 8.7-8.7-8.7-8.7 11.9-3.2-3.2-11.9 11.9 3.1 3.2-11.9 8.7 8.8 8.7-8.8 3.2 11.9L362 562l-3.2 11.9 11.9 3.2z"/>
    <path class="shape-2" d="M201.6 284.2l23.9-23.9-32.6 8.8-3.2 11.9zm-41.2-23.9l-23.8-23.8 8.7 32.6 11.9 3.2zm32.5 8.8l8.7-32.6-23.8 23.8 3.2 12z"/>
    <path class="shape-2" d="M177.8 260.3l-8.7-32.5-8.7 32.5 8.7 8.8zm-41.2 23.9l-32.6 8.7 32.6 8.7 8.7-8.7zm8.7-15.1l-32.6-8.8 23.9 23.9 11.9-3.2zm15.1 56.3l8.7 32.6 8.7-32.6-8.7-8.7zm17.4 0l23.8 23.9-8.7-32.6-11.9-3.2zm-41.2-23.8l-23.9 23.8 32.6-8.7 3.2-11.9z"/>
    <path class="shape-2" d="M145.3 316.7l-8.7 32.6 23.8-23.9-3.2-11.9zm47.6 0l32.6 8.7-23.9-23.8-11.9 3.2zm0-23.8l8.7 8.7 32.6-8.7-32.6-8.7zM-8.7 32.5L0 65.1l8.7-32.6L0 23.8zm17.4 0l23.8 23.9-8.7-32.6-11.9-3.2z"/>
    <path class="shape-2" d="M23.8 23.8l32.6 8.7L32.5 8.7l-11.9 3.2zm0-23.8l8.7 8.7L65.1 0 32.5-8.7zm281.9-8.7L273.1 0l32.6 8.7 8.7-8.7zm23.8 41.2l8.7 32.6 8.7-32.6-8.7-8.7zM305.7 8.7l-23.9 23.8 32.6-8.7 3.2-11.9z"/>
    <path class="shape-2" d="M314.4 23.8l-8.7 32.6 23.8-23.9-3.2-11.9zM-8.7 553.2L0 520.7l8.7 32.5L0 562zm17.4 0l23.8-23.8-8.7 32.6-11.9 3.1z"/>
    <path class="shape-2" d="M23.8 562l32.6-8.8-23.9 23.9-11.9-3.2z"/>
    <path class="shape-2" d="M23.8 585.8l8.7-8.7 32.6 8.7-32.6 8.7zm281.9 8.7l-32.6-8.7 32.6-8.7 8.7 8.7zm23.8-41.3l8.7-32.5 8.7 32.5-8.7 8.8z"/>
    <path class="shape-2" d="M305.7 577.1l-23.9-23.9 32.6 8.8 3.2 11.9z"/>
    <path class="shape-2" d="M314.4 562l-8.7-32.6 23.8 23.8-3.2 11.9z"/>
    <path class="shape-3" d="M136.6 301.6l-32.6-8.7-19.4 5.2v17.4l8.7 15.1 19.4-5.2z"/>
    <path class="shape-3" d="M145.3 316.7l-32.6 8.7-14.2 14.3 8.7 15.1 15.1 8.7 14.3-14.2zm-8.7-32.5l-23.9-23.9-19.4-5.2-8.7 15.1v17.5l19.4 5.2zm8.7-15.1l-8.7-32.6-14.3-14.2-15.1 8.7-8.7 15.1 14.2 14.2zm15.1-8.8l8.7-32.5-5.2-19.5h-17.5l-15.1 8.8 5.3 19.4zm41.2 41.3l23.9 23.8 19.4 5.2 8.8-15.1v-17.4l-19.5-5.2zm-23.8 23.8l-8.7 32.6 5.2 19.4h17.5l15.1-8.7-5.3-19.4z"/>
    <path class="shape-3" d="M160.4 325.4l-23.8 23.9-5.3 19.4 15.1 8.7h17.5l5.2-19.4zm32.5-8.7l8.7 32.6 14.3 14.2 15.1-8.7 8.7-15.1-14.2-14.3zm0-47.6l32.6-8.8 14.2-14.2L231 231l-15.1-8.7-14.3 14.2z"/>
    <path class="shape-3" d="M177.8 260.3l23.8-23.8 5.3-19.4-15.1-8.8h-17.5l-5.2 19.5zm23.8 23.9l32.6 8.7 19.5-5.2v-17.5l-8.8-15.1-19.4 5.2zM32.5 8.7l23.9 23.8 19.4 5.3 8.8-15.1V5.2L65.1 0zM8.7 32.5L0 65.1l5.2 19.4h17.5l15.1-8.7-5.3-19.4z"/>
    <path class="shape-3" d="M23.8 23.8l8.7 32.6 14.3 14.2 15.1-8.7 8.7-15.1-14.2-14.3zM305.7 8.7L273.1 0l-19.4 5.2v17.5l8.7 15.1 19.4-5.3z"/>
    <path class="shape-3" d="M314.4 23.8l-32.6 8.7-14.2 14.3 8.7 15.1 15.1 8.7 14.3-14.2zm15.1 8.7l-23.8 23.9-5.3 19.4 15.1 8.8H333l5.2-19.5zm-297 544.6l23.9-23.9 19.4-5.2 8.8 15.1v17.5l-19.5 5.2zM8.7 553.2L0 520.7l5.2-19.5h17.5l15.1 8.7-5.3 19.5z"/>
    <path class="shape-3" d="M23.8 562l8.7-32.6 14.3-14.2 15.1 8.7 8.7 15.1-14.2 14.2zm281.9 15.1l-32.6 8.7-19.4-5.2v-17.5l8.7-15.1 19.4 5.2zm8.7-15.1l-32.6-8.8-14.2-14.2 8.7-15.1 15.1-8.7 14.3 14.2z"/>
    <path class="shape-3" d="M329.5 553.2l-23.8-23.8-5.3-19.5 15.1-8.7H333l5.2 19.5z"/>
    <path class="shape-4" d="M253.7 270.2v17.5l-19.5 5.2 19.5 5.2v17.4l13-22.6zm-141 55.2l-19.4 5.2-8.7-15.1v26.2l22.6 13.1-8.7-15.1z"/>
    <path class="shape-4" d="M104 292.9l-19.4-5.2v-17.5l-13.1 22.7 13.1 22.6v-17.4zm32.6-56.4l-5.3-19.4 15.1-8.8h-26.1L107.2 231l15.1-8.7z"/>
    <path class="shape-4" d="M112.7 260.3l-14.2-14.2 8.7-15.1-22.6 13.1v26.1l8.7-15.1zm23.9 89l-14.3 14.2-15.1-8.7 13.1 22.6h26.1l-15.1-8.7zm88.9-23.9l14.2 14.3-8.7 15.1 22.7-13.1v-26.2l-8.8 15.1z"/>
    <path class="shape-4" d="M201.6 349.3l5.3 19.4-15.1 8.7h26.1l13.1-22.6-15.1 8.7zm-32.5 8.7l-5.2 19.4h-17.5l22.7 13.1 22.7-13.1h-17.5zm0-130.2l5.2-19.5h17.5l-22.7-13-22.7 13h17.5zm56.4 32.5l19.4-5.2 8.8 15.1v-26.1L231 231l8.7 15.1zm-23.9-23.8l14.3-14.2L231 231l-13.1-22.7h-26.1l15.1 8.8zM84.6-22.7v17.5L65.1 0l19.5 5.2v17.5L97.6 0zM56.4 32.5l14.2 14.3-8.7 15.1 22.7-13.1V22.7l-8.8 15.1z"/>
    <path class="shape-4" d="M32.5 56.4l5.3 19.4-15.1 8.7h26.1l13.1-22.6-15.1 8.7z"/>
    <path class="shape-4" d="M0 65.1l-5.2 19.4h-17.5L0 97.6l22.7-13.1H5.2zm281.8-32.6l-19.4 5.3-8.7-15.1v26.1l22.6 13.1-8.7-15.1zM273.1 0l-19.4-5.2v-17.5L240.6 0l13.1 22.7V5.2z"/>
    <path class="shape-4" d="M305.7 56.4l-14.3 14.2-15.1-8.7 13.1 22.7h26.1l-15.1-8.8zm32.5 8.7L333 84.6h-17.5l22.7 13 22.7-13h-17.5zM84.6 608.4V591l-19.5-5.2 19.5-5.2v-17.5l13 22.7z"/>
    <path class="shape-4" d="M56.4 553.2L70.6 539l-8.7-15.1L84.6 537v26.1L75.8 548z"/>
    <path class="shape-4" d="M32.5 529.4l5.3-19.5-15.1-8.7h26.1l13.1 22.7-15.1-8.7zM0 520.7l-5.2-19.5h-17.5L0 488.1l22.7 13.1H5.2zm281.8 32.5l-19.4-5.2-8.7 15.1V537l22.6-13.1-8.7 15.1z"/>
    <path class="shape-4" d="M273.1 585.8l-19.4 5.2v17.4l-13.1-22.6 13.1-22.7v17.5zm32.6-56.4l-14.3-14.2-15.1 8.7 13.1-22.7h26.1l-15.1 8.7zm32.5-8.7l-5.2-19.5h-17.5l22.7-13.1 22.7 13.1h-17.5z"/>
    <path class="shape-5" d="M116.3 164.8v-24.5l-21.2 12.2-10.5-6.1v12.3l-21.2 12.2 21.2 12.2v61l22.6-13.1 13.1-22.7h-14.6v-25.2l21.9 12.6-7.3 12.6h26.1l22.7-13zm-63.5-36.7v24.4L74 140.3l10.6 6.1v-12.2l21.1-12.2-21.1-12.2v-61L61.9 61.9 48.8 84.6h14.6v25.2L41.5 97.2l7.3-12.6H22.7L0 97.6zm200.9-18.3L232.5 122l21.2 12.2v12.2l10.5-6.1 21.2 12.2v-24.4l52.8-30.5-22.7-13.1h-26.1l7.3 12.7-21.9 12.6V84.6l14.6-.1-13.1-22.6-22.6-13.1zm0 73.3l21.1-12.2-21.1-12.3v-12.2l-10.6 6.1-21.2-12.2v24.5l-52.8 30.5 22.7 13h26.1l-7.3-12.6 21.9-12.6v25.2h-14.6L231 231l22.7 13.1zM137.4 18.3l21.1 12.2V6.1L169.1 0l-10.6-6.1v-24.4l-21.1 12.2-52.8-30.5v26.1L97.6 0l7.3-12.6L126.8 0l-21.9 12.6L97.6 0l-13 22.7v26.1zm63.4-36.6l-21.1-12.2v24.4L169.1 0l10.6 6.1v24.4l21.1-12.2 52.9 30.5V22.7L240.6 0l-7.3 12.6L211.4 0l21.9-12.6L240.6 0l13.1-22.7v-26.1zM116.3 421v24.4l-21.2-12.2-10.5 6.1-.1-12.2-21.1-12.2 21.1-12.2v-61l22.7 13.1 13.1 22.6h-14.6v25.3l21.9-12.6-7.3-12.7h26.1l22.7 13.1z"/>
    <path class="shape-5" d="M52.8 457.6v-24.4L74 445.4l10.6-6.1v12.2l21.1 12.2-21.1 12.2V537l-22.7-13.1-13.1-22.7h14.6v-25.3l-21.9 12.7 7.3 12.6H22.7L0 488.1zm200.9 18.3l-21.2-12.2 21.2-12.2v-12.2l10.5 6.1 21.2-12.2v24.4l52.8 30.5-22.7 13.1h-26.1l7.3-12.6-21.9-12.7v25.3h14.6l-13.1 22.7-22.6 13.1zm0-73.2l21.1 12.2-21.1 12.2v12.2l-10.6-6.1-21.2 12.2V421l-52.8-30.5 22.7-13.1h26.1l-7.3 12.7 21.9 12.6v-25.3h-14.6l13.1-22.6 22.7-13.1zM137.4 567.5l21.1-12.2v24.4l10.6 6.1-10.6 6.1v24.4l-21.1-12.2-52.9 30.5v-26.2l13.1-22.6 7.3 12.6 21.9-12.6-21.9-12.7-7.3 12.7-13.1-22.7V537zm63.4 36.6l-21.1 12.2v-24.4l-10.6-6.1 10.6-6.1v-24.4l21.1 12.2 52.8-30.5v26.1l-13 22.7-7.3-12.7-21.9 12.7 21.9 12.6 7.3-12.6 13 22.6v26.2zM31.7 274.6l-21.1-12.2v24.4L0 292.9l10.6 6.1v24.4l21.1-12.2 52.9 30.5v-26.2l-13.1-22.6-7.3 12.6-21.9-12.6 21.9-12.7 7.3 12.7 13.1-22.7v-26.1z"/>
    <path class="shape-5" d="M306.5 311.2l21.1 12.2V299l10.6-6.1-10.6-6.1v-24.4l-21.1 12.2-52.8-30.5v26.1l13 22.7 7.3-12.7 21.9 12.7-21.9 12.6-7.3-12.6-13 22.6v26.2z"/>
    <path class="shape-6" d="M105.7 183.1v25.2h14.6l7.3-12.6zm-42.3-73.3V84.6H48.8l-7.3 12.6zm211.4 0l21.9-12.6-7.3-12.7-14.6.1zm-42.3 73.3l-21.9 12.6 7.3 12.6h14.6zM126.8 0l-21.9-12.6L97.6 0l7.3 12.6zm84.6 0l21.9 12.6L240.6 0l-7.3-12.6zM105.7 402.7v-25.3h14.6l7.3 12.7zm-42.3 73.2v25.3H48.8l-7.3-12.6zm211.4 0l21.9 12.7-7.3 12.6h-14.6zm-42.3-73.2l-21.9-12.6 7.3-12.7h14.6zM126.8 585.8l-21.9 12.6-7.3-12.6 7.3-12.7zm84.6 0l21.9-12.7 7.3 12.7-7.3 12.6zM42.3 292.9l21.9 12.6 7.3-12.6-7.3-12.7zm253.6 0L274 280.2l-7.3 12.7 7.3 12.6z"/>
    <path class="shape-7" d="M221.9 54.9l-21.1 12.2-21.1 12.2-10.6 6.1-31.7-18.3-21.1-12.2V30.5L84.6 48.8v36.6l21.1-12.2 21.1 12.2 31.7 18.3v61.1L137.4 177l31.7 18.3 31.7-18.3-21.1-12.2v-61.1l10.5-6.1 21.2-12.2 21.1-12.2 21.2 12.2V48.8l-31.8-18.3zm-232.5 73.2v61.1l-31.7 18.3-21.1 12.2-21.1-12.2v36.6l31.7 18.3V238l21.1-12.2L0 207.5l10.6 6.1 21.1 12.2L52.8 238v24.4l31.8-18.3v-36.6l-21.2 12.2-21.1-12.2-21.2-12.2-10.5-6.1v-61.1l21.1-12.2L0 97.6l-31.7 18.3zm338.2 0v61.1l-31.7 18.3-21.1 12.2-21.1-12.2v36.6l31.7 18.3V238l21.1-12.2 31.7-18.3 10.6 6.1 21.1 12.2L391 238v24.4l31.8-18.3v-36.6l-21.2 12.2-21.1-12.2-21.2-12.2-10.5-6.1v-61.1l21.1-12.2-31.7-18.3-31.7 18.3zM221.9 530.9l-21.1-12.2-21.1-12.2-10.6-6.1-31.7 18.3-21.1 12.2v24.4L84.6 537v-36.6l21.1 12.2 21.1-12.2 31.7-18.4v-61l-21.1-12.2 31.7-18.3 31.7 18.3-21.1 12.2v61l10.5 6.1 21.2 12.3 21.1 12.2 21.1-12.2.1 36.6-31.8 18.3zm-232.5-73.3v-61l-31.7-18.3-21.1-12.2-21.1 12.2v-36.6l31.7-18.3v24.4l21.1 12.2L0 378.3l10.6-6.1L31.7 360l21.1-12.2v-24.4l31.7 18.3v36.6l-21.1-12.2-21.1 12.2-21.2 12.2-10.5 6.1v61l21.1 12.2L0 488.1l-31.7-18.3zm338.2 0v-61l-31.7-18.3-21.1-12.2-21.1 12.2v-36.6l31.7-18.3v24.4l21.1 12.2 31.7 18.3 10.6-6.1 21.1-12.2 21.1-12.2v-24.4l31.8 18.3v36.6l-21.2-12.2-21.1 12.2-21.2 12.2-10.5 6.1v61l21.1 12.2-31.7 18.3-31.7-18.3z"/>
    <path class="shape-8" d="M158.5 140.3l-21.1-12.2-21.1 12.2v24.5l21.1 12.2 21.1-12.2zm21.2-85.4l21.1 12.2 21.1-12.2V30.5l-21.1-12.2-21.1 12.2zm42.2 85.4l-21.1-12.2-21.1 12.2v24.5l21.1 12.2 10.6-6.1 10.5-6.1zM116.3 30.5v24.4l21.1 12.2L148 61l10.5-6.1V30.5l-21.1-12.2zm137.4 79.3V85.4l-21.2-12.2-21.1 12.2v24.4l21.1 12.2zm-148 12.2l21.1-12.2V85.4l-21.1-12.2-21.1 12.2v24.4zm-74 103.8L10.6 238v24.4l21.1 12.2 21.1-12.2V238zm31.7-54.9l-21.1 12.2v24.4l21.1 12.2 21.2-12.2v-24.4zm-10.6-42.8l-21.1-12.2-21.1 12.2v24.4l21.1 12.3 21.1-12.3zm253.7 36.7l21.1-12.3v-24.4l-21.1-12.2-21.1 12.2v24.4zm-52.8 42.7l21.1 12.2 21.1-12.2v-24.4l-21.1-12.2-21.1 12.2zm73.9 54.9V238l-10.5-6.1-10.6-6.1-21.1 12.2v24.4l.1.1 21 12.1zm-169.1 183l-21.1 12.2-21.1-12.2V421l21.1-12.2 21.1 12.2zm21.2 85.5l21.1-12.2 21.1 12.2v24.4l-21.1 12.2-21.1-12.2zm42.2-85.5l-21.1 12.2-21.1-12.2V421l21.1-12.2 10.6 6.1 10.5 6.1zM116.3 555.3v-24.4l21.1-12.2 10.6 6.1 10.5 6.1v24.4l-21.1 12.2zm137.4-79.4l-.1 24.5-21.1 12.2-21.1-12.2v-24.5l21.1-12.2zm-148-12.2l21.1 12.2v24.5l-21.1 12.2-21.1-12.2v-24.5zM31.7 360l-21.1-12.2v-24.4l21.1-12.2 21.1 12.2v24.4zm31.7 54.9l-21.1-12.2v-24.4l21.1-12.2 21.1 12.2v24.4zm-10.6 42.7l-21.1 12.2-21.1-12.2v-24.4L31.7 421l21.1 12.2zM306.5 421l21.1 12.2v24.4l-21.1 12.2-21.1-12.2v-24.4zm-52.8-42.7l21.1-12.2 21.1 12.2v24.4l-21.1 12.2-21.1-12.2zm73.9-54.9v24.4l-10.5 6.1-10.6 6.1-21.1-12.2v-24.4l.1-.1 21-12.1z"/>
    <path class="shape-9" d="M158.5 103.7L148 97.6l-21.2-12.2v24.4L105.7 122l-21.1 12.2v12.2l10.5 6.1 42.3-24.4 21.1 12.2v-24.4zm21.2-97.6L169.1 0l-10.6 6.1v48.8L148 61l-10.6 6.1 21.1 12.2 10.6 6.1 10.6-6.1 21.1-12.2-21.1-12.2zm10.5 91.5l-10.5 6.1v36.6l21.1-12.2 42.3 24.4 10.6-6.1v-12.2L232.5 122l-21.1-12.2V85.4zM0 207.5l-10.6 6.1-21.1 12.2 10.6 6.1 10.5 6.1v48.8L0 292.9l10.6-6.1V238l21.1-12.2-21.1-12.2zM10.6 177v12.2l10.5 6.1 21.2 12.2v-24.4l42.3-24.4v-12.3L74 140.3l-21.2 12.2-21.1 12.3-21.1-12.3zm327.6 30.5l-10.6 6.1-21.1 12.2 10.6 6.1 10.5 6.1v48.8l10.6 6.1 10.6-6.1V238l21.1-12.2-21.1-12.2zm-74-67.2l-10.5 6.1v12.3l21.1 12.2 21.1 12.2v24.4l21.2-12.2 10.5-6.1v-36.7l-21.1 12.3zM158.5 482l-10.5 6.1-21.2 12.3v-24.5l-21.1-12.2-21.1-12.2v-12.2l10.5-6.1 42.3 24.4 21.1-12.2v24.4zm21.2 97.7l-10.6 6.1-10.6-6.1v-48.8l-10.5-6.1-10.6-6.1 21.1-12.2 10.6-6.1 10.6 6.1 21.1 12.2-21.1 12.2zm10.5-91.6l-10.5-6.1v-36.6l21.1 12.2 42.3-24.4 10.6 6.1v12.2l-21.2 12.2-21.1 12.2v24.5zM0 378.3l-10.6-6.1-21.1-12.2 10.6-6.1 10.5-6.1V299L0 292.9l10.6 6.1v48.8L31.7 360l-21.1 12.2zm10.6 30.5v-12.2l10.5-6.1 21.2-12.2v24.4l42.2 24.4v12.2L74 445.4l-21.2-12.2L31.7 421l-21.1 12.2zm327.6-30.5l-10.6-6.1-21.1-12.2 10.6-6.1 10.5-6.1V299l10.6-6.1 10.6 6.1v48.8l21.1 12.2-21.1 12.2zm-74 67.1l-10.5-6.1v-12.2l21.1-12.2 21.1-12.2v-24.4l21.2 12.2 10.5 6.1v36.6L306.5 421z"/>
  </g>
  <g class="guides">
    <circle cx="169.1" cy="292.9" r="65.1"/>
    <circle cx="169.1" cy="292.9" r="97.6"/>
    <circle cx="169.1" cy="488.1" r="97.6"/>
    <circle cx="169.1" cy="97.7" r="97.6"/>
    <circle cx="338.2" cy="585.7" r="97.6"/>
    <circle cx="338.2" r="97.6"/>
    <circle cy="585.7" r="97.6"/>
    <circle r="97.6"/>
    <path d="M-84.5 634.5L0 683.4l84.6-48.9v-97.6L0 488.1l-84.5 48.8zm169.1-97.6l84.5 48.8 84.6-48.8v-97.6l-84.6-48.8-84.5 48.8zM-84.5-48.8L0-97.6l84.6 48.8v97.7L0 97.7l-84.5-48.8zM84.6 48.9L169.1 0l84.6 48.9v97.6l-84.6 48.8-84.5-48.8z"/>
    <path d="M0 0h338.2v292.9H0zm169.1 292.9V0M25.3 94.3L0 0m69.1 69.1L0 0m338.2 195.3L0 0m0 195.3L338.2 0M169.1 292.9L0 195.3m169.1 97.6l169.1-97.6M94.3 25.3L0 0"/>
    <path d="M0 0l169.1 292.9L338.2 0zM0 292.9h338.2v292.9H0zm169.1 0v292.8M25.3 491.4L0 585.7m69.1-69L0 585.7m338.2-195.2L0 585.7m0-195.2l338.2 195.2M169.1 292.9L0 390.5m169.1-97.6l169.1 97.6m-243.9 170L0 585.7"/>
    <path d="M0 585.7l169.1-292.8 169.1 292.8z"/>
    <path d="M120.3 208.3h97.6l48.8 84.6-48.8 84.5h-97.6l-48.8-84.5zM253.6 634.5l84.6 48.9 84.5-48.9v-97.6l-84.5-48.8-84.6 48.8zm-302.4 35.8h97.6l48.8-84.6-48.8-84.5h-97.6l-48.8 84.5zM253.6-48.8l84.6-48.8 84.5 48.8v97.7l-84.5 48.8-84.6-48.8zM-48.8-84.5h97.6L97.6 0 48.8 84.6h-97.6L-97.6 0z"/>
    <path d="M289.4 670.3H387l48.8-84.6-48.8-84.5h-97.6l-48.8 84.5zM289.4-84.5H387L435.8 0 387 84.6h-97.6L240.6 0zM84.6 244.1l84.5-48.8 84.6 48.8v97.6l-84.6 48.8-84.5-48.8z"/>
  </g>
</svg>
