<svg version="1.1" xmlns="http://www.w3.org/2000/svg" width="2000" height="1000" viewBox="0 0 100% 100%">
  <style>
		:root {
		  --golden: #907A58;
		  --darkBlue: #475387;
		  --beige: #DFD8CC;
		  --teal: #4A9AC4;
		  --gray: #A49DA0;
		  --smaragd: #406A72;
		  --sand: #D3BDA7;
		  --grayGreen: #A2D1D6;
		  --blueGray: #758390;
		  --lightBrown: #AA8858;
		  --blue1: #8EC5EE;
		  --blue2: #8CC6EA;
		  --blue3: #B6DAEC;
		  --rust: #D8692D;
		  --yellow: #F8C346;
		}
    .shape-1{fill:var(--golden)}
    .shape-2{fill:var(--darkBlue)}
    .shape-3{fill:var(--teal)}
    .shape-4{fill:var(--smaragd)}
    .line{stroke:#fff;stroke-width:10px}
    .guides{ stroke: #4FFF4F; display: none;}
  </style>
  <defs>
    <pattern id="pattern" width="949.94" height="1645.405" patternUnits="userSpaceOnUse" patternTransform="scale(1.2)">
      <g class="line" id="pattern">
			<rect x="-26.754" y="-29.528" class="shape-2" width="1003.29" height="1697.369"/>
			<polygon class="shape-1" points="350.457,1256.193 250.457,1256.193 250.457,1227.325 225.457,1212.891 200.457,1256.193 
				225.457,1299.494 325.457,1299.495 325.457,1328.361 350.457,1342.795 375.457,1299.495 	"/>
			<polygon class="shape-1" points="325.457,1039.687 225.457,1039.686 225.457,1010.818 200.457,996.385 175.457,1039.686 
				200.457,1082.988 300.457,1082.988 300.457,1111.855 325.457,1126.289 350.457,1082.988 	"/>
			<polygon class="shape-1" points="125.457,953.084 25.457,953.083 25.457,924.216 0.457,909.782 -24.544,953.083 0.456,996.385 
				100.457,996.385 100.457,1025.252 125.457,1039.686 150.457,996.385 	"/>
			<polygon class="shape-1" points="525.457,1126.289 425.457,1126.289 425.457,1097.421 400.457,1082.987 375.457,1126.289 
				400.457,1169.59 500.457,1169.59 500.457,1198.458 525.457,1212.891 550.457,1169.59 	"/>
			<polygon class="shape-1" points="500.457,909.783 400.457,909.782 400.457,880.915 375.457,866.481 350.457,909.782 375.457,953.083 
				475.457,953.083 475.457,981.951 500.457,996.384 525.457,953.083 	"/>
			<polygon class="shape-1" points="300.474,823.213 200.474,823.212 200.474,794.345 175.474,779.911 150.474,823.212 175.474,866.514 
				275.474,866.514 275.474,895.381 300.474,909.814 325.474,866.514 	"/>
			<polygon class="shape-1" points="100.475,736.609 0.475,736.608 0.475,707.741 -24.525,693.308 -49.525,736.609 -24.525,779.91 
				75.475,779.91 75.475,808.777 100.475,823.211 125.475,779.91 	"/>
			<polygon class="shape-1" points="175.457,1386.097 75.457,1386.096 75.457,1357.229 50.457,1342.795 25.456,1386.097 50.456,1429.398 
				150.457,1429.399 150.457,1458.265 175.457,1472.7 200.457,1429.399 	"/>
			<polygon class="shape-1" points="-24.544,1299.494 -124.544,1299.493 -124.544,1270.625 -149.544,1256.192 -174.545,1299.494 
				-149.545,1342.794 -49.544,1342.795 -49.544,1371.662 -24.544,1386.096 0.456,1342.795 	"/>
			<polygon class="shape-1" points="550.457,1342.796 450.457,1342.795 450.457,1313.928 425.457,1299.495 400.457,1342.796 
				425.457,1386.097 525.457,1386.097 525.457,1414.964 550.457,1429.398 575.457,1386.097 	"/>
			<polygon class="shape-1" points="725.456,1212.892 625.457,1212.891 625.457,1184.023 600.457,1169.59 575.456,1212.891 
				600.456,1256.193 700.456,1256.193 700.456,1285.06 725.457,1299.494 750.456,1256.193 	"/>
			<polygon class="shape-1" points="925.457,1299.494 825.458,1299.494 825.458,1270.626 800.458,1256.192 775.457,1299.494 
				800.457,1342.795 900.457,1342.795 900.457,1371.663 925.458,1386.096 950.457,1342.795 	"/>
			<polygon class="shape-1" points="700.457,996.385 600.457,996.384 600.457,967.517 575.457,953.083 550.457,996.385 575.457,1039.686 
				675.457,1039.686 675.457,1068.553 700.457,1082.987 725.457,1039.686 	"/>
			<polygon class="shape-1" points="900.457,1082.987 800.457,1082.986 800.457,1054.119 775.457,1039.685 750.457,1082.986 
				775.457,1126.288 875.457,1126.288 875.457,1155.155 900.457,1169.588 925.457,1126.288 	"/>
			<polygon class="shape-1" points="750.456,1429.399 650.456,1429.398 650.456,1400.531 625.456,1386.097 600.456,1429.399 
				625.456,1472.7 725.456,1472.7 725.456,1501.567 750.456,1516 775.456,1472.7 	"/>
			<polygon class="shape-1" points="950.474,1516.03 850.474,1516.029 850.474,1487.162 825.474,1472.728 800.474,1516.03 
				825.474,1559.331 925.474,1559.331 925.474,1588.198 950.474,1602.631 975.474,1559.331 	"/>
			<polygon class="shape-1" points="375.457,1472.7 275.457,1472.7 275.457,1443.832 250.457,1429.398 225.457,1472.7 250.457,1516 
				350.457,1516 350.457,1544.868 375.457,1559.301 400.457,1516 	"/>
			<polygon class="shape-1" points="200.457,1602.604 100.457,1602.604 100.457,1573.736 75.457,1559.302 50.457,1602.604 
				75.457,1645.905 175.457,1645.905 175.457,1674.772 200.457,1689.206 225.457,1645.905 	"/>
			<polygon class="shape-1" points="0.458,1516.003 -99.542,1516.003 -99.542,1487.135 -124.542,1472.702 -149.542,1516.003 
				-124.542,1559.304 -24.542,1559.304 -24.542,1588.171 0.458,1602.605 25.458,1559.304 	"/>
			<polygon class="shape-1" points="400.45,1689.221 300.45,1689.221 300.45,1660.353 275.45,1645.919 250.45,1689.221 275.45,1732.522 
				375.45,1732.522 375.45,1761.389 400.45,1775.823 425.45,1732.522 	"/>
			<polygon class="shape-1" points="150.457,1169.59 50.457,1169.59 50.457,1140.722 25.457,1126.289 0.457,1169.59 25.457,1212.892 
				125.457,1212.892 125.457,1241.759 150.457,1256.193 175.457,1212.892 	"/>
			<polygon class="shape-4" points="400.457,1256.193 350.457,1342.795 325.456,1328.362 300.457,1342.795 325.457,1386.096 
				375.457,1386.096 425.457,1299.495 450.457,1313.928 475.457,1299.494 450.457,1256.193 	"/>
			<polygon class="shape-4" points="225.457,1386.097 175.457,1472.7 150.456,1458.266 125.457,1472.7 150.457,1516 200.457,1516 
				250.457,1429.399 275.457,1443.832 300.457,1429.398 275.457,1386.097 	"/>
			<polygon class="shape-4" points="375.457,1039.687 325.457,1126.289 300.457,1111.855 275.457,1126.289 300.457,1169.59 
				350.457,1169.59 400.457,1082.988 425.457,1097.421 450.457,1082.988 425.457,1039.687 	"/>
			<polygon class="shape-4" points="175.455,953.084 125.455,1039.686 100.455,1025.252 75.455,1039.686 100.455,1082.988 
				150.455,1082.988 200.455,996.385 225.455,1010.819 250.455,996.385 225.455,953.084 	"/>
			<polygon class="shape-4" points="350.456,823.18 300.456,909.782 275.456,895.348 250.456,909.782 275.456,953.083 325.456,953.083 
				375.456,866.481 400.456,880.915 425.456,866.481 400.456,823.18 	"/>
			<polygon class="shape-4" points="575.457,1126.289 525.457,1212.891 500.457,1198.457 475.457,1212.891 500.457,1256.192 
				550.457,1256.192 600.457,1169.59 625.457,1184.023 650.457,1169.589 625.457,1126.289 	"/>
			<polygon class="shape-4" points="550.457,909.783 500.457,996.384 475.457,981.951 450.457,996.384 475.457,1039.686 525.457,1039.686 
				575.457,953.083 600.457,967.517 625.457,953.083 600.457,909.783 	"/>
			<polygon class="shape-4" points="150.475,736.609 100.475,823.211 75.475,808.777 50.475,823.211 75.475,866.513 125.475,866.513 
				175.475,779.91 200.475,794.344 225.475,779.91 200.475,736.609 	"/>
			<polygon class="shape-4" points="600.456,1342.796 550.456,1429.398 525.455,1414.964 500.456,1429.398 525.456,1472.7 575.456,1472.7 
				625.456,1386.097 650.456,1400.531 675.456,1386.097 650.456,1342.796 	"/>
			<polygon class="shape-4" points="750.457,996.384 700.457,1082.986 675.457,1068.552 650.457,1082.986 675.457,1126.288 
				725.457,1126.288 775.457,1039.685 800.457,1054.119 825.457,1039.685 800.457,996.384 	"/>
			<polygon class="shape-4" points="775.457,1212.892 725.457,1299.494 700.456,1285.06 675.457,1299.494 700.457,1342.795 
				750.457,1342.795 800.457,1256.193 825.457,1270.626 850.457,1256.192 825.457,1212.892 	"/>
			<polygon class="shape-4" points="800.457,1429.398 750.457,1516 725.456,1501.567 700.457,1516 725.457,1559.301 775.457,1559.301 
				825.457,1472.7 850.457,1487.133 875.457,1472.699 850.457,1429.398 	"/>
			<polygon class="shape-1" points="575.457,1559.303 475.457,1559.302 475.457,1530.435 450.457,1516.001 425.457,1559.303 
				450.457,1602.604 550.457,1602.604 550.457,1631.471 575.457,1645.905 600.457,1602.604 	"/>
			<polygon class="shape-1" points="775.456,1645.906 675.456,1645.905 675.456,1617.038 650.456,1602.604 625.456,1645.906 
				650.456,1689.207 750.456,1689.207 750.456,1718.074 775.456,1732.507 800.456,1689.207 	"/>
			<polygon class="shape-4" points="425.457,1472.7 375.457,1559.302 350.456,1544.869 325.457,1559.302 350.457,1602.603 
				400.457,1602.603 450.457,1516.001 475.457,1530.434 500.457,1516 475.457,1472.7 	"/>
			<polygon class="shape-4" points="50.458,1516.002 0.458,1602.605 -24.543,1588.171 -49.542,1602.605 -24.542,1645.906 25.458,1645.906 
				75.458,1559.304 100.458,1573.737 125.458,1559.303 100.458,1516.002 	"/>
			<polygon class="shape-4" points="250.458,1602.605 200.458,1689.208 175.457,1674.774 150.458,1689.208 175.458,1732.508 
				225.458,1732.508 275.458,1645.907 300.458,1660.339 325.458,1645.906 300.458,1602.605 	"/>
			<polygon class="shape-4" points="625.456,1559.303 575.456,1645.905 550.455,1631.471 525.456,1645.905 550.456,1689.207 
				600.456,1689.207 650.456,1602.604 675.456,1617.038 700.456,1602.604 675.456,1559.303 	"/>
			<polygon class="shape-4" points="825.457,1645.905 775.457,1732.507 750.456,1718.074 725.457,1732.507 750.457,1775.808 
				800.457,1775.808 850.457,1689.207 875.457,1703.64 900.457,1689.206 875.457,1645.905 	"/>
			<polygon class="shape-4" points="0.457,1082.987 -49.543,1169.588 -74.543,1155.155 -99.543,1169.588 -74.543,1212.89 -24.543,1212.89 
				25.457,1126.288 50.457,1140.721 75.457,1126.288 50.457,1082.987 	"/>
			<polygon class="shape-4" points="-24.542,866.48 -74.542,953.083 -99.543,938.649 -124.542,953.083 -99.542,996.384 -49.542,996.384 
				0.458,909.782 25.458,924.215 50.458,909.781 25.458,866.48 	"/>
			<polygon class="shape-4" points="25.456,1299.494 -24.544,1386.096 -49.544,1371.663 -74.544,1386.096 -49.544,1429.398 
				0.456,1429.398 50.456,1342.795 75.456,1357.229 100.456,1342.795 75.456,1299.494 	"/>
			<polygon class="shape-4" points="200.457,1169.59 150.457,1256.193 125.457,1241.759 100.457,1256.193 125.457,1299.494 
				175.457,1299.494 225.457,1212.892 250.457,1227.325 275.457,1212.891 250.457,1169.59 	"/>
			<polygon class="shape-3" points="250.457,1342.796 300.457,1429.398 275.456,1443.833 275.457,1472.7 325.457,1472.7 350.457,1429.399 
				300.457,1342.796 325.456,1328.362 325.457,1299.495 275.457,1299.495 	"/>
			<polygon class="shape-3" points="225.457,1126.289 275.457,1212.891 250.456,1227.326 250.457,1256.193 300.457,1256.193 
				325.457,1212.892 275.457,1126.289 300.456,1111.855 300.457,1082.988 250.457,1082.988 	"/>
			<polygon class="shape-3" points="200.456,909.783 250.455,996.385 225.455,1010.819 225.455,1039.686 275.456,1039.687 
				300.456,996.385 250.456,909.783 275.455,895.349 275.455,866.481 225.456,866.481 	"/>
			<polygon class="shape-3" points="0.456,823.18 50.455,909.783 25.455,924.217 25.455,953.083 75.456,953.084 100.456,909.783 
				50.456,823.18 75.455,808.747 75.455,779.878 25.456,779.879 	"/>
			<polygon class="shape-3" points="75.458,1472.7 125.458,1559.302 100.457,1573.737 100.458,1602.604 150.458,1602.604 
				175.458,1559.302 125.458,1472.7 150.457,1458.266 150.458,1429.399 100.458,1429.399 	"/>
			<polygon class="shape-3" points="50.458,1256.193 100.458,1342.795 75.457,1357.23 75.458,1386.096 125.458,1386.097 150.458,1342.795 
				100.458,1256.193 125.457,1241.759 125.458,1212.892 75.458,1212.892 	"/>
			<polygon class="shape-3" points="25.457,1039.687 75.456,1126.289 50.456,1140.723 50.456,1169.59 100.457,1169.59 125.457,1126.29 
				75.457,1039.687 100.456,1025.253 100.457,996.385 50.457,996.385 	"/>
			<polygon class="shape-3" points="450.457,1429.398 500.455,1516 475.455,1530.435 475.455,1559.301 525.457,1559.302 550.457,1516 
				500.457,1429.398 525.455,1414.964 525.455,1386.096 475.457,1386.097 	"/>
			<polygon class="shape-3" points="425.457,1212.891 475.456,1299.494 450.455,1313.928 450.456,1342.795 500.457,1342.795 
				525.457,1299.494 475.457,1212.891 500.455,1198.458 500.456,1169.59 450.457,1169.59 	"/>
			<polygon class="shape-3" points="400.455,996.385 450.455,1082.987 425.454,1097.421 425.455,1126.289 475.455,1126.289 
				500.455,1082.988 450.455,996.385 475.454,981.952 475.455,953.083 425.455,953.083 	"/>
			<polygon class="shape-3" points="625.458,1299.494 675.458,1386.096 650.458,1400.531 650.458,1429.398 700.458,1429.398 
				725.458,1386.096 675.458,1299.494 700.458,1285.061 700.458,1256.193 650.458,1256.193 	"/>
			<polygon class="shape-3" points="600.458,1082.987 650.458,1169.589 625.458,1184.024 625.458,1212.891 675.458,1212.891 
				700.458,1169.59 650.458,1082.987 675.458,1068.554 675.458,1039.686 625.458,1039.686 	"/>
			<polygon class="shape-3" points="825.457,1386.096 875.455,1472.699 850.455,1487.133 850.455,1516 900.457,1516 925.457,1472.699 
				875.457,1386.096 900.455,1371.663 900.455,1342.795 850.457,1342.795 	"/>
			<polygon class="shape-3" points="850.476,1602.631 900.474,1689.235 875.474,1703.668 875.474,1732.536 925.476,1732.536 
				950.476,1689.235 900.476,1602.631 925.474,1588.198 925.474,1559.331 875.476,1559.331 	"/>
			<polygon class="shape-3" points="650.458,1516 700.456,1602.604 675.456,1617.038 675.456,1645.905 725.458,1645.905 750.458,1602.604 
				700.458,1516 725.456,1501.567 725.456,1472.7 675.458,1472.7 	"/>
			<polygon class="shape-3" points="275.457,1559.301 325.457,1645.904 300.456,1660.338 300.457,1689.206 350.457,1689.206 
				375.457,1645.905 325.457,1559.301 350.456,1544.868 350.457,1516 300.457,1516 	"/>
			<polygon class="shape-3" points="100.457,1689.206 150.457,1775.808 125.456,1790.243 125.457,1819.11 175.457,1819.11 
				200.457,1775.809 150.457,1689.206 175.456,1674.772 175.457,1645.905 125.457,1645.905 	"/>
			<polygon class="shape-3" points="475.457,1645.904 525.455,1732.506 500.455,1746.941 500.455,1775.807 550.457,1775.808 
				575.457,1732.506 525.457,1645.904 550.455,1631.47 550.455,1602.602 500.457,1602.603 	"/>
			<polygon class="shape-3" points="175.475,693.308 225.475,779.91 200.474,794.345 200.475,823.212 250.475,823.212 275.475,779.91 
				225.475,693.308 250.474,678.874 250.475,650.007 200.475,650.007 	"/>
			<polygon class="shape-3" points="-24.525,606.706 25.475,693.309 0.474,707.743 0.475,736.61 50.475,736.61 75.475,693.309 
				25.475,606.706 50.474,592.272 50.475,563.405 0.475,563.405 	"/>
			<polygon class="shape-3" points="375.474,779.909 425.474,866.512 400.473,880.946 400.474,909.813 450.474,909.813 475.474,866.513 
				425.474,779.909 450.473,765.476 450.474,736.608 400.474,736.608 	"/>
			<polygon class="shape-3" points="775.475,953.114 825.473,1039.718 800.473,1054.151 800.473,1083.019 850.475,1083.019 
				875.475,1039.718 825.475,953.114 850.473,938.681 850.473,909.813 800.475,909.813 	"/>
			<polygon class="shape-3" points="950.509,823.27 1000.507,909.873 975.507,924.307 975.507,953.174 1025.509,953.174 1050.509,909.873 
				1000.509,823.27 1025.507,808.836 1025.507,779.969 975.509,779.969 	"/>
			<polygon class="shape-3" points="575.458,866.48 625.457,953.083 600.457,967.517 600.457,996.384 650.458,996.384 675.458,953.083 
				625.458,866.48 650.457,852.046 650.457,823.179 600.458,823.179 	"/>
			<polygon class="shape-3" points="800.457,1169.589 850.456,1256.192 825.455,1270.626 825.456,1299.493 875.457,1299.494 
				900.457,1256.192 850.457,1169.589 875.455,1155.156 875.456,1126.288 825.457,1126.289 	"/>
			<polygon class="shape-1" points="450.492,476.829 350.492,476.829 350.492,447.961 325.492,433.527 300.492,476.829 325.492,520.13 
				425.492,520.131 425.492,548.998 450.492,563.432 475.492,520.131 	"/>
			<polygon class="shape-1" points="425.492,260.323 325.492,260.322 325.492,231.455 300.492,217.021 275.492,260.322 300.492,303.624 
				400.492,303.624 400.492,332.491 425.492,346.925 450.492,303.624 	"/>
			<polygon class="shape-1" points="225.492,173.72 125.492,173.72 125.492,144.852 100.492,130.418 75.491,173.72 100.492,217.021 
				200.492,217.021 200.492,245.889 225.492,260.322 250.492,217.021 	"/>
			<polygon class="shape-1" points="25.491,87.117 -74.509,87.117 -74.509,58.249 -99.509,43.815 -124.51,87.117 -99.509,130.418 
				0.491,130.418 0.491,159.286 25.491,173.719 50.491,130.418 	"/>
			<polygon class="shape-1" points="625.492,346.925 525.492,346.925 525.492,318.057 500.492,303.624 475.492,346.925 500.492,390.227 
				600.492,390.227 600.492,419.094 625.492,433.527 650.492,390.227 	"/>
			<polygon class="shape-1" points="600.492,130.419 500.492,130.418 500.492,101.551 475.492,87.117 450.492,130.418 475.492,173.72 
				575.492,173.72 575.492,202.587 600.492,217.021 625.492,173.72 	"/>
			<polygon class="shape-1" points="400.509,43.849 300.509,43.848 300.509,14.981 275.509,0.547 250.509,43.849 275.509,87.15 
				375.509,87.15 375.509,116.017 400.509,130.451 425.509,87.15 	"/>
			<polygon class="shape-1" points="200.51,-42.754 100.51,-42.755 100.51,-71.623 75.51,-86.056 50.51,-42.755 75.51,0.546 175.51,0.546 
				175.51,29.414 200.51,43.847 225.51,0.546 	"/>
			<polygon class="shape-1" points="275.492,606.733 175.492,606.732 175.492,577.865 150.492,563.432 125.492,606.733 150.492,650.034 
				250.492,650.035 250.492,678.901 275.492,693.336 300.492,650.035 	"/>
			<polygon class="shape-1" points="650.492,563.433 550.492,563.432 550.492,534.564 525.492,520.131 500.492,563.432 525.492,606.733 
				625.492,606.733 625.492,635.601 650.492,650.034 675.492,606.733 	"/>
			<polygon class="shape-1" points="825.491,433.528 725.492,433.527 725.492,404.66 700.492,390.226 675.491,433.527 700.491,476.829 
				800.491,476.829 800.491,505.696 825.492,520.13 850.491,476.829 	"/>
			<polygon class="shape-1" points="1025.492,520.13 925.493,520.13 925.493,491.262 900.493,476.829 875.492,520.13 900.492,563.432 
				1000.492,563.432 1000.492,592.299 1025.493,606.732 1050.492,563.432 	"/>
			<polygon class="shape-1" points="800.492,217.021 700.492,217.021 700.492,188.153 675.492,173.72 650.492,217.021 675.492,260.322 
				775.492,260.322 775.492,289.189 800.492,303.623 825.492,260.322 	"/>
			<polygon class="shape-1" points="1000.492,303.623 900.492,303.622 900.492,274.755 875.492,260.321 850.492,303.623 875.492,346.924 
				975.492,346.924 975.492,375.791 1000.492,390.225 1025.492,346.924 	"/>
			<polygon class="shape-1" points="850.491,650.035 750.491,650.034 750.491,621.167 725.491,606.733 700.491,650.035 725.491,693.336 
				825.491,693.336 825.491,722.203 850.491,736.637 875.491,693.336 	"/>
			<polygon class="shape-1" points="1050.509,736.666 950.509,736.665 950.509,707.798 925.509,693.364 900.509,736.666 925.509,779.967 
				1025.509,779.967 1025.509,808.834 1050.509,823.268 1075.509,779.967 	"/>
			<polygon class="shape-1" points="475.492,693.336 375.492,693.336 375.492,664.468 350.492,650.034 325.492,693.336 350.492,736.637 
				450.492,736.637 450.492,765.504 475.492,779.938 500.492,736.637 	"/>
			<polygon class="shape-1" points="250.492,390.227 150.492,390.227 150.492,361.358 125.492,346.925 100.492,390.227 125.492,433.528 
				225.492,433.528 225.492,462.395 250.492,476.829 275.492,433.528 	"/>
			<polygon class="shape-4" points="500.492,476.829 450.492,563.432 425.491,548.998 400.492,563.432 425.492,606.732 475.492,606.732 
				525.492,520.131 550.492,534.564 575.492,520.13 550.492,476.829 	"/>
			<polygon class="shape-4" points="325.492,606.733 275.492,693.336 250.491,678.902 225.492,693.336 250.492,736.637 300.492,736.637 
				350.492,650.035 375.492,664.468 400.492,650.034 375.492,606.733 	"/>
			<polygon class="shape-4" points="475.492,260.323 425.492,346.925 400.492,332.492 375.492,346.925 400.492,390.227 450.492,390.227 
				500.492,303.625 525.492,318.058 550.492,303.624 525.492,260.323 	"/>
			<polygon class="shape-4" points="275.49,173.721 225.49,260.322 200.49,245.889 175.49,260.322 200.49,303.624 250.49,303.624 
				300.49,217.021 325.49,231.455 350.49,217.021 325.49,173.721 	"/>
			<polygon class="shape-4" points="450.491,43.816 400.491,130.418 375.491,115.984 350.491,130.418 375.491,173.72 425.491,173.72 
				475.491,87.117 500.491,101.551 525.491,87.117 500.491,43.816 	"/>
			<polygon class="shape-4" points="675.492,346.925 625.492,433.527 600.492,419.093 575.492,433.527 600.492,476.828 650.492,476.828 
				700.492,390.226 725.492,404.659 750.492,390.226 725.492,346.925 	"/>
			<polygon class="shape-4" points="650.492,130.419 600.492,217.021 575.492,202.587 550.492,217.021 575.492,260.322 625.492,260.322 
				675.492,173.72 700.492,188.153 725.492,173.72 700.492,130.419 	"/>
			<polygon class="shape-4" points="250.51,-42.754 200.51,43.847 175.51,29.414 150.51,43.847 175.51,87.149 225.51,87.149 275.51,0.546 
				300.51,14.98 325.51,0.546 300.51,-42.754 	"/>
			<polygon class="shape-4" points="50.491,-129.389 0.491,-42.788 -24.509,-57.221 -49.509,-42.788 -24.509,0.514 25.491,0.514 
				75.491,-86.088 100.491,-71.655 125.491,-86.088 100.491,-129.389 	"/>
			<polygon class="shape-4" points="700.491,563.433 650.491,650.034 625.49,635.601 600.491,650.034 625.491,693.336 675.491,693.336 
				725.491,606.733 750.491,621.167 775.491,606.733 750.491,563.433 	"/>
			<polygon class="shape-4" points="850.492,217.021 800.492,303.622 775.492,289.188 750.492,303.622 775.492,346.924 825.492,346.924 
				875.492,260.321 900.492,274.755 925.492,260.321 900.492,217.021 	"/>
			<polygon class="shape-1" points="575.509,-86.056 475.509,-86.057 475.509,-114.924 450.509,-129.358 425.509,-86.057 450.509,-42.755 
				550.509,-42.755 550.509,-13.888 575.509,0.545 600.509,-42.755 	"/>
			<polygon class="shape-1" points="775.509,0.546 675.509,0.545 675.509,-28.322 650.509,-42.755 625.509,0.546 650.509,43.847 
				750.509,43.847 750.509,72.714 775.509,87.148 800.509,43.847 	"/>
			<polygon class="shape-1" points="975.509,87.148 875.509,87.147 875.509,58.28 850.509,43.846 825.509,87.147 850.509,130.449 
				950.509,130.449 950.509,159.316 975.509,173.75 1000.509,130.449 	"/>
			<polygon class="shape-4" points="625.509,-86.056 575.509,0.545 550.509,-13.888 525.509,0.545 550.509,43.847 600.509,43.847 
				650.509,-42.755 675.509,-28.322 700.509,-42.755 675.509,-86.056 	"/>
			<polygon class="shape-4" points="825.509,0.545 775.509,87.147 750.509,72.713 725.509,87.147 750.509,130.449 800.509,130.449 
				850.509,43.846 875.509,58.28 900.509,43.846 875.509,0.545 	"/>
			<polygon class="shape-4" points="1000.508,-129.359 950.508,-42.757 925.508,-57.191 900.508,-42.757 925.508,0.544 975.508,0.544 
				1025.508,-86.058 1050.508,-71.625 1075.508,-86.058 1050.508,-129.359 	"/>
			<polygon class="shape-4" points="1025.526,87.177 975.526,173.779 950.526,159.345 925.526,173.779 950.526,217.081 1000.526,217.081 
				1050.526,130.478 1075.526,144.912 1100.526,130.478 1075.526,87.177 	"/>
			<polygon class="shape-4" points="1050.492,303.624 1000.492,390.226 975.492,375.792 950.492,390.226 975.492,433.527 
				1025.492,433.527 1075.492,346.925 1100.492,361.358 1125.492,346.925 1100.492,303.624 	"/>
			<polygon class="shape-4" points="875.492,433.528 825.492,520.13 800.491,505.696 775.492,520.13 800.492,563.432 850.492,563.432 
				900.492,476.829 925.492,491.263 950.492,476.829 925.492,433.528 	"/>
			<polygon class="shape-4" points="900.492,650.034 850.492,736.637 825.491,722.203 800.492,736.637 825.492,779.938 875.492,779.938 
				925.492,693.336 950.492,707.77 975.492,693.335 950.492,650.034 	"/>
			<polygon class="shape-1" points="675.492,779.939 575.492,779.938 575.492,751.071 550.492,736.638 525.492,779.939 550.492,823.24 
				650.492,823.24 650.492,852.107 675.492,866.541 700.492,823.24 	"/>
			<polygon class="shape-1" points="875.491,866.542 775.491,866.541 775.491,837.674 750.491,823.24 725.491,866.542 750.491,909.843 
				850.491,909.843 850.491,938.71 875.491,953.144 900.491,909.843 	"/>
			<polygon class="shape-1" points="1075.492,953.144 975.492,953.143 975.492,924.275 950.492,909.842 925.492,953.144 950.492,996.444 
				1050.492,996.444 1050.492,1025.312 1075.492,1039.745 1100.492,996.444 	"/>
			<polygon class="shape-1" points="1100.473,1169.618 1000.473,1169.617 1000.473,1140.75 975.473,1126.316 950.473,1169.618 
				975.473,1212.919 1075.473,1212.919 1075.473,1241.786 1100.473,1256.22 1125.473,1212.919 	"/>
			<polygon class="shape-4" points="525.492,693.336 475.492,779.938 450.491,765.505 425.492,779.938 450.492,823.239 500.492,823.239 
				550.492,736.638 575.492,751.07 600.492,736.637 575.492,693.336 	"/>
			<polygon class="shape-4" points="725.491,779.939 675.491,866.541 650.49,852.107 625.491,866.541 650.491,909.843 700.491,909.843 
				750.491,823.24 775.491,837.674 800.491,823.24 775.491,779.939 	"/>
			<polygon class="shape-4" points="925.492,866.541 875.492,953.144 850.491,938.71 825.492,953.144 850.492,996.444 900.492,996.444 
				950.492,909.843 975.492,924.276 1000.492,909.842 975.492,866.541 	"/>
			<polygon class="shape-4" points="950.492,1083.048 900.492,1169.65 875.491,1155.216 850.492,1169.65 875.492,1212.952 
				925.492,1212.952 975.492,1126.349 1000.492,1140.783 1025.492,1126.349 1000.492,1083.048 	"/>
			<polygon class="shape-4" points="975.492,1299.554 925.492,1386.157 900.491,1371.723 875.492,1386.157 900.492,1429.458 
				950.492,1429.458 1000.492,1342.856 1025.492,1357.29 1050.492,1342.855 1025.492,1299.554 	"/>
			<polygon class="shape-4" points="1000.492,1516.061 950.492,1602.664 925.491,1588.23 900.492,1602.664 925.492,1645.964 
				975.492,1645.964 1025.492,1559.363 1050.492,1573.796 1075.492,1559.362 1050.492,1516.061 	"/>
			<polygon class="shape-4" points="100.492,303.623 50.492,390.225 25.492,375.791 0.492,390.225 25.492,433.526 75.492,433.526 
				125.492,346.924 150.492,361.357 175.492,346.924 150.492,303.623 	"/>
			<polygon class="shape-4" points="-99.511,217.021 -149.511,303.623 -174.511,289.189 -199.511,303.623 -174.511,346.925 
				-124.511,346.925 -74.511,260.322 -49.511,274.756 -24.511,260.322 -49.511,217.021 	"/>
			<polygon class="shape-4" points="75.493,87.117 25.493,173.719 0.492,159.285 -24.507,173.719 0.493,217.021 50.493,217.021 
				100.493,130.418 125.493,144.852 150.493,130.417 125.493,87.117 	"/>
			<polygon class="shape-4" points="125.491,520.13 75.491,606.732 50.491,592.299 25.491,606.732 50.491,650.034 100.491,650.034 
				150.491,563.432 175.491,577.865 200.491,563.431 175.491,520.13 	"/>
			<polygon class="shape-4" points="-49.525,650.008 -99.525,736.61 -124.525,722.176 -149.525,736.61 -124.525,779.912 -74.525,779.912 
				-24.525,693.309 0.475,707.743 25.475,693.309 0.475,650.008 	"/>
			<polygon class="shape-4" points="300.492,390.227 250.492,476.829 225.492,462.396 200.492,476.829 225.492,520.13 275.492,520.13 
				325.492,433.528 350.492,447.961 375.492,433.527 350.492,390.227 	"/>
			<polygon class="shape-3" points="350.492,563.432 400.492,650.034 375.491,664.469 375.492,693.336 425.492,693.336 450.492,650.035 
				400.492,563.432 425.491,548.999 425.492,520.131 375.492,520.131 	"/>
			<polygon class="shape-3" points="325.492,346.925 375.492,433.527 350.491,447.962 350.492,476.829 400.492,476.829 425.492,433.528 
				375.492,346.925 400.491,332.492 400.492,303.624 350.492,303.624 	"/>
			<polygon class="shape-3" points="300.491,130.419 350.49,217.021 325.49,231.456 325.49,260.322 375.491,260.323 400.491,217.021 
				350.491,130.419 375.49,115.985 375.49,87.117 325.491,87.118 	"/>
			<polygon class="shape-3" points="100.491,43.816 150.49,130.419 125.49,144.853 125.49,173.72 175.491,173.72 200.491,130.419 
				150.491,43.816 175.49,29.383 175.49,0.515 125.491,0.515 	"/>
			<polygon class="shape-3" points="-99.509,-42.787 -49.51,43.815 -74.51,58.25 -74.51,87.116 -24.509,87.117 0.491,43.815 
				-49.509,-42.787 -24.51,-57.221 -24.51,-86.089 -74.509,-86.088 	"/>
			<polygon class="shape-3" points="150.494,476.829 200.493,563.432 175.492,577.866 175.493,606.732 225.494,606.733 250.494,563.432 
				200.494,476.829 225.492,462.396 225.493,433.528 175.494,433.528 	"/>
			<polygon class="shape-3" points="125.492,260.323 175.492,346.925 150.491,361.359 150.492,390.227 200.492,390.227 225.492,346.926 
				175.492,260.323 200.491,245.89 200.492,217.021 150.492,217.021 	"/>
			<polygon class="shape-1" points="50.491,303.624 -49.509,303.623 -49.509,274.755 -74.509,260.322 -99.51,303.623 -74.509,346.925 
				25.491,346.925 25.491,375.792 50.491,390.226 75.491,346.925 	"/>
			<polygon class="shape-1" points="75.491,520.13 -24.509,520.13 -24.509,491.262 -49.509,476.828 -74.509,520.13 -49.509,563.431 
				50.491,563.432 50.491,592.298 75.491,606.732 100.491,563.432 	"/>
			<polygon class="shape-3" points="-74.51,173.72 -24.511,260.322 -49.511,274.756 -49.511,303.623 0.49,303.624 25.49,260.322 
				-24.51,173.72 0.489,159.286 0.489,130.418 -49.51,130.418 	"/>
			<polygon class="shape-3" points="-49.509,390.227 0.491,476.829 -24.51,491.263 -24.509,520.13 25.491,520.13 50.491,476.829 
				0.491,390.227 25.49,375.793 25.491,346.925 -24.509,346.925 	"/>
			<polygon class="shape-3" points="550.492,650.034 600.49,736.637 575.49,751.071 575.49,779.938 625.492,779.938 650.492,736.637 
				600.492,650.034 625.49,635.601 625.49,606.732 575.492,606.733 	"/>
			<polygon class="shape-3" points="525.492,433.527 575.491,520.13 550.49,534.564 550.491,563.431 600.492,563.432 625.492,520.13 
				575.492,433.527 600.49,419.094 600.491,390.226 550.492,390.227 	"/>
			<polygon class="shape-3" points="500.49,217.021 550.49,303.624 525.489,318.058 525.49,346.925 575.49,346.925 600.49,303.624 
				550.49,217.021 575.489,202.588 575.49,173.72 525.49,173.72 	"/>
			<polygon class="shape-3" points="725.494,520.13 775.493,606.732 750.493,621.167 750.493,650.034 800.494,650.034 825.494,606.732 
				775.494,520.13 800.493,505.697 800.493,476.829 750.494,476.829 	"/>
			<polygon class="shape-3" points="700.494,303.624 750.494,390.226 725.493,404.66 725.494,433.527 775.494,433.527 800.494,390.226 
				750.494,303.624 775.493,289.19 775.494,260.322 725.494,260.322 	"/>
			<polygon class="shape-3" points="925.492,606.732 975.49,693.335 950.49,707.77 950.49,736.637 1000.492,736.637 1025.492,693.335 
				975.492,606.732 1000.49,592.299 1000.49,563.431 950.492,563.432 	"/>
			<polygon class="shape-3" points="750.493,736.637 800.491,823.24 775.491,837.674 775.491,866.541 825.493,866.541 850.493,823.24 
				800.493,736.637 825.491,722.203 825.491,693.336 775.493,693.336 	"/>
			<polygon class="shape-3" points="275.51,-86.056 325.51,0.546 300.509,14.981 300.51,43.848 350.51,43.848 375.51,0.546 
				325.51,-86.056 350.509,-100.49 350.51,-129.357 300.51,-129.357 	"/>
			<polygon class="shape-3" points="475.509,0.545 525.509,87.148 500.508,101.583 500.509,130.45 550.509,130.45 575.509,87.149 
				525.509,0.545 550.508,-13.888 550.509,-42.755 500.509,-42.755 	"/>
			<polygon class="shape-3" points="875.51,173.75 925.508,260.354 900.508,274.788 900.508,303.655 950.51,303.655 975.51,260.354 
				925.51,173.75 950.508,159.317 950.508,130.45 900.51,130.45 	"/>
			<polygon class="shape-3" points="850.405,-42.757 900.403,43.847 875.403,58.28 875.403,87.147 925.405,87.147 950.405,43.847 
				900.405,-42.757 925.403,-57.19 925.403,-86.058 875.405,-86.058 	"/>
			<polygon class="shape-3" points="650.405,-129.358 700.403,-42.755 675.403,-28.321 675.403,0.546 725.405,0.546 750.405,-42.755 
				700.405,-129.358 725.403,-143.792 725.403,-172.659 675.405,-172.659 	"/>
			<polygon class="shape-3" points="675.494,87.116 725.492,173.72 700.492,188.153 700.492,217.021 750.494,217.021 775.494,173.72 
				725.494,87.116 750.492,72.683 750.492,43.815 700.494,43.815 	"/>
			<polygon class="shape-3" points="900.492,390.226 950.491,476.828 925.49,491.263 925.491,520.129 975.492,520.13 1000.492,476.828 
				950.492,390.226 975.49,375.792 975.491,346.924 925.492,346.925 	"/>
		</g>
		<g class="guides">
			<g>
				<line class="st0" x1="400.458" y1="-649.036" x2="-299.543" y2="563.4"/>
				<line class="st0" x1="500.458" y1="-649.036" x2="-199.543" y2="563.4"/>
				<line class="st0" x1="600.458" y1="-649.036" x2="-99.543" y2="563.4"/>
				<line class="st0" x1="700.458" y1="-649.036" x2="0.457" y2="563.4"/>
				<line class="st0" x1="800.458" y1="-649.036" x2="100.458" y2="563.4"/>
				<line class="st0" x1="900.458" y1="-649.036" x2="200.458" y2="563.4"/>
				<line class="st0" x1="1000.458" y1="-649.036" x2="300.458" y2="563.4"/>
				<line class="st0" x1="1100.458" y1="-649.036" x2="400.458" y2="563.4"/>
				<line class="st0" x1="1200.458" y1="-649.035" x2="500.458" y2="563.401"/>
				<line class="st0" x1="1300.458" y1="-649.036" x2="600.458" y2="563.4"/>
				<line class="st0" x1="1400.458" y1="-649.036" x2="700.458" y2="563.4"/>
				<line class="st0" x1="1500.458" y1="-649.036" x2="800.458" y2="563.4"/>
				<line class="st0" x1="1600.458" y1="-649.036" x2="900.458" y2="563.4"/>
				<line class="st0" x1="500.458" y1="-649.035" x2="1200.458" y2="563.401"/>
				<line class="st0" x1="400.458" y1="-649.035" x2="1100.458" y2="563.401"/>
				<line class="st0" x1="1000.458" y1="563.401" x2="300.458" y2="-649.035"/>
				<line class="st0" x1="200.458" y1="-649.035" x2="900.458" y2="563.401"/>
				<line class="st0" x1="100.458" y1="-649.035" x2="800.458" y2="563.401"/>
				<line class="st0" x1="0.457" y1="-649.035" x2="700.458" y2="563.401"/>
				<line class="st0" x1="-99.543" y1="-649.035" x2="600.458" y2="563.401"/>
				<line class="st0" x1="-199.543" y1="-649.035" x2="500.458" y2="563.401"/>
				<line class="st0" x1="-299.543" y1="-649.036" x2="400.458" y2="563.4"/>
				<line class="st0" x1="-399.543" y1="-649.035" x2="300.458" y2="563.401"/>
				<line class="st0" x1="-499.543" y1="-649.035" x2="200.458" y2="563.401"/>
				<line class="st0" x1="-599.543" y1="-649.035" x2="100.458" y2="563.401"/>
				<line class="st0" x1="-699.543" y1="-649.035" x2="0.457" y2="563.401"/>
				<line class="st0" x1="-399.543" y1="43.785" x2="1200.458" y2="43.785"/>
				<line class="st0" x1="-449.543" y1="130.387" x2="1350.458" y2="130.387"/>
				<line class="st0" x1="-499.543" y1="216.99" x2="1400.458" y2="216.99"/>
				<line class="st0" x1="-549.543" y1="303.592" x2="1450.458" y2="303.592"/>
				<line class="st0" x1="-600.549" y1="390.195" x2="1509.145" y2="390.195"/>
				<line class="st0" x1="-649.543" y1="476.797" x2="1559.458" y2="476.797"/>
				<line class="st0" x1="450.44" y1="-649.035" x2="-249.561" y2="563.4"/>
				<line class="st0" x1="550.44" y1="-649.035" x2="-149.561" y2="563.4"/>
				<line class="st0" x1="650.44" y1="-649.035" x2="-49.561" y2="563.4"/>
				<line class="st0" x1="750.439" y1="-649.035" x2="50.439" y2="563.4"/>
				<line class="st0" x1="850.438" y1="-649.035" x2="150.44" y2="563.4"/>
				<line class="st0" x1="950.438" y1="-649.035" x2="250.44" y2="563.4"/>
				<line class="st0" x1="1050.44" y1="-649.035" x2="350.44" y2="563.4"/>
				<line class="st0" x1="1150.44" y1="-649.034" x2="450.44" y2="563.401"/>
				<line class="st0" x1="1250.44" y1="-649.035" x2="550.44" y2="563.4"/>
				<line class="st0" x1="1350.44" y1="-649.035" x2="650.44" y2="563.4"/>
				<line class="st0" x1="1450.44" y1="-649.035" x2="750.439" y2="563.4"/>
				<line class="st0" x1="1550.44" y1="-649.035" x2="850.438" y2="563.4"/>
				<line class="st0" x1="550.44" y1="-649.034" x2="1250.44" y2="563.401"/>
				<line class="st0" x1="450.44" y1="-649.034" x2="1150.44" y2="563.401"/>
				<line class="st0" x1="350.44" y1="-649.034" x2="1050.44" y2="563.401"/>
				<line class="st0" x1="950.438" y1="563.401" x2="250.44" y2="-649.034"/>
				<line class="st0" x1="150.44" y1="-649.034" x2="850.438" y2="563.401"/>
				<line class="st0" x1="50.439" y1="-649.034" x2="750.439" y2="563.401"/>
				<line class="st0" x1="-49.561" y1="-649.034" x2="650.44" y2="563.401"/>
				<line class="st0" x1="-149.561" y1="-649.034" x2="550.44" y2="563.401"/>
				<line class="st0" x1="-249.561" y1="-649.034" x2="450.44" y2="563.401"/>
				<line class="st0" x1="-349.561" y1="-649.035" x2="350.44" y2="563.4"/>
				<line class="st0" x1="-449.561" y1="-649.034" x2="250.44" y2="563.401"/>
				<line class="st0" x1="-549.561" y1="-649.034" x2="150.44" y2="563.401"/>
				<line class="st0" x1="-649.561" y1="-649.034" x2="50.439" y2="563.401"/>
				<line class="st0" x1="-749.561" y1="-649.034" x2="-49.561" y2="563.401"/>
				<path class="st0" d="M1200.44-42.817"/>
				<path class="st0" d="M-399.561-42.817"/>
				<path class="st0" d="M1150.44,43.785"/>
				<path class="st0" d="M-449.561,43.785"/>
				<path class="st0" d="M1300.44,130.388"/>
				<path class="st0" d="M-499.561,130.388"/>
				<path class="st0" d="M1350.44,216.99"/>
				<path class="st0" d="M-549.561,216.99"/>
				<path class="st0" d="M1400.44,303.593"/>
				<path class="st0" d="M-599.561,303.593"/>
				<path class="st0" d="M1459.129,390.195"/>
				<path class="st0" d="M-650.567,390.195"/>
				<path class="st0" d="M1509.44,476.797"/>
				<path class="st0" d="M-699.561,476.797"/>
				<line class="st0" x1="-452.928" y1="0.5" x2="1147.073" y2="0.5"/>
				<line class="st0" x1="-502.928" y1="87.102" x2="1297.073" y2="87.102"/>
				<line class="st0" x1="-552.928" y1="173.705" x2="1347.073" y2="173.705"/>
				<line class="st0" x1="-602.928" y1="260.307" x2="1397.073" y2="260.307"/>
				<line class="st0" x1="-653.935" y1="346.91" x2="1455.762" y2="346.91"/>
				<line class="st0" x1="-702.928" y1="433.512" x2="1506.071" y2="433.512"/>
				<line class="st0" x1="-637.626" y1="520.115" x2="1571.374" y2="520.115"/>
				<line class="st0" x1="-646.829" y1="606.718" x2="1562.17" y2="606.718"/>
				<line class="st0" x1="-632.779" y1="563.402" x2="1576.221" y2="563.402"/>
			</g>
			<g>
				<line class="st0" x1="150.475" y1="1775.838" x2="-549.525" y2="563.402"/>
				<line class="st0" x1="250.475" y1="1775.838" x2="-449.525" y2="563.402"/>
				<line class="st0" x1="350.475" y1="1775.838" x2="-349.525" y2="563.402"/>
				<line class="st0" x1="450.475" y1="1775.838" x2="-249.525" y2="563.402"/>
				<line class="st0" x1="550.475" y1="1775.838" x2="-149.525" y2="563.402"/>
				<line class="st0" x1="650.475" y1="1775.838" x2="-49.525" y2="563.402"/>
				<line class="st0" x1="750.475" y1="1775.838" x2="50.475" y2="563.402"/>
				<line class="st0" x1="850.475" y1="1775.838" x2="150.475" y2="563.402"/>
				<line class="st0" x1="950.475" y1="1775.838" x2="250.475" y2="563.402"/>
				<line class="st0" x1="1050.475" y1="1775.838" x2="350.475" y2="563.402"/>
				<line class="st0" x1="1150.475" y1="1775.838" x2="450.475" y2="563.402"/>
				<line class="st0" x1="1250.475" y1="1775.836" x2="550.475" y2="563.401"/>
				<line class="st0" x1="1350.475" y1="1775.838" x2="650.475" y2="563.402"/>
				<line class="st0" x1="1450.475" y1="1775.838" x2="750.475" y2="563.402"/>
				<line class="st0" x1="1550.475" y1="1775.838" x2="850.475" y2="563.402"/>
				<line class="st0" x1="1650.475" y1="1775.838" x2="950.475" y2="563.402"/>
				<line class="st0" x1="850.475" y1="1775.836" x2="1550.475" y2="563.401"/>
				<line class="st0" x1="750.475" y1="1775.836" x2="1450.475" y2="563.401"/>
				<line class="st0" x1="650.475" y1="1775.836" x2="1350.475" y2="563.401"/>
				<line class="st0" x1="550.475" y1="1775.836" x2="1250.475" y2="563.401"/>
				<line class="st0" x1="450.475" y1="1775.836" x2="1150.475" y2="563.401"/>
				<line class="st0" x1="1050.475" y1="563.401" x2="350.475" y2="1775.836"/>
				<line class="st0" x1="250.475" y1="1775.836" x2="950.475" y2="563.401"/>
				<line class="st0" x1="150.475" y1="1775.836" x2="850.475" y2="563.401"/>
				<line class="st0" x1="50.475" y1="1775.836" x2="750.475" y2="563.401"/>
				<line class="st0" x1="-49.525" y1="1775.836" x2="650.475" y2="563.401"/>
				<line class="st0" x1="-149.525" y1="1775.836" x2="550.475" y2="563.401"/>
				<line class="st0" x1="-249.525" y1="1775.838" x2="450.475" y2="563.402"/>
				<line class="st0" x1="-349.525" y1="1775.836" x2="350.475" y2="563.401"/>
				<line class="st0" x1="-449.525" y1="1775.836" x2="250.475" y2="563.401"/>
				<line class="st0" x1="-549.525" y1="1775.836" x2="150.475" y2="563.401"/>
				<line class="st0" x1="-649.525" y1="1775.836" x2="50.475" y2="563.401"/>
				<line class="st0" x1="-299.525" y1="1169.62" x2="1300.475" y2="1169.62"/>
				<line class="st0" x1="-249.526" y1="1256.221" x2="1350.475" y2="1256.221"/>
				<line class="st0" x1="-199.526" y1="1342.825" x2="1400.475" y2="1342.825"/>
				<line class="st0" x1="-149.526" y1="1429.426" x2="1450.475" y2="1429.426"/>
				<line class="st0" x1="-99.525" y1="1516.03" x2="1500.475" y2="1516.03"/>
				<line class="st0" x1="-49.526" y1="1602.631" x2="1550.475" y2="1602.631"/>
				<path class="st0" d="M1600.475,1689.235"/>
				<path class="st0" d="M0.474,1689.235"/>
				<line class="st0" x1="-349.525" y1="1083.018" x2="1250.475" y2="1083.018"/>
				<line class="st0" x1="-399.525" y1="996.415" x2="1400.475" y2="996.415"/>
				<line class="st0" x1="-449.525" y1="909.813" x2="1450.475" y2="909.813"/>
				<line class="st0" x1="-499.525" y1="823.21" x2="1500.475" y2="823.21"/>
				<line class="st0" x1="-550.532" y1="736.607" x2="1559.163" y2="736.607"/>
				<line class="st0" x1="-599.525" y1="650.005" x2="1609.475" y2="650.005"/>
				<line class="st0" x1="100.458" y1="1775.836" x2="-599.543" y2="563.402"/>
				<line class="st0" x1="200.458" y1="1775.836" x2="-499.543" y2="563.402"/>
				<line class="st0" x1="300.458" y1="1775.836" x2="-399.543" y2="563.402"/>
				<line class="st0" x1="400.458" y1="1775.836" x2="-299.543" y2="563.402"/>
				<line class="st0" x1="500.458" y1="1775.836" x2="-199.543" y2="563.402"/>
				<line class="st0" x1="600.458" y1="1775.836" x2="-99.543" y2="563.402"/>
				<line class="st0" x1="700.458" y1="1775.836" x2="0.457" y2="563.402"/>
				<line class="st0" x1="800.458" y1="1775.836" x2="100.458" y2="563.402"/>
				<line class="st0" x1="900.458" y1="1775.836" x2="200.458" y2="563.402"/>
				<line class="st0" x1="1000.458" y1="1775.836" x2="300.458" y2="563.402"/>
				<line class="st0" x1="1100.458" y1="1775.836" x2="400.458" y2="563.402"/>
				<line class="st0" x1="1200.458" y1="1775.836" x2="500.458" y2="563.401"/>
				<line class="st0" x1="1300.458" y1="1775.836" x2="600.458" y2="563.402"/>
				<line class="st0" x1="1400.458" y1="1775.836" x2="700.458" y2="563.402"/>
				<line class="st0" x1="1500.458" y1="1775.836" x2="800.458" y2="563.402"/>
				<line class="st0" x1="1600.458" y1="1775.836" x2="900.458" y2="563.402"/>
				<line class="st0" x1="800.458" y1="1775.836" x2="1500.458" y2="563.401"/>
				<line class="st0" x1="700.458" y1="1775.836" x2="1400.458" y2="563.401"/>
				<line class="st0" x1="600.458" y1="1775.836" x2="1300.458" y2="563.401"/>
				<line class="st0" x1="500.458" y1="1775.836" x2="1200.458" y2="563.401"/>
				<line class="st0" x1="400.458" y1="1775.836" x2="1100.458" y2="563.401"/>
				<line class="st0" x1="1000.458" y1="563.401" x2="300.458" y2="1775.836"/>
				<line class="st0" x1="200.458" y1="1775.836" x2="900.458" y2="563.401"/>
				<line class="st0" x1="100.458" y1="1775.836" x2="800.458" y2="563.401"/>
				<line class="st0" x1="0.457" y1="1775.836" x2="700.458" y2="563.401"/>
				<line class="st0" x1="-99.543" y1="1775.836" x2="600.458" y2="563.401"/>
				<line class="st0" x1="-199.543" y1="1775.836" x2="500.458" y2="563.401"/>
				<line class="st0" x1="-299.543" y1="1775.836" x2="400.458" y2="563.402"/>
				<line class="st0" x1="-399.543" y1="1775.836" x2="300.458" y2="563.401"/>
				<line class="st0" x1="-499.543" y1="1775.836" x2="200.458" y2="563.401"/>
				<line class="st0" x1="-599.543" y1="1775.836" x2="100.458" y2="563.401"/>
				<line class="st0" x1="-699.543" y1="1775.836" x2="0.457" y2="563.401"/>
				<path class="st0" d="M1250.458,1169.62"/>
				<path class="st0" d="M-349.543,1169.62"/>
				<line class="st0" x1="-153.804" y1="1559.315" x2="1446.196" y2="1559.315"/>
				<path class="st0" d="M1200.458,1083.016"/>
				<path class="st0" d="M-399.543,1083.016"/>
				<path class="st0" d="M1350.458,996.415"/>
				<path class="st0" d="M-449.543,996.415"/>
				<path class="st0" d="M1400.458,909.811"/>
				<path class="st0" d="M-499.543,909.811"/>
				<path class="st0" d="M1450.458,823.209"/>
				<path class="st0" d="M-549.543,823.209"/>
				<path class="st0" d="M1509.145,736.607"/>
				<path class="st0" d="M-600.549,736.607"/>
				<path class="st0" d="M1559.458,650.005"/>
				<path class="st0" d="M-649.543,650.005"/>
				<line class="st0" x1="-352.911" y1="1212.905" x2="1247.09" y2="1212.905"/>
				<line class="st0" x1="-302.911" y1="1299.507" x2="1297.09" y2="1299.507"/>
				<line class="st0" x1="-252.911" y1="1386.11" x2="1347.09" y2="1386.11"/>
				<line class="st0" x1="-202.911" y1="1472.711" x2="1397.09" y2="1472.711"/>
				<line class="st0" x1="-102.911" y1="1645.917" x2="1497.09" y2="1645.917"/>
				<path class="st0" d="M1547.09,1732.52"/>
				<path class="st0" d="M-52.911,1732.52"/>
				<line class="st0" x1="-402.911" y1="1126.303" x2="1197.09" y2="1126.303"/>
				<line class="st0" x1="-452.911" y1="1039.7" x2="1347.09" y2="1039.7"/>
				<line class="st0" x1="-502.911" y1="953.098" x2="1397.09" y2="953.098"/>
				<line class="st0" x1="-552.911" y1="866.495" x2="1447.09" y2="866.495"/>
				<line class="st0" x1="-603.917" y1="779.893" x2="1505.78" y2="779.893"/>
				<line class="st0" x1="-652.911" y1="693.291" x2="1556.09" y2="693.291"/>
			</g>
		</g>
	</pattern>
  </defs>
  <rect fill="url(#pattern)" width="100%" height="100%" stroke-width="0"/>

</svg>
