<svg xmlns="http://www.w3.org/2000/svg" width="949.9" height="1645.4" viewBox="0 0 949.9 1645.4">
  <style>
    :root { --black: #443430; --red: #BF402B; --gold: #CEA600; --turquois: #4D9BA3; --emerald: #216554; --blue: #262F66; --white: #FFFAF2; --lightBlue: #2AAFDD; } .shape-2{fill:var(--red)} .shape-1{fill:var(--turquois)} .shape-3{fill:var(--white)} .shape-4{fill:var(--black)} .guides{ stroke: #4FFF4F; display: none;}
  </style>
  <g class="line" id="pattern">
    <path class="shape-2" d="M400.5 1169.6h50l-25 43.3 25 43.3h-50l-25 43.3-25-43.3h-50l25-43.3-25-43.3h50l25-43.3 25 43.3zm100-346.4h-50l25 43.3-25 43.3h50l25 43.3 25-43.3h50l-25-43.3 25-43.3h-50l-25-43.3-25 43.3zm25-129.9h50l-25-43.3 25-43.3h-50l-25-43.3-25 43.3h-50l25 43.3-25 43.3h50l25 43.3 25-43.3zm-375 389.7h-50l25 43.3-25 43.3h50l25 43.3 25-43.3h50l-25-43.3 25-43.3h-50l-25-43.3-25 43.3zm700-952.6l-25-43.3-25 43.3h-50l25 43.3-25 43.3h50l25 43.3 25-43.3h50l-25-43.2 25-43.3h-50zm-150 866l25 43.3 25-43.3h50l-25-43.3 25-43.3h-50l-25-43.3-25 43.3h-50l25 43.3-25 43.3h50zm-25-216.5l25 43.3 25-43.3h50l-25-43.3 25-43.3h-50l-25-43.3-25 43.3h-50l25 43.3-25 43.3h50zm225-129.9h50l-25-43.3 25-43.3h-50l-25-43.3-25 43.3h-50l25 43.3-25 43.3h50l25 43.3 25-43.3zm-250-86.6l25 43.3 25-43.3h50l-25-43.3 25-43.3h-50l-25-43.3-25 43.3h-50l25 43.3-25 43.3h50zm25-476.3l25-43.3h-50L625.5.5l-25 43.3h-50l25 43.3-25 43.3h50l25 43.3 25-43.3h50l-25-43.3zM325.5 347l25-43.3h-50l-25-43.3-25 43.3h-50l25 43.3-25 43.3h50l25 43.3 25-43.3h50l-25-43.3zm300 0l25 43.3 25-43.3h50l-25-43.3 25-43.3h-50l-25-43.3-25 43.3h-50l25 43.3-25 43.3h50zm250 0l-25-43.3-25 43.3h-50l25 43.3-25 43.3h50l25 43.3 25-43.3h50l-25-43.3 25-43.3h-50zm-425 130l25 43.2 25-43.3h50l-25-43.3 25-43.3h-50l-25-43.3-25 43.3h-50l25 43.3-25 43.3h50zm25-216.6h50l-25-43.3 25-43.3h-50l-25-43.3-25 43.3h-50l25 43.3-25 43.3h50l25 43.3 25-43.3zM950.4 43.8l-25 43.3h50.1l1 1.8V-1.2l-1 1.7h-50l24.9 43.3zm0 1039.2h26.1v-86.6h-26l-25-43.3-25 43.3h-50l25 43.3-25 43.3h50l25 43.3 25-43.3zm-225 129.9l25 43.3 25-43.3h50l-25-43.3 25-43.3h-50l-25-43.3-25 43.3h-50l25 43.3-25 43.3h50zm-125-130l25-43.2h-50l-25-43.3-25 43.3h-50l25 43.3-25 43.3h50l25 43.3 25-43.3h50l-25-43.3zm-25 476.4l25 43.3 25-43.3h50l-25-43.3 25-43.3h-50l-25-43.3-25 43.3h-50l25 43.3-25 43.3h50zm225-129.9h50l-25-43.3 25-43.3h-50l-25-43.3-25 43.3h-50l25 43.3-25 43.3h50l25 43.3 25-43.3zm-250-86.6l25 43.3 25-43.3h50l-25-43.3 25-43.3h-50l-25-43.3-25 43.3h-50l25 43.3-25 43.3h50zm225 303.1l12.7 22h24.7l12.7-22h50l12.6 22-37.6-65.3 25-43.3h-50l-25-43.3-25 43.3h-50l25 43.3-25 43.3h50zm-525-43.3h50l-25-43.3 25-43.3h-50l-25-43.3-25 43.3h-50l25 43.3-25 43.3h50l25 43.3 25-43.3zM475.6.6L493-29.6H358l17.4 30-25 43.3h50l25 43.3 25-43.3h50L475.5.5zm-175 129.8l25-43.2h-50l-25-43.4-25 43.3h-50l25 43.3-25 43.3h50l25 43.3 25-43.3h50l-25-43.3zm-250 1125.8l25-43.3h-50l-25-43.3-25 43.3h-2.3v86.6h2.3l25 43.3 25-43.3h50l-25-43.3zm50-952.6h50l-25-43.3 25-43.3h-50l-25-43.3-25 43.3H.5l25 43.3-25 43.3h50l25 43.3 25-43.3zm325 1169.1h50l-25-43.3 25-43.3h-50l-25-43.3-25 43.3h-50l25 43.3-25 43.3h50l25 43.3 25-43.3zm-175-129.9l25-43.3h-50l-25-43.3-25 43.3h-50l25 43.3-25 43.3h50l25 43.3 25-43.3h50l-25-43.3zM725.4.5h50.1l25 43.3 25-43.3h49.9l-17.4-30H742.8L725.4.5zm200 866h50l-24.9-43.2 25-43.3h1-51l-25-43.3-25 43.2h-50l25 43.3-25 43.3h50l25 43.3 25-43.3zM75.5 87.1h50l-25-43.3 25-43.3H75.6l-17.4-30H42.8L25.5.5h-50l25 43.3-25 43.3h-2.3 52.3l25 43.3 25-43.3zm325 1515.5h-50l25 43.3-12.6 22H488l-12.6-22 25-43.3h-50l-25-43.3-25 43.3zm575-303h1.1v-86.7h-1l-25-43.2-25 43.3h-50l25 43.2-25 43.3h50l25 43.3 25-43.2zm-25 216.4l26.1 41.6v-173.3l-26 45.2h-50l25 43.2-25 43.3h50zm-337.6 151.8H638l-12.6-21.9-12.7 22zm362.7-21.8h-50l12.6 21.8h38.4l-1-21.8zm-850-.1h-50l-25-43.3-25 43.3h-50l-2.3-3.8v25.7h139.6l12.7-21.9zm-75-216.5l-25-43.3-25 43.3h-27.3v86.6H.5l25 43.3 25-43.3h50l-25-43.3 25-43.3h-50zm325-649.5l25-43.3h-50l-25-43.3-25 43.3h-50l25 43.3-25 43.3h50l25 43.3 25-43.3h50l-25-43.3zm-200-86.6l25-43.3h-50l-25-43.3-25 43.3h-50l25 43.3-25 43.3h50l25 43.3 25-43.3h50l-25-43.3zm-75 216.5l-25 43.3h50l25 43.3 25-43.3h50l-25-43.3 25-43.3h-50l-25-43.3-25 43.3h-50l25 43.3zm250-346.4l25-43.3h-50l-25-43.3-25 43.3h-50l25 43.3-25 43.3h50l25 43.3 25-43.3h50l-25-43.3zm-225-129.9l-25-43.3-25 43.3h-50l25 43.3-25 43.3h50l25 43.3 25-43.3h50l-25-43.3 25-43.3h-50zm250 606.2h50l-25-43.3 25-43.3h-50l-25-43.3-25 43.3h-50l25 43.3-25 43.3h50l25 43.3 25-43.3zm-400-173.2h50l-25-43.3 25-43.3h-50l-2.3-3.9v94.3l2.3-3.8zm75 216.5l-25-43.3 25-43.3H.5l-25-43.3-2.3 3.8v173.2L.5 1083h50z"/>
    <path class="shape-1" d="M350.5 1256.2h-100v-28.9l-25-14.4-25 43.3 25 43.3h100v28.9l25 14.4 25-43.3zm-25-216.5h-100v-28.9l-25-14.4-25 43.3 25 43.3h100v28.9l25 14.4 25-43.3zm-200-86.6h-100v-28.9l-25-14.4-25 43.3 25 43.3h100v28.9l25 14.4 25-43.3zm400 173.2h-100v-28.9l-25-14.4-25 43.3 25 43.3h100v28.9l25 14.4 25-43.3zm-25-216.5h-100v-28.9l-25-14.4-25 43.3 25 43.3h100V982l25 14.4 25-43.3zm-200-86.6h-100v-28.9l-25-14.4-25 43.3 25 43.3h100v28.9l25 14.4 25-43.3zm-200-86.6H.5v-28.9l-25-14.4-25 43.3 25 43.3h100v28.9l25 14.4 25-43.3zm75 649.5h-100v-28.9l-25-14.4-25 43.3 25 43.3h100v28.9l25 14.4 25-43.3zm-200-86.6h-100v-28.9l-25-14.4-25 43.3 25 43.3h100v28.9l25 14.4 25-43.3zm575 43.3h-100v-28.9l-25-14.4-25 43.3 25 43.3h100v28.9l25 14.4 25-43.3zm175-129.9h-100V1184l-25-14.4-25 43.3 25 43.3h100v28.9l25 14.4 25-43.3zm200 86.6h-100v-28.9l-25-14.4-25 43.3 25 43.3h100v28.9l25 14.4 25-43.3zm-225-303.1h-100v-28.9l-25-14.4-25 43.3 25 43.3h100v28.9l25 14.4 25-43.3zm200 86.6h-100v-28.9l-25-14.4-25 43.3 25 43.3h100v28.9l25 14.4 25-43.3zm-150 346.4h-100v-28.9l-25-14.4-25 43.3 25 43.3h100v28.9l25 14.4 25-43.3zm200 86.6h-100v-28.8l-25-14.5-25 43.3 25 43.3h100v28.9l25 14.4 25-43.3zm-575-43.3h-100v-28.9l-25-14.4-25 43.3 25 43.3h100v28.9l25 14.4 25-43.3zm-175 129.9h-100v-28.9l-25-14.4-25 43.3 25 43.3h100v28.9l25 14.4 25-43.3zM.5 1516h-100v-28.9l-25-14.4-25 43.3 25 43.3h100v28.9l25 14.4 25-43.3zm399.9 173.2h-100v-28.8l-25-14.5-25 43.3 25 43.3h100v28.9l25 14.4 25-43.3zm-249.9-519.6h-100v-28.9l-25-14.4-25 43.3 25 43.3h100v28.9l25 14.4 25-43.3zM575.5 1559.3h-100v-28.9l-25-14.4-25 43.3 25 43.3h100v28.9l25 14.4 25-43.3zm200 86.6h-100V1617l-25-14.4-25 43.3 25 43.3h100v28.9l25 14.4 25-43.3zM450.5 476.8h-100V448l-25-14.5-25 43.3 25 43.3h100V549l25 14.4 25-43.3zm-25-216.5h-100v-28.8l-25-14.5-25 43.3 25 43.3h100v28.9l25 14.4 25-43.3zm-200-86.6h-100v-28.8l-25-14.5-25 43.3 25 43.3h100v28.9l25 14.4 25-43.3zm-200-86.6h-100V58.2l-25-14.4-25 43.3 25 43.3H.5v28.9l25 14.4 25-43.3zm600 259.8h-100v-28.8l-25-14.5-25 43.3 25 43.3h100v28.9l25 14.4 25-43.3zm-25-216.5h-100v-28.8l-25-14.5-25 43.3 25 43.3h100v28.9l25 14.4 25-43.3zm-200-86.6h-100V15L275.5.5l-25 43.3 25 43.4h100V116l25 14.5 25-43.3zm-200-86.6h-100v-28.8l-25-14.5-25 43.3L75.5.5h100v28.9l25 14.4 25-43.3zm75 649.5h-100v-28.8l-25-14.5-25 43.3 25 43.3h100v28.9l25 14.4 25-43.3zm375-43.3h-100v-28.8l-25-14.5-25 43.3 25 43.3h100v28.9l25 14.4 25-43.3zm175-129.9h-100v-28.8l-25-14.5-25 43.3 25 43.3h100v28.9l25 14.4 25-43.3zm200 86.6h-100v-28.8l-25-14.5-25 43.3 25 43.3h100v28.9l25 14.4 25-43.3zM800.5 217h-100v-28.8l-25-14.5-25 43.3 25 43.3h100v28.9l25 14.4 25-43.3zm200 86.6h-100v-28.8l-25-14.5-25 43.3 25 43.3h100v28.9l25 14.4 25-43.3zM850.5 650h-100v-28.8l-25-14.5-25 43.3 25 43.3h100v28.9l25 14.4 25-43.3zm200 86.7h-100v-28.9l-25-14.4-25 43.3 25 43.3h100v28.8l25 14.5 25-43.3zm-575-43.4h-100v-28.8l-25-14.5-25 43.3 25 43.3h100v28.9l25 14.4 25-43.3zm-225-303.1h-100v-28.8l-25-14.5-25 43.3 25 43.3h100v28.9l25 14.4 25-43.3zM575.5-86.1h-100v-28.8l-25-14.5-25 43.3 25 43.3h100v28.9l25 14.4 25-43.3zM775.5.5h-100v-28.8l-25-14.5-25 43.3 25 43.3h100v28.9l25 14.4 25-43.3zm200 86.6h-100V58.3l-25-14.5-25 43.3 25 43.3h100v28.9l25 14.5 25-43.4zM675.5 779.9h-100v-28.8l-25-14.5-25 43.3 25 43.3h100v28.9l25 14.4 25-43.3zm200 86.6h-100v-28.8l-25-14.5-25 43.3 25 43.3h100v28.9l25 14.4 25-43.3zm200 86.6h-100v-28.8l-25-14.5-25 43.3 25 43.3h100v28.9l25 14.4 25-43.3zm25 216.5h-100v-28.8l-25-14.5-25 43.3 25 43.3h100v28.9l25 14.4 25-43.3zM50.5 303.6h-100v-28.8l-25-14.5-25 43.3 25 43.3h100v28.9l25 14.4 25-43.3zm25 216.5h-100v-28.8l-25-14.5-25 43.3 25 43.3h100v28.9l25 14.4 25-43.3z"/>
    <path class="shape-3" d="M350.5 563.4l50 86.6-25 14.5v28.8h50l25-43.3-50-86.6 25-14.4v-28.9h-50zm-25-216.5l50 86.6-25 14.5v28.8h50l25-43.3-50-86.6 25-14.4v-28.9h-50zm-25-216.5l50 86.6-25 14.5v28.8h50l25-43.3-50-86.6 25-14.4V87.1h-50zm-200-86.6l50 86.6-25 14.5v28.8h50l25-43.3-50-86.6 25-14.4V.5h-50zm-200-86.6l50 86.6-25 14.5v28.8h50l25-43.3-50-86.6 25-14.4v-28.9h-50zm250 519.6l50 86.6-25 14.5v28.8h50l25-43.3-50-86.6 25-14.4v-28.9h-50zm-25-216.5l50 86.6-25 14.5v28.8h50l25-43.3-50-86.6 25-14.4V217h-50zM-74.5 173.7l50 86.6-25 14.5v28.8h50l25-43.3-50-86.6 25-14.4v-28.9h-50zm25 216.5l50 86.6-25 14.5v28.8h50l25-43.3-50-86.6 25-14.4v-28.9h-50zm600 259.8l50 86.6-25 14.5v28.8h50l25-43.3-50-86.6 25-14.4v-28.9h-50zm-25-216.5l50 86.6-25 14.5v28.8h50l25-43.3-50-86.6 25-14.4v-28.9h-50zm-25-216.5l50 86.6-25 14.5v28.8h50l25-43.3-50-86.6 25-14.4v-28.9h-50zm225 303.1l50 86.6-25 14.5V650h50l25-43.3-50-86.6 25-14.4v-28.9h-50zm-25-216.5l50 86.6-25 14.5v28.8h50l25-43.3-50-86.6 25-14.4v-28.9h-50zm225 303.1l50 86.6-25 14.5v28.8h50l25-43.3-50-86.6 25-14.4v-28.9h-50zm-175 129.9l50 86.6-25 14.5v28.8h50l25-43.3-50-86.6 25-14.4v-28.9h-50zm-475-822.7l50 86.6-25 14.5v28.8h50l25-43.3-50-86.6 25-14.4v-28.9h-50zM475.5.5l50 86.6-25 14.5v28.8h50l25-43.3-50-86.6 25-14.4v-28.9h-50zm400 173.3l50 86.6-25 14.4v28.9h50l25-43.3-50-86.6 25-14.5v-28.9h-50zM850.4-42.8l50 86.6-25 14.5v28.8h50l25-43.3-50-86.6 25-14.4v-28.9h-50zm-200-86.6l50 86.6-25 14.5V.5h50l25-43.3-50-86.6 25-14.4v-28.9h-50zm25.1 216.5l50 86.6-25 14.5V217h50l25-43.3-50-86.6 25-14.4V43.8h-50zm225 303.1l50 86.6-25 14.5v28.8h50l25-43.3-50-86.6 25-14.4v-28.9h-50zM250.5 1342.8l50 86.6-25 14.4v28.9h50l25-43.3-50-86.6 25-14.4v-28.9h-50zm-25-216.5l50 86.6-25 14.4v28.9h50l25-43.3-50-86.6 25-14.4V1083h-50zm-25-216.5l50 86.6-25 14.4v28.9h50l25-43.3-50-86.6 25-14.5v-28.8h-50zM.5 823.2l50 86.6-25 14.4v28.9h50l25-43.3-50-86.6 25-14.5v-28.8h-50zm75 649.5l50 86.6-25 14.4v28.9h50l25-43.3-50-86.6 25-14.4v-28.9h-50zm-25-216.5l50 86.6-25 14.4v28.9h50l25-43.3-50-86.6 25-14.4v-28.9h-50zm-25-216.5l50 86.6-25 14.4v28.9h50l25-43.3-50-86.6 25-14.4v-28.9h-50zm425 389.7l50 86.6-25 14.4v28.9h50l25-43.3-50-86.6 25-14.4v-28.9h-50zm-25-216.5l50 86.6-25 14.4v28.9h50l25-43.3-50-86.6 25-14.4v-28.9h-50zm-25-216.5l50 86.6-25 14.4v28.9h50l25-43.3-50-86.6 25-14.4v-28.9h-50zm225 303.1l50 86.6-25 14.4v28.9h50l25-43.3-50-86.6 25-14.4v-28.9h-50zm-25-216.5l50 86.6-25 14.4v28.9h50l25-43.3-50-86.6 25-14.4v-28.9h-50zm225 303.1l50 86.6-25 14.4v28.9h50l25-43.3-50-86.6 25-14.4v-28.9h-50zm25 216.5l50 86.6-25 14.5v28.8h50l25-43.3-50-86.6 25-14.4v-28.9h-50zm-200-86.6l50 86.6-25 14.4v28.9h50l25-43.3-50-86.6 25-14.4v-28.9h-50zm-375 43.3l50 86.6-25 14.4v28.9h50l25-43.3-50-86.6 25-14.4V1516h-50zm-175 129.9l50 86.6-25 14.4v28.9h50l25-43.3-50-86.6 25-14.4v-28.9h-50zm375-43.3l50 86.6-25 14.4v28.9h50l25-43.3-50-86.6 25-14.4v-28.9h-50zm-300-952.6l50 86.6-25 14.4v28.9h50l25-43.3-50-86.6 25-14.4V650h-50zm-200-86.6l50 86.6-25 14.4v28.9h50l25-43.3-50-86.6 25-14.4v-28.9H.5zm400 173.2l50 86.6-25 14.4v28.9h50l25-43.3-50-86.6 25-14.4v-28.9h-50zm400 173.2l50 86.6-25 14.5v28.8h50l25-43.3-50-86.6 25-14.4v-28.9h-50zm175-129.8l50 86.6-25 14.4v28.9h50l25-43.3-50-86.6 25-14.5V780h-50zm-375 43.2l50 86.6-25 14.4v28.9h50l25-43.3-50-86.6 25-14.5v-28.8h-50zm225 303.1l50 86.6-25 14.4v28.9h50l25-43.3-50-86.6 25-14.4v-28.9h-50z"/>
    <path class="shape-4" d="M400.5 1256.2l-50 86.6-25-14.4-25 14.4 25 43.3h50l50-86.6 25 14.4 25-14.4-25-43.3zm-175 129.9l-50 86.6-25-14.4-25 14.4 25 43.3h50l50-86.6 25 14.4 25-14.4-25-43.3zm150-346.4l-50 86.6-25-14.4-25 14.4 25 43.3h50l50-86.6 25 14.4 25-14.4-25-43.3zm-200-86.6l-50 86.6-25-14.4-25 14.4 25 43.3h50l50-86.6 25 14.4 25-14.4-25-43.3zm175-129.9l-50 86.6-25-14.5-25 14.5 25 43.3h50l50-86.6 25 14.4 25-14.4-25-43.3zm225 303.1l-50 86.6-25-14.4-25 14.4 25 43.3h50l50-86.6 25 14.4 25-14.4-25-43.3zm-25-216.5l-50 86.6-25-14.4-25 14.4 25 43.3h50l50-86.6 25 14.4 25-14.4-25-43.3zm-400-173.2l-50 86.6-25-14.4-25 14.4 25 43.3h50l50-86.6 25 14.4 25-14.4-25-43.3zm450 606.2l-50 86.6-25-14.4-25 14.4 25 43.3h50l50-86.6 25 14.4 25-14.4-25-43.3zm150-346.4l-50 86.6-25-14.4-25 14.4 25 43.3h50l50-86.6 25 14.4 25-14.4-25-43.3zm25 216.5l-50 86.6-25-14.4-25 14.4 25 43.3h50l50-86.6 25 14.4 25-14.4-25-43.3zm25 216.5l-50 86.6-25-14.4-25 14.4 25 43.3h50l50-86.6 25 14.4 25-14.4-25-43.3zM425.5 1472.7l-50 86.6-25-14.4-25 14.4 25 43.3h50l50-86.6 25 14.4 25-14.4-25-43.3zm-375 43.3l-50 86.6-25-14.4-25 14.4 25 43.3h50l50-86.6 25 14.4 25-14.4-25-43.3zm200 86.6l-50 86.6-25-14.4-25 14.4 25 43.3h50l50-86.6 25 14.4 25-14.4-25-43.3zm375-43.3l-50 86.6-25-14.4-25 14.4 25 43.3h50l50-86.6 25 14.4 25-14.4-25-43.3zm200 86.6l-50 86.6-25-14.4-25 14.4 25 43.3h50l50-86.6 25 14.4 25-14.4-25-43.3zM.5 1083l-50 86.6-25-14.4-25 14.4 25 43.3h50l50-86.6 25 14.4 25-14.4-25-43.3zm-25-216.5l-50 86.6-25-14.5-25 14.5 25 43.3h50l50-86.6 25 14.4 25-14.4-25-43.3zm50 433l-50 86.6-25-14.4-25 14.4 25 43.3h50l50-86.6 25 14.4 25-14.4-25-43.3zm175-129.9l-50 86.6-25-14.4-25 14.4 25 43.3h50l50-86.6 25 14.4 25-14.4-25-43.3zM500.5 476.8l-50 86.6-25-14.4-25 14.4 25 43.3h50l50-86.6 25 14.5 25-14.5-25-43.3zm-175 129.9l-50 86.6-25-14.4-25 14.4 25 43.3h50l50-86.6 25 14.5 25-14.5-25-43.3zm150-346.4l-50 86.6-25-14.4-25 14.4 25 43.3h50l50-86.6 25 14.5 25-14.5-25-43.3zm-200-86.6l-50 86.6-25-14.4-25 14.4 25 43.3h50l50-86.6 25 14.5 25-14.5-25-43.3zm175-129.9l-50 86.6-25-14.4-25 14.4 25 43.3h50l50-86.6 25 14.5 25-14.5-25-43.3zm225 303.1l-50 86.6-25-14.4-25 14.4 25 43.3h50l50-86.6 25 14.5 25-14.5-25-43.3zm-25-216.5l-50 86.6-25-14.4-25 14.4 25 43.3h50l50-86.6 25 14.5 25-14.5-25-43.3zm-400-173.2l-50 86.6-25-14.4-25 14.4 25 43.3h50l50-86.6 25 14.5 25-14.5-25-43.3zm-200-86.6L.5-42.8l-25-14.4-25 14.4 25 43.3h50l50-86.6 25 14.4 25-14.4-25-43.3zm650 692.8l-50 86.6-25-14.4-25 14.4 25 43.3h50l50-86.6 25 14.5 25-14.5-25-43.3zm150-346.4l-50 86.6-25-14.4-25 14.4 25 43.3h50l50-86.6 25 14.5 25-14.5-25-43.3zM625.5-86.1L575.5.5l-25-14.4-25 14.4 25 43.3h50l50-86.6 25 14.5 25-14.5-25-43.3zM825.5.5l-50 86.6-25-14.4-25 14.4 25 43.3h50l50-86.6 25 14.5 25-14.5-25-43.3zm175-129.9l-50 86.6-25-14.4-25 14.4 25 43.3h50l50-86.6 25 14.5 25-14.5-25-43.3zm25 216.6l-50 86.6-25-14.5-25 14.5 25 43.3h50l50-86.6 25 14.4 25-14.4-25-43.3zm25 216.4l-50 86.6-25-14.4-25 14.4 25 43.3h50l50-86.6 25 14.5 25-14.5-25-43.3zm-175 129.9l-50 86.6-25-14.4-25 14.4 25 43.3h50l50-86.6 25 14.5 25-14.5-25-43.3zm25 216.5l-50 86.6-25-14.4-25 14.4 25 43.3h50l50-86.6 25 14.5 25-14.5-25-43.3zM525.5 693.3l-50 86.6-25-14.4-25 14.4 25 43.3h50l50-86.6 25 14.5 25-14.5-25-43.3zm200 86.6l-50 86.6-25-14.4-25 14.4 25 43.3h50l50-86.6 25 14.5 25-14.5-25-43.3zm200 86.6l-50 86.6-25-14.4-25 14.4 25 43.3h50l50-86.6 25 14.5 25-14.5-25-43.3zm25 216.5l-50 86.7-25-14.5-25 14.5 25 43.3h50l50-86.7 25 14.5 25-14.5-25-43.3zm25 216.6l-50 86.6-25-14.5-25 14.5 25 43.3h50l50-86.6 25 14.4 25-14.4-25-43.3zm25 216.5l-50 86.6-25-14.5-25 14.5 25 43.3h50l50-86.6 25 14.4 25-14.4-25-43.3zm-900-1212.5l-50 86.6-25-14.4-25 14.4 25 43.3h50l50-86.6 25 14.5 25-14.5-25-43.3zm-200-86.6l-50 86.6-25-14.4-25 14.4 25 43.3h50l50-86.6 25 14.5 25-14.5-25-43.3zm175-129.9l-50 86.6-25-14.4-25 14.4L.5 217h50l50-86.6 25 14.5 25-14.5-25-43.3zm50 433l-50 86.6-25-14.4-25 14.4 25 43.3h50l50-86.6 25 14.5 25-14.5-25-43.3zM-49.5 650l-50 86.6-25-14.4-25 14.4 25 43.3h50l50-86.6 25 14.4 25-14.4L.5 650zm350-259.8l-50 86.6-25-14.4-25 14.4 25 43.3h50l50-86.6 25 14.5 25-14.5-25-43.3z"/>
  </g>
  <g class="guides">
    <path d="M400.5-649l-700 1212.4M500.5-649l-700 1212.4M600.5-649l-700 1212.4M700.5-649L.5 563.4M800.5-649l-700 1212.4M900.5-649l-700 1212.4m800-1212.4l-700 1212.4m800-1212.4l-700 1212.4m800-1212.4l-700 1212.4m800-1212.4l-700 1212.4m800-1212.4l-700 1212.4m800-1212.4l-700 1212.4m800-1212.4l-700 1212.4M500.5-649l700 1212.4M400.5-649l700 1212.4m-100 0L300.5-649m-100 0l700 1212.4M100.5-649l700 1212.4M.5-649l700 1212.4M-99.5-649l700 1212.4M-199.5-649l700 1212.4M-299.5-649l700 1212.4M-399.5-649l700 1212.4M-499.5-649l700 1212.4M-599.5-649l700 1212.4M-699.5-649L.5 563.4m-400-519.6h1600m-1650 86.6h1800m-1850 86.6h1900m-1950 86.6h2000m-2051 86.6h2109.6m-2158.6 86.6h2209M450.4-649l-700 1212.4M550.4-649l-700 1212.4M650.4-649l-700 1212.4M750.4-649L50.4 563.4M850.4-649l-700 1212.4M950.4-649l-700 1212.4m800-1212.4l-700 1212.4m800-1212.4l-700 1212.4m800-1212.4l-700 1212.4m800-1212.4l-700 1212.4m800-1212.4l-700 1212.4m800-1212.4l-700 1212.4M550.4-649l700 1212.4M450.4-649l700 1212.4M350.4-649l700 1212.4m-100 0L250.4-649m-100 0l700 1212.4M50.4-649l700 1212.4M-49.6-649l700 1212.4M-149.6-649l700 1212.4M-249.6-649l700 1212.4M-349.6-649l700 1212.4M-449.6-649l700 1212.4M-549.6-649l700 1212.4M-649.6-649l700 1212.4M-749.6-649l700 1212.4M-452.9.5h1600m-1650 86.6h1800m-1850 86.6h1900m-1950 86.6h2000m-2051 86.6h2109.7m-2158.7 86.6h2209m-2143.7 86.6h2209m-2218.2 86.6h2209m-2195-43.3h2209M150.5 1775.8l-700-1212.4m800 1212.4l-700-1212.4m800 1212.4l-700-1212.4m800 1212.4l-700-1212.4m800 1212.4l-700-1212.4m800 1212.4l-700-1212.4m800 1212.4L50.5 563.4m800 1212.4l-700-1212.4m800 1212.4l-700-1212.4m800 1212.4l-700-1212.4m800 1212.4l-700-1212.4m800 1212.4l-700-1212.4m800 1212.4l-700-1212.4m800 1212.4l-700-1212.4m800 1212.4l-700-1212.4m800 1212.4l-700-1212.4m-100 1212.4l700-1212.4m-800 1212.4l700-1212.4m-800 1212.4l700-1212.4m-800 1212.4l700-1212.4m-800 1212.4l700-1212.4m-100 0l-700 1212.4m-100 0l700-1212.4m-800 1212.4l700-1212.4m-800 1212.4l700-1212.4m-800 1212.4l700-1212.4m-800 1212.4l700-1212.4m-800 1212.4l700-1212.4m-800 1212.4l700-1212.4m-800 1212.4l700-1212.4m-800 1212.4l700-1212.4m-800 1212.4l700-1212.4m-350 606.2h1600m-1550 86.6h1600m-1550 86.6h1600m-1550 86.6h1600m-1550 86.6h1600m-1550 86.6h1600m-1900-519.6h1600m-1650-86.6h1800m-1850-86.6h1900m-1950-86.6h2000m-2051-86.6h2109.7M-599.5 650h2209m-1509 1125.8l-700-1212.4m800 1212.4l-700-1212.4m800 1212.4l-700-1212.4m800 1212.4l-700-1212.4m800 1212.4l-700-1212.4m800 1212.4l-700-1212.4m800 1212.4L.5 563.4m800 1212.4l-700-1212.4m800 1212.4l-700-1212.4m800 1212.4l-700-1212.4m800 1212.4l-700-1212.4m800 1212.4l-700-1212.4m800 1212.4l-700-1212.4m800 1212.4l-700-1212.4m800 1212.4l-700-1212.4m800 1212.4l-700-1212.4m-100 1212.4l700-1212.4m-800 1212.4l700-1212.4m-800 1212.4l700-1212.4m-800 1212.4l700-1212.4m-800 1212.4l700-1212.4m-100 0l-700 1212.4m-100 0l700-1212.4m-800 1212.4l700-1212.4M.5 1775.8l700-1212.4m-800 1212.4l700-1212.4m-800 1212.4l700-1212.4m-800 1212.4l700-1212.4m-800 1212.4l700-1212.4m-800 1212.4l700-1212.4m-800 1212.4l700-1212.4m-800 1212.4L.5 563.4m-154.3 995.9h1600m-1799.1-346.4h1600m-1550 86.6h1600m-1550 86.6h1600m-1550 86.6h1600m-1500 173.2h1600m-1900-519.6h1600m-1650-86.6h1800m-1850-86.6h1900m-1950-86.6h2000m-2051-86.6h2109.7m-2158.7-86.6h2209"/>
  </g>
</svg>
